<?xml version="1.0" encoding="UTF-8" standalone="no"?>
<!-- Generator: Adobe Illustrator 16.0.0, SVG Export Plug-In . SVG Version: 6.00 Build 0)  -->

<svg
   id="Layer_1"
   version="1.1"
   xml:space="preserve"
   height="40.225998"
   viewBox="0 0 25.1 40.225998"
   width="25.1"
   enable-background="new 0 0 211 79"
   y="0px"
   x="0px"
   xmlns="http://www.w3.org/2000/svg"
   xmlns:svg="http://www.w3.org/2000/svg"
   xmlns:rdf="http://www.w3.org/1999/02/22-rdf-syntax-ns#"
   xmlns:cc="http://creativecommons.org/ns#"
   xmlns:dc="http://purl.org/dc/elements/1.1/"><defs
   id="defs1" /><metadata
   id="metadata3147"><rdf:RDF><cc:Work
       rdf:about=""><dc:format>image/svg+xml</dc:format><dc:type
         rdf:resource="http://purl.org/dc/dcmitype/StillImage" /></cc:Work></rdf:RDF></metadata>
<linearGradient
   id="path3873_5_"
   x1="95.316002"
   gradientUnits="userSpaceOnUse"
   y1="-15.335"
   gradientTransform="matrix(1,0,0,-1,-28.706,44.038)"
   x2="95.316002"
   y2="22.229">
	<stop
   id="stop3088"
   stop-color="#286EB5"
   offset="0" />
	<stop
   id="stop3090"
   stop-color="#4D9CD1"
   offset="1" />
</linearGradient>
<linearGradient
   id="path3873_6_"
   x1="3.7354"
   gradientUnits="userSpaceOnUse"
   y1="3.1758001"
   gradientTransform="matrix(1,0,0,-1,62.874,44.037)"
   x2="3.7354"
   y2="22.228001">
	<stop
   id="stop3093"
   stop-color="#306D98"
   offset="0" />
	<stop
   id="stop3095"
   stop-color="#3984B8"
   offset="1" />
</linearGradient>
<rect
   id="rect3919"
   fill-rule="evenodd"
   height="17.462"
   width="16.837999"
   y="4.6559997"
   x="4.123003"
   fill="#ffffff" />


<g
   id="g3113"
   stroke-width="1.1"
   stroke-linecap="round"
   transform="translate(-94.205,-21.438)">
		<linearGradient
   id="path3873_9_"
   x1="135.47"
   gradientUnits="userSpaceOnUse"
   y1="-15.335"
   gradientTransform="matrix(1,0,0,-1,-28.706,44.038)"
   x2="135.47"
   y2="22.229">
		<stop
   id="stop3116"
   stop-color="#7CB928"
   offset="0" />
		<stop
   id="stop3118"
   stop-color="#A2C857"
   offset="1" />
	</linearGradient>
		<linearGradient
   id="path3873_10_"
   x1="43.886002"
   gradientUnits="userSpaceOnUse"
   y1="3.1758001"
   gradientTransform="matrix(1,0,0,-1,62.874,44.037)"
   x2="43.886002"
   y2="22.228001">
		<stop
   id="stop3121"
   stop-color="#74963A"
   offset="0" />
		<stop
   id="stop3123"
   stop-color="#89B63E"
   offset="1" />
	</linearGradient>
		<path
   id="path3873_4_"
   d="m 106.8,21.988 c -6.572,0 -12.045,5.691 -12.045,11.865 0,2.777 1.564,6.309 2.693,8.747 l 9.307,17.871 9.262,-17.871 c 1.131,-2.438 2.738,-5.792 2.738,-8.747 0,-6.174 -5.38,-11.865 -11.96,-11.865 z m -1.18,20.069 c -0.521,0 -1.025,-0.215 -1.389,-0.604 -0.025,-0.027 -2.609,-2.793 -3.945,-3.996 -0.779,-0.703 -0.841,-1.904 -0.139,-2.684 0.703,-0.781 1.904,-0.842 2.684,-0.139 0.64,0.576 1.501,1.438 2.275,2.232 1.244,-2.398 3.327,-6 5.765,-8.545 0.726,-0.758 1.929,-0.783 2.687,-0.057 0.758,0.725 0.783,1.928 0.058,2.686 -3.412,3.562 -6.228,9.906 -6.255,9.971 -0.258,0.584 -0.792,1 -1.422,1.108 -0.11,0.018 -0.22,0.028 -0.32,0.028 z"
   fill-rule="evenodd"
   connector-curvature="0"
   export-ydpi="180"
   stroke="url(#path3873_10_)"
   export-filename="C:\Users\dave.STK\Desktop\git\Leaflet\Leaflet\dist\images\marker-icon@2x.png"
   clip-rule="evenodd"
   fill="url(#path3873_9_)"
   nodetypes="zscccszcscsc"
   export-xdpi="180"
   style="fill:url(#path3873_9_);stroke:url(#path3873_10_)" />
		<path
   id="path3792_6_"
   d="m 106.79,23.093 c -5.943,0 -10.938,5.221 -10.938,10.75 0,2.359 1.443,5.832 2.562,8.25 0.006,0.012 0.025,0.021 0.031,0.031 l 8.312,15.969 8.25,-15.969 c 0.006,-0.012 0.025,-0.02 0.031,-0.031 1.135,-2.448 2.625,-5.706 2.625,-8.25 0.01,-5.537 -4.93,-10.75 -10.87,-10.75 z m 5.45,3.543 c -0.814,0 -1.604,0.338 -2.166,0.926 -2.09,2.18 -3.914,5.074 -5.236,7.471 -0.502,-0.498 -0.928,-0.904 -1.273,-1.217 -0.553,-0.498 -1.266,-0.771 -2.009,-0.771 -0.849,0 -1.661,0.361 -2.228,0.992 -1.107,1.227 -1.01,3.129 0.219,4.236 1.288,1.16 3.85,3.901 3.874,3.926 0.569,0.609 1.368,0.957 2.196,0.957 0.166,0 0.334,-0.014 0.498,-0.041 1.002,-0.172 1.841,-0.824 2.248,-1.75 0.029,-0.064 2.805,-6.271 6.043,-9.652 0.555,-0.578 0.851,-1.34 0.834,-2.141 -0.018,-0.801 -0.346,-1.547 -0.925,-2.102 -0.57,-0.537 -1.3,-0.834 -2.08,-0.834 z"
   stroke-opacity="0.1216"
   export-ydpi="180"
   stroke="#ffffff"
   export-filename="C:\Users\dave.STK\Desktop\git\Leaflet\Leaflet\dist\images\marker-icon@2x.png"
   radius="-1.09294"
   fill="none"
   type="inkscape:offset"
   original="M 416.53125 503.625 C 409.95868 503.625 404.5 509.29393 404.5 515.46875 C 404.5 518.24668 406.05726 521.78106 407.1875 524.21875 L 416.5 542.09375 L 425.75 524.21875 C 426.88024 521.78106 428.5 518.42346 428.5 515.46875 C 428.5 509.29393 423.10382 503.625 416.53125 503.625 z M 416.53125 510.78125 C 419.11574 510.79795 421.21875 512.88037 421.21875 515.46875 C 421.21875 518.05715 419.11574 520.13969 416.53125 520.15625 C 413.94676 520.13975 411.875 518.05715 411.875 515.46875 C 411.875 512.88038 413.94676 510.79802 416.53125 510.78125 z "
   export-xdpi="180" />
</g>

<linearGradient
   id="path3873_11_"
   x1="188.85001"
   gradientUnits="userSpaceOnUse"
   y1="-15.335"
   gradientTransform="matrix(1,0,0,-1,-28.706,44.038)"
   x2="188.85001"
   y2="22.229">
	<stop
   id="stop3129"
   stop-color="#286EB5"
   offset="0" />
	<stop
   id="stop3131"
   stop-color="#4D9CD1"
   offset="1" />
</linearGradient>
<linearGradient
   id="path3873_12_"
   x1="97.272003"
   gradientUnits="userSpaceOnUse"
   y1="3.1758001"
   gradientTransform="matrix(1,0,0,-1,62.874,44.037)"
   x2="97.272003"
   y2="22.228001">
	<stop
   id="stop3134"
   stop-color="#306D98"
   offset="0" />
	<stop
   id="stop3136"
   stop-color="#3984B8"
   offset="1" />
</linearGradient>





</svg>
