<svg xmlns="http://www.w3.org/2000/svg" width="512" height="512" viewBox="0 0 512 512" role="img" aria-labelledby="title desc">
  <title id="title">OpenStreetMap-NG Founders mark</title>
  <desc id="desc">A founders badge based on the OpenStreetMap-NG map logo, with NG letters, gold trim, stars, and a founders ribbon.</desc>
  <defs>
    <linearGradient id="mapGrad" x1="70" y1="70" x2="430" y2="430" gradientUnits="userSpaceOnUse">
      <stop offset="0" stop-color="#dff5c3"/>
      <stop offset="0.48" stop-color="#b8e8a1"/>
      <stop offset="1" stop-color="#8fd083"/>
    </linearGradient>
    <linearGradient id="goldGrad" x1="84" y1="82" x2="428" y2="430" gradientUnits="userSpaceOnUse">
      <stop offset="0" stop-color="#fff1a8"/>
      <stop offset="0.44" stop-color="#d7ad3c"/>
      <stop offset="1" stop-color="#9b6b16"/>
    </linearGradient>
    <linearGradient id="ribbonGrad" x1="96" y1="342" x2="416" y2="418" gradientUnits="userSpaceOnUse">
      <stop offset="0" stop-color="#216a4a"/>
      <stop offset="1" stop-color="#123d35"/>
    </linearGradient>
    <filter id="softShadow" x="-20%" y="-20%" width="140%" height="140%">
      <feDropShadow dx="0" dy="8" stdDeviation="10" flood-color="#163022" flood-opacity="0.28"/>
    </filter>
    <clipPath id="mapClip">
      <path d="M92 78c55 14 98-17 157-4 59 14 105-20 171-2l27 166-26 194c-67-18-118 17-181 2-58-14-101 16-159 1L54 267z"/>
    </clipPath>
  </defs>

  <circle cx="256" cy="256" r="229" fill="url(#goldGrad)"/>
  <circle cx="256" cy="256" r="214" fill="#f8fff2"/>

  <g clip-path="url(#mapClip)" filter="url(#softShadow)">
    <path d="M92 78c55 14 98-17 157-4 59 14 105-20 171-2l27 166-26 194c-67-18-118 17-181 2-58-14-101 16-159 1L54 267z" fill="url(#mapGrad)"/>
    <path d="M77 173c67 21 109-21 180 0 72 20 111-15 180 4" fill="none" stroke="#6aad6c" stroke-width="7" stroke-linecap="round" opacity="0.32"/>
    <path d="M73 279c70-18 112 18 181-1 70-20 112 15 181-4" fill="none" stroke="#5d9a5f" stroke-width="5" stroke-linecap="round" opacity="0.38"/>
    <path d="M150 88c20 85-10 145 8 229 9 41 9 74-4 126" fill="none" stroke="#6dad70" stroke-width="5" opacity="0.38"/>
    <path d="M303 71c-12 66 18 123 11 188-7 72 16 117 28 171" fill="none" stroke="#6dad70" stroke-width="5" opacity="0.36"/>
    <path d="M111 127l76 31 41 70 69 18 37 72 71 36" fill="none" stroke="#c25858" stroke-width="8" stroke-linecap="round" stroke-linejoin="round" opacity="0.7"/>
    <path d="M75 333c72-52 130-57 174-36 45 21 93 22 175-37" fill="none" stroke="#6f99d8" stroke-width="9" stroke-linecap="round" opacity="0.62"/>
    <path d="M232 79c37 28 79 36 127 12 35-17 59-10 83 8v79c-51-3-84 14-115 37-45 34-86 21-132-13-34-25-72-27-112-3V99c46-11 93-5 149-20z" fill="#e7f8d6" opacity="0.44"/>
  </g>

  <path d="M92 78c55 14 98-17 157-4 59 14 105-20 171-2l27 166-26 194c-67-18-118 17-181 2-58-14-101 16-159 1L54 267z" fill="none" stroke="#2c4f36" stroke-width="8" stroke-linejoin="round"/>
  <path d="M70 248a186 186 0 0 1 372 0" fill="none" stroke="url(#goldGrad)" stroke-width="18" stroke-linecap="round"/>

  <g font-family="Arial Black, Arial, sans-serif" font-weight="900" text-anchor="middle">
    <text x="256" y="277" font-size="148" fill="#101714" stroke="#101714" stroke-width="18" stroke-linejoin="round">NG</text>
    <text x="256" y="277" font-size="148" fill="#ffffff">NG</text>
  </g>

  <path d="M79 350h354l-30 40 30 40H79l30-40z" fill="url(#ribbonGrad)" stroke="#0f2f28" stroke-width="6" stroke-linejoin="round"/>
  <text x="256" y="405" font-family="Arial, sans-serif" font-size="42" font-weight="800" fill="#fff4c0" text-anchor="middle">FOUNDERS</text>

  <g fill="#d7ad3c" stroke="#8d6118" stroke-width="4" stroke-linejoin="round">
    <path d="M256 31l10 24 26 2-20 17 6 25-22-13-22 13 6-25-20-17 26-2z"/>
    <path d="M146 55l8 18 20 2-15 13 4 19-17-10-17 10 4-19-15-13 20-2z"/>
    <path d="M366 55l8 18 20 2-15 13 4 19-17-10-17 10 4-19-15-13 20-2z"/>
  </g>
</svg>
