<svg xmlns="http://www.w3.org/2000/svg" viewBox="0 0 960 320" role="img" aria-labelledby="title desc">
  <title id="title">OpenStreetMap-NG Founders route wordmark dark</title>
  <desc id="desc">A dark horizontal wordmark pairing the Founders route shield with OpenStreetMap-NG Founders text.</desc>
  <defs>
    <linearGradient id="map" x1="42" x2="246" y1="37" y2="283" gradientUnits="userSpaceOnUse">
      <stop offset="0" stop-color="#dff4bd"/>
      <stop offset="0.48" stop-color="#b9e69d"/>
      <stop offset="1" stop-color="#8fd184"/>
    </linearGradient>
    <linearGradient id="gold" x1="40" x2="246" y1="36" y2="288" gradientUnits="userSpaceOnUse">
      <stop offset="0" stop-color="#fff1a7"/>
      <stop offset="0.5" stop-color="#d7a936"/>
      <stop offset="1" stop-color="#93691b"/>
    </linearGradient>
    <clipPath id="shield-clip">
      <path d="M144 20 252 63l-17 136c-8 58-46 91-91 109-45-18-83-51-91-109L36 63Z"/>
    </clipPath>
  </defs>

  <rect width="960" height="320" rx="42" fill="#0f1c16"/>
  <path fill="url(#gold)" d="M144 16 262 63l-18 142c-9 66-53 101-100 119-47-18-91-53-100-119L26 63Z"/>
  <path fill="#102016" d="M144 31 245 70l-16 130c-7 51-41 81-85 98-44-17-78-47-85-98L43 70Z"/>
  <g clip-path="url(#shield-clip)">
    <path fill="url(#map)" d="M43 42h202l29 185-130 73L14 227Z"/>
    <path fill="#cceea8" d="m32 75 86-24 45 44-36 46-83 5Z" opacity="0.85"/>
    <path fill="#a6dc8b" d="m154 54 111 27-10 74-69-22-49 19-21-55Z" opacity="0.75"/>
    <path fill="#d7f2b6" d="m26 168 101-24 52 45-16 94-108-42Z" opacity="0.72"/>
    <path fill="none" stroke="#80a9d8" stroke-width="5" d="M22 223c47-13 84-48 132-45 45 2 73 39 122 32" opacity="0.5"/>
  </g>
  <path fill="none" stroke="#0b1a11" stroke-linecap="round" stroke-linejoin="round" stroke-width="11" d="m74 216 48-52 37 22 55-76"/>
  <path fill="none" stroke="url(#gold)" stroke-linecap="round" stroke-linejoin="round" stroke-width="6" d="m74 216 48-52 37 22 55-76"/>
  <text x="144" y="178" text-anchor="middle" font-family="Arial Black, Arial, sans-serif" font-size="82" font-weight="900" fill="#fff" stroke="#0b0b0b" stroke-linejoin="round" stroke-width="7">NG</text>
  <text x="318" y="134" font-family="Arial Black, Arial, sans-serif" font-size="56" font-weight="900" fill="#f6f7ef">OpenStreetMap-NG</text>
  <text x="319" y="199" font-family="Arial, sans-serif" font-size="64" font-weight="800" letter-spacing="1.5" fill="#efc75e">Founders</text>
  <path fill="#efc75e" d="M322 223h438v8H322Z"/>
  <text x="322" y="269" font-family="Arial, sans-serif" font-size="26" font-weight="700" letter-spacing="2.8" fill="#b8d2a8">EARLY CONTRIBUTORS ROUTE MARK</text>
</svg>
