<svg xmlns="http://www.w3.org/2000/svg" width="1120" height="320" viewBox="0 0 1120 320" role="img" aria-labelledby="title desc">
  <title id="title">OpenStreetMap-NG Founder wordmark dark</title>
  <desc id="desc">Dark Founder wordmark with a compact folded map and compass badge.</desc>
  <defs>
    <linearGradient id="map" x1="32" x2="260" y1="38" y2="286" gradientUnits="userSpaceOnUse">
      <stop offset="0" stop-color="#d9f4b6"/>
      <stop offset=".6" stop-color="#bde7a3"/>
      <stop offset="1" stop-color="#8fce86"/>
    </linearGradient>
    <linearGradient id="gold" x1="82" x2="238" y1="34" y2="294" gradientUnits="userSpaceOnUse">
      <stop offset="0" stop-color="#ffe68a"/>
      <stop offset=".52" stop-color="#f5b942"/>
      <stop offset="1" stop-color="#b97816"/>
    </linearGradient>
  </defs>

  <rect width="1120" height="320" rx="56" fill="#17231b"/>
  <g transform="translate(34 34)">
    <path fill="url(#map)" d="M13 49 78 34l48 14 50-15 63 20-11 162-62 17-46-13-55 15-55-19 12-82Z"/>
    <path fill="none" stroke="#6d9b64" stroke-linecap="round" stroke-width="3" opacity=".5" d="M36 82c32-9 54 11 83 4 32-8 49-35 93-18M26 141c36 15 63-7 95 5 31 12 51 36 95 27M49 200c29-18 59-8 84 2 28 12 54 8 79-11"/>
    <path fill="none" stroke="#668bd0" stroke-linecap="round" stroke-width="5" opacity=".55" d="M30 177c28-10 43-43 70-46 31-3 47 29 80 25 21-3 33-17 51-18"/>
    <circle cx="126" cy="136" r="92" fill="#fff" opacity=".66"/>
    <circle cx="126" cy="136" r="78" fill="none" stroke="url(#gold)" stroke-width="13"/>
    <path fill="url(#gold)" d="m126 23 15 36 38 6-27 27 6 38-32-18-32 18 6-38-27-27 38-6Z"/>
    <text x="126" y="157" fill="#fff" stroke="#101512" stroke-linejoin="round" stroke-width="9" font-family="Inter, Arial, sans-serif" font-size="70" font-weight="900" letter-spacing="0" text-anchor="middle">NG</text>
    <text x="126" y="157" fill="#fff" font-family="Inter, Arial, sans-serif" font-size="70" font-weight="900" letter-spacing="0" text-anchor="middle">NG</text>
  </g>

  <text x="330" y="130" fill="#f5fbef" font-family="Inter, Arial, sans-serif" font-size="70" font-weight="850" letter-spacing="0">OpenStreetMap-NG</text>
  <text x="331" y="204" fill="#ffd267" font-family="Inter, Arial, sans-serif" font-size="64" font-weight="800" letter-spacing="0">Founder</text>
  <path fill="#f2bd45" d="M330 226h389v12H330Z"/>
  <text x="330" y="272" fill="#b9c9bb" font-family="Inter, Arial, sans-serif" font-size="29" font-weight="600" letter-spacing="0">Community recognition badge</text>
</svg>
