<?xml version="1.0" encoding="UTF-8" standalone="no"?>
<svg
   xmlns:dc="http://purl.org/dc/elements/1.1/"
   xmlns:cc="http://creativecommons.org/ns#"
   xmlns:rdf="http://www.w3.org/1999/02/22-rdf-syntax-ns#"
   xmlns:svg="http://www.w3.org/2000/svg"
   xmlns="http://www.w3.org/2000/svg"
   xmlns:sodipodi="http://sodipodi.sourceforge.net/DTD/sodipodi-0.dtd"
   xmlns:inkscape="http://www.inkscape.org/namespaces/inkscape"
   viewBox="0 0 64 64"
   enable-background="new 0 0 64 64"
   id="svg2"
   version="1.1"
   inkscape:version="0.91 r13725"
   sodipodi:docname="amenity_piano.svg">
  <metadata
     id="metadata30">
    <rdf:RDF>
      <cc:Work
         rdf:about="">
        <dc:format>image/svg+xml</dc:format>
        <dc:type
           rdf:resource="http://purl.org/dc/dcmitype/StillImage" />
      </cc:Work>
    </rdf:RDF>
  </metadata>
  <defs
     id="defs28" />
  <sodipodi:namedview
     pagecolor="#ffffff"
     bordercolor="#666666"
     borderopacity="1"
     objecttolerance="10"
     gridtolerance="10"
     guidetolerance="10"
     inkscape:pageopacity="0"
     inkscape:pageshadow="2"
     inkscape:window-width="1600"
     inkscape:window-height="843"
     id="namedview26"
     showgrid="false"
     inkscape:zoom="7.375"
     inkscape:cx="26.404495"
     inkscape:cy="33.674782"
     inkscape:window-x="1920"
     inkscape:window-y="611"
     inkscape:window-maximized="1"
     inkscape:current-layer="svg2" />
  <g
     id="g4168"
     transform="translate(0,-0.7)">
    <path
       d="m 63.867,54.46 c 0,2.675 -1.263,4.845 -2.823,4.845 l -58.221,0 C 1.265,59.305 0,57.135 0,54.46 L 0,10.6415 c 0,-2.671 1.265,-4.841 2.823,-4.841 l 58.221,0 c 1.561,0 2.823,2.17 2.823,4.841 z"
       id="path6"
       inkscape:connector-curvature="0"
       style="fill:#353535;fill-opacity:1;fill-rule:evenodd"
       sodipodi:nodetypes="sssssssss" />
    <g
       id="g8"
       style="fill:#ffffff;fill-rule:evenodd">
      <path
         d="m 16.817,49.33 c 0,2.575 -1.519,4.666 -3.391,4.666 l -6.709,0 c -1.874,0 -3.393,-2.091 -3.393,-4.666 l 0,-30.518 c 0,-2.579 1.519,-4.666 3.393,-4.666 l 6.709,0 c 1.872,0 3.391,2.087 3.391,4.666 l 0,30.518"
         id="path10"
         inkscape:connector-curvature="0" />
      <path
         d="m 31.523,49.33 c 0,2.575 -1.519,4.666 -3.395,4.666 l -6.705,0 c -1.874,0 -3.395,-2.091 -3.395,-4.666 l 0,-30.518 c 0,-2.579 1.521,-4.666 3.395,-4.666 l 6.705,0 c 1.876,0 3.395,2.087 3.395,4.666 l 0,30.518"
         id="path12"
         inkscape:connector-curvature="0" />
      <path
         d="m 46.1,49.33 c 0,2.575 -1.52,4.666 -3.394,4.666 l -6.707,0 c -1.874,0 -3.395,-2.091 -3.395,-4.666 l 0,-30.518 c 0,-2.579 1.521,-4.666 3.395,-4.666 l 6.707,0 c 1.874,0 3.394,2.087 3.394,4.666 l 0,30.518"
         id="path14"
         inkscape:connector-curvature="0" />
      <path
         d="m 60.802,49.33 c 0,2.575 -1.521,4.666 -3.396,4.666 l -6.707,0 c -1.874,0 -3.393,-2.091 -3.393,-4.666 l 0,-30.518 c 0,-2.579 1.519,-4.666 3.393,-4.666 l 6.707,0 c 1.874,0 3.396,2.087 3.396,4.666 l 0,30.518"
         id="path16"
         inkscape:connector-curvature="0" />
    </g>
    <g
       id="g18"
       style="fill:#000000;fill-opacity:1;fill-rule:evenodd">
      <path
         style="fill:#000000;fill-opacity:1"
         d="m 20.855,39.702 c 0,1.872 -0.763,3.389 -1.706,3.389 l -3.37,0 c -0.943,0 -1.704,-1.517 -1.704,-3.389 l 0,-22.17 c 0,-1.87 0.761,-3.387 1.704,-3.387 l 3.37,0 c 0.943,0 1.706,1.517 1.706,3.387 l 0,22.17"
         id="path20"
         inkscape:connector-curvature="0" />
      <path
         style="fill:#000000;fill-opacity:1"
         d="m 35.479,39.702 c 0,1.872 -0.762,3.389 -1.704,3.389 l -3.37,0 c -0.941,0 -1.705,-1.517 -1.705,-3.389 l 0,-22.17 c 0,-1.87 0.764,-3.387 1.705,-3.387 l 3.37,0 c 0.942,0 1.704,1.517 1.704,3.387 l 0,22.17"
         id="path22"
         inkscape:connector-curvature="0" />
      <path
         style="fill:#000000;fill-opacity:1"
         d="m 50.05,39.01 c 0,1.874 -0.766,3.389 -1.706,3.389 l -3.37,0 c -0.942,0 -1.706,-1.515 -1.706,-3.389 l 0,-22.17 c 0,-1.872 0.764,-3.391 1.706,-3.391 l 3.37,0 c 0.94,0 1.706,1.519 1.706,3.391 l 0,22.17"
         id="path24"
         inkscape:connector-curvature="0" />
    </g>
  </g>
</svg>
