<?xml version="1.0" encoding="UTF-8" standalone="no"?>
<!-- Created with Inkscape (http://www.inkscape.org/) -->

<svg
   xmlns:dc="http://purl.org/dc/elements/1.1/"
   xmlns:cc="http://creativecommons.org/ns#"
   xmlns:rdf="http://www.w3.org/1999/02/22-rdf-syntax-ns#"
   xmlns:svg="http://www.w3.org/2000/svg"
   xmlns="http://www.w3.org/2000/svg"
   xmlns:sodipodi="http://sodipodi.sourceforge.net/DTD/sodipodi-0.dtd"
   xmlns:inkscape="http://www.inkscape.org/namespaces/inkscape"
   version="1.0"
   width="32"
   height="32"
   id="svg2"
   sodipodi:version="0.32"
   inkscape:version="0.91 r13725"
   sodipodi:docname="icon_female.svg"
   inkscape:output_extension="org.inkscape.output.svg.inkscape">
  <metadata
     id="metadata2975">
    <rdf:RDF>
      <cc:Work
         rdf:about="">
        <dc:format>image/svg+xml</dc:format>
        <dc:type
           rdf:resource="http://purl.org/dc/dcmitype/StillImage" />
        <cc:license
           rdf:resource="http://web.resource.org/cc/PublicDomain" />
        <dc:language>en</dc:language>
        <dc:title></dc:title>
      </cc:Work>
    </rdf:RDF>
  </metadata>
  <sodipodi:namedview
     inkscape:window-height="1056"
     inkscape:window-width="1920"
     inkscape:pageshadow="2"
     inkscape:pageopacity="0.0"
     guidetolerance="10.0"
     gridtolerance="10.0"
     objecttolerance="10.0"
     borderopacity="1.0"
     bordercolor="#666666"
     pagecolor="#ffffff"
     id="base"
     inkscape:zoom="10.427586"
     inkscape:cx="-7.845658"
     inkscape:cy="11.630927"
     inkscape:window-x="0"
     inkscape:window-y="0"
     inkscape:current-layer="svg2"
     showgrid="false"
     inkscape:window-maximized="1" />
  <defs
     id="defs4">
    <inkscape:perspective
       sodipodi:type="inkscape:persp3d"
       inkscape:vp_x="0 : 290 : 1"
       inkscape:vp_y="0 : 1000 : 0"
       inkscape:vp_z="580 : 290 : 1"
       inkscape:persp3d-origin="290 : 193.33333 : 1"
       id="perspective2441" />
    <inkscape:perspective
       id="perspective3452"
       inkscape:persp3d-origin="30 : 20 : 1"
       inkscape:vp_z="60 : 30 : 1"
       inkscape:vp_y="0 : 1000 : 0"
       inkscape:vp_x="0 : 30 : 1"
       sodipodi:type="inkscape:persp3d" />
    <symbol
       viewBox="244.5 110 489 219.9"
       id="symbol-university">
      <path
         id="path4460"
         d="m 79,43 57,119 c 0,0 21,-96 104,-96 83,0 124,106 124,106 L 407,39 489,22 0,17 79,43 Z"
         inkscape:connector-curvature="0" />
      <path
         id="path4462"
         d="M 94,176 73,215"
         inkscape:connector-curvature="0"
         style="fill:none;stroke:#000000;stroke-width:20" />
      <path
         id="path4464"
         d="M 300,19 C 300,29.5 277.4,38 249.5,38 221.6,38 199,29.5 199,19 199,8.5 221.6,0 249.5,0 277.4,0 300,8.5 300,19 Z"
         inkscape:connector-curvature="0" />
      <path
         id="path4466"
         d="M 112,216 96,178 64,88 C 64,88 55,80 60,53 65,26 76,29 76,29"
         ill="none"
         inkscape:connector-curvature="0"
         style="stroke:#000000;stroke-width:20" />
    </symbol>
    <inkscape:perspective
       id="perspective4471"
       inkscape:persp3d-origin="372.04724 : 350.78739 : 1"
       inkscape:vp_z="744.09448 : 526.18109 : 1"
       inkscape:vp_y="0 : 1000 : 0"
       inkscape:vp_x="0 : 526.18109 : 1"
       sodipodi:type="inkscape:persp3d" />
    <inkscape:perspective
       id="perspective4668"
       inkscape:persp3d-origin="6 : 4 : 1"
       inkscape:vp_z="12 : 6 : 1"
       inkscape:vp_y="0 : 1000 : 0"
       inkscape:vp_x="0 : 6 : 1"
       sodipodi:type="inkscape:persp3d" />
  </defs>
  <g
     id="layer3"
     inkscape:label="Layout"
     style="display:none;stroke:#757575;stroke-opacity:1"
     transform="matrix(48.14969,0,0,48.14969,-536.27327,-581.30675)">
    <rect
       style="display:inline;fill:none;stroke:#757575;stroke-width:0.1;stroke-miterlimit:4;stroke-dasharray:none;stroke-opacity:1"
       id="rect4134"
       width="10"
       height="10"
       x="1"
       y="1" />
    <rect
       style="display:inline;fill:none;stroke:#757575;stroke-width:0.1;stroke-miterlimit:4;stroke-dasharray:none;stroke-opacity:1"
       id="rect4136"
       width="8"
       height="8"
       x="2"
       y="2" />
  </g>
  <path
     style="font-style:normal;font-variant:normal;font-weight:normal;font-stretch:normal;font-size:40px;line-height:125%;font-family:NPSPICT3;-inkscape-font-specification:NPSPICT3;text-align:start;writing-mode:lr-tb;text-anchor:start;fill:#ffffff;fill-opacity:1;stroke:none;stroke-width:1px;stroke-linecap:butt;stroke-linejoin:miter;stroke-opacity:1"
     d="m 18.586869,5.7743915 -5.148781,0 c -0.802823,2.56e-5 -1.524865,0.288842 -2.16613,0.8664527 -0.481695,0.4484255 -0.802331,0.9457778 -0.961909,1.4920606 L 8.0954569,15.494814 C 8.0318157,15.655392 7.9999964,15.799802 8,15.92804 c -3.6e-6,0.738212 0.368605,1.107311 1.105827,1.107297 0.513992,1.4e-5 0.851272,-0.288804 1.011841,-0.866453 l 2.020741,-6.7377682 1.105828,0 -3.32042,11.9820082 3.224963,0 0,9.335659 c -8e-6,0.834144 0.40091,1.251216 1.202753,1.251217 0.801824,-1e-6 1.202743,-0.417073 1.202753,-1.251217 l 0,-9.382652 1.204221,0 0,9.431115 c -1.1e-5,0.801836 0.400906,1.202753 1.202754,1.202754 0.80182,-1e-6 1.202738,-0.400918 1.202752,-1.202754 l 0,-9.384122 3.223495,0 -3.367415,-11.9820082 1.154291,0 2.020742,6.7377682 c 0.160545,0.577649 0.497335,0.866467 1.010372,0.866453 0.738177,1.4e-5 1.107276,-0.369085 1.107295,-1.107297 -1.9e-5,-0.160547 -0.03184,-0.304956 -0.09546,-0.433226 L 22.002745,8.1329048 C 21.842164,7.6189301 21.473556,7.121577 20.896917,6.6408442 20.191013,6.0632335 19.420997,5.7744171 18.586869,5.7743915 Z M 16.132901,5.2442403 c 0.737206,2.49e-5 1.362567,-0.2564834 1.876088,-0.7695279 C 18.522482,3.9617221 18.779235,3.3522678 18.779249,2.646351 18.779235,1.9081817 18.522482,1.2825737 18.008989,0.7695257 17.495468,0.256539 16.870107,3.06e-5 16.132901,0 c -0.7059,3.06e-5 -1.315598,0.256539 -1.829096,0.7695257 -0.513517,0.513048 -0.77027,1.138656 -0.770262,1.8768253 -8e-6,0.7059168 0.256745,1.3153711 0.770262,1.8283614 0.513498,0.5130445 1.123196,0.7695528 1.829096,0.7695279 z"
     id="flowRoot3192"
     sodipodi:nodetypes="cccccssccccccsccccsccccccssccccccssssssscc"
     inkscape:connector-curvature="0" />
</svg>
