<?xml version="1.0" encoding="UTF-8" standalone="no"?>
<!-- Created with Inkscape (http://www.inkscape.org/) -->

<svg
   xmlns:dc="http://purl.org/dc/elements/1.1/"
   xmlns:cc="http://creativecommons.org/ns#"
   xmlns:rdf="http://www.w3.org/1999/02/22-rdf-syntax-ns#"
   xmlns:svg="http://www.w3.org/2000/svg"
   xmlns="http://www.w3.org/2000/svg"
   xmlns:sodipodi="http://sodipodi.sourceforge.net/DTD/sodipodi-0.dtd"
   xmlns:inkscape="http://www.inkscape.org/namespaces/inkscape"
   width="32"
   height="32"
   viewBox="0 0 32 32.000001"
   id="svg2"
   version="1.1"
   inkscape:version="0.91 r13725"
   sodipodi:docname="icon_note_add.svg"
   inkscape:export-filename="C:\Users\eadrpav\Documents\Code\panieravide.github.io\openlevelup\img\icon_note_add.png"
   inkscape:export-xdpi="90"
   inkscape:export-ydpi="90">
  <defs
     id="defs4" />
  <sodipodi:namedview
     id="base"
     pagecolor="#ffffff"
     bordercolor="#666666"
     borderopacity="1.0"
     inkscape:pageopacity="0.0"
     inkscape:pageshadow="2"
     inkscape:zoom="11.2"
     inkscape:cx="7.1159897"
     inkscape:cy="17.702445"
     inkscape:document-units="px"
     inkscape:current-layer="layer1"
     showgrid="false"
     units="px"
     inkscape:window-width="1440"
     inkscape:window-height="878"
     inkscape:window-x="1672"
     inkscape:window-y="142"
     inkscape:window-maximized="1" />
  <metadata
     id="metadata7">
    <rdf:RDF>
      <cc:Work
         rdf:about="">
        <dc:format>image/svg+xml</dc:format>
        <dc:type
           rdf:resource="http://purl.org/dc/dcmitype/StillImage" />
        <dc:title />
      </cc:Work>
    </rdf:RDF>
  </metadata>
  <g
     inkscape:label="Calque 1"
     inkscape:groupmode="layer"
     id="layer1"
     transform="translate(0,-1020.3622)">
    <path
       style="fill:#ffffff;fill-opacity:1;fill-rule:evenodd;stroke:none;stroke-width:1px;stroke-linecap:butt;stroke-linejoin:miter;stroke-opacity:1"
       d="m 0,1021.9519 0,28.9103 7.5032852,-9.4898 24.4967148,0 0,-19.4205 -32,0 z m 20.451493,2.5332 c 1.550078,0 2.780126,0.3422 3.690091,1.0262 0.909965,0.684 1.365003,1.5781 1.365003,2.6826 0,0.6339 -0.09415,1.1957 -0.282415,1.6852 -0.181994,0.4832 -0.442282,0.9035 -0.781165,1.2612 -0.338883,0.3577 -0.746848,0.678 -1.223794,0.9604 -0.470673,0.2824 -1.004164,0.5396 -1.600348,0.7718 l 0,2.1461 -3.313539,0 0,-3.1723 c 0.445569,-0.1192 0.847379,-0.2414 1.205088,-0.3669 0.363986,-0.1255 0.743647,-0.3295 1.13901,-0.6119 0.370262,-0.251 0.658855,-0.543 0.86595,-0.8756 0.213372,-0.3326 0.320129,-0.7092 0.320129,-1.1296 0,-0.6276 -0.203981,-1.0731 -0.611896,-1.3367 -0.401641,-0.2698 -0.969593,-0.4046 -1.703839,-0.4046 -0.451846,0 -0.96349,0.097 -1.534571,0.2918 -0.564806,0.1945 -1.082306,0.4456 -1.552977,0.7531 l -0.376552,0 0,-2.8712 c 0.40164,-0.1695 1.019742,-0.3452 1.8544,-0.5271 0.834657,-0.1883 1.681666,-0.2825 2.541425,-0.2825 z m -11.6254474,0.2825 3.9347904,0 -0.432975,9.978 -3.0688398,0 -0.4329756,-9.978 z m 0.065777,11.5313 3.8032384,0 0,2.4853 -3.8032384,0 0,-2.4853 z m 9.1875124,0 3.803237,0 0,2.4853 -3.803237,0 0,-2.4853 z"
       id="path4136"
       inkscape:connector-curvature="0" />
    <flowRoot
       xml:space="preserve"
       id="flowRoot4138"
       style="font-style:normal;font-weight:normal;font-size:40px;line-height:125%;font-family:sans-serif;letter-spacing:0px;word-spacing:0px;fill:#000000;fill-opacity:1;stroke:none;stroke-width:1px;stroke-linecap:butt;stroke-linejoin:miter;stroke-opacity:1"><flowRegion
         id="flowRegion4140"><rect
           id="rect4142"
           width="112.14286"
           height="97.14286"
           x="40"
           y="49.505062" /></flowRegion><flowPara
         id="flowPara4144" /></flowRoot>  </g>
</svg>
