<?xml version="1.0" encoding="UTF-8" standalone="no"?>
<!-- Created with Inkscape (http://www.inkscape.org/) -->

<svg
   xmlns:dc="http://purl.org/dc/elements/1.1/"
   xmlns:cc="http://creativecommons.org/ns#"
   xmlns:rdf="http://www.w3.org/1999/02/22-rdf-syntax-ns#"
   xmlns:svg="http://www.w3.org/2000/svg"
   xmlns="http://www.w3.org/2000/svg"
   xmlns:sodipodi="http://sodipodi.sourceforge.net/DTD/sodipodi-0.dtd"
   xmlns:inkscape="http://www.inkscape.org/namespaces/inkscape"
   width="32"
   height="32"
   viewBox="0 0 32 32.000001"
   id="svg4741"
   version="1.1"
   inkscape:version="0.91 r13725"
   sodipodi:docname="icon_status_limited.svg">
  <defs
     id="defs4743" />
  <sodipodi:namedview
     id="base"
     pagecolor="#ffffff"
     bordercolor="#666666"
     borderopacity="1.0"
     inkscape:pageopacity="0.0"
     inkscape:pageshadow="2"
     inkscape:zoom="15.839192"
     inkscape:cx="17.291173"
     inkscape:cy="17.923676"
     inkscape:document-units="px"
     inkscape:current-layer="layer1"
     showgrid="false"
     units="px"
     inkscape:window-width="1600"
     inkscape:window-height="843"
     inkscape:window-x="1920"
     inkscape:window-y="611"
     inkscape:window-maximized="1" />
  <metadata
     id="metadata4746">
    <rdf:RDF>
      <cc:Work
         rdf:about="">
        <dc:format>image/svg+xml</dc:format>
        <dc:type
           rdf:resource="http://purl.org/dc/dcmitype/StillImage" />
        <dc:title></dc:title>
      </cc:Work>
    </rdf:RDF>
  </metadata>
  <g
     inkscape:label="Calque 1"
     inkscape:groupmode="layer"
     id="layer1"
     transform="translate(0,-1020.3622)">
    <g
       transform="matrix(3.7178272,0,0,3.7176715,7.4941995,987.05178)"
       style="font-style:normal;font-weight:normal;font-size:13.75px;line-height:125%;font-family:Sans;letter-spacing:0px;word-spacing:0px;fill:#ffea32;fill-opacity:1;stroke:none;stroke-width:1px;stroke-linecap:butt;stroke-linejoin:miter;stroke-opacity:1"
       id="flowRoot5289">
      <path
         d="m 6.5914307,12.124368 0,1.195069 q -0.7049561,0.530395 -1.3092041,0.758667 -0.5975342,0.228271 -1.2487793,0.228271 -0.7385254,0 -1.71875,-0.396118 -0.073853,-0.02685 -0.1074219,-0.04028 -0.046997,-0.02014 -0.1477051,-0.05371 -1.0406494,-0.41626 -1.67175292,-0.41626 -0.59082031,0 -1.16821289,0.261841 -0.57739259,0.255127 -1.23535159,0.812378 l 0,-1.195068 q 0.7049561,-0.530396 1.30249026,-0.758667 0.60424805,-0.234986 1.25549317,-0.234986 0.73852537,0 1.72546387,0.402832 0.067139,0.02686 0.100708,0.04028 0.053711,0.02014 0.1477051,0.05371 1.0406494,0.41626 1.6717529,0.41626 0.5773926,0 1.1413574,-0.255127 0.5706787,-0.255127 1.2622071,-0.819092 z"
         id="path5298"
         inkscape:connector-curvature="0"
         style="fill:#ffea32;fill-opacity:1" />
    </g>
  </g>
</svg>
