<?xml version="1.0" encoding="UTF-8" standalone="no"?>
<svg
   xmlns:dc="http://purl.org/dc/elements/1.1/"
   xmlns:cc="http://creativecommons.org/ns#"
   xmlns:rdf="http://www.w3.org/1999/02/22-rdf-syntax-ns#"
   xmlns:svg="http://www.w3.org/2000/svg"
   xmlns="http://www.w3.org/2000/svg"
   xmlns:sodipodi="http://sodipodi.sourceforge.net/DTD/sodipodi-0.dtd"
   xmlns:inkscape="http://www.inkscape.org/namespaces/inkscape"
   version="1.1"
   x="0px"
   y="0px"
   viewBox="0 0 24 24"
   enable-background="new 0 0 100 100"
   xml:space="preserve"
   id="svg2"
   inkscape:version="0.91 r13725"
   sodipodi:docname="icon_rtg_end.svg"
   width="24"
   height="24"><metadata
     id="metadata14"><rdf:RDF><cc:Work
         rdf:about=""><dc:format>image/svg+xml</dc:format><dc:type
           rdf:resource="http://purl.org/dc/dcmitype/StillImage" /><dc:title /></cc:Work></rdf:RDF></metadata><defs
     id="defs12" /><sodipodi:namedview
     pagecolor="#ffffff"
     bordercolor="#666666"
     borderopacity="1"
     objecttolerance="10"
     gridtolerance="10"
     guidetolerance="10"
     inkscape:pageopacity="0"
     inkscape:pageshadow="2"
     inkscape:window-width="1920"
     inkscape:window-height="1056"
     id="namedview10"
     showgrid="false"
     inkscape:zoom="18.88"
     inkscape:cx="2.0866674"
     inkscape:cy="12.342966"
     inkscape:window-x="1600"
     inkscape:window-y="0"
     inkscape:window-maximized="1"
     inkscape:current-layer="svg2" /><path
     style="fill:#000000"
     d="m 11.131617,0.8725237 c -0.155678,-0.00603 -0.247753,3.05e-4 -0.261859,0.00498 L 10.417305,0.8957275 4.9671568,12.492934 0,22.492929 1.623119,23.2 6.1405504,13.480706 c 0.4709485,0.05727 1.1503568,0.207504 1.9034503,0.564322 0.2634761,0.114127 0.5088748,0.301834 0.7532592,0.452453 0.5842307,0.338574 1.1295547,0.754188 1.6565071,1.280291 0.207047,0.206201 0.45291,0.396641 0.698567,0.58587 0.433186,0.338573 0.904157,0.658863 1.43111,0.903246 0.603322,0.281723 1.205704,0.470457 1.771691,0.621501 1.412846,0.340271 2.637014,0.340245 3.088446,0.301636 0.09461,0 0.641389,-0.05635 0.641389,-0.05635 L 24,5.5503588 22.944277,5.6232815 C 22.926031,5.6436472 21.71873,5.737287 20.213817,5.3987123 19.628737,5.2663326 19.026389,5.0970855 18.423066,4.8136679 17.896111,4.5709813 17.443375,4.2312407 17.010186,3.8723017 16.859568,3.759868 16.690075,3.6475204 16.576794,3.5151456 15.974319,2.9113981 15.333547,2.4409402 14.636881,2.0450887 14.391649,1.8944701 14.1471,1.7253954 13.883622,1.5942935 12.640065,1.015154 11.598648,0.8905822 11.131617,0.8725237 Z m 0.114357,0.8734161 c 0.490464,0.055156 1.31912,0.2052576 2.278837,0.6579621 0.24608,0.1124345 0.508834,0.2450472 0.754915,0.4143342 l -1.357357,2.8821065 c 0.659752,0.3941542 1.337323,0.9038984 2.015319,1.6009862 0.113705,0.095881 0.226048,0.1875187 0.339755,0.2834046 l 1.356526,-2.9028233 c 0.451432,0.3788802 0.923262,0.6982554 1.41288,0.9413666 0.602474,0.2647497 1.204862,0.4522273 1.789094,0.6032703 L 18.481069,9.0895948 C 17.438617,8.8723639 16.256851,8.4325404 15.269981,7.5805902 l -1.332497,2.8398448 c 1.025903,0.77261 2.172541,1.232733 3.225175,1.494088 l 1.325042,-2.8216134 c 1.389511,0.2978424 2.517493,0.2055094 2.517493,0.2055094 l 0.526205,-0.03812 0.113523,-0.01906 -1.412879,3.013865 c -0.05643,0 -0.07703,3.51e-4 -0.113524,0.02072 -0.620719,0 -1.713533,-0.05884 -2.957516,-0.358812 l -1.300181,2.768579 c 1.412846,0.301662 2.56138,0.225411 2.580471,0.207166 l 0.471514,-0.03812 0.09363,0 -1.262062,2.713889 c -0.564289,0 -1.714645,-0.02108 -3.070214,-0.341412 l 1.186656,-2.541519 c -1.03481,-0.224442 -2.221468,-0.658425 -3.219369,-1.504859 l 1.295204,-2.760295 C 13.660878,10.212969 13.393217,9.990548 13.138651,9.735133 12.629093,9.203512 12.107455,8.8209528 11.60893,8.5095326 L 10.302121,11.293028 C 9.2299708,10.654489 8.2509553,10.370859 7.5351983,10.25885 L 8.7400814,7.5068439 c 0.4904654,0.039029 1.6016496,0.2284203 2.8638746,1.0010307 L 12.922369,5.7003477 C 11.773848,5.021503 10.737397,4.7405249 10.002972,4.6263942 Z M 10.30046,11.302138 c 0.652115,0.384395 1.322667,0.874807 1.989631,1.557896 0.118379,0.112436 0.244457,0.210382 0.350527,0.320693 l -1.186653,2.521637 C 11.189639,15.494892 10.926052,15.307091 10.680819,15.041917 10.153017,14.516236 9.6262553,14.120478 9.117121,13.800571 Z"
     id="path6"
     inkscape:connector-curvature="0"
     sodipodi:nodetypes="sccccccccccccccccccccccsccccccccccccccccccccccccccccccccccccccccccccc" /></svg>