<?xml version="1.0" encoding="UTF-8" standalone="no"?>
<!-- Created with Inkscape (http://www.inkscape.org/) -->

<svg
   xmlns:dc="http://purl.org/dc/elements/1.1/"
   xmlns:cc="http://creativecommons.org/ns#"
   xmlns:rdf="http://www.w3.org/1999/02/22-rdf-syntax-ns#"
   xmlns:svg="http://www.w3.org/2000/svg"
   xmlns="http://www.w3.org/2000/svg"
   xmlns:sodipodi="http://sodipodi.sourceforge.net/DTD/sodipodi-0.dtd"
   xmlns:inkscape="http://www.inkscape.org/namespaces/inkscape"
   width="32"
   height="32"
   id="svg5457"
   version="1.1"
   inkscape:version="0.91 r13725"
   viewBox="0 0 32 32"
   sodipodi:docname="information_board.svg"
   inkscape:export-filename="/home/adrien/Documents/Programmation/Web/panieravide.github.io/openlevelup/img/pub_billboard.png"
   inkscape:export-xdpi="67"
   inkscape:export-ydpi="67">
  <defs
     id="defs5459" />
  <sodipodi:namedview
     id="base"
     pagecolor="#ffffff"
     bordercolor="#666666"
     borderopacity="1.0"
     inkscape:pageopacity="0.0"
     inkscape:pageshadow="2"
     inkscape:zoom="13.943262"
     inkscape:cx="7.7796086"
     inkscape:cy="13.945589"
     inkscape:current-layer="layer1"
     showgrid="true"
     inkscape:grid-bbox="true"
     inkscape:document-units="px"
     inkscape:window-width="1600"
     inkscape:window-height="843"
     inkscape:window-x="1680"
     inkscape:window-y="547"
     inkscape:window-maximized="1" />
  <metadata
     id="metadata5462">
    <rdf:RDF>
      <cc:Work
         rdf:about="">
        <dc:format>image/svg+xml</dc:format>
        <dc:type
           rdf:resource="http://purl.org/dc/dcmitype/StillImage" />
        <dc:title />
      </cc:Work>
    </rdf:RDF>
  </metadata>
  <g
     id="layer1"
     inkscape:label="Layer 1"
     inkscape:groupmode="layer">
    <rect
       style="opacity:1;fill:#ffffff;fill-opacity:1;fill-rule:nonzero;stroke:#0007c5;stroke-width:2;stroke-linecap:square;stroke-linejoin:round;stroke-miterlimit:4;stroke-dasharray:none;stroke-opacity:1"
       id="rect6028"
       width="18.304686"
       height="23.304686"
       x="6.8476572"
       y="4.3476572" />
    <path
       inkscape:connector-curvature="0"
       d="m 13.310806,10.502712 c 0,1.504602 1.218616,2.723292 2.723218,2.723292 1.504602,0 2.723293,-1.21869 2.723293,-2.723292 0,-1.504604 -1.218654,-2.7232203 -2.723293,-2.7232203 -1.504602,0 -2.723218,1.2186163 -2.723218,2.7232203 z m 0,5.786937 0,6.127285 -0.851064,0 c -0.469687,0 -0.85099,0.381229 -0.85099,0.851101 0,0.469689 0.381303,0.850916 0.85099,0.850916 l 7.148489,0 c 0.469724,0 0.851139,-0.381227 0.851139,-0.850916 0,-0.469872 -0.381415,-0.851101 -0.851139,-0.851101 l -0.850914,0 0,-7.080372 c 0,-0.415248 -0.333832,-0.749004 -0.749005,-0.749004 l -5.54857,0 c -0.469687,0 -0.85099,0.381301 -0.85099,0.850987 0,0.469763 0.381303,0.851067 0.85099,0.851067 l 0.851064,0 z"
       id="path5429"
       style="clip-rule:evenodd;fill:#0007c5;fill-opacity:1;fill-rule:evenodd" />
  </g>
</svg>
