<?xml version="1.0" encoding="UTF-8" standalone="no"?>
<!-- Generator: Adobe Illustrator 17.0.0, SVG Export Plug-In . SVG Version: 6.00 Build 0)  -->

<svg
   xmlns:dc="http://purl.org/dc/elements/1.1/"
   xmlns:cc="http://creativecommons.org/ns#"
   xmlns:rdf="http://www.w3.org/1999/02/22-rdf-syntax-ns#"
   xmlns:svg="http://www.w3.org/2000/svg"
   xmlns="http://www.w3.org/2000/svg"
   xmlns:sodipodi="http://sodipodi.sourceforge.net/DTD/sodipodi-0.dtd"
   xmlns:inkscape="http://www.inkscape.org/namespaces/inkscape"
   version="1.1"
   id="图层_1"
   x="0px"
   y="0px"
   width="66.584px"
   height="66.028px"
   viewBox="0 0 66.584 66.028"
   enable-background="new 0 0 66.584 66.028"
   xml:space="preserve"
   inkscape:version="0.91 r13725"
   sodipodi:docname="NingboRT_Stairs_Logo.svg"><metadata
     id="metadata19"><rdf:RDF><cc:Work
         rdf:about=""><dc:format>image/svg+xml</dc:format><dc:type
           rdf:resource="http://purl.org/dc/dcmitype/StillImage" /></cc:Work></rdf:RDF></metadata><defs
     id="defs17" /><sodipodi:namedview
     pagecolor="#ffffff"
     bordercolor="#666666"
     borderopacity="1"
     objecttolerance="10"
     gridtolerance="10"
     guidetolerance="10"
     inkscape:pageopacity="0"
     inkscape:pageshadow="2"
     inkscape:window-width="1600"
     inkscape:window-height="843"
     id="namedview15"
     showgrid="false"
     inkscape:zoom="7.1484825"
     inkscape:cx="21.014774"
     inkscape:cy="34.339168"
     inkscape:window-x="1920"
     inkscape:window-y="568"
     inkscape:window-maximized="1"
     inkscape:current-layer="图层_1" /><path
     fill="#FFFFFF"
     d="M24.197,29.922c0.684,0.848,2.233,1.348,2.233,1.348v10.009c0,0.904,0.733,1.638,1.638,1.638l0,0  c0.904,0,1.638-0.733,1.638-1.638V30.28c0,0,0.771-1.269,0.771-2.056V15.41c0-1.755-1.423-3.178-3.178-3.178l0,0  c-1.755,0-3.178,1.423-3.178,3.178l-6.698,7.77c-0.524,0.602-0.462,1.514,0.14,2.039l0,0c0.602,0.524,1.514,0.462,2.039-0.14  l4.519-5.185c0,0,0,5.682,0,5.682c0-0.001-5.974,4.618-5.974,4.618v6.18c0,1.115,0.904,2.018,2.018,2.018l0,0  c1.115,0,2.018-0.904,2.018-2.018v-4.889L24.197,29.922z"
     id="path5"
     style="fill:#000000;fill-opacity:1" /><circle
     fill="#FFFFFF"
     cx="27.423"
     cy="8.092"
     r="2.589"
     id="circle7"
     style="fill:#000000;fill-opacity:1" /><path
     d="M47.287,37.037v2.522c0,0-6.061,4.908-6.061,4.908c-0.697,0.565-0.805,1.588-0.24,2.286l0,0  c0.565,0.697,1.588,0.805,2.286,0.24c0,0,4.015-3.251,4.015-3.251v6.517c0,0.944,0.766,1.71,1.71,1.71l0,0  c0.944,0,1.71-0.766,1.71-1.71V31.392l3.513,4.314c0.494,0.607,1.386,0.698,1.993,0.204l0,0c0.607-0.494,0.698-1.386,0.204-1.993  c0,0-5.71-7.016-5.71-7.015v-1.666c0-1.889-1.531-3.42-3.42-3.42l0,0c-1.889,0-3.42,1.531-3.42,3.42v8.381  C43.867,35.506,45.398,37.038,47.287,37.037C47.287,37.038,47.287,37.038,47.287,37.037z"
     id="path9"
     style="fill:#000000;fill-opacity:1"
     fill="#FFFFFF" /><circle
     fill="#FFFFFF"
     cx="47.423"
     cy="17.175"
     r="2.589"
     id="circle11"
     style="fill:#000000;fill-opacity:1" /><path
     d="m 64.315,56.486 -9.19,0 0,-4.518 -10.336,0 0,-4.526 -10.336,0 0,-4.526 -10.336,0 0,-4.526 -10.336,0 0,-4.526 -10.336,0 0,5.107 6.336,0 0,4.526 10.336,0 0,4.526 10.336,0 0,4.526 10.336,0 0,4.526 10.336,0 0,4.526 13.19,0 z"
     id="path13"
     style="fill:#000000;fill-opacity:1"
     inkscape:connector-curvature="0"
     sodipodi:nodetypes="ccccccccccccccccccccccccc" /></svg>