<?xml version="1.0" encoding="UTF-8" standalone="no"?>
<!-- Created with Inkscape (http://www.inkscape.org/) -->

<svg
   xmlns:dc="http://purl.org/dc/elements/1.1/"
   xmlns:cc="http://creativecommons.org/ns#"
   xmlns:rdf="http://www.w3.org/1999/02/22-rdf-syntax-ns#"
   xmlns:svg="http://www.w3.org/2000/svg"
   xmlns="http://www.w3.org/2000/svg"
   xmlns:sodipodi="http://sodipodi.sourceforge.net/DTD/sodipodi-0.dtd"
   xmlns:inkscape="http://www.inkscape.org/namespaces/inkscape"
   id="svg2962"
   sodipodi:version="0.32"
   inkscape:version="0.91 r13725"
   width="32"
   height="32"
   sodipodi:docname="Aiga_escalator_mirror.svg"
   version="1.0">
  <metadata
     id="metadata2967">
    <rdf:RDF>
      <cc:Work
         rdf:about="">
        <dc:format>image/svg+xml</dc:format>
        <dc:type
           rdf:resource="http://purl.org/dc/dcmitype/StillImage" />
        <dc:title></dc:title>
      </cc:Work>
    </rdf:RDF>
  </metadata>
  <defs
     id="defs2965" />
  <sodipodi:namedview
     inkscape:window-height="843"
     inkscape:window-width="1600"
     inkscape:pageshadow="2"
     inkscape:pageopacity="0.0"
     borderopacity="1.0"
     bordercolor="#666666"
     pagecolor="#ffffff"
     id="base"
     inkscape:zoom="15.954149"
     inkscape:cx="9.5678225"
     inkscape:cy="15.698777"
     inkscape:window-x="1920"
     inkscape:window-y="568"
     inkscape:current-layer="svg2962"
     showgrid="false"
     inkscape:window-maximized="1"
     units="px" />
  <g
     id="g3852"
     transform="matrix(-0.06269692,0,0,0.06269692,32.125398,3.5654739)">
    <path
       sodipodi:nodetypes="ccccccccc"
       style="fill:#ffffff;fill-opacity:1"
       d="m 65.240782,281.26012 65.240778,-8.95077 228.63445,-218.414791 102.11092,-0.66265 c 33.25782,37.405879 78.50566,75.517051 -12.46772,105.615211 l -53.89455,-5.23201 -234.30755,224.529 -92.479773,2.83656 C -18.576599,342.69881 27.180172,312.20582 65.240782,281.26012 Z"
       id="path2975"
       inkscape:connector-curvature="0" />
    <path
       style="fill:#010101"
       d="M 54.5,396.55291 C 51.2,395.80842 46.072633,394.23545 43.105851,393.05742 19.91789,383.8501 2,356.79949 2,331 c 0,-22.89891 14.220105,-47.16833 33.5,-57.17438 13.041084,-6.76818 14.866372,-7.05947 47,-7.50054 15.95,-0.21893 30.125,-0.63591 31.5,-0.9266 1.56426,-0.33071 15.30646,-13.30341 36.71465,-34.65878 l 34.21466,-34.13023 0.28534,-49.05473 L 185.5,98.5 188.20267,93.376651 C 198.43969,73.970687 226.05908,69.840799 241.60914,85.390858 249.26589,93.047603 251,98.614475 251,115.53751 251,125.33683 251.32631,129 252.19922,129 c 0.65958,0 18.54708,-17.24082 39.75,-38.312924 36.05877,-35.836289 39.07158,-38.580354 46.60737,-42.449999 4.43112,-2.275391 11.63112,-5.172075 16,-6.437076 C 362.37367,39.536578 363.29518,39.5 412.5,39.5 c 49.34115,0 50.07817,0.02949 55.93216,2.238336 19.07777,7.198477 35.08027,23.741075 41.15802,42.547157 3.32274,10.28141 3.74032,25.450437 0.98316,35.714507 -5.48101,20.40412 -22.4687,39.58487 -41.55826,46.92331 -6.38145,2.45317 -7.16117,2.51077 -38.01508,2.80828 -17.325,0.16706 -32.625,0.55463 -34,0.86128 -1.58896,0.35436 -40.58141,38.55024 -107,104.81413 -68.53263,68.37299 -106.68998,105.73041 -110.8628,108.53865 -7.4028,4.98198 -16.24622,9.15376 -24.67326,11.63932 -5.22131,1.54003 -11.44283,1.79409 -49.96394,2.04031 -34.206062,0.21864 -45.335537,-0.0201 -50,-1.07237 z m 94,-33.91226 c 2.75,-0.73459 7.025,-2.34777 9.5,-3.58483 C 161.24264,357.43506 192.39731,326.96333 269.5,250 376.11304,143.57966 378.90757,140.94206 388.47153,137.70981 c 1.66566,-0.56292 17.87847,-1.29095 36.02847,-1.61784 37.59101,-0.67702 37.40989,-0.63846 45.34487,-9.65307 8.32698,-9.45995 11.05723,-24.33135 6.37021,-34.69785 C 473.56252,85.874279 465.90667,77.537646 460.52462,74.655342 456.57055,72.537784 455.6936,72.5 410.5,72.5 c -42.26065,0 -46.4471,0.151633 -51.5,1.865332 -5.24195,1.777813 -10.5907,6.943517 -114,110.098658 -59.675,59.52833 -110.075,109.15853 -112,110.28932 -8.43066,4.9524 -12.5775,5.49076 -45.323676,5.88417 -35.480606,0.42626 -37.019801,0.74599 -45.081486,9.36458 -7.804878,8.34405 -9.854562,22.84037 -4.834203,34.18972 3.727049,8.42561 12.472388,16.19663 21.239365,18.87309 1.375,0.41977 20.95,0.79656 43.5,0.83731 31.2348,0.0564 42.19088,-0.24403 46,-1.26153 z M 206.7626,67.544404 c -13.67743,-5.236844 -22.08689,-17.45756 -22.08802,-32.098527 -9.9e-4,-12.882545 7.63053,-24.58289 19.57794,-30.0161388 12.17776,-5.53799763 26.29915,-3.2502128 36.42941,5.9018738 17.13189,15.477632 12.67236,44.609888 -8.37309,54.697912 -6.05459,2.902231 -19.79476,3.717017 -25.54624,1.51488 z"
       id="path2973"
       inkscape:connector-curvature="0" />
  </g>
</svg>
