<?xml version="1.0" encoding="UTF-8" standalone="no"?>
<svg
   xmlns:dc="http://purl.org/dc/elements/1.1/"
   xmlns:cc="http://creativecommons.org/ns#"
   xmlns:rdf="http://www.w3.org/1999/02/22-rdf-syntax-ns#"
   xmlns:svg="http://www.w3.org/2000/svg"
   xmlns="http://www.w3.org/2000/svg"
   xmlns:sodipodi="http://sodipodi.sourceforge.net/DTD/sodipodi-0.dtd"
   xmlns:inkscape="http://www.inkscape.org/namespaces/inkscape"
   version="1.1"
   x="0px"
   y="0px"
   viewBox="0 0 100 100"
   enable-background="new 0 0 100 100"
   xml:space="preserve"
   id="svg4324"
   inkscape:version="0.91 r13725"
   sodipodi:docname="vending_tableware.svg"
   inkscape:export-filename="/home/adrien/Documents/Programmation/Web/panieravide.github.io/openlevelup/img/vending_tableware.png"
   inkscape:export-xdpi="21.6"
   inkscape:export-ydpi="21.6"><metadata
     id="metadata4340"><rdf:RDF><cc:Work
         rdf:about=""><dc:format>image/svg+xml</dc:format><dc:type
           rdf:resource="http://purl.org/dc/dcmitype/StillImage" /></cc:Work></rdf:RDF></metadata><defs
     id="defs4338" /><sodipodi:namedview
     pagecolor="#ffffff"
     bordercolor="#666666"
     borderopacity="1"
     objecttolerance="10"
     gridtolerance="10"
     guidetolerance="10"
     inkscape:pageopacity="0"
     inkscape:pageshadow="2"
     inkscape:window-width="1600"
     inkscape:window-height="843"
     id="namedview4336"
     showgrid="false"
     inkscape:zoom="2.36"
     inkscape:cx="-5.720339"
     inkscape:cy="50"
     inkscape:window-x="0"
     inkscape:window-y="595"
     inkscape:window-maximized="1"
     inkscape:current-layer="svg4324" /><g
     id="g4326"
     style="fill:#d40000;fill-opacity:1"><path
       d="M70,5c-1.4,0-2.5,1.1-2.5,2.5V25c0,1.4,1.1,2.5,2.5,2.5s2.5-1.1,2.5-2.5V7.5C72.5,6.1,71.4,5,70,5z"
       id="path4328"
       style="fill:#d40000;fill-opacity:1" /><path
       d="M80,27.5c1.4,0,2.5-1.1,2.5-2.5V7.5C82.5,6.1,81.4,5,80,5s-2.5,1.1-2.5,2.5V25C77.5,26.4,78.6,27.5,80,27.5z"
       id="path4330"
       style="fill:#d40000;fill-opacity:1" /><path
       d="M90,5c-1.4,0-2.5,1.1-2.5,2.5v20c0,4.1-3.4,7.5-7.5,7.5c-1.4,0-2.5,1.1-2.5,2.5v55c0,1.4,1.1,2.5,2.5,2.5s2.5-1.1,2.5-2.5   V39.7c5.7-1.2,10-6.2,10-12.2v-20C92.5,6.1,91.4,5,90,5z"
       id="path4332"
       style="fill:#d40000;fill-opacity:1" /><path
       d="M60,5H10C8.6,5,7.5,6.1,7.5,7.5v35c0,11.6,8.8,21.1,20,22.4v7.6C27.5,82.1,19.6,90,10,90c-1.4,0-2.5,1.1-2.5,2.5   S8.6,95,10,95c12.4,0,22.5-10.1,22.5-22.5v-10c0-1.4-1.1-2.5-2.5-2.5c-9.6,0-17.5-7.9-17.5-17.5V10h45v32.5   C57.5,52.1,49.6,60,40,60c-1.4,0-2.5,1.1-2.5,2.5v10C37.5,84.9,47.6,95,60,95c1.4,0,2.5-1.1,2.5-2.5S61.4,90,60,90   c-9.6,0-17.5-7.9-17.5-17.5v-7.6c11.2-1.2,20-10.8,20-22.4v-35C62.5,6.1,61.4,5,60,5z"
       id="path4334"
       style="fill:#d40000;fill-opacity:1" /></g></svg>