<?xml version="1.0" encoding="UTF-8" standalone="no"?>
<svg
   xmlns:dc="http://purl.org/dc/elements/1.1/"
   xmlns:cc="http://creativecommons.org/ns#"
   xmlns:rdf="http://www.w3.org/1999/02/22-rdf-syntax-ns#"
   xmlns:svg="http://www.w3.org/2000/svg"
   xmlns="http://www.w3.org/2000/svg"
   xmlns:sodipodi="http://sodipodi.sourceforge.net/DTD/sodipodi-0.dtd"
   xmlns:inkscape="http://www.inkscape.org/namespaces/inkscape"
   version="1.1"
   x="0px"
   y="0px"
   viewBox="950 1450 32 32"
   enable-background="new 950 1450 100 100"
   xml:space="preserve"
   id="svg2"
   inkscape:version="0.91 r13725"
   sodipodi:docname="vending_cheese.svg"
   width="32"
   height="32"
   inkscape:export-filename="/home/adrien/Documents/Programmation/Web/panieravide.github.io/openlevelup/img/vending_cheese.png"
   inkscape:export-xdpi="67"
   inkscape:export-ydpi="67"><metadata
     id="metadata20"><rdf:RDF><cc:Work
         rdf:about=""><dc:format>image/svg+xml</dc:format><dc:type
           rdf:resource="http://purl.org/dc/dcmitype/StillImage" /><dc:title></dc:title></cc:Work></rdf:RDF></metadata><defs
     id="defs18" /><sodipodi:namedview
     pagecolor="#ffffff"
     bordercolor="#666666"
     borderopacity="1"
     objecttolerance="10"
     gridtolerance="10"
     guidetolerance="10"
     inkscape:pageopacity="0"
     inkscape:pageshadow="2"
     inkscape:window-width="1600"
     inkscape:window-height="843"
     id="namedview16"
     showgrid="false"
     inkscape:zoom="13.350176"
     inkscape:cx="12.396489"
     inkscape:cy="18.430514"
     inkscape:window-x="0"
     inkscape:window-y="595"
     inkscape:window-maximized="1"
     inkscape:current-layer="g4148" /><g
     id="g4148"
     transform="matrix(0.36718286,0,0,0.36718121,601.17628,940.10378)"
     style="fill:#d40000;fill-opacity:1"><path
       inkscape:connector-curvature="0"
       id="path4-4"
       d="m 1034.5248,1417.7 0,0 -0.1,-0.1 -30.3,-21.1 c -1.1,-0.8 -2.5,-1.3 -3.9,-1.3 -1.39995,0 -2.69995,0.4 -3.89995,1.2 l -0.2,0.1 -0.2,0.2 -43.40003,37.8 c -2.3,1.9 -2.8,4.8 -2.4,7.3 l 0,21.9 0,6 5.9,-1 14.7,-2.6 3.3,-0.6 0.8,-3.3 c 0.7,-2.9 3.2,-5 6.20003,-5 2.2,0 4.2,1.1 5.4,2.9 l 1.8,2.8 3.3,-0.6 41.39995,-7.3 4.2,-0.7 0,-4.2 0,-26.7 c 0.2,-2.1 -0.8,-4.3 -2.6,-5.7 z"
       style="fill:#ffffff;fill-opacity:1"
       sodipodi:nodetypes="ccccscccccccccccscccccccc" /><path
       inkscape:connector-curvature="0"
       id="path4"
       d="m 1034.5248,1417.7 0,0 -0.1,-0.1 -30.3,-21.1 c -1.1,-0.8 -2.5,-1.3 -3.9,-1.3 -1.39999,0 -2.69999,0.4 -3.89999,1.2 l -0.2,0.1 -0.2,0.2 -43.4,37.8 c -2.3,1.9 -2.8,4.8 -2.4,7.3 l 0,21.9 0,6 5.9,-1 14.7,-2.6 3.3,-0.6 0.8,-3.3 c 0.7,-2.9 3.2,-5 6.2,-5 2.2,0 4.2,1.1 5.4,2.9 l 1.8,2.8 3.3,-0.6 41.39999,-7.3 4.2,-0.7 0,-4.2 0,-26.7 c 0.2,-2.1 -0.8,-4.3 -2.6,-5.7 z m -35.19999,-17.1 c 0.3,-0.2 0.6,-0.3 0.89999,-0.3 0.3,0 0.7,0.1 0.9,0.3 l 29.7,20.8 -75.69999,18 c 0.1,-0.4 0.2,-0.7 0.5,-0.9 l 43.7,-37.9 z m -8.6,56.9 c -2,-3.1 -5.6,-5.2 -9.6,-5.2 -5.4,0 -10,3.8 -11.2,8.9 l -14.7,2.6 0,-20.5 c 0.1,0 0.3,0 0.4,-0.1 l 76.39999,-18.1 0,25.2 -41.29999,7.2 z"
       style="fill:#d40000;fill-opacity:1" /><ellipse
       id="ellipse6"
       ry="3.3"
       rx="9.1999998"
       cy="1415"
       cx="1006.6"
       style="fill:#d40000;fill-opacity:1" /><ellipse
       id="ellipse8"
       ry="3.9000001"
       rx="5.4000001"
       cy="1443.6"
       cx="1003.3"
       style="fill:#d40000;fill-opacity:1" /><ellipse
       id="ellipse10"
       ry="2.5999999"
       rx="3.5999999"
       cy="1425.6"
       cx="990.29999"
       style="fill:#d40000;fill-opacity:1" /><ellipse
       id="ellipse12"
       ry="1.9"
       rx="2.7"
       cy="1446.2"
       cx="973"
       style="fill:#d40000;fill-opacity:1" /><ellipse
       id="ellipse14"
       ry="5.1999998"
       rx="8.1000004"
       cy="1438.4"
       cx="1019.5"
       style="fill:#d40000;fill-opacity:1" /></g></svg>