<?xml version="1.0" encoding="UTF-8" standalone="no"?>
<svg
   xmlns:dc="http://purl.org/dc/elements/1.1/"
   xmlns:cc="http://creativecommons.org/ns#"
   xmlns:rdf="http://www.w3.org/1999/02/22-rdf-syntax-ns#"
   xmlns:svg="http://www.w3.org/2000/svg"
   xmlns="http://www.w3.org/2000/svg"
   xmlns:sodipodi="http://sodipodi.sourceforge.net/DTD/sodipodi-0.dtd"
   xmlns:inkscape="http://www.inkscape.org/namespaces/inkscape"
   version="1.1"
   x="0px"
   y="0px"
   viewBox="0 0 48 48"
   enable-background="new 0 0 48 48"
   xml:space="preserve"
   id="svg4170"
   inkscape:version="0.91 r13725"
   sodipodi:docname="vending_stationery.svg"
   inkscape:export-filename="/home/adrien/Documents/Programmation/Web/panieravide.github.io/openlevelup/img/vending_stationery.png"
   inkscape:export-xdpi="45"
   inkscape:export-ydpi="45"><metadata
     id="metadata4178"><rdf:RDF><cc:Work
         rdf:about=""><dc:format>image/svg+xml</dc:format><dc:type
           rdf:resource="http://purl.org/dc/dcmitype/StillImage" /></cc:Work></rdf:RDF></metadata><defs
     id="defs4176" /><sodipodi:namedview
     pagecolor="#ffffff"
     bordercolor="#666666"
     borderopacity="1"
     objecttolerance="10"
     gridtolerance="10"
     guidetolerance="10"
     inkscape:pageopacity="0"
     inkscape:pageshadow="2"
     inkscape:window-width="1600"
     inkscape:window-height="843"
     id="namedview4174"
     showgrid="false"
     inkscape:zoom="13.145833"
     inkscape:cx="24"
     inkscape:cy="24"
     inkscape:window-x="0"
     inkscape:window-y="595"
     inkscape:window-maximized="1"
     inkscape:current-layer="svg4170" /><path
     fill="#000000"
     d="M42.6,4.2c-5-5-13.1-5-18.1,0L2.1,26.7c-0.7,0.7-0.7,1.8,0,2.4c0.7,0.7,1.8,0.7,2.4,0L27,6.7  c3.6-3.6,9.6-3.6,13.2,0s3.6,9.6,0,13.2L17.9,42.3c-2.3,2.3-6,2.4-8.2,0.2c-2.2-2.2-2.1-5.9,0.2-8.2l19.6-19.6  c1.1-1.1,2.9-1.3,3.8-0.3c1,1,0.8,2.7-0.3,3.8L18.2,32.8c-0.7,0.7-0.7,1.8,0,2.4c0.7,0.7,1.8,0.7,2.4,0l14.8-14.8  c2.5-2.5,2.6-6.4,0.3-8.7c-2.3-2.3-6.2-2.2-8.7,0.3L7.4,31.8c-3.7,3.7-3.8,9.6-0.2,13.1c3.5,3.5,9.3,3.5,13-0.1c0,0,0.1,0,0.1-0.1  l22.4-22.4C47.6,17.4,47.6,9.2,42.6,4.2z"
     id="path4172"
     style="fill:#d40000;fill-opacity:1" /></svg>