<?xml version="1.0" encoding="utf-8"?>
<svg viewBox="0 0 256 256" width="256px" height="256px" xmlns="http://www.w3.org/2000/svg" xmlns:xlink="http://www.w3.org/1999/xlink">
  <defs>
    <clipPath id="i" clipPathUnits="userSpaceOnUse">
      <path fill="#ceeeab" d="M9 12.25s7.5 13 11.75 27.75S27 65.5 27 65.5s-5.5 12.75-8.25 24.75-5.75 23-5.75 23 5.75 16 9.25 30S26 167.5 26 167.5s-4 10.25-7.5 24.25-5 30.75-5 30.75 9.25-2 28.5 1.25 32.25 6 32.25 6 12.75-2.75 24-6.25 16.25-6.5 16.25-6.5 5.5.5 22.5 6.25 29.25 8.5 29.25 8.5 13-2.75 26-5.75 26.5-8 26.5-8-.75-5 4.25-24.5 8.75-28 8.75-28-.5-4.5-3.75-19.75S218 116 218 116s1.75-10.5 6.75-23.75S235 65.5 235 65.5s-4.75-15.25-7.5-29.75S219.25 10 219.25 10 195 19 187.5 20.5s-21 5.25-21 5.25-9.75-4.25-22-8.5-29.75-5.5-29.75-5.5-3.25 3.5-22 8-27.5 5.75-27.5 5.75-18.5-9-31.5-11.5-24-2-24.75-1.75z"/>
    </clipPath>
    <clipPath id="j" clipPathUnits="userSpaceOnUse">
      <path fill="#ceeeab" d="M9 12.25s7.5 13 11.75 27.75S27 65.5 27 65.5s-5.5 12.75-8.25 24.75-5.75 23-5.75 23 5.75 16 9.25 30S26 167.5 26 167.5s-4 10.25-7.5 24.25-5 30.75-5 30.75 9.25-2 28.5 1.25 32.25 6 32.25 6 12.75-2.75 24-6.25 16.25-6.5 16.25-6.5 5.5.5 22.5 6.25 29.25 8.5 29.25 8.5 13-2.75 26-5.75 26.5-8 26.5-8-.75-5 4.25-24.5 8.75-28 8.75-28-.5-4.5-3.75-19.75S218 116 218 116s1.75-10.5 6.75-23.75S235 65.5 235 65.5s-4.75-15.25-7.5-29.75S219.25 10 219.25 10 195 19 187.5 20.5s-21 5.25-21 5.25-9.75-4.25-22-8.5-29.75-5.5-29.75-5.5-3.25 3.5-22 8-27.5 5.75-27.5 5.75-18.5-9-31.5-11.5-24-2-24.75-1.75z"/>
    </clipPath>
    <clipPath id="k" clipPathUnits="userSpaceOnUse">
      <path fill="#ceeeab" d="M9 12.25s7.5 13 11.75 27.75S27 65.5 27 65.5s-5.5 12.75-8.25 24.75-5.75 23-5.75 23 5.75 16 9.25 30S26 167.5 26 167.5s-4 10.25-7.5 24.25-5 30.75-5 30.75 9.25-2 28.5 1.25 32.25 6 32.25 6 12.75-2.75 24-6.25 16.25-6.5 16.25-6.5 5.5.5 22.5 6.25 29.25 8.5 29.25 8.5 13-2.75 26-5.75 26.5-8 26.5-8-.75-5 4.25-24.5 8.75-28 8.75-28-.5-4.5-3.75-19.75S218 116 218 116s1.75-10.5 6.75-23.75S235 65.5 235 65.5s-4.75-15.25-7.5-29.75S219.25 10 219.25 10 195 19 187.5 20.5s-21 5.25-21 5.25-9.75-4.25-22-8.5-29.75-5.5-29.75-5.5-3.25 3.5-22 8-27.5 5.75-27.5 5.75-18.5-9-31.5-11.5-24-2-24.75-1.75z"/>
    </clipPath>
    <linearGradient id="l" y2="-213.25" gradientUnits="userSpaceOnUse" x2="9" gradientTransform="translate(0 -10)" y1="72.064" x1="210.17" xlink:href="#a"/>
    <linearGradient id="a">
      <stop offset="0"/>
      <stop stop-opacity="0" offset="1"/>
    </linearGradient>
    <linearGradient id="m" y2="-113.72" gradientUnits="userSpaceOnUse" x2="166.5" y1="-161.36" x1="214.25" xlink:href="#b"/>
    <linearGradient id="b">
      <stop stop-color="#fff" offset="0"/>
      <stop stop-color="#fff" stop-opacity="0" offset="1"/>
    </linearGradient>
    <linearGradient id="n" y2="-62.469" gradientUnits="userSpaceOnUse" x2="57.656" y1="-126.5" x1="53.25" xlink:href="#b"/>
    <linearGradient id="o" y2="-17.125" gradientUnits="userSpaceOnUse" x2="75.719" y1="6.625" x1="39.5" xlink:href="#b"/>
    <linearGradient id="p" y2="-121.44" gradientUnits="userSpaceOnUse" x2="85.312" y1="-162.34" x1="102" xlink:href="#b"/>
    <linearGradient id="q" y2="-14.75" gradientUnits="userSpaceOnUse" x2="63.5" y1="-78.094" x1="117.75" xlink:href="#b"/>
    <linearGradient id="r" y2="-60.75" gradientUnits="userSpaceOnUse" x2="133.94" y1="-125.12" x1="180.69" xlink:href="#b"/>
    <linearGradient id="s" y2="33.375" gradientUnits="userSpaceOnUse" x2="130.22" y1="-23.5" x1="170.75" xlink:href="#b"/>
    <linearGradient id="t" y2="-5.656" gradientUnits="userSpaceOnUse" y1="-76" x2="181.75" x1="213.5" xlink:href="#b"/>
    <linearGradient id="u" y2="-179.97" gradientUnits="userSpaceOnUse" x2="9" y1="-94.672" x1="94.25" xlink:href="#a"/>
    <linearGradient id="v" y2="-30.438" gradientUnits="userSpaceOnUse" x2="35.75" y1="-114.44" x1="50.75" xlink:href="#a"/>
    <linearGradient id="w" y2="-74.625" gradientUnits="userSpaceOnUse" x2="115.25" y1="-163.12" x1="77.625" xlink:href="#a"/>
    <linearGradient id="x" y2="7.063" gradientUnits="userSpaceOnUse" x2="125.72" y1="-50.438" x1="56.5" xlink:href="#a"/>
    <linearGradient id="y" y2="-146.8" gradientUnits="userSpaceOnUse" x2="180.75" y1="-163.3" x1="35" xlink:href="#a"/>
    <linearGradient id="z" y2="-41.609" gradientUnits="userSpaceOnUse" x2="179" y1="-141.11" x1="57" xlink:href="#a"/>
    <linearGradient id="A" y2="39.75" gradientUnits="userSpaceOnUse" x2="208.25" y1="-26.5" x1="156" xlink:href="#a"/>
    <linearGradient id="B" y2="-77.297" gradientUnits="userSpaceOnUse" x2="235" y1="-169.3" x1="142.75" xlink:href="#a"/>
  </defs>
  <path fill="#ceeeab" d="M9 2.25s7.5 13 11.75 27.75S27 55.5 27 55.5s-5.5 12.75-8.25 24.75-5.75 23-5.75 23 5.75 16 9.25 30S26 157.5 26 157.5s-4 10.25-7.5 24.25-5 30.75-5 30.75 9.25-2 28.5 1.25 32.25 6 32.25 6 12.75-2.75 24-6.25 16.25-6.5 16.25-6.5 5.5.5 22.5 6.25 29.25 8.5 29.25 8.5 13-2.75 26-5.75 26.5-8 26.5-8-.75-5 4.25-24.5 8.75-28 8.75-28-.5-4.5-3.75-19.75S218 106 218 106s1.75-10.5 6.75-23.75S235 55.5 235 55.5s-4.75-15.25-7.5-29.75S219.25 0 219.25 0 195 9 187.5 10.5s-21 5.25-21 5.25-9.75-4.25-22-8.5-29.75-5.5-29.75-5.5-3.25 3.5-22 8-27.5 5.75-27.5 5.75-18.5-9-31.5-11.5S9.75 2 9 2.25z"/>
  <g transform="matrix(1, 0, 0, 1, 0, -10)" clip-path="url(#i)">
    <path fill="#a6dd8b" d="m110.75 5.5-4.25 7c-.75 9-2.25 13.75-8.5 16.5s-12.25 3.5-11 7.5 13 9.25 14.25 13 8.25 1.75 11 7 2 15.25-3.75 17.25-17.5.5-20.25 9.5-4.75 10.5-9 12.75-7.25 10.5-3.5 16.5 12.25-1.25 15-6.5S98 97.25 98 97.25h23.75l59-1.75 3.25-3.75s3.25 4 2.75 8.75-3.75 14.75.25 17.25 19.5-2 24-7-4.75-28.25-10.5-29.5-18.5-1.75-17-7 11.75 4.5 17.25 3.25 16.75-21 12-25.25-24.25-5.25-25.75-8 21-8 22.25-11-2.5-7.25-6.25-8.5S189 41 182 40.5s-20 5.75-17.25 11.5-6 11-14.5 6.5-24.75-13-21.75-24S150 15.75 150 15.75L110.75 5.5zM97.188 112.72c-1.595.15-4.469 4.69-4.938 7.03-.5 2.5-3.25 6.75-3.5 12.25s4.75 6.75 8.75 6.5 2.75-6.75 2-15c-.25 0-.5-10.25-2-10.75-.094-.03-.206-.04-.312-.03zm92.722 51.66c-6.34.29-6.63 7.46-7.41 8.87-1.25 2.25 2.25 13.75 2 18s-4.75 5.25-9.5 9.75.5 16 11.25 31l44.75 1.25-1-35s4.75-4.25-20.75-24.25c-9.56-7.5-15.54-9.8-19.34-9.62zM39.94 180.91c-4.03-.11-8.282 5.71-9.688 7.59-1.5 2-6.25 5-17 9.5l-14.5 34.25 53 4.25s1.75-11-4.25-15.75-17.25-5.75-18.25-13.25 9.25-10 13.75-14.25 2-11.25-2.25-12.25a3.728 3.728 0 0 0-.812-.09z"/>
  </g>
  <path fill="#aac3e7" d="M158.53 75.344c-4.76-.015-9.03.968-11.53 3.156-8 7-35 .75-48.5 7s-13.25 38-14.75 44.5-17.5 20.75-20 23.5-13.25 7.25-19.5 8.5-12.75 7.25-15.5 11c-2.021 2.76-7.406 6.45-10.125 8.22-.046.18-.079.35-.125.53-.134.53-.247 1.08-.375 1.63 4.98-1.61 11.18-8.18 16.625-13.63 6.25-6.25 20-7.75 27.75-11.5S76.75 138.5 89 134.5s21.25 11.75 24.25 18.5 1.75 12.75 3.75 17 11 11.75 11.5 13.5-5 6.5-6.25 8.5-10.5 7-11.75 8.75c-.97 1.35-1.92 6.77-2.31 9.22.41-.17.75-.31 1.12-.47.49-2.53 1.52-7.08 2.94-8.5 2-2 11.25-4.5 12.5-8.5s7-6.5 7-6.5 2.75 4 16 14c8.83 6.67 12.76 15.53 14.41 20.72.67.17 1.53.41 2.03.53-1.22-4.32-4.84-16.24-8.94-20.75-5-5.5-18.5-10.75-22.75-22S108 144.25 115 138.25s16.5-4 28.5 7.5 46.25 5.75 57.75 3.75c9.95-1.73 20.83 14.88 23.91 26.03.59-2.09 1.12-4 1.65-5.75-1.74-1.92-3.69-4.62-5.31-8.28-3.75-8.5-12-13.25-12-13.25s8.75-5 14.75-7.75c1.62-.74 3.01-1.68 4.19-2.66-.16-.77-.26-1.25-.44-2.09l-.09-.44c-4.77 5.56-19.24 9.62-21.66 10.94-2.75 1.5-18.25 3-35.75 4.5s-26.75-7.5-34.25-14.75-13-36-3-38 20 13.75 30 17 21.5-15.75 19.75-27c-1.2-7.734-14-12.625-24.47-12.656zm-53.34 13.281c1.27.001 5.86 1.594 6.56 2.375 2.25 2.5 2 7.25 0 8s-12.75 8-10.5 14.25 1.75 18-3.5 18-8 0-10-2.5-2-12 0-19.75 3.5-15 8-18.25c3.094-2.234 6.63-2.128 9.44-2.125zm13.59 73.095c.2.01 1.91 3.51 4.72 7.03 3 3.75 3.25 8.25 3.25 8.25s-4.25-4.75-6-8-2-7.25-2-7.25c0-.03.02-.03.03-.03z"/>
  <path opacity=".387" stroke-linejoin="round" d="M122.75 62.25c6.25.5 12.25-2.25 10.75-6.5s-12.5-7.25-13.25-3 2 10.5 2.5 9.5zM108.75 46.75c-8.5-5.5-8.5-7.25-7-8s10.25 5 12.75 8-2.25 2-5.75 0z" stroke="#6d7f42" stroke-linecap="round" fill="none"/>
  <g clip-path="url(#j)" transform="matrix(1, 0, 0, 1, 0, -10)" stroke="#6d7f42" fill="none">
    <path opacity=".387" stroke-linejoin="round" d="M15.75 151.25c33-2.5 38.25-3.5 36.25-10.25s-8.75-23.5-23-22.5-22.75-6.75-22.75-6.75" stroke-linecap="round"/>
    <path opacity=".387" d="M17.5 177.25c18.25-10 28.75-8.5 35-11.5s13.25-5.75 15.75-9.5 5.75-11.5 5.75-18-3.5-36 3.25-43.5 17.25-26 26-23.25 12.25 9.75 22 9.5S147 77 149.5 68.75s-15.75-16-16-23 5.5-14.25 20.25-17 23.5-11.5 23.5-11.5"/>
    <path opacity=".387" stroke-linejoin="round" d="M14.5 161c15.25-1.5 22.25 3.5 31.5 1.75s13.25-3 17.75-5.75 6-3.75 6.25-6.5 1-12.5-3-22S54.5 97 58.75 89.75 64 68.25 74.5 65.25 95.5 59 102.25 64s12.75 14.25 20 14.5S134 77 136.75 74s4.5-10.25 1.75-13.75-15.5-5.5-17.25-9.5-10.75-17-.25-26.75 36.25-8.25 36.25-8.25" stroke-linecap="round"/>
    <path opacity=".387" stroke-linejoin="round" d="M21.25 159c13.75 1 21.5 4.25 33.5-.5s13.5-5.25 13.75-8.75-.25-15.75-3-20-13-13.75-15.75-24.25.25-41 8.5-48.25 32-7.25 37.5-10.5 5.25-16.75 13-24.5 27-12.25 27-12.25M190 18.5c11.75 5 39 9.75 47.25 40.25M9.75 214c19-12.5 36-1.25 49-4s38.25-37.25 46-37 5.5-11.75 8.5-13.25 5.5 6 11.75 8 24.5-2.75 23.5-5.75-7-7.75-5.5-8.5 8.5 5 12.75 3.5 43.75-1 48.5-13.5 21.5-13.5 21.5-13.5M77.5 233.5c13.5-11.5 23.25-25 28.5-27s12.75-3.75 15.75-8 2.5-10.75 5.25-12 3.75 5.75 8.75 6 36.75-5 42.75-11.75 32.25-12.5 32.5-14.5-1-4.75.25-5.5 24.75-6 24.75-6M168.75 236c9-13.75 20.5-41 29.5-42s10.25-2.5 12.5-4.25 17 2.25 17 2.25" stroke-linecap="round"/>
  </g>
  <g clip-path="url(#k)" transform="matrix(1, 0, 0, 1, 0, -10)" stroke="#d38484" stroke-linecap="round" stroke-width="2" fill="none">
    <path d="m57.75 20-8.5 28.25 18 6.25L75 90.75 54 113l9 10.5L51 135l.5 4.5L71.75 164l14-6.75 20.5 18.5L95.75 204l10.25 8.5-2.75 13"/>
    <path d="m105.75 212.25 12.5-27.75 11-7 27.5 15.75 20.5-3.75-.25-15.75-10.25-6 12.75-26.25 5.75-3.75 38.75-10"/>
  </g>
  <path opacity=".039" d="M9-189.75s7.5 13 11.75 27.75S27-136.5 27-136.5s-5.5 12.75-8.25 24.75-5.75 23-5.75 23 5.75 16 9.25 30S26-34.5 26-34.5s-4 10.25-7.5 24.25-5 30.75-5 30.75 9.25-2 28.5 1.25 32.25 6 32.25 6S87 25 98.25 21.5 114.5 15 114.5 15s5.5.5 22.5 6.25 29.25 8.5 29.25 8.5 13-2.75 26-5.75 26.5-8 26.5-8S218 11 223-8.5s8.75-28 8.75-28-.5-4.5-3.75-19.75S218-86 218-86s1.75-10.5 6.75-23.75S235-136.5 235-136.5s-4.75-15.25-7.5-29.75-8.25-25.75-8.25-25.75-24.25 9-31.75 10.5-21 5.25-21 5.25-9.75-4.25-22-8.5-29.75-5.5-29.75-5.5-3.25 3.5-22 8-27.5 5.75-27.5 5.75-18.5-9-31.5-11.5-24-2-24.75-1.75z" fill="url(#l)" transform="matrix(1, 0, 0, 1, 0, 192)"/>
  <g opacity=".27">
    <path fill="url(#m)" d="M219.25-182s-24.25 9-31.75 10.5-21 5.25-21 5.25c4.92-1.36 11.44 45.39 14.25 52.25l-.06.28c11.81-4.07 51.21-4.77 54.31-12.78 0 0-4.75-15.25-7.5-29.75S219.25-182 219.25-182z" transform="translate(0 182)"/>
    <path fill="url(#n)" d="M27-126.5s-5.5 12.75-8.25 24.75-5.75 23-5.75 23l50.625 16.281 15.781-58.911L27-126.5z" transform="translate(0 182)"/>
    <path fill="url(#o)" d="M26-24.5S22-14.25 18.5-.25s-5 30.75-5 30.75.147-.045.438-.094c2.033-.338 11.218-1.5 28.062 1.344 19.25 3.25 32.25 6 32.25 6l1.469-52.5-.75.125L26-24.5z" transform="translate(0 182)"/>
    <path fill="url(#p)" d="M114.75-180.25s-3.25 3.5-22 8-27.5 5.75-27.5 5.75c5.182 14.7 12.03 29.27 14.25 44.75l-.094.31 48.034-3.94 1.12.26c-3.36-13.33-7.79-54.6-13.81-55.13z" transform="translate(0 182)"/>
    <path fill="url(#q)" d="M117.59-78.094 63.969-62.375l-.344-.094L63.5-62l12.25 46.5-.031.75 49.471-8.875.53.187.03-.062-8.25-54.25.09-.344z" transform="translate(0 182)"/>
    <path fill="url(#r)" d="M128.56-125.12c.24.92.47 1.74.69 2.37l-11.66 44.656.1-.031L169.5-60.75l11.19-52.97c-.36.12-.7.25-1 .38l-51.13-11.78z" transform="translate(0 182)"/>
    <path fill="url(#s)" d="M125.53-23.5 114.5 25s5.5.5 22.5 6.25c2.12.719 4.16 1.406 6.12 2.031 1.97.626 3.86 1.186 5.63 1.719 10.62 3.199 17.5 4.75 17.5 4.75l12.72-45.406c-.51.182-1.02.38-1.53.562L125.53-23.5z" transform="translate(0 182)"/>
    <path fill="url(#t)" d="M218-76c-15.67 6.288-31.7 11.15-48.06 15.406l-.44-.156 9.5 55-.03.094c17.84-6.36 35.38-13.387 52.78-20.844 0 0-.5-4.5-3.75-19.75S218-76 218-76z" transform="translate(0 182)"/>
  </g>
  <g opacity=".043">
    <path fill="url(#u)" d="M13.719-179.97c-1.106 0-1.972.03-2.719.06-.445.02-.855.04-1.156.07-.03 0-.066-.01-.094 0-.398.03-.656.06-.75.09 0 0 7.5 13 11.75 27.75S27-126.5 27-126.5l51.469 5.12.937-.06.094-.31c-2.22-15.48-9.068-30.05-14.25-44.75 0 0-18.5-9-31.5-11.5-1.018-.2-2.01-.37-3-.53-.596-.1-1.167-.2-1.75-.28-.237-.04-.453-.06-.688-.1a98.772 98.772 0 0 0-3.812-.46c-.735-.08-1.395-.13-2.094-.19-.685-.06-1.353-.11-2-.16-.992-.07-1.89-.12-2.781-.15-1.456-.07-2.769-.1-3.906-.1z" transform="translate(0 182)"/>
    <path fill="url(#v)" d="M13-78.75s5.75 16 9.25 30S26-24.5 26-24.5l48.969 9.875.75-.125.031-.75L63.5-62l.125-.469L13-78.75z" transform="translate(0 182)"/>
    <path fill="url(#w)" d="m127.44-125.38-47.971 4h-.063L63.625-62.469l.344.094 53.621-15.719 11.66-44.656c-.22-.63-.45-1.45-.69-2.37l-1.12-.26z" transform="translate(0 182)"/>
    <path fill="url(#x)" d="M125.19-23.625 75.719-14.75l-1.469 52.5S87 35 98.25 31.5 114.5 25 114.5 25l11.22-48.438-.53-.187z" transform="translate(0 182)"/>
    <path fill="url(#y)" d="M114.75-180.25c6.02.53 10.45 41.8 13.81 55.13l51.13 11.78c.3-.13.64-.26 1-.38l.06-.28c-2.81-6.86-9.33-53.61-14.25-52.25 0 0-.61-.25-1.72-.72-3.32-1.39-11.09-4.59-20.28-7.78-12.25-4.25-29.75-5.5-29.75-5.5z" transform="translate(0 182)"/>
    <path fill="url(#z)" d="m117.69-78.125-.1.031-.09.344 8.25 53.25-.22 1 51.91 18.406c.51-.181 1.02-.38 1.53-.562l.03-.094-9.5-55-51.81-17.375z" transform="translate(0 182)"/>
    <path fill="url(#A)" d="M231.75-26.5c-17.4 7.457-34.94 14.484-52.78 20.844L166.25 39.75s13-2.75 26-5.75 26.5-8 26.5-8S218 21 223 1.5s8.75-28 8.75-28z" transform="translate(0 182)"/>
    <path fill="url(#B)" d="M235-126.5c-3.1 8.01-42.5 8.71-54.31 12.78L169.5-60.75l.44.156C186.3-64.85 202.33-69.712 218-76c0 0 1.75-10.5 6.75-23.75S235-126.5 235-126.5z" transform="translate(0 182)"/>
  </g>
</svg>