<?xml version="1.0" encoding="UTF-8" standalone="no"?>
<svg
   xmlns:dc="http://purl.org/dc/elements/1.1/"
   xmlns:cc="http://creativecommons.org/ns#"
   xmlns:rdf="http://www.w3.org/1999/02/22-rdf-syntax-ns#"
   xmlns:svg="http://www.w3.org/2000/svg"
   xmlns="http://www.w3.org/2000/svg"
   xmlns:sodipodi="http://sodipodi.sourceforge.net/DTD/sodipodi-0.dtd"
   xmlns:inkscape="http://www.inkscape.org/namespaces/inkscape"
   version="1.1"
   x="0px"
   y="0px"
   viewBox="0 0 32 32"
   enable-background="new 0 0 38.68 100"
   xml:space="preserve"
   id="svg2"
   inkscape:version="0.91 r13725"
   sodipodi:docname="amenity_showcase.svg"
   width="32"
   height="32"
   inkscape:export-filename="/home/adrien/Documents/Programmation/Web/panieravide.github.io/openlevelup/img/amenity_showcase.png"
   inkscape:export-xdpi="67.5"
   inkscape:export-ydpi="67.5"><metadata
     id="metadata30"><rdf:RDF><cc:Work
         rdf:about=""><dc:format>image/svg+xml</dc:format><dc:type
           rdf:resource="http://purl.org/dc/dcmitype/StillImage" /><dc:title></dc:title></cc:Work></rdf:RDF></metadata><defs
     id="defs28" /><sodipodi:namedview
     pagecolor="#ffffff"
     bordercolor="#666666"
     borderopacity="1"
     objecttolerance="10"
     gridtolerance="10"
     guidetolerance="10"
     inkscape:pageopacity="0"
     inkscape:pageshadow="2"
     inkscape:window-width="1680"
     inkscape:window-height="1026"
     id="namedview26"
     showgrid="false"
     inkscape:zoom="13.350176"
     inkscape:cx="16.617213"
     inkscape:cy="15.747086"
     inkscape:window-x="0"
     inkscape:window-y="0"
     inkscape:window-maximized="1"
     inkscape:current-layer="svg2" /><g
     id="g4182"
     transform="matrix(1.0102604,0,0,1,8.7500001,0)"><polygon
       transform="matrix(0.50046151,0,0,0.46392682,-2.5023076,-9.9634927)"
       style="fill:#ac39ac;fill-opacity:1"
       id="polygon6"
       points="16.557,33.196 9.334,33.196 5,21.638 12.43,21.621 " /><polygon
       transform="matrix(0.50046151,0,0,0.46392682,-2.5023076,-9.9634927)"
       style="fill:#ac39ac;fill-opacity:1"
       id="polygon8"
       points="16.557,47.309 9.334,47.309 5,35.751 12.43,35.734 " /><polygon
       transform="matrix(0.50046151,0,0,0.46392682,-2.5023076,-9.9634927)"
       style="fill:#ac39ac;fill-opacity:1"
       id="polygon10"
       points="16.557,61.422 9.334,61.422 5,49.864 12.43,49.847 " /><polygon
       transform="matrix(0.50046151,0,0,0.46392682,-2.5023076,-9.9634927)"
       style="fill:#ac39ac;fill-opacity:1"
       id="polygon12"
       points="16.557,75.534 9.334,75.534 5,63.978 12.43,63.96 " /><polygon
       transform="matrix(0.50046151,0,0,0.46392682,-2.5023076,-9.9634927)"
       style="fill:#ac39ac;fill-opacity:1"
       id="polygon16"
       points="22.123,33.196 29.345,33.196 33.679,21.638 26.25,21.621 " /><polygon
       transform="matrix(0.50046151,0,0,0.46392682,-2.5023076,-9.9634927)"
       style="fill:#ac39ac;fill-opacity:1"
       id="polygon18"
       points="22.123,47.309 29.345,47.309 33.679,35.751 26.25,35.734 " /><polygon
       transform="matrix(0.50046151,0,0,0.46392682,-2.5023076,-9.9634927)"
       style="fill:#ac39ac;fill-opacity:1"
       id="polygon20"
       points="22.123,61.422 29.345,61.422 33.679,49.864 26.25,49.847 " /><polygon
       transform="matrix(0.50046151,0,0,0.46392682,-2.5023076,-9.9634927)"
       style="fill:#ac39ac;fill-opacity:1"
       id="polygon22"
       points="22.123,75.534 29.345,75.534 33.679,63.978 26.25,63.96 " /><polygon
       transform="matrix(0.38355591,0,0,0.35555556,-0.41967201,-1.7777781)"
       style="fill:#ac39ac;fill-opacity:1"
       id="polygon24"
       points="18.525,95 20.128,95 28.831,95 28.831,91.564 20.128,91.564 20.128,5 18.525,5 18.525,91.564 9.823,91.564 9.823,95 " /></g></svg>