<?xml version="1.0" encoding="UTF-8" standalone="no"?>
<svg
   xmlns:dc="http://purl.org/dc/elements/1.1/"
   xmlns:cc="http://creativecommons.org/ns#"
   xmlns:rdf="http://www.w3.org/1999/02/22-rdf-syntax-ns#"
   xmlns:svg="http://www.w3.org/2000/svg"
   xmlns="http://www.w3.org/2000/svg"
   xmlns:sodipodi="http://sodipodi.sourceforge.net/DTD/sodipodi-0.dtd"
   xmlns:inkscape="http://www.inkscape.org/namespaces/inkscape"
   width="32"
   height="32"
   viewBox="0 0 90.311106 90.31111"
   version="1.1"
   id="svg2"
   inkscape:version="0.91 r13725"
   sodipodi:docname="amenity_luggage_locker.svg">
  <metadata
     id="metadata62">
    <rdf:RDF>
      <cc:Work
         rdf:about="">
        <dc:format>image/svg+xml</dc:format>
        <dc:type
           rdf:resource="http://purl.org/dc/dcmitype/StillImage" />
        <dc:title></dc:title>
      </cc:Work>
    </rdf:RDF>
  </metadata>
  <defs
     id="defs60">
    <clipPath
       clipPathUnits="userSpaceOnUse"
       id="clipPath3564">
      <path
         inkscape:connector-curvature="0"
         d="m 63,43 512.622,0 0,313.129 L 63,356.129 63,43 Z"
         id="path3566" />
    </clipPath>
  </defs>
  <sodipodi:namedview
     pagecolor="#ffffff"
     bordercolor="#666666"
     borderopacity="1"
     objecttolerance="10"
     gridtolerance="10"
     guidetolerance="10"
     inkscape:pageopacity="0"
     inkscape:pageshadow="2"
     inkscape:window-width="1600"
     inkscape:window-height="843"
     id="namedview58"
     showgrid="false"
     fit-margin-top="0"
     fit-margin-left="0"
     fit-margin-right="0"
     fit-margin-bottom="0"
     inkscape:zoom="13.810348"
     inkscape:cx="10.832138"
     inkscape:cy="17.049785"
     inkscape:window-x="1920"
     inkscape:window-y="611"
     inkscape:window-maximized="1"
     inkscape:current-layer="svg2"
     showguides="true"
     inkscape:guide-bbox="true" />
  <polygon
     points="315,205 395,375 315,545 235,375 "
     id="polygon10"
     style="fill:#000000;fill-opacity:1;stroke:none;stroke-width:40;stroke-opacity:1"
     transform="translate(17744.427,14225.097)" />
  <!-- draw the bicycle -->
  <!-- RIGHT -->
  <!-- LANE -->
  <!-- ONLY -->
  <path
     style="fill:#734a07;fill-opacity:1;fill-rule:nonzero;stroke:none;stroke-opacity:1"
     d="m 34.0599,7.7611071 c -3.176956,0 -5.839007,1.9127659 -5.839007,4.9401569 l 0,12.070877 c -8.218063,0.05845 -11.488695,-0.09641 -19.7063788,-0.09641 -4.4190246,0 -8.5145168914808,3.778342 -8.5145168914808,8.791318 l 0,40.11676 c 0,5.608284 4.1960063914808,8.836686 8.5145168914808,8.836686 27.2360158,0.291381 47.8567808,0 73.2820708,0 4.325698,0 8.514521,-3.228402 8.514521,-8.836686 l 0,-40.11676 c 0,-5.012976 -4.088317,-8.791318 -8.514521,-8.791318 -8.275635,0.02614 -11.433035,0.09641 -19.709057,0.09641 l 0,-12.070877 c 0,-3.027391 -2.627942,-4.9401569 -5.794131,-4.9401569 z m -1.63784,4.6905929 25.329687,0 0,12.320441 -25.329687,0 z m -6.272734,25.808021 c 6.153501,0 11.466853,3.429439 14.370356,8.445338 l 33.637396,0.06235 5.625865,5.768238 c 0.880825,0.905469 0.833823,1.665865 0.03368,2.489922 l -6.994465,7.169174 -0.100943,0.02841 -4.161909,-4.265196 -4.066551,4.157434 -3.999239,-4.089378 -3.993642,4.089378 -3.993632,-4.089378 -5.199572,5.320165 -6.67476,0.06236 c -2.869351,5.124455 -8.248513,8.632508 -14.482535,8.632508 -9.225379,0 -16.7037111,-7.562023 -16.7037111,-16.890668 0,-9.336021 7.4783321,-16.890667 16.7037111,-16.890667 z m -7.297355,12.086642 c -2.47897,0 -4.487229,2.038155 -4.487229,4.53745 0,2.501787 2.008259,4.543121 4.487229,4.543121 2.478969,0 4.48723,-2.041334 4.48723,-4.543121 0,-2.499295 -2.008261,-4.53745 -4.48723,-4.53745 z"
     id="path4556"
     inkscape:connector-curvature="0"
     sodipodi:nodetypes="sscssscsssccssscccccccccccccccccccssccsssss" />
</svg>
