<?xml version="1.0" encoding="UTF-8" standalone="no"?>
<!-- Generator: Adobe Illustrator 18.0.0, SVG Export Plug-In . SVG Version: 6.00 Build 0)  -->

<svg
   xmlns:dc="http://purl.org/dc/elements/1.1/"
   xmlns:cc="http://creativecommons.org/ns#"
   xmlns:rdf="http://www.w3.org/1999/02/22-rdf-syntax-ns#"
   xmlns:svg="http://www.w3.org/2000/svg"
   xmlns="http://www.w3.org/2000/svg"
   xmlns:sodipodi="http://sodipodi.sourceforge.net/DTD/sodipodi-0.dtd"
   xmlns:inkscape="http://www.inkscape.org/namespaces/inkscape"
   version="1.1"
   id="Layer_1"
   x="0px"
   y="0px"
   viewBox="0 0 32 32"
   enable-background="new 0 0 2800 2000"
   xml:space="preserve"
   inkscape:version="0.91 r13725"
   sodipodi:docname="statue.svg"
   width="32"
   height="32"><metadata
     id="metadata1130"><rdf:RDF><cc:Work
         rdf:about=""><dc:format>image/svg+xml</dc:format><dc:type
           rdf:resource="http://purl.org/dc/dcmitype/StillImage" /><dc:title></dc:title></cc:Work></rdf:RDF></metadata><defs
     id="defs1128" /><sodipodi:namedview
     pagecolor="#ffffff"
     bordercolor="#666666"
     borderopacity="1"
     objecttolerance="10"
     gridtolerance="10"
     guidetolerance="10"
     inkscape:pageopacity="0"
     inkscape:pageshadow="2"
     inkscape:window-width="1600"
     inkscape:window-height="843"
     id="namedview1126"
     showgrid="false"
     inkscape:zoom="16"
     inkscape:cx="9.8678891"
     inkscape:cy="16.315086"
     inkscape:window-x="1920"
     inkscape:window-y="568"
     inkscape:window-maximized="1"
     inkscape:current-layer="Layer_1" /><path
     style="fill:#8e693e;fill-opacity:1;fill-rule:evenodd;stroke:#46341f;stroke-width:1.44917059;stroke-linecap:butt;stroke-linejoin:miter;stroke-miterlimit:4;stroke-dasharray:none;stroke-opacity:1"
     d="m 11.302834,16.801486 c 0,0 -0.272448,-3.393575 0.561436,-5.759548 L 9.8077594,10.724706 c 0,0 -0.4277624,-2.143142 0.3128516,-3.5955553 1.618456,-1.8091716 6.32582,-2.7138428 9.174727,-1.4995795 1.705602,0.4640751 1.097157,4.6923218 -0.0056,4.8185258 -0.03398,1.371903 -0.15818,1.700483 -0.09117,2.547962 0.0613,0.774878 0.449018,2.292903 0.449018,2.292903 z"
     id="path7822"
     inkscape:connector-curvature="0"
     sodipodi:nodetypes="ccccccacc" /><ellipse
     style="opacity:1;fill:#9d7544;fill-opacity:1;fill-rule:nonzero;stroke:#46341f;stroke-width:1.48630381;stroke-miterlimit:4;stroke-dasharray:none;stroke-opacity:1"
     id="path7894"
     cx="15.042857"
     cy="3.8354542"
     rx="2.5949075"
     ry="3.0923021" /><path
     style="fill:#85633a;fill-opacity:1;fill-rule:evenodd;stroke:#46341f;stroke-width:1.41352642;stroke-linecap:butt;stroke-linejoin:miter;stroke-miterlimit:4;stroke-dasharray:none;stroke-opacity:1"
     d="m 16.895443,15.311759 c -1.993106,-0.129521 -4.022274,0.01806 -6.003211,-0.52438 -0.735312,1.389403 -0.109591,5.917096 0.48101,6.38128 -0.370993,1.834153 0.108751,2.425391 0.62545,3.749461 4.131361,-1.430617 2.193211,-6.688235 4.896638,-9.606381 z"
     id="path7898"
     inkscape:connector-curvature="0"
     sodipodi:nodetypes="cccccc" /><path
     style="fill:#9b7344;fill-opacity:1;fill-rule:evenodd;stroke:#46341f;stroke-width:1.41352642;stroke-linecap:butt;stroke-linejoin:miter;stroke-miterlimit:4;stroke-dasharray:none;stroke-opacity:1"
     d="m 19.808912,15.173317 c -1.175035,-0.103547 -2.548019,-0.185791 -3.282256,0.409774 -3.861684,1.910291 -1.566824,6.439682 -2.52567,8.214608 -0.332098,0.434368 -1.250556,0.336801 -1.723051,0.645988 0.218536,0.944957 -0.105034,1.81345 -0.168485,1.913693 7.355647,1.666535 8.411254,1.767 9.054761,-3.52794 -0.177272,-1.24262 -0.963442,-2.473328 -1.217858,-3.715128 -0.160265,-1.692448 0.458435,-2.466229 -0.136548,-3.940841 z"
     id="path7900"
     inkscape:connector-curvature="0"
     sodipodi:nodetypes="ccccccccc" /><rect
     style="opacity:1;fill:#9b7344;fill-opacity:1;fill-rule:nonzero;stroke:#46341f;stroke-width:1.48374176;stroke-linecap:round;stroke-miterlimit:4;stroke-dasharray:none;stroke-opacity:1"
     id="rect7909"
     width="13.516258"
     height="3.7037582"
     x="9.2418709"
     y="27.554371" /></svg>