<?xml version="1.0" encoding="UTF-8" standalone="no"?>
<svg
   xmlns:dc="http://purl.org/dc/elements/1.1/"
   xmlns:cc="http://creativecommons.org/ns#"
   xmlns:rdf="http://www.w3.org/1999/02/22-rdf-syntax-ns#"
   xmlns:svg="http://www.w3.org/2000/svg"
   xmlns="http://www.w3.org/2000/svg"
   xmlns:sodipodi="http://sodipodi.sourceforge.net/DTD/sodipodi-0.dtd"
   xmlns:inkscape="http://www.inkscape.org/namespaces/inkscape"
   version="1.1"
   x="0px"
   y="0px"
   viewBox="0 0 32 32"
   enable-background="new 0 0 48 48"
   xml:space="preserve"
   id="svg2"
   inkscape:version="0.91 r13725"
   sodipodi:docname="barrier_self_checkout.svg"
   inkscape:export-filename="/home/adrien/Documents/Programmation/Web/panieravide.github.io/openlevelup/img/barrier_self_checkout.png"
   inkscape:export-xdpi="67.5"
   inkscape:export-ydpi="67.5"
   width="32"
   height="32"><metadata
     id="metadata10"><rdf:RDF><cc:Work
         rdf:about=""><dc:format>image/svg+xml</dc:format><dc:type
           rdf:resource="http://purl.org/dc/dcmitype/StillImage" /><dc:title></dc:title></cc:Work></rdf:RDF></metadata><defs
     id="defs8" /><sodipodi:namedview
     pagecolor="#ffffff"
     bordercolor="#666666"
     borderopacity="1"
     objecttolerance="10"
     gridtolerance="10"
     guidetolerance="10"
     inkscape:pageopacity="0"
     inkscape:pageshadow="2"
     inkscape:window-width="1920"
     inkscape:window-height="1056"
     id="namedview6"
     showgrid="false"
     inkscape:zoom="19.666667"
     inkscape:cx="10.359875"
     inkscape:cy="10.653008"
     inkscape:window-x="1600"
     inkscape:window-y="0"
     inkscape:window-maximized="1"
     inkscape:current-layer="svg2" /><path
     inkscape:connector-curvature="0"
     style="font-style:normal;font-variant:normal;font-weight:normal;font-stretch:normal;font-size:40px;line-height:125%;font-family:NPSPICT3;-inkscape-font-specification:NPSPICT3;text-align:start;writing-mode:lr-tb;text-anchor:start;fill:#000000;fill-opacity:1;stroke:none;stroke-width:1px;stroke-linecap:butt;stroke-linejoin:miter;stroke-opacity:1"
     d="M 27.603416,6.2692661 C 26.721242,6.2692903 25.959239,5.9595783 25.317408,5.3401183 24.675674,4.7207306 24.354783,3.9852659 24.354734,3.1337477 24.354783,2.2444928 24.675674,1.4998859 25.317408,0.8999147 25.959239,0.3000038 26.721242,3.62e-5 27.603416,0 c 0.882267,3.62e-5 1.643964,0.3000038 2.28509,0.8999147 0.641215,0.5999712 0.9618,1.3445781 0.961757,2.233833 4.3e-5,0.8515182 -0.320542,1.5869829 -0.961757,2.2063706 -0.641126,0.61946 -1.402823,0.929172 -2.28509,0.9291478 z m -4.271007,0.6377321 6.995542,0 c 0.924811,0 1.632132,1.0411918 1.632132,1.6542708 0.06136,4.47924 0.03369,8.95915 0.03373,13.438731 l -8.841405,0 1.29e-4,-10.738702 -1.503204,0 -4.403971,7.292803 c -0.54084,0.90413 -1.038649,0.920496 -1.564181,0.639337 -0.525532,-0.281161 -0.927896,-0.62071 -0.503127,-1.496775 0,0 4.822208,-9.187658 5.465751,-9.7560223 0.811856,-0.7170172 1.445466,-1.0336183 2.688602,-1.0336425 z"
     id="flowRoot3192"
     sodipodi:nodetypes="csccssscccccccccczcsc" /><path
     inkscape:connector-curvature="0"
     d="m 10.676987,19.000042 c 0.513519,0.0042 0.995816,0.326551 1.178669,0.839317 0.234094,0.656332 -0.106563,1.392558 -0.758611,1.628151 -0.219091,0.07915 -0.450225,0.09217 -0.664569,0.05049 l -0.8401146,1.792232 c -0.1909643,0.34971 -0.7176908,0.09918 -0.570526,-0.271366 L 9.8619505,21.246636 C 9.6940633,21.106718 9.564342,20.91781 9.4857796,20.697609 9.251723,20.041276 9.5923373,19.311398 10.244391,19.07577 c 0.142629,-0.05153 0.288807,-0.07693 0.432596,-0.07573 z m -5.8745366,0.517474 c 0.5611342,0 0.9717748,0.518356 0.9717748,1.098055 l 0,2.473777 c 4.6219208,0.124417 8.3384578,3.938311 8.3384578,8.620361 C 14.111847,31.869683 13.983215,31.999158 13.824284,32 L 5.5422535,32 0.28839764,32 C 0.12946753,31.999158 8.3604734e-4,31.869683 0,31.709709 L 0,20.615571 C 0,20.287877 0.16740874,20.014256 0.38244055,19.826737 0.59747236,19.639219 0.8667359,19.517516 1.1473216,19.517516 Z m 9.4795086,1.899508 c 0.692786,0 1.260174,0.571111 1.260174,1.268442 0,0.697331 -0.567388,1.268442 -1.260174,1.268442 -0.232933,0 -0.457942,-0.06446 -0.64576,-0.176696 l -1.385564,1.400965 c -0.296763,0.301941 -0.747199,-0.145154 -0.451403,-0.448056 l 1.391832,-1.407278 c -0.111135,-0.188795 -0.175547,-0.403353 -0.175547,-0.637377 0,-0.697331 0.573622,-1.268442 1.266442,-1.268442 z m 2.47646,3.382514 c 0.103787,0.0011 0.209004,0.01554 0.313476,0.04417 0.668505,0.18307 1.065877,0.88584 0.884002,1.558733 -0.181911,0.672856 -0.880102,1.072908 -1.548572,0.889803 -0.224851,-0.06156 -0.418583,-0.176455 -0.570524,-0.334465 l -1.705309,0.984469 c -0.368064,0.211279 -0.682205,-0.345238 -0.313476,-0.555338 l 1.705308,-0.984463 c -0.05784,-0.211372 -0.06103,-0.437021 0,-0.662619 0.153465,-0.567772 0.674831,-0.947146 1.235095,-0.940288 z"
     style="color:#000000;text-indent:0;text-transform:none;direction:ltr;block-progression:tb;baseline-shift:baseline;display:inline;overflow:visible;visibility:visible;fill:#000000;fill-opacity:1;stroke:none;marker:none;enable-background:accumulate"
     visibility="visible"
     display="inline"
     overflow="visible"
     id="path4755"
     sodipodi:nodetypes="ccccccccccssccccccsssssssccccsscccccccccc" /></svg>