<?xml version="1.0" encoding="UTF-8" standalone="no"?>
<svg
   xmlns:dc="http://purl.org/dc/elements/1.1/"
   xmlns:cc="http://creativecommons.org/ns#"
   xmlns:rdf="http://www.w3.org/1999/02/22-rdf-syntax-ns#"
   xmlns:svg="http://www.w3.org/2000/svg"
   xmlns="http://www.w3.org/2000/svg"
   xmlns:sodipodi="http://sodipodi.sourceforge.net/DTD/sodipodi-0.dtd"
   xmlns:inkscape="http://www.inkscape.org/namespaces/inkscape"
   version="1.1"
   x="0px"
   y="0px"
   viewBox="0 0 48 48"
   enable-background="new 0 0 48 48"
   xml:space="preserve"
   id="svg2"
   inkscape:version="0.91 r13725"
   sodipodi:docname="barrier_checkout.svg"
   inkscape:export-filename="/home/adrien/Documents/Programmation/Web/panieravide.github.io/openlevelup/img/barrier_checkout.png"
   inkscape:export-xdpi="45"
   inkscape:export-ydpi="45"><metadata
     id="metadata10"><rdf:RDF><cc:Work
         rdf:about=""><dc:format>image/svg+xml</dc:format><dc:type
           rdf:resource="http://purl.org/dc/dcmitype/StillImage" /></cc:Work></rdf:RDF></metadata><defs
     id="defs8" /><sodipodi:namedview
     pagecolor="#ffffff"
     bordercolor="#666666"
     borderopacity="1"
     objecttolerance="10"
     gridtolerance="10"
     guidetolerance="10"
     inkscape:pageopacity="0"
     inkscape:pageshadow="2"
     inkscape:window-width="1600"
     inkscape:window-height="843"
     id="namedview6"
     showgrid="false"
     inkscape:zoom="4.9166667"
     inkscape:cx="-2.7457627"
     inkscape:cy="24"
     inkscape:window-x="0"
     inkscape:window-y="595"
     inkscape:window-maximized="1"
     inkscape:current-layer="svg2" /><path
     fill="#000000"
     d="M40.9,28.5V11.1H36c0-0.1,0-0.1,0-0.2V7l0,0h2V0.5H25.5V7h2l0,0v3.9c0,0.1,0,0.1,0,0.2H7.1v17.4L0.5,40.6  v6.9h47v-6.9L40.9,28.5z M29.5,7H34l0,0v3.9c0,0.1,0,0.1,0,0.2h-4.6c0-0.1,0-0.1,0-0.2L29.5,7L29.5,7z M11.6,16.4h24.9v9.2H11.6  V16.4z M12.7,41H9.8c-0.6,0-1-0.5-1-1c0-0.6,0.5-1,1-1h2.8c0.6,0,1,0.5,1,1C13.7,40.6,13.2,41,12.7,41z M14.8,36.6h-2.8  c-0.6,0-1-0.5-1-1s0.5-1,1-1h2.8c0.6,0,1,0.5,1,1S15.3,36.6,14.8,36.6z M16.8,32.1H14c-0.6,0-1-0.5-1-1s0.5-1,1-1h2.8  c0.6,0,1,0.5,1,1S17.4,32.1,16.8,32.1z M25.4,41h-2.8c-0.6,0-1-0.5-1-1c0-0.6,0.5-1,1-1h2.8c0.6,0,1,0.5,1,1  C26.5,40.6,26,41,25.4,41z M25.4,36.6h-2.8c-0.6,0-1-0.5-1-1s0.5-1,1-1h2.8c0.6,0,1,0.5,1,1S26,36.6,25.4,36.6z M25.4,32.1h-2.8  c-0.6,0-1-0.5-1-1s0.5-1,1-1h2.8c0.6,0,1,0.5,1,1S26,32.1,25.4,32.1z M30.1,31c0-0.6,0.5-1,1-1H34c0.6,0,1,0.5,1,1s-0.5,1-1,1h-2.8  C30.6,32.1,30.1,31.6,30.1,31z M32.2,35.5c0-0.6,0.5-1,1-1h2.8c0.6,0,1,0.5,1,1s-0.5,1-1,1h-2.8C32.7,36.6,32.2,36.1,32.2,35.5z   M38.2,41h-2.8c-0.6,0-1-0.5-1-1c0-0.6,0.5-1,1-1h2.8c0.6,0,1,0.5,1,1C39.2,40.6,38.8,41,38.2,41z"
     id="path4" /></svg>