<?xml version="1.0" encoding="UTF-8" standalone="no"?>
<svg
   xmlns:dc="http://purl.org/dc/elements/1.1/"
   xmlns:cc="http://creativecommons.org/ns#"
   xmlns:rdf="http://www.w3.org/1999/02/22-rdf-syntax-ns#"
   xmlns:svg="http://www.w3.org/2000/svg"
   xmlns="http://www.w3.org/2000/svg"
   xmlns:sodipodi="http://sodipodi.sourceforge.net/DTD/sodipodi-0.dtd"
   xmlns:inkscape="http://www.inkscape.org/namespaces/inkscape"
   version="1.1"
   x="0px"
   y="0px"
   viewBox="0 0 32 32"
   enable-background="new 0 0 40 40"
   xml:space="preserve"
   id="svg2"
   inkscape:version="0.91 r13725"
   sodipodi:docname="bench_type_stand_up.svg"
   width="32"
   height="32"
   inkscape:export-filename="/home/adrien/Documents/Programmation/Web/panieravide.github.io/openlevelup/img/bench_type_stand_up.png"
   inkscape:export-xdpi="67.5"
   inkscape:export-ydpi="67.5"><metadata
     id="metadata10"><rdf:RDF><cc:Work
         rdf:about=""><dc:format>image/svg+xml</dc:format><dc:type
           rdf:resource="http://purl.org/dc/dcmitype/StillImage" /><dc:title /></cc:Work></rdf:RDF></metadata><defs
     id="defs8" /><sodipodi:namedview
     pagecolor="#ffffff"
     bordercolor="#666666"
     borderopacity="1"
     objecttolerance="10"
     gridtolerance="10"
     guidetolerance="10"
     inkscape:pageopacity="0"
     inkscape:pageshadow="2"
     inkscape:window-width="1366"
     inkscape:window-height="661"
     id="namedview6"
     showgrid="false"
     inkscape:zoom="11.8"
     inkscape:cx="6.6082933"
     inkscape:cy="19.182075"
     inkscape:window-x="0"
     inkscape:window-y="0"
     inkscape:window-maximized="1"
     inkscape:current-layer="svg2" /><path
     d="M 10.512106,5.7463322 C 9.3969384,5.8699407 8.5956462,6.8651474 8.7231245,7.9649459 l 0.8430708,7.2506411 c 0.058919,0.507112 0.3138751,0.945552 0.6716717,1.26144 0.131763,0.23137 0.311732,0.437384 0.55062,0.590574 l 4.256061,2.764815 0,8.430142 c 0,0.76595 0.627751,1.385049 1.404404,1.385049 0.774511,0 1.400119,-0.619099 1.400119,-1.385049 l 0,-9.901822 c 0,-0.01056 -0.0021,-0.02113 -0.0021,-0.02852 0.0043,-0.560992 -0.267812,-1.112476 -0.776654,-1.444212 L 13.59301,14.631352 12.79159,9.0895633 C 12.734709,8.6176948 12.718824,7.2410936 12.447848,6.6591333 12.134771,6.0805748 11.30697,5.6544182 10.512106,5.7463322 Z M 28,30 4,30 4,32 28,32 Z M 11.32411,21.014621 c 0.294593,0.231369 0.72202,0.181715 0.956623,-0.109875 0.234603,-0.288419 0.186397,-0.712069 -0.109267,-0.943439 L 7.7611454,16.510835 c -0.2945927,-0.2282 -0.7241624,-0.179602 -0.9566228,0.109874 -0.2346029,0.292646 -0.1863969,0.716295 0.109267,0.945552 z M 10.426406,5.1684361 c 1.431185,-0.014791 2.585988,-1.1832606 2.583846,-2.6126818 0,-1.4273082 -1.169801,-2.56936599 -2.600986,-2.55563171352 C 8.9759386,0.01068741 7.8125653,1.1791573 7.8211352,2.6085785 7.8254243,4.0337737 8.986651,5.179001 10.426406,5.1684361 Z"
     id="path4"
     inkscape:connector-curvature="0"
     sodipodi:nodetypes="ccccccssssccccccccccccccccccccccc"
     style="fill:#8e7409;fill-opacity:1" /><rect
     style="fill:#8e7409;fill-opacity:1;fill-rule:evenodd;stroke:none;stroke-width:0.37868252px;stroke-linecap:butt;stroke-linejoin:miter;stroke-opacity:1"
     id="rect3347"
     width="1"
     height="11.400303"
     x="8.5870247"
     y="18.86887" /></svg>