<?xml version="1.0" encoding="UTF-8" standalone="no"?>
<svg
   xmlns:dc="http://purl.org/dc/elements/1.1/"
   xmlns:cc="http://creativecommons.org/ns#"
   xmlns:rdf="http://www.w3.org/1999/02/22-rdf-syntax-ns#"
   xmlns:svg="http://www.w3.org/2000/svg"
   xmlns="http://www.w3.org/2000/svg"
   xmlns:sodipodi="http://sodipodi.sourceforge.net/DTD/sodipodi-0.dtd"
   xmlns:inkscape="http://www.inkscape.org/namespaces/inkscape"
   version="1.1"
   x="0px"
   y="0px"
   viewBox="0 0 100 100"
   enable-background="new 0 0 100 100"
   xml:space="preserve"
   id="svg4382"
   inkscape:version="0.91 r13725"
   sodipodi:docname="display_permanent.svg"><metadata
     id="metadata4588"><rdf:RDF><cc:Work
         rdf:about=""><dc:format>image/svg+xml</dc:format><dc:type
           rdf:resource="http://purl.org/dc/dcmitype/StillImage" /></cc:Work></rdf:RDF></metadata><defs
     id="defs4586" /><sodipodi:namedview
     pagecolor="#ffffff"
     bordercolor="#666666"
     borderopacity="1"
     objecttolerance="10"
     gridtolerance="10"
     guidetolerance="10"
     inkscape:pageopacity="0"
     inkscape:pageshadow="2"
     inkscape:window-width="1366"
     inkscape:window-height="661"
     id="namedview4584"
     showgrid="false"
     inkscape:zoom="4.83"
     inkscape:cx="50"
     inkscape:cy="50"
     inkscape:window-x="0"
     inkscape:window-y="0"
     inkscape:window-maximized="1"
     inkscape:current-layer="svg4382" /><g
     id="g4384"><rect
       x="-744"
       y="-276"
       width="185"
       height="99"
       id="rect4386" /><rect
       x="-552"
       y="-312"
       width="100"
       height="30"
       id="rect4388" /><text
       transform="matrix(1 0 0 1 -486 -295.5)"
       fill="#000000"
       font-family="'Helvetica'"
       font-size="2.4"
       id="text4390">http://thenounproject.com</text>
<text
       transform="matrix(1 0 0 1 -544.834 -300.5)"
       id="text4392"><tspan
         x="0"
         y="0"
         fill="#000000"
         font-family="'Helvetica-Bold'"
         font-size="6.1578"
         id="tspan4394">The Noun Project</tspan><tspan
         x="1.12"
         y="4.8"
         fill="#000000"
         font-family="'Helvetica-Bold'"
         font-size="4"
         id="tspan4396">Icon Template</tspan></text>
<text
       transform="matrix(1 0 0 1 -730.5 -265.5)"
       fill="#000000"
       font-family="'Helvetica-Bold'"
       font-size="6.1578"
       id="text4398">Reminders</text>
<line
       fill="#000000"
       stroke="#FFFFFF"
       stroke-miterlimit="10"
       x1="-544"
       y1="-290.5"
       x2="-534"
       y2="-290.5"
       id="line4400" /><line
       fill="#000000"
       stroke="#FFFFFF"
       stroke-miterlimit="10"
       x1="-731"
       y1="-259.5"
       x2="-714"
       y2="-259.5"
       id="line4402" /><g
       id="g4404"><g
         id="g4406"><g
           id="g4408"><rect
             x="-722.802"
             y="-244.682"
             fill="#000000"
             width="8.721"
             height="8.642"
             id="rect4410" /><path
             fill="#000000"
             d="M-716.455-233.688h4.747v-4.703h-4.747V-233.688z M-711.266-233.251h-5.63v-5.579h5.63V-233.251      L-711.266-233.251z M-718.221-231.938h8.279v-8.203h-8.279V-231.938L-718.221-231.938z M-709.5-231.5h-9.163v-9.079h9.163      V-231.5L-709.5-231.5z"
             id="path4412" /><polygon
             fill="#000000"
             points="-718.149,-231.867 -718.292,-232.009 -710.013,-240.213 -709.871,-240.071     "
             id="polygon4414" /></g></g></g><rect
       x="-731"
       y="-218"
       fill="none"
       width="35"
       height="32.5"
       id="rect4416" /><text
       transform="matrix(1 0 0 1 -731 -215.8428)"
       id="text4418"><tspan
         x="0"
         y="0"
         fill="#000000"
         font-family="'Helvetica-Bold'"
         font-size="3"
         id="tspan4420">Strokes</tspan><tspan
         x="0"
         y="5"
         fill="#000000"
         font-family="'Helvetica'"
         font-size="2.4"
         id="tspan4422">Try to keep strokes at 4px</tspan><tspan
         x="0"
         y="10"
         fill="#000000"
         font-family="'Helvetica'"
         font-size="2.4"
         id="tspan4424">Minimum stroke weight is 2px</tspan><tspan
         x="0"
         y="14.5"
         fill="#000000"
         font-family="'Helvetica'"
         font-size="2.4"
         id="tspan4426">For thicker strokes use even </tspan><tspan
         x="0"
         y="17.5"
         fill="#000000"
         font-family="'Helvetica'"
         font-size="2.4"
         id="tspan4428">numbers: 6px, 8px etc.</tspan><tspan
         x="0"
         y="22"
         fill="#000000"
         font-family="'Helvetica-Bold'"
         font-size="2.4"
         id="tspan4430">Remember to expand strokes </tspan><tspan
         x="0"
         y="25"
         fill="#000000"
         font-family="'Helvetica-Bold'"
         font-size="2.4"
         id="tspan4432">before saving as an SVG </tspan></text>
<rect
       x="-688.5"
       y="-218"
       fill="none"
       width="35"
       height="32.5"
       id="rect4434" /><text
       transform="matrix(1 0 0 1 -688.5 -215.8428)"
       id="text4436"><tspan
         x="0"
         y="0"
         fill="#000000"
         font-family="'Helvetica-Bold'"
         font-size="3"
         id="tspan4438">Size</tspan><tspan
         x="0"
         y="5"
         fill="#000000"
         font-family="'Helvetica'"
         font-size="2.4"
         id="tspan4440">Cannot be wider or taller than </tspan><tspan
         x="0"
         y="8.5"
         fill="#000000"
         font-family="'Helvetica'"
         font-size="2.4"
         id="tspan4442">100px (artboard size)</tspan><tspan
         x="0"
         y="13.5"
         fill="#000000"
         font-family="'Helvetica'"
         font-size="2.4"
         id="tspan4444">Scale your icon to fill as much of </tspan><tspan
         x="0"
         y="16.5"
         fill="#000000"
         font-family="'Helvetica'"
         font-size="2.4"
         id="tspan4446">the artboard as possible</tspan></text>
<rect
       x="-646"
       y="-218"
       fill="none"
       width="35"
       height="32.5"
       id="rect4448" /><text
       transform="matrix(1 0 0 1 -646 -215.8428)"
       id="text4450"><tspan
         x="0"
         y="0"
         fill="#000000"
         font-family="'Helvetica-Bold'"
         font-size="3"
         id="tspan4452">Ungroup</tspan><tspan
         x="0"
         y="5"
         fill="#000000"
         font-family="'Helvetica'"
         font-size="2.4"
         id="tspan4454">If your design has more than one </tspan><tspan
         x="0"
         y="8"
         fill="#000000"
         font-family="'Helvetica'"
         font-size="2.4"
         id="tspan4456">shape, make sure to ungroup</tspan></text>
<rect
       x="-602"
       y="-218"
       fill="none"
       width="35"
       height="32.5"
       id="rect4458" /><text
       transform="matrix(1 0 0 1 -602 -215.8428)"
       id="text4460"><tspan
         x="0"
         y="0"
         fill="#000000"
         font-family="'Helvetica-Bold'"
         font-size="3"
         id="tspan4462">Save as</tspan><tspan
         x="0"
         y="5"
         fill="#000000"
         font-family="'Helvetica'"
         font-size="2.4"
         id="tspan4464">Save as .SVG and make sure </tspan><tspan
         x="0"
         y="8"
         fill="#000000"
         font-family="'Helvetica'"
         font-size="2.4"
         id="tspan4466">“Use Artboards” is checked</tspan></text>
<text
       transform="matrix(1.0074 0 0 1 -677.542 -245.4067)"
       fill="#000000"
       font-family="'Helvetica'"
       font-size="2.5731"
       id="text4468">100px</text>
<text
       transform="matrix(1.0074 0 0 1 -593 -237)"
       fill="#000000"
       font-family="'Helvetica-Bold'"
       font-size="5.1462"
       id="text4470">.SVG</text>
<rect
       x="-678.514"
       y="-241.185"
       fill="#000000"
       width="10.261"
       height="10.185"
       id="rect4472" /><rect
       x="-678.477"
       y="-244.234"
       fill="#000000"
       width="0.522"
       height="2.337"
       id="rect4474" /><rect
       x="-668.812"
       y="-244.234"
       fill="#000000"
       width="0.523"
       height="2.337"
       id="rect4476" /><rect
       x="-679"
       y="-243.663"
       fill="#000000"
       width="11.233"
       height="0.572"
       id="rect4478" /><g
       id="g4480"><rect
         x="-635.805"
         y="-242.156"
         fill="#000000"
         width="10.305"
         height="10.156"
         id="rect4482" /><rect
         x="-628.809"
         y="-247.293"
         fill="#000000"
         width="3.308"
         height="3.261"
         id="rect4484" /></g><rect
       x="-730.5"
       y="-253.5"
       fill="#000000"
       stroke="#FFFFFF"
       stroke-miterlimit="10"
       width="30"
       height="30"
       id="rect4486" /><rect
       x="-688.5"
       y="-253.5"
       fill="#000000"
       stroke="#FFFFFF"
       stroke-miterlimit="10"
       width="30"
       height="30"
       id="rect4488" /><rect
       x="-645.5"
       y="-253.5"
       fill="#000000"
       stroke="#FFFFFF"
       stroke-miterlimit="10"
       width="30"
       height="30"
       id="rect4490" /><rect
       x="-601.5"
       y="-253.5"
       fill="#000000"
       stroke="#FFFFFF"
       stroke-miterlimit="10"
       width="30"
       height="30"
       id="rect4492" /></g><g
     id="g4494"
     style="fill:#ffffff;fill-opacity:1"><g
       id="g4496"
       style="fill:#ffffff;fill-opacity:1"><path
         d="M-517.384-224.472c4.111,2.507,8.986,3.344,15.384,3.344s11.545-1.256,15.384-3.342c1.705-0.927,4.28-4.448,6.797-9.002    c10.399-0.473,16.714-6.496,16.857-12.412c0.09-3.687-2.324-8.009-9.133-9.247c0.069-0.708,0.111-1.393,0.111-2.044    c0-3.087,0-11.289-30.017-11.289s-30.017,8.202-30.017,11.29C-532.017-246.524-521.682-227.093-517.384-224.472z     M-475.149-255.455l-0.179,4.458l0,0L-475.149-255.455z M-472.882-250h0.002c3.46,0,5.512,1.996,5.455,4.369    c-0.069,2.813-3.322,6.87-9.988,7.956C-475.516-241.735-473.85-246-472.882-250z M-525.318-257.173    c0-2.536,10.439-4.592,23.318-4.592s23.318,2.056,23.318,4.592s-10.439,4.592-23.318,4.592S-525.318-254.637-525.318-257.173z"
         id="path4498"
         style="fill:#ffffff;fill-opacity:1" /><path
         d="M-453.191-212.783c-0.486-0.2-1.008-0.19-1.463-0.016l-0.73,0.297l-2.503,1.005c-1.577,0.633-3.438,0.615-5.159-0.098    c-1.707-0.709-2.906-2.082-3.569-3.648c-0.639-1.576-0.77-3.41-0.061-5.119c0.713-1.721,2.017-3.048,3.575-3.717l2.483-1.059    l0.727-0.307c0.442-0.199,0.822-0.557,1.022-1.045c0.405-0.977-0.044-2.093-1.005-2.489l-0.148-0.063    c-2.917-1.014-6.173-0.936-9.26,0.379c-4.48,1.917-7.439,6.021-8.106,10.569l-7.079,2.926L-502-207.905l-17.532-7.264    l-7.079-2.926c-0.667-4.548-3.626-8.652-8.106-10.569c-3.087-1.314-6.343-1.393-9.26-0.379l-0.148,0.063    c-0.961,0.396-1.41,1.513-1.005,2.489c0.2,0.488,0.58,0.846,1.022,1.045l0.727,0.307l2.483,1.059    c1.559,0.669,2.862,1.996,3.575,3.717c0.709,1.709,0.578,3.543-0.061,5.119c-0.663,1.566-1.862,2.939-3.569,3.648    c-1.721,0.713-3.582,0.73-5.159,0.098l-2.503-1.005l-0.73-0.297c-0.455-0.175-0.977-0.185-1.463,0.016    c-0.977,0.403-1.447,1.511-1.051,2.472l0.063,0.148c1.345,2.78,3.702,5.023,6.815,6.279c4.522,1.812,9.52,1.012,13.215-1.735    l7.066,2.919l5.067,2.101l-9.925,4.112c-1.581,0.658-2.883,1.978-3.589,3.68c-1.413,3.414,0.2,7.315,3.615,8.728    c1.702,0.707,3.558,0.718,5.141,0.065l22.39-9.278l22.39,9.278c1.583,0.652,3.438,0.642,5.141-0.065    c3.415-1.412,5.028-5.313,3.615-8.728c-0.706-1.702-2.008-3.021-3.589-3.68l-9.925-4.112l5.067-2.101l7.066-2.919    c3.695,2.747,8.692,3.548,13.215,1.735c3.113-1.256,5.471-3.499,6.815-6.279l0.063-0.148    C-451.744-211.272-452.215-212.38-453.191-212.783z M-524.146-189.596c-0.504,1.217-1.901,1.794-3.118,1.291    c-1.216-0.504-1.794-1.901-1.29-3.118c0.506-1.217,1.901-1.795,3.117-1.291C-524.22-192.21-523.642-190.812-524.146-189.596z     M-478.563-192.714c1.216-0.504,2.611,0.074,3.117,1.291c0.504,1.217-0.074,2.614-1.29,3.118    c-1.217,0.503-2.614-0.074-3.118-1.291S-479.78-192.21-478.563-192.714z"
         id="path4500"
         style="fill:#ffffff;fill-opacity:1" /></g><path
       d="M-349.521-228.566c-1.031,1.034-1.879,0.685-1.879-0.776v-20.032c0-1.46-0.841-1.81-1.872-0.779l-21.593,21.587   c-1.031,1.034-2.003,0.69-2.157-0.761l-4.746-44.03c-0.157-1.455-1.481-2.643-2.939-2.643h-9.403c-1.464,0-2.72,1.194-2.797,2.655   l-5.031,94.691c-0.08,1.46,1.055,2.654,2.513,2.654h70.716c1.458,0,2.654-1.197,2.654-2.657v-70.716c0-1.46-0.844-1.81-1.875-0.779   L-349.521-228.566z M-351.4-191.329c0,1.46-1.19,2.654-2.651,2.654h-20.031c-1.464,0-2.654-1.194-2.654-2.654v-20.032   c0-1.46,1.19-2.654,2.654-2.654h20.031c1.461,0,2.651,1.194,2.651,2.654V-191.329z"
       id="path4502"
       style="fill:#ffffff;fill-opacity:1" /><path
       d="M-176.529-232.312l-14.556-8.454l14.556-8.456c0.327-0.189,0.529-0.54,0.529-0.918s-0.202-0.726-0.529-0.915   l-32.801-18.935c-0.327-0.189-0.733-0.192-1.061,0.002L-226-260.923l-15.606-9.065c-0.33-0.194-0.733-0.192-1.063-0.002   l-32.801,18.935c-0.327,0.189-0.529,0.537-0.529,0.915s0.202,0.729,0.529,0.918l14.556,8.456l-14.556,8.454   c-0.327,0.189-0.529,0.54-0.529,0.918c0,0.378,0.202,0.729,0.529,0.917l15.606,9.007v19.609c0,0.379,0.202,0.729,0.529,0.918   l32.801,18.935c0.022,0.013,0.051,0.018,0.076,0.03c0.031,0.016,0.06,0.026,0.087,0.036c0.12,0.044,0.24,0.074,0.366,0.074   c0.125,0,0.245-0.03,0.362-0.074c0.031-0.01,0.06-0.021,0.087-0.036c0.028-0.01,0.057-0.018,0.08-0.03l32.801-18.935   c0.327-0.189,0.528-0.539,0.528-0.918v-19.603l15.617-9.014c0.327-0.189,0.526-0.54,0.529-0.917   C-176-231.772-176.202-232.123-176.529-232.312z M-209.856-267.848l30.679,17.713l-14.024,8.147l-30.682-17.713L-209.856-267.848z    M-272.822-250.135l30.682-17.713l14.021,8.145l-30.685,17.713L-272.822-250.135z M-272.825-231.399l14.021-8.142l30.685,17.71   l-14.021,8.146L-272.825-231.399z M-227.063-184.764l-30.682-17.71v-17.772l15.075,8.702c0.166,0.095,0.348,0.144,0.529,0.144   c0.187,0,0.368-0.049,0.534-0.146l14.551-8.452L-227.063-184.764z M-224.944-223.952c0,0.585-0.476,1.058-1.061,1.058   c-0.586,0-1.062-0.473-1.062-1.058v-33.627c0-0.588,0.476-1.061,1.062-1.061c0.585,0,1.061,0.473,1.061,1.061V-223.952z    M-194.266-202.474l-30.679,17.71l0.011-35.227l14.543,8.444c0.327,0.191,0.733,0.191,1.061,0.002l15.064-8.696V-202.474z    M-209.856-213.686l-14.024-8.146l30.679-17.715l14.024,8.147L-209.856-213.686z"
       id="path4504"
       style="fill:#ffffff;fill-opacity:1" /><g
       id="g4506"
       style="fill:#ffffff;fill-opacity:1"><path
         d="M-88.002-231.083c2.422-5.869,12.434-30.137,13.147-31.879C-74.914-270.162-80.79-276-88.002-276    s-13.087,5.838-13.146,13.038C-100.434-261.221-90.423-236.952-88.002-231.083z"
         id="path4508"
         style="fill:#ffffff;fill-opacity:1" /><path
         d="M-55.188-255.21c-2.485-2.485-5.788-3.854-9.299-3.854c-3.474,0-6.744,1.338-9.216,3.772l-13.248,31.842l30.178-12.557    l1.66-0.692c2.435-2.474,3.774-5.743,3.774-9.216C-51.337-249.425-52.705-252.727-55.188-255.21z"
         id="path4510"
         style="fill:#ffffff;fill-opacity:1" /><path
         d="M-102.298-255.288c-2.475-2.436-5.741-3.776-9.218-3.776c-3.512,0-6.812,1.368-9.295,3.85    c-5.099,5.103-5.123,13.386-0.077,18.516l8.968,3.731l22.868,9.517L-102.298-255.288z"
         id="path4512"
         style="fill:#ffffff;fill-opacity:1" /><path
         d="M-121.255-235.547c-7.25,0-13.146,5.898-13.146,13.147c0,7.248,5.896,13.146,13.146,13.146    c0.046,0,0.093,0.006,0.135,0.017l31.646-13.163l-31.652-13.172C-121.173-235.556-121.215-235.547-121.255-235.547z"
         id="path4514"
         style="fill:#ffffff;fill-opacity:1" /><path
         d="M-55.19-189.592c5.092-5.092,5.123-13.379,0.082-18.51l-31.84-13.249l13.243,31.836c2.477,2.435,5.746,3.775,9.22,3.775    C-60.974-185.739-57.674-187.108-55.19-189.592z"
         id="path4516"
         style="fill:#ffffff;fill-opacity:1" /><path
         d="M-54.879-209.232c0.042-0.015,0.087-0.021,0.131-0.021c7.249,0,13.149-5.898,13.149-13.146    c0-7.249-5.9-13.147-13.149-13.147c-0.049,0-0.095-0.006-0.142-0.018l-31.64,13.165L-54.879-209.232z"
         id="path4518"
         style="fill:#ffffff;fill-opacity:1" /><path
         d="M-88.002-176c7.217,0,13.116-5.872,13.147-13.088c0-0.062,0.011-0.12,0.028-0.176l-13.173-31.663l-13.176,31.673    c0.021,0.052,0.031,0.108,0.031,0.166C-101.114-181.872-95.219-176-88.002-176z"
         id="path4520"
         style="fill:#ffffff;fill-opacity:1" /><path
         d="M-89.052-221.352l-31.825,13.238c-5.057,5.126-5.032,13.423,0.066,18.521c2.483,2.483,5.783,3.853,9.295,3.853    c3.477,0,6.748-1.342,9.225-3.779L-89.052-221.352z"
         id="path4522"
         style="fill:#ffffff;fill-opacity:1" /></g><g
       id="g4524"
       style="fill:#ffffff;fill-opacity:1"><g
         id="g4526"
         style="fill:#ffffff;fill-opacity:1"><path
           d="M97.827-236.034L50-260.117L2.173-236.034c-1.948,0.978-2.73,3.353-1.75,5.301c0.983,1.949,3.355,2.73,5.299,1.75     l2.008-1.01v34.823c0,1.814,1.478,3.287,3.291,3.287h11.513h54.932h11.515c1.813,0,3.289-1.473,3.289-3.287v-34.823l2.007,1.01     c0.566,0.287,1.174,0.422,1.772,0.422c1.443,0,2.833-0.795,3.529-2.172C100.558-232.681,99.775-235.056,97.827-236.034z      M78.124-217.65H21.876v-8.114c0-0.355,0.302-0.657,0.657-0.657h54.932c0.357,0,0.659,0.302,0.659,0.657V-217.65z      M21.876-215.018h56.248v9.1H21.876V-215.018z M22.533-194.514c-0.355,0-0.657-0.303-0.657-0.656v-8.117h56.248v8.117     c0,0.354-0.302,0.656-0.659,0.656H22.533z M89.636-195.17c0,0.354-0.301,0.656-0.656,0.656H80.69     c0.044-0.213,0.063-0.432,0.063-0.656v-30.594c0-1.816-1.473-3.289-3.289-3.289H22.533c-1.814,0-3.287,1.473-3.287,3.289v30.594     c0,0.225,0.02,0.443,0.063,0.656h-8.289c-0.355,0-0.656-0.303-0.656-0.656v-36.148L50-251.281l39.636,19.963V-195.17z"
           id="path4528"
           style="fill:#ffffff;fill-opacity:1" /><path
           d="M40.956-241.168v5.264c0,1.812,1.471,3.284,3.287,3.284h11.514c1.814,0,3.287-1.473,3.287-3.284v-5.264     c0-1.814-1.473-3.292-3.287-3.292H44.243C42.427-244.46,40.956-242.982,40.956-241.168z M44.243-241.828h4.443v1.973h-5.103     v-1.313C43.584-241.524,43.885-241.828,44.243-241.828z M43.584-235.904v-1.321h5.103v1.976h-4.443     C43.885-235.25,43.584-235.549,43.584-235.904z M55.757-235.25h-4.443v-1.976h5.101v1.321     C56.414-235.549,56.112-235.25,55.757-235.25z M56.414-241.168v1.313h-5.101v-1.973h4.443     C56.112-241.828,56.414-241.524,56.414-241.168z"
           id="path4530"
           style="fill:#ffffff;fill-opacity:1" /></g></g><g
       id="g4532"
       style="fill:#ffffff;fill-opacity:1"><path
         d="M-479.17-115.239c-9.56,0-17.948,4.937-22.804,12.39c-4.854-7.453-13.244-12.39-22.801-12.39    c-15.026,0-27.208,12.182-27.208,27.211c0,15.023,12.182,27.259,27.208,27.259c4.68,0,9.072-1.23,12.913-3.23    c-6.388,0-13.02,0-13.053,0c0,0,27.217-38.928,27.263-38.997c0.021-0.025,0.041-0.071,0.067-0.097    c0.682-0.943,1.549-1.755,2.545-2.379c1.011-0.641,2.154-1.096,3.381-1.306c0.503-0.088,1.021-0.139,1.55-0.139    c0.523,0,1.031,0.049,1.529,0.134c4.161,0.692,7.373,4.141,7.702,8.409l7.42,3.674L-481-91.043v4.908c0,0.021,0,0.046,0,0.066    c0,9.23-5.66,17.112-13.731,20.365c4.392,3.062,9.756,4.883,15.523,4.883c15.029,0,27.228-12.185,27.228-27.208    C-451.98-103.058-464.141-115.239-479.17-115.239z"
         id="path4534"
         style="fill:#ffffff;fill-opacity:1" /><circle
         cx="-489.037"
         cy="-98.342"
         r="1.365"
         id="circle4536"
         style="fill:#ffffff;fill-opacity:1" /></g><path
       d="M-338.996-102h-50.006c-13.806,0-24.997,11.15-24.997,24.959s11.191,25.055,24.997,25.055   c6.23,0,11.919-2.014,16.296-6.014h17.408c4.381,4,10.066,5.992,16.297,5.992c13.809,0,25-11.188,25-24.995   C-314.001-90.81-325.192-102-338.996-102z M-373-72h-11v11h-10v-11h-10v-10h10v-11h10v11h11V-72z M-344.19-61.487   c-2.874,0-5.204-2.327-5.204-5.196c0-2.872,2.33-5.199,5.204-5.199c2.865,0,5.194,2.327,5.194,5.199   C-338.996-63.814-341.325-61.487-344.19-61.487z M-333.802-82.281c-2.869,0-5.194-2.327-5.194-5.199s2.325-5.199,5.194-5.199   c2.875,0,5.202,2.327,5.202,5.199S-330.927-82.281-333.802-82.281z"
       id="path4538"
       style="fill:#ffffff;fill-opacity:1" /><g
       id="g4540"
       style="fill:#ffffff;fill-opacity:1"><rect
         x="-366"
         y="-152"
         width="4"
         height="51"
         id="rect4542"
         style="fill:#ffffff;fill-opacity:1" /></g><path
       fill-rule="evenodd"
       clip-rule="evenodd"
       d="M-194.691-102.307c-2.505-0.461-9.614,1.483-13.699,2.492   c-5.373,1.324-9.98,2.824-12.158,6.254c-4.398,6.925-10.306,14.762-10.258,22.39c0.057,8.925,7.182,18.045,12.266,24.21   c1.467,1.777,3.672,1.903,5.305,1.757c8.548-0.769,19.62-3.71,23.49-6.039c2.975-1.79,14.036-16.731,13.74-23.664   C-176.334-82.49-186.262-100.762-194.691-102.307z M-220.46-84.871c0.901,0,1.631,1.118,1.631,2.498   c0,1.379-0.729,2.498-1.631,2.498s-1.631-1.119-1.631-2.498C-222.091-83.753-221.361-84.871-220.46-84.871z M-226.983-68.137   c-0.901,0-1.631-1.119-1.631-2.498c0-1.38,0.729-2.498,1.631-2.498s1.631,1.118,1.631,2.498   C-225.353-69.256-226.082-68.137-226.983-68.137z M-223.722-74.006c-0.901,0-1.631-1.119-1.631-2.498   c0-1.38,0.729-2.498,1.631-2.498s1.631,1.118,1.631,2.498C-222.091-75.125-222.82-74.006-223.722-74.006z M-221.066-55.604   c-0.901,0-1.631-1.118-1.631-2.498c0-1.379,0.729-2.498,1.631-2.498c0.9,0,1.631,1.119,1.631,2.498   C-219.436-56.722-220.166-55.604-221.066-55.604z M-217.805-61.473c-0.901,0-1.631-1.118-1.631-2.498   c0-1.379,0.729-2.498,1.631-2.498c0.9,0,1.631,1.119,1.631,2.498C-216.174-62.591-216.904-61.473-217.805-61.473z M-214.543-67.342   c-0.901,0-1.631-1.118-1.631-2.498c0-1.379,0.729-2.498,1.631-2.498c0.9,0,1.631,1.119,1.631,2.498   C-212.912-68.46-213.643-67.342-214.543-67.342z M-212.725-88.416c-0.857-1.26-0.705-2.857,0.342-3.572   c1.047-0.713,2.591-0.271,3.449,0.988c0.858,1.258,0.705,2.857-0.341,3.57C-210.322-86.715-211.866-87.157-212.725-88.416z    M-205.86-49.312c-1.419,0.856-3.003,0.831-3.538-0.056c-0.534-0.887,0.182-2.299,1.601-3.155s3.003-0.831,3.538,0.056   C-203.726-51.58-204.441-50.168-205.86-49.312z M-208.391-62.453c-2.784-0.537-0.503-6.136-1.244-8.718   c3.921-0.601,2.82,3.825,7.472,2.492C-204.025-66.393-207.359-65.572-208.391-62.453z M-200.857-72.68   c-1.047,0.715-2.592,0.272-3.449-0.986c-0.858-1.26-0.706-2.857,0.341-3.572c1.047-0.713,2.591-0.271,3.45,0.988   C-199.658-74.992-199.811-73.393-200.857-72.68z M-193.441-91.596c-1.047,0.715-2.592,0.271-3.449-0.986   c-0.858-1.26-0.706-2.858,0.341-3.572s2.591-0.271,3.45,0.987C-192.242-93.908-192.395-92.309-193.441-91.596z M-188.475-77.832   c-0.857-1.26-0.705-2.858,0.342-3.572s2.591-0.271,3.449,0.987s0.705,2.858-0.341,3.571   C-186.072-76.131-187.616-76.574-188.475-77.832z M-184.027-64.863c-1.419,0.856-3.002,0.832-3.537-0.055s0.182-2.3,1.6-3.156   c1.419-0.855,3.002-0.83,3.537,0.057S-182.609-65.719-184.027-64.863z"
       id="path4544"
       style="fill:#ffffff;fill-opacity:1" /><path
       fill-rule="evenodd"
       clip-rule="evenodd"
       d="M-260.572-131.494c-9.633,9.768-16.347,27.355-15.325,44.571   c0.129,2.185,0.533,3.254,1.891,4.351c6.969,5.63,16.785,8.412,28.237,9.557c1.44,0.145,3.134-0.754,3.763-1.766   c7.463-12.023,13.133-25.842,13.652-44.809c0.039-1.455,0.157-1.702-0.642-2.3c-6.593-4.941-20.312-8.521-27.31-10.046   C-258.171-132.34-259.874-132.201-260.572-131.494z M-240.001-105.465c0,1.381-1.567,2.5-3.5,2.5s-3.5-1.119-3.5-2.5   s1.567-2.5,3.5-2.5S-240.001-106.846-240.001-105.465z M-249.501-117.965c1.933,0,3.5,1.119,3.5,2.5s-1.567,2.5-3.5,2.5   s-3.5-1.119-3.5-2.5S-251.434-117.965-249.501-117.965z M-256.501-127.965c1.933,0,3.5,1.119,3.5,2.5s-1.567,2.5-3.5,2.5   s-3.5-1.119-3.5-2.5S-258.434-127.965-256.501-127.965z M-265.518-83.635c-0.723,1.178-2.644,1.312-4.291,0.301   s-2.397-2.784-1.676-3.961c0.723-1.178,2.644-1.312,4.291-0.301S-264.796-84.812-265.518-83.635z M-262.518-97.635   c-0.723,1.178-2.644,1.312-4.291,0.301s-2.397-2.784-1.676-3.961c0.723-1.178,2.644-1.312,4.291-0.301   S-261.796-98.812-262.518-97.635z M-255.518-87.635c-0.723,1.178-2.644,1.312-4.291,0.301s-2.397-2.784-1.676-3.961   c0.723-1.178,2.644-1.312,4.291-0.301S-254.796-88.812-255.518-87.635z M-248.518-77.635c-0.723,1.178-2.644,1.312-4.291,0.301   s-2.397-2.784-1.676-3.961c0.723-1.178,2.644-1.312,4.291-0.301S-247.796-78.812-248.518-77.635z M-245.518-91.635   c-0.723,1.178-2.644,1.312-4.291,0.301s-2.397-2.784-1.676-3.961c0.723-1.178,2.644-1.312,4.291-0.301   S-244.796-92.812-245.518-91.635z M-244.514-97.701c0.519-2.802,6.828,0.186,6.228-3.738c3.241,1.735-0.907,6.448-1.246,8.721   C-242.072-93.502-239.881-99.013-244.514-97.701z"
       id="path4546"
       style="fill:#ffffff;fill-opacity:1" /><path
       d="M-77.704-87.123l16.165-16.164l8.194,8.193l9.095-0.31l-12.587-12.586l-2.608-2.607l14.628-14.625   c1.796,0.249,3.683-0.293,5.062-1.675c2.339-2.341,2.339-6.132,0.003-8.472c-2.342-2.34-6.134-2.34-8.473,0   c-1.383,1.383-1.926,3.268-1.677,5.065l-14.625,14.624l-2.606-2.605l-12.586-12.588l-0.31,9.095l8.193,8.195l-16.162,16.165   l-16.169-16.168l8.193-8.193l-0.31-9.095l-12.586,12.586l-2.606,2.607l-14.625-14.625c0.249-1.796-0.291-3.681-1.674-5.063   c-2.339-2.34-6.131-2.34-8.47-0.001c-2.343,2.341-2.343,6.132,0,8.473c1.38,1.382,3.267,1.924,5.062,1.673l14.625,14.625   l-2.605,2.605l-12.59,12.588l9.098,0.309l8.194-8.193l16.165,16.167l-37.188,37.188l-0.761,11.059l42.758-43.44l4.727-4.801   l0.762-0.773l4.723-4.801l16.039-16.292l1.098,1.099l-16.29,16.038l-4.809,4.729l-0.761,0.749l-4.806,4.734l-43.44,42.758   l11.054-0.764l37.192-37.189l37.186,37.188l11.06,0.764l-43.44-42.758l0.683-0.682l42.758,43.439l-0.767-11.059L-77.704-87.123z    M-93.567-91.851l-16.293-16.039l1.098-1.098l16.039,16.296L-93.567-91.851z"
       id="path4548"
       style="fill:#ffffff;fill-opacity:1" /><path
       d="M79.605-130.82c-0.558,3.083-13.598,75.437-13.974,77.6c-0.851,4.887-4.48,8.916-9.242,10.273   c-6.889,1.959-14.085-2.052-16.044-8.935l-19.492-68.566c-1.552-5.459,1.627-11.16,7.084-12.712   c5.456-1.549,11.156,1.627,12.709,7.087l13.723,48.272c1.051,3.686-1.096,7.541-4.781,8.586c-3.691,1.051-7.54-1.099-8.592-4.787   l-11.156-39.26l-4.28,1.215l11.157,39.265c1.721,6.045,8.041,9.567,14.085,7.847c6.045-1.72,9.567-8.037,7.848-14.085   l-13.724-48.27c-2.221-7.816-10.387-12.368-18.202-10.146c-7.816,2.221-12.371,10.39-10.144,18.206l19.486,68.562   c2.627,9.245,12.289,14.63,21.538,12.002c6.395-1.821,11.27-7.234,12.414-13.791c0.375-2.149,13.829-76.817,13.967-77.575   L79.605-130.82z"
       id="path4550"
       style="fill:#ffffff;fill-opacity:1" /><path
       d="M-452,32.168v-3.109c-12.973-0.484-25.061,1.035-36.193,4.598l22.91-12.229c0.506,0.523,1.219,0.853,2.004,0.853   c1.547,0,2.808-1.255,2.808-2.802c0-1.553-1.261-2.807-2.808-2.807c-1.553,0-2.808,1.254-2.808,2.807   c0,0.195,0.073,0.366,0.116,0.555l-26.942,14.372l-4.567-7.874l-16.521,9.573l4.227,7.302l-37.32,19.914   c-0.512-0.523-1.218-0.853-2.003-0.853c-1.554,0-2.808,1.255-2.808,2.808c0,1.547,1.254,2.802,2.808,2.802   c1.546,0,2.802-1.255,2.802-2.802c0-0.201-0.074-0.371-0.11-0.555l29.749-15.876C-534.233,62.794-545.789,82.327-552,100h3.309   c6.9-19.104,20.146-40.248,40.67-53.573l3.592,6.206l16.529-9.58l-2.99-5.151C-479.074,33.547-466.09,31.635-452,32.168z"
       id="path4552"
       style="fill:#ffffff;fill-opacity:1" /><path
       d="M-410.904,7.454c-1.429-0.626-2.317,0.106-1.976,1.628l18.426,82.107c0.342,1.521,1.666,2.034,2.943,1.14l21.628-15.143   c1.277-0.895,3.034-0.567,3.904,0.727l7.062,10.504c0.869,1.294,2.024,1.156,2.566-0.306l8.72-23.519   c0.542-1.462,0.185-1.666-0.796-0.453l-3.129,3.877c-0.98,1.213-3.057,2.231-4.615,2.264l-1.122,0.022   c-1.559,0.032-3.627-0.94-4.596-2.162l-35.244-44.436c-0.969-1.222-0.753-1.439,0.479-0.485l47.767,36.979   c1.232,0.954,3.443,1.308,4.912,0.785l27.802-9.896c1.469-0.522,1.503-1.462,0.074-2.088L-410.904,7.454z"
       id="path4554"
       style="fill:#ffffff;fill-opacity:1" /><g
       id="g4556"
       style="fill:#ffffff;fill-opacity:1"><path
         d="M-213.28,30.327c0-7.024-5.696-12.72-12.72-12.72c-7.024,0-12.72,5.695-12.72,12.72c0,7.023,5.695,12.713,12.72,12.713    C-218.977,43.04-213.28,37.351-213.28,30.327z M-230.895,30.327c0-2.703,2.191-4.895,4.895-4.895c2.696,0,4.888,2.191,4.888,4.895    c0,2.696-2.191,4.888-4.888,4.888C-228.703,35.215-230.895,33.023-230.895,30.327z"
         id="path4558"
         style="fill:#ffffff;fill-opacity:1" /><path
         d="M-183.562,96.509l-34.813-8.303l34.813-8.31c0.954-0.229,1.542-1.182,1.314-2.129c-0.229-0.954-1.176-1.541-2.137-1.313    l-36.301,8.662c3.63-21.341,25.012-36.245,25.012-55.343C-195.673,13.328-209.25,0-226,0c-16.751,0-30.327,13.328-30.327,29.773    c0,19.098,21.485,34.002,25.018,55.343l-36.313-8.662c-0.947-0.228-1.901,0.359-2.13,1.313c-0.228,0.947,0.359,1.9,1.307,2.129    l34.821,8.31l-34.821,8.303c-0.947,0.228-1.534,1.183-1.307,2.136c0.193,0.809,0.92,1.355,1.722,1.355    c0.132,0,0.27-0.014,0.408-0.049l37.198-8.869c0.774,1.666,2.461,2.834,4.425,2.834s3.644-1.168,4.425-2.834l37.191,8.869    c0.139,0.035,0.276,0.049,0.414,0.049c0.803,0,1.528-0.547,1.723-1.355C-182.02,97.691-182.607,96.736-183.562,96.509z     M-246.546,30.327c0-11.351,9.195-20.546,20.546-20.546c11.345,0,20.546,9.195,20.546,20.546c0,11.345-9.201,20.549-20.546,20.549    C-237.351,50.876-246.546,41.672-246.546,30.327z"
         id="path4560"
         style="fill:#ffffff;fill-opacity:1" /></g><g
       id="g4562"
       style="fill:#ffffff;fill-opacity:1"><g
         id="g4564"
         style="fill:#ffffff;fill-opacity:1"><path
           d="M-66.087,31.086c-0.517,0-0.938-0.424-0.938-0.938V17.064c0-0.518-0.421-0.939-0.937-0.939h-40.076     c-0.518,0-0.938,0.422-0.938,0.939v13.084c0,0.514-0.42,0.938-0.938,0.938h-27.15c-0.517,0-0.938,0.424-0.938,0.938v14.545     c0,0.512,0.421,0.936,0.938,0.936h43.721c0.518,0,0.941-0.424,0.941-0.936v-3.104c0-0.514,0.424-0.936,0.941-0.936h6.92     c0.518,0,0.94,0.422,0.94,0.936v3.104c0,0.512,0.424,0.936,0.94,0.936h43.721c0.518,0,0.938-0.424,0.938-0.936V32.023     c0-0.514-0.42-0.938-0.938-0.938H-66.087z M-102.389,31.086c-0.518,0-0.938-0.424-0.938-0.938v-7.438     c0-0.518,0.42-0.938,0.938-0.938h28.779c0.517,0,0.938,0.42,0.938,0.938v7.438c0,0.514-0.421,0.938-0.938,0.938H-102.389z"
           id="path4566"
           style="fill:#ffffff;fill-opacity:1" /></g><g
         id="g4568"
         style="fill:#ffffff;fill-opacity:1"><path
           d="M-83.599,62.418c0,0.514-0.423,0.938-0.94,0.938h-6.92c-0.518,0-0.941-0.424-0.941-0.938V51.963     c0-0.514-0.424-0.938-0.941-0.938h-43.721c-0.517,0-0.938,0.424-0.938,0.938v30.975c0,0.514,0.421,0.938,0.938,0.938h98.125     c0.518,0,0.938-0.424,0.938-0.938V51.963c0-0.514-0.42-0.938-0.938-0.938h-43.721c-0.517,0-0.94,0.424-0.94,0.938V62.418z"
           id="path4570"
           style="fill:#ffffff;fill-opacity:1" /></g></g><g
       id="g4572"
       style="fill:#ffffff;fill-opacity:1"><polygon
         points="86.263,58.049 75.716,72.684 69.627,74.023 86.656,50.385   "
         id="polygon4574"
         style="fill:#ffffff;fill-opacity:1" /><polygon
         points="85.625,70.512 82.662,71.162 85.816,66.781   "
         id="polygon4576"
         style="fill:#ffffff;fill-opacity:1" /><polygon
         points="87.104,41.648 62.685,75.55 56.596,76.882 87.492,33.996   "
         id="polygon4578"
         style="fill:#ffffff;fill-opacity:1" /><polygon
         points="87.939,25.264 49.653,78.408 43.568,79.744 88.329,17.604   "
         id="polygon4580"
         style="fill:#ffffff;fill-opacity:1" /><path
         d="M10.4,98.43l83.682-17.643c1.404-0.301,2.428-1.502,2.504-2.936L100,11.055c0-0.049,0-0.105,0-0.158    c0-0.864-0.353-1.697-0.99-2.293l-6.588-6.232c-0.752-0.714-1.807-1.015-2.818-0.799L5.924,19.219    c-1.405,0.297-2.432,1.502-2.506,2.936L0.004,88.947c-0.045,0.93,0.312,1.826,0.986,2.455l6.59,6.228    C8.334,98.349,9.391,98.641,10.4,98.43z M18.621,23.002L9.025,36.33l0.441-8.736l2.266-3.134L18.621,23.002z M31.556,20.278    L8.185,52.715l0.446-8.732l16.031-22.25L31.556,20.278z M44.489,17.551L7.352,69.111l0.447-8.736l29.797-41.371L44.489,17.551z     M57.42,14.822L6.694,85.24l-0.162-0.117l0.427-8.359l43.575-60.488L57.42,14.822z M10.718,91.898l-4.243-4.007l4.08-0.901    l52.909-73.442l6.894-1.458L17.501,85.468l6.09-1.336L76.402,10.82l6.893-1.454L30.537,82.605l6.089-1.335L88.545,9.191    l0.211,0.146l0.053-1.137L89.283,8.1l4.323,4.092L90.399,75.1L10.718,91.898z"
         id="path4582"
         style="fill:#ffffff;fill-opacity:1" /></g></g></svg>