<?xml version="1.0" encoding="UTF-8" standalone="no"?>
<!-- Generator: Adobe Illustrator 14.0.0, SVG Export Plug-In . SVG Version: 6.00 Build 43363)  -->

<svg
   xmlns:dc="http://purl.org/dc/elements/1.1/"
   xmlns:cc="http://creativecommons.org/ns#"
   xmlns:rdf="http://www.w3.org/1999/02/22-rdf-syntax-ns#"
   xmlns:svg="http://www.w3.org/2000/svg"
   xmlns="http://www.w3.org/2000/svg"
   xmlns:sodipodi="http://sodipodi.sourceforge.net/DTD/sodipodi-0.dtd"
   xmlns:inkscape="http://www.inkscape.org/namespaces/inkscape"
   version="1.0"
   id="Layer_1"
   x="0px"
   y="0px"
   width="32"
   height="32"
   viewBox="0 0 32 32"
   enable-background="new 0 0 90.321 100"
   xml:space="preserve"
   inkscape:version="0.91 r13725"
   sodipodi:docname="display_screen.svg"
   inkscape:export-filename="C:\Users\eadrpav\Documents\Code\panieravide.github.io\openlevelup\img\laboratory_computer.png"
   inkscape:export-xdpi="67.5"
   inkscape:export-ydpi="67.5"><metadata
     id="metadata9"><rdf:RDF><cc:Work
         rdf:about=""><dc:format>image/svg+xml</dc:format><dc:type
           rdf:resource="http://purl.org/dc/dcmitype/StillImage" /><dc:title></dc:title></cc:Work></rdf:RDF></metadata><defs
     id="defs7" /><sodipodi:namedview
     pagecolor="#ffffff"
     bordercolor="#666666"
     borderopacity="1"
     objecttolerance="10"
     gridtolerance="10"
     guidetolerance="10"
     inkscape:pageopacity="0"
     inkscape:pageshadow="2"
     inkscape:window-width="1600"
     inkscape:window-height="843"
     id="namedview5"
     showgrid="false"
     inkscape:zoom="13.350176"
     inkscape:cx="10.875367"
     inkscape:cy="16.273573"
     inkscape:window-x="1680"
     inkscape:window-y="547"
     inkscape:window-maximized="1"
     inkscape:current-layer="Layer_1" /><path
     d="m 27.673508,31 0,-2.430511 -7.673508,0 0,-4.593925 11.409145,0 C 31.735369,23.975564 32,23.706668 32,23.375496 L 32,1.6007883 C 32,1.2688968 31.735369,1 31.409145,1 L 0.59085517,1 C 0.2646315,1 0,1.2688968 0,1.6007883 L 0,23.375496 c 0,0.331172 0.2646315,0.600068 0.59085517,0.600068 l 11.40914483,0 0,4.593925 -7.5596338,0 0,2.430511 z m -25.51062,-9.895011 0,-17.5280016 c 0,-0.2861755 0.2277478,-0.5183554 0.5074193,-0.5183554 l 26.5444377,0 c 0.279671,0 0.507419,0.2325399 0.507419,0.5183554 l 0,17.5280016 c 0,0.286536 -0.227748,0.517636 -0.507419,0.517636 l -26.5444377,0 c -0.2796715,3.6e-4 -0.5074193,-0.2311 -0.5074193,-0.517636 z"
     id="path3"
     style="clip-rule:evenodd;fill:#ffffff;fill-opacity:1;fill-rule:evenodd;stroke:none;stroke-opacity:1"
     inkscape:connector-curvature="0"
     sodipodi:nodetypes="ccccsssssssscccccssssssscs" /><g
     transform="matrix(0.81776314,0,0,0.81776314,2.4901086,2.8853402)"
     style="font-style:normal;font-weight:normal;font-size:13.75px;line-height:81.00000024%;font-family:Sans;letter-spacing:0px;word-spacing:0px;fill:#ffffff;fill-opacity:1;stroke:none;stroke-width:1px;stroke-linecap:butt;stroke-linejoin:miter;stroke-opacity:1"
     id="flowRoot4152"><path
       d="m 8.6931152,6.4443385 0,1.2359619 q 0,1.0986328 -0.637207,2.1038818 -0.6317139,1.0052488 -1.8127441,1.0052488 -0.6811524,0 -1.1535645,-0.296631 Q 4.6226807,10.190676 4.199707,9.3886744 3.7822266,8.5811793 3.7822266,7.6803004 l 0,-1.2359619 q 0,-1.0931397 0.6317138,-2.0983887 0.6317139,-1.0107422 1.8127442,-1.0107422 0.6756591,0 1.1425781,0.2966309 0.4724121,0.2966308 0.8953857,1.104126 0.4284668,0.8020019 0.4284668,1.708374 z m -1.1315918,0 q 0,-0.9173584 -0.5108642,-1.6040039 -0.2911377,-0.3790283 -0.8184815,-0.3790283 -0.5108642,0 -0.8349609,0.4174804 -0.4888916,0.6317139 -0.4888916,1.5655518 l 0,1.2359619 q 0,0.9228516 0.5163574,1.6040039 0.2856445,0.3790283 0.8184815,0.3790283 0.5053711,0 0.8294677,-0.4174804 0.4888916,-0.6317139 0.4888916,-1.5655518 l 0,-1.2359619 z"
       style="font-style:normal;font-variant:normal;font-weight:bold;font-stretch:normal;font-size:11.25px;line-height:81.00000024%;font-family:'Courier New';-inkscape-font-specification:'Courier New Bold';fill:#ffffff;fill-opacity:1"
       id="path4163" /><path
       d="m 13.554565,3.3352076 0,6.1633301 1.137085,0 q 0.406495,0 0.576783,0.1593018 0.175781,0.1538086 0.175781,0.4064945 0,0.247192 -0.175781,0.406494 -0.170288,0.153808 -0.576783,0.153808 l -3.400268,0 q -0.406494,0 -0.582276,-0.153808 -0.170288,-0.159302 -0.170288,-0.411988 0,-0.2471919 0.170288,-0.4010005 0.175782,-0.1593018 0.582276,-0.1593018 l 1.137085,0 0,-4.6966553 -1.005249,0.2636719 q -0.241699,0.065918 -0.362549,0.065918 -0.214233,0 -0.373535,-0.1702881 -0.153809,-0.1702881 -0.153809,-0.4174805 0,-0.2252197 0.115357,-0.3515625 0.115356,-0.1318359 0.483398,-0.2307129 l 2.422485,-0.6262207 z"
       style="font-style:normal;font-variant:normal;font-weight:bold;font-stretch:normal;font-size:11.25px;line-height:81.00000024%;font-family:'Courier New';-inkscape-font-specification:'Courier New Bold';fill:#ffffff;fill-opacity:1"
       id="path4165" /><path
       d="m 22.184326,6.4443385 0,1.2359619 q 0,1.0986328 -0.637207,2.1038818 -0.631714,1.0052488 -1.812744,1.0052488 -0.681152,0 -1.153564,-0.296631 -0.466919,-0.302124 -0.889893,-1.1041256 -0.417481,-0.8074951 -0.417481,-1.708374 l 0,-1.2359619 q 0,-1.0931397 0.631714,-2.0983887 0.631714,-1.0107422 1.812745,-1.0107422 0.675659,0 1.142578,0.2966309 0.472412,0.2966308 0.895385,1.104126 0.428467,0.8020019 0.428467,1.708374 z m -1.131592,0 q 0,-0.9173584 -0.510864,-1.6040039 -0.291138,-0.3790283 -0.818481,-0.3790283 -0.510865,0 -0.834961,0.4174804 -0.488892,0.6317139 -0.488892,1.5655518 l 0,1.2359619 q 0,0.9228516 0.516358,1.6040039 0.285644,0.3790283 0.818481,0.3790283 0.505371,0 0.829468,-0.4174804 0.488891,-0.6317139 0.488891,-1.5655518 l 0,-1.2359619 z"
       style="font-style:normal;font-variant:normal;font-weight:bold;font-stretch:normal;font-size:11.25px;line-height:81.00000024%;font-family:'Courier New';-inkscape-font-specification:'Courier New Bold';fill:#ffffff;fill-opacity:1"
       id="path4167" /><path
       d="m 27.045776,3.3352076 0,6.1633301 1.137085,0 q 0.406494,0 0.576783,0.1593018 0.175781,0.1538086 0.175781,0.4064945 0,0.247192 -0.175781,0.406494 -0.170289,0.153808 -0.576783,0.153808 l -3.400268,0 q -0.406494,0 -0.582276,-0.153808 -0.170288,-0.159302 -0.170288,-0.411988 0,-0.2471919 0.170288,-0.4010005 0.175782,-0.1593018 0.582276,-0.1593018 l 1.137085,0 0,-4.6966553 -1.005249,0.2636719 q -0.2417,0.065918 -0.362549,0.065918 -0.214234,0 -0.373535,-0.1702881 -0.153809,-0.1702881 -0.153809,-0.4174805 0,-0.2252197 0.115357,-0.3515625 0.115356,-0.1318359 0.483398,-0.2307129 l 2.422485,-0.6262207 z"
       style="font-style:normal;font-variant:normal;font-weight:bold;font-stretch:normal;font-size:11.25px;line-height:81.00000024%;font-family:'Courier New';-inkscape-font-specification:'Courier New Bold';fill:#ffffff;fill-opacity:1"
       id="path4169" /><path
       d="m 6.80896,12.447708 0,6.16333 1.1370849,0 q 0.4064942,0 0.5767822,0.159302 0.1757813,0.153808 0.1757813,0.406494 0,0.247192 -0.1757813,0.406494 -0.170288,0.153809 -0.5767822,0.153809 l -3.4002685,0 q -0.4064942,0 -0.5822754,-0.153809 -0.1702881,-0.159302 -0.1702881,-0.411987 0,-0.247193 0.1702881,-0.401001 0.1757812,-0.159302 0.5822754,-0.159302 l 1.1370849,0 0,-4.696655 -1.005249,0.263671 q -0.2416992,0.06592 -0.3625488,0.06592 -0.2142334,0 -0.3735352,-0.170288 -0.1538086,-0.170288 -0.1538086,-0.41748 0,-0.22522 0.1153565,-0.351563 0.1153564,-0.131836 0.4833984,-0.230712 L 6.80896,12.447708 Z"
       style="font-style:normal;font-variant:normal;font-weight:bold;font-stretch:normal;font-size:11.25px;line-height:81.00000024%;font-family:'Courier New';-inkscape-font-specification:'Courier New Bold';fill:#ffffff;fill-opacity:1"
       id="path4171" /><path
       d="m 15.438721,15.556839 0,1.235962 q 0,1.098632 -0.637207,2.103881 -0.631714,1.005249 -1.812744,1.005249 -0.681153,0 -1.153565,-0.29663 -0.466919,-0.302124 -0.889892,-1.104126 -0.417481,-0.807496 -0.417481,-1.708374 l 0,-1.235962 q 0,-1.09314 0.631714,-2.098389 0.631714,-1.010742 1.812744,-1.010742 0.675659,0 1.142578,0.296631 0.472412,0.296631 0.895386,1.104126 0.428467,0.802002 0.428467,1.708374 z m -1.131592,0 q 0,-0.917359 -0.510864,-1.604004 -0.291138,-0.379029 -0.818482,-0.379029 -0.510864,0 -0.834961,0.417481 -0.488891,0.631714 -0.488891,1.565552 l 0,1.235962 q 0,0.922851 0.516357,1.604003 0.285645,0.379029 0.818482,0.379029 0.505371,0 0.829467,-0.417481 0.488892,-0.631714 0.488892,-1.565551 l 0,-1.235962 z"
       style="font-style:normal;font-variant:normal;font-weight:bold;font-stretch:normal;font-size:11.25px;line-height:81.00000024%;font-family:'Courier New';-inkscape-font-specification:'Courier New Bold';fill:#ffffff;fill-opacity:1"
       id="path4173" /><path
       d="m 20.300171,12.447708 0,6.16333 1.137085,0 q 0.406494,0 0.576782,0.159302 0.175781,0.153808 0.175781,0.406494 0,0.247192 -0.175781,0.406494 -0.170288,0.153809 -0.576782,0.153809 l -3.400269,0 q -0.406494,0 -0.582275,-0.153809 -0.170288,-0.159302 -0.170288,-0.411987 0,-0.247193 0.170288,-0.401001 0.175781,-0.159302 0.582275,-0.159302 l 1.137085,0 0,-4.696655 -1.005249,0.263671 q -0.241699,0.06592 -0.362549,0.06592 -0.214233,0 -0.373535,-0.170288 -0.153808,-0.170288 -0.153808,-0.41748 0,-0.22522 0.115356,-0.351563 0.115357,-0.131836 0.483399,-0.230712 l 2.422485,-0.626221 z"
       style="font-style:normal;font-variant:normal;font-weight:bold;font-stretch:normal;font-size:11.25px;line-height:81.00000024%;font-family:'Courier New';-inkscape-font-specification:'Courier New Bold';fill:#ffffff;fill-opacity:1"
       id="path4175" /><path
       d="m 28.929932,15.556839 0,1.235962 q 0,1.098632 -0.637207,2.103881 -0.631714,1.005249 -1.812745,1.005249 -0.681152,0 -1.153564,-0.29663 -0.466919,-0.302124 -0.889893,-1.104126 -0.41748,-0.807496 -0.41748,-1.708374 l 0,-1.235962 q 0,-1.09314 0.631714,-2.098389 0.631714,-1.010742 1.812744,-1.010742 0.675659,0 1.142578,0.296631 0.472412,0.296631 0.895386,1.104126 0.428467,0.802002 0.428467,1.708374 z m -1.131592,0 q 0,-0.917359 -0.510864,-1.604004 -0.291138,-0.379029 -0.818482,-0.379029 -0.510864,0 -0.834961,0.417481 -0.488891,0.631714 -0.488891,1.565552 l 0,1.235962 q 0,0.922851 0.516357,1.604003 0.285645,0.379029 0.818481,0.379029 0.505372,0 0.829468,-0.417481 0.488892,-0.631714 0.488892,-1.565551 l 0,-1.235962 z"
       style="font-style:normal;font-variant:normal;font-weight:bold;font-stretch:normal;font-size:11.25px;line-height:81.00000024%;font-family:'Courier New';-inkscape-font-specification:'Courier New Bold';fill:#ffffff;fill-opacity:1"
       id="path4177" /></g></svg>