<?xml version="1.0" encoding="UTF-8" standalone="no"?>
<!-- Created with Inkscape (http://www.inkscape.org/) -->

<svg
   xmlns:dc="http://purl.org/dc/elements/1.1/"
   xmlns:cc="http://creativecommons.org/ns#"
   xmlns:rdf="http://www.w3.org/1999/02/22-rdf-syntax-ns#"
   xmlns:svg="http://www.w3.org/2000/svg"
   xmlns="http://www.w3.org/2000/svg"
   xmlns:sodipodi="http://sodipodi.sourceforge.net/DTD/sodipodi-0.dtd"
   xmlns:inkscape="http://www.inkscape.org/namespaces/inkscape"
   width="32"
   height="32"
   id="svg4160"
   version="1.1"
   inkscape:version="0.91 r13725"
   viewBox="0 0 32 32"
   sodipodi:docname="emergency_assembly_point.svg">
  <defs
     id="defs4162" />
  <sodipodi:namedview
     id="base"
     pagecolor="#ffffff"
     bordercolor="#666666"
     borderopacity="1.0"
     inkscape:pageopacity="0.0"
     inkscape:pageshadow="2"
     inkscape:zoom="11.197802"
     inkscape:cx="-0.74435751"
     inkscape:cy="16"
     inkscape:current-layer="layer1"
     showgrid="true"
     inkscape:grid-bbox="true"
     inkscape:document-units="px"
     inkscape:window-width="1600"
     inkscape:window-height="843"
     inkscape:window-x="1920"
     inkscape:window-y="611"
     inkscape:window-maximized="1" />
  <metadata
     id="metadata4165">
    <rdf:RDF>
      <cc:Work
         rdf:about="">
        <dc:format>image/svg+xml</dc:format>
        <dc:type
           rdf:resource="http://purl.org/dc/dcmitype/StillImage" />
        <dc:title></dc:title>
      </cc:Work>
    </rdf:RDF>
  </metadata>
  <g
     id="layer1"
     inkscape:label="Layer 1"
     inkscape:groupmode="layer">
    <g
       style="fill:#009a3b;fill-opacity:1;fill-rule:evenodd"
       id="g9"
       transform="matrix(0.19975031,0,0,0.19975031,-1.7777778,-1.7777777)">
      <path
         d="m 44.9,117.94 0,-29.1 c 0,-2.52 2.2,-4.2 4.5,-4.2 l 27.3,0 c -0.1,3.44 2.3,5.86 4.2,8.4 l -6.9,0 c -5,0 -7.5,3.11 -7.5,8.7 l 0,16.2 -9.6,0 0,-21.9 -4.2,0 0,21.9 z m 25.8,9.9 0,-26.4 c 0,-3.03 2,-4.5 4.8,-4.5 l 27,0 c 3.3,0 4.8,2.79 4.8,4.2 l 0,26.7 -5.7,0 0,-21.3 -4.2,0 0,21.3 -16.5,0 0,-21.3 -4.5,0 0,21.3 z m 62.4,-9.9 0,-27.9 c 0,-3.05 -1.6,-5.4 -4.5,-5.4 l -27.3,0 c 0,3.31 -2.3,5.9 -4.2,8.4 l 6.6,0 c 4.7,0 7.8,4.08 7.8,8.7 l 0,16.2 9.6,0 0,-21.9 4.2,0 0,21.9 z"
         id="path11"
         inkscape:connector-curvature="0"
         style="fill:#009a3b;fill-opacity:1" />
      <path
         d="m 97.86,58.49 a 8.855,8.855 0 0 1 -17.71,0 8.855,8.855 0 1 1 17.71,0 z"
         id="path13"
         inkscape:connector-curvature="0"
         style="fill:#009a3b;fill-opacity:1" />
      <path
         d="m 122.54,71.069 a 8.8551,8.8551 0 0 1 -17.71,0 8.8551,8.8551 0 1 1 17.71,0 z"
         id="path15"
         inkscape:connector-curvature="0"
         style="fill:#009a3b;fill-opacity:1" />
      <path
         d="m 72.283,70.693 a 8.8551,8.8551 0 0 1 -17.71,0 8.8551,8.8551 0 1 1 17.71,0 z"
         id="path17"
         inkscape:connector-curvature="0"
         style="fill:#009a3b;fill-opacity:1" />
      <path
         d="m 97.702,83.413 a 8.8551,8.8551 0 0 1 -17.71,0 8.8551,8.8551 0 1 1 17.71,0 z"
         id="path19"
         inkscape:connector-curvature="0"
         style="fill:#009a3b;fill-opacity:1" />
      <path
         d="m 14.761,8.9 -5.861,5.596 26.375,26.503 -18.561,0 7.816,7.951 24.42,0 0,-23.853 -7.814,-7.951 0,18.258 L 14.761,8.9"
         id="path21"
         inkscape:connector-curvature="0"
         style="fill:#009a3b;fill-opacity:1" />
      <path
         d="m 163.24,8.902 5.86,5.59 -26.38,26.507 18.56,0 -7.81,7.951 -24.42,0 0,-23.858 7.81,-7.95 0,18.26 26.38,-26.5"
         id="path23"
         inkscape:connector-curvature="0"
         style="fill:#009a3b;fill-opacity:1" />
      <path
         d="M 14.761,169.1 8.9,163.5 35.275,137 l -18.561,0 7.816,-7.95 24.42,0 0,23.85 -7.814,7.95 0,-18.26 -26.375,26.51"
         id="path25"
         inkscape:connector-curvature="0"
         style="fill:#009a3b;fill-opacity:1" />
      <path
         d="m 163.24,169.1 5.86,-5.59 -26.38,-26.51 18.56,0 -7.81,-7.95 -24.42,0 0,23.86 7.81,7.95 0,-18.26 26.38,26.5"
         id="path27"
         inkscape:connector-curvature="0"
         style="fill:#009a3b;fill-opacity:1" />
    </g>
  </g>
</svg>
