<?xml version="1.0" encoding="UTF-8" standalone="no"?>
<!-- Created with Inkscape (http://www.inkscape.org/) -->

<svg
   xmlns:dc="http://purl.org/dc/elements/1.1/"
   xmlns:cc="http://creativecommons.org/ns#"
   xmlns:rdf="http://www.w3.org/1999/02/22-rdf-syntax-ns#"
   xmlns:svg="http://www.w3.org/2000/svg"
   xmlns="http://www.w3.org/2000/svg"
   xmlns:sodipodi="http://sodipodi.sourceforge.net/DTD/sodipodi-0.dtd"
   xmlns:inkscape="http://www.inkscape.org/namespaces/inkscape"
   width="32"
   height="32"
   viewBox="0 0 32 32.000001"
   id="svg4134"
   version="1.1"
   inkscape:version="0.91 r13725"
   sodipodi:docname="emergency_fire_hydrant.svg"
   inkscape:export-filename="/home/adrien/Documents/Programmation/Web/panieravide.github.io/openlevelup/img/emergency_fire_hydrant.png"
   inkscape:export-xdpi="67"
   inkscape:export-ydpi="67">
  <defs
     id="defs4136" />
  <sodipodi:namedview
     id="base"
     pagecolor="#ffffff"
     bordercolor="#666666"
     borderopacity="1.0"
     inkscape:pageopacity="0.0"
     inkscape:pageshadow="2"
     inkscape:zoom="11.2"
     inkscape:cx="-9.5267858"
     inkscape:cy="15.170201"
     inkscape:document-units="px"
     inkscape:current-layer="layer1"
     showgrid="false"
     units="px"
     inkscape:window-width="1366"
     inkscape:window-height="661"
     inkscape:window-x="0"
     inkscape:window-y="0"
     inkscape:window-maximized="1" />
  <metadata
     id="metadata4139">
    <rdf:RDF>
      <cc:Work
         rdf:about="">
        <dc:format>image/svg+xml</dc:format>
        <dc:type
           rdf:resource="http://purl.org/dc/dcmitype/StillImage" />
        <dc:title />
      </cc:Work>
    </rdf:RDF>
  </metadata>
  <g
     inkscape:label="Calque 1"
     inkscape:groupmode="layer"
     id="layer1"
     transform="translate(0,-1020.3622)">
    <path
       style="fill:#fa0032;fill-opacity:1"
       d="m 8.1301844,1052.261 c -0.1026498,-0.054 -0.2659159,-0.1728 -0.3628143,-0.2632 -0.549513,-0.513 -0.4442215,-1.4694 0.2106169,-1.913 0.2616964,-0.1772 0.3100296,-0.1868 1.0685609,-0.2105 l 0.794466,-0.025 -0.00139,-3.7277 c -0.00129,-3.4754 -0.00906,-3.7447 -0.1150255,-3.9777 -0.2755323,-0.6063 -0.7629787,-0.844 -1.730151,-0.844 l -0.5797221,0 0,-3.0878 0,-3.0878 0.7309908,-0.025 c 0.7861066,-0.026 0.9601728,-0.081 1.2855424,-0.4048 0.3924481,-0.3903 0.4068624,-0.482 0.4083684,-2.6 l 0.00139,-1.9223 6.1589861,0 6.158986,0 0.0014,1.9223 c 0.0015,2.118 0.01591,2.2097 0.408367,2.6 0.32537,0.3236 0.499436,0.3784 1.285543,0.4048 l 0.730991,0.025 0,3.0878 0,3.0878 -0.579723,0 c -0.967171,0 -1.454617,0.2377 -1.73015,0.844 -0.105971,0.233 -0.113754,0.5023 -0.115028,3.9787 l -0.0014,3.7287 0.762098,0.024 c 0.638158,0.02 0.805084,0.047 1.026427,0.1639 0.49953,0.2638 0.743499,0.8811 0.579256,1.4655 -0.09081,0.3232 -0.286946,0.5608 -0.603642,0.7314 -0.236479,0.1273 -0.290511,0.1282 -7.922203,0.1257 -6.8772979,0 -7.703698,-0.013 -7.8707376,-0.1012 z m 8.9896316,-8.6921 c 1.601775,-0.3792 2.930715,-1.6139 3.505499,-3.2569 0.179685,-0.5136 0.190195,-0.5955 0.190005,-1.4813 -1.86e-4,-0.8524 -0.01543,-0.9832 -0.167798,-1.4378 -0.278306,-0.8305 -0.616692,-1.3721 -1.249933,-2.0004 -0.664043,-0.6591 -1.235833,-1.0078 -2.060031,-1.2568 -0.479315,-0.1447 -0.671844,-0.169 -1.337558,-0.169 -0.665714,0 -0.858243,0.024 -1.337558,0.169 -0.824198,0.249 -1.395988,0.5977 -2.060031,1.2568 -0.633241,0.6283 -0.971627,1.1699 -1.249933,2.0004 -0.152366,0.4546 -0.167617,0.5854 -0.167798,1.4378 -1.87e-4,0.8858 0.01032,0.9677 0.190005,1.4813 0.862019,2.4641 3.286766,3.8387 5.745131,3.2569 z m -1.98357,-1.7711 c -1.677799,-0.4972 -2.623702,-2.3215 -2.058921,-3.9711 0.4321,-1.262 1.590347,-2.0904 2.922675,-2.0904 2.300593,0 3.782615,2.4125 2.75526,4.485 -0.646502,1.3043 -2.221789,1.9905 -3.619014,1.5765 z m -11.0001615,-0.6204 c -0.2576372,-0.1579 -0.3918448,-0.4253 -0.3918448,-0.7808 l 0,-0.2844 -0.6221199,0 -0.6221198,0 0,-1.8754 0,-1.8754 0.6221198,0 0.6221199,0 2.298e-4,-0.3282 c 2.738e-4,-0.3871 0.1537722,-0.682 0.429411,-0.8253 0.1439845,-0.075 0.398962,-0.097 1.122569,-0.097 l 0.9362695,0 0,3.0945 0,3.0943 -0.9487328,-2e-4 c -0.8312138,-2e-4 -0.9734035,-0.015 -1.1479017,-0.1223 z m 21.6311965,-2.9718 0,-3.0945 0.93627,0 c 0.723607,0 0.978584,0.022 1.122566,0.097 0.275639,0.1433 0.429137,0.4382 0.42941,0.8253 l 2.33e-4,0.3282 0.62212,0 0.62212,0 0,1.8754 0,1.8754 -0.62212,0 -0.62212,0 -2.49e-4,0.2969 c -2.48e-4,0.3543 -0.163327,0.6557 -0.42941,0.794 -0.143966,0.075 -0.398943,0.097 -1.12255,0.097 l -0.93627,0 0,-3.0943 z M 8.1301844,1028.881 c -0.8811287,-0.4667 -0.9655031,-1.6084 -0.1609548,-2.1778 0.2620517,-0.1856 0.2754587,-0.1879 1.2145769,-0.2097 l 0.9495995,-0.022 0.109587,-0.3529 c 0.303546,-0.9779 0.897602,-1.9484 1.651003,-2.6972 0.746852,-0.7425 1.566956,-1.2069 2.535152,-1.4357 l 0.326613,-0.077 0,-0.277 c 0,-0.511 0.306045,-1.0018 0.738587,-1.1847 0.26517,-0.112 0.760132,-0.114 1.021871,0 0.420706,0.1766 0.726852,0.6975 0.727673,1.2378 3.12e-4,0.2237 0.0068,0.2296 0.32696,0.3053 0.968196,0.2288 1.7883,0.6932 2.535152,1.4357 0.755271,0.7507 1.347342,1.7191 1.653031,2.7036 l 0.111613,0.3594 0.812948,3e-4 c 0.914339,4e-4 1.188161,0.056 1.473093,0.2965 0.681596,0.5763 0.526032,1.7071 -0.286873,2.0853 -0.237997,0.1107 -0.582509,0.1157 -7.900922,0.1146 -6.8556697,-10e-4 -7.6714977,-0.011 -7.8387096,-0.1 z"
       id="path4145"
       inkscape:connector-curvature="0" />
  </g>
</svg>
