<?xml version="1.0" encoding="UTF-8" standalone="no"?>
<!-- Created with Inkscape (http://www.inkscape.org/) -->

<svg
   xmlns:dc="http://purl.org/dc/elements/1.1/"
   xmlns:cc="http://creativecommons.org/ns#"
   xmlns:rdf="http://www.w3.org/1999/02/22-rdf-syntax-ns#"
   xmlns:svg="http://www.w3.org/2000/svg"
   xmlns="http://www.w3.org/2000/svg"
   xmlns:sodipodi="http://sodipodi.sourceforge.net/DTD/sodipodi-0.dtd"
   xmlns:inkscape="http://www.inkscape.org/namespaces/inkscape"
   width="32"
   height="32"
   viewBox="0 0 32 32.000001"
   id="svg4134"
   version="1.1"
   inkscape:version="0.91 r13725"
   sodipodi:docname="emergency_stop_button.svg"
   inkscape:export-filename="/home/adrien/Documents/Programmation/Web/panieravide.github.io/openlevelup/img/emergency_stop_button.png"
   inkscape:export-xdpi="67.5"
   inkscape:export-ydpi="67.5">
  <defs
     id="defs4136" />
  <sodipodi:namedview
     id="base"
     pagecolor="#ffffff"
     bordercolor="#666666"
     borderopacity="1.0"
     inkscape:pageopacity="0.0"
     inkscape:pageshadow="2"
     inkscape:zoom="15.839192"
     inkscape:cx="14.552517"
     inkscape:cy="17.0312"
     inkscape:document-units="px"
     inkscape:current-layer="layer1"
     showgrid="false"
     units="px"
     inkscape:window-width="1600"
     inkscape:window-height="843"
     inkscape:window-x="1680"
     inkscape:window-y="603"
     inkscape:window-maximized="1" />
  <metadata
     id="metadata4139">
    <rdf:RDF>
      <cc:Work
         rdf:about="">
        <dc:format>image/svg+xml</dc:format>
        <dc:type
           rdf:resource="http://purl.org/dc/dcmitype/StillImage" />
        <dc:title></dc:title>
      </cc:Work>
    </rdf:RDF>
  </metadata>
  <g
     inkscape:label="Calque 1"
     inkscape:groupmode="layer"
     id="layer1"
     transform="translate(0,-1020.3622)">
    <path
       style="opacity:1;fill:#fa0032;fill-opacity:1;fill-rule:nonzero;stroke:none;stroke-width:2;stroke-linecap:round;stroke-miterlimit:4;stroke-dasharray:none;stroke-dashoffset:0;stroke-opacity:1"
       d="m 9,1040.3622 5,0 0,4 -7,0 0,7.9997 18,0 0,-7.925 -7,-0.075 0,-3.9997 5,0 c 0,0 -0.991063,-6 -7,-6 -6.0089373,0 -7,6 -7,6 z"
       id="rect4713"
       inkscape:connector-curvature="0"
       sodipodi:nodetypes="ccccccsscczc" />
    <path
       style="opacity:1;fill:#fa0032;fill-opacity:1;fill-rule:nonzero;stroke:none;stroke-width:2;stroke-linecap:round;stroke-miterlimit:4;stroke-dasharray:none;stroke-dashoffset:0;stroke-opacity:1"
       d="m 30.829057,1020.4598 c -1.707585,0.2526 -3.509019,0.4867 -4.965495,1.476 -2.412827,0.1268 -4.822112,0.6317 -7.003414,1.7013 -0.613804,0.2499 -1.628918,0.8126 -0.342262,0.6107 1.227721,-0.021 2.457751,-0.1767 3.684618,-0.088 0.846868,0.5326 -1.126839,0.6411 -1.548862,0.6444 -1.290124,0.2254 -2.571266,0.781 -3.770871,-0.1521 -1.142447,-0.1787 -1.539592,2.099 -3.010901,1.8957 -0.869673,0.3665 -1.640301,-1.1866 -2.020648,-0.9642 -0.26206,1.4173 1.030581,2.54 2.335959,2.7046 2.015714,0.4758 4.201044,0.3761 6.079028,1.3344 1.536274,0.9681 2.965314,2.2134 4.789216,2.6178 1.337746,0.2756 2.760823,0.1312 3.969682,-0.5289 0.998922,-0.4333 1.989083,-0.8866 2.974893,-1.3488 -0.02056,-3.2283 0.05177,-6.4592 -0.0562,-9.6854 -0.0737,-0.4192 -0.816021,-0.1143 -1.114739,-0.2177 z m -16.192124,4.004 c -0.807365,-0.025 -3.300557,0.3324 -1.611591,1.2651 0.755552,0.9258 2.91722,-0.4168 2.189735,-1.1716 -0.01659,-0.04 -0.819185,-0.065 -0.578144,-0.093 z m -3.745525,1.1262 c -1.4580214,0.289 -2.8343445,0.9262 -4.2689796,1.275 -1.2995867,0.067 -2.6284484,-0.023 -3.9019221,0.2205 0.1178704,0.6499 1.839618,0.1544 2.5694931,0.2661 1.9357897,8e-4 3.8069204,-0.5904 5.6106156,-1.2385 0.619096,-0.2343 -0.02527,-0.196 -0.0092,-0.5231 z m 0.204057,1.0439 c -1.2659413,0.441 -2.5211434,0.94 -3.7938066,1.3448 -0.7930749,0.016 -1.5861498,0.032 -2.3792247,0.049 -0.4124848,0.8617 -1.3073413,1.5212 -2.3010869,1.2452 -0.6354402,-0.2691 -1.3030176,-0.4998 -0.7460686,0.4666 0.9262507,1.3076 2.7648204,1.1583 4.1745383,1.0188 1.1268023,-0.014 2.2476583,0.4142 3.4169138,0.206 2.6801117,-0.2476 5.3655487,-0.6351 8.0631397,-0.4015 1.120415,-0.019 2.382697,0.2397 3.42074,0.1229 -1.898254,-1.1897 -4.174266,-1.5026 -6.36914,-1.6554 -1.346242,-0.065 -2.283127,-1.0711 -3.118939,-2.0073 -0.122356,-0.1296 -0.244711,-0.2591 -0.367066,-0.3887 z m -9.3770882,0.4727 c -0.407817,-0.3246 -1.99077466,0.9525 -0.6491647,0.8753 0.4488639,0.2623 1.1463896,-0.5629 0.6491647,-0.8753 z m 1.1200771,0.7746 c -0.9618235,-0.108 -1.5068259,0.6936 -0.3051906,0.993 0.653818,0.6795 2.4894305,-0.9699 0.9007828,-0.706 -0.2013109,-0.017 -0.5810358,0.01 -0.5955922,-0.287 z m -2.3496416,0.3682 c -1.42753936,0.3948 0.5050716,2.767 0.9698348,2.0172 -0.52765775,-0.5466 -0.1584499,-1.8567 -0.9698348,-2.0172 z"
       id="rect4713-4"
       inkscape:connector-curvature="0" />
  </g>
</svg>
