<?xml version="1.0" encoding="UTF-8" standalone="no"?>
<!-- Created with Inkscape (http://www.inkscape.org/) -->

<svg
   xmlns:dc="http://purl.org/dc/elements/1.1/"
   xmlns:cc="http://creativecommons.org/ns#"
   xmlns:rdf="http://www.w3.org/1999/02/22-rdf-syntax-ns#"
   xmlns:svg="http://www.w3.org/2000/svg"
   xmlns="http://www.w3.org/2000/svg"
   xmlns:sodipodi="http://sodipodi.sourceforge.net/DTD/sodipodi-0.dtd"
   xmlns:inkscape="http://www.inkscape.org/namespaces/inkscape"
   width="32"
   height="32"
   id="svg5294"
   sodipodi:version="0.32"
   inkscape:version="0.91 r13725"
   version="1.0"
   sodipodi:docname="visually_impaired.svg"
   inkscape:output_extension="org.inkscape.output.svg.inkscape">
  <defs
     id="defs5296">
    <inkscape:perspective
       sodipodi:type="inkscape:persp3d"
       inkscape:vp_x="0 : 526.18109 : 1"
       inkscape:vp_y="0 : 1000 : 0"
       inkscape:vp_z="744.09448 : 526.18109 : 1"
       inkscape:persp3d-origin="372.04724 : 350.78739 : 1"
       id="perspective5302" />
  </defs>
  <sodipodi:namedview
     id="base"
     pagecolor="#ffffff"
     bordercolor="#666666"
     borderopacity="1.0"
     gridtolerance="10000"
     guidetolerance="10"
     objecttolerance="10"
     inkscape:pageopacity="0.0"
     inkscape:pageshadow="2"
     inkscape:zoom="15.839192"
     inkscape:cx="13.899043"
     inkscape:cy="18.041783"
     inkscape:document-units="px"
     inkscape:current-layer="layer1"
     showgrid="false"
     inkscape:window-width="1600"
     inkscape:window-height="843"
     inkscape:window-x="1920"
     inkscape:window-y="611"
     inkscape:window-maximized="1" />
  <metadata
     id="metadata5299">
    <rdf:RDF>
      <cc:Work
         rdf:about="">
        <dc:format>image/svg+xml</dc:format>
        <dc:type
           rdf:resource="http://purl.org/dc/dcmitype/StillImage" />
        <dc:title></dc:title>
      </cc:Work>
    </rdf:RDF>
  </metadata>
  <g
     inkscape:label="Layer 1"
     inkscape:groupmode="layer"
     id="layer1"
     transform="translate(0,-224)">
    <g
       id="g7750"
       transform="matrix(5.0575665,0,0,-5.0682704,10.764349,229.19282)"
       style="fill:#000000;fill-opacity:1">
      <path
         d="M 0,0 C 0.283,-0.023 0.529,0.188 0.553,0.471 0.574,0.754 0.363,1 0.08,1.023 -0.201,1.045 -0.449,0.834 -0.471,0.551 -0.494,0.27 -0.283,0.021 0,0"
         style="fill:#000000;fill-opacity:1;fill-rule:nonzero;stroke:none"
         id="path7752"
         inkscape:connector-curvature="0" />
    </g>
    <g
       id="g7754"
       transform="matrix(5.0575665,0,0,-5.0682704,10.535149,230.41001)"
       style="fill:#000000;fill-opacity:1">
      <path
         d="m -0.22441664,0.00975725 c 0.102,0.07 0.22500000485,0.117 0.361,0.105 0.176,-0.013 0.321,-0.123 0.409,-0.255 L 1.7695834,-1.6542428 c 0.061,-0.047 0.098,-0.121 0.09,-0.203 -0.01,-0.127 -0.121,-0.223 -0.248,-0.211 -0.039,0.002 -0.07,0.017 -0.106,0.033 L 0.48258336,-0.87561239 0.475,-2.084 1.3129819,-4.5895145 c -0.002,-0.03 0.002,-0.047 0,-0.071 -0.014,-0.193 -0.182,-0.334 -0.37299997,-0.32 -0.158,0.014 -0.276,0.131 -0.313,0.275 L 0.016,-2.658 c -0.15305843,-0.7345199 -0.36848081,-1.4427325 -0.55195295,-2.172029 -0.07,-0.109 -0.189,-0.18 -0.324,-0.168 -0.19300005,0.014 -0.33600005,0.182 -0.32000005,0.373 0.004,0.055 0.027,0.111 0.047,0.15 l 0.5567138,2.3638133 0.0298226,1.23197295 -0.21364132,-0.46663045 -0.191,-0.869 c -0.025,-0.111 -0.12700008,-0.203 -0.24600008,-0.193 -0.129,0.01 -0.223,0.121 -0.213,0.25 0,0.01 0.002,0.019 0.004,0.031 l 0.226,1.014 c 0.014,0.043 0.35023184,0.63816297 0.38323184,0.66716297 z"
         style="fill:#000000;fill-opacity:1;fill-rule:nonzero;stroke:none"
         id="path7756"
         inkscape:connector-curvature="0"
         sodipodi:nodetypes="cccccccccccccccccccccccccccc" />
    </g>
    <path
       style="color:#000000;font-style:normal;font-variant:normal;font-weight:normal;font-stretch:normal;font-size:medium;line-height:normal;font-family:sans-serif;text-indent:0;text-align:start;text-decoration:none;text-decoration-line:none;text-decoration-style:solid;text-decoration-color:#000000;letter-spacing:normal;word-spacing:normal;text-transform:none;direction:ltr;block-progression:tb;writing-mode:lr-tb;baseline-shift:baseline;text-anchor:start;white-space:normal;clip-rule:nonzero;display:inline;overflow:visible;visibility:visible;opacity:1;isolation:auto;mix-blend-mode:normal;color-interpolation:sRGB;color-interpolation-filters:linearRGB;solid-color:#000000;solid-opacity:1;fill:#000000;fill-opacity:1;fill-rule:evenodd;stroke:#ffffff;stroke-width:0.19561507;stroke-linecap:round;stroke-linejoin:miter;stroke-miterlimit:4;stroke-dasharray:none;stroke-dashoffset:0;stroke-opacity:1;color-rendering:auto;image-rendering:auto;shape-rendering:auto;text-rendering:auto;enable-background:accumulate"
       d="m 18.908688,239.52341 a 0.32245507,0.32313752 0 0 0 -0.264488,0.4884 l 8.371621,14.53133 a 0.8354957,0.83726395 0 0 0 0.0092,1.05789 0.8354957,0.83726395 0 0 0 1.175498,0.109 l 0.0046,-0.003 a 0.8354957,0.83726395 0 0 0 0.102665,-1.17836 0.8354957,0.83726395 0 0 0 -0.725528,-0.29526 l -8.37963,-14.54433 a 0.32245507,0.32313752 0 0 0 -0.293876,-0.16522 z"
       id="path4222"
       inkscape:connector-curvature="0" />
  </g>
</svg>
