<?xml version="1.0" encoding="UTF-8" standalone="no"?>
<!-- Created with Inkscape (http://www.inkscape.org/) -->

<svg
   xmlns:dc="http://purl.org/dc/elements/1.1/"
   xmlns:cc="http://creativecommons.org/ns#"
   xmlns:rdf="http://www.w3.org/1999/02/22-rdf-syntax-ns#"
   xmlns:svg="http://www.w3.org/2000/svg"
   xmlns="http://www.w3.org/2000/svg"
   xmlns:sodipodi="http://sodipodi.sourceforge.net/DTD/sodipodi-0.dtd"
   xmlns:inkscape="http://www.inkscape.org/namespaces/inkscape"
   version="1.0"
   width="32"
   height="32"
   id="svgServizio"
   sodipodi:version="0.32"
   inkscape:version="0.91 r13725"
   sodipodi:docname="icon_wheelchair.svg">
  <metadata
     id="metadataServizio">
    <rdf:RDF>
      <cc:Work
         rdf:about="">
        <dc:format>image/svg+xml</dc:format>
        <dc:type
           rdf:resource="http://purl.org/dc/dcmitype/StillImage" />
        <cc:license
           rdf:resource="http://web.resource.org/cc/PublicDomain" />
        <dc:title>Simbolo di accessibilità</dc:title>
        <dc:date>2006-11-15</dc:date>
        <dc:creator>
          <cc:Agent>
            <dc:title>Raffaello Di Napoli</dc:title>
          </cc:Agent>
        </dc:creator>
        <dc:rights>
          <cc:Agent>
            <dc:title>Raffaello Di Napoli</dc:title>
          </cc:Agent>
        </dc:rights>
        <dc:publisher>
          <cc:Agent>
            <dc:title>Raffaello Di Napoli</dc:title>
          </cc:Agent>
        </dc:publisher>
        <dc:language>it-IT</dc:language>
        <dc:subject>
          <rdf:Bag>
            <rdf:li>accessibile</rdf:li>
          </rdf:Bag>
        </dc:subject>
        <dc:description>Indicazione di accessibilità</dc:description>
      </cc:Work>
      <cc:License
         rdf:about="http://web.resource.org/cc/PublicDomain">
        <cc:permits
           rdf:resource="http://web.resource.org/cc/Reproduction" />
        <cc:permits
           rdf:resource="http://web.resource.org/cc/Distribution" />
        <cc:permits
           rdf:resource="http://web.resource.org/cc/DerivativeWorks" />
      </cc:License>
    </rdf:RDF>
  </metadata>
  <sodipodi:namedview
     inkscape:window-height="977"
     inkscape:window-width="1280"
     inkscape:pageshadow="2"
     inkscape:pageopacity="0.0"
     guidetolerance="10.0"
     gridtolerance="10.0"
     objecttolerance="10.0"
     borderopacity="1.0"
     bordercolor="#666666"
     pagecolor="#ffffff"
     id="base"
     inkscape:zoom="5.6568542"
     inkscape:cx="1.6999726"
     inkscape:cy="31.874453"
     inkscape:window-x="0"
     inkscape:window-y="0"
     inkscape:current-layer="svgServizio"
     width="400px"
     height="400px"
     inkscape:object-points="false"
     showgrid="false"
     inkscape:window-maximized="0" />
  <defs
     id="defsServizio" />
  <path
     id="pathHandicappato"
     style="fill:#ffffff;fill-opacity:1;fill-rule:evenodd"
     d="M 11.430464,5.7218543 C 12.913907,5.5099338 14.07947,4.2384106 14.07947,2.8609272 14.07947,1.2715232 12.807947,0 11.218543,0 9.6291391,0 8.3576159,1.2715232 8.3576159,2.8609272 c 0,0.423841 0.1059603,0.9536423 0.3178808,1.3774834 l 1.0596026,14.3046354 10.4900667,0 4.23841,10.066226 5.721854,-2.225166 -0.953642,-2.013245 -3.072848,1.059603 -4.23841,-9.536424 -9.748345,0 -0.10596,-1.801325 7.099338,0 0,-2.649006 -7.417219,0 -0.31788,-5.7218547 0,0.3178808 0,-0.3178808 z M 22.02649,26.278146 C 20.225166,29.774834 16.516556,32 12.596026,32 6.7682119,32 2,27.337748 2,21.509934 2,17.377483 4.5430464,13.668874 8.2516556,11.97351 l 0.2119206,3.072848 c -2.2251656,1.377483 -3.602649,3.920529 -3.602649,6.463576 0,4.23841 3.4966887,7.629139 7.7350988,7.629139 3.81457,0 7.099338,-2.966888 7.523179,-6.781457 l 1.907285,3.92053 0,0 0,0 0,0 z"
     inkscape:connector-curvature="0" />
</svg>
