<?xml version="1.0" encoding="UTF-8" standalone="no"?>
<!-- Generator: Adobe Illustrator 16.0.0, SVG Export Plug-In . SVG Version: 6.00 Build 0)  -->

<svg
   xmlns:i="&amp;#38;ns_ai;"
   xmlns:dc="http://purl.org/dc/elements/1.1/"
   xmlns:cc="http://creativecommons.org/ns#"
   xmlns:rdf="http://www.w3.org/1999/02/22-rdf-syntax-ns#"
   xmlns:svg="http://www.w3.org/2000/svg"
   xmlns="http://www.w3.org/2000/svg"
   xmlns:sodipodi="http://sodipodi.sourceforge.net/DTD/sodipodi-0.dtd"
   xmlns:inkscape="http://www.inkscape.org/namespaces/inkscape"
   version="1.1"
   id="Layer_1"
   x="0px"
   y="0px"
   width="136.369"
   height="109.097"
   viewBox="0 0 136.36901 109.097"
   enable-background="new 0 0 149.189 132.243"
   xml:space="preserve"
   inkscape:version="0.91 r13725"
   sodipodi:docname="picture.svg"><metadata
     id="metadata15"><rdf:RDF><cc:Work
         rdf:about=""><dc:format>image/svg+xml</dc:format><dc:type
           rdf:resource="http://purl.org/dc/dcmitype/StillImage" /><dc:title /></cc:Work></rdf:RDF></metadata><defs
     id="defs13" /><sodipodi:namedview
     pagecolor="#ffffff"
     bordercolor="#666666"
     borderopacity="1"
     objecttolerance="10"
     gridtolerance="10"
     guidetolerance="10"
     inkscape:pageopacity="0"
     inkscape:pageshadow="2"
     inkscape:window-width="1680"
     inkscape:window-height="988"
     id="namedview11"
     showgrid="false"
     fit-margin-top="0"
     fit-margin-left="0"
     fit-margin-right="0"
     fit-margin-bottom="0"
     inkscape:zoom="3.5691871"
     inkscape:cx="46.015842"
     inkscape:cy="66.558655"
     inkscape:window-x="-8"
     inkscape:window-y="-8"
     inkscape:window-maximized="1"
     inkscape:current-layer="Layer_1" /><g
     id="g7"
     style="fill:#ffffff;fill-opacity:1"
     transform="translate(-6.84,-8.235)"><path
       d="m 143.209,105.968 c 0,6.25 -5.113,11.364 -11.363,11.364 l -113.643,0 c -6.25,0 -11.363,-5.113 -11.363,-11.364 l 0,-86.37 c 0,-6.25 5.113,-11.363 11.363,-11.363 l 113.643,0 c 6.25,0 11.363,5.113 11.363,11.363 l 0,86.37 z M 18.203,17.326 c -1.207,0 -2.271,1.068 -2.271,2.271 l 0,86.37 c 0,1.207 1.065,2.271 2.271,2.271 l 113.643,0 c 1.203,0 2.274,-1.064 2.274,-2.271 l 0,-86.37 c 0,-1.203 -1.071,-2.271 -2.274,-2.271 l -113.643,0 z m 20.458,36.365 c -7.529,0 -13.641,-6.108 -13.641,-13.635 0,-7.527 6.112,-13.638 13.641,-13.638 7.526,0 13.632,6.111 13.632,13.638 0,7.527 -6.105,13.635 -13.632,13.635 z m 86.364,45.459 -100.005,0 0,-13.64 22.73,-22.724 11.363,11.36 36.365,-36.361 29.547,29.547 0,31.818 z"
       id="path9"
       style="fill:#ffffff;fill-opacity:1"
       inkscape:connector-curvature="0" /></g><i:pgf
     id="adobe_illustrator_pgf"><![CDATA[]]></i:pgf></svg>