<?xml version="1.0" encoding="UTF-8" standalone="no"?>
<!-- Created with Inkscape (http://www.inkscape.org/) -->

<svg
   xmlns:dc="http://purl.org/dc/elements/1.1/"
   xmlns:cc="http://creativecommons.org/ns#"
   xmlns:rdf="http://www.w3.org/1999/02/22-rdf-syntax-ns#"
   xmlns:svg="http://www.w3.org/2000/svg"
   xmlns="http://www.w3.org/2000/svg"
   xmlns:sodipodi="http://sodipodi.sourceforge.net/DTD/sodipodi-0.dtd"
   xmlns:inkscape="http://www.inkscape.org/namespaces/inkscape"
   width="32"
   height="32"
   viewBox="0 0 32 32.000001"
   id="svg2"
   version="1.1"
   inkscape:version="0.91 r13725"
   sodipodi:docname="icon_osm.svg">
  <defs
     id="defs4" />
  <sodipodi:namedview
     id="base"
     pagecolor="#ffffff"
     bordercolor="#666666"
     borderopacity="1.0"
     inkscape:pageopacity="0.0"
     inkscape:pageshadow="2"
     inkscape:zoom="15.839192"
     inkscape:cx="8.7385493"
     inkscape:cy="14.953644"
     inkscape:document-units="px"
     inkscape:current-layer="g4139"
     showgrid="false"
     fit-margin-top="0"
     fit-margin-left="0"
     fit-margin-right="0"
     fit-margin-bottom="0"
     inkscape:window-width="1920"
     inkscape:window-height="1056"
     inkscape:window-x="0"
     inkscape:window-y="0"
     inkscape:window-maximized="1"
     units="px" />
  <metadata
     id="metadata7">
    <rdf:RDF>
      <cc:Work
         rdf:about="">
        <dc:format>image/svg+xml</dc:format>
        <dc:type
           rdf:resource="http://purl.org/dc/dcmitype/StillImage" />
        <dc:title></dc:title>
      </cc:Work>
    </rdf:RDF>
  </metadata>
  <g
     inkscape:label="Calque 1"
     inkscape:groupmode="layer"
     id="layer1"
     transform="translate(-81.736154,-501.95824)">
    <g
       id="g4139"
       style="fill:#757575;fill-opacity:1">
      <g
         id="g4138"
         transform="matrix(0.10673406,0,0,0.10702678,73.012123,475.46041)">
        <path
           style="fill:#757575;fill-opacity:1"
           d="m 139.13587,532.74339 c -0.95318,-0.95318 5.69768,-8.1395 30.87434,-33.36008 l 32.08922,-32.14519 -0.70195,-7.12364 -0.70194,-7.12363 7.80102,-8.01629 c 4.29056,-4.40896 8.39361,-8.01629 9.11789,-8.01629 0.72428,0 4.3131,2.0513 7.97515,4.55844 8.21255,5.62253 13.70262,8.41865 23.2823,11.85781 l 7.42115,2.66423 4.07885,-3.96776 4.07885,-3.96775 5.5,1.03584 c 8.04326,1.51482 28.02815,0.40341 37.09975,-2.06321 9.85417,-2.67941 19.55614,-7.07045 27.94654,-12.64838 3.69747,-2.45807 7.16818,-4.46922 7.7127,-4.46922 0.54451,0 2.65242,4.43191 4.68425,9.84869 l 3.69424,9.84869 -10.99456,28.90131 c -6.04701,15.89572 -11.27945,29.63242 -11.62764,30.526 -0.3482,0.89357 -2.29408,2.34696 -4.32418,3.22974 -8.23373,3.58041 -56.48909,21.64557 -57.81928,21.64557 -0.78701,0 -14.58012,-5.00232 -30.65137,-11.11626 -16.07125,-6.11394 -30.12045,-11.10248 -31.22045,-11.08564 -1.1,0.0168 -15.00225,5.01915 -30.89388,11.11625 -15.89164,6.09711 -29.86414,11.08565 -31.05,11.08565 -1.18587,0 -2.70281,-0.5467 -3.371,-1.21488 z M 88.200754,513.72121 c -3.78016,-1.44976 -5.25,-2.54446 -5.25,-3.91006 0,-1.04312 4.97843,-14.98148 11.06318,-30.97413 9.942886,-26.13309 10.955566,-29.38621 10.000546,-32.12578 -0.58444,-1.67652 -5.836146,-15.55769 -11.670466,-30.84704 l -10.60786,-27.79881 11.6073,-30.51714 c 6.38402,-16.78442 11.607296,-30.76149 11.607296,-31.06015 0,-0.29866 -4.95,-13.52671 -10.999996,-29.39565 -10.41138,-27.3087 -11.70071,-31.13418 -10.4934,-31.13418 0.27863,0 13.49028,4.95 29.359216,11 15.86894,6.05 29.54423,11 30.38954,11 0.84531,0 14.51652,-4.95 30.38047,-11 15.86395,-6.05 29.86604,-11 31.11575,-11 2.28622,0 26.03024,8.62134 27.57842,10.01359 0.4565,0.41052 -1.83532,2.79732 -5.09293,5.30399 -8.46048,6.51019 -19.03616,18.23151 -24.03329,26.63676 -11.19853,18.8361 -15.21672,38.31177 -12.68689,61.49168 l 0.75809,6.94601 -3.84424,3.22744 -3.84424,3.22743 1.75821,5.57771 c 2.45733,7.79554 9.82424,22.07691 14.62184,28.34568 2.2184,2.89865 4.03345,5.83421 4.03345,6.52346 0,0.68924 -3.54158,4.77398 -7.87018,9.07719 l -7.87019,7.82403 -7.37981,-0.66165 -7.37982,-0.66165 -38.49513,38.56417 c -21.17232,21.21029 -39.172316,38.51386 -39.999996,38.45237 -0.82768,-0.0615 -3.86737,-1.01785 -6.75487,-2.12527 z M 274.11114,431.82518 c -8.96347,-1.01458 -22.24784,-5.47482 -29.78884,-10.00165 -8.27886,-4.96976 -19.08931,-15.38989 -24.40704,-23.52582 -15.29596,-23.40224 -16.81609,-50.74382 -4.2443,-76.33944 3.98053,-8.10418 6.07029,-10.90417 14.22295,-19.05684 8.2103,-8.2103 10.89537,-10.20674 19.05684,-14.16936 12.82966,-6.22917 20.86862,-8.09242 34.5,-7.99632 29.97448,0.21131 55.09687,15.99744 67.98953,42.72252 5.36969,11.13079 7.51047,20.53708 7.51047,33 0,29.59348 -15.76307,54.84729 -42.5,68.08871 -12.96141,6.41912 -27.63884,8.94217 -42.33961,7.2782 z"
           id="path4215"
           inkscape:connector-curvature="0" />
        <path
           sodipodi:nodetypes="csc"
           inkscape:connector-curvature="0"
           id="path4136"
           d="m 226.00042,278.03384 c 0,0 71.38745,-41.99529 128.23573,14.85299 34.80587,34.80587 32.49013,109.24171 -11.68112,140.92722"
           style="fill:none;fill-rule:evenodd;stroke:#757575;stroke-width:6.5999999;stroke-linecap:butt;stroke-linejoin:miter;stroke-miterlimit:4;stroke-dasharray:none;stroke-opacity:1" />
      </g>
    </g>
  </g>
</svg>
