<?xml version="1.0" encoding="UTF-8" standalone="no"?>
<!-- Generator: Adobe Illustrator 18.1.1, SVG Export Plug-In . SVG Version: 6.00 Build 0)  -->

<svg
   xmlns:dc="http://purl.org/dc/elements/1.1/"
   xmlns:cc="http://creativecommons.org/ns#"
   xmlns:rdf="http://www.w3.org/1999/02/22-rdf-syntax-ns#"
   xmlns:svg="http://www.w3.org/2000/svg"
   xmlns="http://www.w3.org/2000/svg"
   xmlns:sodipodi="http://sodipodi.sourceforge.net/DTD/sodipodi-0.dtd"
   xmlns:inkscape="http://www.inkscape.org/namespaces/inkscape"
   version="1.1"
   id="Layer_1"
   x="0px"
   y="0px"
   viewBox="0 0 32 32"
   enable-background="new 0 0 24 24"
   xml:space="preserve"
   inkscape:version="0.91 r13725"
   sodipodi:docname="icon_link.svg"
   width="32"
   height="32"><metadata
     id="metadata13"><rdf:RDF><cc:Work
         rdf:about=""><dc:format>image/svg+xml</dc:format><dc:type
           rdf:resource="http://purl.org/dc/dcmitype/StillImage" /><dc:title></dc:title></cc:Work></rdf:RDF></metadata><defs
     id="defs11" /><sodipodi:namedview
     pagecolor="#ffffff"
     bordercolor="#666666"
     borderopacity="1"
     objecttolerance="10"
     gridtolerance="10"
     guidetolerance="10"
     inkscape:pageopacity="0"
     inkscape:pageshadow="2"
     inkscape:window-width="1600"
     inkscape:window-height="843"
     id="namedview9"
     showgrid="false"
     inkscape:zoom="9.8333333"
     inkscape:cx="0.55932203"
     inkscape:cy="12"
     inkscape:window-x="1920"
     inkscape:window-y="611"
     inkscape:window-maximized="1"
     inkscape:current-layer="Layer_1" /><g
     id="g3"
     style="fill:#ffffff;fill-opacity:1"
     transform="matrix(2.0545746,0,0,2.0863509,-9.5024077,-7.5108634)"><path
       d="m 15.8,3.6 c -2.1,0 -3.6,1.9 -5.1,3.3 0.2,0 0.5,-0.1 0.8,-0.1 0.5,0 1,0.1 1.5,0.3 0.8,-0.8 1.6,-1.7 2.8,-1.7 0.6,0 1.3,0.3 1.8,0.7 1,1 1,2.6 0,3.6 L 15,12.3 c -0.4,0.4 -1.2,0.7 -1.8,0.7 -1.4,0 -2.1,-0.9 -2.6,-2 l -1.3,1.3 c 0.8,1.5 2,2.6 3.8,2.6 1.2,0 2.3,-0.5 3,-1.3 L 18.7,11 C 19.6,10.1 20.2,9 20.2,7.7 20,5.5 18,3.6 15.8,3.6 Z"
       id="path5"
       style="fill:#ffffff;fill-opacity:1"
       inkscape:connector-curvature="0" /><path
       d="m 11.5,15.7 -0.9,0.9 C 10.2,17 9.4,17.3 8.8,17.3 8.2,17.3 7.5,17 7,16.6 6,15.6 6,13.9 7,13 L 9.6,10.4 C 10,10 10.8,9.7 11.4,9.7 c 1.4,0 2.1,1 2.6,2 l 1.3,-1.3 c -0.8,-1.5 -2,-2.6 -3.8,-2.6 -1.2,0 -2.3,0.5 -3,1.3 l -2.6,2.6 c -1.7,1.7 -1.7,4.4 0,6 1.6,1.6 4.4,1.7 5.9,0 l 1.9,-1.9 c -0.3,0.1 -0.6,0.1 -0.9,0.1 -0.5,0 -0.9,0 -1.3,-0.2 z"
       id="path7"
       style="fill:#ffffff;fill-opacity:1"
       inkscape:connector-curvature="0" /></g></svg>