<?xml version="1.0" encoding="UTF-8" standalone="no"?>
<!-- Created with Inkscape (http://www.inkscape.org/) -->

<svg
   xmlns:dc="http://purl.org/dc/elements/1.1/"
   xmlns:cc="http://creativecommons.org/ns#"
   xmlns:rdf="http://www.w3.org/1999/02/22-rdf-syntax-ns#"
   xmlns:svg="http://www.w3.org/2000/svg"
   xmlns="http://www.w3.org/2000/svg"
   xmlns:sodipodi="http://sodipodi.sourceforge.net/DTD/sodipodi-0.dtd"
   xmlns:inkscape="http://www.inkscape.org/namespaces/inkscape"
   width="10.779555mm"
   height="9.3193226mm"
   viewBox="0 0 38.195275 33.021222"
   id="svg4200"
   version="1.1"
   inkscape:version="0.91 r13725"
   sodipodi:docname="spherical_picture.svg">
  <defs
     id="defs4202" />
  <sodipodi:namedview
     id="base"
     pagecolor="#ffffff"
     bordercolor="#666666"
     borderopacity="1.0"
     inkscape:pageopacity="0.0"
     inkscape:pageshadow="2"
     inkscape:zoom="7.9195959"
     inkscape:cx="5.2602024"
     inkscape:cy="11.285812"
     inkscape:document-units="px"
     inkscape:current-layer="layer1"
     showgrid="false"
     fit-margin-top="0"
     fit-margin-left="0"
     fit-margin-right="0"
     fit-margin-bottom="0"
     inkscape:window-width="1920"
     inkscape:window-height="1056"
     inkscape:window-x="0"
     inkscape:window-y="0"
     inkscape:window-maximized="1" />
  <metadata
     id="metadata4205">
    <rdf:RDF>
      <cc:Work
         rdf:about="">
        <dc:format>image/svg+xml</dc:format>
        <dc:type
           rdf:resource="http://purl.org/dc/dcmitype/StillImage" />
        <dc:title></dc:title>
      </cc:Work>
    </rdf:RDF>
  </metadata>
  <g
     inkscape:label="Calque 1"
     inkscape:groupmode="layer"
     id="layer1"
     transform="translate(-230.90236,-361.56588)">
    <g
       id="g4187"
       transform="translate(233.88081,284.97949)"
       style="fill:#ffffff;fill-opacity:1">
      <path
         sodipodi:nodetypes="cscccsscccccc"
         inkscape:connector-curvature="0"
         id="path4137"
         d="m -1.1207034,90.885571 c 0,0 0.2801759,2.521582 3.6422859,3.151978 3.3621099,0.630395 7.0043957,-5.673561 7.0043957,-5.673561 l 2.8718018,3.852418 3.992506,-1.891187 c 0,0 6.427213,5.12687 10.436549,4.482813 2.48079,-0.398513 3.992507,-0.840527 6.724221,-3.222021 2.731714,-2.381495 -2.031275,9.525979 -2.031275,9.525979 l -12.748,-1.961232 -9.2458028,0.770482 -9.24580237,1.05066 -2.10131873,-4.272681 z"
         style="fill:#ffffff;fill-opacity:1;fill-rule:evenodd;stroke:none;stroke-width:1px;stroke-linecap:butt;stroke-linejoin:miter;stroke-opacity:1" />
      <path
         inkscape:connector-curvature="0"
         id="path4139"
         d="m 30.150228,88.575573 a 2.4011407,1.9295121 61.903011 0 1 -0.571268,3.026903 2.4011407,1.9295121 61.903011 0 1 -2.832978,-1.209436 2.4011407,1.9295121 61.903011 0 1 0.571269,-3.026903 2.4011407,1.9295121 61.903011 0 1 2.832977,1.209436 z"
         style="opacity:1;fill:#ffffff;fill-opacity:1;stroke:none;stroke-width:1.64300001;stroke-linejoin:miter;stroke-miterlimit:4;stroke-dasharray:none;stroke-dashoffset:0;stroke-opacity:1" />
    </g>
    <g
       id="g4191"
       style="stroke:#ffffff;stroke-width:2.50000024;stroke-miterlimit:4;stroke-dasharray:none;stroke-opacity:1"
       transform="translate(233.88081,284.97949)">
      <path
         id="path4161"
         d="M 3.043843,85.033243 A 15.260611,15.260611 0 0 1 16.000002,77.83639 15.260611,15.260611 0 0 1 28.932726,84.995712"
         style="opacity:1;fill:none;fill-opacity:1;stroke:#ffffff;stroke-width:2.50000024;stroke-miterlimit:4;stroke-dasharray:none;stroke-dashoffset:0;stroke-opacity:1"
         inkscape:connector-curvature="0" />
      <path
         id="path4136"
         d="M 29.04525,101.01582 A 15.260611,15.260611 0 0 1 16.000002,108.35761 15.260611,15.260611 0 0 1 2.98138,101.05952"
         style="opacity:1;fill:none;fill-opacity:1;stroke:#ffffff;stroke-width:2.50000024;stroke-miterlimit:4;stroke-dasharray:none;stroke-dashoffset:0;stroke-opacity:1"
         inkscape:connector-curvature="0" />
      <path
         sodipodi:nodetypes="csc"
         inkscape:connector-curvature="0"
         id="path4183"
         d="m 9.668888,85.427422 c 1.28937,-4.746446 3.516499,-7.071158 6.331087,-7.071158 2.77176,0 5.037312,2.16971 6.345975,6.805147"
         style="opacity:1;fill:none;fill-opacity:1;stroke:#ffffff;stroke-width:2.42798233;stroke-miterlimit:4;stroke-dasharray:none;stroke-dashoffset:0;stroke-opacity:1" />
      <path
         sodipodi:nodetypes="csc"
         inkscape:connector-curvature="0"
         id="path4136-5"
         d="m 22.537847,99.96305 c -1.334189,4.49597 -3.831437,7.87034 -6.537741,7.87034 -2.696937,0 -5.257351,-3.35534 -6.5950942,-7.82687"
         style="opacity:1;fill:none;fill-opacity:1;stroke:#ffffff;stroke-width:2.43464684;stroke-miterlimit:4;stroke-dasharray:none;stroke-dashoffset:0;stroke-opacity:1" />
      <path
         sodipodi:nodetypes="sssssssss"
         inkscape:connector-curvature="0"
         id="rect4162-0-6"
         d="m 1.1839471,84.602297 c 10.6749159,1.406649 19.3050829,1.195651 29.9161009,0 0.909242,-0.102454 1.246155,0.913332 1.649809,1.815934 1.789155,4.000688 1.405765,9.056363 0,12.846055 -0.345491,0.931374 -0.751708,2.002724 -1.649809,1.815934 -10.483221,-2.180303 -19.305083,-2.109971 -29.9161009,0 -0.89943501,0.17885 -1.30983201,-0.8821 -1.64981001,-1.815934 -1.66135799,-4.563348 -1.78915399,-7.50905 0,-12.846055 0.316404,-0.943825 0.742296,-1.935518 1.64981001,-1.815934 z"
         style="opacity:1;fill:none;fill-opacity:1;stroke:#ffffff;stroke-width:2.50000024;stroke-linejoin:miter;stroke-miterlimit:4;stroke-dasharray:none;stroke-dashoffset:0;stroke-opacity:1" />
    </g>
  </g>
</svg>
