<?xml version="1.0" encoding="UTF-8" standalone="no"?>
<svg
   xmlns:dc="http://purl.org/dc/elements/1.1/"
   xmlns:cc="http://creativecommons.org/ns#"
   xmlns:rdf="http://www.w3.org/1999/02/22-rdf-syntax-ns#"
   xmlns:svg="http://www.w3.org/2000/svg"
   xmlns="http://www.w3.org/2000/svg"
   xmlns:sodipodi="http://sodipodi.sourceforge.net/DTD/sodipodi-0.dtd"
   xmlns:inkscape="http://www.inkscape.org/namespaces/inkscape"
   version="1.1"
   x="0px"
   y="0px"
   viewBox="0 0 100 100"
   enable-background="new 0 0 100 100"
   xml:space="preserve"
   id="svg4770"
   inkscape:version="0.91 r13725"
   sodipodi:docname="information_map.svg"><metadata
     id="metadata4784"><rdf:RDF><cc:Work
         rdf:about=""><dc:format>image/svg+xml</dc:format><dc:type
           rdf:resource="http://purl.org/dc/dcmitype/StillImage" /></cc:Work></rdf:RDF></metadata><defs
     id="defs4782" /><sodipodi:namedview
     pagecolor="#ffffff"
     bordercolor="#666666"
     borderopacity="1"
     objecttolerance="10"
     gridtolerance="10"
     guidetolerance="10"
     inkscape:pageopacity="0"
     inkscape:pageshadow="2"
     inkscape:window-width="1600"
     inkscape:window-height="843"
     id="namedview4780"
     showgrid="false"
     inkscape:zoom="4.72"
     inkscape:cx="32.807173"
     inkscape:cy="64.151702"
     inkscape:window-x="1680"
     inkscape:window-y="571"
     inkscape:window-maximized="1"
     inkscape:current-layer="svg4770" /><g
     id="g5992"
     transform="matrix(0.79296885,0,0,0.79296885,-3.4546465,-3.2025077)"><path
       inkscape:connector-curvature="0"
       id="path5372"
       d="M 7.8389831,26.694915 35.169492,7.6271186 64.40678,26.483051 91.101695,7.4152542 91.949153,73.728814 65.042373,92.584746 36.016949,74.576271 8.0508475,92.79661 Z"
       style="fill:#ffffff;fill-opacity:1;fill-rule:evenodd;stroke:none;stroke-width:1px;stroke-linecap:butt;stroke-linejoin:miter;stroke-opacity:1" /><g
       style="fill:#0007c5;fill-opacity:1;stroke:none;stroke-opacity:1"
       id="g4772"><path
         style="fill:#0007c5;fill-opacity:1;stroke:none;stroke-opacity:1"
         id="path4774"
         d="M 8.079,95.003 C 7.718,95.003 7.356,94.915 7.025,94.739 6.288,94.347 5.827,93.583 5.827,92.75 l 0,-66.55 c 0,-0.748 0.37,-1.445 0.989,-1.865 L 34.763,5.385 c 0.689,-0.466 1.583,-0.515 2.318,-0.125 0.737,0.392 1.198,1.157 1.198,1.99 l 0,66.55 c 0,0.749 -0.371,1.447 -0.989,1.867 L 9.342,94.616 C 8.963,94.87 8.521,95.003 8.079,95.003 Z m 2.252,-67.61 0,61.109 23.442,-15.894 0,-61.109 -23.442,15.894 z"
         inkscape:connector-curvature="0" /><path
         style="fill:#0007c5;fill-opacity:1;stroke:none;stroke-opacity:1"
         id="path4776"
         d="m 63.976,95.003 c -0.361,0 -0.725,-0.088 -1.057,-0.264 -0.736,-0.392 -1.195,-1.156 -1.195,-1.989 l 0,-66.55 c 0,-0.748 0.367,-1.445 0.986,-1.865 L 90.657,5.385 c 0.691,-0.466 1.582,-0.515 2.318,-0.125 0.736,0.392 1.199,1.157 1.199,1.99 l 0,66.55 c 0,0.749 -0.373,1.447 -0.99,1.867 L 65.239,94.616 c -0.381,0.254 -0.822,0.387 -1.263,0.387 z m 2.252,-67.61 0,61.109 23.443,-15.894 0,-61.109 -23.443,15.894 z"
         inkscape:connector-curvature="0" /><path
         style="fill:#0007c5;fill-opacity:1;stroke:none;stroke-opacity:1"
         id="path4778"
         d="m 63.976,95.003 c -0.443,0 -0.885,-0.133 -1.266,-0.387 L 34.764,75.667 C 34.146,75.247 33.776,74.549 33.776,73.8 l 0,-66.55 c 0,-0.833 0.461,-1.599 1.198,-1.99 0.736,-0.389 1.629,-0.341 2.318,0.125 l 27.947,18.95 c 0.617,0.42 0.988,1.117 0.988,1.865 l 0,66.55 c 0,0.833 -0.461,1.598 -1.197,1.989 -0.332,0.176 -0.695,0.264 -1.054,0.264 z M 38.28,72.608 l 23.443,15.894 0,-61.109 -23.443,-15.894 0,61.109 z"
         inkscape:connector-curvature="0" /></g></g><path
     inkscape:connector-curvature="0"
     d="m 78.10466,61.277137 c 0,4.081335 3.305578,7.387113 7.386913,7.387113 4.081333,0 7.387115,-3.305778 7.387115,-7.387113 0,-4.081339 -3.305681,-7.386917 -7.387115,-7.386917 -4.081335,0 -7.386913,3.305578 -7.386913,7.386917 z m 0,15.697456 0,16.620674 -2.308568,0 c -1.274058,0 -2.308368,1.034108 -2.308368,2.308667 0,1.274063 1.03431,2.308168 2.308368,2.308168 l 19.390756,0 c 1.274159,0 2.308772,-1.034105 2.308772,-2.308168 0,-1.274559 -1.034613,-2.308667 -2.308772,-2.308667 l -2.30816,0 0,-19.205987 c 0,-1.126387 -0.905542,-2.031723 -2.031728,-2.031723 l -15.050868,0 c -1.274058,0 -2.308368,1.034305 -2.308368,2.308358 0,1.274266 1.03431,2.308578 2.308368,2.308578 l 2.308568,0 z"
     id="path5429"
     style="clip-rule:evenodd;fill:#0007c5;fill-opacity:1;fill-rule:evenodd" /></svg>