<?xml version="1.0" encoding="UTF-8" standalone="no"?>
<svg
   xmlns:dc="http://purl.org/dc/elements/1.1/"
   xmlns:cc="http://creativecommons.org/ns#"
   xmlns:rdf="http://www.w3.org/1999/02/22-rdf-syntax-ns#"
   xmlns:svg="http://www.w3.org/2000/svg"
   xmlns="http://www.w3.org/2000/svg"
   xmlns:sodipodi="http://sodipodi.sourceforge.net/DTD/sodipodi-0.dtd"
   xmlns:inkscape="http://www.inkscape.org/namespaces/inkscape"
   version="1.1"
   x="0px"
   y="0px"
   viewBox="0 0 32 32"
   enable-background="new 0 0 100 100"
   xml:space="preserve"
   id="svg4170"
   inkscape:version="0.91 r13725"
   sodipodi:docname="information_price_checker.svg"
   width="32"
   height="32"
   inkscape:export-filename="/home/adrien/Documents/Programmation/Web/panieravide.github.io/openlevelup/img/information_price_checker.png"
   inkscape:export-xdpi="67"
   inkscape:export-ydpi="67"><metadata
     id="metadata4178"><rdf:RDF><cc:Work
         rdf:about=""><dc:format>image/svg+xml</dc:format><dc:type
           rdf:resource="http://purl.org/dc/dcmitype/StillImage" /><dc:title /></cc:Work></rdf:RDF></metadata><defs
     id="defs4176" /><sodipodi:namedview
     pagecolor="#ffffff"
     bordercolor="#666666"
     borderopacity="1"
     objecttolerance="10"
     gridtolerance="10"
     guidetolerance="10"
     inkscape:pageopacity="0"
     inkscape:pageshadow="2"
     inkscape:window-width="1600"
     inkscape:window-height="843"
     id="namedview4174"
     showgrid="false"
     inkscape:zoom="17.847375"
     inkscape:cx="14.095793"
     inkscape:cy="16.103883"
     inkscape:window-x="0"
     inkscape:window-y="595"
     inkscape:window-maximized="1"
     inkscape:current-layer="svg4170" /><path
     d="m 17.489714,17.237438 0,10.762562 -4.194136,0 0,-20.571075 1.521422,0 c -0.494839,1.040344 -0.479,2.199922 -0.479,3.428449 0,2.548861 1.294638,4.914211 3.151714,6.380064 z m -7.07032,-9.808513 0.767211,0 0,20.571075 -0.767211,0 z m -3.442469,0 2.2787758,0 0,20.571075 -2.2787758,0 z m -6.976925,0 4.9491566,0 0,20.571075 L 0,28 Z M 22.139966,28 l -2.689932,0 0,-9.833219 C 20.150199,18.598384 21.319077,19.124626 22.14,19.325 Z m 4.246639,0 -0.76721,0 0,-8.457 c 0.259038,-0.01257 0.515029,-0.03657 0.76721,-0.072 z m 3.826082,0 -2.290204,0 0,-9.172709 c 0.828161,-0.246086 1.598038,-0.922169 2.290204,-1.404818 z"
     id="path4172"
     style="clip-rule:evenodd;fill:#8e7409;fill-opacity:1;fill-rule:evenodd"
     inkscape:connector-curvature="0"
     sodipodi:nodetypes="cccccsccccccccccccccccccccccccccccccc" /><path
     d="M 23.999556,18 C 19.58207,18 16,14.418275 16,10.000221 16,5.5817248 19.58207,2 23.999556,2 28.417931,2 32,5.5817248 32,10.000221 32,14.418275 28.417931,18 23.999556,18 Z m 0,-3.556395 c 0.49103,0 0.888741,-0.398166 0.888741,-0.888767 0,-0.491042 -0.397711,-0.888765 -0.888741,-0.888765 -0.490585,0 -0.888741,0.397723 -0.888741,0.888765 0,0.491045 0.398601,0.888767 0.888741,0.888767 z m 0,-8.4432721 c -2.666222,0 -2.666222,2.6662966 -2.666222,2.6662966 l 1.777481,0 c 0,-0.8887659 0.888741,-0.8887659 0.888741,-0.8887659 0.888741,0 0.888741,0.8887659 0.888741,0.8887659 0,0.8887643 -1.777482,1.7775305 -1.777482,1.7775305 l 0,1.333147 1.777482,0 0,-0.888764 c 1.777481,-0.8887662 1.777481,-2.2219135 1.777481,-2.2219135 0,-2.6662966 -2.666222,-2.6662966 -2.666222,-2.6662966 z"
     id="path4172-7"
     style="clip-rule:evenodd;fill:#8e7409;fill-opacity:1;fill-rule:evenodd"
     inkscape:connector-curvature="0"
     sodipodi:nodetypes="ssssssssssccccccccccc" /></svg>