<?xml version="1.0" encoding="UTF-8" standalone="no"?>
<svg
   xmlns:dc="http://purl.org/dc/elements/1.1/"
   xmlns:cc="http://creativecommons.org/ns#"
   xmlns:rdf="http://www.w3.org/1999/02/22-rdf-syntax-ns#"
   xmlns:svg="http://www.w3.org/2000/svg"
   xmlns="http://www.w3.org/2000/svg"
   xmlns:sodipodi="http://sodipodi.sourceforge.net/DTD/sodipodi-0.dtd"
   xmlns:inkscape="http://www.inkscape.org/namespaces/inkscape"
   version="1.1"
   x="0px"
   y="0px"
   viewBox="0 0 100 100"
   enable-background="new 0 0 100 100"
   xml:space="preserve"
   id="svg4180"
   inkscape:version="0.91 r13725"
   sodipodi:docname="information_guidepost.svg"><metadata
     id="metadata4188"><rdf:RDF><cc:Work
         rdf:about=""><dc:format>image/svg+xml</dc:format><dc:type
           rdf:resource="http://purl.org/dc/dcmitype/StillImage" /></cc:Work></rdf:RDF></metadata><defs
     id="defs4186" /><sodipodi:namedview
     pagecolor="#ffffff"
     bordercolor="#666666"
     borderopacity="1"
     objecttolerance="10"
     gridtolerance="10"
     guidetolerance="10"
     inkscape:pageopacity="0"
     inkscape:pageshadow="2"
     inkscape:window-width="1600"
     inkscape:window-height="843"
     id="namedview4184"
     showgrid="false"
     inkscape:zoom="2.36"
     inkscape:cx="-5.720339"
     inkscape:cy="50"
     inkscape:window-x="1680"
     inkscape:window-y="571"
     inkscape:window-maximized="1"
     inkscape:current-layer="svg4180" /><path
     fill-rule="evenodd"
     clip-rule="evenodd"
     fill="#000000"
     d="M85.3,25.7l-11.2-7.7c-0.6-0.4-1.5-0.8-2.5-1.1  c-0.9-0.3-1.9-0.5-2.7-0.5H45V10c0-1-0.8-1.9-1.9-1.9h-4.2C37.9,8.1,37,9,37,10v20.9H25.4c-0.8,0-1.7,0.2-2.7,0.5  c-0.9,0.3-1.8,0.7-2.4,1.1L9.1,40.1c-0.6,0.4-0.9,1-0.9,1.6c0,0.6,0.3,1.1,0.9,1.6L20.3,51c0.6,0.4,1.5,0.8,2.4,1.1  c0.9,0.3,1.9,0.5,2.7,0.5H37v38.4c0,1,0.8,1.9,1.9,1.9h4.2c1,0,1.9-0.8,1.9-1.9V38.1h24c0.8,0,1.7-0.2,2.7-0.5  c0.9-0.3,1.8-0.7,2.5-1.1l11.2-7.7c0.6-0.4,0.9-1,0.9-1.6C86.2,26.7,85.9,26.2,85.3,25.7z"
     id="path4182"
     style="fill:#0007c5;fill-opacity:1" /></svg>