<?xml version="1.0" encoding="UTF-8" standalone="no"?>
<!-- Generator: Adobe Illustrator 15.1.0, SVG Export Plug-In . SVG Version: 6.00 Build 0)  -->

<svg
   xmlns:dc="http://purl.org/dc/elements/1.1/"
   xmlns:cc="http://creativecommons.org/ns#"
   xmlns:rdf="http://www.w3.org/1999/02/22-rdf-syntax-ns#"
   xmlns:svg="http://www.w3.org/2000/svg"
   xmlns="http://www.w3.org/2000/svg"
   xmlns:sodipodi="http://sodipodi.sourceforge.net/DTD/sodipodi-0.dtd"
   xmlns:inkscape="http://www.inkscape.org/namespaces/inkscape"
   version="1.1"
   id="Layer_1"
   x="0px"
   y="0px"
   width="100px"
   height="86.112px"
   viewBox="0 0 100 86.112"
   enable-background="new 0 0 100 86.112"
   xml:space="preserve"
   inkscape:version="0.91 r13725"
   sodipodi:docname="information_office.svg"><metadata
     id="metadata13"><rdf:RDF><cc:Work
         rdf:about=""><dc:format>image/svg+xml</dc:format><dc:type
           rdf:resource="http://purl.org/dc/dcmitype/StillImage" /></cc:Work></rdf:RDF></metadata><defs
     id="defs11" /><sodipodi:namedview
     pagecolor="#ffffff"
     bordercolor="#666666"
     borderopacity="1"
     objecttolerance="10"
     gridtolerance="10"
     guidetolerance="10"
     inkscape:pageopacity="0"
     inkscape:pageshadow="2"
     inkscape:window-width="1600"
     inkscape:window-height="843"
     id="namedview9"
     showgrid="false"
     inkscape:zoom="5.4812338"
     inkscape:cx="43.631576"
     inkscape:cy="41.41664"
     inkscape:window-x="1680"
     inkscape:window-y="571"
     inkscape:window-maximized="1"
     inkscape:current-layer="Layer_1" /><path
     d="m 94.444,44.446 -88.888,0 -5.556,0 0,6.943 5.556,0 0,34.723 88.888,0 0,-34.723 5.556,0 0,-6.943 z"
     id="path3"
     inkscape:connector-curvature="0"
     sodipodi:nodetypes="ccccccccccc"
     style="fill:#0007c5;fill-opacity:1" /><circle
     cx="50"
     cy="8.333"
     r="8.333"
     id="circle5"
     style="fill:#0007c5;fill-opacity:1" /><path
     d="M61.11,19.445H38.889c-6.945,0-9.723,5.555-9.723,9.722v9.723v2.777h6.944V38.89v-8.333h2.778v8.333v2.777H61.11V38.89  v-8.333h2.779v8.333v2.777h6.943V38.89v-9.723C70.833,25,68.056,19.445,61.11,19.445z"
     id="path7"
     style="fill:#0007c5;fill-opacity:1" /><path
     inkscape:connector-curvature="0"
     d="m 45.351871,55.7172 c 0,2.712965 2.19739,4.910528 4.910469,4.910528 2.713076,0 4.910603,-2.197563 4.910603,-4.910528 0,-2.713192 -2.197461,-4.910528 -4.910603,-4.910528 -2.713079,0 -4.910469,2.197336 -4.910469,4.910528 z m 0,10.4349 0,11.048518 -1.534627,0 c -0.846933,0 -1.534493,0.687506 -1.534493,1.534611 0,0.847105 0.68756,1.534611 1.534493,1.534611 l 12.890053,0 c 0.847,0 1.534763,-0.687506 1.534763,-1.534611 0,-0.847105 -0.687763,-1.534611 -1.534763,-1.534611 l -1.534354,0 0,-12.767055 c 0,-0.74889 -0.601963,-1.350685 -1.350597,-1.350685 l -10.005102,0 c -0.846933,0 -1.534493,0.687733 -1.534493,1.534611 0,0.846878 0.68756,1.534384 1.534493,1.534384 l 1.534627,0 z"
     id="path5429"
     style="clip-rule:evenodd;fill:#ffffff;fill-opacity:1;fill-rule:evenodd" /></svg>