<?xml version="1.0" encoding="UTF-8" standalone="no"?>
<!-- Generator: Adobe Illustrator 16.0.0, SVG Export Plug-In . SVG Version: 6.00 Build 0)  -->

<svg
   version="1.1"
   id="Your_Icon"
   x="0px"
   y="0px"
   width="32"
   height="32"
   viewBox="13.25 0 32 32"
   enable-background="new 13.25 0 72.75 100"
   xml:space="preserve"
   inkscape:version="1.3.1 (9b9bdc1480, 2023-11-25, custom)"
   sodipodi:docname="access_customers.svg"
   xmlns:inkscape="http://www.inkscape.org/namespaces/inkscape"
   xmlns:sodipodi="http://sodipodi.sourceforge.net/DTD/sodipodi-0.dtd"
   xmlns="http://www.w3.org/2000/svg"
   xmlns:svg="http://www.w3.org/2000/svg"
   xmlns:rdf="http://www.w3.org/1999/02/22-rdf-syntax-ns#"
   xmlns:cc="http://creativecommons.org/ns#"
   xmlns:dc="http://purl.org/dc/elements/1.1/"><metadata
     id="metadata9"><rdf:RDF><cc:Work
         rdf:about=""><dc:format>image/svg+xml</dc:format><dc:type
           rdf:resource="http://purl.org/dc/dcmitype/StillImage" /></cc:Work></rdf:RDF></metadata><defs
     id="defs7" /><sodipodi:namedview
     pagecolor="#ffffff"
     bordercolor="#666666"
     borderopacity="1"
     objecttolerance="10"
     gridtolerance="10"
     guidetolerance="10"
     inkscape:pageopacity="0"
     inkscape:pageshadow="2"
     inkscape:window-width="1318"
     inkscape:window-height="719"
     id="namedview5"
     showgrid="false"
     inkscape:zoom="6.675088"
     inkscape:cx="9.2133617"
     inkscape:cy="12.80882"
     inkscape:window-x="48"
     inkscape:window-y="27"
     inkscape:window-maximized="1"
     inkscape:current-layer="Your_Icon"
     inkscape:showpageshadow="2"
     inkscape:pagecheckerboard="0"
     inkscape:deskcolor="#d1d1d1" /><path
     d="M 32.69528,17.174112 C 32.0876,16.324514 31.118,15.965155 30.1868,15.965155 c -1.34912,0 -2.20416,0.963518 -2.37504,2.115835 l 4.50336,0 -0.76,1.700157 -3.95232,0 c -0.03808,0.472319 -0.01888,0.811838 0.03808,1.246717 l 3.38208,0 -0.76,1.700156 -2.35616,0 c 0.28512,1.699837 2.14688,1.718716 2.3936,1.718716 1.46304,0 2.62208,-0.699518 3.3264,-1.794236 l 0,3.154874 c -0.45696,0.339839 -1.59616,1.095677 -3.61056,1.095677 -1.19712,0 -2.4704,-0.283199 -3.51552,-1.265597 -0.55104,-0.510079 -0.95008,-1.171198 -1.2352,-1.851196 C 25.1324,23.446099 25.0188,23.086739 24.942639,22.72802 l -2.147199,0 0.76,-1.700156 1.14016,0 c -0.03808,-0.433919 -0.05696,-0.774398 -0.03808,-1.246717 l -1.86208,0 0.76,-1.700157 1.31104,0 c 0.07616,-0.453439 0.20896,-0.887678 0.38016,-1.322557 0.26624,-0.661118 0.6272,-1.303357 1.12128,-1.832636 0.81728,-0.849918 1.9952,-1.416957 3.74336,-1.416957 2.128,0 3.19264,0.774719 3.70528,1.265598 l -1.12128,2.399674 z m 6.49568,10.564777 C 41.15512,11.905644 32.9308,8.2122119 32.9308,8.2122119 32.735599,8.1248521 32.53464,8.0170124 32.36472,7.732853 c 0,0 0.64672,-0.1420797 0.64672,-0.6511986 0,-0.6454386 -0.94944,-0.7183984 -0.94944,-0.7183984 0.13504,-1.3545571 3.19168,-3.7379119 4.00928,-4.3532705 0.10816,-0.1046398 0.13632,-0.2719994 0.0576,-0.4076791 l 0,0 C 35.76312,1.0183077 34.69976,-0.25912956 32.91384,0.96134778 31.39,2.0023055 31.12824,-1.1938475 29.00824,0.51078876 27.38264,1.8179859 27.15032,-0.53112896 25.65016,0.93702783 24.39992,2.1603852 23.81304,0.45062889 22.79224,1.6944662 c -0.38784,0.4726389 -0.89376,0.7555183 -1.28672,0.917758 -0.16352,0.08864 -0.22848,0.2947193 -0.1344,0.455039 0.17408,0.2972793 3.91648,2.302075 4.40896,3.3359927 0,0 -0.80288,0.1036798 -0.80288,0.6780785 0,0.5740788 0.78784,0.7148785 0.78784,0.7148785 -0.07424,0.3775991 -0.21056,0.4812789 -0.3408,0.5558387 -1.394241,0.8009583 -7.74688,5.2659084 -5.9952,19.3868374 0,0 -0.67904,0.852478 -0.67904,1.673277 0,0.820158 0.50912,1.546876 2.71648,1.546876 2.1424,0 2.17024,1.040958 7.84352,1.040958 5.67328,0 5.700479,-1.040958 7.84384,-1.040958 2.20672,0 2.71616,-0.726718 2.71616,-1.546876 0,-0.820799 -0.67904,-1.673277 -0.67904,-1.673277 z"
     id="path3"
     style="fill:#ffffff;fill-opacity:1"
     inkscape:connector-curvature="0" /></svg>
