<?xml version="1.0" encoding="UTF-8" standalone="no"?>
<!-- Created with Inkscape (http://www.inkscape.org/) -->

<svg
   width="32mm"
   height="32mm"
   viewBox="0 0 32 32"
   version="1.1"
   id="svg1"
   xml:space="preserve"
   inkscape:version="1.3.1 (9b9bdc1480, 2023-11-25, custom)"
   sodipodi:docname="accommodation_youth_hostel.svg"
   xmlns:inkscape="http://www.inkscape.org/namespaces/inkscape"
   xmlns:sodipodi="http://sodipodi.sourceforge.net/DTD/sodipodi-0.dtd"
   xmlns="http://www.w3.org/2000/svg"
   xmlns:svg="http://www.w3.org/2000/svg"><sodipodi:namedview
     id="namedview1"
     pagecolor="#ffffff"
     bordercolor="#666666"
     borderopacity="1.0"
     inkscape:showpageshadow="2"
     inkscape:pageopacity="0.0"
     inkscape:pagecheckerboard="0"
     inkscape:deskcolor="#d1d1d1"
     inkscape:document-units="mm"
     showguides="true"
     inkscape:zoom="2.8284271"
     inkscape:cx="22.45064"
     inkscape:cy="68.412581"
     inkscape:window-width="1318"
     inkscape:window-height="719"
     inkscape:window-x="48"
     inkscape:window-y="27"
     inkscape:window-maximized="1"
     inkscape:current-layer="layer1"><sodipodi:guide
       position="12.681257,4.4432019"
       orientation="0,-1"
       id="guide3"
       inkscape:locked="false" /></sodipodi:namedview><defs
     id="defs1" /><g
     inkscape:label="Livello 1"
     inkscape:groupmode="layer"
     id="layer1"><g
       id="path2"><path
         style="color:#000000;fill:#93c6e0;stroke-linecap:square;-inkscape-stroke:none"
         d="m 22.591442,19.422639 v 8.134159 h 6.126695 V 14.129797 h 1.954881 V 13.525435 L 20.699697,3.4337768 10.726376,13.525435 v 0.604362 h 1.954881 v 13.427001 h 6.126695 v -8.134159 z"
         id="path7" /><path
         style="color:#000000;fill:#0092da;stroke-linecap:square;-inkscape-stroke:none"
         d="M 20.699219,2.9609375 10.394531,13.388672 v 1.074219 h 1.955078 v 13.425781 h 6.791016 v -8.132813 h 3.119141 v 8.132813 h 6.791015 V 14.462891 h 1.955078 v -1.074219 z m 0,0.9453125 9.640625,9.755859 v 0.134766 h -1.955078 v 13.427734 h -5.460938 v -8.134765 h -4.449219 v 8.134765 H 13.013672 V 13.796875 h -1.955078 v -0.134766 z"
         id="path8" /></g><g
       id="path3"><path
         style="color:#000000;fill:#0092da;-inkscape-stroke:none"
         d="m 7.6264079,6.963916 -4.7402792,9.824207 1.9859253,-0.788066 -2.5145752,3.74189 1.8329631,-0.60048 -2.7016439,3.978052 4.9681722,-0.551387 v 4.988842 h 2.3388753 v -4.988842 l 4.9676555,0.551387 -2.701127,-3.978052 1.832963,0.60048 -2.514575,-3.74189 1.985408,0.788066 z"
         id="path9" /><path
         style="color:#000000;fill:#0092da;-inkscape-stroke:none"
         d="m 7.6264079,6.963916 4.1333581,9.225537 -2.2539066,-0.894531 2.5742186,3.830078 -1.839844,-0.603516 2.841797,4.1875 -4.6191404,-0.511718 v 5.027343 H 6.7890625 v -5.027343 l -4.6191406,0.511718 2.84375,-4.1875 L 3.171875,19.125 5.7460937,15.294922 3.5566406,16.164062 7.6264079,6.963916 M 7.6269531,6.1992187 2.2167969,17.412109 3.9980469,16.705078 1.5429687,20.359375 3.3691406,19.759766 0.80859375,23.529297 6.125,22.939453 v 4.949219 h 3.0039063 v -4.949219 l 5.3144527,0.589844 -2.558593,-3.769531 1.826172,0.599609 -2.457032,-3.654297 1.783203,0.707031 L 7.6269531,6.1992187"
         id="path10"
         sodipodi:nodetypes="cccccccccccccccccccccccccccccccc" /></g></g></svg>
