<?xml version="1.0" encoding="UTF-8" standalone="no"?>
<!-- Created with Inkscape (http://www.inkscape.org/) -->

<svg
   width="32mm"
   height="32mm"
   viewBox="0 0 32 32"
   version="1.1"
   id="svg1"
   xml:space="preserve"
   inkscape:version="1.3.1 (9b9bdc1480, 2023-11-25, custom)"
   sodipodi:docname="accommodation_youth_hostel.svg"
   xmlns:inkscape="http://www.inkscape.org/namespaces/inkscape"
   xmlns:sodipodi="http://sodipodi.sourceforge.net/DTD/sodipodi-0.dtd"
   xmlns="http://www.w3.org/2000/svg"
   xmlns:svg="http://www.w3.org/2000/svg"><sodipodi:namedview
     id="namedview1"
     pagecolor="#ffffff"
     bordercolor="#666666"
     borderopacity="1.0"
     inkscape:showpageshadow="2"
     inkscape:pageopacity="0.0"
     inkscape:pagecheckerboard="0"
     inkscape:deskcolor="#d1d1d1"
     inkscape:document-units="mm"
     showguides="true"
     inkscape:zoom="4.2508628"
     inkscape:cx="22.230781"
     inkscape:cy="49.519358"
     inkscape:window-width="1318"
     inkscape:window-height="719"
     inkscape:window-x="48"
     inkscape:window-y="27"
     inkscape:window-maximized="1"
     inkscape:current-layer="layer1"><sodipodi:guide
       position="12.681257,4.4432019"
       orientation="0,-1"
       id="guide3"
       inkscape:locked="false" /></sodipodi:namedview><defs
     id="defs1" /><g
     inkscape:label="Livello 1"
     inkscape:groupmode="layer"
     id="layer1"><g
       id="path2"><path
         id="path7"
         style="color:#000000;fill:#93c6e0;stroke-linecap:square;-inkscape-stroke:none"
         d="m 20.699512,3.4338989 -9.41648,9.5281011 0.56379,1.167887 h 0.834574 v 1.730644 l 0.908472,1.883606 -0.908472,-0.360702 v 0.908472 l 1.684652,2.506307 -1.684652,-0.550354 v 0.236678 l 2.375566,3.49591 -2.375566,-0.263549 v 3.840075 h 6.126758 v -8.134387 h 3.783232 v 8.134387 h 6.126758 V 14.129887 h 1.954919 v -0.604614 z"
         sodipodi:nodetypes="ccccccccccccccccccccccc" /><path
         id="path8"
         style="color:#000000;fill:#0092da;stroke-linecap:square;-inkscape-stroke:none"
         d="M 20.698995 2.9610596 L 11.13007 12.644706 L 11.436511 13.27981 L 20.698995 3.9062215 L 30.33975 13.662215 L 30.33975 13.797091 L 28.384831 13.797091 L 28.384831 27.224695 L 22.923665 27.224695 L 22.923665 19.089791 L 18.474841 19.089791 L 18.474841 27.224695 L 13.013676 27.224695 L 13.013676 23.753589 L 12.349634 23.680208 L 12.349634 27.888737 L 19.140434 27.888737 L 19.140434 19.7559 L 22.259623 19.7559 L 22.259623 27.888737 L 29.05094 27.888737 L 29.05094 14.462683 L 31.005859 14.462683 L 31.005859 13.388847 L 20.698995 2.9610596 z M 10.611755 13.169222 L 10.394714 13.388847 L 10.394714 14.462683 L 11.107332 14.462683 L 10.611755 13.169222 z M 11.686108 13.797091 L 12.007019 14.462683 L 12.349634 14.462683 L 12.349634 15.172717 L 13.013676 16.549377 L 13.013676 13.797091 L 11.686108 13.797091 z M 12.349634 17.252177 L 12.349634 17.798397 L 13.013676 18.785933 L 13.013676 17.515727 L 12.349634 17.252177 z M 12.474691 20.180164 L 13.013676 20.973397 L 13.013676 20.35638 L 12.474691 20.180164 z M 12.349634 21.842078 L 12.349634 22.636861 L 12.933061 22.701457 L 12.349634 21.842078 z " /></g><g
       id="path3"
       transform="matrix(1.0376875,0,0,1.0376875,-0.28741034,-0.65050259)"
       style="stroke:#ffffff"><g
         id="path9"><g
           id="path1"><path
             style="color:#000000;fill:#0092da;stroke:none;-inkscape-stroke:none"
             d="m 7.6264079,6.963916 -4.7402792,9.824207 1.9859253,-0.788066 -2.5145752,3.74189 1.8329631,-0.60048 -2.7016439,3.978052 4.9681722,-0.551387 v 4.988842 h 2.3388753 v -4.988842 l 4.9676555,0.551387 -2.701127,-3.978052 1.832963,0.60048 -2.514575,-3.74189 1.985408,0.788066 z"
             id="path4" /></g></g></g></g></svg>
