<?xml version="1.0" encoding="UTF-8" standalone="no"?>
<!-- Created with Inkscape (http://www.inkscape.org/) -->

<svg
   width="32mm"
   height="32mm"
   viewBox="0 0 32 32"
   version="1.1"
   id="svg1"
   xml:space="preserve"
   inkscape:version="1.3.1 (9b9bdc1480, 2023-11-25, custom)"
   sodipodi:docname="aeroway_aerodrome.svg"
   xmlns:inkscape="http://www.inkscape.org/namespaces/inkscape"
   xmlns:sodipodi="http://sodipodi.sourceforge.net/DTD/sodipodi-0.dtd"
   xmlns="http://www.w3.org/2000/svg"
   xmlns:svg="http://www.w3.org/2000/svg"><sodipodi:namedview
     id="namedview1"
     pagecolor="#ffffff"
     bordercolor="#666666"
     borderopacity="1.0"
     inkscape:showpageshadow="2"
     inkscape:pageopacity="0.0"
     inkscape:pagecheckerboard="0"
     inkscape:deskcolor="#d1d1d1"
     inkscape:document-units="mm"
     showguides="true"
     inkscape:zoom="2.8284271"
     inkscape:cx="50.558135"
     inkscape:cy="59.9273"
     inkscape:window-width="1318"
     inkscape:window-height="719"
     inkscape:window-x="48"
     inkscape:window-y="27"
     inkscape:window-maximized="1"
     inkscape:current-layer="layer1"><sodipodi:guide
       position="12.681257,4.4432019"
       orientation="0,-1"
       id="guide3"
       inkscape:locked="false" /></sodipodi:namedview><defs
     id="defs1" /><g
     inkscape:label="Livello 1"
     inkscape:groupmode="layer"
     id="layer1"><g
       id="path10-9"><path
         style="color:#000000;fill:#e4e4e4;-inkscape-stroke:none"
         d="m 16.93963,28.54847 0.802975,-0.03344 1.60844,0.928634 1.308711,-0.350668 v -2.459773 l -2.773448,-2.608191 v -4.487611 h 1.676025 l 6.93651,2.279437 1.181751,1.081496 1.071338,0.04677 V 18.785705 L 18.017696,12.252045 17.979986,4.7711972 C 17.915326,3.8686286 16.78251,2.625994 16.0209,2.2674372 h -0.0418 c -0.76161,0.3585568 -1.894426,1.6011914 -1.959086,2.50376 l -0.03771,7.4808478 -10.7342355,6.53366 v 4.159419 l 1.0713374,-0.04677 1.1817508,-1.081496 6.9365103,-2.279437 h 1.629253 v 4.487611 l -2.726676,2.608191 v 2.459773 l 1.308711,0.350668 1.60844,-0.928634 0.802975,0.03344 0.939627,0.03344 z"
         id="path10"
         sodipodi:nodetypes="cccccccccccccccccccccccccccccccc" /><path
         style="color:#000000;fill:#0092da;-inkscape-stroke:none"
         d="m 16,28.25 -0.927734,-0.0332 -0.898438,-0.03711 -1.572265,0.90625 -0.929688,-0.248046 v -2.048829 l 2.727437,-2.609375 v -4.974609 h -2.014546 l -7.0546879,2.318359 -1.1464844,1.048829 -0.6035156,0.02539 v -3.625 L 14.314453,12.439453 14.351563,4.7949219 C 14.37478,4.4708329 14.633325,3.9645367 14.994141,3.5273438 15.316111,3.1372183 15.700985,2.8430537 16,2.671875 c 0.299015,0.1711787 0.683889,0.4653433 1.005859,0.8554688 0.360816,0.4371929 0.619361,0.9434891 0.642578,1.2675781 l 0.03711,7.6445311 10.734375,6.533203 v 3.625 l -0.603516,-0.02539 -1.146484,-1.048829 -7.054688,-2.318359 h -1.991159 v 4.974609 l 2.70405,2.609375 v 2.048829 l -0.929688,0.248046 -1.572265,-0.90625 -0.898438,0.03711 z m 0.953124,0.630859 0.707031,-0.0293 1.644531,0.949219 1.6875,-0.453125 v -2.86914 l -2.70405,-2.609375 v -4 h 1.221629 l 6.816406,2.242187 1.21875,1.113281 1.539062,0.06836 v -4.69336 L 18.349609,12.064453 18.3125,4.7578125 v -0.00977 C 18.271058,4.1695682 17.929737,3.6029204 17.517578,3.1035156 17.105419,2.6041108 16.619361,2.1820656 16.162109,1.9667969 l -0.06641,-0.03125 h -0.191402 l -0.06641,0.03125 c -0.457252,0.2152687 -0.94331,0.6373139 -1.355469,1.1367187 -0.412159,0.4994048 -0.75348,1.0660526 -0.794922,1.6445313 v 0.00977 l -0.03711,7.3066401 -10.7343754,6.535156 v 4.69336 l 1.5390625,-0.06836 1.21875,-1.113281 6.8164059,-2.242187 h 1.245016 v 4 l -2.727437,2.609375 v 2.86914 l 1.6875,0.453125 1.644531,-0.949219 0.707031,0.0293 0.95313,0.0332 0.953125,-0.0332"
         id="path11"
         sodipodi:nodetypes="cccccccccccccccscsccccccccccccccccccccccccccccccsccccsccccccccccccccccc" /></g></g></svg>
