<?xml version="1.0" encoding="UTF-8" standalone="no"?>
<!-- Created with Inkscape (http://www.inkscape.org/) -->

<svg
   width="32mm"
   height="32mm"
   viewBox="0 0 32 32"
   version="1.1"
   id="svg1"
   xml:space="preserve"
   sodipodi:docname="aeroway_helipad.svg"
   inkscape:version="1.3.1 (9b9bdc1480, 2023-11-25, custom)"
   xmlns:inkscape="http://www.inkscape.org/namespaces/inkscape"
   xmlns:sodipodi="http://sodipodi.sourceforge.net/DTD/sodipodi-0.dtd"
   xmlns="http://www.w3.org/2000/svg"
   xmlns:svg="http://www.w3.org/2000/svg"><sodipodi:namedview
     id="namedview1"
     pagecolor="#ffffff"
     bordercolor="#666666"
     borderopacity="1.0"
     inkscape:showpageshadow="2"
     inkscape:pageopacity="0.0"
     inkscape:pagecheckerboard="0"
     inkscape:deskcolor="#d1d1d1"
     inkscape:document-units="mm"
     inkscape:zoom="1.2069424"
     inkscape:cx="22.370579"
     inkscape:cy="20.299229"
     inkscape:window-width="1318"
     inkscape:window-height="719"
     inkscape:window-x="48"
     inkscape:window-y="27"
     inkscape:window-maximized="1"
     inkscape:current-layer="layer1" /><defs
     id="defs1" /><g
     inkscape:label="Livello 1"
     inkscape:groupmode="layer"
     id="layer1"><g
       id="text2"><path
         style="color:#000000;-inkscape-font-specification:Helvetica;fill:#0092db;-inkscape-stroke:none"
         d="m 20.623694,16.80144 v 8.187021 h 2.293352 V 7.011539 h -2.293352 v 7.767806 H 11.376306 V 7.011539 H 9.0829542 V 24.988461 H 11.376306 V 16.80144 Z"
         id="path3" /><path
         style="color:#000000;-inkscape-font-specification:Helvetica;fill:#0092db;-inkscape-stroke:none"
         d="m 8.7753906,6.703125 v 18.59375 h 2.9082034 v -8.1875 h 8.632812 v 8.1875 h 2.908203 V 6.703125 h -2.908203 v 7.767578 H 11.683594 V 6.703125 Z M 9.390625,7.3203125 h 1.677734 v 7.7675785 h 9.863282 V 7.3203125 h 1.677734 V 24.679687 h -1.677734 v -8.185546 h -9.863282 v 8.185546 H 9.390625 Z"
         id="path4" /></g><path
       style="color:#000000;fill:#0092db;stroke-linecap:square;-inkscape-stroke:none"
       d="M 16,1.8144531 C 8.1689356,1.8144531 1.8144531,8.1689356 1.8144531,16 1.8144531,23.831064 8.1689356,30.185547 16,30.185547 23.831064,30.185547 30.185547,23.831064 30.185547,16 30.185547,8.1689356 23.831064,1.8144531 16,1.8144531 Z m 0,0.6523438 C 23.478157,2.4667969 29.533203,8.5218427 29.533203,16 29.533203,23.478157 23.478157,29.533203 16,29.533203 8.5218427,29.533203 2.4667969,23.478157 2.4667969,16 2.4667969,8.5218427 8.5218427,2.4667969 16,2.4667969 Z"
       id="path2" /></g></svg>
