<?xml version="1.0" encoding="UTF-8" standalone="no"?>
<!-- Created with Inkscape (http://www.inkscape.org/) -->

<svg
   width="32mm"
   height="32mm"
   viewBox="0 0 32 32"
   version="1.1"
   id="svg1"
   xml:space="preserve"
   inkscape:version="1.3.1 (9b9bdc1480, 2023-11-25, custom)"
   sodipodi:docname="aeroway_airport.2.svg"
   xmlns:inkscape="http://www.inkscape.org/namespaces/inkscape"
   xmlns:sodipodi="http://sodipodi.sourceforge.net/DTD/sodipodi-0.dtd"
   xmlns="http://www.w3.org/2000/svg"
   xmlns:svg="http://www.w3.org/2000/svg"><sodipodi:namedview
     id="namedview1"
     pagecolor="#ffffff"
     bordercolor="#666666"
     borderopacity="1.0"
     inkscape:showpageshadow="2"
     inkscape:pageopacity="0.0"
     inkscape:pagecheckerboard="0"
     inkscape:deskcolor="#d1d1d1"
     inkscape:document-units="mm"
     showguides="true"
     inkscape:zoom="2.5045944"
     inkscape:cx="32.140932"
     inkscape:cy="71.269024"
     inkscape:window-width="1318"
     inkscape:window-height="719"
     inkscape:window-x="48"
     inkscape:window-y="27"
     inkscape:window-maximized="1"
     inkscape:current-layer="layer1"><sodipodi:guide
       position="16.048293,24.623743"
       orientation="1,0"
       id="guide4"
       inkscape:locked="false" /></sodipodi:namedview><defs
     id="defs1" /><g
     inkscape:label="Livello 1"
     inkscape:groupmode="layer"
     id="layer1"><path
       style="fill:#0092db;fill-opacity:1;stroke:none;stroke-width:0.513579px;stroke-linecap:butt;stroke-linejoin:miter;stroke-opacity:1"
       d="m 17.757332,9.6528559 c 0.355836,3.4225611 2.243572,3.9583681 3.807621,5.1041391 l 7.216497,4.992812 c 0.75538,0.696341 0.982425,0.886094 1.37337,2.072566 0.390943,1.186475 -0.644931,1.222911 -1.8688,0.656542 -3.731585,-1.344888 -7.318778,-2.954674 -10.278383,-3.220374 l -0.701472,6.369666 3.371375,3.220312 -0.145252,1.797409 -2.660494,-0.224151 -1.98078,-0.924758 -2.007077,0.866201 -2.665928,0.145931 -0.09241,-1.800901 3.464474,-3.119934 -0.514146,-6.387516 c -2.966144,0.178692 -6.5990536,1.682459 -10.3685186,2.917203 -1.2399715,0.530191 -2.274326,0.463353 -1.848717,-0.711131 0.4256092,-1.174483 0.6581312,-1.357487 1.433632,-2.031349 l 7.3599806,-4.77877 c 1.597018,-1.099353 3.499671,-1.579504 3.955846,-4.9901407 -0.05,-3.6574678 -0.329713,-7.0281405 1.696115,-8.2525399 1.989004,1.2833541 1.610448,4.6443585 1.453078,8.2987821 z"
       id="path2-6-3"
       sodipodi:nodetypes="ccczccccccccccccczccccc" /></g></svg>
