<?xml version="1.0" encoding="UTF-8" standalone="no"?>
<!-- Created with Inkscape (http://www.inkscape.org/) -->

<svg
   width="32mm"
   height="32mm"
   viewBox="0 0 32 32"
   version="1.1"
   id="svg1"
   xml:space="preserve"
   inkscape:version="1.3.1 (9b9bdc1480, 2023-11-25, custom)"
   sodipodi:docname="aeroway_aerodrome.2.svg"
   xmlns:inkscape="http://www.inkscape.org/namespaces/inkscape"
   xmlns:sodipodi="http://sodipodi.sourceforge.net/DTD/sodipodi-0.dtd"
   xmlns="http://www.w3.org/2000/svg"
   xmlns:svg="http://www.w3.org/2000/svg"><sodipodi:namedview
     id="namedview1"
     pagecolor="#ffffff"
     bordercolor="#666666"
     borderopacity="1.0"
     inkscape:showpageshadow="2"
     inkscape:pageopacity="0.0"
     inkscape:pagecheckerboard="0"
     inkscape:deskcolor="#d1d1d1"
     inkscape:document-units="mm"
     showguides="true"
     inkscape:zoom="2.5045944"
     inkscape:cx="100.81473"
     inkscape:cy="76.459485"
     inkscape:window-width="1318"
     inkscape:window-height="719"
     inkscape:window-x="48"
     inkscape:window-y="27"
     inkscape:window-maximized="1"
     inkscape:current-layer="layer1"><sodipodi:guide
       position="16.048293,24.623743"
       orientation="1,0"
       id="guide4"
       inkscape:locked="false" /></sodipodi:namedview><defs
     id="defs1" /><g
     inkscape:label="Livello 1"
     inkscape:groupmode="layer"
     id="layer1"><path
       id="path13"
       style="fill:#94c7e0;fill-opacity:1;stroke:#0092db;stroke-width:0.425938;stroke-linecap:butt;stroke-linejoin:miter;stroke-dasharray:none;stroke-opacity:1"
       d="m 16.074605,6.1184523 c -0.217502,0.1677289 -0.356668,0.2668319 -0.471774,0.5968285 h -2.7765 a 0.25066283,0.25066283 0 0 0 -0.250496,0.2504966 0.25066283,0.25066283 0 0 0 0.250496,0.250107 h 2.348357 C 14.740169,7.3496012 14.658641,7.5240495 14.383461,7.9101066 14.269054,8.0706118 14.141937,9.5217791 14.116213,11.486792 H 3.3522632 l 0.1157037,2.119287 5.1404391,1.459737 5.611823,0.561376 c 0.03455,0.519179 0.07743,1.041535 0.131288,1.559079 0.153546,1.475636 0.432633,3.082031 0.72266,4.520625 l -0.07597,0.03467 -4.572829,0.839534 0.195178,2.757409 h 3.978337 l 1.195994,-0.406326 c 0.171989,0.703213 0.29335,1.16327 0.29335,1.16327 0,0 0.105889,-0.470849 0.250107,-1.140285 l 1.127819,0.383341 h 3.978727 l 0.195177,-2.757409 -4.573218,-0.839534 -0.0822,-0.0374 c 0.260152,-1.437922 0.515447,-3.043167 0.6689,-4.517899 0.05386,-0.517673 0.09674,-1.040162 0.131287,-1.559468 l 5.606759,-0.560987 5.140439,-1.459736 0.115703,-2.119287 H 17.888855 C 17.863131,9.5217791 17.735624,8.0706118 17.621218,7.9101066 17.346198,7.5242747 17.342469,7.349616 16.959329,7.2158844 h 2.214343 A 0.25066283,0.25066283 0 0 0 19.424169,6.9657774 0.25066283,0.25066283 0 0 0 19.173672,6.7152808 H 16.551445 C 16.439102,6.3839267 16.281435,6.2756922 16.074605,6.1184523 Z" /></g></svg>
