<?xml version="1.0" encoding="UTF-8" standalone="no"?>
<!-- Created with Inkscape (http://www.inkscape.org/) -->

<svg
   width="32mm"
   height="32mm"
   viewBox="0 0 32 32"
   version="1.1"
   id="svg1"
   xml:space="preserve"
   inkscape:version="1.3.1 (9b9bdc1480, 2023-11-25, custom)"
   sodipodi:docname="amenity_marketplace.svg"
   xmlns:inkscape="http://www.inkscape.org/namespaces/inkscape"
   xmlns:sodipodi="http://sodipodi.sourceforge.net/DTD/sodipodi-0.dtd"
   xmlns="http://www.w3.org/2000/svg"
   xmlns:svg="http://www.w3.org/2000/svg"><sodipodi:namedview
     id="namedview1"
     pagecolor="#ffffff"
     bordercolor="#666666"
     borderopacity="1.0"
     inkscape:showpageshadow="2"
     inkscape:pageopacity="0.0"
     inkscape:pagecheckerboard="0"
     inkscape:deskcolor="#d1d1d1"
     inkscape:document-units="mm"
     showguides="true"
     inkscape:zoom="4"
     inkscape:cx="64.375"
     inkscape:cy="29.125"
     inkscape:window-width="1318"
     inkscape:window-height="719"
     inkscape:window-x="48"
     inkscape:window-y="27"
     inkscape:window-maximized="1"
     inkscape:current-layer="layer1"><sodipodi:guide
       position="30.86609,17.025411"
       orientation="1,0"
       id="guide4"
       inkscape:locked="false" /><sodipodi:guide
       position="17.727083,5.1447916"
       orientation="0,-1"
       id="guide74"
       inkscape:locked="false" /></sodipodi:namedview><defs
     id="defs1" /><g
     inkscape:label="Livello 1"
     inkscape:groupmode="layer"
     id="layer1"><g
       id="path19" /><g
       id="rect22-0"
       transform="matrix(-1,0,0,1,30.661761,0.23016813)" /><g
       id="rect22-7"
       transform="matrix(-1,0,0,1,30.845845,-1.8811487e-4)" /><g
       id="path26" /><g
       id="path52-1"
       transform="matrix(-1,0,0,1,21.996584,0)" /><path
       id="path81"
       style="color:#000000;fill:#da0092;stroke-linecap:round;-inkscape-stroke:none;fill-opacity:1"
       d="M 4.1444499 21.066414 A 0.48249999 0.48249999 0 0 0 3.6623088 21.549072 A 0.48249999 0.48249999 0 0 0 4.1444499 22.031213 L 6.1190063 22.031213 L 6.1190063 29.347563 A 0.63249999 0.63249999 0 0 0 6.7520426 29.980599 A 0.63249999 0.63249999 0 0 0 7.3845622 29.347563 L 7.3845622 22.031213 L 23.779427 22.031213 L 23.779427 29.347563 A 0.63249999 0.63249999 0 0 0 24.411947 29.980599 A 0.63249999 0.63249999 0 0 0 25.044983 29.347563 L 25.044983 22.031213 L 27.843778 22.031213 A 0.48249999 0.48249999 0 0 0 28.32592 21.549072 A 0.48249999 0.48249999 0 0 0 27.843778 21.066414 L 4.1444499 21.066414 z " /><g
       id="g90"
       style="fill:#da0092;fill-opacity:1"><path
         style="fill:#da0092;fill-opacity:1;stroke:none;stroke-width:0.219228;stroke-linecap:round;stroke-linejoin:round;stroke-dasharray:none;stroke-dashoffset:6.03213;stroke-opacity:1;paint-order:markers stroke fill"
         d="M 6.4863303,19.505202 C 5.8908478,19.129496 5.4994049,18.511521 5.1668307,17.906134 4.6346029,16.890042 4.3684648,15.635368 4.8381211,14.546242 c 0.2201362,-0.475634 0.5690001,-0.93067 1.0507847,-1.15942 0.3996779,-0.174518 0.8576488,-0.168165 1.2570452,0.0037 0.3231737,0.119354 0.6363824,0.263377 0.953595,0.39737 0.5345576,-0.192839 1.0548936,-0.445124 1.6173126,-0.543641 0.7606594,-0.01011 1.4049554,0.581629 1.6845594,1.254558 0.275687,0.646648 0.345069,1.379785 0.17454,2.063501 -0.224893,1.006347 -0.719597,1.968321 -1.459914,2.691573 C 9.7819036,19.58437 9.2631776,19.669373 8.8328426,19.49063 8.4547237,19.317582 8.0069079,19.213669 7.6183345,19.42083 7.2683556,19.559378 6.8466049,19.653951 6.4863303,19.50518 Z"
         id="path83" /><path
         style="fill:#da0092;fill-opacity:1;stroke:none;stroke-width:0.0387544;stroke-linecap:round;stroke-linejoin:round;stroke-dasharray:none;stroke-dashoffset:6.03213;stroke-opacity:1;paint-order:markers stroke fill"
         d="M 8.1098386,13.634937 C 8.0281429,13.523419 7.989019,13.388069 7.9171695,13.2707 7.8551833,13.137243 7.7696411,13.01598 7.6967256,12.889163 7.5662477,12.705467 7.4358038,12.519671 7.2650598,12.370353 7.1326918,12.227311 6.9599368,12.134064 6.7954787,12.03497 c -0.078772,-0.09897 0.036499,-0.205522 0.088464,-0.286879 0.058361,-0.09884 0.1977194,-0.144214 0.2890087,-0.06106 0.3269557,0.249182 0.5806408,0.584194 0.7672831,0.948085 0.098644,0.18496 0.1714635,0.382612 0.2392333,0.581226 0.011971,0.125226 0.094937,0.247565 0.069145,0.372182 -0.020615,0.0489 -0.099712,0.117419 -0.1387747,0.04641 z"
         id="path84" /><path
         style="fill:#da0092;fill-opacity:1;stroke:none;stroke-width:0.0387544;stroke-linecap:round;stroke-linejoin:round;stroke-dasharray:none;stroke-dashoffset:6.03213;stroke-opacity:1;paint-order:markers stroke fill"
         d="m 8.5078611,13.333104 c -0.1046328,-0.09929 0.094287,-0.23482 0.1217943,-0.342864 0.1170454,-0.178832 0.2551212,-0.346458 0.4166262,-0.486673 0.03342,-0.04439 0.198077,-0.163099 0.04854,-0.139889 -0.157208,0.08448 -0.2869627,0.212683 -0.4128299,0.338121 -0.099864,0.113679 -0.1987953,0.234621 -0.2503672,0.378491 -0.084742,0.121388 -0.165202,0.05479 -0.1457629,-0.07233 -0.00873,-0.209273 -0.00572,-0.424178 0.081206,-0.619261 0.1235307,-0.319192 0.437852,-0.516455 0.756521,-0.601095 0.222276,-0.0752 0.459101,-0.08951 0.68751,-0.138919 0.173663,0.0045 0.3450134,-0.07253 0.5076404,-0.08114 0.06758,0.11622 -0.0059,0.262566 -0.0201,0.388123 -0.06161,0.215557 -0.142723,0.427961 -0.269667,0.614589 -0.1769114,0.256607 -0.4259354,0.467183 -0.7130524,0.589984 -0.170818,0.07543 -0.355271,0.115653 -0.5370755,0.156999 -0.089363,0.01527 -0.180452,0.02079 -0.2709829,0.01586 z"
         id="path85"
         sodipodi:nodetypes="cccccccccccccccsc" /></g><g
       id="g91"
       style="fill:#da0092;fill-opacity:1"><path
         style="fill:#da0092;fill-opacity:1;stroke:none;stroke-width:0.322374;stroke-linecap:round;stroke-linejoin:round;stroke-dasharray:none;stroke-dashoffset:6.03213;stroke-opacity:1;paint-order:markers stroke fill"
         d="M 75.793008,74.818256 C 70.962496,74.249582 65.603375,71.08266 62.777516,67.126873 60.559187,64.021537 60.004582,60.568538 61.223653,57.452426 l 0.345788,-0.883884 1.228259,-1.046473 c 0.675542,-0.57556 1.459528,-1.161246 1.742191,-1.301523 0.282663,-0.140279 0.891793,-0.534608 1.353622,-0.876287 1.39931,-1.035264 3.261205,-1.8685 4.930983,-2.206715 0.47215,-0.09563 1.574399,-0.236183 2.449444,-0.312331 3.520998,-0.306402 4.078786,-0.425869 7.999145,-1.713252 4.910866,-1.612649 6.665598,-2.038768 8.415212,-2.043547 0.511249,-0.0014 0.721955,-0.05849 1.530932,-0.414823 0.91353,-0.402386 0.960871,-0.437676 1.808231,-1.347922 1.093178,-1.174306 1.639172,-1.525706 2.381459,-1.532698 0.638934,-0.006 1.084509,0.246308 1.499139,0.848952 0.213551,0.310386 0.361804,0.420007 0.7316,0.540961 2.261222,0.739609 3.034642,2.365103 1.786077,3.753804 -0.6953,0.773342 -1.306689,1.000775 -3.232656,1.202532 -0.323024,0.03384 -0.60844,0.127862 -0.795495,0.262059 -0.160447,0.115107 -0.616545,0.379018 -1.013552,0.586469 -0.714242,0.373218 -0.722461,0.381409 -0.781979,0.77928 -0.10148,0.678383 -0.462359,1.70077 -0.79711,2.258252 -0.720198,1.199386 -2.391702,3.336362 -3.767902,4.817165 -1.075075,1.156791 -1.526013,1.750093 -1.855,2.440638 -0.30439,0.638915 -0.644761,1.972753 -0.786888,3.083634 -0.314162,2.455533 -0.655869,3.49562 -1.91656,5.833631 -0.845008,1.567109 -1.322575,2.243651 -1.805972,2.55842 -0.210688,0.137192 -0.626838,0.51373 -0.924775,0.836752 -0.684579,0.742215 -1.285146,1.049188 -2.371993,1.212415 -0.848464,0.127426 -2.629933,0.142503 -3.582845,0.03032 z m 3.241876,-1.064973 c 1.193421,-0.164291 1.903525,-0.621148 2.351379,-1.512799 0.395718,-0.787851 0.531285,-1.495561 0.530087,-2.767243 -0.0016,-1.725906 -0.406024,-3.189494 -1.400657,-5.06924 -1.377817,-2.603917 -3.247007,-4.927887 -4.798367,-5.965826 -1.481729,-0.991352 -4.072266,-2.058587 -6.475723,-2.667832 -1.573186,-0.398782 -3.250672,-0.477328 -4.494976,-0.210473 -0.34164,0.07327 -0.601378,0.243209 -1.357723,0.888324 -0.903466,0.7706 -0.944036,0.820768 -1.193245,1.475502 -1.202146,3.158336 -0.357552,6.595152 2.394076,9.741954 3.592856,4.108843 9.804249,6.726516 14.445149,6.087633 z M 91.923881,50.861925 c 0.739158,-0.220901 1.900786,-0.774327 2.592682,-1.235213 0.598905,-0.398942 1.212401,-0.581005 2.224483,-0.660143 0.891577,-0.06972 1.488261,-0.301027 1.855522,-0.719314 0.681534,-0.776225 0.332626,-1.40624 -1.095482,-1.978082 -0.365333,-0.146287 -0.776634,-0.288454 -0.914002,-0.315928 -0.193388,-0.03868 -0.308935,-0.163031 -0.511938,-0.550958 -0.241873,-0.462206 -0.288333,-0.50316 -0.599902,-0.528813 -0.402,-0.0331 -0.650942,0.134993 -1.431362,0.966486 -1.211785,1.291086 -1.264334,1.329855 -2.547498,1.879411 -0.690618,0.295779 -1.271262,0.600674 -1.34662,0.707107 -0.171295,0.241931 -0.517251,1.372353 -0.442786,1.446818 0.03139,0.03139 0.23535,0.0094 0.453246,-0.04889 0.690437,-0.184664 0.651528,-0.217794 0.835759,0.711632 0.05541,0.279528 0.14764,0.508809 0.204961,0.509513 0.05732,7.04e-4 0.382642,-0.08193 0.722937,-0.183626 z"
         id="path86"
         transform="scale(0.26458333)" /><path
         style="fill:#da0092;fill-opacity:1;stroke:none;stroke-width:0.141334;stroke-linecap:round;stroke-linejoin:round;stroke-dasharray:none;stroke-dashoffset:6.03213;stroke-opacity:1;paint-order:markers stroke fill"
         d="m 17.549512,16.29315 c 0,-0.05598 0.196255,-0.141321 0.389558,-0.16941 0.417337,-0.06064 0.789694,0.134269 0.97066,0.508094 0.08317,0.171811 0.08276,0.17812 0.01423,0.230041 -1.10304,0.835743 -1.374453,-0.368394 -1.374453,-0.568725 z"
         id="path87"
         sodipodi:nodetypes="sssss" /></g><path
       id="path88"
       style="color:#000000;fill:#da0092;fill-opacity:1;-inkscape-stroke:none"
       d="m 15.544788,1.7911051 -0.611333,0.00207 0.602548,0.00362 z m -0.0088,0.00568 -0.0026,0.00155 L 5.880747,1.8556961 5.84199,2.0412145 C 5.341687,4.4648319 4.0303648,6.7326229 1.7208252,8.3751994 l -0.099735,0.07028 0.00207,0.1229899 c 0.012662,0.6867319 0.4229662,1.230086 0.999939,1.5781977 0.5769728,0.348114 1.3251756,0.527321 2.1032308,0.550354 1.440289,0.04264 2.9374412,-0.524505 3.6349202,-1.6991205 0.271717,0.4839654 0.5769128,0.8912362 0.9436117,1.0898555 0.4413959,0.239078 0.5835168,0.310889 1.3983651,0.304891 1.153844,-2.32e-4 1.860633,-0.6291544 2.232422,-1.5740637 0.68669,1.0787071 1.604549,1.6670087 2.722314,1.5740637 1.117998,0.09317 2.036033,-0.4951902 2.72283,-1.5740637 0.371789,0.9449093 1.078578,1.5738317 2.232422,1.5740637 0.814847,0.006 0.956969,-0.06581 1.398364,-0.304891 0.366699,-0.1986193 0.671895,-0.6058901 0.943613,-1.0898555 0.697479,1.1746155 2.194631,1.7417605 3.63492,1.6991205 0.778054,-0.02303 1.526259,-0.20224 2.103231,-0.550354 0.576972,-0.3481117 0.987309,-0.8914658 0.999939,-1.5781977 l 0.0021,-0.1229899 -0.09973,-0.07028 C 27.28607,6.7326229 25.974748,4.4648319 25.474414,2.0412191 l -0.03876,-0.1855184 -9.652641,-0.057361 -0.0026,-0.00155 -0.122473,5.167e-4 z m 0.244429,0 0.602547,-0.00362 -0.611332,-0.00207 z m -2.396236,0.4785237 c -0.0387,2.1660775 -0.419293,4.6260332 -0.70435,6.0724976 l 0.0047,0.00103 -0.0088,0.034106 C 12.214179,10.209497 10.535111,10.22523 9.5275838,9.6795125 9.1882551,9.4957181 8.8875822,9.2104432 8.6377157,8.6775065 L 8.7818929,8.3400594 C 9.6791311,7.0710063 10.214566,4.9479063 10.314099,2.2939168 Z m 4.548043,0 3.070097,0.018603 c 0.09953,2.6539895 0.634968,4.7770895 1.532206,6.0461426 l 0.144177,0.3374471 C 22.428852,9.2104432 22.12818,9.4957181 21.788851,9.6795125 20.781324,10.22523 19.102256,10.209497 18.640723,8.3829508 l -0.0088,-0.034106 0.0047,-0.00103 C 18.351532,6.9013465 17.970939,4.4413908 17.932239,2.2753133 Z"
       sodipodi:nodetypes="cccccccccccsccscccccscsscccccccccccccccccccsccccccccsccc" /></g></svg>
