<?xml version="1.0" encoding="UTF-8" standalone="no"?>
<!-- Created with Inkscape (http://www.inkscape.org/) -->

<svg
   width="32mm"
   height="32mm"
   viewBox="0 0 32 32"
   version="1.1"
   id="svg1"
   xml:space="preserve"
   inkscape:version="1.3.1 (9b9bdc1480, 2023-11-25, custom)"
   sodipodi:docname="amenity_fountain.svg"
   xmlns:inkscape="http://www.inkscape.org/namespaces/inkscape"
   xmlns:sodipodi="http://sodipodi.sourceforge.net/DTD/sodipodi-0.dtd"
   xmlns="http://www.w3.org/2000/svg"
   xmlns:svg="http://www.w3.org/2000/svg"><sodipodi:namedview
     id="namedview1"
     pagecolor="#ffffff"
     bordercolor="#666666"
     borderopacity="1.0"
     inkscape:showpageshadow="2"
     inkscape:pageopacity="0.0"
     inkscape:pagecheckerboard="0"
     inkscape:deskcolor="#d1d1d1"
     inkscape:document-units="mm"
     showguides="true"
     inkscape:zoom="0.70710678"
     inkscape:cx="-133.64318"
     inkscape:cy="-4.9497475"
     inkscape:window-width="1318"
     inkscape:window-height="719"
     inkscape:window-x="48"
     inkscape:window-y="27"
     inkscape:window-maximized="1"
     inkscape:current-layer="layer1"><sodipodi:guide
       position="16.225336,-14.837615"
       orientation="1,0"
       id="guide4"
       inkscape:locked="false" /></sodipodi:namedview><defs
     id="defs1" /><g
     inkscape:label="Livello 1"
     inkscape:groupmode="layer"
     id="layer1"><g
       id="path19" /><g
       id="rect22-0"
       transform="matrix(-1,0,0,1,30.661761,0.23016813)" /><g
       id="rect22-7"
       transform="matrix(-1,0,0,1,30.845845,-1.8811487e-4)" /><g
       id="path26" /><g
       id="path52-1"
       transform="matrix(-1,0,0,1,21.996584,0)" /><path
       id="rect64"
       style="fill:#734a08;fill-opacity:1;stroke:none;stroke-width:0.273;stroke-linecap:round;stroke-linejoin:round;stroke-dasharray:none;stroke-dashoffset:6.03213;stroke-opacity:1;paint-order:markers fill stroke"
       d="M 16.376778 2.7404012 A 0.53250003 0.53250003 0 0 0 15.845544 3.2731852 L 15.845544 17.050639 C 15.522096 16.096004 15.12166 14.986631 14.683341 13.855485 C 14.100934 12.352497 13.452703 10.812267 12.824023 9.5451538 C 12.195344 8.2780416 11.635704 7.2987225 11.025167 6.8259399 C 10.495011 6.4154026 9.9228107 6.2205145 9.3725545 6.3494832 C 8.8222982 6.478452 8.3638714 6.8885363 7.9468018 7.4899821 C 7.1126625 8.6928736 6.371077 10.747725 5.5133586 13.70304 A 0.38249999 0.38249999 0 0 0 5.773291 14.177946 A 0.38249999 0.38249999 0 0 0 6.2476807 13.915946 C 7.0982802 10.985159 7.8577258 8.9630597 8.5757039 7.9276815 C 8.934693 7.4099923 9.2647342 7.161779 9.5467041 7.0956909 C 9.8286739 7.029603 10.134746 7.1029612 10.556462 7.4295207 C 10.897796 7.6938399 11.526167 8.6509496 12.138277 9.884668 C 12.750389 11.118386 13.393431 12.644533 13.970207 14.132987 C 14.490241 15.475014 14.95128 16.773901 15.29519 17.822168 C 15.217801 17.697544 15.139162 17.572278 15.056445 17.445447 C 14.658035 16.834566 14.204228 16.21165 13.745931 15.695166 C 13.287635 15.178681 12.834882 14.764483 12.365137 14.582056 C 11.943302 14.418233 11.534222 14.362186 11.151774 14.476636 C 10.769327 14.591085 10.440959 14.866599 10.148218 15.273486 C 9.5627357 16.087263 9.0673889 17.458221 8.4470296 19.595703 A 0.27672851 0.27672851 0 0 0 8.6361654 19.939351 A 0.27672851 0.27672851 0 0 0 8.9782633 19.750216 C 9.5938264 17.62926 10.101664 16.284824 10.597286 15.595947 C 10.845097 15.251511 11.076645 15.078291 11.311971 15.007869 C 11.547297 14.93745 11.815222 14.961697 12.165666 15.097786 C 12.468198 15.215277 12.900165 15.576502 13.331486 16.062585 C 13.762807 16.54867 14.203692 17.153864 14.591357 17.748271 C 14.970521 18.329639 15.297654 18.897242 15.522567 19.336287 L 14.94069 19.336287 C 14.67903 19.336287 14.468368 20.057438 14.468368 20.952726 L 14.468368 21.020939 C 14.468368 21.235055 14.481081 21.438878 14.502991 21.625553 L 11.794112 21.625553 C 11.532452 21.625553 11.32179 22.346187 11.32179 23.241475 L 11.32179 23.327775 C 11.32179 23.792599 11.37888 24.209127 11.470101 24.503414 L 9.7497925 24.503414 C 9.4881314 24.503414 9.2774699 25.21941 9.2774699 26.109001 C 9.2774699 26.725342 9.3789559 27.258076 9.5281006 27.527519 L 3.670577 27.527519 C 3.637688 27.527519 3.6090371 27.534621 3.5780762 27.538371 C 3.5561022 27.539771 3.5345206 27.541822 3.5134806 27.546122 L 3.5129639 27.546122 C 3.4864809 27.551722 3.4636183 27.559656 3.4395833 27.567826 C 3.4319033 27.570726 3.4243287 27.573828 3.4168457 27.577128 C 3.3093757 27.618848 3.2288919 27.682317 3.2065226 27.760579 C 3.1619527 27.832709 3.1357259 27.917778 3.1357259 28.009143 L 3.1357259 28.523324 C 3.1357259 28.784985 3.3463868 28.995646 3.6080485 28.995646 L 4.7986735 28.995646 C 5.0603351 28.995646 5.2709961 28.784985 5.2709961 28.523324 L 5.2709961 28.087174 L 7.0424642 28.087174 L 7.0424642 28.523324 C 7.0424642 28.784985 7.2531251 28.995646 7.5147868 28.995646 L 8.7054118 28.995646 C 8.9670735 28.995646 9.1777344 28.784985 9.1777344 28.523324 L 9.1777344 28.087174 L 12.069548 28.087174 L 12.069548 28.523324 C 12.069548 28.784985 12.280208 28.995646 12.54187 28.995646 L 13.732495 28.995646 C 13.994157 28.995646 14.204818 28.784985 14.204818 28.523324 L 14.204818 28.087174 L 17.625798 28.087174 L 17.625798 28.523324 C 17.625798 28.784985 17.836458 28.995646 18.09812 28.995646 L 19.288745 28.995646 C 19.550407 28.995646 19.761068 28.784985 19.761068 28.523324 L 19.761068 28.087174 L 23.259562 28.087174 L 23.259562 28.523324 C 23.259562 28.784985 23.470223 28.995646 23.731885 28.995646 L 24.92251 28.995646 C 25.184172 28.995646 25.394832 28.784985 25.394832 28.523324 L 25.394832 28.087174 L 27.150798 28.087174 L 27.150798 28.523324 C 27.150798 28.784985 27.361458 28.995646 27.62312 28.995646 L 28.813745 28.995646 C 29.075407 28.995646 29.286068 28.784985 29.286068 28.523324 L 29.286068 28.009143 C 29.286068 27.747481 29.075407 27.53682 28.813745 27.53682 L 28.557947 27.53682 C 28.531207 27.53402 28.506992 27.527519 28.478882 27.527519 L 22.958805 27.527519 C 23.107948 27.258076 23.209436 26.725342 23.209436 26.109001 C 23.209436 25.21941 22.998773 24.503414 22.737113 24.503414 L 21.050395 24.503414 C 21.141615 24.209127 21.198706 23.792599 21.198706 23.327775 L 21.198706 23.241475 C 21.198706 22.346187 20.988043 21.625553 20.726383 21.625553 L 18.136361 21.625553 C 18.158271 21.438878 18.170984 21.235055 18.170984 21.020939 L 18.170984 20.952726 C 18.170984 20.057438 17.960321 19.336287 17.698661 19.336287 L 17.132804 19.336287 C 17.357717 18.897239 17.684842 18.32965 18.064014 17.748271 C 18.451679 17.153864 18.892566 16.54867 19.323885 16.062585 C 19.755207 15.576502 20.187173 15.215277 20.489705 15.097786 C 20.840148 14.961691 21.108075 14.937448 21.3434 15.007869 C 21.578727 15.078289 21.810275 15.251511 22.058085 15.595947 C 22.553707 16.284824 23.061545 17.62926 23.677108 19.750216 A 0.27672851 0.27672851 0 0 0 24.019206 19.939351 A 0.27672851 0.27672851 0 0 0 24.208341 19.595703 C 23.587981 17.458221 23.093153 16.087263 22.50767 15.273486 C 22.214929 14.866599 21.886045 14.591085 21.503597 14.476636 C 21.12115 14.362186 20.712586 14.418226 20.290751 14.582056 C 19.821007 14.764483 19.368253 15.178681 18.909957 15.695166 C 18.451661 16.21165 17.999403 16.834566 17.600993 17.445447 C 17.516813 17.574521 17.436904 17.702118 17.358114 17.828886 C 17.702225 16.779538 18.164041 15.477824 18.685164 14.132987 C 19.26194 12.644533 19.904984 11.118386 20.517094 9.884668 C 21.129205 8.6509496 21.758092 7.6938399 22.099426 7.4295207 C 22.521141 7.1029563 22.827214 7.0296031 23.109184 7.0956909 C 23.391154 7.1617789 23.720679 7.4099922 24.079667 7.9276815 C 24.797645 8.9630597 25.55709 10.985159 26.40769 13.915946 A 0.38249999 0.38249999 0 0 0 26.882597 14.177946 A 0.38249999 0.38249999 0 0 0 27.142013 13.70304 C 26.284299 10.747804 25.542709 8.6928736 24.708569 7.4899821 C 24.291499 6.8885363 23.833072 6.478452 23.282817 6.3494832 C 22.732559 6.2205145 22.16036 6.4154027 21.630204 6.8259399 C 21.019666 7.2987225 20.460543 8.2780416 19.831864 9.5451538 C 19.203184 10.812267 18.554436 12.352497 17.97203 13.855485 C 17.575747 14.878149 17.215078 15.87443 16.909562 16.763318 L 16.909562 3.2731852 A 0.53250003 0.53250003 0 0 0 16.376778 2.7404012 z " /></g></svg>
