<?xml version="1.0" encoding="UTF-8" standalone="no"?>
<!-- Created with Inkscape (http://www.inkscape.org/) -->

<svg
   width="32mm"
   height="32mm"
   viewBox="0 0 32 32"
   version="1.1"
   id="svg1"
   xml:space="preserve"
   inkscape:version="1.3.1 (9b9bdc1480, 2023-11-25, custom)"
   sodipodi:docname="amenity_dentist.16.svg"
   xmlns:inkscape="http://www.inkscape.org/namespaces/inkscape"
   xmlns:sodipodi="http://sodipodi.sourceforge.net/DTD/sodipodi-0.dtd"
   xmlns="http://www.w3.org/2000/svg"
   xmlns:svg="http://www.w3.org/2000/svg"><sodipodi:namedview
     id="namedview1"
     pagecolor="#ffffff"
     bordercolor="#666666"
     borderopacity="1.0"
     inkscape:showpageshadow="2"
     inkscape:pageopacity="0.0"
     inkscape:pagecheckerboard="0"
     inkscape:deskcolor="#d1d1d1"
     inkscape:document-units="mm"
     showguides="true"
     inkscape:zoom="2.8284271"
     inkscape:cx="0"
     inkscape:cy="39.421203"
     inkscape:window-width="1318"
     inkscape:window-height="719"
     inkscape:window-x="48"
     inkscape:window-y="27"
     inkscape:window-maximized="1"
     inkscape:current-layer="layer1"><sodipodi:guide
       position="16.225336,-14.837615"
       orientation="1,0"
       id="guide4"
       inkscape:locked="false" /></sodipodi:namedview><defs
     id="defs1" /><g
     inkscape:label="Livello 1"
     inkscape:groupmode="layer"
     id="layer1"><g
       id="path19" /><g
       id="rect22-0"
       transform="matrix(-1,0,0,1,30.661761,0.23016813)" /><g
       id="rect22-7"
       transform="matrix(-1,0,0,1,30.845845,-1.8811487e-4)" /><g
       id="path26" /><path
       id="path31"
       style="fill:#da0092;fill-opacity:1;stroke:none;stroke-width:0.264583px;stroke-linecap:butt;stroke-linejoin:miter;stroke-opacity:1"
       d="M 8.8640011,1.972152 C 7.3462191,2.014645 6.2828021,3.4295746 6.4548458,4.8319257 6.0681533,8.2525941 8.4275672,10.348815 8.4330196,16.58573 c 0.1217475,3.007995 -0.080077,8.434824 0.3188436,9.808704 0.398921,1.37388 1.5035318,2.559509 2.3466268,3.141927 0.843095,0.582418 1.834128,0.870723 1.761649,-0.393775 C 12.582441,27.59324 12.225832,26.044743 12.128401,24.464319 11.785931,20.963547 10.882824,17.847583 16,17.84707 c 5.117176,-5.13e-4 4.079693,3.729238 3.872114,6.617249 -0.09743,1.580424 -0.454557,3.128921 -0.732255,4.678267 -0.07248,1.264498 0.918554,0.976193 1.76165,0.393775 0.843096,-0.582418 1.713125,-1.662364 2.346627,-3.141927 0.633502,-1.479563 0.197096,-6.800709 0.318843,-9.808704 0.0055,-6.236915 2.364867,-8.3331359 1.978174,-11.7538043 C 25.717197,3.4295746 24.653779,2.0146449 23.135998,1.972152 19.335053,1.865738 18.801881,3.6748952 16,3.6214529 13.198118,3.5680106 12.664944,1.865738 8.8640011,1.972152 Z"
       sodipodi:nodetypes="scczzcczcczzccszs" /></g></svg>
