<?xml version="1.0" encoding="UTF-8" standalone="no"?>
<!-- Created with Inkscape (http://www.inkscape.org/) -->

<svg
   width="32mm"
   height="32mm"
   viewBox="0 0 32 32"
   version="1.1"
   id="svg1"
   xml:space="preserve"
   inkscape:version="1.3.1 (9b9bdc1480, 2023-11-25, custom)"
   sodipodi:docname="amenity_fast_food.svg"
   xmlns:inkscape="http://www.inkscape.org/namespaces/inkscape"
   xmlns:sodipodi="http://sodipodi.sourceforge.net/DTD/sodipodi-0.dtd"
   xmlns="http://www.w3.org/2000/svg"
   xmlns:svg="http://www.w3.org/2000/svg"><sodipodi:namedview
     id="namedview1"
     pagecolor="#ffffff"
     bordercolor="#666666"
     borderopacity="1.0"
     inkscape:showpageshadow="2"
     inkscape:pageopacity="0.0"
     inkscape:pagecheckerboard="0"
     inkscape:deskcolor="#d1d1d1"
     inkscape:document-units="mm"
     showguides="true"
     inkscape:zoom="1.4142136"
     inkscape:cx="6.0104075"
     inkscape:cy="26.516504"
     inkscape:window-width="1318"
     inkscape:window-height="719"
     inkscape:window-x="48"
     inkscape:window-y="27"
     inkscape:window-maximized="1"
     inkscape:current-layer="layer1"><sodipodi:guide
       position="16.225336,-14.837615"
       orientation="1,0"
       id="guide4"
       inkscape:locked="false" /></sodipodi:namedview><defs
     id="defs1" /><g
     inkscape:label="Livello 1"
     inkscape:groupmode="layer"
     id="layer1"><g
       id="path19" /><g
       id="rect22-0"
       transform="matrix(-1,0,0,1,30.661761,0.23016813)" /><g
       id="rect22-7"
       transform="matrix(-1,0,0,1,30.845845,-1.8811487e-4)" /><g
       id="path26" /><g
       id="path52-1"
       transform="matrix(-1,0,0,1,21.996584,0)" /><path
       id="path60"
       style="fill:#734a08;fill-opacity:1;stroke:none;stroke-width:0.264583px;stroke-linecap:butt;stroke-linejoin:miter;stroke-opacity:1"
       d="M 28.117147 3.1248739 A 0.63249999 0.63249999 0 0 0 27.396261 3.6540405 L 26.600444 8.849589 L 24.996407 8.849589 L 22.630143 8.849589 L 17.962728 8.849589 L 20.900016 25.570015 L 23.463684 25.570015 L 24.162349 25.570015 L 26.726534 25.570015 L 29.663822 8.849589 L 27.879952 8.849589 L 28.646313 3.8457601 A 0.63249999 0.63249999 0 0 0 28.117147 3.1248739 z " /><path
       id="rect59"
       style="fill:#734a08;fill-opacity:1;stroke:none;stroke-width:0.273;stroke-linecap:round;stroke-linejoin:round;stroke-dasharray:none;stroke-dashoffset:6.03213;stroke-opacity:1;paint-order:markers fill stroke"
       d="m 9.1624301,13.637944 c -3.3432714,0 -6.0348652,1.818444 -6.0348652,4.076875 v 0.985559 H 19.243539 v -0.985559 c 0,-2.258431 -2.691593,-4.076875 -6.034865,-4.076875 z m 1.3561529,0.674879 c 0.737591,0.737936 -0.07177,1.13505 -0.234272,0.810865 -0.162503,-0.324188 0.234272,-0.810865 0.234272,-0.810865 z m -2.8728634,0.270288 c 0,0 0.1892967,0.612444 -0.035679,0.929347 -0.2249754,0.316901 -0.7789454,-0.286518 0.035679,-0.929347 z m 8.0867664,0.02457 c 1.025968,0.155691 0.842709,0.954119 0.490423,0.789995 -0.352286,-0.164123 -0.490423,-0.789995 -0.490423,-0.789995 z m -2.61503,0.659732 c 0.67596,0.787353 0.01618,1.273135 -0.143727,0.918912 -0.159903,-0.35422 0.143727,-0.918912 0.143727,-0.918912 z m -7.8487914,0.779224 c 0,0 0.1896312,0.612448 -0.035343,0.929347 -0.2249738,0.316905 -0.7792796,-0.286519 0.035343,-0.929347 z M 15.53423,16.804995 c 0.675961,0.787354 0.01618,1.273133 -0.143728,0.918912 -0.159905,-0.354222 0.143728,-0.918912 0.143728,-0.918912 z m -6.5882328,0.0239 c 0,0 0.3036333,0.56469 0.1437278,0.918913 -0.1599062,0.354217 -0.8196812,-0.131562 -0.1437278,-0.918913 z m 8.7367368,0.224174 c 0.814629,0.642833 0.260319,1.246252 0.03534,0.929348 -0.224975,-0.316905 -0.03534,-0.929348 -0.03534,-0.929348 z m -14.5009769,6.52495 c 0.1049719,0.538998 0.3686751,1.407879 0.7519599,1.858357 h 14.50367 c 0.383343,-0.450491 0.64732,-1.319338 0.752297,-1.858357 z" /><rect
       style="fill:#734a08;fill-opacity:1;stroke:none;stroke-width:0.17261;stroke-linecap:round;stroke-linejoin:round;stroke-dasharray:none;stroke-dashoffset:6.03213;stroke-opacity:1;paint-order:markers fill stroke"
       id="rect60"
       width="17.539427"
       height="1.6554277"
       x="2.3239238"
       y="20.365879"
       rx="0.30764529"
       ry="1.6554277" /></g></svg>
