<?xml version="1.0" encoding="UTF-8" standalone="no"?>
<!-- Created with Inkscape (http://www.inkscape.org/) -->

<svg
   width="32mm"
   height="32mm"
   viewBox="0 0 32 32"
   version="1.1"
   id="svg1"
   xml:space="preserve"
   inkscape:version="1.3.1 (9b9bdc1480, 2023-11-25, custom)"
   sodipodi:docname="amenity_university.svg"
   xmlns:inkscape="http://www.inkscape.org/namespaces/inkscape"
   xmlns:sodipodi="http://sodipodi.sourceforge.net/DTD/sodipodi-0.dtd"
   xmlns="http://www.w3.org/2000/svg"
   xmlns:svg="http://www.w3.org/2000/svg"><sodipodi:namedview
     id="namedview1"
     pagecolor="#ffffff"
     bordercolor="#666666"
     borderopacity="1.0"
     inkscape:showpageshadow="2"
     inkscape:pageopacity="0.0"
     inkscape:pagecheckerboard="0"
     inkscape:deskcolor="#d1d1d1"
     inkscape:document-units="mm"
     showguides="true"
     inkscape:zoom="2"
     inkscape:cx="40.25"
     inkscape:cy="70.75"
     inkscape:window-width="1318"
     inkscape:window-height="719"
     inkscape:window-x="48"
     inkscape:window-y="27"
     inkscape:window-maximized="1"
     inkscape:current-layer="layer1"
     showgrid="false"><sodipodi:guide
       position="21.324843,29.746031"
       orientation="0,-1"
       id="guide8"
       inkscape:locked="false" /><sodipodi:guide
       position="18.475006,31.999999"
       orientation="0,-1"
       id="guide9"
       inkscape:locked="false" /><sodipodi:guide
       position="2.4878345,30.738227"
       orientation="1,0"
       id="guide36"
       inkscape:locked="false" /><sodipodi:guide
       position="29.485911,9.5526053"
       orientation="1,0"
       id="guide37"
       inkscape:locked="false" /><sodipodi:guide
       position="8.9802559,1.7851799"
       orientation="0,-1"
       id="guide38"
       inkscape:locked="false" /><sodipodi:guide
       position="12.464872,5.3716509"
       orientation="0,-1"
       id="guide45"
       inkscape:locked="false" /><sodipodi:guide
       position="13.141317,16.005627"
       orientation="0,-1"
       id="guide46"
       inkscape:locked="false" /><sodipodi:guide
       position="4.794147,15.442652"
       orientation="1,0"
       id="guide47"
       inkscape:locked="false" /><sodipodi:guide
       position="27.174628,16.05069"
       orientation="1,0"
       id="guide48"
       inkscape:locked="false" /></sodipodi:namedview><defs
     id="defs1"><inkscape:perspective
       sodipodi:type="inkscape:persp3d"
       inkscape:vp_x="-183.11487 : 148.50001 : 1"
       inkscape:vp_y="0 : 1000 : 0"
       inkscape:vp_z="-195.51426 : 148.50001 : 1"
       inkscape:persp3d-origin="-189.31457 : 99.000003 : 1"
       id="perspective10172" /><symbol
       id="Recycling"><title
         id="title7498">Recycling</title><g
         style="stroke:none"
         id="g7512"><path
           style="stroke-width:0.26458332"
           inkscape:connector-curvature="0"
           d="m 14.684375,3.9026042 -1.389063,0.79375 -0.926041,-1.5875 C 12.236979,2.8773437 11.972396,2.7119792 11.608594,2.7119792 H 8.8304687 C 9.0289062,2.9104167 9.0619792,2.9765625 9.1611979,3.1419271 L 10.88099,6.1184896 9.4919271,6.9122396 H 12.93151 Z"
           id="path7500" /><path
           style="stroke-width:0.26458332"
           inkscape:connector-curvature="0"
           d="m 14.254427,12.038542 h 1.389063 c 0.826822,0 1.322916,-0.892969 0.926041,-1.5875 l -1.752864,-3.069167 -2.38125,1.3890625 z"
           id="path7502" /><path
           style="stroke-width:0.26458332"
           inkscape:connector-curvature="0"
           d="m 12.170833,17.065625 v -1.5875 h 1.852084 c 0.264583,0 0.529166,-0.132292 0.727604,-0.463021 l 1.389062,-2.38125 C 15.875,12.7 15.775781,12.7 15.610417,12.7 h -3.439584 v -1.5875 l -1.719791,2.976562 z"
           id="path7504" /><path
           style="stroke-width:0.26458332"
           inkscape:connector-curvature="0"
           d="m 5.3578125,12.7 -0.6945313,1.190625 c -0.396875,0.727604 0.099219,1.5875 0.8929688,1.5875 H 9.0619792 V 12.7 Z"
           id="path7506" /><path
           style="stroke-width:0.26458332"
           inkscape:connector-curvature="0"
           d="m 2.0505208,8.4005208 1.3890625,0.79375 -0.9260416,1.5875002 C 2.38125,11.013281 2.38125,11.310937 2.5466146,11.641667 l 1.3559896,2.38125 c 0.066146,-0.264584 0.099219,-0.33073 0.1984375,-0.496094 L 5.8208333,10.55026 7.2098958,11.34401 5.4901042,8.3674479 Z"
           id="path7508" /><path
           style="stroke-width:0.26458332"
           inkscape:connector-curvature="0"
           d="M 9.2604167,4.6302083 8.5989583,3.4395833 c -0.4299479,-0.6945312 -1.4221354,-0.6945312 -1.8190104,0 l -1.7528646,3.0427084 2.38125,1.3890625 z"
           id="path7510" /></g></symbol><inkscape:perspective
       id="perspective8310"
       inkscape:persp3d-origin="372.04724 : 350.7874 : 1"
       inkscape:vp_z="744.09447 : 526.18111 : 1"
       inkscape:vp_y="0 : 1000 : 0"
       inkscape:vp_x="0 : 526.18111 : 1"
       sodipodi:type="inkscape:persp3d" /><inkscape:perspective
       id="perspective5302"
       inkscape:persp3d-origin="372.04724 : 350.7874 : 1"
       inkscape:vp_z="744.09447 : 526.18111 : 1"
       inkscape:vp_y="0 : 1000 : 0"
       inkscape:vp_x="0 : 526.18111 : 1"
       sodipodi:type="inkscape:persp3d" /><symbol
       id="ToiletsMen"><title
         id="title4892">Toilets - Men</title><g
         style="stroke:none"
         id="g4898"><circle
           cx="36"
           cy="9"
           r="5"
           id="circle4894" /><path
           d="m 24,22 v 15.5 a 2.25,2.25 0 0 0 4.5,0 V 23 h 1 v 39.5 a 3,3 0 0 0 6,0 V 40 h 1 v 22.5 a 3,3 0 0 0 6,0 V 23 h 1 v 14.5 a 2.25,2.25 0 0 0 4.5,0 V 22 A 7,7 0 0 0 41,15 H 31 a 7,7 0 0 0 -7,7 z"
           id="path4896"
           inkscape:connector-curvature="0" /></g></symbol><inkscape:perspective
       sodipodi:type="inkscape:persp3d"
       inkscape:vp_x="0 : 100 : 1"
       inkscape:vp_y="0 : 1000 : 0"
       inkscape:vp_z="200 : 100 : 1"
       inkscape:persp3d-origin="100 : 66.666667 : 1"
       id="perspective2879" /></defs><g
     inkscape:label="Livello 1"
     inkscape:groupmode="layer"
     id="layer1"><g
       id="path19" /><g
       id="rect22-0"
       transform="matrix(-1,0,0,1,30.661761,0.23016813)" /><g
       id="rect22-7"
       transform="matrix(-1,0,0,1,30.845845,-1.8811487e-4)" /><g
       id="path26" /><g
       id="path52"
       transform="translate(-38.081357,-6.611757)" /><g
       id="path52-1"
       transform="matrix(-1,0,0,1,21.996584,0)" /><g
       id="path19-0"
       transform="translate(3.6443103,6.1232351)" /><g
       id="rect22-0-8"
       transform="matrix(-1,0,0,1,34.306071,6.3534032)" /><g
       id="rect22-7-5"
       transform="matrix(-1,0,0,1,34.490155,6.123047)" /><g
       id="path26-0"
       transform="translate(3.6443103,6.1232351)" /><g
       id="path52-1-6"
       transform="matrix(-1,0,0,1,25.640894,6.1232351)" /><g
       id="path7-6"
       transform="translate(-27.436615,5.5770687)" /><g
       id="g40-6-7"
       transform="translate(0.115617,-0.13948398)" /><rect
       style="fill:#39ac39;fill-opacity:1;stroke:none;stroke-width:0.491376;stroke-linecap:round;stroke-linejoin:round;stroke-dasharray:none;stroke-dashoffset:0;stroke-opacity:1;paint-order:markers fill stroke"
       id="rect57"
       width="16.708675"
       height="14.879058"
       x="30.727545"
       y="18.092331"
       ry="0"
       transform="matrix(1,0,-0.90100533,0.43380802,0,0)" /><path
       id="path57"
       style="fill:#39ac39;fill-opacity:1;stroke:none;stroke-width:0.365001;stroke-linecap:round;stroke-linejoin:round;stroke-dasharray:none;stroke-dashoffset:0;stroke-opacity:1;paint-order:markers fill stroke"
       d="m 24.46724,11.556917 -6.415112,3.18792 H 9.4697062 c -1.2937157,1.581198 -2.2039504,3.368224 -2.653068,5.398636 6.3711518,-2.668238 8.5844898,-2.513095 13.6192078,-0.259547 1.727516,-3.184034 4.822328,-4.145438 8.220286,-4.614057 -1.112719,-1.552464 -2.544514,-2.821579 -4.188892,-3.712952 z"
       sodipodi:nodetypes="ccccccc" /><path
       id="path59"
       style="fill:#39ac39;fill-opacity:1;stroke:none;stroke-width:1.4889;stroke-linecap:round;stroke-linejoin:round;stroke-dasharray:none;stroke-dashoffset:0;stroke-opacity:1;paint-order:markers fill stroke"
       d="m 6.1407896,23.080518 c -0.491948,0.749934 -0.2363724,1.71942 0.5942549,2.25423 -0.094006,-0.13663 -0.1785787,-0.296771 -0.2563262,-0.503398 -0.2291193,-0.438978 -0.2027485,-0.947717 0.070809,-1.366034 0.4700573,-0.71404 1.5111342,-0.958052 2.3259206,-0.545158 0.2628275,0.134388 0.4799714,0.327993 0.6289043,0.560722 l 0.016627,-0.0046 0.017939,0.05373 -1.116e-4,0.0021 c 0.098328,0.170457 0.1585586,0.355832 0.177415,0.546085 l 0.1239036,0.380706 C 10.064523,23.708097 9.6653074,22.902068 8.8680369,22.496244 7.8977773,22.004232 6.6768422,22.265799 6.1407896,23.080518 Z"
       sodipodi:nodetypes="ccccccccccccc"
       inkscape:transform-center-x="-0.03710163"
       inkscape:transform-center-y="-0.23256069" /><path
       id="path61"
       style="fill:#39ac39;fill-opacity:1;stroke:none;stroke-width:1.4889;stroke-linecap:round;stroke-linejoin:round;stroke-dasharray:none;stroke-dashoffset:0;stroke-opacity:1;paint-order:markers fill stroke"
       d="m 6.6586282,23.648022 c -0.2523167,0.385808 -0.2766862,0.855013 -0.065437,1.259911 0.2771077,0.736468 0.6489264,0.835836 1.2488436,1.496776 0.6983552,0.76939 1.0710332,0.97262 0.9143873,1.577436 -0.1495211,0.577307 -0.3365296,0.91403 0.00635,0.544199 0.00185,-0.0076 0.00281,-0.01567 0.00459,-0.01835 0.019399,-0.02958 0.083702,-0.172434 0.1259776,-0.251743 0.042314,-0.07929 0.053037,-0.227558 0.066543,-0.338499 0.013503,-0.11095 -0.010705,-0.232743 -0.021902,-0.351191 C 8.9267866,27.448106 8.9032976,27.310969 8.8819746,27.240992 8.8606436,27.171012 8.7877497,27.045556 8.7733845,26.986091 8.7590135,26.926621 8.619863,26.752343 8.523643,26.601627 8.0887724,25.920458 8.0971068,25.819696 7.9455494,25.512123 c 0.1111889,0.11737 0.7561944,1.115155 0.7773301,1.160599 0.021148,0.04545 0.2151091,0.412838 0.2151091,0.412838 0,0 0.060317,0.350131 0.061186,0.386137 8.699e-4,0.03601 0.066649,0.695728 0.066649,0.695728 0.1578087,-0.456781 -0.019384,-1.484286 -0.1596895,-1.973068 L 8.413152,25.076714 c 0,0 0.5097104,0.717354 0.6369788,1.448028 l 0.1865158,0.816117 0.053626,0.542058 c 0.00362,-0.0048 0.007,-0.0094 0.010605,-0.0142 0.025952,-0.06397 0.1981296,-0.496189 0.1634855,-0.636538 -0.037334,-0.151276 -0.2561236,-0.699091 -0.2523134,-0.995531 0.00381,-0.296442 -0.064149,-0.640673 -0.2256516,-0.833527 -0.161503,-0.192852 -0.5504086,-0.818495 -0.5504086,-0.818495 0,0 0.9276984,0.963814 0.911562,1.142789 -0.016126,0.178977 0.013091,0.57918 0.013091,0.57918 l 0.051419,0.434267 0.1900144,0.383762 -0.043441,0.324097 c 0,0 0.1500735,-0.203816 0.1744756,-0.355578 0.024395,-0.151767 0.024557,-0.231781 0.00229,-0.446198 C 9.7131374,26.432527 9.6577938,26.32667 9.6825833,26.079176 9.7073714,25.831681 9.749256,25.707062 9.6331263,25.504402 9.5170079,25.301742 9.337175,25.09723 9.229521,24.912125 9.121859,24.727016 8.8598773,24.413278 8.8598773,24.413278 c 0,0 -0.028042,-0.06198 0.1748372,0.114826 0.2028918,0.176827 0.4406041,0.421638 0.5124717,0.575665 0.071864,0.154025 0.1986251,0.44038 0.1986251,0.44038 0,0 0.05779,0.312193 0.082582,0.456609 0.024795,0.144421 0.030207,0.452435 0.082335,0.55118 0.015343,0.02906 0.036492,0.06664 0.058678,0.10488 0.027016,-0.440055 -0.068754,-1.455347 -0.068754,-1.455347 L 9.5799983,24.213719 C 9.5626168,24.037973 9.5069676,23.86674 9.416069,23.709307 l -3.911e-4,-0.0013 -0.015839,-0.04939 -0.015224,0.0043 C 9.2472237,23.448055 9.0468114,23.269317 8.8042029,23.145276 8.0526336,22.764347 7.0922627,22.989394 6.6586348,23.648056 Z"
       inkscape:transform-center-x="-0.35266888"
       inkscape:transform-center-y="1.7968226"
       sodipodi:nodetypes="ccsscccsscsscccsccccccccsscccccccsscsccscsscccccccccc" /><path
       id="path62"
       style="color:#000000;fill:#39ac39;stroke-linecap:round;-inkscape-stroke:none;fill-opacity:1"
       d="m 6.6068319,14.419275 c -0.055837,-0.002 -0.1116418,0.0048 -0.1653646,0.02015 -0.2826553,0.08095 -0.4462087,0.375674 -0.3653524,0.658357 0.2581203,0.902406 8.14e-4,1.709577 -0.4981608,2.519227 -0.4989748,0.80965 -1.235704,1.566769 -1.822111,2.248441 -0.2932035,0.340837 -0.5517276,0.659255 -0.7265706,1.009758 -0.1748432,0.350502 -0.2653784,0.816502 -0.040824,1.216463 0.2245543,0.399959 0.6329971,0.616361 1.1678873,0.77928 0.4501879,0.13712 1.0226981,0.236758 1.7595826,0.311609 C 6.0753467,22.786771 6.4371595,22.444011 6.8534154,22.350197 6.7639236,22.213565 6.598504,22.176063 6.4357829,22.161955 5.5256497,22.087155 4.8768321,21.976235 4.4669108,21.851379 4.0569894,21.726525 3.927728,21.587397 3.9181071,21.57026 3.9084871,21.55312 3.887157,21.540104 3.9821859,21.349601 4.0772148,21.1591 4.2904526,20.877096 4.5645793,20.558435 5.1128326,19.921114 5.8983744,19.126469 6.4843587,18.175635 7.070343,17.224802 7.4591593,16.061037 7.099825,14.804781 7.0363097,14.583083 6.8373037,14.427466 6.6068319,14.419275 Z"
       sodipodi:nodetypes="cccssssscccssssscc" /></g></svg>
