<?xml version="1.0" encoding="UTF-8" standalone="no"?>
<!-- Created with Inkscape (http://www.inkscape.org/) -->

<svg
   width="32mm"
   height="32mm"
   viewBox="0 0 32 32"
   version="1.1"
   id="svg1"
   xml:space="preserve"
   inkscape:version="1.3.1 (9b9bdc1480, 2023-11-25, custom)"
   sodipodi:docname="amenity_restaurant.svg"
   xmlns:inkscape="http://www.inkscape.org/namespaces/inkscape"
   xmlns:sodipodi="http://sodipodi.sourceforge.net/DTD/sodipodi-0.dtd"
   xmlns="http://www.w3.org/2000/svg"
   xmlns:svg="http://www.w3.org/2000/svg"><sodipodi:namedview
     id="namedview1"
     pagecolor="#ffffff"
     bordercolor="#666666"
     borderopacity="1.0"
     inkscape:showpageshadow="2"
     inkscape:pageopacity="0.0"
     inkscape:pagecheckerboard="0"
     inkscape:deskcolor="#d1d1d1"
     inkscape:document-units="mm"
     showguides="true"
     inkscape:zoom="2"
     inkscape:cx="-11"
     inkscape:cy="76.25"
     inkscape:window-width="1318"
     inkscape:window-height="719"
     inkscape:window-x="48"
     inkscape:window-y="27"
     inkscape:window-maximized="1"
     inkscape:current-layer="layer1"
     showgrid="false"><sodipodi:guide
       position="21.324843,29.746031"
       orientation="0,-1"
       id="guide8"
       inkscape:locked="false" /><sodipodi:guide
       position="18.475006,31.999999"
       orientation="0,-1"
       id="guide9"
       inkscape:locked="false" /></sodipodi:namedview><defs
     id="defs1"><inkscape:perspective
       sodipodi:type="inkscape:persp3d"
       inkscape:vp_x="-183.11487 : 148.50001 : 1"
       inkscape:vp_y="0 : 1000 : 0"
       inkscape:vp_z="-195.51426 : 148.50001 : 1"
       inkscape:persp3d-origin="-189.31457 : 99.000003 : 1"
       id="perspective10172" /><symbol
       id="Recycling"><title
         id="title7498">Recycling</title><g
         style="stroke:none"
         id="g7512"><path
           style="stroke-width:0.26458332"
           inkscape:connector-curvature="0"
           d="m 14.684375,3.9026042 -1.389063,0.79375 -0.926041,-1.5875 C 12.236979,2.8773437 11.972396,2.7119792 11.608594,2.7119792 H 8.8304687 C 9.0289062,2.9104167 9.0619792,2.9765625 9.1611979,3.1419271 L 10.88099,6.1184896 9.4919271,6.9122396 H 12.93151 Z"
           id="path7500" /><path
           style="stroke-width:0.26458332"
           inkscape:connector-curvature="0"
           d="m 14.254427,12.038542 h 1.389063 c 0.826822,0 1.322916,-0.892969 0.926041,-1.5875 l -1.752864,-3.069167 -2.38125,1.3890625 z"
           id="path7502" /><path
           style="stroke-width:0.26458332"
           inkscape:connector-curvature="0"
           d="m 12.170833,17.065625 v -1.5875 h 1.852084 c 0.264583,0 0.529166,-0.132292 0.727604,-0.463021 l 1.389062,-2.38125 C 15.875,12.7 15.775781,12.7 15.610417,12.7 h -3.439584 v -1.5875 l -1.719791,2.976562 z"
           id="path7504" /><path
           style="stroke-width:0.26458332"
           inkscape:connector-curvature="0"
           d="m 5.3578125,12.7 -0.6945313,1.190625 c -0.396875,0.727604 0.099219,1.5875 0.8929688,1.5875 H 9.0619792 V 12.7 Z"
           id="path7506" /><path
           style="stroke-width:0.26458332"
           inkscape:connector-curvature="0"
           d="m 2.0505208,8.4005208 1.3890625,0.79375 -0.9260416,1.5875002 C 2.38125,11.013281 2.38125,11.310937 2.5466146,11.641667 l 1.3559896,2.38125 c 0.066146,-0.264584 0.099219,-0.33073 0.1984375,-0.496094 L 5.8208333,10.55026 7.2098958,11.34401 5.4901042,8.3674479 Z"
           id="path7508" /><path
           style="stroke-width:0.26458332"
           inkscape:connector-curvature="0"
           d="M 9.2604167,4.6302083 8.5989583,3.4395833 c -0.4299479,-0.6945312 -1.4221354,-0.6945312 -1.8190104,0 l -1.7528646,3.0427084 2.38125,1.3890625 z"
           id="path7510" /></g></symbol><inkscape:perspective
       id="perspective8310"
       inkscape:persp3d-origin="372.04724 : 350.7874 : 1"
       inkscape:vp_z="744.09447 : 526.18111 : 1"
       inkscape:vp_y="0 : 1000 : 0"
       inkscape:vp_x="0 : 526.18111 : 1"
       sodipodi:type="inkscape:persp3d" /><inkscape:perspective
       id="perspective5302"
       inkscape:persp3d-origin="372.04724 : 350.7874 : 1"
       inkscape:vp_z="744.09447 : 526.18111 : 1"
       inkscape:vp_y="0 : 1000 : 0"
       inkscape:vp_x="0 : 526.18111 : 1"
       sodipodi:type="inkscape:persp3d" /><symbol
       id="ToiletsMen"><title
         id="title4892">Toilets - Men</title><g
         style="stroke:none"
         id="g4898"><circle
           cx="36"
           cy="9"
           r="5"
           id="circle4894" /><path
           d="m 24,22 v 15.5 a 2.25,2.25 0 0 0 4.5,0 V 23 h 1 v 39.5 a 3,3 0 0 0 6,0 V 40 h 1 v 22.5 a 3,3 0 0 0 6,0 V 23 h 1 v 14.5 a 2.25,2.25 0 0 0 4.5,0 V 22 A 7,7 0 0 0 41,15 H 31 a 7,7 0 0 0 -7,7 z"
           id="path4896"
           inkscape:connector-curvature="0" /></g></symbol></defs><g
     inkscape:label="Livello 1"
     inkscape:groupmode="layer"
     id="layer1"><g
       id="path19" /><g
       id="rect22-0"
       transform="matrix(-1,0,0,1,30.661761,0.23016813)" /><g
       id="rect22-7"
       transform="matrix(-1,0,0,1,30.845845,-1.8811487e-4)" /><g
       id="path26" /><g
       id="path52"
       transform="translate(-38.081357,-6.611757)" /><g
       id="path52-1"
       transform="matrix(-1,0,0,1,21.996584,0)" /><path
       id="path9"
       style="fill:#774d0b;fill-opacity:1;stroke:none;stroke-width:0.467359;stroke-linecap:round;stroke-dashoffset:6.03213;paint-order:markers fill stroke"
       d="m 23.583706,1.6379825 c -0.216332,-0.1355575 -4.206365,5.9272897 -4.418263,6.2350247 -0.603442,0.8763602 -0.866047,2.1175673 -0.81931,2.6076158 0.108981,1.142673 -0.168743,2.130058 -1.153616,4.099254 -0.0246,0.04926 -0.05494,0.104339 -0.08086,0.154944 0,0 -0.101684,0.245472 -0.167454,0.374072 -1.360461,2.660095 -5.191742,7.974089 -8.1553469,11.311638 -0.3685922,0.4151 -0.6684027,1.039781 -0.6951172,1.448733 -0.024245,0.371164 0.1501391,0.921865 0.3810919,1.203637 0.3709093,0.452527 1.1987003,0.710851 1.7093802,0.533473 0.605289,-0.21025 0.789943,-0.382414 1.155077,-1.078403 0.184364,-0.351411 0.395125,-0.809322 0.46825,-1.017421 0.372148,-1.059074 1.273109,-3.215526 1.976054,-4.729705 1.240623,-2.672365 1.617275,-3.40654 2.901908,-5.655046 0.83186,-1.456017 1.207076,-1.926079 1.207076,-1.926079 1.28459,-2.005755 2.075464,-2.691031 3.206969,-3.184566 0.304999,-0.133032 1.424334,-0.958561 1.829762,-1.884221 C 23.079681,9.7875927 24.018545,8.012587 24.635792,6.824504 26.28502,3.6500444 26.3725,3.3248583 26.249419,3.2515855 26.187636,3.214805 25.247174,4.650891 24.113497,6.513574 22.371506,9.3757513 22.062392,9.8260575 21.903921,9.7317159 21.747322,9.6384892 22.002233,9.1098056 23.602963,6.2096425 25.103541,3.4909327 25.452996,2.7774576 25.321437,2.6991385 25.188006,2.6197036 24.767492,3.2394231 23.130817,5.928563 21.388825,8.7907412 21.079715,9.2410486 20.921241,9.1467058 20.762767,9.052363 20.998708,8.5586236 22.697055,5.6703353 23.808768,3.7797004 24.618707,2.2762292 24.499446,2.2224624 24.380213,2.1686512 23.952725,2.7172178 22.285365,5.4252479 20.618007,8.1332783 20.165917,8.6970458 19.93856,8.5616941 19.779389,8.4669358 20.062644,7.9340725 21.747002,5.1047484 23.239892,2.597046 23.737601,1.734444 23.58371,1.6379853 Z" /><path
       id="path11"
       style="fill:#774d0b;fill-opacity:1;stroke:none;stroke-width:0.330473;stroke-linecap:round;stroke-dashoffset:6.03213;paint-order:markers fill stroke"
       d="M 7.1799235 2.6949259 C 7.0640796 2.6881775 6.9697342 2.7635575 6.8352417 2.8546061 C 6.2463826 3.2532517 6.4353566 5.1011885 7.3029134 7.4264201 C 7.7464521 8.6151986 9.6698448 11.360437 11.215853 13.011609 C 12.946973 14.860504 13.889994 15.938441 14.964461 17.389119 C 15.234402 16.97233 15.500388 16.553033 15.759762 16.129248 C 15.798621 16.059324 15.837966 15.987982 15.877067 15.917891 C 15.172275 14.78096 14.666773 13.82298 14.383618 13.064319 C 13.72514 11.300018 13.357507 10.70761 10.491866 6.7882161 C 8.070921 3.477043 7.5274552 2.7151714 7.1799235 2.6949259 z M 16.999996 17.631482 C 16.719557 18.117272 16.448274 18.60841 16.185575 19.104777 C 16.3936 19.406511 16.606741 19.718293 16.8429 20.066475 C 19.010645 23.262513 19.932115 24.87926 20.983215 27.334249 C 21.689725 28.984399 21.923836 29.361016 22.430672 29.662272 C 23.011034 30.00723 23.515062 30.018965 24.093103 29.701546 C 24.446349 29.507561 24.606803 29.35347 24.777816 29.043188 C 25.017161 28.608915 25.018087 28.007587 24.7804 27.460856 C 24.70363 27.2842 24.245262 26.716344 23.76134 26.197884 C 22.4338 24.775544 21.115132 23.182164 19.366777 20.888131 C 18.456128 19.693259 17.674286 18.613892 16.999996 17.631482 z " /></g></svg>
