<?xml version="1.0" encoding="UTF-8" standalone="no"?>
<!-- Created with Inkscape (http://www.inkscape.org/) -->

<svg
   width="32mm"
   height="32mm"
   viewBox="0 0 32 32"
   version="1.1"
   id="svg1"
   xml:space="preserve"
   inkscape:version="1.3.1 (9b9bdc1480, 2023-11-25, custom)"
   sodipodi:docname="amenity_toilets_disabled.svg"
   xmlns:inkscape="http://www.inkscape.org/namespaces/inkscape"
   xmlns:sodipodi="http://sodipodi.sourceforge.net/DTD/sodipodi-0.dtd"
   xmlns="http://www.w3.org/2000/svg"
   xmlns:svg="http://www.w3.org/2000/svg"><sodipodi:namedview
     id="namedview1"
     pagecolor="#ffffff"
     bordercolor="#666666"
     borderopacity="1.0"
     inkscape:showpageshadow="2"
     inkscape:pageopacity="0.0"
     inkscape:pagecheckerboard="0"
     inkscape:deskcolor="#d1d1d1"
     inkscape:document-units="mm"
     showguides="true"
     inkscape:zoom="2.8284271"
     inkscape:cx="74.246212"
     inkscape:cy="83.615377"
     inkscape:window-width="1318"
     inkscape:window-height="719"
     inkscape:window-x="48"
     inkscape:window-y="27"
     inkscape:window-maximized="1"
     inkscape:current-layer="layer1"
     showgrid="false"><sodipodi:guide
       position="21.324843,29.746031"
       orientation="0,-1"
       id="guide8"
       inkscape:locked="false" /><sodipodi:guide
       position="18.475006,31.999999"
       orientation="0,-1"
       id="guide9"
       inkscape:locked="false" /><sodipodi:guide
       position="2.4878345,30.738227"
       orientation="1,0"
       id="guide36"
       inkscape:locked="false" /><sodipodi:guide
       position="30.218447,18.979044"
       orientation="1,0"
       id="guide37"
       inkscape:locked="false" /><sodipodi:guide
       position="8.9802559,1.7851799"
       orientation="0,-1"
       id="guide38"
       inkscape:locked="false" /></sodipodi:namedview><defs
     id="defs1"><inkscape:perspective
       sodipodi:type="inkscape:persp3d"
       inkscape:vp_x="-183.11487 : 148.50001 : 1"
       inkscape:vp_y="0 : 1000 : 0"
       inkscape:vp_z="-195.51426 : 148.50001 : 1"
       inkscape:persp3d-origin="-189.31457 : 99.000003 : 1"
       id="perspective10172" /><symbol
       id="Recycling"><title
         id="title7498">Recycling</title><g
         style="stroke:none"
         id="g7512"><path
           style="stroke-width:0.26458332"
           inkscape:connector-curvature="0"
           d="m 14.684375,3.9026042 -1.389063,0.79375 -0.926041,-1.5875 C 12.236979,2.8773437 11.972396,2.7119792 11.608594,2.7119792 H 8.8304687 C 9.0289062,2.9104167 9.0619792,2.9765625 9.1611979,3.1419271 L 10.88099,6.1184896 9.4919271,6.9122396 H 12.93151 Z"
           id="path7500" /><path
           style="stroke-width:0.26458332"
           inkscape:connector-curvature="0"
           d="m 14.254427,12.038542 h 1.389063 c 0.826822,0 1.322916,-0.892969 0.926041,-1.5875 l -1.752864,-3.069167 -2.38125,1.3890625 z"
           id="path7502" /><path
           style="stroke-width:0.26458332"
           inkscape:connector-curvature="0"
           d="m 12.170833,17.065625 v -1.5875 h 1.852084 c 0.264583,0 0.529166,-0.132292 0.727604,-0.463021 l 1.389062,-2.38125 C 15.875,12.7 15.775781,12.7 15.610417,12.7 h -3.439584 v -1.5875 l -1.719791,2.976562 z"
           id="path7504" /><path
           style="stroke-width:0.26458332"
           inkscape:connector-curvature="0"
           d="m 5.3578125,12.7 -0.6945313,1.190625 c -0.396875,0.727604 0.099219,1.5875 0.8929688,1.5875 H 9.0619792 V 12.7 Z"
           id="path7506" /><path
           style="stroke-width:0.26458332"
           inkscape:connector-curvature="0"
           d="m 2.0505208,8.4005208 1.3890625,0.79375 -0.9260416,1.5875002 C 2.38125,11.013281 2.38125,11.310937 2.5466146,11.641667 l 1.3559896,2.38125 c 0.066146,-0.264584 0.099219,-0.33073 0.1984375,-0.496094 L 5.8208333,10.55026 7.2098958,11.34401 5.4901042,8.3674479 Z"
           id="path7508" /><path
           style="stroke-width:0.26458332"
           inkscape:connector-curvature="0"
           d="M 9.2604167,4.6302083 8.5989583,3.4395833 c -0.4299479,-0.6945312 -1.4221354,-0.6945312 -1.8190104,0 l -1.7528646,3.0427084 2.38125,1.3890625 z"
           id="path7510" /></g></symbol><inkscape:perspective
       id="perspective8310"
       inkscape:persp3d-origin="372.04724 : 350.7874 : 1"
       inkscape:vp_z="744.09447 : 526.18111 : 1"
       inkscape:vp_y="0 : 1000 : 0"
       inkscape:vp_x="0 : 526.18111 : 1"
       sodipodi:type="inkscape:persp3d" /><inkscape:perspective
       id="perspective5302"
       inkscape:persp3d-origin="372.04724 : 350.7874 : 1"
       inkscape:vp_z="744.09447 : 526.18111 : 1"
       inkscape:vp_y="0 : 1000 : 0"
       inkscape:vp_x="0 : 526.18111 : 1"
       sodipodi:type="inkscape:persp3d" /><symbol
       id="ToiletsMen"><title
         id="title4892">Toilets - Men</title><g
         style="stroke:none"
         id="g4898"><circle
           cx="36"
           cy="9"
           r="5"
           id="circle4894" /><path
           d="m 24,22 v 15.5 a 2.25,2.25 0 0 0 4.5,0 V 23 h 1 v 39.5 a 3,3 0 0 0 6,0 V 40 h 1 v 22.5 a 3,3 0 0 0 6,0 V 23 h 1 v 14.5 a 2.25,2.25 0 0 0 4.5,0 V 22 A 7,7 0 0 0 41,15 H 31 a 7,7 0 0 0 -7,7 z"
           id="path4896"
           inkscape:connector-curvature="0" /></g></symbol><inkscape:perspective
       sodipodi:type="inkscape:persp3d"
       inkscape:vp_x="0 : 100 : 1"
       inkscape:vp_y="0 : 1000 : 0"
       inkscape:vp_z="200 : 100 : 1"
       inkscape:persp3d-origin="100 : 66.666667 : 1"
       id="perspective2879" /></defs><g
     inkscape:label="Livello 1"
     inkscape:groupmode="layer"
     id="layer1"><path
       style="font-weight:bold;font-size:10.5833px;line-height:1.25;font-family:Ubuntu;-inkscape-font-specification:'Ubuntu Bold';fill:#734a08;stroke-width:0.264583"
       d="m 19.401216,3.2262612 q 0.127,0.433915 0.275166,0.984247 0.15875,0.539748 0.328082,1.12183 0.179916,0.5820807 0.359833,1.1641624 0.179916,0.5820807 0.349248,1.0794957 0.137583,-0.539748 0.275166,-1.1747457 0.148166,-0.6349977 0.275166,-1.3123284 0.127,-0.677331 0.243416,-1.344079 0.126999,-0.677331 0.232832,-1.301746 h 1.714495 q -0.370415,1.841494 -0.857247,3.7359044 -0.476249,1.8944097 -1.037164,3.5983216 H 20.046798 Q 19.676382,8.7613263 19.327133,7.6500793 18.977884,6.5282506 18.639219,5.4064212 18.300553,6.5282506 17.961887,7.6500793 17.623222,8.7613263 17.252806,9.7773232 H 15.739395 Q 15.17848,8.0734113 14.691648,6.1790016 14.215399,4.2845912 13.844984,2.4430972 h 1.788578 q 0.105833,0.624415 0.232832,1.301746 0.127,0.666748 0.264583,1.344079 0.137583,0.6773307 0.275165,1.3123284 0.148167,0.6349977 0.296333,1.1747457 0.190499,-0.518581 0.370415,-1.1006627 0.179916,-0.5820807 0.349249,-1.1641624 0.169333,-0.582081 0.306916,-1.12183 0.148166,-0.539748 0.264582,-0.96308 z m 8.350221,6.699228 q -1.788577,0 -2.730491,-0.9948299 -0.93133,-0.994831 -0.93133,-2.8257407 0,-0.9101634 0.285749,-1.6192444 0.285749,-0.719665 0.783164,-1.206496 0.497415,-0.497416 1.185329,-0.751415 0.687915,-0.253999 1.492246,-0.253999 0.465665,0 0.846664,0.07408 0.380998,0.0635 0.666747,0.15875 0.28575,0.08467 0.476249,0.179916 0.190499,0.09525 0.275166,0.148166 l -0.476249,1.333496 q -0.338665,-0.179916 -0.793747,-0.306916 -0.444499,-0.127 -1.015997,-0.127 -0.380999,0 -0.751414,0.127 -0.359832,0.127 -0.645582,0.412749 -0.275165,0.275165 -0.444498,0.719664 -0.169333,0.444499 -0.169333,1.0794964 0,0.5079977 0.105833,0.9524967 0.116416,0.433915 0.359832,0.751414 0.253999,0.317499 0.656165,0.507998 0.402165,0.179916 0.973663,0.179916 0.359833,0 0.645582,-0.04233 0.285749,-0.04233 0.507998,-0.09525 0.222249,-0.0635 0.391582,-0.137582 0.169333,-0.07408 0.306916,-0.137583 l 0.455082,1.322912 q -0.349249,0.211666 -0.984247,0.3809989 -0.634998,0.169333 -1.471079,0.169333 z"
       id="text36"
       aria-label="WC" /><g
       id="path19" /><g
       id="rect22-0"
       transform="matrix(-1,0,0,1,30.661761,0.23016813)" /><g
       id="rect22-7"
       transform="matrix(-1,0,0,1,30.845845,-1.8811487e-4)" /><g
       id="path26" /><g
       id="path52"
       transform="translate(-38.081357,-6.611757)" /><g
       id="path52-1"
       transform="matrix(-1,0,0,1,21.996584,0)" /><g
       id="path19-0"
       transform="translate(3.6443103,6.1232351)" /><g
       id="rect22-0-8"
       transform="matrix(-1,0,0,1,34.306071,6.3534032)" /><g
       id="rect22-7-5"
       transform="matrix(-1,0,0,1,34.490155,6.123047)" /><g
       id="path26-0"
       transform="translate(3.6443103,6.1232351)" /><g
       id="path52-1-6"
       transform="matrix(-1,0,0,1,25.640894,6.1232351)" /><g
       id="path7-6"
       transform="translate(-27.436615,5.5770687)" /><path
       id="path94"
       style="fill:#734a08;fill-opacity:1;stroke:none;stroke-width:0.169069;stroke-linecap:round;stroke-linejoin:round;stroke-dasharray:none;stroke-dashoffset:6.03213;stroke-opacity:1;paint-order:markers stroke fill"
       d="m 10.824696,6.9378704 c -0.537687,0 -0.649392,0.022288 -0.9988701,0.1993643 -0.4897036,0.2481259 -0.9351978,0.7345131 -1.1164851,1.2190483 -0.2746588,0.7340935 -0.1308834,1.697558 0.33816,2.266597 0.2326061,0.28219 0.8191391,0.682971 1.1413802,0.779997 0.127744,0.03847 0.45923,0.06292 0.736706,0.05425 0.893223,-0.02795 1.630518,-0.51363 2.010004,-1.324024 C 13.1856,9.5992121 13.184198,8.7814118 12.932213,8.2395929 12.707612,7.7566273 12.294656,7.343293 11.809944,7.1160439 11.4872,6.9647323 11.338928,6.9378586 10.824636,6.9378586 Z m 0.07117,5.4936056 c -0.78336,-0.02509 -1.4836925,0.403979 -1.8663809,1.181328 l -0.2201749,0.44704 0.00398,3.716225 0.00398,3.71641 0.2164579,0.439792 c 0.2571644,0.522376 0.6372956,0.861864 1.1772419,1.051639 0.3479,0.122285 0.566246,0.13175 3.05087,0.13175 h 2.676289 l 1.34465,2.66756 c 1.445516,2.867462 1.640907,3.166367 2.157717,3.303 0.345832,0.09143 0.34901,0.09147 0.699173,0.01085 0.616071,-0.141947 1.014025,-0.64846 1.029529,-1.310649 0.0079,-0.337592 -0.05868,-0.491491 -1.124473,-2.59881 -0.623042,-1.23201 -1.360083,-2.678875 -1.637614,-3.215333 -0.852888,-1.648597 -0.682752,-1.57006 -3.412068,-1.576157 l -2.085255,-0.0047 -0.02007,-0.420468 -0.02007,-0.420471 1.701762,-0.0051 c 1.094945,-0.0034 1.795147,-0.03333 1.963553,-0.08416 0.589436,-0.17793 0.899167,-0.969241 0.568182,-1.451477 -0.353423,-0.514931 -0.324132,-0.50852 -2.377893,-0.530651 l -1.840926,-0.01988 -0.02098,-1.762704 -0.02082,-1.762703 -0.240984,-0.437191 c -0.281037,-0.509858 -0.655095,-0.825898 -1.153135,-0.973799 -0.186738,-0.05546 -0.371985,-0.08544 -0.552761,-0.09122 z m -3.3973909,3.872669 -0.2203615,0.04292 c -0.3807484,0.07401 -1.4091115,0.611222 -1.9722857,1.030458 -1.3369257,0.995227 -2.3514463,2.554402 -2.6943161,4.140967 -0.2464649,1.140478 -0.1869745,2.546969 0.1542051,3.64878 0.1977106,0.638474 0.7257311,1.660367 1.1276307,2.182431 1.1387471,1.479219 2.7746219,2.44573 4.6147645,2.726643 1.6009029,0.24439 3.4635639,-0.157126 4.8068819,-1.036405 0.573876,-0.375633 1.319066,-1.045481 1.710863,-1.53788 0.388695,-0.488501 0.877544,-1.299774 0.877544,-1.456318 0,-0.05891 -0.166697,-0.439602 -0.370488,-0.845955 l -0.370668,-0.73875 h -0.390558 -0.39074 l -0.1557,0.386841 c -0.593754,1.474127 -1.798254,2.589336 -3.299657,3.055326 -0.432046,0.134082 -0.6398,0.155879 -1.4462831,0.15125 -0.8366041,-0.0047 -1.0013075,-0.02562 -1.475824,-0.186355 C 7.1454314,27.577409 6.6509522,27.264025 5.9814012,26.586806 4.9593989,25.5531 4.5187815,24.49881 4.516535,23.082023 4.5158938,22.675055 4.551178,22.190844 4.5949475,22.005858 4.9269197,20.60268 5.756633,19.461602 6.9904923,18.711591 l 0.4708234,-0.286136 0.018591,-1.060744 z" /></g></svg>
