<?xml version="1.0" encoding="UTF-8" standalone="no"?>
<!-- Created with Inkscape (http://www.inkscape.org/) -->

<svg
   width="32mm"
   height="32mm"
   viewBox="0 0 32 32"
   version="1.1"
   id="svg1"
   xml:space="preserve"
   inkscape:version="1.3.1 (9b9bdc1480, 2023-11-25, custom)"
   sodipodi:docname="amenity_fast_food.16.2.svg"
   xmlns:inkscape="http://www.inkscape.org/namespaces/inkscape"
   xmlns:sodipodi="http://sodipodi.sourceforge.net/DTD/sodipodi-0.dtd"
   xmlns="http://www.w3.org/2000/svg"
   xmlns:svg="http://www.w3.org/2000/svg"><sodipodi:namedview
     id="namedview1"
     pagecolor="#ffffff"
     bordercolor="#666666"
     borderopacity="1.0"
     inkscape:showpageshadow="2"
     inkscape:pageopacity="0.0"
     inkscape:pagecheckerboard="0"
     inkscape:deskcolor="#d1d1d1"
     inkscape:document-units="mm"
     showguides="true"
     inkscape:zoom="2.8284272"
     inkscape:cx="58.689861"
     inkscape:cy="78.665627"
     inkscape:window-width="1318"
     inkscape:window-height="719"
     inkscape:window-x="48"
     inkscape:window-y="27"
     inkscape:window-maximized="1"
     inkscape:current-layer="layer1"><sodipodi:guide
       position="16.225336,-14.837615"
       orientation="1,0"
       id="guide4"
       inkscape:locked="false" /></sodipodi:namedview><defs
     id="defs1" /><g
     inkscape:label="Livello 1"
     inkscape:groupmode="layer"
     id="layer1"><g
       id="path19" /><g
       id="rect22-0"
       transform="matrix(-1,0,0,1,30.661761,0.23016813)" /><g
       id="rect22-7"
       transform="matrix(-1,0,0,1,30.845845,-1.8811487e-4)" /><g
       id="path26" /><g
       id="path52-1"
       transform="matrix(-1,0,0,1,21.996584,0)" /><path
       id="rect59"
       style="fill:#734a08;fill-opacity:1;stroke:none;stroke-width:0.265;stroke-linecap:round;stroke-linejoin:round;stroke-dasharray:none;stroke-dashoffset:6.03213;stroke-opacity:1;paint-order:markers fill stroke"
       d="m 12.868982,7.2765584 c -5.1327545,0 -9.2650676,2.7917926 -9.2650676,6.2590496 v 1.513086 H 28.346073 v -1.513086 c 0,-3.467257 -4.132311,-6.2590496 -9.265067,-6.2590496 z m 2.082043,1.0361125 C 16.083412,9.4455868 14.84084,10.055259 14.591357,9.5575562 14.341878,9.0598478 14.951025,8.3126709 14.951025,8.3126709 Z m -4.410583,0.4149617 c 0,0 0.290619,0.9402606 -0.05478,1.4267864 -0.345395,0.486519 -1.1958758,-0.4398834 0.05478,-1.4267864 z m 12.415263,0.037724 C 24.530819,9.0043815 24.24948,10.230174 23.70863,9.9782023 23.167786,9.7262324 22.955705,8.7653564 22.955705,8.7653566 Z m -4.014742,1.0128581 c 1.037767,1.2087843 0.02484,1.9545883 -0.220659,1.4107663 -0.245487,-0.543814 0.220659,-1.4107663 0.220659,-1.4107663 z M 6.8910522,10.974524 c 0,0 0.2911306,0.940269 -0.05426,1.426786 -0.3453911,0.48653 -1.1963879,-0.439886 0.05426,-1.426786 z m 15.7602788,1.16427 c 1.037768,1.208786 0.02484,1.954581 -0.220659,1.410767 -0.245496,-0.543823 0.220659,-1.410767 0.220659,-1.410767 z m -10.114629,0.03669 c 0,0 0.466155,0.866945 0.220659,1.410767 -0.245497,0.54381 -1.258411,-0.201986 -0.220659,-1.410767 z m 13.413135,0.344165 c 1.250659,0.986908 0.399655,1.913311 0.05426,1.426787 -0.34539,-0.48653 -0.05426,-1.426787 -0.05426,-1.426787 z M 3.6871134,22.537126 c 0.1611583,0.827495 0.5660139,2.161461 1.1544515,2.853055 H 22.233785 l 0.0026,0.572575 c 0.0034,0.843531 0.628087,1.595769 1.468644,1.595769 H 23.8125 c 0.840557,0 1.472038,-0.752238 1.468644,-1.595769 l -0.0021,-0.572575 h 1.829346 c 0.588525,-0.691614 0.993802,-2.025528 1.154968,-2.853055 h -3.486609 c 2.5e-5,8.65e-4 -3.3e-5,0.0017 0,0.0026 h -0.217041 l 0.01395,3.423047 c 0.0015,0.364498 -0.231387,0.889869 -0.457337,0.889869 H 23.40112 c -0.22595,0 -0.455871,-0.525371 -0.457337,-0.889869 l -0.01344,-3.423047 h -0.184485 c 3.3e-5,-8.61e-4 -2.4e-5,-0.0017 0,-0.0026 h -3.243212 v 0.307992 c 0,0.604019 -0.442151,1.090372 -0.991154,1.090372 h -0.02532 c -0.549004,0 -0.991154,-0.486353 -0.991154,-1.090372 v -0.307992 h -6.691581 v 1.330971 c 0,0.604018 -0.442151,1.090372 -0.991154,1.090372 H 9.786961 c -0.5490031,0 -0.9906372,-0.486354 -0.9906372,-1.090372 V 22.537126 H 8.198466 v 0.51573 c 0,0.60402 -0.4421513,1.089856 -0.991154,1.089856 H 7.181991 c -0.5490027,0 -0.9906372,-0.485836 -0.9906372,-1.089856 v -0.51573 z"
       sodipodi:nodetypes="ssccssscccccccsccccccccscccccccccccssccccccccsscccccssssccssssccsssscc" /><rect
       style="fill:#734a08;fill-opacity:1;stroke:none;stroke-width:0.265;stroke-linecap:round;stroke-linejoin:round;stroke-dasharray:none;stroke-dashoffset:6.03213;stroke-opacity:1;paint-order:markers fill stroke"
       id="rect60"
       width="26.927525"
       height="2.5415065"
       x="2.3701191"
       y="17.605665"
       rx="0.47231451"
       ry="2.5415065" /></g></svg>
