<?xml version="1.0" encoding="UTF-8" standalone="no"?>
<!-- Created with Inkscape (http://www.inkscape.org/) -->

<svg
   width="32mm"
   height="32mm"
   viewBox="0 0 32 32"
   version="1.1"
   id="svg1"
   xml:space="preserve"
   sodipodi:docname="amenity_police.16.svg"
   inkscape:version="1.3.1 (9b9bdc1480, 2023-11-25, custom)"
   xmlns:inkscape="http://www.inkscape.org/namespaces/inkscape"
   xmlns:sodipodi="http://sodipodi.sourceforge.net/DTD/sodipodi-0.dtd"
   xmlns="http://www.w3.org/2000/svg"
   xmlns:svg="http://www.w3.org/2000/svg"><sodipodi:namedview
     id="namedview1"
     pagecolor="#ffffff"
     bordercolor="#666666"
     borderopacity="1.0"
     inkscape:showpageshadow="2"
     inkscape:pageopacity="0.0"
     inkscape:pagecheckerboard="0"
     inkscape:deskcolor="#d1d1d1"
     inkscape:document-units="mm"
     inkscape:zoom="2.8284272"
     inkscape:cx="36.239222"
     inkscape:cy="44.724503"
     inkscape:window-width="1318"
     inkscape:window-height="719"
     inkscape:window-x="48"
     inkscape:window-y="27"
     inkscape:window-maximized="1"
     inkscape:current-layer="layer1" /><defs
     id="defs1"><inkscape:perspective
       sodipodi:type="inkscape:persp3d"
       inkscape:vp_x="0 : 290 : 1"
       inkscape:vp_y="0 : 1000 : 0"
       inkscape:vp_z="580 : 290 : 1"
       inkscape:persp3d-origin="290 : 193.33333 : 1"
       id="perspective2441" /><inkscape:perspective
       id="perspective3452"
       inkscape:persp3d-origin="30 : 20 : 1"
       inkscape:vp_z="60 : 30 : 1"
       inkscape:vp_y="0 : 1000 : 0"
       inkscape:vp_x="0 : 30 : 1"
       sodipodi:type="inkscape:persp3d" /><symbol
       viewBox="244.5 110 489 219.9"
       id="symbol-university"><path
         id="path4460"
         d="M79,43l57,119c0,0,21-96,104-96s124,106,124,106l43-133l82-17L0,17L79,43z" /><path
         id="path4462"
         d="M94,176l-21,39"
         stroke-width="20"
         stroke="#000000"
         fill="none" /><path
         id="path4464"
         d="M300,19c0,10.5-22.6,19-50.5,19S199,29.5,199,19s22.6-19,50.5-19S300,8.5,300,19z" /><path
         id="path4466"
         d="M112,216l-16-38L64,88c0,0-9-8-4-35s16-24,16-24"
         stroke-width="20"
         stroke="#000000"
         ill="none" /></symbol><inkscape:perspective
       id="perspective4471"
       inkscape:persp3d-origin="372.04724 : 350.78739 : 1"
       inkscape:vp_z="744.09448 : 526.18109 : 1"
       inkscape:vp_y="0 : 1000 : 0"
       inkscape:vp_x="0 : 526.18109 : 1"
       sodipodi:type="inkscape:persp3d" /><inkscape:perspective
       id="perspective4668"
       inkscape:persp3d-origin="6 : 4 : 1"
       inkscape:vp_z="12 : 6 : 1"
       inkscape:vp_y="0 : 1000 : 0"
       inkscape:vp_x="0 : 6 : 1"
       sodipodi:type="inkscape:persp3d" /><inkscape:perspective
       id="perspective2893"
       inkscape:persp3d-origin="0.5 : 0.33333333 : 1"
       inkscape:vp_z="1 : 0.5 : 1"
       inkscape:vp_y="0 : 1000 : 0"
       inkscape:vp_x="0 : 0.5 : 1"
       sodipodi:type="inkscape:persp3d" /><inkscape:perspective
       id="perspective3898"
       inkscape:persp3d-origin="0.5 : 0.33333333 : 1"
       inkscape:vp_z="1 : 0.5 : 1"
       inkscape:vp_y="0 : 1000 : 0"
       inkscape:vp_x="0 : 0.5 : 1"
       sodipodi:type="inkscape:persp3d" /><inkscape:perspective
       id="perspective4011"
       inkscape:persp3d-origin="0.5 : 0.33333333 : 1"
       inkscape:vp_z="1 : 0.5 : 1"
       inkscape:vp_y="0 : 1000 : 0"
       inkscape:vp_x="0 : 0.5 : 1"
       sodipodi:type="inkscape:persp3d" /></defs><g
     inkscape:label="Livello 1"
     inkscape:groupmode="layer"
     id="layer1"><g
       id="path19"
       transform="translate(-33.676671,-0.88572981)" /><g
       id="rect22-0"
       transform="matrix(-1,0,0,1,-3.01491,-0.65556168)" /><g
       id="rect22-7"
       transform="matrix(-1,0,0,1,-2.830826,-0.88591792)" /><g
       id="path26"
       transform="translate(-33.676671,-0.88572981)" /><g
       id="path52-1"
       transform="matrix(-1,0,0,1,-11.680087,-0.88572981)" /><g
       inkscape:label="Livello 1"
       id="layer1-2-6"
       transform="matrix(0.45560341,0,0,0.45560341,-2.1257745,18.571721)"><g
         id="path19-9-6"
         transform="translate(-33.676671,-0.88572981)" /><g
         id="rect22-0-1-9"
         transform="matrix(-1,0,0,1,-3.01491,-0.65556168)" /><g
         id="rect22-7-2-3"
         transform="matrix(-1,0,0,1,-2.830826,-0.88591792)" /><g
         id="path26-7-7"
         transform="translate(-33.676671,-0.88572981)" /><g
         id="path52-1-0-4"
         transform="matrix(-1,0,0,1,-11.680087,-0.88572981)" /></g><path
       id="path4"
       style="fill:#734a08;fill-opacity:1;stroke:none;stroke-width:1.77715;stroke-linecap:round;stroke-dasharray:none;stroke-dashoffset:6.03213;paint-order:markers fill stroke"
       d="M 17.0228,2.3809245 C 16.706232,2.3757745 16.366146,2.3762045 16,2.3824145 10.141662,2.4818802 10.905552,3.667704 9.7269568,5.6884931 H 22.283982 C 21.177411,3.7912029 21.771331,2.4581848 17.0228,2.3809245 Z m -6.793642,4.8012451 c -0.02873,0.225448 -0.04457,0.9023862 -0.04773,1.1297048 -10e-5,3.2750786 2.605061,5.9300776 5.818576,5.9299556 3.213355,-1.1e-4 5.818179,-2.655042 5.818079,-5.9299556 -4.22e-4,-0.2271569 -0.01381,-0.9040946 -0.03978,-1.1297048 z m 0.663304,9.0167544 c -2.6626544,0 -4.8062178,1.967188 -4.8062178,4.410423 0,0.06468 0.002,0.128939 0.00497,0.192925 h -0.00497 v 8.820349 H 8.9796209 L 19.367236,16.198924 Z m 11.700798,0.2153 -10.221541,13.208397 h 13.542037 v -8.820349 h -0.005 c 0.003,-0.06399 0.005,-0.128244 0.005,-0.192925 0,-1.966724 -1.389879,-3.623104 -3.320496,-4.195123 z" /></g></svg>
