<?xml version="1.0" encoding="UTF-8" standalone="no"?>
<!-- Created with Inkscape (http://www.inkscape.org/) -->

<svg
   width="32mm"
   height="32mm"
   viewBox="0 0 32 32"
   version="1.1"
   id="svg1"
   xml:space="preserve"
   inkscape:version="1.3.1 (9b9bdc1480, 2023-11-25, custom)"
   sodipodi:docname="amenity_clock.svg"
   xmlns:inkscape="http://www.inkscape.org/namespaces/inkscape"
   xmlns:sodipodi="http://sodipodi.sourceforge.net/DTD/sodipodi-0.dtd"
   xmlns="http://www.w3.org/2000/svg"
   xmlns:svg="http://www.w3.org/2000/svg"><sodipodi:namedview
     id="namedview1"
     pagecolor="#ffffff"
     bordercolor="#666666"
     borderopacity="1.0"
     inkscape:showpageshadow="2"
     inkscape:pageopacity="0.0"
     inkscape:pagecheckerboard="0"
     inkscape:deskcolor="#d1d1d1"
     inkscape:document-units="mm"
     showguides="true"
     inkscape:zoom="2.5045944"
     inkscape:cx="8.1849579"
     inkscape:cy="103.21032"
     inkscape:window-width="1318"
     inkscape:window-height="719"
     inkscape:window-x="48"
     inkscape:window-y="27"
     inkscape:window-maximized="1"
     inkscape:current-layer="layer1"><sodipodi:guide
       position="16.048293,24.623743"
       orientation="1,0"
       id="guide4"
       inkscape:locked="false" /></sodipodi:namedview><defs
     id="defs1" /><g
     inkscape:label="Livello 1"
     inkscape:groupmode="layer"
     id="layer1"><g
       id="g13"
       transform="translate(0.2080079,0.40820307)"><g
         id="path1"><path
           style="color:#000000;fill:#cdc4b7;stroke-dashoffset:6.03213;-inkscape-stroke:none;paint-order:markers fill stroke"
           d="M 29.868364,15.592281 A 14.076398,14.256863 0 0 1 15.791966,29.849144 14.076398,14.256863 0 0 1 1.7155685,15.592281 14.076398,14.256863 0 0 1 15.791966,1.3354187 14.076398,14.256863 0 0 1 29.868364,15.592281 Z"
           id="path12" /><path
           style="color:#000000;fill:#734a08;stroke-dashoffset:6.03213;-inkscape-stroke:none;paint-order:markers fill stroke"
           d="m 15.791016,0.76367187 c -8.0870591,0 -14.6464848,6.64926943 -14.6464848,14.82812513 10e-8,8.178855 6.5594257,14.828125 14.6464848,14.828125 8.087058,0 14.648437,-6.64927 14.648437,-14.828125 0,-8.1788557 -6.561379,-14.82812512 -14.648437,-14.82812513 z m 0,1.14257813 c 7.461285,0 13.505859,6.1167226 13.505859,13.685547 0,7.568824 -6.044574,13.685547 -13.505859,13.685547 -7.4612859,0 -13.5039066,-6.116723 -13.5039066,-13.685547 0,-7.5688244 6.0426207,-13.685547 13.5039066,-13.685547 z"
           id="path13" /></g><path
         id="rect1"
         style="fill:#734a08;fill-opacity:1;stroke:none;stroke-width:1.09493;stroke-dashoffset:6.03213;stroke-opacity:1;paint-order:markers fill stroke"
         d="m 9.7475828,5.8674688 c -0.28259,0.168745 -0.340595,0.5887658 -0.130046,0.9413618 l 5.4551402,8.7593454 -0.171261,0.102266 c -0.352596,0.210548 -0.455501,0.683603 -0.230267,1.060794 l 0.399793,0.669515 c 0.225235,0.37719 0.690502,0.510968 1.043098,0.30042 l 0.171261,-0.102267 0.0024,0.004 c 0.210548,0.352595 0.60783,0.500747 0.890419,0.332002 l 0.642007,-0.383366 c 0.282589,-0.168745 0.340151,-0.588501 0.129603,-0.941096 l -0.0024,-0.004 5.120026,-3.015746 c 0.353855,-0.208424 0.455057,-0.683338 0.229822,-1.060529 l -0.399792,-0.669514 c -0.225235,-0.377191 -0.690058,-0.511234 -1.042655,-0.300686 l -5.120025,3.015746 -5.45514,-8.7593445 C 11.069018,5.4637745 10.672178,5.3153586 10.38959,5.4841026 Z"
         sodipodi:nodetypes="sccssssccssccssscccss" /><g
         id="path2"><path
           style="color:#000000;fill:#b19f82;stroke-linecap:round;-inkscape-stroke:none"
           d="M 16.048293,3.4371811 V 7.3762565"
           id="path4" /><path
           style="color:#000000;fill:#734a08;stroke-linecap:round;-inkscape-stroke:none"
           d="M 16.048828,2.8046875 A 0.63249999,0.63249999 0 0 0 15.416016,3.4375 v 3.9394531 a 0.63249999,0.63249999 0 0 0 0.632812,0.6308594 0.63249999,0.63249999 0 0 0 0.632813,-0.6308594 V 3.4375 A 0.63249999,0.63249999 0 0 0 16.048828,2.8046875 Z"
           id="path5" /></g><path
         style="color:#000000;fill:#734a08;stroke-linecap:round;-inkscape-stroke:none"
         d="M 22.300781,4.6699219 A 0.4325,0.4325 0 0 0 22.039062,4.8710937 L 20.708984,7.1757812 A 0.4325,0.4325 0 0 0 20.867187,7.765625 0.4325,0.4325 0 0 0 21.457031,7.6074219 L 22.789062,5.3046875 A 0.4325,0.4325 0 0 0 22.628906,4.7128906 0.4325,0.4325 0 0 0 22.300781,4.6699219 Z"
         id="path3" /><path
         style="color:#000000;fill:#734a08;stroke-linecap:round;-inkscape-stroke:none"
         d="m 26.341797,8.9101563 -2.304688,1.3300777 a 0.4325,0.4325 0 0 0 -0.158203,0.589844 0.4325,0.4325 0 0 0 0.589844,0.158203 L 26.773437,9.6582031 A 0.4325,0.4325 0 0 0 26.931641,9.0683594 0.4325,0.4325 0 0 0 26.341797,8.9101563 Z"
         id="path3-2" /><g
         id="path2-6"><path
           style="color:#000000;fill:#b19f82;stroke-linecap:round;-inkscape-stroke:none"
           d="M 27.876552,15.545548 H 23.937476"
           id="path6" /><path
           style="color:#000000;fill:#734a08;stroke-linecap:round;-inkscape-stroke:none"
           d="m 23.9375,14.912109 a 0.63249999,0.63249999 0 0 0 -0.632813,0.632813 0.63249999,0.63249999 0 0 0 0.632813,0.632812 h 3.939453 a 0.63249999,0.63249999 0 0 0 0.632813,-0.632812 0.63249999,0.63249999 0 0 0 -0.632813,-0.632813 z"
           id="path7" /></g><path
         style="color:#000000;fill:#734a08;stroke-linecap:round;-inkscape-stroke:none"
         d="m 24.138672,20.205078 a 0.4325,0.4325 0 0 0 -0.591797,0.158203 0.4325,0.4325 0 0 0 0.158203,0.591797 l 2.304688,1.330078 a 0.4325,0.4325 0 0 0 0.591796,-0.158203 0.4325,0.4325 0 0 0 -0.158203,-0.589844 z"
         id="path3-0" /><path
         style="color:#000000;fill:#734a08;stroke-linecap:round;-inkscape-stroke:none"
         d="m 20.482422,23.375 a 0.4325,0.4325 0 0 0 -0.158203,0.591797 l 1.330078,2.304687 a 0.4325,0.4325 0 0 0 0.591797,0.158203 0.4325,0.4325 0 0 0 0.158203,-0.591796 L 21.074219,23.533203 A 0.4325,0.4325 0 0 0 20.482422,23.375 Z"
         id="path3-2-6" /><g
         id="path2-6-7"><path
           style="color:#000000;fill:#b19f82;stroke-linecap:round;-inkscape-stroke:none"
           d="M 16.045545,27.312489 V 23.373413"
           id="path8" /><path
           style="color:#000000;fill:#734a08;stroke-linecap:round;-inkscape-stroke:none"
           d="m 16.044922,22.740234 a 0.63249999,0.63249999 0 0 0 -0.632813,0.632813 V 27.3125 a 0.63249999,0.63249999 0 0 0 0.632813,0.632812 0.63249999,0.63249999 0 0 0 0.632812,-0.632812 v -3.939453 a 0.63249999,0.63249999 0 0 0 -0.632812,-0.632813 z"
           id="path9" /></g><path
         style="color:#000000;fill:#734a08;stroke-linecap:round;-inkscape-stroke:none"
         d="m 11.226563,22.982422 a 0.4325,0.4325 0 0 0 -0.589844,0.158203 l -1.3320315,2.304687 a 0.4325,0.4325 0 0 0 0.1601563,0.591797 0.4325,0.4325 0 0 0 0.5898442,-0.158203 l 1.330078,-2.304687 a 0.4325,0.4325 0 0 0 -0.158203,-0.591797 z"
         id="path3-0-9" /><path
         style="color:#000000;fill:#734a08;stroke-linecap:round;-inkscape-stroke:none"
         d="M 7.953125,19.716797 A 0.4325,0.4325 0 0 0 7.625,19.759766 l -2.3046875,1.332031 a 0.4325,0.4325 0 0 0 -0.1582031,0.589844 0.4325,0.4325 0 0 0 0.5898437,0.158203 L 8.0566406,20.509766 A 0.4325,0.4325 0 0 0 8.2148438,19.917969 0.4325,0.4325 0 0 0 7.953125,19.716797 Z"
         id="path3-2-6-2" /><g
         id="path2-6-7-5"><path
           style="color:#000000;fill:#b19f82;stroke-linecap:round;-inkscape-stroke:none"
           d="M 4.1320361,15.3675 H 8.0711115"
           id="path10" /><path
           style="color:#000000;fill:#734a08;stroke-linecap:round;-inkscape-stroke:none"
           d="M 4.1328125,14.734375 A 0.63249999,0.63249999 0 0 0 3.5,15.367188 0.63249999,0.63249999 0 0 0 4.1328125,16 h 3.9375 A 0.63249999,0.63249999 0 0 0 8.703125,15.367188 0.63249999,0.63249999 0 0 0 8.0703125,14.734375 Z"
           id="path11" /></g><path
         style="color:#000000;fill:#734a08;stroke-linecap:round;-inkscape-stroke:none"
         d="M 5.6699219,8.5839844 A 0.4325,0.4325 0 0 0 5.4082031,8.7851563 0.4325,0.4325 0 0 0 5.5664062,9.3769531 L 7.8710937,10.707031 A 0.4325,0.4325 0 0 0 8.4609375,10.548828 0.4325,0.4325 0 0 0 8.3027344,9.9589844 L 5.9980469,8.6269531 a 0.4325,0.4325 0 0 0 -0.328125,-0.042969 z"
         id="path3-0-9-9" /><path
         id="path3-2-6-2-2"
         style="color:#000000;fill:#734a08;stroke-linecap:round;-inkscape-stroke:none"
         d="M 9.9792358,4.4250529 A 0.4325,0.4325 0 0 0 9.7616781,4.4844808 0.4325,0.4325 0 0 0 9.6035482,5.0741089 L 9.7058675,5.251359 C 9.9618152,5.0939206 10.2474,4.9792326 10.508403,4.9108114 L 10.353373,4.6426107 A 0.4325,0.4325 0 0 0 10.09189,4.4395223 0.4325,0.4325 0 0 0 9.9792358,4.4250529 Z" /></g></g></svg>
