<?xml version="1.0" encoding="UTF-8" standalone="no"?>
<!-- Created with Inkscape (http://www.inkscape.org/) -->

<svg
   width="32mm"
   height="32mm"
   viewBox="0 0 32 32"
   version="1.1"
   id="svg1"
   xml:space="preserve"
   sodipodi:docname="amenity_post_box.16.svg"
   inkscape:version="1.3.1 (9b9bdc1480, 2023-11-25, custom)"
   xmlns:inkscape="http://www.inkscape.org/namespaces/inkscape"
   xmlns:sodipodi="http://sodipodi.sourceforge.net/DTD/sodipodi-0.dtd"
   xmlns="http://www.w3.org/2000/svg"
   xmlns:svg="http://www.w3.org/2000/svg"><sodipodi:namedview
     id="namedview1"
     pagecolor="#ffffff"
     bordercolor="#666666"
     borderopacity="1.0"
     inkscape:showpageshadow="2"
     inkscape:pageopacity="0.0"
     inkscape:pagecheckerboard="0"
     inkscape:deskcolor="#d1d1d1"
     inkscape:document-units="mm"
     inkscape:zoom="1"
     inkscape:cx="19.499999"
     inkscape:cy="28.499999"
     inkscape:window-width="1318"
     inkscape:window-height="719"
     inkscape:window-x="48"
     inkscape:window-y="27"
     inkscape:window-maximized="1"
     inkscape:current-layer="layer1"
     showguides="true"><sodipodi:guide
       position="16.007291,19.961458"
       orientation="1,0"
       id="guide11"
       inkscape:locked="false" /><sodipodi:guide
       position="11.14271,18.65567"
       orientation="0,-1"
       id="guide12"
       inkscape:locked="false" /></sodipodi:namedview><defs
     id="defs1"><inkscape:perspective
       sodipodi:type="inkscape:persp3d"
       inkscape:vp_x="0 : 290 : 1"
       inkscape:vp_y="0 : 1000 : 0"
       inkscape:vp_z="580 : 290 : 1"
       inkscape:persp3d-origin="290 : 193.33333 : 1"
       id="perspective2441" /><inkscape:perspective
       id="perspective3452"
       inkscape:persp3d-origin="30 : 20 : 1"
       inkscape:vp_z="60 : 30 : 1"
       inkscape:vp_y="0 : 1000 : 0"
       inkscape:vp_x="0 : 30 : 1"
       sodipodi:type="inkscape:persp3d" /><symbol
       viewBox="244.5 110 489 219.9"
       id="symbol-university"><path
         id="path4460"
         d="M79,43l57,119c0,0,21-96,104-96s124,106,124,106l43-133l82-17L0,17L79,43z" /><path
         id="path4462"
         d="M94,176l-21,39"
         stroke-width="20"
         stroke="#000000"
         fill="none" /><path
         id="path4464"
         d="M300,19c0,10.5-22.6,19-50.5,19S199,29.5,199,19s22.6-19,50.5-19S300,8.5,300,19z" /><path
         id="path4466"
         d="M112,216l-16-38L64,88c0,0-9-8-4-35s16-24,16-24"
         stroke-width="20"
         stroke="#000000"
         ill="none" /></symbol><inkscape:perspective
       id="perspective4471"
       inkscape:persp3d-origin="372.04724 : 350.78739 : 1"
       inkscape:vp_z="744.09448 : 526.18109 : 1"
       inkscape:vp_y="0 : 1000 : 0"
       inkscape:vp_x="0 : 526.18109 : 1"
       sodipodi:type="inkscape:persp3d" /><inkscape:perspective
       id="perspective4668"
       inkscape:persp3d-origin="6 : 4 : 1"
       inkscape:vp_z="12 : 6 : 1"
       inkscape:vp_y="0 : 1000 : 0"
       inkscape:vp_x="0 : 6 : 1"
       sodipodi:type="inkscape:persp3d" /><inkscape:perspective
       id="perspective2893"
       inkscape:persp3d-origin="0.5 : 0.33333333 : 1"
       inkscape:vp_z="1 : 0.5 : 1"
       inkscape:vp_y="0 : 1000 : 0"
       inkscape:vp_x="0 : 0.5 : 1"
       sodipodi:type="inkscape:persp3d" /><inkscape:perspective
       id="perspective3898"
       inkscape:persp3d-origin="0.5 : 0.33333333 : 1"
       inkscape:vp_z="1 : 0.5 : 1"
       inkscape:vp_y="0 : 1000 : 0"
       inkscape:vp_x="0 : 0.5 : 1"
       sodipodi:type="inkscape:persp3d" /><inkscape:perspective
       id="perspective4011"
       inkscape:persp3d-origin="0.5 : 0.33333333 : 1"
       inkscape:vp_z="1 : 0.5 : 1"
       inkscape:vp_y="0 : 1000 : 0"
       inkscape:vp_x="0 : 0.5 : 1"
       sodipodi:type="inkscape:persp3d" /></defs><g
     inkscape:label="Livello 1"
     inkscape:groupmode="layer"
     id="layer1"><path
       id="rect11"
       style="color:#000000;fill:#734a08;stroke-linecap:round;stroke-dashoffset:6.03213;-inkscape-stroke:none;paint-order:markers fill stroke"
       d="m 4.8298808,7.148344 c -1.3097067,0 -2.3828003,1.0730936 -2.3828003,2.3828003 V 22.468855 c 0,1.309707 1.0730936,2.382801 2.3828003,2.382801 H 27.170118 c 1.309707,0 2.382801,-1.073094 2.382801,-2.382801 V 9.5311443 c 0,-1.3097067 -1.073094,-2.3828003 -2.382801,-2.3828003 z m 0,1.2205974 H 27.170118 c 0.653858,0 1.161687,0.5083457 1.161687,1.1622029 V 10.904187 L 15.812672,17.909961 3.6681946,11.008574 V 9.5311443 c 0,-0.6538572 0.507829,-1.1622029 1.1616862,-1.1622029 z M 28.331805,12.355261 v 10.113594 c 0,0.114517 -0.02038,0.222025 -0.04961,0.325562 l -6.693648,-6.665743 z m -24.6636104,0.10852 6.3360464,3.600814 -6.3360464,6.315377 z m 7.1173944,4.044715 5.022949,2.854606 4.994527,-2.794662 6.940145,6.909139 c -0.168717,0.09374 -0.361667,0.151412 -0.573092,0.151412 H 4.8298808 c -0.3335729,0 -0.6280455,-0.132905 -0.837675,-0.348816 z" /><g
       id="path19"
       transform="translate(-33.676671,-0.88572981)" /><g
       id="rect22-0"
       transform="matrix(-1,0,0,1,-3.01491,-0.65556168)" /><g
       id="rect22-7"
       transform="matrix(-1,0,0,1,-2.830826,-0.88591792)" /><g
       id="path26"
       transform="translate(-33.676671,-0.88572981)" /><g
       id="path52-1"
       transform="matrix(-1,0,0,1,-11.680087,-0.88572981)" /><g
       inkscape:label="Livello 1"
       id="layer1-2-6"
       transform="matrix(0.45560341,0,0,0.45560341,-2.1257745,18.571721)"><g
         id="path19-9-6"
         transform="translate(-33.676671,-0.88572981)" /><g
         id="rect22-0-1-9"
         transform="matrix(-1,0,0,1,-3.01491,-0.65556168)" /><g
         id="rect22-7-2-3"
         transform="matrix(-1,0,0,1,-2.830826,-0.88591792)" /><g
         id="path26-7-7"
         transform="translate(-33.676671,-0.88572981)" /><g
         id="path52-1-0-4"
         transform="matrix(-1,0,0,1,-11.680087,-0.88572981)" /></g></g></svg>
