<?xml version="1.0" encoding="UTF-8" standalone="no"?>
<!-- Created with Inkscape (http://www.inkscape.org/) -->

<svg
   width="32mm"
   height="32mm"
   viewBox="0 0 32 32"
   version="1.1"
   id="svg1"
   xml:space="preserve"
   inkscape:version="1.3.1 (9b9bdc1480, 2023-11-25, custom)"
   sodipodi:docname="amenity_courthouse.svg"
   xmlns:inkscape="http://www.inkscape.org/namespaces/inkscape"
   xmlns:sodipodi="http://sodipodi.sourceforge.net/DTD/sodipodi-0.dtd"
   xmlns="http://www.w3.org/2000/svg"
   xmlns:svg="http://www.w3.org/2000/svg"><sodipodi:namedview
     id="namedview1"
     pagecolor="#ffffff"
     bordercolor="#666666"
     borderopacity="1.0"
     inkscape:showpageshadow="2"
     inkscape:pageopacity="0.0"
     inkscape:pagecheckerboard="0"
     inkscape:deskcolor="#d1d1d1"
     inkscape:document-units="mm"
     showguides="true"
     inkscape:zoom="2.8284271"
     inkscape:cx="65.053824"
     inkscape:cy="83.96893"
     inkscape:window-width="1318"
     inkscape:window-height="719"
     inkscape:window-x="48"
     inkscape:window-y="27"
     inkscape:window-maximized="1"
     inkscape:current-layer="layer1"><sodipodi:guide
       position="16.225336,-14.837615"
       orientation="1,0"
       id="guide4"
       inkscape:locked="false" /><sodipodi:guide
       position="-6.671601,15.944125"
       orientation="0,-1"
       id="guide30"
       inkscape:locked="false" /></sodipodi:namedview><defs
     id="defs1" /><g
     inkscape:label="Livello 1"
     inkscape:groupmode="layer"
     id="layer1"><g
       id="path19" /><g
       id="rect22"
       transform="translate(0.96292113,0.23011083)"><path
         id="path30"
         style="color:#000000;fill:#734a08;fill-opacity:1;stroke-linecap:round;stroke-linejoin:round;stroke-dashoffset:6.03213;-inkscape-stroke:none;paint-order:markers fill stroke"
         d="m 14.859294,2.4104976 c -0.465324,0.2858701 -0.78566,0.7984752 -0.777731,1.3828613 l 0.02584,1.8960083 C 12.20585,5.8652371 8.7455534,9.2341583 6.6572103,9.2720942 4.5688672,9.3100302 3.8976075,9.0318057 2.6259319,7.7326533 3.1836219,8.624461 3.6642548,9.4579427 5.4831218,9.8591385 l 0.038757,0.7932335 c -0.024322,0.02028 -0.045408,0.04416 -0.062528,0.0708 l -4.4462402,9.452137 c -0.047799,0.08592 -0.0522041,0.189376 -0.011886,0.279052 -0.021371,0.045 -0.0335778,0.09495 -0.0310058,0.148312 0.0461139,0.93234 0.6637318,1.736116 1.5621785,2.287199 0.8984467,0.551084 2.0928269,0.870634 3.3946248,0.857312 1.3017978,-0.01332 2.4807228,-0.356881 3.3538005,-0.927592 0.8730804,-0.570711 1.4552084,-1.392866 1.4552084,-2.325956 -5e-5,-0.02767 -0.0051,-0.05405 -0.01189,-0.07958 0.02194,-0.08059 0.01058,-0.166612 -0.03152,-0.238745 L 6.1859213,10.830139 6.1941895,9.974377 C 9.6992188,9.8706615 12.236556,7.2323239 14.047974,7.2432775 l 0.03359,19.8215295 -5.8229,1.267623 c -0.149005,0.02185 -0.2547419,0.156536 -0.2402954,0.306441 l 0.021704,0.234611 c 0.013821,0.145796 0.1367418,0.256801 0.2831868,0.255798 l 6.0414916,-0.08216 h 0.494544 0.14211 0.07131 0.142111 0.494543 l 6.041492,0.08216 c 0.146445,10e-4 0.269366,-0.110002 0.283187,-0.255798 l 0.0217,-0.234611 c 0.01445,-0.149905 -0.09129,-0.284591 -0.24029,-0.306441 l -5.8229,-1.267623 0.03359,-19.8215295 c 1.811417,-0.010954 4.348754,2.627384 7.853784,2.7310995 l 0.0083,0.855762 -4.506702,9.345166 c -0.0421,0.07213 -0.05346,0.158155 -0.03152,0.238745 -0.0068,0.02553 -0.01184,0.05191 -0.01189,0.07958 0,0.93309 0.582128,1.755245 1.455208,2.325956 0.873078,0.570711 2.052003,0.914272 3.353801,0.927592 1.301798,0.01332 2.496178,-0.306228 3.394625,-0.857312 0.898446,-0.551083 1.516064,-1.354859 1.562178,-2.287199 0.0026,-0.05336 -0.0096,-0.103312 -0.03101,-0.148312 0.04032,-0.08968 0.03591,-0.193132 -0.01188,-0.279052 l -4.44624,-9.452137 c -0.01712,-0.02664 -0.03821,-0.05052 -0.06253,-0.0708 l 0.03876,-0.7932335 c 1.818867,-0.4011958 2.2995,-1.2346775 2.85719,-2.1264852 -1.271675,1.2991524 -1.942935,1.5773769 -4.031278,1.5394409 -2.088343,-0.037936 -5.54864,-3.4068571 -7.450191,-3.582727 l 0.02584,-1.8960083 c 0.0079,-0.5843861 -0.312407,-1.0969912 -0.77773,-1.3828613 z m -9.0676639,8.9777464 4.185791,8.797396 -8.299235,0.08475 z m 18.4908609,0 4.113444,8.882145 -8.299235,-0.08475 z"
         sodipodi:nodetypes="cccscccccccsssccccccccccccccccccccccccccccssscccccccscccccccccccc" /></g><g
       id="rect22-0"
       transform="matrix(-1,0,0,1,30.661761,0.23016813)" /><g
       id="rect22-7"
       transform="matrix(-1,0,0,1,30.845845,-1.8811487e-4)" /><g
       id="path26" /></g></svg>
