<?xml version="1.0" encoding="UTF-8" standalone="no"?>
<!-- Created with Inkscape (http://www.inkscape.org/) -->

<svg
   width="32mm"
   height="32mm"
   viewBox="0 0 32 32"
   version="1.1"
   id="svg1"
   xml:space="preserve"
   inkscape:version="1.3.1 (9b9bdc1480, 2023-11-25, custom)"
   sodipodi:docname="amenity_drinking_water.16.svg"
   xmlns:inkscape="http://www.inkscape.org/namespaces/inkscape"
   xmlns:sodipodi="http://sodipodi.sourceforge.net/DTD/sodipodi-0.dtd"
   xmlns="http://www.w3.org/2000/svg"
   xmlns:svg="http://www.w3.org/2000/svg"><sodipodi:namedview
     id="namedview1"
     pagecolor="#ffffff"
     bordercolor="#666666"
     borderopacity="1.0"
     inkscape:showpageshadow="2"
     inkscape:pageopacity="0.0"
     inkscape:pagecheckerboard="0"
     inkscape:deskcolor="#d1d1d1"
     inkscape:document-units="mm"
     showguides="true"
     inkscape:zoom="4"
     inkscape:cx="49.25"
     inkscape:cy="46.125"
     inkscape:window-width="1318"
     inkscape:window-height="719"
     inkscape:window-x="48"
     inkscape:window-y="27"
     inkscape:window-maximized="1"
     inkscape:current-layer="layer1"><sodipodi:guide
       position="16.225336,-14.837615"
       orientation="1,0"
       id="guide4"
       inkscape:locked="false" /></sodipodi:namedview><defs
     id="defs1" /><g
     inkscape:label="Livello 1"
     inkscape:groupmode="layer"
     id="layer1"><g
       id="path19" /><g
       id="rect22-0"
       transform="matrix(-1,0,0,1,30.661761,0.23016813)" /><g
       id="rect22-7"
       transform="matrix(-1,0,0,1,30.845845,-1.8811487e-4)" /><g
       id="path26" /><g
       id="path52"><path
         id="path55"
         style="color:#000000;fill:#734a08;stroke-linecap:round;-inkscape-stroke:none"
         d="m 4.4338379,13.683403 c -0.4045592,9.9e-4 -0.7314669,0.329987 -0.7270874,0.587044 0.00159,0.0121 2.8597738,14.768607 2.8597738,14.768607 l 4.4317707,-0.03101 4.431771,0.03101 c 0,0 2.858184,-14.756507 2.859774,-14.768607 0.0044,-0.257057 -0.322529,-0.586054 -0.727088,-0.587044 -4.377028,-0.04342 -13.119311,0.0033 -13.1289141,0 z m 13.2606891,1.443836 v 0 L 16.797424,19.68562 H 5.1991659 L 4.302063,15.127242 v 0 z"
         sodipodi:nodetypes="cccccccccccccccc" /></g><g
       id="path52-1"
       transform="matrix(-1,0,0,1,21.996584,0)" /><path
       id="path56"
       style="color:#000000;fill:#734a08;-inkscape-stroke:none;fill-opacity:1"
       d="M 15.675529 1.7657837 A 0.48249999 0.48249999 0 0 0 15.193388 2.2479248 A 0.48249999 0.48249999 0 0 0 15.675529 2.7305827 L 18.427816 2.7305827 L 18.427816 5.7676066 L 14.07821 5.7676066 L 14.062708 5.7676066 L 14.048755 5.7676066 C 12.676543 5.8169396 11.604018 6.3822187 10.980725 7.2362508 C 10.357431 8.090283 10.165788 9.132149 10.165788 10.148218 L 11.830286 10.148218 C 11.830286 9.3515722 11.99847 8.6630192 12.324312 8.2165527 C 12.650154 7.7700862 13.116674 7.4672155 14.107666 7.4315877 L 27.332182 7.4315877 A 0.83249998 0.83249998 0 0 0 28.164172 6.5995972 A 0.83249998 0.83249998 0 0 0 27.332182 5.7676066 L 19.392615 5.7676066 L 19.392615 2.7305827 L 22.144385 2.7305827 A 0.48249999 0.48249999 0 0 0 22.627043 2.2479248 A 0.48249999 0.48249999 0 0 0 22.144385 1.7657837 L 15.675529 1.7657837 z " /></g></svg>
