<?xml version="1.0" encoding="UTF-8" standalone="no"?>
<!-- Created with Inkscape (http://www.inkscape.org/) -->

<svg
   width="32mm"
   height="32mm"
   viewBox="0 0 32 32"
   version="1.1"
   id="svg1"
   xml:space="preserve"
   inkscape:version="1.3.1 (9b9bdc1480, 2023-11-25, custom)"
   sodipodi:docname="amenity_atm.svg"
   xmlns:inkscape="http://www.inkscape.org/namespaces/inkscape"
   xmlns:sodipodi="http://sodipodi.sourceforge.net/DTD/sodipodi-0.dtd"
   xmlns="http://www.w3.org/2000/svg"
   xmlns:svg="http://www.w3.org/2000/svg"><sodipodi:namedview
     id="namedview1"
     pagecolor="#ffffff"
     bordercolor="#666666"
     borderopacity="1.0"
     inkscape:showpageshadow="2"
     inkscape:pageopacity="0.0"
     inkscape:pagecheckerboard="0"
     inkscape:deskcolor="#d1d1d1"
     inkscape:document-units="mm"
     inkscape:zoom="1.6624066"
     inkscape:cx="75.79373"
     inkscape:cy="74.891423"
     inkscape:window-width="1318"
     inkscape:window-height="719"
     inkscape:window-x="48"
     inkscape:window-y="27"
     inkscape:window-maximized="1"
     inkscape:current-layer="layer1"
     showguides="true" /><defs
     id="defs1" /><g
     inkscape:label="Livello 1"
     inkscape:groupmode="layer"
     id="layer1"><path
       style="fill:#cbcbcb;stroke:none;stroke-width:0.264583px;stroke-linecap:butt;stroke-linejoin:miter;stroke-opacity:1;fill-opacity:1"
       d="M 11.04818,7.7036199 H 10.190911 L 4.3797251,28.093741 H 25.230469 l -0.185547,-1.353508 z"
       id="path11" /><rect
       style="fill:#383838;fill-opacity:1;stroke:none;stroke-width:1.35256;stroke-linecap:square;stroke-dasharray:none;stroke-dashoffset:6.03213;stroke-opacity:1"
       id="rect9"
       width="24.432053"
       height="4.3061438"
       x="4.5519352"
       y="3.6768937" /><path
       style="color:#000000;fill:#000000;stroke-linecap:square;stroke-dashoffset:6.03213;-inkscape-stroke:none"
       d="M 11.097656,5.359375 5.4785156,27.167969 H 29.224609 L 23.607422,5.359375 Z M 11.81169,6.1489326 H 22.891435 L 27.591797,25.902344 H 7.1113281 Z"
       id="rect10"
       sodipodi:nodetypes="cccccccccc" /><path
       style="color:#000000;fill:#000000;stroke-dashoffset:6.03213;-inkscape-stroke:none"
       d="M 9.5278207,6.9140625 2.7469128,29.357413 H 26.863281 l -0.59375,-2.933585 -1.224609,0.316406 0.185547,1.353507 H 4.3797253 L 10.190911,7.7036201 h 0.857269 l 0.211586,-0.7895576 z"
       id="rect10-8"
       sodipodi:nodetypes="ccccccccccc" /><path
       style="fill:#cbcbcb;stroke:none;stroke-width:0.264583px;stroke-linecap:butt;stroke-linejoin:miter;stroke-opacity:1;fill-opacity:1"
       d="M 11.81169,6.1489325 H 22.891435 L 27.591797,25.902344 H 7.1113281 Z"
       id="path10" /><path
       d="m 16.810292,8.7177242 v 0.9394101 c -2.22509,0.2783438 -3.424552,1.4960967 -3.424552,3.4792967 0,1.095978 0.417204,1.948406 1.216846,2.539886 0.469355,0.330534 0.956093,0.521895 2.207706,0.904618 l -3.92e-4,4.731846 c -0.782258,-0.104379 -1.442831,-0.452309 -1.842652,-0.9916 -0.260753,-0.400119 -0.330287,-0.69586 -0.434588,-1.826632 h -1.373298 c -0.121685,2.418112 1.199463,3.86202 3.650538,4.018588 v 1.791839 h 1.025628 v -1.791839 c 0.93871,-0.06959 1.5819,-0.260947 2.155556,-0.608876 1.008244,-0.626273 1.599284,-1.809234 1.599284,-3.183558 0,-1.23515 -0.468963,-2.104975 -1.477207,-2.679059 -0.451972,-0.260948 -0.677957,-0.34793 -2.277241,-0.835032 v -4.331723 c 1.164696,0.05219 1.981721,0.939409 1.999104,2.209352 h 1.373298 c 0,-1.983199 -1.268996,-3.2705383 -3.372402,-3.4271067 V 8.7177242 Z m 0,6.3497158 c -1.373297,-0.365326 -2.016488,-1.043789 -2.016488,-2.104974 0,-1.148168 0.730108,-1.896217 2.016488,-2.070181 z m 1.025628,1.670063 c 1.773119,0.521896 2.328999,1.04379 2.328999,2.191958 0,0.678464 -0.260752,1.287341 -0.730107,1.739651 -0.417205,0.400118 -0.851793,0.556686 -1.599284,0.643669 z"
       id="text10"
       style="font-size:17.39px;line-height:1.25;font-family:Helvetica;-inkscape-font-specification:Helvetica;stroke-width:0.434752"
       aria-label="$"
       sodipodi:nodetypes="ccscccccccccccscccccccccscccsccc" /></g></svg>
