<?xml version="1.0" encoding="UTF-8" standalone="no"?>
<!-- Created with Inkscape (http://www.inkscape.org/) -->

<svg
   width="32mm"
   height="32mm"
   viewBox="0 0 32 32"
   version="1.1"
   id="svg1"
   xml:space="preserve"
   inkscape:version="1.3.1 (9b9bdc1480, 2023-11-25, custom)"
   sodipodi:docname="amenity_pub.16.svg"
   xmlns:inkscape="http://www.inkscape.org/namespaces/inkscape"
   xmlns:sodipodi="http://sodipodi.sourceforge.net/DTD/sodipodi-0.dtd"
   xmlns="http://www.w3.org/2000/svg"
   xmlns:svg="http://www.w3.org/2000/svg"><sodipodi:namedview
     id="namedview1"
     pagecolor="#ffffff"
     bordercolor="#666666"
     borderopacity="1.0"
     inkscape:showpageshadow="2"
     inkscape:pageopacity="0.0"
     inkscape:pagecheckerboard="0"
     inkscape:deskcolor="#d1d1d1"
     inkscape:document-units="mm"
     showguides="true"
     inkscape:zoom="2.8284271"
     inkscape:cx="55.861436"
     inkscape:cy="65.937707"
     inkscape:window-width="1318"
     inkscape:window-height="719"
     inkscape:window-x="48"
     inkscape:window-y="27"
     inkscape:window-maximized="1"
     inkscape:current-layer="layer1"
     showgrid="false"><sodipodi:guide
       position="16.225336,-14.837615"
       orientation="1,0"
       id="guide4"
       inkscape:locked="false" /></sodipodi:namedview><defs
     id="defs1" /><g
     inkscape:label="Livello 1"
     inkscape:groupmode="layer"
     id="layer1"><g
       id="path19" /><g
       id="rect22-0"
       transform="matrix(-1,0,0,1,30.661761,0.23016813)" /><g
       id="rect22-7"
       transform="matrix(-1,0,0,1,30.845845,-1.8811487e-4)" /><g
       id="path26" /><g
       id="path52"
       transform="translate(-38.081357,-6.611757)" /><g
       id="path52-5"
       transform="translate(5.0017045,-6.410269)"><path
         id="path55-3"
         style="color:#000000;fill:#734a08;stroke-linecap:round;-inkscape-stroke:none"
         d="m 4.4338379,10.508403 c -0.4045592,9.9e-4 -0.7314669,0.329987 -0.7270874,0.587044 0.00159,0.0121 2.8597738,23.235273 2.8597738,23.235273 l 4.4317707,-0.03101 4.431771,0.03101 c 0,0 2.858184,-23.223173 2.859774,-23.235273 0.0044,-0.257057 -0.322529,-0.586054 -0.727088,-0.587044 -4.377028,-0.04342 -13.119311,0.0033 -13.1289141,0 z m 13.2606891,1.443836 v 0 l -0.659918,5.616714 H 4.9853671 L 4.302063,11.952242 v 0 z"
         sodipodi:nodetypes="ccccccccccccccc" /></g><g
       id="path52-1"
       transform="matrix(-1,0,0,1,21.996584,0)" /></g></svg>
