<?xml version="1.0" encoding="UTF-8" standalone="no"?>
<!-- Created with Inkscape (http://www.inkscape.org/) -->

<svg
   width="32mm"
   height="32mm"
   viewBox="0 0 32 32"
   version="1.1"
   id="svg1"
   xml:space="preserve"
   inkscape:version="1.3.1 (9b9bdc1480, 2023-11-25, custom)"
   sodipodi:docname="amenity_taxi.16.svg"
   xmlns:inkscape="http://www.inkscape.org/namespaces/inkscape"
   xmlns:sodipodi="http://sodipodi.sourceforge.net/DTD/sodipodi-0.dtd"
   xmlns="http://www.w3.org/2000/svg"
   xmlns:svg="http://www.w3.org/2000/svg"><sodipodi:namedview
     id="namedview1"
     pagecolor="#ffffff"
     bordercolor="#666666"
     borderopacity="1.0"
     inkscape:showpageshadow="2"
     inkscape:pageopacity="0.0"
     inkscape:pagecheckerboard="0"
     inkscape:deskcolor="#d1d1d1"
     inkscape:document-units="mm"
     showguides="true"
     inkscape:zoom="2.7299519"
     inkscape:cx="61.905852"
     inkscape:cy="36.813835"
     inkscape:window-width="1318"
     inkscape:window-height="719"
     inkscape:window-x="48"
     inkscape:window-y="27"
     inkscape:window-maximized="1"
     inkscape:current-layer="layer1"
     showgrid="false"><sodipodi:guide
       position="21.324843,29.746031"
       orientation="0,-1"
       id="guide8"
       inkscape:locked="false" /><sodipodi:guide
       position="18.475006,31.999999"
       orientation="0,-1"
       id="guide9"
       inkscape:locked="false" /></sodipodi:namedview><defs
     id="defs1"><inkscape:perspective
       sodipodi:type="inkscape:persp3d"
       inkscape:vp_x="-183.11487 : 148.50001 : 1"
       inkscape:vp_y="0 : 1000 : 0"
       inkscape:vp_z="-195.51426 : 148.50001 : 1"
       inkscape:persp3d-origin="-189.31457 : 99.000003 : 1"
       id="perspective10172" /><symbol
       id="Recycling"><title
         id="title7498">Recycling</title><g
         style="stroke:none"
         id="g7512"><path
           style="stroke-width:0.26458332"
           inkscape:connector-curvature="0"
           d="m 14.684375,3.9026042 -1.389063,0.79375 -0.926041,-1.5875 C 12.236979,2.8773437 11.972396,2.7119792 11.608594,2.7119792 H 8.8304687 C 9.0289062,2.9104167 9.0619792,2.9765625 9.1611979,3.1419271 L 10.88099,6.1184896 9.4919271,6.9122396 H 12.93151 Z"
           id="path7500" /><path
           style="stroke-width:0.26458332"
           inkscape:connector-curvature="0"
           d="m 14.254427,12.038542 h 1.389063 c 0.826822,0 1.322916,-0.892969 0.926041,-1.5875 l -1.752864,-3.069167 -2.38125,1.3890625 z"
           id="path7502" /><path
           style="stroke-width:0.26458332"
           inkscape:connector-curvature="0"
           d="m 12.170833,17.065625 v -1.5875 h 1.852084 c 0.264583,0 0.529166,-0.132292 0.727604,-0.463021 l 1.389062,-2.38125 C 15.875,12.7 15.775781,12.7 15.610417,12.7 h -3.439584 v -1.5875 l -1.719791,2.976562 z"
           id="path7504" /><path
           style="stroke-width:0.26458332"
           inkscape:connector-curvature="0"
           d="m 5.3578125,12.7 -0.6945313,1.190625 c -0.396875,0.727604 0.099219,1.5875 0.8929688,1.5875 H 9.0619792 V 12.7 Z"
           id="path7506" /><path
           style="stroke-width:0.26458332"
           inkscape:connector-curvature="0"
           d="m 2.0505208,8.4005208 1.3890625,0.79375 -0.9260416,1.5875002 C 2.38125,11.013281 2.38125,11.310937 2.5466146,11.641667 l 1.3559896,2.38125 c 0.066146,-0.264584 0.099219,-0.33073 0.1984375,-0.496094 L 5.8208333,10.55026 7.2098958,11.34401 5.4901042,8.3674479 Z"
           id="path7508" /><path
           style="stroke-width:0.26458332"
           inkscape:connector-curvature="0"
           d="M 9.2604167,4.6302083 8.5989583,3.4395833 c -0.4299479,-0.6945312 -1.4221354,-0.6945312 -1.8190104,0 l -1.7528646,3.0427084 2.38125,1.3890625 z"
           id="path7510" /></g></symbol><inkscape:perspective
       id="perspective8310"
       inkscape:persp3d-origin="372.04724 : 350.7874 : 1"
       inkscape:vp_z="744.09447 : 526.18111 : 1"
       inkscape:vp_y="0 : 1000 : 0"
       inkscape:vp_x="0 : 526.18111 : 1"
       sodipodi:type="inkscape:persp3d" /><inkscape:perspective
       id="perspective5302"
       inkscape:persp3d-origin="372.04724 : 350.7874 : 1"
       inkscape:vp_z="744.09447 : 526.18111 : 1"
       inkscape:vp_y="0 : 1000 : 0"
       inkscape:vp_x="0 : 526.18111 : 1"
       sodipodi:type="inkscape:persp3d" /><symbol
       id="ToiletsMen"><title
         id="title4892">Toilets - Men</title><g
         style="stroke:none"
         id="g4898"><circle
           cx="36"
           cy="9"
           r="5"
           id="circle4894" /><path
           d="m 24,22 v 15.5 a 2.25,2.25 0 0 0 4.5,0 V 23 h 1 v 39.5 a 3,3 0 0 0 6,0 V 40 h 1 v 22.5 a 3,3 0 0 0 6,0 V 23 h 1 v 14.5 a 2.25,2.25 0 0 0 4.5,0 V 22 A 7,7 0 0 0 41,15 H 31 a 7,7 0 0 0 -7,7 z"
           id="path4896"
           inkscape:connector-curvature="0" /></g></symbol></defs><g
     inkscape:label="Livello 1"
     inkscape:groupmode="layer"
     id="layer1"><g
       id="path19" /><g
       id="rect22-0"
       transform="matrix(-1,0,0,1,30.661761,0.23016813)" /><g
       id="rect22-7"
       transform="matrix(-1,0,0,1,30.845845,-1.8811487e-4)" /><g
       id="path26" /><g
       id="path52"
       transform="translate(-38.081357,-6.611757)" /><g
       id="path52-1"
       transform="matrix(-1,0,0,1,21.996584,0)" /><g
       inkscape:label="Livello 1"
       id="layer1-7"><g
         id="path7-6"
         transform="translate(0.01198945,-0.5007424)" /><path
         id="rect1"
         style="fill:#0093db;fill-opacity:1;stroke:none;stroke-width:0.982962;stroke-linecap:round;stroke-linejoin:round;stroke-dasharray:none;stroke-dashoffset:6.03213;stroke-opacity:1;paint-order:markers fill stroke"
         d="m 14.009998,4.060734 c -0.172255,-2.607e-4 -0.331586,0.09132 -0.418063,0.2402955 L 12.736174,5.7851766 H 10.515637 C 9.5546276,5.8968174 8.733723,6.1967757 8.3013021,7.0207601 L 4.6224569,13.532507 2.3182048,15.214058 v 5.096847 c 0,0.724895 0.1539759,1.780764 0.543636,2.108398 0.3896601,0.327634 0.5331109,0.40256 1.19941,0.40256 h 0.1126546 v 2.578654 c 0,0.450715 0.3631833,0.813904 0.8139038,0.813904 h 2.2339722 c 0.4507205,0 0.8128703,-0.363189 0.8128703,-0.813904 V 22.821863 H 23.965462 v 2.578654 c 0,0.450715 0.36215,0.813904 0.812871,0.813904 h 2.233972 c 0.45072,0 0.813903,-0.363189 0.813903,-0.813904 v -2.578654 h 0.112655 c 0.633679,0 0.806553,-0.120063 1.114661,-0.4377 0.308107,-0.31764 0.628385,-1.315744 0.628385,-2.073258 V 15.214058 L 27.377657,13.531991 23.698812,7.0207601 C 23.266389,6.1967757 22.445489,5.8968174 21.484477,5.7851766 h -2.111499 c -0.0025,-0.00521 -0.0051,-0.010382 -0.0078,-0.015503 L 18.519283,4.3010295 C 18.432899,4.1522143 18.273807,4.0606579 18.101737,4.060734 Z m 0.279052,0.964799 h 3.533118 l 0.43925,0.7596436 H 13.849801 Z M 9.785966,8.1834798 h 12.428182 l 2.650484,5.5800212 H 7.1354818 Z M 6.2518148,16.300297 c 0.6194445,5.48e-4 1.1214018,0.474912 1.1213786,1.0604 2.32e-5,0.585488 -0.5019341,1.060369 -1.1213786,1.060918 -0.6200999,3.25e-4 -1.1229516,-0.474812 -1.1229289,-1.060918 -2.27e-5,-0.586107 0.5028291,-1.060726 1.1229289,-1.0604 z m 19.5895022,0 c 0.619445,5.5e-4 1.1214,0.47491 1.121378,1.0604 2.2e-5,0.585487 -0.501933,1.060368 -1.121378,1.060918 -0.620099,3.23e-4 -1.122952,-0.474814 -1.122929,-1.060918 -2.3e-5,-0.586107 0.50283,-1.060724 1.122929,-1.0604 z"
         sodipodi:nodetypes="cccccccssscssssccsssscsssccccccccccccccccccccccccccccc" /></g><path
       id="path1"
       style="fill:#0093db;fill-opacity:1;stroke:none;stroke-width:0.946;stroke-linecap:round;stroke-linejoin:round;stroke-dasharray:none;stroke-dashoffset:6.03213;stroke-opacity:1;paint-order:markers fill stroke"
       d="M 20.486605 8.8273682 C 19.770718 8.8276242 19.190509 9.4904249 19.19056 10.307898 C 19.191627 10.639681 19.290265 10.961435 19.470646 11.221537 C 19.766223 11.116973 20.083621 11.059273 20.414258 11.059273 C 20.78853 11.059272 21.146166 11.133053 21.474141 11.265462 C 21.673282 10.998187 21.782803 10.658823 21.783167 10.307898 C 21.783219 9.4901949 21.202694 8.8272992 20.486605 8.8273682 z M 20.384802 11.562602 C 19.361483 11.562863 18.4748 12.2788 18.259867 13.279293 A 0.2260005 0.2260005 0 0 0 18.4335 13.546977 A 0.2260005 0.2260005 0 0 0 18.703251 13.374894 C 18.873998 12.580086 19.57186 12.013945 20.384802 12.013737 C 21.197743 12.013529 21.899336 12.578107 22.070487 13.372827 A 0.2260005 0.2260005 0 0 0 22.337655 13.546977 A 0.2260005 0.2260005 0 0 0 22.511804 13.277226 C 22.296359 12.276843 21.408121 11.562341 20.384802 11.562602 z " /></g></svg>
