<?xml version="1.0" encoding="UTF-8" standalone="no"?>
<!-- Created with Inkscape (http://www.inkscape.org/) -->

<svg
   width="32mm"
   height="32mm"
   viewBox="0 0 32 32"
   version="1.1"
   id="svg1"
   xml:space="preserve"
   inkscape:version="1.3.1 (9b9bdc1480, 2023-11-25, custom)"
   sodipodi:docname="amenity_theatre.16.svg"
   xmlns:inkscape="http://www.inkscape.org/namespaces/inkscape"
   xmlns:sodipodi="http://sodipodi.sourceforge.net/DTD/sodipodi-0.dtd"
   xmlns="http://www.w3.org/2000/svg"
   xmlns:svg="http://www.w3.org/2000/svg"><sodipodi:namedview
     id="namedview1"
     pagecolor="#ffffff"
     bordercolor="#666666"
     borderopacity="1.0"
     inkscape:showpageshadow="2"
     inkscape:pageopacity="0.0"
     inkscape:pagecheckerboard="0"
     inkscape:deskcolor="#d1d1d1"
     inkscape:document-units="mm"
     showguides="true"
     inkscape:zoom="2"
     inkscape:cx="27"
     inkscape:cy="30.75"
     inkscape:window-width="1318"
     inkscape:window-height="719"
     inkscape:window-x="48"
     inkscape:window-y="27"
     inkscape:window-maximized="1"
     inkscape:current-layer="layer1"
     showgrid="false"><sodipodi:guide
       position="24.447167,4.8851013"
       orientation="0,-1"
       id="guide8"
       inkscape:locked="false" /><sodipodi:guide
       position="18.475006,31.999999"
       orientation="0,-1"
       id="guide9"
       inkscape:locked="false" /></sodipodi:namedview><defs
     id="defs1"><inkscape:perspective
       sodipodi:type="inkscape:persp3d"
       inkscape:vp_x="-183.11487 : 148.50001 : 1"
       inkscape:vp_y="0 : 1000 : 0"
       inkscape:vp_z="-195.51426 : 148.50001 : 1"
       inkscape:persp3d-origin="-189.31457 : 99.000003 : 1"
       id="perspective10172" /><symbol
       id="Recycling"><title
         id="title7498">Recycling</title><g
         style="stroke:none"
         id="g7512"><path
           style="stroke-width:0.26458332"
           inkscape:connector-curvature="0"
           d="m 14.684375,3.9026042 -1.389063,0.79375 -0.926041,-1.5875 C 12.236979,2.8773437 11.972396,2.7119792 11.608594,2.7119792 H 8.8304687 C 9.0289062,2.9104167 9.0619792,2.9765625 9.1611979,3.1419271 L 10.88099,6.1184896 9.4919271,6.9122396 H 12.93151 Z"
           id="path7500" /><path
           style="stroke-width:0.26458332"
           inkscape:connector-curvature="0"
           d="m 14.254427,12.038542 h 1.389063 c 0.826822,0 1.322916,-0.892969 0.926041,-1.5875 l -1.752864,-3.069167 -2.38125,1.3890625 z"
           id="path7502" /><path
           style="stroke-width:0.26458332"
           inkscape:connector-curvature="0"
           d="m 12.170833,17.065625 v -1.5875 h 1.852084 c 0.264583,0 0.529166,-0.132292 0.727604,-0.463021 l 1.389062,-2.38125 C 15.875,12.7 15.775781,12.7 15.610417,12.7 h -3.439584 v -1.5875 l -1.719791,2.976562 z"
           id="path7504" /><path
           style="stroke-width:0.26458332"
           inkscape:connector-curvature="0"
           d="m 5.3578125,12.7 -0.6945313,1.190625 c -0.396875,0.727604 0.099219,1.5875 0.8929688,1.5875 H 9.0619792 V 12.7 Z"
           id="path7506" /><path
           style="stroke-width:0.26458332"
           inkscape:connector-curvature="0"
           d="m 2.0505208,8.4005208 1.3890625,0.79375 -0.9260416,1.5875002 C 2.38125,11.013281 2.38125,11.310937 2.5466146,11.641667 l 1.3559896,2.38125 c 0.066146,-0.264584 0.099219,-0.33073 0.1984375,-0.496094 L 5.8208333,10.55026 7.2098958,11.34401 5.4901042,8.3674479 Z"
           id="path7508" /><path
           style="stroke-width:0.26458332"
           inkscape:connector-curvature="0"
           d="M 9.2604167,4.6302083 8.5989583,3.4395833 c -0.4299479,-0.6945312 -1.4221354,-0.6945312 -1.8190104,0 l -1.7528646,3.0427084 2.38125,1.3890625 z"
           id="path7510" /></g></symbol><inkscape:perspective
       id="perspective8310"
       inkscape:persp3d-origin="372.04724 : 350.7874 : 1"
       inkscape:vp_z="744.09447 : 526.18111 : 1"
       inkscape:vp_y="0 : 1000 : 0"
       inkscape:vp_x="0 : 526.18111 : 1"
       sodipodi:type="inkscape:persp3d" /><inkscape:perspective
       id="perspective5302"
       inkscape:persp3d-origin="372.04724 : 350.7874 : 1"
       inkscape:vp_z="744.09447 : 526.18111 : 1"
       inkscape:vp_y="0 : 1000 : 0"
       inkscape:vp_x="0 : 526.18111 : 1"
       sodipodi:type="inkscape:persp3d" /><symbol
       id="ToiletsMen"><title
         id="title4892">Toilets - Men</title><g
         style="stroke:none"
         id="g4898"><circle
           cx="36"
           cy="9"
           r="5"
           id="circle4894" /><path
           d="m 24,22 v 15.5 a 2.25,2.25 0 0 0 4.5,0 V 23 h 1 v 39.5 a 3,3 0 0 0 6,0 V 40 h 1 v 22.5 a 3,3 0 0 0 6,0 V 23 h 1 v 14.5 a 2.25,2.25 0 0 0 4.5,0 V 22 A 7,7 0 0 0 41,15 H 31 a 7,7 0 0 0 -7,7 z"
           id="path4896"
           inkscape:connector-curvature="0" /></g></symbol><inkscape:perspective
       sodipodi:type="inkscape:persp3d"
       inkscape:vp_x="0 : 100 : 1"
       inkscape:vp_y="0 : 1000 : 0"
       inkscape:vp_z="200 : 100 : 1"
       inkscape:persp3d-origin="100 : 66.666667 : 1"
       id="perspective2879" /></defs><g
     inkscape:label="Livello 1"
     inkscape:groupmode="layer"
     id="layer1"><g
       id="path19" /><g
       id="rect22-0"
       transform="matrix(-1,0,0,1,30.661761,0.23016813)" /><g
       id="rect22-7"
       transform="matrix(-1,0,0,1,30.845845,-1.8811487e-4)" /><g
       id="path26" /><g
       id="path52"
       transform="translate(-38.081357,-6.611757)" /><g
       id="path52-1"
       transform="matrix(-1,0,0,1,21.996584,0)" /><path
       style="color:#000000;fill:#734a08;stroke-linejoin:round;-inkscape-stroke:none;paint-order:markers fill stroke"
       d="m 17.064453,3.1503906 c -0.120858,-0.031056 -0.249196,0.00213 -0.339844,0.087891 C 15.140068,4.738194 12.803193,5.6194121 10.335938,5.625 7.869283,5.6194967 5.5338376,4.7375252 3.9492188,3.2382813 3.7545678,3.0540699 3.4342628,3.1370341 3.3535156,3.3925781 c -0.6710311,2.1058302 -1.0225607,4.477 -1.0234375,6.8906249 -3.23e-5,3.836206 0.8638583,7.314585 2.2851563,9.861328 1.421298,2.546744 3.4345213,4.197234 5.7207036,4.197266 1.932789,-2.8e-5 3.801483,-1.329868 5.140625,-3.189453 L 15.255725,20.288781 C 14.00951,22.019325 11.927197,23.615212 10.335938,23.615234 8.4012724,23.615207 6.5927632,22.200537 5.2480469,19.791016 3.9033305,17.381495 3.0566092,14.009921 3.0566406,10.283203 3.0574317,8.1056318 3.3817208,5.9856438 3.9414063,4.0683594 c 1.70995,1.4098635 3.9659314,2.2777847 6.3945317,2.2832031 2.423495,-0.00549 4.672045,-0.8710656 6.380859,-2.2753906 0.361442,1.2854665 0.714233,3.0551149 0.853515,4.375 l 0.744956,0.5134824 C 18.155894,7.4543745 17.756308,4.7597342 17.320312,3.390625 17.28197,3.2719027 17.185353,3.1811852 17.064453,3.1503906 Z"
       id="path23"
       sodipodi:nodetypes="ccccccsccccscccccccc" /><path
       id="path23-8"
       style="fill:#734a08;fill-opacity:1;stroke:none;stroke-width:0.525691;stroke-linecap:round;stroke-linejoin:round;stroke-dasharray:none;stroke-dashoffset:0;stroke-opacity:1;paint-order:markers fill stroke"
       d="M 29.429729,8.0315512 A 8.7767735,7.1249402 0 0 1 22.791891,10.518221 8.7767735,7.1249402 0 0 1 16.155087,8.0331015 7.642488,13.693827 0 0 0 15.149463,14.814084 7.642488,13.693827 0 0 0 22.791891,28.507821 7.642488,13.693827 0 0 0 30.434318,14.814084 7.642488,13.693827 0 0 0 29.429729,8.0315512 Z m -9.926526,5.0865118 a 1.1188982,2.4120147 0 0 1 1.119311,2.412256 1.1188982,2.4120147 0 0 1 -1.119311,2.411739 1.1188982,2.4120147 0 0 1 -1.118795,-2.411739 1.1188982,2.4120147 0 0 1 1.118795,-2.412256 z m 6.966499,0.131775 a 1.1188982,2.4120147 0 0 1 1.118795,2.412256 1.1188982,2.4120147 0 0 1 -1.118795,2.411739 1.1188982,2.4120147 0 0 1 -1.118794,-2.411739 1.1188982,2.4120147 0 0 1 1.118794,-2.412256 z m -0.425297,9.364803 a 3.5894005,3.5894005 0 0 1 -3.193603,1.95802 3.5894005,3.5894005 0 0 1 -3.197738,-1.952336 z" /><path
       style="color:#000000;fill:#734a08;stroke-linecap:round;stroke-linejoin:round;-inkscape-stroke:none;paint-order:markers fill stroke"
       d="m 7.5644531,-19.521484 a 0.76300001,0.76300001 0 0 0 -0.5820312,0.04687 0.76300001,0.76300001 0 0 0 -0.3320313,1.027343 c 0.7448583,1.452963 2.2461442,2.368769 3.8789064,2.367188 1.632762,-0.0016 3.131004,-0.920597 3.873047,-2.375 a 0.76300001,0.76300001 0 0 0 -0.333985,-1.025391 0.76300001,0.76300001 0 0 0 -1.02539,0.332032 c -0.483034,0.946746 -1.452776,1.541939 -2.515625,1.542968 -1.0628495,0.001 -2.0327116,-0.591301 -2.5175784,-1.537109 a 0.76300001,0.76300001 0 0 0 -0.4453125,-0.378906 z"
       id="path24"
       transform="scale(1,-1)" /><ellipse
       style="fill:#734a08;fill-opacity:1;stroke:none;stroke-width:1.526;stroke-linecap:round;stroke-linejoin:round;stroke-dasharray:none;stroke-dashoffset:0;stroke-opacity:1;paint-order:markers fill stroke"
       id="path25"
       cx="6.980113"
       cy="10.844876"
       rx="1.9091293"
       ry="0.88561696" /><path
       id="path25-3"
       style="fill:#734a08;fill-opacity:1;stroke:none;stroke-width:1.526;stroke-linecap:round;stroke-linejoin:round;stroke-dasharray:none;stroke-dashoffset:0;stroke-opacity:1;paint-order:markers fill stroke"
       d="m 13.860136,9.9673503 c -1.05417,-8.07e-5 -1.908969,0.3962037 -1.909444,0.8852177 -1.39e-4,0.489215 0.85484,0.885815 1.909444,0.885734 0.109591,-6.38e-4 0.5602,-0.05075 0.904958,-0.07027 0.04893,-0.580866 0.156874,-0.934843 0.246987,-1.499662 -0.173904,-0.02361 -0.970746,-0.200984 -1.151945,-0.2010237 z"
       sodipodi:nodetypes="cccccc" /></g></svg>
