<?xml version="1.0" encoding="UTF-8" standalone="no"?>
<!-- Created with Inkscape (http://www.inkscape.org/) -->

<svg
   width="32mm"
   height="32mm"
   viewBox="0 0 32 32"
   version="1.1"
   id="svg1"
   xml:space="preserve"
   inkscape:version="1.3.1 (9b9bdc1480, 2023-11-25, custom)"
   sodipodi:docname="amenity_public_building.svg"
   xmlns:inkscape="http://www.inkscape.org/namespaces/inkscape"
   xmlns:sodipodi="http://sodipodi.sourceforge.net/DTD/sodipodi-0.dtd"
   xmlns="http://www.w3.org/2000/svg"
   xmlns:svg="http://www.w3.org/2000/svg"><sodipodi:namedview
     id="namedview1"
     pagecolor="#ffffff"
     bordercolor="#666666"
     borderopacity="1.0"
     inkscape:showpageshadow="2"
     inkscape:pageopacity="0.0"
     inkscape:pagecheckerboard="0"
     inkscape:deskcolor="#d1d1d1"
     inkscape:document-units="mm"
     showguides="true"
     inkscape:zoom="2"
     inkscape:cx="-3.5"
     inkscape:cy="19.25"
     inkscape:window-width="1318"
     inkscape:window-height="719"
     inkscape:window-x="48"
     inkscape:window-y="27"
     inkscape:window-maximized="1"
     inkscape:current-layer="layer1"
     showgrid="false"><sodipodi:guide
       position="16.225336,-14.837615"
       orientation="1,0"
       id="guide4"
       inkscape:locked="false" /></sodipodi:namedview><defs
     id="defs1" /><g
     inkscape:label="Livello 1"
     inkscape:groupmode="layer"
     id="layer1"><g
       id="path19" /><g
       id="rect22-0"
       transform="matrix(-1,0,0,1,30.661761,0.23016813)" /><g
       id="rect22-7"
       transform="matrix(-1,0,0,1,30.845845,-1.8811487e-4)" /><g
       id="path26" /><g
       id="path52"
       transform="translate(-38.081357,-6.611757)" /><g
       id="path52-1"
       transform="matrix(-1,0,0,1,21.996584,0)" /><path
       style="color:#000000;fill:#f6c77a;fill-opacity:1;-inkscape-stroke:none;paint-order:markers fill stroke"
       d="M 18.473682,29.943087 H 27.77346 V 12.616422 h 1.675968 v -0.60437 L 16.409087,2.0569134 H 15.590912 L 2.5505718,12.012052 v 0.60437 h 1.6759686 v 17.326665 h 9.2997766 z"
       id="path9"
       sodipodi:nodetypes="ccccccccccccc" /><path
       style="color:#000000;fill:#734a08;fill-opacity:1;-inkscape-stroke:none;paint-order:markers fill stroke"
       d="M 15.376953,1.4238281 1.9179687,11.699219 v 1.548828 H 3.59375 v 17.328125 h 24.8125 V 13.248047 h 1.675781 V 11.699219 L 16.623047,1.4238281 Z m 0.427735,1.265625 h 0.390624 L 28.371094,11.984375 H 27.140625 V 29.310547 H 4.859375 V 11.984375 H 3.6289063 Z"
       id="path10"
       sodipodi:nodetypes="cccccccccccccccccccc" /><circle
       style="fill:#774d0b;fill-opacity:1;stroke:none;stroke-width:2.06052;stroke-linecap:round;stroke-linejoin:round;stroke-dasharray:none;stroke-dashoffset:6.03213;stroke-opacity:1;paint-order:markers fill stroke"
       id="path12"
       cx="16"
       cy="19.134102"
       r="2.1045549" /><path
       id="rect12"
       style="fill:#774d0b;fill-opacity:1;stroke-width:2.06052;stroke-linecap:round;stroke-linejoin:round;stroke-dashoffset:6.03213;paint-order:markers fill stroke"
       d="m 15.039421,21.637475 h 1.921158 c 1.257176,0 2.269271,0.730483 2.269271,1.637855 v 2.954419 c 0,0.907371 -0.714573,2.487919 -1.971748,2.487919 h -2.473701 c -1.257177,0 -2.014251,-1.580548 -2.014251,-2.487919 V 23.27533 c 0,-0.907372 1.012094,-1.637855 2.269271,-1.637855 z"
       sodipodi:nodetypes="sssssssss" /><g
       id="g3"
       transform="translate(-0.43867065)"
       style="fill:#774d0b;fill-opacity:1"><g
         id="g2"
         style="fill:#774d0b;fill-opacity:1"><circle
           style="fill:#774d0b;fill-opacity:1;stroke:none;stroke-width:1.64841;stroke-linecap:round;stroke-linejoin:round;stroke-dasharray:none;stroke-dashoffset:6.03213;stroke-opacity:1;paint-order:markers fill stroke"
           id="path12-0"
           cx="23.758133"
           cy="18.49577"
           r="1.6836338" /><path
           id="rect12-6"
           style="fill:#774d0b;fill-opacity:1;stroke-width:1.64841;stroke-linecap:round;stroke-linejoin:round;stroke-dashoffset:6.03213;paint-order:markers fill stroke"
           d="m 22.974362,20.498457 h 1.536917 c 1.005735,0 1.815406,0.584382 1.815406,1.310276 v 2.363521 c 0,0.725892 -0.571655,1.990323 -1.577389,1.990323 h -1.978949 c -1.005736,0 -1.611391,-1.264431 -1.611391,-1.990323 v -2.363521 c 0,-0.725894 0.80967,-1.310276 1.815406,-1.310276 z"
           sodipodi:nodetypes="sssssssss" /><circle
           style="fill:#774d0b;fill-opacity:1;stroke:none;stroke-width:1.3329;stroke-linecap:round;stroke-linejoin:round;stroke-dasharray:none;stroke-dashoffset:6.03213;stroke-opacity:1;paint-order:markers fill stroke"
           id="path12-0-8"
           cx="23.099876"
           cy="12.499624"
           r="1.3613784" /><path
           id="rect12-6-7"
           style="fill:#774d0b;fill-opacity:1;stroke-width:1.3329;stroke-linecap:round;stroke-linejoin:round;stroke-dashoffset:6.03213;paint-order:markers fill stroke"
           d="m 22.46633,14.119035 c -0.813234,0 -1.468128,0.472413 -1.468128,1.059367 v 1.910994 c 0,0.496378 0.350373,1.304532 0.95033,1.542025 a 1.8194206,1.8194206 0 0 1 -0.0098,-0.135909 1.8194206,1.8194206 0 0 1 1.819527,-1.819011 1.8194206,1.8194206 0 0 1 1.396814,0.654224 c 0.01462,-0.0854 0.0217,-0.166946 0.0217,-0.241329 v -1.910994 c 0,-0.586954 -0.654895,-1.059367 -1.468127,-1.059367 z" /><circle
           style="fill:#774d0b;fill-opacity:1;stroke:none;stroke-width:1.18345;stroke-linecap:round;stroke-linejoin:round;stroke-dasharray:none;stroke-dashoffset:6.03213;stroke-opacity:1;paint-order:markers fill stroke"
           id="path12-0-8-2"
           cx="20.205675"
           cy="8.8824806"
           r="1.2087326" /><path
           id="rect12-6-7-2"
           style="fill:#774d0b;fill-opacity:1;stroke-width:1.18345;stroke-linecap:round;stroke-linejoin:round;stroke-dashoffset:6.03213;paint-order:markers fill stroke"
           d="m 19.642729,10.3203 c -0.722048,0 -1.303279,0.419371 -1.303279,0.940511 v 1.697054 c 0,0.521141 0.434987,1.428854 1.157035,1.428854 h 1.420585 c 0.53722,0 0.901655,-0.502711 1.053166,-0.974618 a 1.4548407,1.4548407 0 0 1 -0.325045,-0.912606 1.4548407,1.4548407 0 0 1 0.404627,-1.002006 v -0.236678 c 0,-0.52114 -0.581232,-0.940511 -1.30328,-0.940511 z" /></g><g
         id="g1"
         style="fill:#774d0b;fill-opacity:1"><circle
           style="fill:#774d0b;fill-opacity:1;stroke:none;stroke-width:1.64841;stroke-linecap:round;stroke-linejoin:round;stroke-dasharray:none;stroke-dashoffset:6.03213;stroke-opacity:1;paint-order:markers fill stroke"
           id="path12-0-4"
           cx="-9.1192083"
           cy="18.509132"
           r="1.6836338"
           transform="scale(-1,1)" /><path
           id="rect12-6-78"
           style="fill:#774d0b;fill-opacity:1;stroke-width:1.64841;stroke-linecap:round;stroke-linejoin:round;stroke-dashoffset:6.03213;paint-order:markers fill stroke"
           d="m 9.9029793,20.511821 h -1.536917 c -1.005735,0 -1.815406,0.584382 -1.815406,1.310276 v 2.363521 c 0,0.725892 0.571655,1.990323 1.577389,1.990323 h 1.9789487 c 1.005736,0 1.611391,-1.264431 1.611391,-1.990323 v -2.363521 c 0,-0.725894 -0.80967,-1.310276 -1.8154057,-1.310276 z"
           sodipodi:nodetypes="sssssssss" /><circle
           style="fill:#774d0b;fill-opacity:1;stroke:none;stroke-width:1.3329;stroke-linecap:round;stroke-linejoin:round;stroke-dasharray:none;stroke-dashoffset:6.03213;stroke-opacity:1;paint-order:markers fill stroke"
           id="path12-0-8-4"
           cx="-9.7774649"
           cy="12.512988"
           r="1.3613784"
           transform="scale(-1,1)" /><path
           id="rect12-6-7-5"
           style="fill:#774d0b;fill-opacity:1;stroke-width:1.3329;stroke-linecap:round;stroke-linejoin:round;stroke-dashoffset:6.03213;paint-order:markers fill stroke"
           d="m 10.411011,14.132399 c 0.813234,0 1.468128,0.472413 1.468128,1.059367 v 1.910994 c 0,0.496378 -0.350373,1.304532 -0.95033,1.542025 a 1.8194206,1.8194206 0 0 0 0.0098,-0.135909 1.8194206,1.8194206 0 0 0 -1.8195267,-1.819011 1.8194206,1.8194206 0 0 0 -1.396814,0.654224 c -0.01462,-0.0854 -0.0217,-0.166946 -0.0217,-0.241329 v -1.910994 c 0,-0.586954 0.654895,-1.059367 1.468127,-1.059367 z" /><circle
           style="fill:#774d0b;fill-opacity:1;stroke:none;stroke-width:1.18345;stroke-linecap:round;stroke-linejoin:round;stroke-dasharray:none;stroke-dashoffset:6.03213;stroke-opacity:1;paint-order:markers fill stroke"
           id="path12-0-8-2-0"
           cx="-12.671666"
           cy="8.8958445"
           r="1.2087326"
           transform="scale(-1,1)" /><path
           id="rect12-6-7-2-3"
           style="fill:#774d0b;fill-opacity:1;stroke-width:1.18345;stroke-linecap:round;stroke-linejoin:round;stroke-dashoffset:6.03213;paint-order:markers fill stroke"
           d="m 13.234612,10.333664 c 0.722048,0 1.303279,0.419371 1.303279,0.940511 v 1.697054 c 0,0.521141 -0.434987,1.428854 -1.157035,1.428854 h -1.420585 c -0.53722,0 -0.901655,-0.502711 -1.053166,-0.974618 a 1.4548407,1.4548407 0 0 0 0.325045,-0.912606 1.4548407,1.4548407 0 0 0 -0.404627,-1.002006 v -0.236678 c 0,-0.52114 0.581232,-0.940511 1.30328,-0.940511 z" /><circle
           style="fill:#774d0b;fill-opacity:1;stroke:none;stroke-width:1.18345;stroke-linecap:round;stroke-linejoin:round;stroke-dasharray:none;stroke-dashoffset:6.03213;stroke-opacity:1;paint-order:markers fill stroke"
           id="path12-0-8-2-0-3"
           cx="-16.409384"
           cy="11.36087"
           r="1.2087326"
           transform="scale(-1,1)" /><path
           id="rect12-6-7-2-3-2"
           style="fill:#774d0b;fill-opacity:1;stroke-width:1.18345;stroke-linecap:round;stroke-linejoin:round;stroke-dashoffset:6.03213;paint-order:markers fill stroke"
           d="m 16.972329,12.79869 c 0.722048,0 1.303279,0.419371 1.303279,0.940511 v 1.697054 c 0,0.521141 -0.434987,1.428854 -1.157035,1.428854 h -1.420585 c -0.53722,0 -1.034331,-0.922738 -1.053166,-1.428854 -0.05437,-0.968441 -0.07958,-1.260885 -0.07958,-1.697054 0,-0.52114 0.581232,-0.940511 1.30328,-0.940511 z"
           sodipodi:nodetypes="ssssscsss" /></g></g></g></svg>
