<?xml version="1.0" encoding="UTF-8" standalone="no"?>
<!-- Created with Inkscape (http://www.inkscape.org/) -->

<svg
   width="32mm"
   height="32mm"
   viewBox="0 0 32 32"
   version="1.1"
   id="svg1"
   xml:space="preserve"
   inkscape:version="1.3.1 (9b9bdc1480, 2023-11-25, custom)"
   sodipodi:docname="amenity_cafe.2.svg"
   xmlns:inkscape="http://www.inkscape.org/namespaces/inkscape"
   xmlns:sodipodi="http://sodipodi.sourceforge.net/DTD/sodipodi-0.dtd"
   xmlns="http://www.w3.org/2000/svg"
   xmlns:svg="http://www.w3.org/2000/svg"><sodipodi:namedview
     id="namedview1"
     pagecolor="#ffffff"
     bordercolor="#666666"
     borderopacity="1.0"
     inkscape:showpageshadow="2"
     inkscape:pageopacity="0.0"
     inkscape:pagecheckerboard="0"
     inkscape:deskcolor="#d1d1d1"
     inkscape:document-units="mm"
     inkscape:zoom="3.4388184"
     inkscape:cx="10.323313"
     inkscape:cy="47.254604"
     inkscape:window-width="1318"
     inkscape:window-height="719"
     inkscape:window-x="48"
     inkscape:window-y="27"
     inkscape:window-maximized="1"
     inkscape:current-layer="layer1"
     showguides="true"
     showgrid="false"><sodipodi:guide
       position="31.338526,6.3755642"
       orientation="1,0"
       id="guide1"
       inkscape:locked="false" /></sodipodi:namedview><defs
     id="defs1" /><g
     inkscape:label="Livello 1"
     inkscape:groupmode="layer"
     id="layer1"><path
       id="rect6"
       style="fill:#734a08;fill-opacity:1;stroke:none;stroke-width:0.833001;stroke-linecap:round;stroke-linejoin:miter;stroke-dasharray:none;stroke-dashoffset:6.03213;stroke-opacity:1;paint-order:markers fill stroke"
       d="M 4.7418294 5.7939616 C 4.6997385 5.7939616 4.6658651 6.3781971 4.6658651 7.1039591 L 4.6658651 17.686259 C 4.6658651 17.848234 4.6679427 17.999087 4.6710327 18.142045 C 4.6691227 18.179055 4.6658651 18.215885 4.6658651 18.253149 C 4.6658651 18.343559 4.6733356 18.433015 4.6844686 18.521867 C 4.6983846 18.806026 4.7184725 18.996257 4.7418294 18.996257 L 4.79764 18.996257 C 5.4451954 20.818004 8.4289733 22.187793 12.035441 22.187793 L 13.8467 22.187793 C 17.453167 22.187793 20.43643 20.818004 21.083984 18.996257 L 21.109823 18.996257 C 21.124593 18.996257 21.137457 18.905077 21.149097 18.780249 C 21.191977 18.60786 21.216276 18.431995 21.216276 18.253149 C 21.216276 18.128531 21.204223 18.005773 21.183203 17.88418 C 21.183816 17.8169 21.185787 17.756596 21.185787 17.686259 L 21.185787 16.606738 C 21.978661 16.996037 22.880575 17.21652 23.832137 17.21652 C 26.915843 17.21652 29.480371 14.907442 29.480371 12.005469 C 29.480371 9.1034939 26.915843 6.7964844 23.832137 6.7964844 C 22.880575 6.7964844 21.978661 7.0167084 21.185787 7.4057495 L 21.185787 7.1039591 C 21.185787 6.3781971 21.151913 5.7939616 21.109823 5.7939616 L 4.7418294 5.7939616 z M 23.832137 8.0289673 C 26.307666 8.0289673 28.247888 9.8336027 28.247888 12.005469 C 28.247888 14.177334 26.307666 15.98197 23.832137 15.98197 C 22.831783 15.98197 21.918659 15.687407 21.185787 15.192871 L 21.185787 8.8180664 C 21.918659 8.3235314 22.831783 8.0289673 23.832137 8.0289673 z M 13.184725 8.1343872 A 2.9618829 5.2059539 1.627777 0 1 15.99799 13.422437 A 2.9618829 5.2059539 1.627777 0 1 13.35009 18.485177 A 0.46429013 0.46429013 0 0 0 13.279293 18.290356 C 12.46776 17.031952 12.285904 16.171961 12.348083 15.487944 C 12.41026 14.803925 12.733677 14.244353 13.098425 13.616223 C 13.463173 12.988093 13.87166 12.285474 13.89786 11.377083 C 13.923389 10.491808 13.575391 9.476642 12.644189 8.2165527 A 2.9618829 5.2059539 1.627777 0 1 13.184725 8.1343872 z M 11.827185 8.6728556 L 11.827702 8.6738892 L 11.829769 8.6780233 C 12.74121 9.8842333 12.987267 10.705878 12.968717 11.349178 C 12.950167 11.992478 12.65697 12.526364 12.295374 13.149068 C 11.933775 13.771774 11.506192 14.477337 11.422042 15.403194 C 11.346323 16.236228 11.565043 17.206861 12.252999 18.391125 A 2.9618829 5.2059539 1.627777 0 1 10.076388 13.253971 A 2.9618829 5.2059539 1.627777 0 1 11.827185 8.6728556 z " /><path
       id="rect8"
       style="fill:#734a08;stroke-width:1.39662;stroke-linecap:round;stroke-dashoffset:6.03213;paint-order:markers fill stroke"
       d="M 3.7499995,23.775295 H 22.132142 c 0.746259,0 2.250813,2.039805 1.347037,1.726569 -1.476147,-0.511611 -7.178469,1.726568 -6.638704,1.726568 H 9.0416661 c 0.5336316,0 -5.2202868,-2.184728 -6.6387033,-1.726568 -0.9102136,0.294007 0.6007783,-1.726569 1.3470367,-1.726569 z"
       sodipodi:nodetypes="sssssss" /></g></svg>
