<?xml version="1.0" encoding="UTF-8" standalone="no"?>
<!-- Created with Inkscape (http://www.inkscape.org/) -->

<svg
   width="32mm"
   height="32mm"
   viewBox="0 0 32 32"
   version="1.1"
   id="svg1"
   xml:space="preserve"
   inkscape:version="1.3.1 (9b9bdc1480, 2023-11-25, custom)"
   sodipodi:docname="amenity_parking_car.svg"
   xmlns:inkscape="http://www.inkscape.org/namespaces/inkscape"
   xmlns:sodipodi="http://sodipodi.sourceforge.net/DTD/sodipodi-0.dtd"
   xmlns="http://www.w3.org/2000/svg"
   xmlns:svg="http://www.w3.org/2000/svg"><sodipodi:namedview
     id="namedview1"
     pagecolor="#ffffff"
     bordercolor="#666666"
     borderopacity="1.0"
     inkscape:showpageshadow="2"
     inkscape:pageopacity="0.0"
     inkscape:pagecheckerboard="0"
     inkscape:deskcolor="#d1d1d1"
     inkscape:document-units="mm"
     showguides="true"
     inkscape:zoom="2"
     inkscape:cx="16.75"
     inkscape:cy="79.75"
     inkscape:window-width="1318"
     inkscape:window-height="719"
     inkscape:window-x="48"
     inkscape:window-y="27"
     inkscape:window-maximized="1"
     inkscape:current-layer="layer1"><sodipodi:guide
       position="30.86609,17.025411"
       orientation="1,0"
       id="guide4"
       inkscape:locked="false" /><sodipodi:guide
       position="17.727083,5.1447916"
       orientation="0,-1"
       id="guide74"
       inkscape:locked="false" /></sodipodi:namedview><defs
     id="defs1" /><g
     inkscape:label="Livello 1"
     inkscape:groupmode="layer"
     id="layer1"><g
       id="path19" /><g
       id="rect22-0"
       transform="matrix(-1,0,0,1,30.661761,0.23016813)" /><g
       id="rect22-7"
       transform="matrix(-1,0,0,1,30.845845,-1.8811487e-4)" /><g
       id="path26" /><g
       id="path52-1"
       transform="matrix(-1,0,0,1,21.996584,0)" /><path
       d="m 6.3226574,15.77547 h 7.6463516 c 1.903241,0 3.405799,-0.567633 4.708016,-1.73629 1.469168,-1.335607 2.103581,-2.904945 2.103581,-5.1420876 0,-4.5744554 -2.704605,-7.1454995 -7.51279,-7.1454995 H 3.2173704 V 26.093036 h 3.105287 z m 0,-2.737995 V 4.4895879 h 6.4776946 c 2.971727,0 4.741407,1.6027288 4.741407,4.2739431 0,2.671215 -1.76968,4.273944 -4.741407,4.273944 z"
       id="text94"
       style="font-size:39.0941px;line-height:1.25;font-family:Helvetica;-inkscape-font-specification:Helvetica;fill:#0093db;fill-opacity:1;stroke:none;stroke-width:0.834755"
       aria-label="P" /><g
       id="path7-6"
       transform="translate(-31.080925,-0.54616641)" /><g
       id="g13"
       transform="matrix(0.92343208,0,0,0.87321924,4.2379849,6.2280701)"><path
         id="rect1"
         style="fill:#0093db;fill-opacity:1;stroke:none;stroke-width:0.677166;stroke-linecap:round;stroke-linejoin:round;stroke-dasharray:none;stroke-dashoffset:6.03213;stroke-opacity:1;paint-order:markers fill stroke"
         d="m 12.221652,13.437197 c -0.662045,0.07691 -1.227591,0.283464 -1.525488,0.851111 l -2.534212,4.485745 -1.5875001,1.158585 v 3.511414 c 0,0.499384 0.1062316,1.226667 0.3746705,1.452376 0.2684389,0.225709 0.3672729,0.277234 0.8262898,0.277234 h 0.077515 v 1.776636 c 0,0.3105 0.2501856,0.560689 0.5606893,0.560689 h 1.5389228 c 0.3105037,0 0.5601727,-0.250189 0.5601727,-0.560689 v -1.776636 h 10.97458 v 1.776636 c 0,0.3105 0.249669,0.560689 0.560173,0.560689 h 1.538924 c 0.310504,0 0.560689,-0.250189 0.560689,-0.560689 v -1.776636 h 0.07751 c 0.436545,0 0.555889,-0.08283 0.768146,-0.301651 0.212257,-0.218824 0.432814,-0.906104 0.432814,-1.427959 v -3.511418 l -1.5875,-1.158585 -2.534212,-4.485745 c -0.297898,-0.567647 -0.863443,-0.774201 -1.525489,-0.851111 z m -0.502639,1.652092 h 8.561978 l 1.825729,3.843922 H 9.8932853 Z m -2.4346242,5.591509 c 0.4267385,3.77e-4 0.7724612,0.32747 0.7724452,0.730816 1.6e-5,0.403345 -0.3457067,0.730439 -0.7724452,0.730817 -0.4271901,2.24e-4 -0.7736181,-0.327046 -0.7736024,-0.730817 -1.57e-5,-0.403772 0.3464124,-0.731041 0.7736024,-0.730816 z m 13.4953262,-2e-6 c 0.426739,3.79e-4 0.772461,0.32747 0.772446,0.730817 1.5e-5,0.403345 -0.345707,0.730439 -0.772446,0.730818 -0.427189,2.23e-4 -0.773618,-0.327048 -0.773602,-0.730818 -1.6e-5,-0.403772 0.346413,-0.73104 0.773602,-0.730817 z"
         sodipodi:nodetypes="ccccszscssssccsssscszscccccccccccccccccccc" /><g
         id="g12"
         transform="matrix(1.1438765,0,0,1.1438765,-2.1827528,-1.097016)" /></g></g></svg>
