<?xml version="1.0" encoding="UTF-8" standalone="no"?>
<!-- Created with Inkscape (http://www.inkscape.org/) -->

<svg
   width="32mm"
   height="32mm"
   viewBox="0 0 32 32"
   version="1.1"
   id="svg1"
   xml:space="preserve"
   inkscape:version="1.3.1 (9b9bdc1480, 2023-11-25, custom)"
   sodipodi:docname="amenity_college.svg"
   xmlns:inkscape="http://www.inkscape.org/namespaces/inkscape"
   xmlns:sodipodi="http://sodipodi.sourceforge.net/DTD/sodipodi-0.dtd"
   xmlns="http://www.w3.org/2000/svg"
   xmlns:svg="http://www.w3.org/2000/svg"><sodipodi:namedview
     id="namedview1"
     pagecolor="#ffffff"
     bordercolor="#666666"
     borderopacity="1.0"
     inkscape:showpageshadow="2"
     inkscape:pageopacity="0.0"
     inkscape:pagecheckerboard="0"
     inkscape:deskcolor="#d1d1d1"
     inkscape:document-units="mm"
     showguides="true"
     inkscape:zoom="1.7710157"
     inkscape:cx="20.609642"
     inkscape:cy="118.85835"
     inkscape:window-width="1318"
     inkscape:window-height="719"
     inkscape:window-x="48"
     inkscape:window-y="27"
     inkscape:window-maximized="1"
     inkscape:current-layer="layer1"><sodipodi:guide
       position="16.225336,-14.837615"
       orientation="1,0"
       id="guide4"
       inkscape:locked="false" /></sodipodi:namedview><defs
     id="defs1" /><g
     inkscape:label="Livello 1"
     inkscape:groupmode="layer"
     id="layer1"><path
       id="path17-5"
       style="color:#000000;fill:#39ac39;stroke-linecap:round;stroke-linejoin:round;-inkscape-stroke:none"
       d="M 15.992822 2.6851074 A 0.63256324 0.63256324 0 0 0 15.408879 3.0757812 L 13.445691 7.8217448 L 3.2023885 7.8217448 L 3.2023885 23.658504 L 6.8941528 23.658504 L 4.9123617 28.44891 A 0.63249999 0.63249999 0 0 0 5.2565267 29.275216 A 0.63249999 0.63249999 0 0 0 6.0823161 28.933118 L 8.2635783 23.658504 L 23.7231 23.658504 L 25.904879 28.933118 A 0.63249999 0.63249999 0 0 0 26.731185 29.275216 A 0.63249999 0.63249999 0 0 0 27.072766 28.44891 L 25.090975 23.658504 L 28.797209 23.658504 L 28.797209 7.8217448 L 18.539954 7.8217448 L 16.576766 3.0757812 A 0.63256324 0.63256324 0 0 0 15.992822 2.6851074 z M 15.992822 4.9702393 L 17.172078 7.8217448 L 14.813566 7.8217448 L 15.992822 4.9702393 z M 8.5183431 12.496912 C 9.3843898 12.481346 10.047296 12.622584 10.278959 13.063802 C 10.808472 14.072306 11.199284 14.55125 11.959993 14.58774 C 12.720704 14.62423 24.746224 13.860093 25.351424 13.898893 C 26.38595 13.965223 27.343551 14.724402 27.343551 15.971635 C 27.343551 17.218867 26.38595 18.034374 25.351424 18.100704 C 24.746224 18.139508 12.720704 17.375367 11.959993 17.411857 C 11.199284 17.448348 10.808472 17.927291 10.278959 18.935795 C 9.749445 19.94429 6.9663793 19.384865 4.6560465 18.970418 L 4.6560465 17.372583 L 7.8000407 17.372583 C 8.0205279 17.372583 8.198466 17.029385 8.198466 16.603121 L 8.198466 16.237769 L 8.198466 15.761829 L 8.198466 15.396476 C 8.198466 14.970215 8.0205279 14.627014 7.8000407 14.627014 L 4.6560465 14.627014 L 4.6560465 13.029179 C 5.9556087 12.796053 7.4048543 12.516922 8.5183431 12.496912 z M 25.336438 14.932422 A 1.0677094 1.0677094 0 0 0 24.268286 16.000057 A 1.0677094 1.0677094 0 0 0 25.336438 17.067692 A 1.0677094 1.0677094 0 0 0 26.404073 16.000057 A 1.0677094 1.0677094 0 0 0 25.336438 14.932422 z " /><g
       id="path19" /></g></svg>
