<?xml version="1.0" encoding="UTF-8" standalone="no"?>
<!-- Created with Inkscape (http://www.inkscape.org/) -->

<svg
   width="32mm"
   height="32mm"
   viewBox="0 0 32 32"
   version="1.1"
   id="svg1"
   xml:space="preserve"
   inkscape:version="1.3.1 (9b9bdc1480, 2023-11-25, custom)"
   sodipodi:docname="amenity_pharmacy.16.svg"
   xmlns:inkscape="http://www.inkscape.org/namespaces/inkscape"
   xmlns:sodipodi="http://sodipodi.sourceforge.net/DTD/sodipodi-0.dtd"
   xmlns="http://www.w3.org/2000/svg"
   xmlns:svg="http://www.w3.org/2000/svg"><sodipodi:namedview
     id="namedview1"
     pagecolor="#ffffff"
     bordercolor="#666666"
     borderopacity="1.0"
     inkscape:showpageshadow="2"
     inkscape:pageopacity="0.0"
     inkscape:pagecheckerboard="0"
     inkscape:deskcolor="#d1d1d1"
     inkscape:document-units="mm"
     inkscape:zoom="1.4142136"
     inkscape:cx="39.951533"
     inkscape:cy="61.871843"
     inkscape:window-width="1318"
     inkscape:window-height="719"
     inkscape:window-x="48"
     inkscape:window-y="27"
     inkscape:window-maximized="1"
     inkscape:current-layer="layer1" /><defs
     id="defs1" /><g
     inkscape:label="Livello 1"
     inkscape:groupmode="layer"
     id="layer1"><path
       id="rect1"
       style="fill:#da0092;fill-opacity:1;stroke:none;stroke-width:1.265;stroke-dashoffset:6.03213;paint-order:markers fill stroke"
       d="M 10.929049 2.2112345 C 10.369782 2.2112345 9.9192912 2.8689483 9.9192912 3.6855632 L 9.9192912 6.7783976 C 9.9192912 7.5950125 10.369782 8.2527262 10.929049 8.2527262 L 21.071065 8.2527262 C 21.630332 8.2527262 22.080823 7.5950125 22.080823 6.7783976 L 22.080823 3.6855632 C 22.080823 2.8689483 21.630332 2.2112345 21.071065 2.2112345 L 10.929049 2.2112345 z M 15.995406 9.2015055 A 9.9629526 4.9218831 0 0 0 6.0843831 13.728361 L 6.0621623 13.728361 L 6.0621623 13.89786 A 9.9629526 4.9218831 0 0 0 6.0321899 14.123686 A 9.9629526 4.9218831 0 0 0 6.0621623 14.349512 L 6.0621623 29.788879 L 25.967924 29.788879 L 25.967924 13.728361 L 25.925033 13.728361 A 9.9629526 4.9218831 0 0 0 15.995406 9.2015055 z M 13.785722 13.946436 L 17.67644 13.946436 L 17.67644 17.837671 L 21.567676 17.837671 L 21.567676 21.728906 L 17.67644 21.728906 L 17.67644 25.619625 L 13.785722 25.619625 L 13.785722 21.728906 L 9.8944865 21.728906 L 9.8944865 17.837671 L 13.785722 17.837671 L 13.785722 13.946436 z " /><g
       id="path19"
       transform="translate(-33.676671,-0.88572981)" /><g
       id="rect22-0"
       transform="matrix(-1,0,0,1,-3.01491,-0.65556168)" /><g
       id="rect22-7"
       transform="matrix(-1,0,0,1,-2.830826,-0.88591792)" /><g
       id="path26"
       transform="translate(-33.676671,-0.88572981)" /><g
       id="path52-1"
       transform="matrix(-1,0,0,1,-11.680087,-0.88572981)" /></g></svg>
