<?xml version="1.0" encoding="UTF-8" standalone="no"?>
<!-- Created with Inkscape (http://www.inkscape.org/) -->

<svg
   width="32mm"
   height="32mm"
   viewBox="0 0 32 32"
   version="1.1"
   id="svg1"
   xml:space="preserve"
   sodipodi:docname="amenity_post_office.16.svg"
   inkscape:version="1.3.1 (9b9bdc1480, 2023-11-25, custom)"
   xmlns:inkscape="http://www.inkscape.org/namespaces/inkscape"
   xmlns:sodipodi="http://sodipodi.sourceforge.net/DTD/sodipodi-0.dtd"
   xmlns="http://www.w3.org/2000/svg"
   xmlns:svg="http://www.w3.org/2000/svg"><sodipodi:namedview
     id="namedview1"
     pagecolor="#ffffff"
     bordercolor="#666666"
     borderopacity="1.0"
     inkscape:showpageshadow="2"
     inkscape:pageopacity="0.0"
     inkscape:pagecheckerboard="0"
     inkscape:deskcolor="#d1d1d1"
     inkscape:document-units="mm"
     inkscape:zoom="1"
     inkscape:cx="19.499999"
     inkscape:cy="28.499999"
     inkscape:window-width="1318"
     inkscape:window-height="719"
     inkscape:window-x="48"
     inkscape:window-y="27"
     inkscape:window-maximized="1"
     inkscape:current-layer="layer1"
     showguides="true"><sodipodi:guide
       position="16.007291,19.961458"
       orientation="1,0"
       id="guide11"
       inkscape:locked="false" /><sodipodi:guide
       position="11.14271,18.65567"
       orientation="0,-1"
       id="guide12"
       inkscape:locked="false" /></sodipodi:namedview><defs
     id="defs1"><inkscape:perspective
       sodipodi:type="inkscape:persp3d"
       inkscape:vp_x="0 : 290 : 1"
       inkscape:vp_y="0 : 1000 : 0"
       inkscape:vp_z="580 : 290 : 1"
       inkscape:persp3d-origin="290 : 193.33333 : 1"
       id="perspective2441" /><inkscape:perspective
       id="perspective3452"
       inkscape:persp3d-origin="30 : 20 : 1"
       inkscape:vp_z="60 : 30 : 1"
       inkscape:vp_y="0 : 1000 : 0"
       inkscape:vp_x="0 : 30 : 1"
       sodipodi:type="inkscape:persp3d" /><symbol
       viewBox="244.5 110 489 219.9"
       id="symbol-university"><path
         id="path4460"
         d="M79,43l57,119c0,0,21-96,104-96s124,106,124,106l43-133l82-17L0,17L79,43z" /><path
         id="path4462"
         d="M94,176l-21,39"
         stroke-width="20"
         stroke="#000000"
         fill="none" /><path
         id="path4464"
         d="M300,19c0,10.5-22.6,19-50.5,19S199,29.5,199,19s22.6-19,50.5-19S300,8.5,300,19z" /><path
         id="path4466"
         d="M112,216l-16-38L64,88c0,0-9-8-4-35s16-24,16-24"
         stroke-width="20"
         stroke="#000000"
         ill="none" /></symbol><inkscape:perspective
       id="perspective4471"
       inkscape:persp3d-origin="372.04724 : 350.78739 : 1"
       inkscape:vp_z="744.09448 : 526.18109 : 1"
       inkscape:vp_y="0 : 1000 : 0"
       inkscape:vp_x="0 : 526.18109 : 1"
       sodipodi:type="inkscape:persp3d" /><inkscape:perspective
       id="perspective4668"
       inkscape:persp3d-origin="6 : 4 : 1"
       inkscape:vp_z="12 : 6 : 1"
       inkscape:vp_y="0 : 1000 : 0"
       inkscape:vp_x="0 : 6 : 1"
       sodipodi:type="inkscape:persp3d" /><inkscape:perspective
       id="perspective2893"
       inkscape:persp3d-origin="0.5 : 0.33333333 : 1"
       inkscape:vp_z="1 : 0.5 : 1"
       inkscape:vp_y="0 : 1000 : 0"
       inkscape:vp_x="0 : 0.5 : 1"
       sodipodi:type="inkscape:persp3d" /><inkscape:perspective
       id="perspective3898"
       inkscape:persp3d-origin="0.5 : 0.33333333 : 1"
       inkscape:vp_z="1 : 0.5 : 1"
       inkscape:vp_y="0 : 1000 : 0"
       inkscape:vp_x="0 : 0.5 : 1"
       sodipodi:type="inkscape:persp3d" /><inkscape:perspective
       id="perspective4011"
       inkscape:persp3d-origin="0.5 : 0.33333333 : 1"
       inkscape:vp_z="1 : 0.5 : 1"
       inkscape:vp_y="0 : 1000 : 0"
       inkscape:vp_x="0 : 0.5 : 1"
       sodipodi:type="inkscape:persp3d" /></defs><g
     inkscape:label="Livello 1"
     inkscape:groupmode="layer"
     id="layer1"><path
       id="rect11"
       style="color:#000000;fill:#734a08;stroke-width:0.728631;stroke-linecap:round;stroke-dashoffset:6.03213;-inkscape-stroke:none;paint-order:markers fill stroke"
       d="m 7.8611027,9.5504073 c -0.9542932,0 -1.7361826,0.7818897 -1.7361826,1.7361827 v 9.42682 c 0,0.954293 0.7818894,1.736183 1.7361826,1.736183 H 24.138896 c 0.954294,0 1.736183,-0.78189 1.736183,-1.736183 v -9.42682 c 0,-0.954293 -0.781889,-1.7361827 -1.736183,-1.7361827 z m 0,0.8893657 H 24.138896 c 0.476422,0 0.846442,0.370396 0.846442,0.846817 v 1.000442 L 15.863507,17.391657 7.0146619,12.363091 V 11.28659 c 0,-0.476421 0.37002,-0.846817 0.8464408,-0.846817 z m 17.1242353,2.904556 v 7.369081 c 0,0.08344 -0.01485,0.161774 -0.03615,0.237214 l -4.8772,-4.856868 z m -17.9706761,0.07907 4.6166411,2.623665 -4.6166411,4.601581 z m 5.1859551,2.947105 3.659878,2.079955 3.639168,-2.036278 5.056806,5.034214 c -0.122932,0.0683 -0.263522,0.110324 -0.417573,0.110324 H 7.8611027 c -0.2430516,0 -0.4576136,-0.09684 -0.6103562,-0.254158 z" /><g
       id="path19"
       transform="translate(-33.676671,-0.88572981)" /><g
       id="rect22-0"
       transform="matrix(-1,0,0,1,-3.01491,-0.65556168)" /><g
       id="rect22-7"
       transform="matrix(-1,0,0,1,-2.830826,-0.88591792)" /><g
       id="path26"
       transform="translate(-33.676671,-0.88572981)" /><g
       id="path52-1"
       transform="matrix(-1,0,0,1,-11.680087,-0.88572981)" /><g
       inkscape:label="Livello 1"
       id="layer1-2-6"
       transform="matrix(0.45560341,0,0,0.45560341,-2.1257745,18.571721)"><g
         id="path19-9-6"
         transform="translate(-33.676671,-0.88572981)" /><g
         id="rect22-0-1-9"
         transform="matrix(-1,0,0,1,-3.01491,-0.65556168)" /><g
         id="rect22-7-2-3"
         transform="matrix(-1,0,0,1,-2.830826,-0.88591792)" /><g
         id="path26-7-7"
         transform="translate(-33.676671,-0.88572981)" /><g
         id="path52-1-0-4"
         transform="matrix(-1,0,0,1,-11.680087,-0.88572981)" /></g><g
       id="path19-5" /><g
       id="rect22-0-9"
       transform="matrix(-1,0,0,1,30.661761,0.23016813)" /><g
       id="rect22-7-6"
       transform="matrix(-1,0,0,1,30.845845,-1.8811487e-4)" /><g
       id="path26-2" /><g
       id="path52-1-1"
       transform="matrix(-1,0,0,1,21.996584,0)" /><path
       style="color:#000000;fill:#734a08;fill-opacity:1;stroke-linecap:round;stroke-dashoffset:6.03213;-inkscape-stroke:none;paint-order:markers fill stroke"
       d="M 16,0.30664063 C 7.3372038,0.30664063 0.30664063,7.3372038 0.30664063,16 0.30664063,24.662796 7.3372038,31.693359 16,31.693359 24.662796,31.693359 31.693359,24.662796 31.693359,16 31.693359,7.3372038 24.662796,0.30664063 16,0.30664063 Z M 16,1.1386719 C 24.21261,1.1386719 30.861328,7.78739 30.861328,16 30.861328,24.21261 24.21261,30.861328 16,30.861328 7.78739,30.861328 1.1386719,24.21261 1.1386719,16 1.1386719,7.78739 7.78739,1.1386719 16,1.1386719 Z"
       id="path6" /></g></svg>
