<?xml version="1.0" encoding="UTF-8" standalone="no"?>
<!-- Created with Inkscape (http://www.inkscape.org/) -->

<svg
   width="32mm"
   height="32mm"
   viewBox="0 0 32 32"
   version="1.1"
   id="svg1"
   xml:space="preserve"
   inkscape:version="1.3.1 (9b9bdc1480, 2023-11-25, custom)"
   sodipodi:docname="amenity_fast_food.16.2.svg"
   xmlns:inkscape="http://www.inkscape.org/namespaces/inkscape"
   xmlns:sodipodi="http://sodipodi.sourceforge.net/DTD/sodipodi-0.dtd"
   xmlns="http://www.w3.org/2000/svg"
   xmlns:svg="http://www.w3.org/2000/svg"><sodipodi:namedview
     id="namedview1"
     pagecolor="#ffffff"
     bordercolor="#666666"
     borderopacity="1.0"
     inkscape:showpageshadow="2"
     inkscape:pageopacity="0.0"
     inkscape:pagecheckerboard="0"
     inkscape:deskcolor="#d1d1d1"
     inkscape:document-units="mm"
     showguides="true"
     inkscape:zoom="1.4142136"
     inkscape:cx="42.072852"
     inkscape:cy="97.22718"
     inkscape:window-width="1318"
     inkscape:window-height="719"
     inkscape:window-x="48"
     inkscape:window-y="27"
     inkscape:window-maximized="1"
     inkscape:current-layer="layer1"><sodipodi:guide
       position="16.225336,-14.837615"
       orientation="1,0"
       id="guide4"
       inkscape:locked="false" /></sodipodi:namedview><defs
     id="defs1" /><g
     inkscape:label="Livello 1"
     inkscape:groupmode="layer"
     id="layer1"><g
       id="path19" /><g
       id="rect22-0"
       transform="matrix(-1,0,0,1,30.661761,0.23016813)" /><g
       id="rect22-7"
       transform="matrix(-1,0,0,1,30.845845,-1.8811487e-4)" /><g
       id="path26" /><g
       id="path52-1"
       transform="matrix(-1,0,0,1,21.996584,0)" /><path
       id="rect59"
       style="fill:#734a08;fill-opacity:1;stroke:none;stroke-width:0.265;stroke-linecap:round;stroke-linejoin:round;stroke-dasharray:none;stroke-dashoffset:6.03213;stroke-opacity:1;paint-order:markers fill stroke"
       d="M 12.868982 7.2765584 C 7.736202 7.2765584 3.6039144 10.068336 3.6039144 13.535608 L 3.6039144 15.048694 L 28.346073 15.048694 L 28.346073 13.535608 C 28.346073 10.068336 24.213787 7.2765584 19.081006 7.2765584 L 12.868982 7.2765584 z M 14.951025 8.3126709 C 16.083417 9.4455923 14.84084 10.055264 14.591357 9.5575562 C 14.341873 9.0598453 14.951025 8.3126709 14.951025 8.3126709 z M 10.540442 8.7276326 C 10.540442 8.7276326 10.831061 9.6678912 10.485665 10.154419 C 10.14027 10.640943 9.2897837 9.7145401 10.540442 8.7276326 z M 22.955705 8.7653564 C 24.530829 9.0043825 24.24948 10.230174 23.70863 9.9782023 C 23.167781 9.7262309 22.955705 8.7653564 22.955705 8.7653564 z M 18.940963 9.7782145 C 19.978735 10.987004 18.965801 11.732803 18.720304 11.188981 C 18.474812 10.645162 18.940963 9.7782145 18.940963 9.7782145 z M 6.8910522 10.974524 C 6.8910522 10.974524 7.1821848 11.914788 6.836792 12.40131 C 6.4913994 12.88784 5.6403976 11.961429 6.8910522 10.974524 z M 22.651331 12.138794 C 23.689104 13.347585 22.676169 14.09338 22.430672 13.549561 C 22.185176 13.005738 22.651331 12.138794 22.651331 12.138794 z M 12.536702 12.175484 C 12.536702 12.175484 13.002857 13.042429 12.757361 13.586251 C 12.511864 14.130066 11.49894 13.38427 12.536702 12.175484 z M 25.949837 12.519649 C 27.200501 13.506562 26.349492 14.432965 26.004097 13.946436 C 25.658702 13.459906 25.949837 12.519649 25.949837 12.519649 z M 3.6871134 22.537126 C 3.8482722 23.364626 4.2531243 24.698582 4.8415649 25.390181 L 27.108423 25.390181 C 27.696953 24.698562 28.102225 23.364658 28.263391 22.537126 L 3.6871134 22.537126 z " /><rect
       style="fill:#734a08;fill-opacity:1;stroke:none;stroke-width:0.265;stroke-linecap:round;stroke-linejoin:round;stroke-dasharray:none;stroke-dashoffset:6.03213;stroke-opacity:1;paint-order:markers fill stroke"
       id="rect60"
       width="26.927525"
       height="2.5415065"
       x="2.3701191"
       y="17.605665"
       rx="0.47231451"
       ry="2.5415065" /></g></svg>
