<?xml version="1.0" encoding="UTF-8" standalone="no"?>
<!-- Created with Inkscape (http://www.inkscape.org/) -->

<svg
   width="32mm"
   height="32mm"
   viewBox="0 0 32 32"
   version="1.1"
   id="svg1"
   xml:space="preserve"
   inkscape:version="1.3.1 (9b9bdc1480, 2023-11-25, custom)"
   sodipodi:docname="amenity_school.svg"
   xmlns:inkscape="http://www.inkscape.org/namespaces/inkscape"
   xmlns:sodipodi="http://sodipodi.sourceforge.net/DTD/sodipodi-0.dtd"
   xmlns="http://www.w3.org/2000/svg"
   xmlns:svg="http://www.w3.org/2000/svg"><sodipodi:namedview
     id="namedview1"
     pagecolor="#ffffff"
     bordercolor="#666666"
     borderopacity="1.0"
     inkscape:showpageshadow="2"
     inkscape:pageopacity="0.0"
     inkscape:pagecheckerboard="0"
     inkscape:deskcolor="#d1d1d1"
     inkscape:document-units="mm"
     showguides="true"
     inkscape:zoom="1.9303675"
     inkscape:cx="-10.878758"
     inkscape:cy="75.892285"
     inkscape:window-width="1318"
     inkscape:window-height="719"
     inkscape:window-x="48"
     inkscape:window-y="27"
     inkscape:window-maximized="1"
     inkscape:current-layer="layer1"
     showgrid="false"><sodipodi:guide
       position="21.324843,29.746031"
       orientation="0,-1"
       id="guide8"
       inkscape:locked="false" /><sodipodi:guide
       position="18.475006,31.999999"
       orientation="0,-1"
       id="guide9"
       inkscape:locked="false" /></sodipodi:namedview><defs
     id="defs1"><inkscape:perspective
       sodipodi:type="inkscape:persp3d"
       inkscape:vp_x="-183.11487 : 148.50001 : 1"
       inkscape:vp_y="0 : 1000 : 0"
       inkscape:vp_z="-195.51426 : 148.50001 : 1"
       inkscape:persp3d-origin="-189.31457 : 99.000003 : 1"
       id="perspective10172" /><symbol
       id="Recycling"><title
         id="title7498">Recycling</title><g
         style="stroke:none"
         id="g7512"><path
           style="stroke-width:0.26458332"
           inkscape:connector-curvature="0"
           d="m 14.684375,3.9026042 -1.389063,0.79375 -0.926041,-1.5875 C 12.236979,2.8773437 11.972396,2.7119792 11.608594,2.7119792 H 8.8304687 C 9.0289062,2.9104167 9.0619792,2.9765625 9.1611979,3.1419271 L 10.88099,6.1184896 9.4919271,6.9122396 H 12.93151 Z"
           id="path7500" /><path
           style="stroke-width:0.26458332"
           inkscape:connector-curvature="0"
           d="m 14.254427,12.038542 h 1.389063 c 0.826822,0 1.322916,-0.892969 0.926041,-1.5875 l -1.752864,-3.069167 -2.38125,1.3890625 z"
           id="path7502" /><path
           style="stroke-width:0.26458332"
           inkscape:connector-curvature="0"
           d="m 12.170833,17.065625 v -1.5875 h 1.852084 c 0.264583,0 0.529166,-0.132292 0.727604,-0.463021 l 1.389062,-2.38125 C 15.875,12.7 15.775781,12.7 15.610417,12.7 h -3.439584 v -1.5875 l -1.719791,2.976562 z"
           id="path7504" /><path
           style="stroke-width:0.26458332"
           inkscape:connector-curvature="0"
           d="m 5.3578125,12.7 -0.6945313,1.190625 c -0.396875,0.727604 0.099219,1.5875 0.8929688,1.5875 H 9.0619792 V 12.7 Z"
           id="path7506" /><path
           style="stroke-width:0.26458332"
           inkscape:connector-curvature="0"
           d="m 2.0505208,8.4005208 1.3890625,0.79375 -0.9260416,1.5875002 C 2.38125,11.013281 2.38125,11.310937 2.5466146,11.641667 l 1.3559896,2.38125 c 0.066146,-0.264584 0.099219,-0.33073 0.1984375,-0.496094 L 5.8208333,10.55026 7.2098958,11.34401 5.4901042,8.3674479 Z"
           id="path7508" /><path
           style="stroke-width:0.26458332"
           inkscape:connector-curvature="0"
           d="M 9.2604167,4.6302083 8.5989583,3.4395833 c -0.4299479,-0.6945312 -1.4221354,-0.6945312 -1.8190104,0 l -1.7528646,3.0427084 2.38125,1.3890625 z"
           id="path7510" /></g></symbol><inkscape:perspective
       id="perspective8310"
       inkscape:persp3d-origin="372.04724 : 350.7874 : 1"
       inkscape:vp_z="744.09447 : 526.18111 : 1"
       inkscape:vp_y="0 : 1000 : 0"
       inkscape:vp_x="0 : 526.18111 : 1"
       sodipodi:type="inkscape:persp3d" /><inkscape:perspective
       id="perspective5302"
       inkscape:persp3d-origin="372.04724 : 350.7874 : 1"
       inkscape:vp_z="744.09447 : 526.18111 : 1"
       inkscape:vp_y="0 : 1000 : 0"
       inkscape:vp_x="0 : 526.18111 : 1"
       sodipodi:type="inkscape:persp3d" /><symbol
       id="ToiletsMen"><title
         id="title4892">Toilets - Men</title><g
         style="stroke:none"
         id="g4898"><circle
           cx="36"
           cy="9"
           r="5"
           id="circle4894" /><path
           d="m 24,22 v 15.5 a 2.25,2.25 0 0 0 4.5,0 V 23 h 1 v 39.5 a 3,3 0 0 0 6,0 V 40 h 1 v 22.5 a 3,3 0 0 0 6,0 V 23 h 1 v 14.5 a 2.25,2.25 0 0 0 4.5,0 V 22 A 7,7 0 0 0 41,15 H 31 a 7,7 0 0 0 -7,7 z"
           id="path4896"
           inkscape:connector-curvature="0" /></g></symbol></defs><g
     inkscape:label="Livello 1"
     inkscape:groupmode="layer"
     id="layer1"><g
       id="path19" /><g
       id="rect22-0"
       transform="matrix(-1,0,0,1,30.661761,0.23016813)" /><g
       id="rect22-7"
       transform="matrix(-1,0,0,1,30.845845,-1.8811487e-4)" /><g
       id="path26" /><g
       id="path52"
       transform="translate(-38.081357,-6.611757)" /><g
       id="path52-1"
       transform="matrix(-1,0,0,1,21.996584,0)" /><g
       inkscape:label="Livello 1"
       id="layer1-9"
       transform="translate(2.0125e-4,-0.00431602)"><path
         id="path17-5"
         style="color:#000000;fill:#39ac39;stroke-linecap:round;stroke-linejoin:round;-inkscape-stroke:none"
         d="M 15.992621,2.6852893 C 15.7369,2.6855095 15.506464,2.8396774 15.408677,3.0759632 L 13.44549,7.8219267 H 3.2021873 V 23.658686 h 3.6917643 l -1.9817912,4.790405 c -0.1334038,0.323217 0.020763,0.693355 0.344165,0.826307 0.3225022,0.133292 0.6920298,-0.01979 0.8257894,-0.342098 L 8.263377,23.658686 h 15.459522 l 2.181778,5.274614 c 0.13376,0.322593 0.503661,0.475735 0.826307,0.342098 0.322391,-0.133962 0.47528,-0.503804 0.341581,-0.826307 l -1.981791,-4.790405 h 3.706233 V 7.8219267 H 18.539752 L 16.576565,3.0759632 C 16.478778,2.8396771 16.248343,2.6855091 15.992621,2.6852893 Z m 0,2.2851319 1.179256,2.8515055 H 14.813365 Z M 7.1073752,9.1153878 c 0.5587985,0 1.0242819,0.063687 1.396814,0.190686 0.3725322,0.1269997 0.6687021,0.3091542 0.8888346,0.5462199 0.2285994,0.2370663 0.3895249,0.5248473 0.4826579,0.8635133 0.093133,0.338666 0.1395263,0.715299 0.1395263,1.130163 v 3.937228 c -0.270932,0.05927 -0.647565,0.126888 -1.1301635,0.203088 -0.4825985,0.08467 -1.0665499,0.127124 -1.7523478,0.127124 -0.4317987,0 -0.8257244,-0.038 -1.1813232,-0.114205 C 5.6042411,15.923005 5.3036191,15.800086 5.0496197,15.630752 4.7956206,15.452955 4.6011424,15.224406 4.465676,14.945006 4.3302099,14.665606 4.2620709,14.322528 4.2620709,13.916128 c 0,-0.389464 0.076527,-0.719704 0.2289266,-0.990637 0.1608661,-0.270933 0.3726375,-0.486639 0.6351033,-0.647506 0.262466,-0.160864 0.563088,-0.275398 0.9017538,-0.343131 0.3386655,-0.0762 0.689617,-0.114205 1.0536824,-0.114205 0.2455327,0 0.4617564,0.01284 0.6480225,0.03824 0.1947327,0.01693 0.3512057,0.0421 0.4697388,0.07596 v -0.177767 c 0,-0.321733 -0.097239,-0.579897 -0.2919719,-0.77463 -0.1947327,-0.194733 -0.5333602,-0.291972 -1.0159586,-0.291972 -0.3217325,0 -0.6391309,0.02516 -0.9523967,0.07597 -0.3132657,0.04233 -0.5842709,0.106019 -0.8128703,0.190686 L 4.8847719,9.4331979 C 4.9948383,9.3993312 5.1300823,9.3652619 5.2909487,9.3313953 5.4602814,9.289062 5.6424358,9.2555095 5.8371685,9.2301095 c 0.1947328,-0.033867 0.3981161,-0.059548 0.6097819,-0.076481 0.2201328,-0.0254 0.4402924,-0.038241 0.6604248,-0.038241 z m 18.6743128,0 c 0.355599,0 0.681385,0.034069 0.977718,0.1018026 0.296333,0.059267 0.584113,0.1481171 0.863513,0.2666504 l -0.393775,1.5115352 c -0.177799,-0.06773 -0.372277,-0.126967 -0.583943,-0.177767 -0.211667,-0.0508 -0.448602,-0.07648 -0.711068,-0.07648 -0.558799,0 -0.978405,0.173766 -1.257804,0.520899 -0.270933,0.347133 -0.406177,0.804226 -0.406177,1.371492 0,0.601133 0.126856,1.066615 0.380855,1.396814 0.262467,0.3302 0.715624,0.495577 1.35909,0.495577 0.2286,0 0.473923,-0.02123 0.73639,-0.06356 0.262466,-0.04233 0.503853,-0.109955 0.723986,-0.203088 l 0.266651,1.549259 c -0.220133,0.09313 -0.495073,0.173596 -0.825273,0.241329 -0.3302,0.06773 -0.694507,0.101803 -1.09244,0.101803 -0.609599,0 -1.134314,-0.08937 -1.574581,-0.267167 -0.440266,-0.186267 -0.804573,-0.436042 -1.092439,-0.749309 -0.2794,-0.313266 -0.486718,-0.681509 -0.622185,-1.104842 -0.126999,-0.431799 -0.190686,-0.897281 -0.190686,-1.396814 0,-0.482599 0.07653,-0.935757 0.228927,-1.35909 0.160867,-0.431799 0.389413,-0.803978 0.685746,-1.117244 0.296333,-0.3217334 0.656188,-0.5759613 1.079521,-0.7622277 0.423333,-0.1862665 0.906107,-0.2795695 1.447974,-0.2795695 z m -9.847462,3.7573932 v 3.327446 c 0.211667,-0.09313 0.431825,-0.165208 0.660425,-0.216008 0.2286,-0.0508 0.473924,-0.07596 0.736389,-0.07596 0.474133,0 0.893222,0.0844 1.257288,0.253731 0.364066,0.160867 0.66914,0.393867 0.914673,0.698665 0.245532,0.3048 0.431622,0.673043 0.558622,1.104843 0.127,0.423332 0.190686,0.897203 0.190686,1.422135 0,0.533398 -0.08046,1.016174 -0.241329,1.447974 -0.1524,0.431798 -0.377011,0.800042 -0.673344,1.104842 -0.296333,0.304798 -0.660123,0.541735 -1.091923,0.711067 -0.431798,0.160867 -0.922963,0.241329 -1.473295,0.241329 -0.2286,0 -0.469987,-0.01232 -0.723987,-0.03772 -0.245533,-0.01693 -0.490856,-0.04262 -0.736389,-0.07648 -0.237066,-0.03386 -0.465613,-0.07187 -0.685746,-0.114204 -0.220133,-0.0508 -0.415127,-0.101646 -0.584461,-0.152446 v -9.334314 z m -8.4971551,0.218075 c -0.1777994,0 -0.3471133,0.01232 -0.5079793,0.03772 -0.1523997,0.01693 -0.2876438,0.05546 -0.4061768,0.114721 -0.118533,0.05927 -0.2118364,0.139729 -0.2795695,0.241329 -0.067733,0.1016 -0.1012858,0.228458 -0.1012858,0.380855 0,0.296333 0.097239,0.503651 0.2919718,0.622185 0.2031994,0.110066 0.4781403,0.165364 0.8252727,0.165364 0.186266,0 0.3644847,-0.0045 0.5338175,-0.01292 0.1693328,-0.0085 0.3045771,-0.02131 0.4061768,-0.03824 V 13.16682 c -0.0762,-0.01693 -0.1907321,-0.03371 -0.3431315,-0.05064 -0.1523997,-0.01693 -0.2920962,-0.02532 -0.4190959,-0.02532 z m 9.5384351,4.417301 c -0.194732,0 -0.38921,0.02568 -0.583943,0.07648 -0.186267,0.0508 -0.338803,0.11397 -0.457337,0.19017 v 3.44165 c 0.09313,0.01693 0.211601,0.03423 0.355534,0.05116 0.143933,0.0085 0.300406,0.0124 0.469739,0.0124 0.516465,0 0.905938,-0.177701 1.168404,-0.533301 0.262466,-0.355598 0.393774,-0.825533 0.393774,-1.409733 0,-1.219198 -0.448705,-1.828829 -1.346171,-1.828829 z"
         sodipodi:nodetypes="ccccccccccccccccccccccccsscssccsccsscccsccsssccccccsscccsscscssccsscccsccssccsscscscscsccccccscssscssccsssccccssss" /><g
         id="path19-2" /></g></g></svg>
