<?xml version="1.0" encoding="UTF-8" standalone="no"?>
<!-- Created with Inkscape (http://www.inkscape.org/) -->

<svg
   width="32mm"
   height="32mm"
   viewBox="0 0 32 32"
   version="1.1"
   id="svg1"
   xml:space="preserve"
   inkscape:version="1.3.1 (9b9bdc1480, 2023-11-25, custom)"
   sodipodi:docname="amenity_doctors.16.svg"
   xmlns:inkscape="http://www.inkscape.org/namespaces/inkscape"
   xmlns:sodipodi="http://sodipodi.sourceforge.net/DTD/sodipodi-0.dtd"
   xmlns="http://www.w3.org/2000/svg"
   xmlns:svg="http://www.w3.org/2000/svg"><sodipodi:namedview
     id="namedview1"
     pagecolor="#ffffff"
     bordercolor="#666666"
     borderopacity="1.0"
     inkscape:showpageshadow="2"
     inkscape:pageopacity="0.0"
     inkscape:pagecheckerboard="0"
     inkscape:deskcolor="#d1d1d1"
     inkscape:document-units="mm"
     showguides="true"
     inkscape:zoom="2"
     inkscape:cx="-50"
     inkscape:cy="77.75"
     inkscape:window-width="1318"
     inkscape:window-height="719"
     inkscape:window-x="48"
     inkscape:window-y="27"
     inkscape:window-maximized="1"
     inkscape:current-layer="layer1"><sodipodi:guide
       position="16.225336,-14.837615"
       orientation="1,0"
       id="guide4"
       inkscape:locked="false" /></sodipodi:namedview><defs
     id="defs1" /><g
     inkscape:label="Livello 1"
     inkscape:groupmode="layer"
     id="layer1"><g
       id="path19" /><g
       id="rect22-0"
       transform="matrix(-1,0,0,1,30.661761,0.23016813)" /><g
       id="rect22-7"
       transform="matrix(-1,0,0,1,30.845845,-1.8811487e-4)" /><g
       id="path26" /><path
       id="rect49"
       style="fill:#da0092;fill-opacity:1;stroke:none;stroke-width:0.665001;stroke-linecap:round;stroke-linejoin:round;stroke-dasharray:none;stroke-dashoffset:6.03213;stroke-opacity:1;paint-order:markers fill stroke"
       d="m 15.903623,4.6224 c -4.065888,0 -7.4079757,3.238782 -7.5778317,7.264673 -3.478126,0.266756 -6.167065,2.300217 -6.167065,4.787304 V 27.3776 h 6.944279 13.7945057 6.943763 V 16.674377 c 0,-2.532959 -2.789085,-4.593895 -6.360336,-4.798673 C 23.305296,7.855068 19.965697,4.6224 15.903623,4.6224 Z m 0,2.622579 c 2.637897,0 4.770208,2.020945 4.949052,4.610571 h -9.898104 c 0.178851,-2.589619 2.31116,-4.610571 4.949052,-4.610571 z m -0.607715,6.95203 h 1.408183 c 0.55268,8.83e-4 1.000651,0.449325 1.000456,1.002006 v 3.158464 h 3.160014 c 0.553443,-1.95e-4 1.002201,0.448562 1.002006,1.002006 v 1.406116 c 1.95e-4,0.553443 -0.448563,1.002201 -1.002006,1.002006 h -3.160014 v 3.160013 c 1.95e-4,0.552682 -0.447776,1.001123 -1.000456,1.002006 h -1.408183 c -0.553443,1.96e-4 -1.002201,-0.448562 -1.002006,-1.002006 v -3.160013 h -3.157947 c -0.553443,1.95e-4 -1.002201,-0.448563 -1.002006,-1.002006 v -1.406116 c -1.95e-4,-0.553444 0.448563,-1.002201 1.002006,-1.002006 h 3.157947 v -3.158464 c -1.95e-4,-0.553443 0.448563,-1.002202 1.002006,-1.002006 z" /></g></svg>
