<?xml version="1.0" encoding="UTF-8" standalone="no"?>
<!-- Created with Inkscape (http://www.inkscape.org/) -->

<svg
   width="32mm"
   height="32mm"
   viewBox="0 0 32 32"
   version="1.1"
   id="svg1"
   xml:space="preserve"
   inkscape:version="1.3.1 (9b9bdc1480, 2023-11-25, custom)"
   sodipodi:docname="amenity_motorcycle_parking.svg"
   xmlns:inkscape="http://www.inkscape.org/namespaces/inkscape"
   xmlns:sodipodi="http://sodipodi.sourceforge.net/DTD/sodipodi-0.dtd"
   xmlns="http://www.w3.org/2000/svg"
   xmlns:svg="http://www.w3.org/2000/svg"><sodipodi:namedview
     id="namedview1"
     pagecolor="#ffffff"
     bordercolor="#666666"
     borderopacity="1.0"
     inkscape:showpageshadow="2"
     inkscape:pageopacity="0.0"
     inkscape:pagecheckerboard="0"
     inkscape:deskcolor="#d1d1d1"
     inkscape:document-units="mm"
     showguides="true"
     inkscape:zoom="1.4883721"
     inkscape:cx="45.015625"
     inkscape:cy="80.625"
     inkscape:window-width="988"
     inkscape:window-height="458"
     inkscape:window-x="599"
     inkscape:window-y="98"
     inkscape:window-maximized="0"
     inkscape:current-layer="layer1"><sodipodi:guide
       position="30.86609,17.025411"
       orientation="1,0"
       id="guide4"
       inkscape:locked="false" /><sodipodi:guide
       position="17.727083,5.1447916"
       orientation="0,-1"
       id="guide74"
       inkscape:locked="false" /></sodipodi:namedview><defs
     id="defs1" /><g
     inkscape:label="Livello 1"
     inkscape:groupmode="layer"
     id="layer1"><g
       id="path19" /><g
       id="rect22-0"
       transform="matrix(-1,0,0,1,30.661761,0.23016813)" /><g
       id="rect22-7"
       transform="matrix(-1,0,0,1,30.845845,-1.8811487e-4)" /><g
       id="path26" /><g
       id="path52-1"
       transform="matrix(-1,0,0,1,21.996584,0)" /><path
       d="m 6.3226574,15.77547 h 7.6463516 c 1.903241,0 3.405799,-0.567633 4.708016,-1.73629 1.469168,-1.335607 2.103581,-2.904945 2.103581,-5.1420876 0,-4.5744554 -2.704605,-7.1454995 -7.51279,-7.1454995 H 3.2173704 V 26.093036 h 3.105287 z m 0,-2.737995 V 4.4895879 h 6.4776946 c 2.971727,0 4.741407,1.6027288 4.741407,4.2739431 0,2.671215 -1.76968,4.273944 -4.741407,4.273944 z"
       id="text94"
       style="font-size:39.0941px;line-height:1.25;font-family:Helvetica;-inkscape-font-specification:Helvetica;fill:#0093db;fill-opacity:1;stroke:none;stroke-width:0.834755"
       aria-label="P" /><g
       id="path7-6"
       transform="translate(-31.080925,-0.54616641)" /><g
       id="g17"
       transform="matrix(0.7410522,0,0,0.7410522,5.8432748,-742.56226)"
       style="fill:#0093db;fill-opacity:1;stroke:none"><path
         id="path13"
         style="fill:#0093db;fill-opacity:1;stroke:none;stroke-width:0.150683;stroke-linecap:round;stroke-linejoin:bevel;stroke-dasharray:none;stroke-opacity:1;paint-order:markers stroke fill"
         d="m 21.398438,1027.5673 c -0.81888,0.1382 -1.308582,0.4808 -1.716797,1.0547 0.09108,0.3847 0.266237,0.5241 0.955078,0.7636 1.527046,0.5311 2.542729,1.0973 2.787109,1.5508 0.254221,0.4716 -1.229934,0.9077 -1.304687,0.8985 -0.217979,-0.026 -0.308513,-0.1624 -0.72461,-1.0977 -0.529051,-1.1892 -0.43151,-1.1353 -1.324219,-0.7578 -0.264317,0.3954 -0.66493,0.3984 -0.808593,0.4922 -0.842461,-0.5935 -2.221376,-0.6446 -2.671875,-0.6446 -3.683754,0 -3.386387,2.1056 -5.398438,2.1993 -1.3461012,0.062 -2.5052,-0.4101 -3.4960935,-1.4258 -0.7177763,-0.7358 -1.0508452,-0.8304 -3.1816406,-0.9004 -1.4324857,-0.047 -1.5964943,-0.038 -1.4902344,0.09 0.2608131,0.3143 -0.5350127,0.3164 -0.2480469,0.6036 0.4955873,0.4929 0.361155,-0.4219 1.7851563,0.9296 1.1469593,1.0884 2.0586104,1.6385 2.8710937,1.7325 1.1105329,0.2775 1.9540985,0.4762 2.8027344,1.1894 0.848637,0.7132 1.242713,1.5979 1.357422,2.5742 l -5.5273439,1.2129 0.060547,0.3906 c 0.1141736,0.7362 0.069386,0.7558 1.3769531,0.7012 v -0.016 c 1.4196313,-0.054 3.0024338,-0.1199 4.3730468,-0.1582 0.06676,0.2955 -0.0291,0.5925 -0.03516,0.7168 -0.09283,0.4423 -0.237045,0.8676 -0.425782,1.2676 l 0.203126,0.1699 c 2.837561,0.1098 5.686821,0.1289 8.517578,-0.082 0.03184,-0.032 -0.0063,-0.432 -0.08594,-0.8887 -0.119035,-0.6825 -0.144531,-1.1888 -0.144531,-1.7481 0,-3.0912 2.516175,-5.6093 5.607422,-5.6093 0.192545,0 0.382698,0.01 0.570312,0.027 h 0.002 c 0.166877,-0.1652 0.10336,-0.3799 -0.179687,-0.7851 -0.473231,-0.6776 -1.095188,-1.4981 -1.773438,-2.336 -0.795034,-0.6845 -0.612101,-0.6979 -1.470703,-1.4453 -0.419996,-0.2244 -0.840883,-0.4471 -1.261718,-0.6699 z m -15.226563,6.1406 c -2.5152125,0 -4.5664062,2.0512 -4.5664062,4.5664 0,2.5153 2.0511937,4.5664 4.5664062,4.5664 1.9364218,0 3.5978028,-1.2165 4.259766,-2.9238 l 0.121093,-0.3926 -1.2265621,0.023 c -0.5166724,1.1834 -1.7753534,2.0801 -3.1542969,2.0801 -1.8591191,0 -3.3535156,-1.4943 -3.3535156,-3.3535 0,-1.8591 1.4943965,-3.3535 3.3535156,-3.3535 1.3760309,0 2.5538975,0.8169 3.0722656,1.9961 l 1.1953124,-0.2695 c -0.6575409,-1.7164 -2.3246216,-2.9395 -4.267578,-2.9395 z m 19.574219,0 c -2.515213,0 -4.566407,2.0512 -4.566406,4.5664 0,2.5153 2.051193,4.5664 4.566406,4.5664 2.515212,0 4.566406,-2.0511 4.566406,-4.5664 0,-2.5152 -2.051194,-4.5664 -4.566406,-4.5664 z m 0,1.2129 c 1.859119,0 3.353515,1.4944 3.353515,3.3535 0,1.8592 -1.494396,3.3535 -3.353515,3.3535 -1.859119,0 -3.353516,-1.4943 -3.353516,-3.3535 0,-1.8591 1.494397,-3.3535 3.353516,-3.3535 z" /><g
         id="path14"
         transform="translate(0.13184032,0.05015624)"
         style="fill:#0093db;fill-opacity:1;stroke:none"><path
           style="color:#000000;fill:#0093db;-inkscape-stroke:none;fill-opacity:1;stroke:none"
           d="m 7.0607934,1037.2443 3.9919916,-0.862"
           id="path15" /></g><g
         id="path14-5"
         transform="matrix(0.96872589,-0.24813335,-0.24813335,-0.96872589,258.05574,2046.1667)"
         inkscape:transform-center-x="-2.0579023"
         inkscape:transform-center-y="0.4049549"
         style="fill:#0093db;fill-opacity:1;stroke:none"><path
           style="color:#000000;fill:#0093db;-inkscape-stroke:none;fill-opacity:1;stroke:none"
           d="m 7.0607934,1037.2443 3.9919916,-0.862"
           id="path15-3" /></g></g></g></svg>
