<?xml version="1.0" encoding="UTF-8" standalone="no"?>
<!-- Created with Inkscape (http://www.inkscape.org/) -->

<svg
   width="32mm"
   height="32mm"
   viewBox="0 0 32 32"
   version="1.1"
   id="svg1"
   xml:space="preserve"
   inkscape:version="1.3.1 (9b9bdc1480, 2023-11-25, custom)"
   sodipodi:docname="amenity_fire_station.svg"
   xmlns:inkscape="http://www.inkscape.org/namespaces/inkscape"
   xmlns:sodipodi="http://sodipodi.sourceforge.net/DTD/sodipodi-0.dtd"
   xmlns="http://www.w3.org/2000/svg"
   xmlns:svg="http://www.w3.org/2000/svg"><sodipodi:namedview
     id="namedview1"
     pagecolor="#ffffff"
     bordercolor="#666666"
     borderopacity="1.0"
     inkscape:showpageshadow="2"
     inkscape:pageopacity="0.0"
     inkscape:pagecheckerboard="0"
     inkscape:deskcolor="#d1d1d1"
     inkscape:document-units="mm"
     showguides="true"
     inkscape:zoom="1.4142136"
     inkscape:cx="-13.081475"
     inkscape:cy="71.06423"
     inkscape:window-width="1318"
     inkscape:window-height="719"
     inkscape:window-x="48"
     inkscape:window-y="27"
     inkscape:window-maximized="1"
     inkscape:current-layer="layer1"><sodipodi:guide
       position="16.225336,-14.837615"
       orientation="1,0"
       id="guide4"
       inkscape:locked="false" /></sodipodi:namedview><defs
     id="defs1" /><g
     inkscape:label="Livello 1"
     inkscape:groupmode="layer"
     id="layer1"><g
       id="path19" /><g
       id="rect22-0"
       transform="matrix(-1,0,0,1,30.661761,0.23016813)" /><g
       id="rect22-7"
       transform="matrix(-1,0,0,1,30.845845,-1.8811487e-4)" /><g
       id="path26" /><g
       id="path52-1"
       transform="matrix(-1,0,0,1,21.996584,0)" /><path
       style="fill:#734a08;stroke:none;stroke-width:0.264583px;stroke-linecap:butt;stroke-linejoin:miter;stroke-opacity:1;fill-opacity:1"
       d="m 8.0317447,25.805696 c 0,0 -1.5812423,-3.122454 -1.4262494,-4.904225 C 6.7604885,19.1197 7.8434731,17.027435 8.1999798,14.444657 8.5564865,11.861879 8.0322776,10.295746 7.7323928,9.942705 7.4325082,9.589664 9.9070987,11.163738 10.400867,12.80027 c 0.493768,1.636532 1.654506,3.055638 2.549178,3.593432 0.894673,0.537794 0.679533,-0.798128 0.266566,-1.790701 -0.412968,-0.992574 -0.94123,-3.183896 -0.875149,-4.393202 0.06608,-1.2093049 0.718295,-4.7290995 0.849783,-3.1481511 0.131488,1.5809486 1.168528,4.4839471 2.996252,5.8451731 1.476027,1.099295 0.460389,2.531831 3.446584,5.298206 0,0 0.06338,-1.889092 0.785744,-2.570809 0.722368,-0.681717 0.989624,-2.244251 0.482,-4.875823 -0.507624,-2.6315717 -0.875209,-3.3466605 -0.875209,-3.3466605 0,0 2.61127,3.0599995 3.429219,5.5414175 0.817949,2.481417 1.874801,3.861055 1.357823,6.857545 -0.516978,2.99649 -1.370435,5.175693 -1.574658,5.472837 -0.204223,0.297143 -0.02456,-0.705232 -0.467143,-1.897355 -0.442584,-1.192123 -0.911378,-1.981872 -0.961779,-0.348949 -0.0504,1.632923 -1.234622,3.716494 -2.322734,5.162577 -1.088112,1.446086 -1.999559,2.000181 -2.270642,2.482189 -0.271084,0.48201 0.84216,-1.903751 0.743729,-4.297116 -0.09843,-2.393364 -0.486962,-3.777713 -1.619811,-4.680171 -1.132848,-0.902459 -1.132375,-1.059981 -0.884825,0.06735 0.24755,1.127335 0.0073,3.325067 -0.702452,4.448541 -0.70972,1.123474 -1.269924,1.536732 -1.467357,2.183892 -0.197432,0.647157 -1.286941,-0.01267 -1.883016,-1.712204 -0.596076,-1.699532 -0.08108,-1.480093 -0.463784,-3.019072 -0.3827,-1.538978 -1.2766097,-3.067367 -1.2623947,-2.144856 0.014216,0.922511 -0.054175,2.062209 -0.5541491,2.818057 -0.4999733,0.755849 -1.0908975,1.459274 -1.0908975,1.459274 z"
       id="path63"
       sodipodi:nodetypes="cssssssssscsscsssssssssscssssscc" /><path
       style="fill:#734a08;stroke:none;stroke-width:0.264583px;stroke-linecap:butt;stroke-linejoin:miter;stroke-opacity:1;fill-opacity:1"
       d="m 15.053579,1.2434409 c -0.853537,2.6043336 -1.04164,5.6154668 0.009,6.749381 1.050618,1.1339142 1.873969,1.9853478 2.325948,3.0333971 0.451979,1.048048 0.856149,1.712241 1.030012,2.077981 0.443577,0.933113 1.166349,-2.671055 0.05585,-4.3484301 C 16.307062,6.603654 15.64537,4.1558698 15.053579,1.2434409 Z"
       id="path64"
       sodipodi:nodetypes="ccsscc" /></g></svg>
