<?xml version="1.0" encoding="UTF-8" standalone="no"?>
<!-- Created with Inkscape (http://www.inkscape.org/) -->

<svg
   width="32mm"
   height="32mm"
   viewBox="0 0 32 32"
   version="1.1"
   id="svg1"
   xml:space="preserve"
   inkscape:version="1.3.1 (9b9bdc1480, 2023-11-25, custom)"
   sodipodi:docname="amenity_bus_station.16.svg"
   xmlns:inkscape="http://www.inkscape.org/namespaces/inkscape"
   xmlns:sodipodi="http://sodipodi.sourceforge.net/DTD/sodipodi-0.dtd"
   xmlns="http://www.w3.org/2000/svg"
   xmlns:svg="http://www.w3.org/2000/svg"><sodipodi:namedview
     id="namedview1"
     pagecolor="#ffffff"
     bordercolor="#666666"
     borderopacity="1.0"
     inkscape:showpageshadow="2"
     inkscape:pageopacity="0.0"
     inkscape:pagecheckerboard="0"
     inkscape:deskcolor="#d1d1d1"
     inkscape:document-units="mm"
     inkscape:zoom="2.4316118"
     inkscape:cx="10.075621"
     inkscape:cy="83.278096"
     inkscape:window-width="1318"
     inkscape:window-height="719"
     inkscape:window-x="48"
     inkscape:window-y="27"
     inkscape:window-maximized="1"
     inkscape:current-layer="layer1"
     showguides="true"
     showgrid="false"><sodipodi:guide
       position="31.338526,6.3755642"
       orientation="1,0"
       id="guide1"
       inkscape:locked="false" /></sodipodi:namedview><defs
     id="defs1" /><g
     inkscape:label="Livello 1"
     inkscape:groupmode="layer"
     id="layer1"><path
       id="rect1"
       style="fill:#d7eaf4;fill-opacity:1;stroke:#0093db;stroke-width:0.946;stroke-linecap:round;stroke-linejoin:miter;stroke-dasharray:none;stroke-dashoffset:6.03213;stroke-opacity:1;paint-order:markers fill stroke"
       d="m 11.736235,1.929598 c -3.9562918,0 -7.1949588,3.6977655 -7.6434616,8.493022 -0.052509,0.198685 -0.083199,0.40654 -0.083199,0.622184 v 13.638961 c 0,1.338891 1.0780137,2.41639 2.4169067,2.41639 h 0.1085205 v 2.482019 c 0,0.433773 0.349123,0.782898 0.782898,0.782898 h 2.1497396 c 0.4337747,0 0.7828978,-0.349125 0.7828978,-0.782898 v -2.482019 h 11.718148 v 2.482019 c 0,0.433773 0.349121,0.782898 0.782898,0.782898 h 2.150256 c 0.433777,0 0.782898,-0.349125 0.782898,-0.782898 v -2.482019 h 0.0801 c 1.33889,0 2.41639,-1.077499 2.41639,-2.41639 v -5.599659 c 0.01714,-0.263533 0.02842,-0.529153 0.02842,-0.7984 v -6.722071 c 0,-5.3372053 -3.433705,-9.634037 -7.698755,-9.634037 z m -0.522966,1.6737996 h 9.792684 c 0.381353,0 0.68833,0.3074939 0.68833,0.6888468 v 0.585494 c 0,0.3813529 -0.306977,0.6883301 -0.68833,0.6883301 h -9.792684 c -0.381353,0 -0.68833,-0.3069772 -0.68833,-0.6883301 v -0.585494 c 0,-0.3813529 0.306977,-0.6888468 0.68833,-0.6888468 z M 9.5281006,7.9067801 H 22.648747 c 1.541808,0 2.783292,2.0991169 2.783292,3.7629039 v 0.959002 c 0.02593,0.07306 0.04186,0.150751 0.04186,0.233061 v 3.033406 c 0,0.381744 -0.303754,0.688847 -0.681095,0.688847 h -1.368911 c -0.246127,0.07644 -0.506142,0.64854 -0.775663,0.64854 H 9.5281006 c -0.2695203,0 -0.5290203,-0.572097 -0.7751465,-0.64854 H 7.4543254 C 7.0769859,16.584 6.77323,16.276897 6.77323,15.895153 V 14.108182 C 6.756521,13.974574 6.7448079,13.839163 6.7448079,13.700455 v -2.030771 c 0,-1.663787 1.2414835,-3.7629039 2.7832927,-3.7629039 z M 7.3266846,20.509859 h 2.1161499 c 0.4337762,0 0.7823815,0.167176 0.7823815,0.374654 v 1.396298 c 0,0.207479 -0.3486053,0.374654 -0.7823815,0.374654 H 7.3266846 c -0.4337762,0 -0.782898,-0.167175 -0.782898,-0.374654 v -1.396298 c 0,-0.207478 0.3491218,-0.374654 0.782898,-0.374654 z m 15.4502194,0 h 2.11615 c 0.433777,0 0.782898,0.167176 0.782898,0.374654 v 1.396298 c 0,0.207479 -0.349121,0.374654 -0.782898,0.374654 h -2.11615 c -0.433775,0 -0.782898,-0.167175 -0.782898,-0.374654 v -1.396298 c 0,-0.207478 0.349123,-0.374654 0.782898,-0.374654 z"
       sodipodi:nodetypes="scssscssssccsssscsscsssssssssssssssscssscsscsscsssssssssssssssssssss" /><path
       d="m 7.3533677,20.414532 h 2.1161498 c 0.4337762,0 0.7823815,0.167176 0.7823815,0.374654 v 1.396298 c 0,0.207479 -0.3486053,0.374654 -0.7823815,0.374654 H 7.3533677 c -0.4337762,0 -0.782898,-0.167175 -0.782898,-0.374654 v -1.396298 c 0,-0.207478 0.3491218,-0.374654 0.782898,-0.374654 z"
       style="fill:#0093db;fill-opacity:1;stroke:none;stroke-width:0.946;stroke-linecap:round;stroke-linejoin:round;stroke-dasharray:none;stroke-dashoffset:6.03213;stroke-opacity:1;paint-order:markers fill stroke"
       id="path1-1" /><path
       d="m 22.949719,20.405434 h 2.11615 c 0.433776,0 0.782381,0.167176 0.782381,0.374654 v 1.396298 c 0,0.207479 -0.348605,0.374654 -0.782381,0.374654 h -2.11615 c -0.433777,0 -0.782898,-0.167175 -0.782898,-0.374654 v -1.396298 c 0,-0.207478 0.349121,-0.374654 0.782898,-0.374654 z"
       style="fill:#0093db;fill-opacity:1;stroke:none;stroke-width:0.946;stroke-linecap:round;stroke-linejoin:round;stroke-dasharray:none;stroke-dashoffset:6.03213;stroke-opacity:1;paint-order:markers fill stroke"
       id="path1-1-9" /><path
       d="m 12.942801,3.439583 h 6.135561 c 1.257689,0 2.268433,0.167176 2.268433,0.374654 v 1.396298 c 0,0.207479 -1.010744,0.374654 -2.268433,0.374654 h -6.135561 c -1.257689,0 -2.269933,-0.167175 -2.269933,-0.374654 V 3.814237 c 0,-0.207478 1.012244,-0.374654 2.269933,-0.374654 z"
       style="fill:#0093db;fill-opacity:1;stroke:none;stroke-width:1.61081;stroke-linecap:round;stroke-linejoin:round;stroke-dasharray:none;stroke-dashoffset:6.03213;stroke-opacity:1;paint-order:markers fill stroke"
       id="path1-1-5" /><path
       id="path1"
       style="fill:#0093db;fill-opacity:1;stroke:none;stroke-width:0.946;stroke-linecap:round;stroke-linejoin:round;stroke-dasharray:none;stroke-dashoffset:6.03213;stroke-opacity:1;paint-order:markers fill stroke"
       d="M 9.650057 7.648112 C 8.108251 7.648112 6.8667643 9.7474059 6.8667643 11.41119 L 6.8667643 13.441557 C 6.8667643 13.580265 6.8784764 13.715676 6.8951864 13.849284 L 6.8951864 15.636255 C 6.8951864 16.017999 7.1989435 16.325102 7.5762817 16.325102 L 8.8749105 16.325102 C 9.1210359 16.401545 9.3805374 17.097664 9.650057 17.097664 L 19.25929 17.097664 C 19.292724 15.752252 20.398975 14.664221 21.752161 14.664221 C 22.833571 14.66422 23.758319 15.35931 24.103438 16.325102 L 24.914758 16.325102 C 25.292099 16.325102 25.595854 16.017999 25.595854 15.636255 L 25.595854 12.602848 C 25.595854 12.520538 25.579926 12.442848 25.553996 12.369788 L 25.553996 11.41119 C 25.553996 9.7474059 24.312509 7.648112 22.770703 7.648112 L 9.650057 7.648112 z M 21.820374 11.854574 A 1.2964522 1.4804224 0 0 1 23.116935 13.335103 A 1.2964522 1.4804224 0 0 1 22.80791 14.292668 C 22.479934 14.160259 22.1223 14.086478 21.748027 14.086479 C 21.41739 14.086479 21.099992 14.144183 20.804415 14.248743 A 1.2964522 1.4804224 0 0 1 20.524329 13.335103 A 1.2964522 1.4804224 0 0 1 21.820374 11.854574 z M 21.752161 15.310693 C 20.748095 15.310693 19.938447 16.10188 19.905762 17.097664 L 22.770186 17.097664 C 23.000478 17.097664 23.223651 16.591976 23.437329 16.396415 C 23.14767 15.754938 22.504373 15.310693 21.752161 15.310693 z " /></g></svg>
