<?xml version="1.0" encoding="UTF-8" standalone="no"?>
<!-- Created with Inkscape (http://www.inkscape.org/) -->

<svg
   width="32mm"
   height="32mm"
   viewBox="0 0 32 32"
   version="1.1"
   id="svg1"
   xml:space="preserve"
   inkscape:version="1.3.1 (9b9bdc1480, 2023-11-25, custom)"
   sodipodi:docname="amenity_bank.16.svg"
   xmlns:inkscape="http://www.inkscape.org/namespaces/inkscape"
   xmlns:sodipodi="http://sodipodi.sourceforge.net/DTD/sodipodi-0.dtd"
   xmlns="http://www.w3.org/2000/svg"
   xmlns:svg="http://www.w3.org/2000/svg"><sodipodi:namedview
     id="namedview1"
     pagecolor="#ffffff"
     bordercolor="#666666"
     borderopacity="1.0"
     inkscape:showpageshadow="2"
     inkscape:pageopacity="0.0"
     inkscape:pagecheckerboard="0"
     inkscape:deskcolor="#d1d1d1"
     inkscape:document-units="mm"
     inkscape:zoom="1.2158059"
     inkscape:cx="-17.683744"
     inkscape:cy="40.713737"
     inkscape:window-width="1318"
     inkscape:window-height="719"
     inkscape:window-x="48"
     inkscape:window-y="27"
     inkscape:window-maximized="1"
     inkscape:current-layer="layer1"
     showguides="true"
     showgrid="false"><sodipodi:guide
       position="4.0786666,18.23745"
       orientation="0,-1"
       id="guide2"
       inkscape:locked="false" /><sodipodi:guide
       position="4.0786666,16.280034"
       orientation="0,-1"
       id="guide3"
       inkscape:locked="false" /><sodipodi:guide
       position="0,24.719794"
       orientation="0,-1"
       id="guide4"
       inkscape:locked="false" /><sodipodi:guide
       position="6.0908865,21.812039"
       orientation="0,-1"
       id="guide8"
       inkscape:locked="false" /><sodipodi:guide
       position="10.956437,8.8877158"
       orientation="0,-1"
       id="guide9"
       inkscape:locked="false" /><sodipodi:guide
       position="28.726309,6.2661963"
       orientation="1,0"
       id="guide1"
       inkscape:locked="false" /><sodipodi:guide
       position="2.0709346,6.2955363"
       orientation="1,0"
       id="guide5"
       inkscape:locked="false" /></sodipodi:namedview><defs
     id="defs1" /><g
     inkscape:label="Livello 1"
     inkscape:groupmode="layer"
     id="layer1"><g
       id="g5"
       transform="translate(0.57277424,-1.3927211)"><g
         id="rect5"><path
           style="color:#000000;fill:#cbcbcb;stroke-dashoffset:6.03213;-inkscape-stroke:none;paint-order:markers fill stroke"
           d="M 2.8462799,7.2730503 H 28.010922 c 0,0 0,0 0,10e-8 V 21.519689 c 0,0 0,0 0,0 H 2.8462799 c 0,0 0,0 0,0 V 7.2730504 c 0,-10e-8 0,-10e-8 0,-10e-8 z"
           id="path7" /><path
           id="path8"
           style="color:#000000;fill:#565656;stroke-dashoffset:6.03213;-inkscape-stroke:none;paint-order:markers fill stroke"
           d="M 2.0704753 6.4978358 L 2.0704753 22.294804 L 28.787191 22.294804 L 28.787191 6.4978358 L 2.0704753 6.4978358 z M 6.9378784 8.0486456 L 23.919271 8.0486456 L 23.919271 8.6749639 L 26.739254 11.483578 L 27.236381 11.494947 L 27.236381 17.260486 L 26.739254 17.271855 L 23.919271 20.079953 L 23.919271 20.743995 L 6.9378784 20.743995 L 6.9378784 20.079953 L 4.1178955 17.271855 L 3.621285 17.260486 L 3.621285 11.494947 L 4.1178955 11.483578 L 6.9378784 8.6749639 L 6.9378784 8.0486456 z " /></g><ellipse
         style="fill:#565656;stroke-width:0.935451;stroke-linecap:square;stroke-dashoffset:6.03213"
         id="path6"
         cx="-15.869097"
         cy="-13.909312"
         rx="6.9204807"
         ry="4.277092"
         transform="rotate(-178.21686)" /><path
         style="color:#000000;fill:#565656;stroke-width:1.17733;stroke-linecap:square;-inkscape-stroke:none"
         d="m 2.0708845,23.082944 -0.0027,1.265625 H 2.945321 l 24.901049,0.02734 0.87714,0.002 0.0028,-1.265625 -0.87714,-0.002 -24.9010487,-0.02539 z"
         id="path7-6" /><path
         style="color:#000000;fill:#565656;stroke-width:1.17733;stroke-linecap:square;-inkscape-stroke:none"
         d="m 2.0708845,25.037858 -0.0027,1.265625 H 2.945321 l 24.901049,0.02734 0.87714,0.002 0.0028,-1.265625 -0.87714,-0.002 -24.9010487,-0.02539 z"
         id="path7-6-8" /><path
         style="color:#000000;fill:#565656;stroke-width:1.17733;stroke-linecap:square;-inkscape-stroke:none"
         d="m 2.0708843,26.992772 -0.0027,1.265625 h 0.8771365 l 24.9010492,0.02734 0.87714,0.002 0.0028,-1.265625 -0.87714,-0.002 -24.9010489,-0.02539 z"
         id="path7-6-8-0" /></g></g></svg>
