<?xml version="1.0" encoding="UTF-8" standalone="no"?>
<!-- Created with Inkscape (http://www.inkscape.org/) -->

<svg
   width="32mm"
   height="32mm"
   viewBox="0 0 32 32"
   version="1.1"
   id="svg1"
   xml:space="preserve"
   inkscape:version="1.3.1 (9b9bdc1480, 2023-11-25, custom)"
   sodipodi:docname="amenity_hospital_emergency.svg"
   xmlns:inkscape="http://www.inkscape.org/namespaces/inkscape"
   xmlns:sodipodi="http://sodipodi.sourceforge.net/DTD/sodipodi-0.dtd"
   xmlns="http://www.w3.org/2000/svg"
   xmlns:svg="http://www.w3.org/2000/svg"><sodipodi:namedview
     id="namedview1"
     pagecolor="#ffffff"
     bordercolor="#666666"
     borderopacity="1.0"
     inkscape:showpageshadow="2"
     inkscape:pageopacity="0.0"
     inkscape:pagecheckerboard="0"
     inkscape:deskcolor="#d1d1d1"
     inkscape:document-units="mm"
     showguides="true"
     inkscape:zoom="4"
     inkscape:cx="85.125"
     inkscape:cy="59.625"
     inkscape:window-width="1318"
     inkscape:window-height="719"
     inkscape:window-x="48"
     inkscape:window-y="27"
     inkscape:window-maximized="1"
     inkscape:current-layer="layer1"><sodipodi:guide
       position="30.86609,17.025411"
       orientation="1,0"
       id="guide4"
       inkscape:locked="false" /><sodipodi:guide
       position="17.727083,5.1447916"
       orientation="0,-1"
       id="guide74"
       inkscape:locked="false" /><sodipodi:guide
       position="31.353124,18.638541"
       orientation="1,0"
       id="guide75"
       inkscape:locked="false" /></sodipodi:namedview><defs
     id="defs1" /><g
     inkscape:label="Livello 1"
     inkscape:groupmode="layer"
     id="layer1"><g
       id="path19" /><g
       id="rect22-0"
       transform="matrix(-1,0,0,1,30.661761,0.23016813)" /><g
       id="rect22-7"
       transform="matrix(-1,0,0,1,30.845845,-1.8811487e-4)" /><g
       id="path26" /><g
       id="path52-1"
       transform="matrix(-1,0,0,1,21.996584,0)" /><g
       id="path6"
       style="fill:#da0092;fill-opacity:1"><path
         id="path75"
         style="color:#000000;fill:#da0092;stroke-linecap:round;stroke-dashoffset:6.03213;-inkscape-stroke:none;paint-order:markers stroke fill;stroke:none;fill-opacity:1"
         d="M 16.000057 0.34158122 C 7.3650903 0.34158122 0.34158121 7.3650903 0.34158122 16.000057 C 0.34158122 24.635023 7.3650903 31.658016 16.000057 31.658016 C 24.635023 31.658016 31.658016 24.635023 31.658016 16.000057 C 31.658016 7.3650903 24.635023 0.34158122 16.000057 0.34158122 z M 16.000057 1.1156942 C 24.216257 1.1156942 30.88442 7.7838572 30.88442 16.000057 C 30.88442 24.216257 24.216257 30.88442 16.000057 30.88442 C 7.7838572 30.88442 1.1156942 24.216257 1.1156942 16.000057 C 1.1156942 7.7838572 7.7838572 1.1156942 16.000057 1.1156942 z M 16.000057 1.9047933 C 8.2108348 1.9047933 1.9047933 8.2108348 1.9047933 16.000057 C 1.9047933 23.789279 8.2108348 30.095321 16.000057 30.095321 C 23.789279 30.095321 30.095321 23.789279 30.095321 16.000057 C 30.095321 8.2108348 23.789279 1.9047933 16.000057 1.9047933 z M 16.000057 2.6799398 C 23.371532 2.6799398 29.320174 8.628582 29.320174 16.000057 C 29.320174 23.371532 23.371532 29.320174 16.000057 29.320174 C 8.628582 29.320174 2.6799398 23.371532 2.6799398 16.000057 C 2.6799398 8.628582 8.628582 2.6799398 16.000057 2.6799398 z " /></g><path
       id="rect74"
       style="fill:#da0092;fill-opacity:1;stroke:none;stroke-width:0.346238;stroke-linecap:round;stroke-linejoin:round;stroke-dasharray:none;stroke-dashoffset:6.03213;stroke-opacity:1;paint-order:stroke markers fill"
       d="M 12.828424,3.4340448 V 12.828424 H 3.4340448 v 6.343349 h 9.3943792 v 9.39378 h 6.343349 v -9.39378 h 9.39378 v -6.343349 h -9.39378 V 3.4340448 Z"
       sodipodi:nodetypes="ccccccccccccc" /></g></svg>
