<?xml version="1.0" encoding="UTF-8" standalone="no"?>
<!-- Created with Inkscape (http://www.inkscape.org/) -->

<svg
   width="32mm"
   height="32mm"
   viewBox="0 0 32 32"
   version="1.1"
   id="svg1"
   xml:space="preserve"
   inkscape:version="1.3.1 (9b9bdc1480, 2023-11-25, custom)"
   sodipodi:docname="amenity_bureau_de_change.svg"
   xmlns:inkscape="http://www.inkscape.org/namespaces/inkscape"
   xmlns:sodipodi="http://sodipodi.sourceforge.net/DTD/sodipodi-0.dtd"
   xmlns="http://www.w3.org/2000/svg"
   xmlns:svg="http://www.w3.org/2000/svg"><sodipodi:namedview
     id="namedview1"
     pagecolor="#ffffff"
     bordercolor="#666666"
     borderopacity="1.0"
     inkscape:showpageshadow="2"
     inkscape:pageopacity="0.0"
     inkscape:pagecheckerboard="0"
     inkscape:deskcolor="#d1d1d1"
     inkscape:document-units="mm"
     inkscape:zoom="3.4388184"
     inkscape:cx="65.865648"
     inkscape:cy="64.993255"
     inkscape:window-width="1318"
     inkscape:window-height="719"
     inkscape:window-x="48"
     inkscape:window-y="27"
     inkscape:window-maximized="1"
     inkscape:current-layer="layer1"
     showguides="true"
     showgrid="false"><sodipodi:guide
       position="28.726309,6.2661963"
       orientation="1,0"
       id="guide1"
       inkscape:locked="false" /></sodipodi:namedview><defs
     id="defs1" /><g
     inkscape:label="Livello 1"
     inkscape:groupmode="layer"
     id="layer1"><g
       id="g1"
       transform="translate(0.0082389,0.42350953)"><g
         id="rect5"
         transform="matrix(0.81670227,0,0,0.68213071,3.3992369,-1.6893234)"><path
           style="color:#000000;fill:#cbcbcb;stroke-dashoffset:6.03213;-inkscape-stroke:none;paint-order:markers fill stroke"
           d="M 2.8462799,7.2730503 H 28.010922 c 0,0 0,0 0,10e-8 V 21.519689 c 0,0 0,0 0,0 H 2.8462799 c 0,0 0,0 0,0 V 7.2730504 c 0,-10e-8 0,-10e-8 0,-10e-8 z"
           id="path7" /><path
           id="path8"
           style="color:#000000;fill:#565656;stroke-dashoffset:6.03213;-inkscape-stroke:none;paint-order:markers fill stroke"
           d="M 2.0704753,6.4978358 V 22.294804 H 28.787191 V 6.4978358 Z M 6.9378784,8.0486456 H 23.919271 v 0.6263183 l 2.819983,2.8086141 0.497127,0.01137 v 5.765539 l -0.497127,0.01137 -2.819983,2.808098 v 0.664042 H 6.9378784 V 20.079953 L 4.1178955,17.271855 3.621285,17.260486 v -5.765539 l 0.4966105,-0.01137 2.8199829,-2.8086141 z" /></g><path
         id="path6"
         style="fill:#565656;stroke-width:0.763403;stroke-linecap:square;stroke-dashoffset:6.03213"
         d="m 16.108778,4.6419145 c -3.117625,-0.097096 -5.693631,1.3861783 -5.753654,3.3129756 -0.06034,1.9270026 2.418636,3.5679299 5.536613,3.6648939 3.11742,0.09691 5.693106,-1.38631 5.753138,-3.3129774 0.06035,-1.9268842 -2.418317,-3.5677585 -5.536097,-3.6648921 z m -0.353983,0.1986093 0.448551,4e-7 2.4e-5,0.2949014 c 0.919914,0.068424 1.474846,0.6308871 1.474845,1.4975828 l -0.60048,-4.9e-6 C 17.070131,6.0780141 16.712744,5.6904958 16.20337,5.6676877 l -1e-6,1.8929076 c 0.699438,0.2128733 0.798138,0.2507968 0.995805,0.3648358 0.44095,0.2508853 0.646472,0.6312037 0.646472,1.1709881 1e-6,0.6006048 -0.258748,1.1174358 -0.699699,1.3911298 -0.250885,0.152051 -0.532038,0.235722 -0.942578,0.266134 l -10e-7,0.648252 -0.448551,3e-6 1e-6,-0.648253 c -1.071966,-0.06842 -1.65002,-0.699205 -1.596803,-1.7559653 l 0.600997,1e-6 c 0.04562,0.4941687 0.07561,0.6230244 0.189653,0.7978847 0.17486,0.2356806 0.464036,0.3879496 0.806152,0.4335646 l 2e-6,-2.0680903 C 15.207433,7.9938229 14.994257,7.9102041 14.788987,7.7657548 14.439268,7.5072666 14.257236,7.134709 14.257237,6.655745 c -10e-7,-0.8666957 0.524451,-1.3986789 1.497582,-1.5203204 z m 0,0.8349191 c -0.562592,0.076031 -0.882117,0.4025664 -0.882117,0.9043374 -1e-6,0.4637586 0.281512,0.7601868 0.882116,0.9198409 z m 0.448551,2.5543663 -4e-6,1.9993608 c 0.326912,-0.03802 0.51672,-0.10626 0.699182,-0.2811196 0.205271,-0.1976674 0.319361,-0.4641764 0.319361,-0.760677 3e-6,-0.5017708 -0.243079,-0.729487 -1.018543,-0.9575643 z"
         sodipodi:nodetypes="cccccccccccccscccccccccccscccscccccsc" /><path
         id="path1"
         style="fill:#000000;stroke:none;stroke-width:0.645999;stroke-linecap:round;stroke-linejoin:round;stroke-dashoffset:6.03213;paint-order:markers fill stroke"
         d="m 23.944819,12.454315 a 4.0174804,3.9888418 0 0 0 -4.017326,3.988904 4.0174804,3.9888418 0 0 0 4.017326,3.988904 4.0174804,3.9888418 0 0 0 4.017842,-3.988904 4.0174804,3.9888418 0 0 0 -4.017842,-3.988904 z m 0.148828,0.833024 c 0.595793,0 1.087891,0.172429 1.65778,0.578259 l -0.276469,0.690914 c -0.630332,-0.466273 -0.984134,-0.613399 -1.441773,-0.613399 -0.742582,0 -1.191733,0.535722 -1.433504,1.684135 h 2.452564 l -0.198955,0.50953 h -2.331123 c -0.0086,0.11225 -0.01705,0.198324 -0.01705,0.310575 0,0.09498 -3.66e-4,0.163917 0.0083,0.258899 h 2.124418 l -0.207223,0.509529 h -1.847949 c 0.215867,1.131144 0.708125,1.709974 1.459342,1.709974 0.4231,0 0.724944,-0.112635 1.432988,-0.5271 v 0.803052 c -0.431734,0.267675 -0.914907,0.397391 -1.432988,0.397391 -0.733948,0 -1.37322,-0.336731 -1.709973,-0.889351 -0.25904,-0.414465 -0.431751,-0.906807 -0.535368,-1.493966 h -0.716235 l 0.189653,-0.509529 h 0.474906 v -0.207223 c 0,-0.112251 3.01e-4,-0.198193 0.01757,-0.362251 h -0.682129 l 0.189653,-0.50953 h 0.544152 c 0.08635,-0.55262 0.276412,-1.036393 0.569991,-1.468128 0.405831,-0.587158 0.966874,-0.871781 1.709457,-0.871781 z" /><path
         id="path1-1"
         style="fill:#000000;stroke:none;stroke-width:0.645999;stroke-linecap:round;stroke-linejoin:round;stroke-dashoffset:6.03213;paint-order:markers fill stroke"
         d="M 8.0381871,16.44322 A 4.0174804,3.9888418 0 0 0 4.0208612,20.432123 4.0174804,3.9888418 0 0 0 8.0381871,24.421027 4.0174804,3.9888418 0 0 0 12.05603,20.432123 4.0174804,3.9888418 0 0 0 8.0381871,16.44322 Z m 0.040308,0.62115 c 0.7339479,0 1.3469314,0.319378 1.6577799,0.854729 0.164059,0.284944 0.2332111,0.621534 0.2418457,1.14825 H 9.2184768 c -0.025904,-0.889372 -0.423388,-1.329635 -1.1746053,-1.329635 -0.733948,0 -1.2174968,0.440338 -1.2174968,1.096574 0,0.241771 0.060649,0.466563 0.1901693,0.699699 l 0.1813843,0.336414 c 0.034539,0.05181 0.077533,0.129594 0.1379761,0.241845 h 1.3818278 v 0.474907 H 7.5431269 c 0.086347,0.250406 0.1297078,0.448823 0.1297078,0.612882 0,0.449004 -0.2419379,0.846703 -1.0190592,1.632459 0.3367525,-0.224502 0.6823911,-0.336931 1.0536824,-0.336931 0.2331364,0 0.3712146,0.02609 0.7079671,0.129708 0.3626567,0.103616 0.5267047,0.137976 0.6821289,0.137976 0.2245018,0 0.4663464,-0.0862 0.7167522,-0.258899 l 0.3627689,0.569475 c -0.3453877,0.336752 -0.682194,0.483691 -1.1311975,0.483691 -0.3194832,0 -0.5442264,-0.0519 -1.2609049,-0.302307 -0.1813284,-0.06044 -0.3886628,-0.09508 -0.5699911,-0.09508 -0.3022138,0 -0.6042752,0.10401 -0.9410278,0.319877 l -0.414445,-0.569991 c 0.7943907,-0.682139 1.0795207,-1.114161 1.0795207,-1.649511 0,-0.215867 -0.069068,-0.448843 -0.2072225,-0.673344 H 5.781994 v -0.474907 h 0.6991822 c -0.3971954,-0.656235 -0.4573365,-0.82 -0.4573365,-1.199926 0,-1.044797 0.8976077,-1.84795 2.054655,-1.84795 z" /><path
         id="path1-2"
         style="fill:#000000;stroke:none;stroke-width:0.645999;stroke-linecap:round;stroke-linejoin:round;stroke-dashoffset:6.03213;paint-order:markers fill stroke"
         d="m 16.900058,20.432123 a 4.0174804,3.9888418 0 0 0 -4.017326,3.988904 4.0174804,3.9888418 0 0 0 4.017326,3.988904 4.0174804,3.9888418 0 0 0 4.017326,-3.988904 4.0174804,3.9888418 0 0 0 -4.017326,-3.988904 z m -2.305286,0.927592 h 0.733806 l 1.597318,2.780709 1.545642,-2.780709 h 0.733806 l -1.735295,3.065446 h 1.303796 v 0.440283 h -1.468127 v 0.665076 h 1.468127 v 0.440283 h -1.468127 v 1.511019 h -0.759644 v -1.511019 h -1.48518 V 25.53052 h 1.48518 v -0.665076 h -1.48518 v -0.440283 h 1.303796 z" /></g></g></svg>
