<?xml version="1.0" encoding="UTF-8" standalone="no"?>
<!-- Created with Inkscape (http://www.inkscape.org/) -->

<svg
   width="32mm"
   height="32mm"
   viewBox="0 0 32 32"
   version="1.1"
   id="svg1"
   xml:space="preserve"
   inkscape:version="1.3.1 (9b9bdc1480, 2023-11-25, custom)"
   sodipodi:docname="amenity_bicycle_parking.svg"
   xmlns:inkscape="http://www.inkscape.org/namespaces/inkscape"
   xmlns:sodipodi="http://sodipodi.sourceforge.net/DTD/sodipodi-0.dtd"
   xmlns="http://www.w3.org/2000/svg"
   xmlns:svg="http://www.w3.org/2000/svg"><sodipodi:namedview
     id="namedview1"
     pagecolor="#ffffff"
     bordercolor="#666666"
     borderopacity="1.0"
     inkscape:showpageshadow="2"
     inkscape:pageopacity="0.0"
     inkscape:pagecheckerboard="0"
     inkscape:deskcolor="#d1d1d1"
     inkscape:document-units="mm"
     showguides="true"
     inkscape:zoom="4.0000001"
     inkscape:cx="42.124999"
     inkscape:cy="56.874999"
     inkscape:window-width="1318"
     inkscape:window-height="719"
     inkscape:window-x="48"
     inkscape:window-y="27"
     inkscape:window-maximized="1"
     inkscape:current-layer="layer1"><sodipodi:guide
       position="30.86609,17.025411"
       orientation="1,0"
       id="guide4"
       inkscape:locked="false" /><sodipodi:guide
       position="17.727083,5.1447916"
       orientation="0,-1"
       id="guide74"
       inkscape:locked="false" /></sodipodi:namedview><defs
     id="defs1" /><g
     inkscape:label="Livello 1"
     inkscape:groupmode="layer"
     id="layer1"><g
       id="path19" /><g
       id="rect22-0"
       transform="matrix(-1,0,0,1,30.661761,0.23016813)" /><g
       id="rect22-7"
       transform="matrix(-1,0,0,1,30.845845,-1.8811487e-4)" /><g
       id="path26" /><g
       id="path52-1"
       transform="matrix(-1,0,0,1,21.996584,0)" /><g
       id="path7-6"
       transform="translate(-31.080925,-0.54616641)" /><path
       d="m 6.3279627,15.826222 h 7.6463513 c 1.903241,0 3.405799,-0.567633 4.708016,-1.73629 1.469168,-1.335607 2.103581,-2.904945 2.103581,-5.142088 0,-4.5744554 -2.704605,-7.1454995 -7.51279,-7.1454995 H 3.2226757 V 26.143788 h 3.105287 z m 0,-2.737995 V 4.5403395 h 6.4776943 c 2.971727,0 4.741407,1.6027288 4.741407,4.2739431 0,2.6712154 -1.76968,4.2739444 -4.741407,4.2739444 z"
       id="text94"
       style="font-size:39.0941px;line-height:1.25;font-family:Helvetica;-inkscape-font-specification:Helvetica;fill:#0093db;fill-opacity:1;stroke:none;stroke-width:0.834755"
       aria-label="P" /><path
       id="path3"
       style="color:#000000;fill:#0092db;stroke-width:1.01137;stroke-linejoin:bevel;stroke-dashoffset:6.03213;-inkscape-stroke:none;paint-order:markers fill stroke"
       d="m 21.614568,16.424913 c -0.696811,0.02058 -0.659616,0.681814 0,0.671591 h 1.426282 v 2.648735 h -7.907006 v -1.379244 l 1.165485,-0.268115 c 0.389353,-0.09127 0.322554,-0.664459 -0.07735,-0.663751 h -3.01406 c -0.186153,1.41e-4 -0.336782,0.151474 -0.336057,0.337624 v 0.691452 c -1.64e-4,0.2159 0.200254,0.376032 0.410795,0.328218 l 1.177505,-0.270727 v 1.468093 l -1.793174,2.973816 c -0.502071,-0.246188 -1.065805,-0.384663 -1.661469,-0.384663 -2.089907,0 -3.7907016,1.702884 -3.7907016,3.792791 0,2.089908 1.7007946,3.790701 3.7907016,3.790701 2.000642,0 3.64347,-1.559199 3.780247,-3.525723 l 0.953295,-0.01777 c 0.07714,0.23042 0.219952,0.431887 0.406089,0.581175 v 1.293009 h -0.355394 v 0.671591 h 1.404331 v -0.671591 h -0.375254 v -1.02385 c 0.03323,0.0027 0.06646,0.0048 0.100348,0.0048 0.6834,0 1.244926,-0.563098 1.244926,-1.246495 0,-0.07704 -0.0078,-0.15248 -0.02143,-0.225779 l 5.107229,-2.947685 0.370551,0.508528 c -0.765413,0.69459 -1.247017,1.697186 -1.247017,2.809185 0,2.089917 1.700788,3.790701 3.7907,3.790701 2.089918,0 3.790701,-1.700784 3.790701,-3.790701 0,-2.089918 -1.700783,-3.792792 -3.790701,-3.792792 -0.736393,0 -1.42403,0.212267 -2.006411,0.577517 l -0.423338,-0.581747 c 4.4e-5,-0.0031 4.4e-5,-0.0063 0,-0.0094 l -0.01986,-0.447379 v -4.473267 l 0.466194,0.466194 c 0.388121,0.378535 0.8086,-0.132761 0.476124,-0.474033 l -1.210954,-1.210955 z m -6.337521,3.994007 h 7.689066 l 0.07474,1.658334 v 0.321423 l -5.197123,2.99838 c -0.227542,-0.25314 -0.556322,-0.413752 -0.92037,-0.414976 z m -0.55661,0.442675 1.553282,4.302365 c -0.280906,0.172041 -0.489061,0.452515 -0.566017,0.781345 l -0.933956,0.01724 c -0.116713,-1.085363 -0.693567,-2.035237 -1.53081,-2.650302 z m -3.714918,2.390028 c 0.469805,0 0.914364,0.103588 1.313392,0.288497 l -1.23761,2.051881 c -0.02499,-0.0024 -0.05018,-0.0036 -0.07578,-0.0036 -0.429464,0 -0.782391,0.352927 -0.782391,0.782391 0,0.429453 0.352927,0.781867 0.782391,0.781867 0.314559,0 0.587525,-0.189375 0.711311,-0.4594 l 2.394732,-0.04495 c -0.140006,1.595499 -1.473319,2.841588 -3.106043,2.841588 -1.7264324,0 -3.1191097,-1.39268 -3.1191097,-3.119109 0,-1.72643 1.3926773,-3.119111 3.1191097,-3.119111 z m 15.158621,0 c 1.726446,0 3.11911,1.39267 3.11911,3.11911 0,1.72644 -1.392664,3.119109 -3.11911,3.119109 -1.726439,0 -3.119109,-1.392669 -3.119109,-3.119109 0,-0.893135 0.373299,-1.69622 0.972109,-2.264072 l 1.598229,2.195084 c -0.0028,0.02258 -0.0048,0.04569 -0.0048,0.06898 0,0.303965 0.249512,0.552953 0.553474,0.552953 0.303966,0 0.552953,-0.248988 0.552953,-0.552953 0,-0.303964 -0.248987,-0.555043 -0.552953,-0.555043 -0.02259,0 -0.04501,0.0015 -0.06689,0.0041 L 24.5528,23.69792 c 0.469912,-0.283271 1.021017,-0.446334 1.611295,-0.446334 z m -13.268236,0.636053 c 0.648347,0.493899 1.096064,1.236558 1.203115,2.087419 l -2.395778,0.04442 c -0.01364,-0.02687 -0.02893,-0.05286 -0.04547,-0.07788 z"
       sodipodi:nodetypes="cccccccccccccccsssccccccccccsscccssssccccccccccccccccccccccsccsssccsssssssccssssccsccccc" /></g></svg>
