<?xml version="1.0" encoding="UTF-8" standalone="no"?>
<!-- Created with Inkscape (http://www.inkscape.org/) -->

<svg
   width="32mm"
   height="32mm"
   viewBox="0 0 32 32"
   version="1.1"
   id="svg1"
   xml:space="preserve"
   inkscape:version="1.3.1 (9b9bdc1480, 2023-11-25, custom)"
   sodipodi:docname="amenity_vending_machine.svg"
   xmlns:inkscape="http://www.inkscape.org/namespaces/inkscape"
   xmlns:sodipodi="http://sodipodi.sourceforge.net/DTD/sodipodi-0.dtd"
   xmlns="http://www.w3.org/2000/svg"
   xmlns:svg="http://www.w3.org/2000/svg"><sodipodi:namedview
     id="namedview1"
     pagecolor="#ffffff"
     bordercolor="#666666"
     borderopacity="1.0"
     inkscape:showpageshadow="2"
     inkscape:pageopacity="0.0"
     inkscape:pagecheckerboard="0"
     inkscape:deskcolor="#d1d1d1"
     inkscape:document-units="mm"
     showguides="true"
     inkscape:zoom="1"
     inkscape:cx="110"
     inkscape:cy="123.5"
     inkscape:window-width="1318"
     inkscape:window-height="719"
     inkscape:window-x="48"
     inkscape:window-y="27"
     inkscape:window-maximized="1"
     inkscape:current-layer="layer1"
     showgrid="false"><sodipodi:guide
       position="21.324843,29.746031"
       orientation="0,-1"
       id="guide8"
       inkscape:locked="false" /><sodipodi:guide
       position="18.475006,31.999999"
       orientation="0,-1"
       id="guide9"
       inkscape:locked="false" /><sodipodi:guide
       position="2.4878345,30.738227"
       orientation="1,0"
       id="guide36"
       inkscape:locked="false" /><sodipodi:guide
       position="29.485911,9.5526053"
       orientation="1,0"
       id="guide37"
       inkscape:locked="false" /><sodipodi:guide
       position="8.9802559,1.7851799"
       orientation="0,-1"
       id="guide38"
       inkscape:locked="false" /><sodipodi:guide
       position="12.464872,5.3716509"
       orientation="0,-1"
       id="guide45"
       inkscape:locked="false" /><sodipodi:guide
       position="32.171697,15.989473"
       orientation="0,-1"
       id="guide46"
       inkscape:locked="false" /><sodipodi:guide
       position="4.794147,15.442652"
       orientation="1,0"
       id="guide47"
       inkscape:locked="false" /><sodipodi:guide
       position="27.174628,16.05069"
       orientation="1,0"
       id="guide48"
       inkscape:locked="false" /></sodipodi:namedview><defs
     id="defs1"><inkscape:perspective
       sodipodi:type="inkscape:persp3d"
       inkscape:vp_x="-183.11487 : 148.50001 : 1"
       inkscape:vp_y="0 : 1000 : 0"
       inkscape:vp_z="-195.51426 : 148.50001 : 1"
       inkscape:persp3d-origin="-189.31457 : 99.000003 : 1"
       id="perspective10172" /><symbol
       id="Recycling"><title
         id="title7498">Recycling</title><g
         style="stroke:none"
         id="g7512"><path
           style="stroke-width:0.26458332"
           inkscape:connector-curvature="0"
           d="m 14.684375,3.9026042 -1.389063,0.79375 -0.926041,-1.5875 C 12.236979,2.8773437 11.972396,2.7119792 11.608594,2.7119792 H 8.8304687 C 9.0289062,2.9104167 9.0619792,2.9765625 9.1611979,3.1419271 L 10.88099,6.1184896 9.4919271,6.9122396 H 12.93151 Z"
           id="path7500" /><path
           style="stroke-width:0.26458332"
           inkscape:connector-curvature="0"
           d="m 14.254427,12.038542 h 1.389063 c 0.826822,0 1.322916,-0.892969 0.926041,-1.5875 l -1.752864,-3.069167 -2.38125,1.3890625 z"
           id="path7502" /><path
           style="stroke-width:0.26458332"
           inkscape:connector-curvature="0"
           d="m 12.170833,17.065625 v -1.5875 h 1.852084 c 0.264583,0 0.529166,-0.132292 0.727604,-0.463021 l 1.389062,-2.38125 C 15.875,12.7 15.775781,12.7 15.610417,12.7 h -3.439584 v -1.5875 l -1.719791,2.976562 z"
           id="path7504" /><path
           style="stroke-width:0.26458332"
           inkscape:connector-curvature="0"
           d="m 5.3578125,12.7 -0.6945313,1.190625 c -0.396875,0.727604 0.099219,1.5875 0.8929688,1.5875 H 9.0619792 V 12.7 Z"
           id="path7506" /><path
           style="stroke-width:0.26458332"
           inkscape:connector-curvature="0"
           d="m 2.0505208,8.4005208 1.3890625,0.79375 -0.9260416,1.5875002 C 2.38125,11.013281 2.38125,11.310937 2.5466146,11.641667 l 1.3559896,2.38125 c 0.066146,-0.264584 0.099219,-0.33073 0.1984375,-0.496094 L 5.8208333,10.55026 7.2098958,11.34401 5.4901042,8.3674479 Z"
           id="path7508" /><path
           style="stroke-width:0.26458332"
           inkscape:connector-curvature="0"
           d="M 9.2604167,4.6302083 8.5989583,3.4395833 c -0.4299479,-0.6945312 -1.4221354,-0.6945312 -1.8190104,0 l -1.7528646,3.0427084 2.38125,1.3890625 z"
           id="path7510" /></g></symbol><inkscape:perspective
       id="perspective8310"
       inkscape:persp3d-origin="372.04724 : 350.7874 : 1"
       inkscape:vp_z="744.09447 : 526.18111 : 1"
       inkscape:vp_y="0 : 1000 : 0"
       inkscape:vp_x="0 : 526.18111 : 1"
       sodipodi:type="inkscape:persp3d" /><inkscape:perspective
       id="perspective5302"
       inkscape:persp3d-origin="372.04724 : 350.7874 : 1"
       inkscape:vp_z="744.09447 : 526.18111 : 1"
       inkscape:vp_y="0 : 1000 : 0"
       inkscape:vp_x="0 : 526.18111 : 1"
       sodipodi:type="inkscape:persp3d" /><symbol
       id="ToiletsMen"><title
         id="title4892">Toilets - Men</title><g
         style="stroke:none"
         id="g4898"><circle
           cx="36"
           cy="9"
           r="5"
           id="circle4894" /><path
           d="m 24,22 v 15.5 a 2.25,2.25 0 0 0 4.5,0 V 23 h 1 v 39.5 a 3,3 0 0 0 6,0 V 40 h 1 v 22.5 a 3,3 0 0 0 6,0 V 23 h 1 v 14.5 a 2.25,2.25 0 0 0 4.5,0 V 22 A 7,7 0 0 0 41,15 H 31 a 7,7 0 0 0 -7,7 z"
           id="path4896"
           inkscape:connector-curvature="0" /></g></symbol><inkscape:perspective
       sodipodi:type="inkscape:persp3d"
       inkscape:vp_x="0 : 100 : 1"
       inkscape:vp_y="0 : 1000 : 0"
       inkscape:vp_z="200 : 100 : 1"
       inkscape:persp3d-origin="100 : 66.666667 : 1"
       id="perspective2879" /></defs><g
     inkscape:label="Livello 1"
     inkscape:groupmode="layer"
     id="layer1"><g
       id="path19" /><g
       id="rect22-0"
       transform="matrix(-1,0,0,1,30.661761,0.23016813)" /><g
       id="rect22-7"
       transform="matrix(-1,0,0,1,30.845845,-1.8811487e-4)" /><g
       id="path26" /><g
       id="path52"
       transform="translate(-38.081357,-6.611757)" /><g
       id="path52-1"
       transform="matrix(-1,0,0,1,21.996584,0)" /><g
       id="path19-0"
       transform="translate(3.6443103,6.1232351)" /><g
       id="rect22-0-8"
       transform="matrix(-1,0,0,1,34.306071,6.3534032)" /><g
       id="rect22-7-5"
       transform="matrix(-1,0,0,1,34.490155,6.123047)" /><g
       id="path26-0"
       transform="translate(3.6443103,6.1232351)" /><g
       id="path52-1-6"
       transform="matrix(-1,0,0,1,25.640894,6.1232351)" /><g
       id="path7-6"
       transform="translate(-27.436615,5.5770687)" /><g
       id="g40-6-7"
       transform="translate(0.115617,-0.13948398)" /><path
       id="path1-1"
       style="fill:#d10000;fill-opacity:1;stroke:none;stroke-width:0.911837;stroke-linecap:round;stroke-linejoin:round;stroke-dashoffset:6.03213;paint-order:markers fill stroke"
       d="M 8.1424278,2.2510155 A 5.6707357,5.6303119 0 0 0 2.4719101,7.881414 5.6707357,5.6303119 0 0 0 8.1424278,13.511818 5.6707357,5.6303119 0 0 0 13.813676,7.881414 5.6707357,5.6303119 0 0 0 8.1424278,2.2510155 Z m 0.056898,0.8767631 c 1.0359789,0 1.9012162,0.450807 2.3399832,1.2064632 0.231572,0.4022028 0.329181,0.8773049 0.341369,1.6207726 H 9.8084288 C 9.77187,4.699652 9.210809,4.0782141 8.1504551,4.0782141 c -1.0359789,0 -1.7185158,0.6215438 -1.7185158,1.5478311 0,0.3412635 0.085608,0.6585609 0.2684264,0.987636 l 0.2560264,0.4748535 c 0.048754,0.073131 0.1094347,0.1829239 0.1947552,0.341368 H 9.1016189 V 8.1002414 H 7.4436458 c 0.1218844,0.3534517 0.1830848,0.6335214 0.1830848,0.865093 0,0.6337781 -0.3414992,1.1951376 -1.4384175,2.3042446 0.4753307,-0.316888 0.9632055,-0.475583 1.4872885,-0.475583 0.329075,0 0.5239743,0.03683 0.9993063,0.183084 0.5118957,0.146257 0.743452,0.194756 0.9628356,0.194756 0.3168892,0 0.6582555,-0.121672 1.0117065,-0.36544 l 0.512055,0.803823 c -0.487521,0.475331 -0.962927,0.682737 -1.5967047,0.682737 -0.4509548,0 -0.768183,-0.07326 -1.7797852,-0.42671 -0.2559487,-0.08532 -0.5486038,-0.134207 -0.8045511,-0.134207 -0.4265797,0 -0.8529449,0.146811 -1.3282755,0.451511 L 5.0671929,11.378999 c 1.1212939,-0.96285 1.5237592,-1.5726569 1.5237592,-2.3283143 0,-0.3046999 -0.097494,-0.6335493 -0.2924971,-0.9504366 H 4.9577765 V 7.4299097 H 5.9446827 C 5.3840359,6.5036239 5.2991459,6.2724671 5.2991459,5.7361956 c 0,-1.4747471 1.2669861,-2.60841 2.9001772,-2.60841 z" /><path
       id="rect64"
       style="fill:#d10000;fill-opacity:1;stroke:none;stroke-width:1.17543;stroke-linecap:round;stroke-linejoin:round;stroke-dasharray:none;stroke-dashoffset:0;stroke-opacity:1;paint-order:markers fill stroke"
       d="m 19.628776,2.3073527 c -1.397374,0 -2.522327,1.1244366 -2.522327,2.5218099 v 0.3167765 h 2.594674 V 2.5181925 l 7.144784,5.3469605 -7.144784,5.34696 V 10.58385 h -2.594674 v 17.084229 c 0,1.397372 1.124953,2.522326 2.522327,2.522326 h 7.350456 c 1.397374,0 2.506306,-1.124954 2.506306,-2.522326 V 4.8291626 c 0,-1.3973733 -1.125469,-2.5218099 -2.522843,-2.5218099 z m 7.677051,5.3991536 h 1.579748 V 7.9948608 H 27.305827 Z M 18.472774,24.111707 h 9.662977 c 0.07986,0 0.144177,0.06432 0.144177,0.144177 v 2.888196 c 0,0.07986 -0.06432,0.144177 -0.144177,0.144177 h -9.662977 c -0.07986,0 -0.144177,-0.06432 -0.144177,-0.144177 v -2.888196 c 0,-0.07986 0.06432,-0.144177 0.144177,-0.144177 z"
       sodipodi:nodetypes="sscccccccssssssscccccsssssssss" /><path
       id="rect65"
       style="fill:#d10000;fill-opacity:1;stroke:none;stroke-width:1.01755;stroke-linecap:round;stroke-linejoin:round;stroke-dasharray:none;stroke-dashoffset:0;stroke-opacity:1;paint-order:markers fill stroke"
       d="m 10.737224,21.191648 -6.0035052,4.492648 6.0035052,4.493218 v -2.208395 h 5.530114 v -4.569645 h -5.530114 z" /><path
       id="rect65-5"
       style="fill:#d10000;fill-opacity:1;stroke:none;stroke-width:1.01755;stroke-linecap:round;stroke-linejoin:round;stroke-dasharray:none;stroke-dashoffset:0;stroke-opacity:1;paint-order:markers fill stroke"
       d="M 20.079911 3.381189 L 20.079911 5.5888062 L 13.647746 5.5888062 A 6.0123506 5.9694916 0 0 1 14.184664 8.0511882 A 6.0123506 5.9694916 0 0 1 13.796057 10.158553 L 20.079911 10.158553 L 20.079911 12.366687 L 26.083162 7.8734212 L 20.079911 3.381189 z " /></g></svg>
