<?xml version="1.0" encoding="UTF-8" standalone="no"?>
<!-- Created with Inkscape (http://www.inkscape.org/) -->

<svg
   width="32mm"
   height="32mm"
   viewBox="0 0 32 32"
   version="1.1"
   id="svg1"
   xml:space="preserve"
   inkscape:version="1.3.1 (9b9bdc1480, 2023-11-25, custom)"
   sodipodi:docname="amenity_ice_cream.svg"
   xmlns:inkscape="http://www.inkscape.org/namespaces/inkscape"
   xmlns:sodipodi="http://sodipodi.sourceforge.net/DTD/sodipodi-0.dtd"
   xmlns="http://www.w3.org/2000/svg"
   xmlns:svg="http://www.w3.org/2000/svg"><sodipodi:namedview
     id="namedview1"
     pagecolor="#ffffff"
     bordercolor="#666666"
     borderopacity="1.0"
     inkscape:showpageshadow="2"
     inkscape:pageopacity="0.0"
     inkscape:pagecheckerboard="0"
     inkscape:deskcolor="#d1d1d1"
     inkscape:document-units="mm"
     showguides="true"
     inkscape:zoom="2.8284271"
     inkscape:cx="56.038212"
     inkscape:cy="61.341513"
     inkscape:window-width="1318"
     inkscape:window-height="719"
     inkscape:window-x="48"
     inkscape:window-y="27"
     inkscape:window-maximized="1"
     inkscape:current-layer="layer1"><sodipodi:guide
       position="30.86609,17.025411"
       orientation="1,0"
       id="guide4"
       inkscape:locked="false" /><sodipodi:guide
       position="17.727083,5.1447916"
       orientation="0,-1"
       id="guide74"
       inkscape:locked="false" /><sodipodi:guide
       position="6.2894496,22.888968"
       orientation="1,0"
       id="guide75"
       inkscape:locked="false" /></sodipodi:namedview><defs
     id="defs1" /><g
     inkscape:label="Livello 1"
     inkscape:groupmode="layer"
     id="layer1"><g
       id="path19" /><g
       id="rect22-0"
       transform="matrix(-1,0,0,1,30.661761,0.23016813)" /><g
       id="rect22-7"
       transform="matrix(-1,0,0,1,30.845845,-1.8811487e-4)" /><g
       id="path26" /><g
       id="path52-1"
       transform="matrix(-1,0,0,1,21.996584,0)" /><g
       id="path77-4"
       transform="matrix(0.95088114,0.68779963,-0.68779963,0.95088114,12.739546,-9.3718358)"><path
         style="color:#000000;fill:#c7bdac;stroke-linecap:round;stroke-linejoin:round;stroke-dashoffset:6.03213;-inkscape-stroke:none;paint-order:markers stroke fill"
         d="M 15.346138,9.6070948 A 3.8852677,3.8852677 0 0 1 11.46087,13.492362 3.8852677,3.8852677 0 0 1 7.5756021,9.6070948 3.8852677,3.8852677 0 0 1 11.46087,5.721827 3.8852677,3.8852677 0 0 1 15.346138,9.6070948 Z"
         id="path79" /><path
         id="path78"
         style="color:#000000;fill:#734a08;stroke-linecap:round;stroke-linejoin:round;stroke-dashoffset:6.03213;-inkscape-stroke:none;paint-order:markers stroke fill"
         d="m 11.460799,4.9960775 c -2.5381019,0 -4.6110879,2.0729864 -4.6110879,4.611088 0,1.5032985 0.7270706,2.8435735 1.8474325,3.6865965 -0.038326,0.115942 -0.042275,0.240499 -0.011369,0.358635 l 5.0136474,16.68942 c 0.181436,0.598869 1.029343,0.598869 1.210779,0 l 5.013647,-16.68942 c 0.06419,-0.214566 0.01014,-0.447082 -0.14211,-0.611333 1.243538,-0.77191 2.000034,-2.131493 2.000395,-3.5951289 7.9e-5,-2.337753 -1.895064,-4.232896 -4.232817,-4.2328166 -1.056894,0.00249 -2.07462,0.4002853 -2.853055,1.1151774 C 13.862519,5.5055796 12.718728,4.9960775 11.460799,4.9960775 Z m 0,0.6940145 c 1.085772,0 2.064415,0.4350803 2.771924,1.1415323 -0.58982,0.744064 -0.912335,1.6648335 -0.915706,2.6143108 6.02e-4,1.0277509 0.375125,2.0201749 1.053682,2.7920779 -0.2045,0.226015 -0.436003,0.427032 -0.68833,0.599963 l -4.3914632,0 c -0.013014,0.0027 -0.025939,0.0058 -0.038757,0.0093 -1.0336179,-0.702424 -1.7089401,-1.887211 -1.70894,-3.2395937 0,-2.1736623 1.7439277,-3.9175903 3.9175902,-3.9175903 z m 3.40496,7.02076 c 0.06036,0.044 0.121879,0.08639 0.184485,0.127124 l -0.306441,0 c 0.04117,-0.04183 0.08239,-0.08376 0.121956,-0.127124 z m -5.1744459,0.928476 9.1065029,0 -4.554382,15.158099 z"
         sodipodi:nodetypes="sscccccccccssccccccsscccccccc" /></g></g></svg>
