<?xml version="1.0" encoding="UTF-8" standalone="no"?>
<!-- Created with Inkscape (http://www.inkscape.org/) -->

<svg
   width="32mm"
   height="32mm"
   viewBox="0 0 32 32"
   version="1.1"
   id="svg1"
   xml:space="preserve"
   inkscape:version="1.3.1 (9b9bdc1480, 2023-11-25, custom)"
   sodipodi:docname="amenity_drinking_water.svg"
   xmlns:inkscape="http://www.inkscape.org/namespaces/inkscape"
   xmlns:sodipodi="http://sodipodi.sourceforge.net/DTD/sodipodi-0.dtd"
   xmlns="http://www.w3.org/2000/svg"
   xmlns:svg="http://www.w3.org/2000/svg"><sodipodi:namedview
     id="namedview1"
     pagecolor="#ffffff"
     bordercolor="#666666"
     borderopacity="1.0"
     inkscape:showpageshadow="2"
     inkscape:pageopacity="0.0"
     inkscape:pagecheckerboard="0"
     inkscape:deskcolor="#d1d1d1"
     inkscape:document-units="mm"
     showguides="true"
     inkscape:zoom="2"
     inkscape:cx="67"
     inkscape:cy="-13.25"
     inkscape:window-width="1318"
     inkscape:window-height="719"
     inkscape:window-x="48"
     inkscape:window-y="27"
     inkscape:window-maximized="1"
     inkscape:current-layer="layer1"><sodipodi:guide
       position="16.225336,-14.837615"
       orientation="1,0"
       id="guide4"
       inkscape:locked="false" /></sodipodi:namedview><defs
     id="defs1" /><g
     inkscape:label="Livello 1"
     inkscape:groupmode="layer"
     id="layer1"><g
       id="path19" /><g
       id="rect22-0"
       transform="matrix(-1,0,0,1,30.661761,0.23016813)" /><g
       id="rect22-7"
       transform="matrix(-1,0,0,1,30.845845,-1.8811487e-4)" /><g
       id="path26" /><g
       id="path52-1"
       transform="matrix(-1,0,0,1,21.996584,0)" /><path
       style="fill:none;stroke:#734a08;stroke-width:0.965;stroke-linecap:butt;stroke-linejoin:miter;stroke-opacity:1;stroke-dasharray:none"
       d="M 12.011002,29.178985 9.9264629,14.244215 H 21.608472 l -2.084539,14.93477 h -3.756466 z"
       id="path59-4"
       sodipodi:nodetypes="cccccc" /><path
       id="path56"
       style="color:#000000;fill:#734a08;fill-opacity:1;-inkscape-stroke:none"
       d="M 22.01571 1.9171956 C 21.749514 1.9173936 21.533767 2.1331399 21.533569 2.3993368 C 21.533482 2.6657354 21.749312 2.8817964 22.01571 2.8819946 L 23.180497 2.8819946 L 23.180497 5.4895874 A 2.1243045 2.1243045 0 0 0 21.667928 6.7329224 L 18.746143 6.7329224 L 18.73064 6.7329224 L 18.716687 6.7329224 C 17.75472 6.7675043 15.83019 7.551279 14.83372 10.650513 L 16.498218 10.650513 C 16.772401 9.3042556 17.63132 8.437259 18.775598 8.3969035 L 21.669478 8.3969035 A 2.1243045 2.1243045 0 0 0 23.619747 9.6867472 A 2.1243045 2.1243045 0 0 0 25.570532 8.3969035 L 29.883447 8.3969035 C 30.342826 8.3966222 30.715157 8.0242913 30.715438 7.5649129 C 30.715158 7.1055342 30.342827 6.7332038 29.883447 6.7329224 L 25.575183 6.7329224 A 2.1243045 2.1243045 0 0 0 24.145296 5.5040568 L 24.145296 2.8819946 L 25.309566 2.8819946 C 25.576167 2.8820819 25.792311 2.6659373 25.792224 2.3993368 C 25.792026 2.1329381 25.575965 1.9171083 25.309566 1.9171956 L 22.01571 1.9171956 z " /></g></svg>
