<?xml version="1.0" encoding="UTF-8" standalone="no"?>
<!-- Created with Inkscape (http://www.inkscape.org/) -->

<svg
   width="32mm"
   height="32mm"
   viewBox="0 0 32 32"
   version="1.1"
   id="svg1"
   xml:space="preserve"
   inkscape:version="1.3.1 (9b9bdc1480, 2023-11-25, custom)"
   sodipodi:docname="amenity_casino.svg"
   xmlns:inkscape="http://www.inkscape.org/namespaces/inkscape"
   xmlns:sodipodi="http://sodipodi.sourceforge.net/DTD/sodipodi-0.dtd"
   xmlns="http://www.w3.org/2000/svg"
   xmlns:svg="http://www.w3.org/2000/svg"><sodipodi:namedview
     id="namedview1"
     pagecolor="#ffffff"
     bordercolor="#666666"
     borderopacity="1.0"
     inkscape:showpageshadow="2"
     inkscape:pageopacity="0.0"
     inkscape:pagecheckerboard="0"
     inkscape:deskcolor="#d1d1d1"
     inkscape:document-units="mm"
     inkscape:zoom="2.4316118"
     inkscape:cx="26.936866"
     inkscape:cy="41.74186"
     inkscape:window-width="1318"
     inkscape:window-height="719"
     inkscape:window-x="48"
     inkscape:window-y="27"
     inkscape:window-maximized="1"
     inkscape:current-layer="layer1"
     showguides="true"
     showgrid="false"><sodipodi:guide
       position="31.338526,6.3755642"
       orientation="1,0"
       id="guide1"
       inkscape:locked="false" /></sodipodi:namedview><defs
     id="defs1" /><g
     inkscape:label="Livello 1"
     inkscape:groupmode="layer"
     id="layer1"><g
       id="path7-6"
       transform="translate(0.01198945,-0.5007424)" /><g
       transform="matrix(0.06437797,0,0,0.06437797,-35.377428,1.3302645)"
       id="g3658"
       style="stroke:none"><g
         transform="rotate(90,1000.5253,480.59292)"
         id="g3634"
         style="stroke:none"><g
           transform="matrix(0.1910977,-0.3317217,0.1910977,0.3317217,536.57663,687.19304)"
           id="g3592"
           style="overflow:visible;stroke:none"><path
             id="path3594"
             style="fill:#734a08;fill-opacity:1;stroke:none;stroke-width:7"
             d="M 21.594995,16.506284 C 9.2775024,28.82396 1.6294838,45.80035 1.6294838,64.489053 l 0.00308,414.081057 c 0,37.37887 30.5850322,67.9639 67.9639022,67.9639 l 414.081064,0.003 c 37.3779,0 67.96038,-30.5815 67.96038,-67.96037 l -0.003,-414.081063 c 0,-37.377404 -30.58601,-67.9639003 -67.9639,-67.9639003 l -414.081148,-0.003 c -18.689434,0 -35.677374,7.659935 -47.994867,19.9776093 z M 236.23996,231.15124 a 57.115234,57.115234 45 0 1 40.39023,-16.74149 57.115234,57.115234 45 0 1 57.10564,57.10564 57.115234,57.115234 45 0 1 -57.11962,57.11963 57.115234,57.115234 45 0 1 -57.10564,-57.10564 57.115234,57.115234 45 0 1 16.72939,-40.37814 z" /></g><g
           transform="matrix(-0.3828283,3.653872e-4,0.1917306,-0.3313563,856.93036,867.37351)"
           id="g3606"
           style="overflow:visible;stroke:none"><path
             id="path3608"
             style="fill:#734a08;fill-opacity:1;stroke:none;stroke-width:7"
             d="M 545.27259,39.129158 C 533.72886,17.949114 511.23298,3.5012952 485.5357,3.5012952 l -414.068692,0.00368 c -37.378831,0 -67.9776662,30.5708818 -67.9776662,67.9482498 L 3.5101763,485.5518 c 0,37.37883 30.5795077,67.95279 67.9583407,67.95279 l 414.068693,-0.004 c 37.37785,0 67.96553,-30.59366 67.96553,-67.97249 l -0.009,-414.074337 c 0,-11.680427 -2.97431,-22.697642 -8.22145,-32.324935 z M 489.44275,88.46194 a 57.114746,57.114746 0 0 1 7.6406,28.56945 57.114746,57.114746 0 0 1 -57.11507,57.10752 57.114746,57.114746 0 0 1 -57.11949,-57.11236 57.114746,57.114746 0 0 1 57.13605,-57.107499 57.114746,57.114746 0 0 1 49.45791,28.542889 z M 166.49384,411.40986 a 57.115234,57.115234 22.5 0 1 7.64061,28.56946 57.115234,57.115234 22.5 0 1 -57.11507,57.10752 57.115234,57.115234 22.5 0 1 -57.098514,-57.11234 57.115234,57.115234 22.5 0 1 57.115074,-57.10752 57.115234,57.115234 22.5 0 1 49.4579,28.54288 z" /></g><g
           transform="matrix(0.1917306,0.3313563,-0.3828283,-3.653872e-4,852.73494,500.43371)"
           id="g3620"
           style="overflow:visible;stroke:none"><path
             id="path3622"
             style="fill:#734a08;fill-opacity:1;stroke:none;stroke-width:7"
             d="m 34.023593,538.28677 c 9.627302,5.24703 20.644085,8.24243 32.324958,8.24243 l 414.074309,-0.0123 c 37.37784,0 67.97252,-30.56576 67.97252,-67.94455 l 0.004,-414.08968 c 0,-37.377331 -30.5992,-67.9704799 -67.97704,-67.9704799 l -414.07431,0.012284 c -37.378796,0 -67.9482738,30.5793589 -67.9482738,67.9566869 l -0.00365,414.089679 c 0,25.69791 14.4477738,48.17241 35.6278398,59.71591 z m 49.332782,-55.82985 a 57.115234,57.115234 0 0 1 -28.54289,-49.4579 57.115234,57.115234 0 0 1 57.107525,-57.11507 57.115234,57.115234 0 0 1 57.11236,57.11949 57.115234,57.115234 0 0 1 -57.10752,57.11507 57.115234,57.115234 0 0 1 -28.569475,-7.66159 z M 244.83034,320.98247 a 57.115234,57.115234 0 0 1 -28.54289,-49.4579 57.115234,57.115234 0 0 1 57.10752,-57.11508 57.115234,57.115234 0 0 1 57.11236,57.1195 57.115234,57.115234 0 0 1 -57.10752,57.11507 57.115234,57.115234 0 0 1 -28.56947,-7.66159 z M 406.3043,159.50802 a 57.114746,57.114746 0 0 1 -28.54289,-49.4579 57.114746,57.114746 0 0 1 57.10752,-57.115081 57.114746,57.114746 0 0 1 57.11237,57.119491 57.114746,57.114746 0 0 1 -57.10753,57.11508 57.114746,57.114746 0 0 1 -28.56947,-7.66159 z" /></g></g></g></g></svg>
