<?xml version="1.0" encoding="UTF-8" standalone="no"?>
<!-- Created with Inkscape (http://www.inkscape.org/) -->

<svg
   width="32mm"
   height="32mm"
   viewBox="0 0 32 32"
   version="1.1"
   id="svg1"
   xml:space="preserve"
   inkscape:version="1.3.1 (9b9bdc1480, 2023-11-25, custom)"
   sodipodi:docname="amenity_bar.2.svg"
   xmlns:inkscape="http://www.inkscape.org/namespaces/inkscape"
   xmlns:sodipodi="http://sodipodi.sourceforge.net/DTD/sodipodi-0.dtd"
   xmlns="http://www.w3.org/2000/svg"
   xmlns:svg="http://www.w3.org/2000/svg"><sodipodi:namedview
     id="namedview1"
     pagecolor="#ffffff"
     bordercolor="#666666"
     borderopacity="1.0"
     inkscape:showpageshadow="2"
     inkscape:pageopacity="0.0"
     inkscape:pagecheckerboard="0"
     inkscape:deskcolor="#d1d1d1"
     inkscape:document-units="mm"
     inkscape:zoom="1.240186"
     inkscape:cx="-5.6443145"
     inkscape:cy="83.052056"
     inkscape:window-width="1293"
     inkscape:window-height="458"
     inkscape:window-x="58"
     inkscape:window-y="111"
     inkscape:window-maximized="0"
     inkscape:current-layer="layer1" /><defs
     id="defs1" /><g
     inkscape:label="Livello 1"
     inkscape:groupmode="layer"
     id="layer1"><path
       id="path1-6"
       style="fill:#734a08;fill-opacity:1;stroke:none;stroke-width:0.153747px;stroke-linecap:butt;stroke-linejoin:miter;stroke-opacity:1"
       d="m 23.39283,3.1692717 c -0.201194,0.00514 -1.012555,0.7807475 -1.897041,1.8215942 l -1.097608,1.2919109 h 0.778764 l 0.771012,-0.9074382 c 0.943452,-1.1102377 1.602181,-2.0897987 1.476913,-2.1962484 -0.0078,-0.0066 -0.01863,-0.010179 -0.03204,-0.00982 z M 21.176945,6.2827768 19.38584,8.3901417 A 1.788088,2.4549174 0 0 1 19.576526,9.4924 h 2.023649 l -4.930448,4.707206 h -1.33997 L 10.399825,9.4924 H 16 a 1.788088,2.4549174 0 0 1 1.788521,-2.4551473 1.788088,2.4549174 0 0 1 1.30638,0.7792806 l 1.30328,-1.5337565 H 5.1903239 L 15.329757,15.963839 v 9.624736 l -6.8605635,2.17351 0.438733,1.068669 H 22.9665 l 0.439249,-1.068669 -6.736022,-2.133719 v -9.66401 L 26.809676,6.2827768 Z M 16,9.4924 a 1.788088,2.4549174 0 0 0 0.385506,1.519287 c -0.796354,0.97192 -1.323774,1.779834 -1.210779,1.875854 0.109285,0.09287 0.778231,-0.510399 1.573548,-1.403015 a 1.788088,2.4549174 0 0 0 1.040246,0.462504 1.788088,2.4549174 0 0 0 1.788005,-2.45463 z m 1.853117,-2.1688599 a 0.55762398,0.86459708 65.850071 0 0 -0.527617,0.1100708 0.55762398,0.86459708 65.850071 0 0 -0.560689,0.8624797 0.55762398,0.86459708 65.850071 0 0 1.016992,0.155546 0.55762398,0.86459708 65.850071 0 0 0.56069,-0.8629964 0.55762398,0.86459708 65.850071 0 0 -0.489376,-0.2651001 z" /></g></svg>
