<?xml version="1.0" encoding="UTF-8" standalone="no"?>
<!-- Created with Inkscape (http://www.inkscape.org/) -->

<svg
   width="32mm"
   height="32mm"
   viewBox="0 0 32 32"
   version="1.1"
   id="svg1"
   xml:space="preserve"
   inkscape:version="1.3.1 (9b9bdc1480, 2023-11-25, custom)"
   sodipodi:docname="amenity_cafe.svg"
   xmlns:inkscape="http://www.inkscape.org/namespaces/inkscape"
   xmlns:sodipodi="http://sodipodi.sourceforge.net/DTD/sodipodi-0.dtd"
   xmlns="http://www.w3.org/2000/svg"
   xmlns:svg="http://www.w3.org/2000/svg"><sodipodi:namedview
     id="namedview1"
     pagecolor="#ffffff"
     bordercolor="#666666"
     borderopacity="1.0"
     inkscape:showpageshadow="2"
     inkscape:pageopacity="0.0"
     inkscape:pagecheckerboard="0"
     inkscape:deskcolor="#d1d1d1"
     inkscape:document-units="mm"
     inkscape:zoom="1.7194092"
     inkscape:cx="-0.29079756"
     inkscape:cy="84.040495"
     inkscape:window-width="1318"
     inkscape:window-height="719"
     inkscape:window-x="48"
     inkscape:window-y="27"
     inkscape:window-maximized="1"
     inkscape:current-layer="layer1"
     showguides="true"
     showgrid="false"><sodipodi:guide
       position="31.338526,6.3755642"
       orientation="1,0"
       id="guide1"
       inkscape:locked="false" /></sodipodi:namedview><defs
     id="defs1" /><g
     inkscape:label="Livello 1"
     inkscape:groupmode="layer"
     id="layer1"><path
       id="path10"
       style="fill:#734a08;fill-opacity:1;stroke-width:1.265;stroke-linecap:round;stroke-dashoffset:6.03213;paint-order:markers fill stroke"
       d="m 3.1830889,6.0832973 -0.07752,4.9314807 c 0.01886,8.248868 4.402453,14.916354 9.7973351,14.901934 2.594935,-0.0069 4.950238,-1.561395 6.6983,-4.088123 l 2.147156,-0.28422 0.01602,-0.0021 c 0,0 0.892861,-0.14076 1.800407,-0.605648 0.814046,-0.416995 2.12988,-1.176981 3.070613,-2.214852 0.862972,-0.95208 1.640583,-2.139535 2.001945,-3.48816 0.36182,-1.350327 0.3232,-2.842653 0,-4.048848 -0.304078,-1.134838 -0.802548,-2.1950166 -1.716691,-2.8964637 -0.962146,-0.73828 -1.796287,-0.791166 -2.506652,-0.791166 -0.679019,-0.030314 -1.268863,0.094073 -1.801095,0.4813955 L 22.572087,6.0832643 Z M 25.783778,9.7667934 c 0.532763,0.4088016 0.810067,0.9953326 1.052649,1.9006586 0.223461,0.833969 0.255114,2.131948 0,3.084049 -0.255572,0.953806 -0.86991,1.933282 -1.581816,2.718698 -0.634145,0.699625 -1.852432,1.453926 -2.54093,1.806608 -0.591403,0.302946 -1.780693,0.422292 -1.788634,0.423747 l -0.15658,0.01964 0.717382,-1.630392 c 0.752727,-2.118926 1.18029,-4.546652 1.18029,-7.127214 l -0.0072,-0.386539 c 0.152155,-0.880502 0.758816,-1.0102087 1.24126,-1.2007158 0.482445,-0.1905071 1.350816,-0.017342 1.883579,0.3914602 z"
       sodipodi:nodetypes="ccccccssssssccczssssccccczz" /></g></svg>
