<?xml version="1.0" encoding="UTF-8" standalone="no"?>
<!-- Created with Inkscape (http://www.inkscape.org/) -->

<svg
   width="32mm"
   height="32mm"
   viewBox="0 0 32 32"
   version="1.1"
   id="svg1"
   xml:space="preserve"
   inkscape:version="1.3.1 (9b9bdc1480, 2023-11-25, custom)"
   sodipodi:docname="amenity_toilets.svg"
   xmlns:inkscape="http://www.inkscape.org/namespaces/inkscape"
   xmlns:sodipodi="http://sodipodi.sourceforge.net/DTD/sodipodi-0.dtd"
   xmlns="http://www.w3.org/2000/svg"
   xmlns:svg="http://www.w3.org/2000/svg"><sodipodi:namedview
     id="namedview1"
     pagecolor="#ffffff"
     bordercolor="#666666"
     borderopacity="1.0"
     inkscape:showpageshadow="2"
     inkscape:pageopacity="0.0"
     inkscape:pagecheckerboard="0"
     inkscape:deskcolor="#d1d1d1"
     inkscape:document-units="mm"
     showguides="true"
     inkscape:zoom="2"
     inkscape:cx="-1.5"
     inkscape:cy="58.25"
     inkscape:window-width="1318"
     inkscape:window-height="719"
     inkscape:window-x="48"
     inkscape:window-y="27"
     inkscape:window-maximized="1"
     inkscape:current-layer="layer1"
     showgrid="false"><sodipodi:guide
       position="21.324843,29.746031"
       orientation="0,-1"
       id="guide8"
       inkscape:locked="false" /><sodipodi:guide
       position="18.475006,31.999999"
       orientation="0,-1"
       id="guide9"
       inkscape:locked="false" /></sodipodi:namedview><defs
     id="defs1"><inkscape:perspective
       sodipodi:type="inkscape:persp3d"
       inkscape:vp_x="-183.11487 : 148.50001 : 1"
       inkscape:vp_y="0 : 1000 : 0"
       inkscape:vp_z="-195.51426 : 148.50001 : 1"
       inkscape:persp3d-origin="-189.31457 : 99.000003 : 1"
       id="perspective10172" /><symbol
       id="Recycling"><title
         id="title7498">Recycling</title><g
         style="stroke:none"
         id="g7512"><path
           style="stroke-width:0.26458332"
           inkscape:connector-curvature="0"
           d="m 14.684375,3.9026042 -1.389063,0.79375 -0.926041,-1.5875 C 12.236979,2.8773437 11.972396,2.7119792 11.608594,2.7119792 H 8.8304687 C 9.0289062,2.9104167 9.0619792,2.9765625 9.1611979,3.1419271 L 10.88099,6.1184896 9.4919271,6.9122396 H 12.93151 Z"
           id="path7500" /><path
           style="stroke-width:0.26458332"
           inkscape:connector-curvature="0"
           d="m 14.254427,12.038542 h 1.389063 c 0.826822,0 1.322916,-0.892969 0.926041,-1.5875 l -1.752864,-3.069167 -2.38125,1.3890625 z"
           id="path7502" /><path
           style="stroke-width:0.26458332"
           inkscape:connector-curvature="0"
           d="m 12.170833,17.065625 v -1.5875 h 1.852084 c 0.264583,0 0.529166,-0.132292 0.727604,-0.463021 l 1.389062,-2.38125 C 15.875,12.7 15.775781,12.7 15.610417,12.7 h -3.439584 v -1.5875 l -1.719791,2.976562 z"
           id="path7504" /><path
           style="stroke-width:0.26458332"
           inkscape:connector-curvature="0"
           d="m 5.3578125,12.7 -0.6945313,1.190625 c -0.396875,0.727604 0.099219,1.5875 0.8929688,1.5875 H 9.0619792 V 12.7 Z"
           id="path7506" /><path
           style="stroke-width:0.26458332"
           inkscape:connector-curvature="0"
           d="m 2.0505208,8.4005208 1.3890625,0.79375 -0.9260416,1.5875002 C 2.38125,11.013281 2.38125,11.310937 2.5466146,11.641667 l 1.3559896,2.38125 c 0.066146,-0.264584 0.099219,-0.33073 0.1984375,-0.496094 L 5.8208333,10.55026 7.2098958,11.34401 5.4901042,8.3674479 Z"
           id="path7508" /><path
           style="stroke-width:0.26458332"
           inkscape:connector-curvature="0"
           d="M 9.2604167,4.6302083 8.5989583,3.4395833 c -0.4299479,-0.6945312 -1.4221354,-0.6945312 -1.8190104,0 l -1.7528646,3.0427084 2.38125,1.3890625 z"
           id="path7510" /></g></symbol><inkscape:perspective
       id="perspective8310"
       inkscape:persp3d-origin="372.04724 : 350.7874 : 1"
       inkscape:vp_z="744.09447 : 526.18111 : 1"
       inkscape:vp_y="0 : 1000 : 0"
       inkscape:vp_x="0 : 526.18111 : 1"
       sodipodi:type="inkscape:persp3d" /><inkscape:perspective
       id="perspective5302"
       inkscape:persp3d-origin="372.04724 : 350.7874 : 1"
       inkscape:vp_z="744.09447 : 526.18111 : 1"
       inkscape:vp_y="0 : 1000 : 0"
       inkscape:vp_x="0 : 526.18111 : 1"
       sodipodi:type="inkscape:persp3d" /><symbol
       id="ToiletsMen"><title
         id="title4892">Toilets - Men</title><g
         style="stroke:none"
         id="g4898"><circle
           cx="36"
           cy="9"
           r="5"
           id="circle4894" /><path
           d="m 24,22 v 15.5 a 2.25,2.25 0 0 0 4.5,0 V 23 h 1 v 39.5 a 3,3 0 0 0 6,0 V 40 h 1 v 22.5 a 3,3 0 0 0 6,0 V 23 h 1 v 14.5 a 2.25,2.25 0 0 0 4.5,0 V 22 A 7,7 0 0 0 41,15 H 31 a 7,7 0 0 0 -7,7 z"
           id="path4896"
           inkscape:connector-curvature="0" /></g></symbol><inkscape:perspective
       sodipodi:type="inkscape:persp3d"
       inkscape:vp_x="0 : 100 : 1"
       inkscape:vp_y="0 : 1000 : 0"
       inkscape:vp_z="200 : 100 : 1"
       inkscape:persp3d-origin="100 : 66.666667 : 1"
       id="perspective2879" /></defs><g
     inkscape:label="Livello 1"
     inkscape:groupmode="layer"
     id="layer1"><g
       id="path19" /><g
       id="rect22-0"
       transform="matrix(-1,0,0,1,30.661761,0.23016813)" /><g
       id="rect22-7"
       transform="matrix(-1,0,0,1,30.845845,-1.8811487e-4)" /><g
       id="path26" /><g
       id="path52"
       transform="translate(-38.081357,-6.611757)" /><g
       id="path52-1"
       transform="matrix(-1,0,0,1,21.996584,0)" /><g
       id="g36"
       transform="translate(-0.33970422,0.32331575)"><path
         style="fill:none;stroke:#734a08;stroke-width:0.965;stroke-linecap:round;stroke-linejoin:miter;stroke-dasharray:none;stroke-opacity:1"
         d="M 17.021737,1.7988085 V 29.55456"
         id="path30"
         sodipodi:nodetypes="cc" /><g
         id="g35"><path
           style="fill:#734a08;fill-opacity:1;stroke:none;stroke-width:1.82362;stroke-linecap:round;stroke-linejoin:round;stroke-dasharray:none;stroke-dashoffset:0;stroke-opacity:1;paint-order:markers fill stroke"
           d="M 88.25,112.64609 C 85.980511,111.34454 86.032607,112.16118 86.015901,77.625 L 86,44.75 H 84.75 83.5 V 57.214285 C 83.5,71.064077 83.456949,71.25 80.25,71.25 78.404995,71.25 77.155326,70.29296 76.716309,68.543776 76.559453,67.918813 76.502866,60.790797 76.590558,52.70374 76.765685,36.553537 76.818744,36.253577 79.969339,33.602526 82.732388,31.277574 84.442146,31 96,31 c 9.18739,0 11.09184,0.131907 13.1017,0.907456 2.77393,1.070382 5.13617,3.567736 5.86824,6.203877 0.7881,2.837948 0.69025,30.041094 -0.11381,31.638667 -0.80791,1.605221 -3.95688,2.016301 -5.40518,0.705613 C 108.56482,69.653676 108.5,68.745847 108.5,57.13773 V 44.680449 L 107.375,44.840224 106.25,45 105.99107,78.25 c -0.14241,18.2875 -0.31116,33.30047 -0.375,33.36216 -0.0638,0.0617 -0.7799,0.45544 -1.59124,0.875 -2.24027,1.15848 -3.91665,0.94795 -5.563292,-0.6987 L 97,110.32692 V 90.7518 C 97,72.37807 96.946298,71.187 96.125,71.344906 95.314461,71.500743 95.231582,72.961653 95,91.1753 l -0.25,19.66216 -1.402882,1.20627 c -1.504929,1.29401 -3.483407,1.52782 -5.097118,0.60236 z"
           id="path32"
           transform="scale(0.26458333)" /><path
           style="fill:#734a08;fill-opacity:1;stroke:none;stroke-width:1.82362;stroke-linecap:round;stroke-linejoin:round;stroke-dasharray:none;stroke-dashoffset:0;stroke-opacity:1;paint-order:markers fill stroke"
           d="M 94.131817,28.762061 C 89.938945,27.769739 87.239508,23.897967 87.611662,19.410279 88.211356,12.17875 96.421154,8.8824375 102.04545,13.614974 104.00264,15.261836 105,17.541019 105,20.366741 c 0,5.420409 -5.49685,9.666548 -10.868183,8.39532 z"
           id="path33"
           transform="scale(0.26458333)" /></g><g
         id="g34"><path
           style="fill:#734a08;fill-opacity:1;stroke:none;stroke-width:1.82362;stroke-linecap:round;stroke-linejoin:round;stroke-dasharray:none;stroke-dashoffset:0;stroke-opacity:1;paint-order:markers fill stroke"
           d="M 22.720565,112.54085 C 21.804593,111.87159 21.735938,110.93698 21.5,95.92531 l -0.25,-15.906393 -4.458825,-0.13495 c -2.452353,-0.07422 -4.54205,-0.218175 -4.64377,-0.319895 -0.149617,-0.149617 8.187157,-34.22603 9.169451,-37.479964 0.21916,-0.725986 0.04254,-0.881495 -0.851808,-0.75 -1.028547,0.151226 -1.385083,1.160172 -4.032892,11.412524 C 13.501766,64.093137 12.987277,65.25 10.871564,65.25 9.0475247,65.25 8,64.285141 8,62.605046 8,60.690915 14.167215,37.843874 15.248151,35.753575 16.230086,33.854722 18.751865,31.98427 21.25,31.301889 c 1.1,-0.300472 5.052912,-0.547567 8.784249,-0.549101 8.339532,-0.0034 11.121276,0.691279 13.555086,3.385216 1.536021,1.70019 2.051504,3.180321 5.328501,15.29995 3.417328,12.638632 3.582425,13.487175 2.84354,14.614856 C 50.88764,65.386299 48.733804,65.6675 47.378744,64.625 46.873481,64.236281 45.491761,59.841448 43.723884,53 42.160523,46.95 40.706992,41.810149 40.493815,41.57811 c -0.213178,-0.23204 -0.724993,-0.34454 -1.137368,-0.25 -0.614739,0.140933 0.09361,3.50372 3.93309,18.67189 2.575575,10.175 4.68912,18.8375 4.696768,19.25 0.01138,0.613616 -0.827149,0.75 -4.6112,0.75 H 38.75 l -0.06912,2.5 c -0.03801,1.375 -0.09427,8.40625 -0.125,15.625 -0.05287,12.41807 -0.109744,13.17886 -1.055882,14.125 -1.233373,1.23337 -3.5377,1.29163 -4.94388,0.125 -1.026871,-0.85195 -1.057976,-1.29003 -1.180392,-16.625 L 31.25,80 30.125,79.840224 29,79.680449 v 15.557501 15.5575 l -1.227273,1.22727 c -1.385589,1.38559 -3.559757,1.60856 -5.052162,0.51813 z"
           id="path31"
           transform="scale(0.26458333)" /><path
           style="fill:#734a08;fill-opacity:1;stroke:none;stroke-width:1.82362;stroke-linecap:round;stroke-linejoin:round;stroke-dasharray:none;stroke-dashoffset:0;stroke-opacity:1;paint-order:markers fill stroke"
           d="m 28.25,28.765852 c -2.176117,-0.49645 -3.473074,-1.292388 -4.932919,-3.027316 -3.674844,-4.367304 -2.234132,-10.98721 2.935864,-13.489962 2.648795,-1.282259 4.882854,-1.264087 7.622184,0.062 2.57998,1.248947 4.445635,3.832224 4.915594,6.806371 0.270286,1.710511 0.08469,2.627559 -0.966699,4.776517 -1.842374,3.765679 -5.737042,5.747744 -9.574024,4.87239 z"
           id="path34"
           transform="scale(0.26458333)" /></g></g></g></svg>
