<?xml version="1.0" encoding="UTF-8" standalone="no"?>
<!-- Created with Inkscape (http://www.inkscape.org/) -->

<svg
   width="32mm"
   height="32mm"
   viewBox="0 0 32 32"
   version="1.1"
   id="svg1"
   xml:space="preserve"
   inkscape:version="1.3.1 (9b9bdc1480, 2023-11-25, custom)"
   sodipodi:docname="amenity_doctors.16.2.svg"
   xmlns:inkscape="http://www.inkscape.org/namespaces/inkscape"
   xmlns:sodipodi="http://sodipodi.sourceforge.net/DTD/sodipodi-0.dtd"
   xmlns="http://www.w3.org/2000/svg"
   xmlns:svg="http://www.w3.org/2000/svg"><sodipodi:namedview
     id="namedview1"
     pagecolor="#ffffff"
     bordercolor="#666666"
     borderopacity="1.0"
     inkscape:showpageshadow="2"
     inkscape:pageopacity="0.0"
     inkscape:pagecheckerboard="0"
     inkscape:deskcolor="#d1d1d1"
     inkscape:document-units="mm"
     showguides="true"
     inkscape:zoom="2"
     inkscape:cx="-50"
     inkscape:cy="77.75"
     inkscape:window-width="1318"
     inkscape:window-height="719"
     inkscape:window-x="48"
     inkscape:window-y="27"
     inkscape:window-maximized="1"
     inkscape:current-layer="layer1"><sodipodi:guide
       position="16.225336,-14.837615"
       orientation="1,0"
       id="guide4"
       inkscape:locked="false" /></sodipodi:namedview><defs
     id="defs1" /><g
     inkscape:label="Livello 1"
     inkscape:groupmode="layer"
     id="layer1"><g
       id="path19" /><g
       id="rect22-0"
       transform="matrix(-1,0,0,1,30.661761,0.23016813)" /><g
       id="rect22-7"
       transform="matrix(-1,0,0,1,30.845845,-1.8811487e-4)" /><g
       id="path26" /><path
       id="rect49"
       style="fill:#da0092;fill-opacity:1;stroke:none;stroke-width:0.665001;stroke-linecap:round;stroke-linejoin:round;stroke-dasharray:none;stroke-dashoffset:6.03213;stroke-opacity:1;paint-order:markers fill stroke"
       d="M 15.903422 4.6224569 C 11.837534 4.6224569 8.4954458 7.8612399 8.32559 11.88713 C 4.8474635 12.153886 2.1585246 14.187347 2.1585246 16.674434 L 2.1585246 27.377657 L 9.1028035 27.377657 L 22.89731 27.377657 L 29.841073 27.377657 L 29.841073 16.674434 C 29.841073 14.141475 27.051988 12.080539 23.480737 11.875761 C 23.305095 7.8551251 19.965496 4.6224569 15.903422 4.6224569 z M 15.903422 7.2450358 C 18.541319 7.2450358 20.67363 9.265982 20.852474 11.855607 L 10.95437 11.855607 C 11.133221 9.265989 13.26553 7.2450359 15.903422 7.2450358 z M 16.002124 13.459644 C 16.323943 13.459639 16.584975 13.720735 16.585034 14.042554 C 16.58453 14.199827 16.520311 14.349721 16.407267 14.459066 C 16.483548 14.48918 16.533853 14.563091 16.533875 14.645101 C 16.533895 14.755479 16.444264 14.844591 16.333887 14.844572 C 16.310167 14.844032 16.287207 14.839936 16.265157 14.831136 L 16.241386 16.391248 C 16.228166 17.259599 16.20602 18.202095 16.19281 18.485693 C 16.1761 18.844331 16.170589 19.013826 16.170589 19.013826 L 15.837793 19.112012 C 15.837793 19.112012 15.784427 18.072616 15.768547 16.915763 L 15.739608 14.83217 C 15.717458 14.84036 15.693981 14.844557 15.670361 14.844572 C 15.559984 14.844591 15.470355 14.755479 15.470374 14.645101 C 15.470617 14.563103 15.521148 14.489502 15.597498 14.459583 C 15.484198 14.350232 15.420284 14.200018 15.419731 14.042554 C 15.41979 13.720735 15.680305 13.45964 16.002124 13.459644 z M 14.382585 14.083378 C 14.5569 14.084048 14.704936 14.092579 14.759306 14.107149 C 14.868052 14.136286 15.013904 14.21602 15.104504 14.30662 C 15.195109 14.397224 15.233695 14.655378 15.233695 14.788761 C 15.233695 14.922146 15.240369 15.042449 15.324129 15.126208 C 15.407892 15.209968 15.556673 15.188737 15.556673 15.188737 C 15.549873 15.192828 15.55874 16.450159 15.55874 16.450159 C 15.55874 16.450159 14.98302 16.752883 14.532446 16.740063 C 14.188643 16.730282 14.169442 16.666584 14.122652 16.634644 L 14.123686 16.634644 L 14.53193 16.492017 C 14.53193 16.492017 14.527113 16.491937 14.06064 16.616557 C 13.931874 16.611728 13.984273 16.656642 13.77487 16.749882 C 13.565467 16.843128 13.446006 16.755828 13.294796 16.691488 C 13.174051 16.640111 13.090474 16.51199 13.020394 16.45791 L 13.024528 16.459977 C 13.024528 16.459977 13.20455 16.418636 13.33717 16.385046 C 13.469791 16.351456 13.949536 16.20883 13.949536 16.20883 C 13.949536 16.20883 13.328217 16.367929 12.969234 16.432589 C 12.888317 16.424709 12.668853 16.490467 12.519132 16.496667 C 12.369413 16.502847 12.217978 16.459869 12.162048 16.416569 C 12.121089 16.384862 12.00932 16.305691 11.926404 16.265157 L 13.467912 15.913757 C 13.467912 15.913757 12.333808 16.171092 11.851473 16.240352 C 11.786141 16.240262 11.643258 16.292887 11.545549 16.281177 C 11.447836 16.269467 11.498477 16.275046 11.27373 16.209347 C 11.048985 16.143652 11.06381 16.083555 10.934733 15.987655 C 10.934733 15.987655 11.067361 15.961857 11.30422 15.945797 C 11.541079 15.929735 12.951147 15.602665 12.951147 15.602665 C 12.951147 15.602665 12.140593 15.783321 11.538314 15.878101 C 10.970751 15.96741 10.806772 15.911772 10.789522 15.904972 L 10.791073 15.906006 C 10.746593 15.890046 10.709689 15.885634 10.667049 15.876034 C 10.587196 15.857967 10.453636 15.807913 10.368876 15.730823 C 10.284121 15.653734 10.223425 15.539723 10.188525 15.41818 C 10.178825 15.38442 10.171621 15.36208 10.163721 15.3448 L 10.164237 15.3448 C 10.164237 15.3448 10.330225 15.361579 10.699089 15.391309 C 10.990507 15.414801 12.22963 15.200764 12.585278 15.118974 C 11.575333 15.264826 10.921292 15.37908 10.476363 15.3448 C 10.257243 15.32791 10.103946 15.27939 10.103259 15.279171 C 10.086719 15.267481 10.065777 15.253132 10.038147 15.232662 C 9.9269036 15.150251 9.8035753 14.981718 9.7611613 14.893148 C 9.7187456 14.804574 9.7801798 14.728699 9.8479777 14.725199 C 9.9157777 14.721729 10.115132 14.768588 10.44484 14.790828 C 10.77455 14.813066 11.439535 14.822365 12.26075 14.538647 C 13.081966 14.254931 13.531008 14.141729 13.848767 14.107149 C 14.007647 14.089819 14.208269 14.082686 14.382585 14.083378 z M 17.617529 14.083378 C 17.791846 14.082708 17.992468 14.090376 18.151347 14.107666 C 18.469107 14.142246 18.918148 14.254931 19.739364 14.538647 C 20.560579 14.822366 21.225564 14.813068 21.555273 14.790828 C 21.884983 14.768588 22.084336 14.721699 22.152136 14.725199 C 22.219936 14.728666 22.281373 14.804578 22.238953 14.893148 C 22.196539 14.981719 22.073211 15.150252 21.961967 15.232662 C 21.934337 15.253122 21.913395 15.267481 21.896855 15.279171 L 21.896338 15.279171 C 21.895649 15.279391 21.74287 15.32792 21.523751 15.3448 C 21.078822 15.379081 20.42478 15.264825 19.414836 15.118974 C 19.770483 15.200768 21.009094 15.414799 21.300509 15.391309 C 21.669371 15.361579 21.835876 15.345317 21.835876 15.345317 C 21.828042 15.362546 21.821207 15.384706 21.811589 15.41818 C 21.776685 15.539723 21.715988 15.653733 21.631238 15.730823 C 21.546481 15.807911 21.412915 15.85848 21.333065 15.87655 C 21.290425 15.8862 21.253521 15.890036 21.209041 15.906006 L 21.210075 15.904972 C 21.192826 15.911752 21.028845 15.96742 20.461283 15.878101 C 19.859003 15.783321 19.04845 15.602665 19.04845 15.602665 C 19.04845 15.602665 20.458518 15.929737 20.695378 15.945797 C 20.932236 15.961867 21.065381 15.987655 21.065381 15.987655 C 20.936305 16.083557 20.950613 16.143647 20.725867 16.209347 C 20.501123 16.275046 20.552275 16.269467 20.454565 16.281177 C 20.356853 16.292877 20.213971 16.240264 20.148641 16.240352 C 19.666305 16.171096 18.532202 15.913757 18.532202 15.913757 L 20.07371 16.265157 C 19.990797 16.305687 19.879025 16.385379 19.838066 16.417086 C 19.782136 16.460386 19.6307 16.502867 19.480981 16.496667 C 19.331261 16.490487 19.1118 16.424689 19.03088 16.432589 C 18.671897 16.367924 18.050578 16.20883 18.050578 16.20883 C 18.050578 16.20883 18.530323 16.351456 18.662944 16.385046 C 18.795564 16.418636 18.975586 16.459977 18.975586 16.459977 L 18.97972 16.45791 C 18.909637 16.511988 18.826063 16.640108 18.705318 16.691488 C 18.554107 16.755838 18.43413 16.843122 18.224727 16.749882 C 18.015322 16.656637 18.06824 16.611757 17.939473 16.616557 C 17.473002 16.491937 17.468184 16.492017 17.468184 16.492017 L 17.876428 16.634644 L 17.877462 16.634644 C 17.830673 16.666585 17.811474 16.730263 17.467668 16.740063 C 17.017094 16.752882 16.440857 16.450159 16.440857 16.450159 C 16.440857 16.450159 16.450241 15.192837 16.443441 15.188737 C 16.443441 15.188737 16.592225 15.210485 16.675985 15.126725 C 16.759715 15.042963 16.765902 14.922146 16.765902 14.788761 C 16.765902 14.655378 16.804493 14.39723 16.895093 14.30662 C 16.985698 14.216016 17.132062 14.136289 17.240808 14.107149 C 17.295181 14.092619 17.443213 14.084069 17.617529 14.083378 z M 14.608927 17.230473 C 14.89958 17.234945 15.228471 17.332736 15.38149 17.485754 C 15.529209 17.633475 15.504957 17.693645 15.29519 17.698145 L 15.138611 17.701245 L 15.257467 17.744653 C 15.561568 17.855548 15.11799 18.029274 14.523661 18.031974 C 14.15203 18.03368 14.111376 18.041732 14.004313 18.141012 C 13.700124 18.423071 13.946713 18.588706 15.180986 18.930627 C 15.437411 19.001663 15.670246 19.114981 15.679146 19.123381 C 15.688047 19.131756 15.533029 19.157079 15.354102 19.238619 C 15.175174 19.32016 14.974824 19.42574 14.908134 19.47323 C 14.765602 19.57477 14.744607 19.575024 14.439429 19.477364 C 13.617634 19.214341 13.200745 18.844376 13.200745 18.378723 C 13.200745 18.155833 13.275692 17.976969 13.428638 17.836637 C 13.580454 17.69734 14.101568 17.350497 14.256494 17.285767 C 14.352527 17.245647 14.476813 17.228473 14.608927 17.230473 z M 17.383435 17.23564 C 17.496115 17.23331 17.601336 17.244134 17.685225 17.271814 C 17.903002 17.343687 18.572329 17.801088 18.678963 17.950842 C 18.803803 18.126159 18.831405 18.418759 18.744076 18.647441 C 18.566746 19.111773 17.969548 19.413217 16.685803 19.686654 C 15.30304 19.981183 14.863175 20.214043 14.863175 20.651969 C 14.863175 20.998143 15.057307 21.259765 15.455387 21.44882 C 15.595811 21.515508 15.710669 21.580601 15.710669 21.594031 C 15.710669 21.613724 15.267609 21.849162 15.233179 21.847762 C 15.227866 21.84754 15.126073 21.791612 15.006836 21.723222 C 14.221691 21.272896 14.086542 20.376897 14.719515 19.818429 C 15.087082 19.494127 15.617378 19.274856 17.045988 18.857764 C 17.418973 18.748869 17.794956 18.623834 17.881596 18.579744 C 18.071137 18.483288 18.147312 18.362889 18.088302 18.252633 C 17.998072 18.084036 17.910579 18.055207 17.410824 18.029907 C 17.058369 18.012062 16.873641 17.983221 16.759701 17.927071 C 16.570153 17.833666 16.562523 17.80016 16.717326 17.74362 L 16.834115 17.701245 L 16.698722 17.697628 C 16.539426 17.693708 16.495905 17.642661 16.556095 17.530196 C 16.641824 17.37001 17.045395 17.24264 17.383435 17.23564 z M 14.926737 17.397904 C 14.853998 17.397904 14.806998 17.468409 14.841988 17.525028 C 14.873879 17.576678 14.908552 17.577653 14.985132 17.529163 C 15.052579 17.486443 15.013197 17.397904 14.926737 17.397904 z M 17.09353 17.414958 C 17.02236 17.406579 16.965536 17.463151 17.001546 17.521411 C 17.039995 17.583621 17.089261 17.579529 17.147791 17.509009 C 17.18558 17.463479 17.180783 17.444099 17.125053 17.422709 C 17.114543 17.418709 17.1037 17.416158 17.09353 17.414958 z M 17.197917 19.737297 L 17.321423 19.841166 C 17.389202 19.898198 17.495925 20.050451 17.559135 20.179647 C 17.793772 20.659227 17.659043 21.213674 17.224272 21.55734 C 16.966083 21.761428 16.755198 21.870556 16.219682 22.076689 C 15.724712 22.267212 15.600681 22.333022 15.425415 22.497852 C 15.114888 22.78989 15.202962 23.154097 15.669328 23.506576 L 15.817122 23.618713 L 15.710669 23.706563 C 15.571996 23.822169 15.551032 23.820564 15.315861 23.671423 C 15.087301 23.526474 14.882431 23.23173 14.841471 22.989294 C 14.746774 22.428785 15.096347 22.037361 16.007808 21.682397 C 16.697028 21.413984 16.932151 21.258385 17.065108 20.983732 C 17.112908 20.884998 17.151925 20.751873 17.151925 20.688143 C 17.151925 20.437294 16.919393 20.173115 16.559196 20.014799 C 16.45412 19.968619 16.387058 19.924197 16.410368 19.916097 C 16.433681 19.907957 16.62039 19.864462 16.82533 19.819462 L 17.197917 19.737297 z M 16.177307 19.93005 L 16.177307 20.677291 C 16.177307 21.368052 16.155603 21.503597 16.155603 21.503597 L 15.867765 21.614701 C 15.867765 21.614701 15.846448 21.54389 15.829008 20.820435 C 15.818718 20.395 15.83831 20.013765 15.83831 20.013765 L 16.177307 19.93005 z M 16.719393 22.078756 C 16.750173 22.080616 16.777174 22.091755 16.811894 22.110795 C 16.869492 22.142378 16.970179 22.255212 17.036169 22.361943 C 17.132549 22.517828 17.156641 22.606668 17.157609 22.812044 C 17.159961 23.303711 16.955377 23.543782 16.202112 23.93394 C 15.61925 24.235835 15.350656 24.467507 15.305526 24.708053 C 15.263954 24.92965 15.30665 25.172626 15.413013 25.321969 C 15.520241 25.47256 15.469913 25.494817 15.338599 25.355042 C 15.119376 25.121695 15.061575 24.751929 15.197005 24.453805 C 15.286562 24.256658 15.620247 23.94203 15.936495 23.756689 C 16.527081 23.410568 16.738831 23.184109 16.745231 22.891109 C 16.750009 22.670604 16.654524 22.51598 16.415019 22.358325 L 16.256372 22.254456 L 16.481681 22.153687 C 16.606126 22.098087 16.668083 22.075656 16.719393 22.078756 z M 16.135966 22.215698 C 16.135966 22.215698 16.134932 22.422448 16.134932 22.884391 C 16.134932 23.468945 16.118396 23.533447 16.118396 23.533447 L 15.896704 23.643518 C 15.896704 23.643518 15.880684 23.334692 15.880684 22.975859 C 15.880684 22.420031 15.877067 22.316984 15.877067 22.316984 L 16.135966 22.215698 z M 16.411401 24.017655 C 16.458433 24.021036 16.506385 24.06174 16.588135 24.14788 C 16.936692 24.515178 16.96317 25.022685 16.65273 25.376746 C 16.55583 25.487266 16.496169 25.466328 16.573149 25.34884 C 16.609917 25.292725 16.661294 25.162414 16.687354 25.058936 C 16.760496 24.768459 16.688153 24.566009 16.424837 24.329264 C 16.218578 24.143823 16.211138 24.131176 16.287378 24.073466 C 16.33845 24.034806 16.374821 24.015055 16.411401 24.017655 z M 16.097209 24.115324 L 16.008842 26.168945 C 16.008842 26.168945 15.910543 24.941703 15.927193 24.204724 L 16.097209 24.115324 z " /></g></svg>
