<?xml version="1.0" encoding="UTF-8" standalone="no"?>
<!-- Created with Inkscape (http://www.inkscape.org/) -->

<svg
   width="32mm"
   height="32mm"
   viewBox="0 0 32 32"
   version="1.1"
   id="svg1"
   xml:space="preserve"
   inkscape:version="1.3.1 (9b9bdc1480, 2023-11-25, custom)"
   sodipodi:docname="amenity_bar.2.svg"
   xmlns:inkscape="http://www.inkscape.org/namespaces/inkscape"
   xmlns:sodipodi="http://sodipodi.sourceforge.net/DTD/sodipodi-0.dtd"
   xmlns="http://www.w3.org/2000/svg"
   xmlns:svg="http://www.w3.org/2000/svg"><sodipodi:namedview
     id="namedview1"
     pagecolor="#ffffff"
     bordercolor="#666666"
     borderopacity="1.0"
     inkscape:showpageshadow="2"
     inkscape:pageopacity="0.0"
     inkscape:pagecheckerboard="0"
     inkscape:deskcolor="#d1d1d1"
     inkscape:document-units="mm"
     inkscape:zoom="2.5045944"
     inkscape:cx="50.507179"
     inkscape:cy="44.518186"
     inkscape:window-width="1318"
     inkscape:window-height="719"
     inkscape:window-x="48"
     inkscape:window-y="27"
     inkscape:window-maximized="1"
     inkscape:current-layer="layer1" /><defs
     id="defs1" /><g
     inkscape:label="Livello 1"
     inkscape:groupmode="layer"
     id="layer1"><path
       id="path1-6"
       style="fill:#734a08;fill-opacity:1;stroke:none;stroke-width:0.153747px;stroke-linecap:butt;stroke-linejoin:miter;stroke-opacity:1"
       d="m 22.270418,3.256361 c -0.199292,0.00678 -0.99625,0.7947597 -1.897558,1.8210775 l -0.981853,1.118278 H 5.190324 l 10.139433,9.6810625 v 9.624736 l -8.2496259,2.613794 0.2955892,0.628385 H 15.9137 16 24.53798 l 0.295589,-0.628385 -8.163842,-2.586406 V 15.877296 L 26.809676,6.1957165 h -6.609932 l 0.625284,-0.7343222 c 0.943455,-1.1102392 1.602182,-2.089798 1.476913,-2.1962483 -0.0078,-0.00665 -0.01824,-0.00924 -0.03152,-0.00879 z m -3.194372,3.3612022 0.731734,0.011518 -1.552104,1.8502168 c 0.125289,0.3419824 0.190589,0.7194526 0.190686,1.1022583 -1.15e-4,1.3556564 -0.800585,2.4545664 -1.788004,2.4546304 -0.373418,-0.0013 -0.73718,-0.162989 -1.040247,-0.462504 -0.795317,0.892617 -1.464262,1.495885 -1.573547,1.403015 -0.112996,-0.09602 0.414423,-0.903934 1.210779,-1.875854 -0.249155,-0.432601 -0.384953,-0.967784 -0.385507,-1.5192874 -9.3e-5,-1.356136 0.800753,-2.4554765 1.788522,-2.4551473 0.495277,1.528e-4 0.968322,0.2823334 1.30638,0.7792806 z m -2.353093,0.7951332 c -0.168389,-0.00649 -0.353857,0.032202 -0.527616,0.1100708 -0.43564,0.195373 -0.686653,0.5814936 -0.560689,0.8624797 0.125731,0.2812282 0.58112,0.3508786 1.016992,0.155546 0.436007,-0.1954548 0.687119,-0.581959 0.560689,-0.8629964 -0.07096,-0.1580418 -0.2518,-0.2560039 -0.489376,-0.2651001 z"
       sodipodi:nodetypes="ccccccccccccccccccccccccccsccccccccccc" /></g></svg>
