<?xml version="1.0" encoding="UTF-8" standalone="no"?>
<!-- Created with Inkscape (http://www.inkscape.org/) -->

<svg
   width="32mm"
   height="32mm"
   viewBox="0 0 32 32"
   version="1.1"
   id="svg1"
   xml:space="preserve"
   inkscape:version="1.3.1 (9b9bdc1480, 2023-11-25, custom)"
   sodipodi:docname="amenity_fast_food.svg"
   xmlns:inkscape="http://www.inkscape.org/namespaces/inkscape"
   xmlns:sodipodi="http://sodipodi.sourceforge.net/DTD/sodipodi-0.dtd"
   xmlns="http://www.w3.org/2000/svg"
   xmlns:svg="http://www.w3.org/2000/svg"><sodipodi:namedview
     id="namedview1"
     pagecolor="#ffffff"
     bordercolor="#666666"
     borderopacity="1.0"
     inkscape:showpageshadow="2"
     inkscape:pageopacity="0.0"
     inkscape:pagecheckerboard="0"
     inkscape:deskcolor="#d1d1d1"
     inkscape:document-units="mm"
     showguides="true"
     inkscape:zoom="2.8284272"
     inkscape:cx="87.327685"
     inkscape:cy="100.23238"
     inkscape:window-width="1318"
     inkscape:window-height="719"
     inkscape:window-x="48"
     inkscape:window-y="27"
     inkscape:window-maximized="1"
     inkscape:current-layer="layer1"><sodipodi:guide
       position="16.225336,-14.837615"
       orientation="1,0"
       id="guide4"
       inkscape:locked="false" /></sodipodi:namedview><defs
     id="defs1" /><g
     inkscape:label="Livello 1"
     inkscape:groupmode="layer"
     id="layer1"><g
       id="path19" /><g
       id="rect22-0"
       transform="matrix(-1,0,0,1,30.661761,0.23016813)" /><g
       id="rect22-7"
       transform="matrix(-1,0,0,1,30.845845,-1.8811487e-4)" /><g
       id="path26" /><g
       id="path52-1"
       transform="matrix(-1,0,0,1,21.996584,0)" /><path
       id="path60"
       style="fill:#734a08;fill-opacity:1;stroke:none;stroke-width:0.264583px;stroke-linecap:butt;stroke-linejoin:miter;stroke-opacity:1"
       d="M 28.117147 3.1248739 A 0.63249999 0.63249999 0 0 0 27.396261 3.6540405 L 26.600444 8.849589 L 24.996407 8.849589 L 22.630143 8.849589 L 17.962728 8.849589 L 20.900016 25.570015 L 23.463684 25.570015 L 24.162349 25.570015 L 26.726534 25.570015 L 29.663822 8.849589 L 27.879952 8.849589 L 28.646313 3.8457601 A 0.63249999 0.63249999 0 0 0 28.117147 3.1248739 z " /><path
       id="rect59"
       style="fill:#734a08;fill-opacity:1;stroke:none;stroke-width:0.273;stroke-linecap:round;stroke-linejoin:round;stroke-dasharray:none;stroke-dashoffset:6.03213;stroke-opacity:1;paint-order:markers fill stroke"
       d="M 9.1622314 13.637927 C 5.8189634 13.637927 3.1274577 15.456252 3.1274577 17.714681 L 3.1274577 18.700151 L 19.243787 18.700151 L 19.243787 17.714681 C 19.243787 15.456252 16.551765 13.637927 13.208496 13.637927 L 9.1622314 13.637927 z M 10.518738 14.312821 C 11.256328 15.050757 10.446629 15.447809 10.284127 15.123625 C 10.121624 14.799437 10.518738 14.312821 10.518738 14.312821 z M 7.6455282 14.583089 C 7.6455282 14.583089 7.8348469 15.195329 7.6098714 15.512231 C 7.3848962 15.829132 6.8309046 15.225918 7.6455282 14.583089 z M 15.732373 14.607894 C 16.75834 14.763585 16.575068 15.561634 16.222782 15.39751 C 15.870497 15.233387 15.732373 14.607894 15.732373 14.607894 z M 13.117546 15.267285 C 13.793505 16.054637 13.133792 16.540315 12.973885 16.186092 C 12.813982 15.831872 13.117546 15.267285 13.117546 15.267285 z M 5.2684123 16.046566 C 5.2684123 16.046566 5.4582463 16.659326 5.2332723 16.976225 C 5.0082987 17.293129 4.4537905 16.689393 5.2684123 16.046566 z M 15.534452 16.805176 C 16.210413 17.592529 15.550183 18.078203 15.390275 17.723983 C 15.23037 17.369761 15.534452 16.805176 15.534452 16.805176 z M 8.946224 16.828947 C 8.946224 16.828947 9.2497898 17.393531 9.0898844 17.747754 C 8.9299784 18.101971 8.2702712 17.616297 8.946224 16.828947 z M 17.682642 17.053223 C 18.49727 17.696055 17.943277 18.299269 17.718298 17.982365 C 17.493324 17.66546 17.682642 17.053223 17.682642 17.053223 z M 2.6313639 20.365682 C 2.4609288 20.365682 2.3238892 20.734986 2.3238892 21.193538 C 2.3238892 21.652091 2.4609288 22.021395 2.6313639 22.021395 L 19.555912 22.021395 C 19.726348 22.021395 19.863387 21.652091 19.863387 21.193538 C 19.863387 20.734986 19.726348 20.365682 19.555912 20.365682 L 2.6313639 20.365682 z M 3.0618286 23.60166 C 3.1674428 24.143956 3.4327419 25.018082 3.8183716 25.471313 L 15.216642 25.471313 L 15.218193 25.846484 C 15.220393 26.399288 15.63007 26.892415 16.180924 26.892415 L 16.251204 26.892415 C 16.80206 26.892415 17.215645 26.399288 17.21342 25.846484 L 17.212386 25.471313 L 18.411279 25.471313 C 18.796966 25.018069 19.062202 24.143977 19.167822 23.60166 L 16.883207 23.60166 C 16.883223 23.602227 16.883184 23.60261 16.883207 23.60321 L 16.74058 23.60321 L 16.749882 25.846484 C 16.750865 26.085356 16.58785 26.375436 16.450159 26.429911 C 16.318639 26.481941 16.183846 26.527091 15.981453 26.429911 C 15.847969 26.365821 15.682691 26.085356 15.68173 25.846484 L 15.672945 23.60321 L 15.552022 23.60321 C 15.552044 23.602646 15.552006 23.60226 15.552022 23.60166 L 13.426571 23.60166 L 13.426571 23.803198 C 13.426571 24.19904 13.136785 24.517883 12.776998 24.517883 L 12.760461 24.517883 C 12.400676 24.517883 12.110889 24.19904 12.110889 23.803198 L 12.110889 23.60166 L 7.7256266 23.60166 L 7.7256266 24.473958 C 7.7256266 24.869799 7.4358405 25.188643 7.0760539 25.188643 L 7.0595174 25.188643 C 6.699731 25.188643 6.4104614 24.869799 6.4104614 24.473958 L 6.4104614 23.60166 L 6.0187541 23.60166 L 6.0187541 23.939624 C 6.0187541 24.335466 5.7289676 24.653792 5.3691813 24.653792 L 5.3521281 24.653792 C 4.992342 24.653792 4.7030721 24.335466 4.7030721 23.939624 L 4.7030721 23.60166 L 3.0618286 23.60166 z " /></g></svg>
