<?xml version="1.0" encoding="UTF-8" standalone="no"?>
<!-- Created with Inkscape (http://www.inkscape.org/) -->

<svg
   width="32mm"
   height="32mm"
   viewBox="0 0 32 32"
   version="1.1"
   id="svg1"
   xml:space="preserve"
   inkscape:version="1.3.1 (9b9bdc1480, 2023-11-25, custom)"
   sodipodi:docname="amenity_prison.16.svg"
   xmlns:inkscape="http://www.inkscape.org/namespaces/inkscape"
   xmlns:sodipodi="http://sodipodi.sourceforge.net/DTD/sodipodi-0.dtd"
   xmlns="http://www.w3.org/2000/svg"
   xmlns:svg="http://www.w3.org/2000/svg"><sodipodi:namedview
     id="namedview1"
     pagecolor="#ffffff"
     bordercolor="#666666"
     borderopacity="1.0"
     inkscape:showpageshadow="2"
     inkscape:pageopacity="0.0"
     inkscape:pagecheckerboard="0"
     inkscape:deskcolor="#d1d1d1"
     inkscape:document-units="mm"
     showguides="true"
     inkscape:zoom="2.5045944"
     inkscape:cx="37.930293"
     inkscape:cy="74.063887"
     inkscape:window-width="1318"
     inkscape:window-height="719"
     inkscape:window-x="48"
     inkscape:window-y="27"
     inkscape:window-maximized="1"
     inkscape:current-layer="layer1"><sodipodi:guide
       position="11.904699,9.9165938"
       orientation="0,-1"
       id="guide1"
       inkscape:locked="false" /></sodipodi:namedview><defs
     id="defs1"><inkscape:perspective
       sodipodi:type="inkscape:persp3d"
       inkscape:vp_x="0 : 24.999991 : 1"
       inkscape:vp_y="0 : 999.99994 : 0"
       inkscape:vp_z="580 : 24.999991 : 1"
       inkscape:persp3d-origin="290 : -71.666673 : 1"
       id="perspective2441" /><inkscape:perspective
       id="perspective3452"
       inkscape:persp3d-origin="30 : -244.99999 : 1"
       inkscape:vp_z="60 : -234.99999 : 1"
       inkscape:vp_y="0 : 999.99994 : 0"
       inkscape:vp_x="0 : -234.99999 : 1"
       sodipodi:type="inkscape:persp3d" /><symbol
       viewBox="244.5 110 489 219.9"
       id="symbol-university"><path
         id="path4460"
         d="m 79,43 57,119 c 0,0 21,-96 104,-96 83,0 124,106 124,106 L 407,39 489,22 0,17 Z" /><path
         id="path4462"
         d="M 94,176 73,215"
         stroke-width="20"
         stroke="#000000"
         fill="none" /><path
         id="path4464"
         d="M 300,19 C 300,29.5 277.4,38 249.5,38 221.6,38 199,29.5 199,19 199,8.5 221.6,0 249.5,0 277.4,0 300,8.5 300,19 Z" /><path
         id="path4466"
         d="M 112,216 96,178 64,88 C 64,88 55,80 60,53 65,26 76,29 76,29"
         stroke-width="20"
         stroke="#000000"
         ill="none" /></symbol><inkscape:perspective
       id="perspective4471"
       inkscape:persp3d-origin="372.04724 : 85.787378 : 1"
       inkscape:vp_z="744.09448 : 261.18107 : 1"
       inkscape:vp_y="0 : 999.99994 : 0"
       inkscape:vp_x="0 : 261.18107 : 1"
       sodipodi:type="inkscape:persp3d" /><inkscape:perspective
       id="perspective4668"
       inkscape:persp3d-origin="6 : -260.99999 : 1"
       inkscape:vp_z="12 : -258.99999 : 1"
       inkscape:vp_y="0 : 999.99994 : 0"
       inkscape:vp_x="0 : -258.99999 : 1"
       sodipodi:type="inkscape:persp3d" /><inkscape:perspective
       id="perspective2893"
       inkscape:persp3d-origin="0.5 : -264.66666 : 1"
       inkscape:vp_z="1 : -264.49999 : 1"
       inkscape:vp_y="0 : 999.99994 : 0"
       inkscape:vp_x="0 : -264.49999 : 1"
       sodipodi:type="inkscape:persp3d" /><inkscape:perspective
       id="perspective3898"
       inkscape:persp3d-origin="0.5 : -264.66666 : 1"
       inkscape:vp_z="1 : -264.49999 : 1"
       inkscape:vp_y="0 : 999.99994 : 0"
       inkscape:vp_x="0 : -264.49999 : 1"
       sodipodi:type="inkscape:persp3d" /><inkscape:perspective
       id="perspective4011"
       inkscape:persp3d-origin="0.5 : -264.66666 : 1"
       inkscape:vp_z="1 : -264.49999 : 1"
       inkscape:vp_y="0 : 999.99994 : 0"
       inkscape:vp_x="0 : -264.49999 : 1"
       sodipodi:type="inkscape:persp3d" /></defs><g
     inkscape:label="Livello 1"
     inkscape:groupmode="layer"
     id="layer1"><g
       inkscape:label="Livello 1"
       id="layer1-5"
       transform="matrix(0.66426331,0,0,0.66426331,5.371787,7.9634047)"><g
         id="path19"
         transform="translate(-33.676671,-0.88572981)" /><g
         id="rect22-0"
         transform="matrix(-1,0,0,1,-3.01491,-0.65556168)" /><g
         id="rect22-7"
         transform="matrix(-1,0,0,1,-2.830826,-0.88591792)" /><g
         id="path26"
         transform="translate(-33.676671,-0.88572981)" /><g
         id="path52-1"
         transform="matrix(-1,0,0,1,-11.680087,-0.88572981)" /><g
         inkscape:label="Livello 1"
         id="layer1-2-6"
         transform="matrix(0.45560341,0,0,0.45560341,-2.1257745,18.571721)"><g
           id="path19-9-6"
           transform="translate(-33.676671,-0.88572981)" /><g
           id="rect22-0-1-9"
           transform="matrix(-1,0,0,1,-3.01491,-0.65556168)" /><g
           id="rect22-7-2-3"
           transform="matrix(-1,0,0,1,-2.830826,-0.88591792)" /><g
           id="path26-7-7"
           transform="translate(-33.676671,-0.88572981)" /><g
           id="path52-1-0-4"
           transform="matrix(-1,0,0,1,-11.680087,-0.88572981)" /></g><path
         id="path4"
         style="fill:#734a08;fill-opacity:1;stroke:none;stroke-width:1.77715;stroke-linecap:round;stroke-dasharray:none;stroke-dashoffset:6.03213;paint-order:markers fill stroke"
         d="M 16.000086 2.6044799 A 5.8185724 5.8185724 0 0 0 11.489526 4.7913003 L 11.489526 12.054251 A 5.8185724 5.8185724 0 0 0 16.000086 14.241849 A 5.8185724 5.8185724 0 0 0 20.510646 12.054251 L 20.510646 4.7539586 A 5.8185724 5.8185724 0 0 0 16.000086 2.6044799 z M 11.489526 16.199952 L 11.489526 29.622719 L 20.510646 29.622719 L 20.510646 16.215511 L 11.489526 16.199952 z M 8.1801221 16.965456 C 6.9145086 17.758218 6.085878 19.091327 6.085878 20.609378 C 6.085878 20.674058 6.0883536 20.738324 6.0913236 20.80231 L 6.085878 20.80231 L 6.085878 29.622719 L 8.1801221 29.622719 L 8.1801221 16.965456 z M 23.82005 16.970124 L 23.82005 29.622719 L 25.913516 29.622719 L 25.913516 20.80231 L 25.908848 20.80231 C 25.911848 20.73832 25.913516 20.674059 25.913516 20.609378 C 25.913516 19.036575 25.049908 17.73795 23.82005 16.970124 z " /></g><g
       id="path19-9"
       transform="translate(-33.676671,-0.88572981)" /><g
       id="rect22-0-1"
       transform="matrix(-1,0,0,1,-3.01491,-0.65556168)" /><g
       id="rect22-7-2"
       transform="matrix(-1,0,0,1,-2.830826,-0.88591792)" /><g
       id="path26-7"
       transform="translate(-33.676671,-0.88572981)" /><g
       id="path52-1-0"
       transform="matrix(-1,0,0,1,-11.680087,-0.88572981)" /><path
       id="rect2"
       style="color:#000000;fill:#734a08;fill-opacity:1;stroke-dashoffset:6.03213;-inkscape-stroke:none;paint-order:markers fill stroke"
       d="M 3.0685465 3.0685465 L 3.0685465 28.931567 L 28.931567 28.931567 L 28.931567 3.0685465 L 3.0685465 3.0685465 z M 4.3594238 4.3594238 L 11.259261 4.3594238 L 11.259261 27.64069 L 4.3594238 27.64069 L 4.3594238 4.3594238 z M 12.550138 4.3594238 L 19.449976 4.3594238 L 19.449976 27.64069 L 12.550138 27.64069 L 12.550138 4.3594238 z M 20.740853 4.3594238 L 27.64069 4.3594238 L 27.64069 27.64069 L 20.740853 27.64069 L 20.740853 4.3594238 z " /></g></svg>
