<?xml version="1.0" encoding="UTF-8" standalone="no"?>
<!-- Created with Inkscape (http://www.inkscape.org/) -->

<svg
   width="32mm"
   height="32mm"
   viewBox="0 0 32 32"
   version="1.1"
   id="svg1"
   xml:space="preserve"
   inkscape:version="1.3.1 (9b9bdc1480, 2023-11-25, custom)"
   sodipodi:docname="amenity_nightclub.16.svg"
   xmlns:inkscape="http://www.inkscape.org/namespaces/inkscape"
   xmlns:sodipodi="http://sodipodi.sourceforge.net/DTD/sodipodi-0.dtd"
   xmlns="http://www.w3.org/2000/svg"
   xmlns:svg="http://www.w3.org/2000/svg"><sodipodi:namedview
     id="namedview1"
     pagecolor="#ffffff"
     bordercolor="#666666"
     borderopacity="1.0"
     inkscape:showpageshadow="2"
     inkscape:pageopacity="0.0"
     inkscape:pagecheckerboard="0"
     inkscape:deskcolor="#d1d1d1"
     inkscape:document-units="mm"
     showguides="true"
     inkscape:zoom="2.8284271"
     inkscape:cx="49.320698"
     inkscape:cy="65.584154"
     inkscape:window-width="1318"
     inkscape:window-height="719"
     inkscape:window-x="48"
     inkscape:window-y="27"
     inkscape:window-maximized="1"
     inkscape:current-layer="layer1"><sodipodi:guide
       position="30.86609,17.025411"
       orientation="1,0"
       id="guide4"
       inkscape:locked="false" /><sodipodi:guide
       position="17.727083,5.1447916"
       orientation="0,-1"
       id="guide74"
       inkscape:locked="false" /></sodipodi:namedview><defs
     id="defs1" /><g
     inkscape:label="Livello 1"
     inkscape:groupmode="layer"
     id="layer1"><g
       id="path19" /><g
       id="rect22-0"
       transform="matrix(-1,0,0,1,30.661761,0.23016813)" /><g
       id="rect22-7"
       transform="matrix(-1,0,0,1,30.845845,-1.8811487e-4)" /><g
       id="path26" /><g
       id="path52-1"
       transform="matrix(-1,0,0,1,21.996584,0)" /><path
       id="path91"
       style="fill:#734a08;fill-opacity:1;stroke:none;stroke-width:0.617098;stroke-linecap:round;stroke-linejoin:round;stroke-dasharray:none;stroke-dashoffset:6.03213;stroke-opacity:1;paint-order:markers stroke fill"
       d="m 26.440336,2.1200788 c -7.10176,1.2690088 -7.154571,2.5362765 -15.104138,3.9098347 v 5.5535475 12.584557 c -0.728595,-0.323524 -1.5902163,-0.430571 -2.4432532,-0.303549 -2.0748636,0.313938 -3.5549827,1.902909 -3.3059456,3.549072 0.2491245,1.646159 2.1330934,2.726086 4.2079595,2.412084 1.9545603,-0.296105 3.4023373,-1.731788 3.3294423,-3.30163 0.0075,-0.08028 0.01487,-0.161036 0.01487,-0.245045 V 11.256415 C 19.209955,10.323824 19.270006,9.0416794 24.63775,8.000188 l 1e-6,12.495842 c -0.793304,-0.383213 -1.754511,-0.517026 -2.707481,-0.376919 -2.187789,0.327139 -3.748418,1.982406 -3.485773,3.69725 0.262619,1.714932 2.249289,2.839959 4.43718,2.512788 1.494795,-0.226376 2.759118,-1.09306 3.26902,-2.240888 0.177343,-0.280142 0.289642,-0.677571 0.289642,-1.124041 l 10e-7,-15.2910733 z"
       sodipodi:nodetypes="cccccccccccccsccscc" /></g></svg>
