<?xml version="1.0" encoding="UTF-8" standalone="no"?>
<!-- Created with Inkscape (http://www.inkscape.org/) -->

<svg
   width="32mm"
   height="32mm"
   viewBox="0 0 32 32"
   version="1.1"
   id="svg1"
   xml:space="preserve"
   inkscape:version="1.3.1 (9b9bdc1480, 2023-11-25, custom)"
   sodipodi:docname="amenity_cafe.16.svg"
   xmlns:inkscape="http://www.inkscape.org/namespaces/inkscape"
   xmlns:sodipodi="http://sodipodi.sourceforge.net/DTD/sodipodi-0.dtd"
   xmlns="http://www.w3.org/2000/svg"
   xmlns:svg="http://www.w3.org/2000/svg"><sodipodi:namedview
     id="namedview1"
     pagecolor="#ffffff"
     bordercolor="#666666"
     borderopacity="1.0"
     inkscape:showpageshadow="2"
     inkscape:pageopacity="0.0"
     inkscape:pagecheckerboard="0"
     inkscape:deskcolor="#d1d1d1"
     inkscape:document-units="mm"
     inkscape:zoom="3.4388184"
     inkscape:cx="10.323313"
     inkscape:cy="47.254604"
     inkscape:window-width="1318"
     inkscape:window-height="719"
     inkscape:window-x="48"
     inkscape:window-y="27"
     inkscape:window-maximized="1"
     inkscape:current-layer="layer1"
     showguides="true"
     showgrid="false"><sodipodi:guide
       position="31.338526,6.3755642"
       orientation="1,0"
       id="guide1"
       inkscape:locked="false" /></sodipodi:namedview><defs
     id="defs1" /><g
     inkscape:label="Livello 1"
     inkscape:groupmode="layer"
     id="layer1"><path
       id="rect6"
       style="fill:#734a08;fill-opacity:1;stroke:none;stroke-width:0.833001;stroke-linecap:round;stroke-linejoin:miter;stroke-dasharray:none;stroke-dashoffset:6.03213;stroke-opacity:1;paint-order:markers fill stroke"
       d="m 4.7418294,5.7939616 c -0.042091,0 -0.075964,0.5842355 -0.075964,1.3099975 V 17.686259 c 0,0.161975 0.00208,0.312828 0.00517,0.455786 -0.00191,0.03701 -0.00517,0.07384 -0.00517,0.111104 0,0.09041 0.00747,0.179866 0.018603,0.268718 0.013916,0.284159 0.034004,0.47439 0.057361,0.47439 H 4.79764 c 0.6475554,1.821747 3.6313333,3.191536 7.237801,3.191536 H 13.8467 c 3.606467,0 6.58973,-1.369789 7.237284,-3.191536 h 0.02584 c 0.01477,0 0.02763,-0.09118 0.03927,-0.216008 0.04288,-0.172389 0.06718,-0.348254 0.06718,-0.5271 0,-0.124618 -0.01205,-0.247376 -0.03307,-0.368969 6.13e-4,-0.06728 0.0026,-0.127584 0.0026,-0.197921 v -1.079521 c 0.792874,0.389299 1.694788,0.609782 2.64635,0.609782 3.083706,0 5.648234,-2.309078 5.648234,-5.211051 0,-2.9019751 -2.564528,-5.2089846 -5.648234,-5.2089846 -0.951562,0 -1.853476,0.220224 -2.64635,0.6092651 V 7.1039591 c 0,-0.725762 -0.03387,-1.3099975 -0.07596,-1.3099975 z M 23.832137,8.0289673 c 2.475529,0 4.415751,1.8046354 4.415751,3.9765017 0,2.171865 -1.940222,3.976501 -4.415751,3.976501 -1.000354,0 -1.913478,-0.294563 -2.64635,-0.789099 V 8.8180664 c 0.732872,-0.494535 1.645996,-0.7890991 2.64635,-0.7890991 z"
       sodipodi:nodetypes="ssscscscsscscscscssscssssssccs" /><path
       id="rect8"
       style="fill:#734a08;stroke-width:1.39662;stroke-linecap:round;stroke-dashoffset:6.03213;paint-order:markers fill stroke"
       d="M 3.7499995,23.775295 H 22.132142 c 0.746259,0 2.250813,2.039805 1.347037,1.726569 -1.476147,-0.511611 -7.178469,1.726568 -6.638704,1.726568 H 9.0416661 c 0.5336316,0 -5.2202868,-2.184728 -6.6387033,-1.726568 -0.9102136,0.294007 0.6007783,-1.726569 1.3470367,-1.726569 z"
       sodipodi:nodetypes="sssssss" /></g></svg>
