<?xml version="1.0" encoding="UTF-8" standalone="no"?>
<!-- Created with Inkscape (http://www.inkscape.org/) -->

<svg
   width="32mm"
   height="32mm"
   viewBox="0 0 32 32"
   version="1.1"
   id="svg1"
   xml:space="preserve"
   inkscape:version="1.3.1 (9b9bdc1480, 2023-11-25, custom)"
   sodipodi:docname="amenity_bicycle_rental.16.svg"
   xmlns:inkscape="http://www.inkscape.org/namespaces/inkscape"
   xmlns:sodipodi="http://sodipodi.sourceforge.net/DTD/sodipodi-0.dtd"
   xmlns="http://www.w3.org/2000/svg"
   xmlns:svg="http://www.w3.org/2000/svg"><sodipodi:namedview
     id="namedview1"
     pagecolor="#ffffff"
     bordercolor="#666666"
     borderopacity="1.0"
     inkscape:showpageshadow="2"
     inkscape:pageopacity="0.0"
     inkscape:pagecheckerboard="0"
     inkscape:deskcolor="#d1d1d1"
     inkscape:document-units="mm"
     inkscape:zoom="2.7610032"
     inkscape:cx="13.944207"
     inkscape:cy="30.967005"
     inkscape:window-width="1314"
     inkscape:window-height="605"
     inkscape:window-x="48"
     inkscape:window-y="140"
     inkscape:window-maximized="0"
     inkscape:current-layer="layer1"
     showguides="true" /><defs
     id="defs1" /><g
     inkscape:label="Livello 1"
     inkscape:groupmode="layer"
     id="layer1"><path
       id="path3"
       style="color:#000000;fill:#0092db;stroke-width:1.20923;stroke-linejoin:bevel;stroke-dashoffset:6.03213;-inkscape-stroke:none;paint-order:markers fill stroke"
       d="m 19.610491,13.888721 c -0.833136,0.02461 -0.788664,0.815206 0,0.802983 h 1.705323 v 3.166939 H 11.861863 V 16.20956 l 1.393504,-0.320569 c 0.465527,-0.109121 0.385659,-0.794455 -0.09248,-0.793609 H 9.5591483 C 9.3365754,15.09555 9.1564768,15.276491 9.1573438,15.49906 v 0.826729 c -1.959e-4,0.258139 0.2394321,0.4496 0.4911633,0.392431 l 1.4078749,-0.323693 v 1.755314 l -2.143994,3.55562 C 8.31209,21.411109 7.6380663,21.245542 6.9258646,21.245542 c -2.4987805,0 -4.5323225,2.036041 -4.5323225,4.534822 0,2.498782 2.033542,4.532323 4.5323225,4.532323 2.3920523,0 4.3562864,-1.864245 4.5198234,-4.215504 l 1.1398,-0.02125 c 0.09223,0.2755 0.262984,0.516382 0.485537,0.694877 v 1.545976 h -0.424923 v 0.802983 h 1.679076 v -0.802983 h -0.448669 v -1.224157 c 0.03974,0.0033 0.07946,0.0057 0.11998,0.0057 0.817103,0 1.488487,-0.673263 1.488487,-1.490361 0,-0.09211 -0.0093,-0.182313 -0.02562,-0.269952 l 6.106418,-3.524376 0.443047,0.608018 c -0.91516,0.83048 -1.490986,2.029226 -1.490986,3.35878 0,2.498793 2.033534,4.532322 4.532321,4.532322 2.498795,0 4.532323,-2.033529 4.532323,-4.532322 0,-2.498794 -2.033528,-4.534823 -4.532323,-4.534823 -0.880463,0 -1.70263,0.253796 -2.39895,0.690504 l -0.50616,-0.695562 c 5.2e-5,-0.0037 5.2e-5,-0.0075 0,-0.01125 l -0.02375,-0.534905 v -5.348427 l 0.557401,0.557401 c 0.464054,0.452593 0.966797,-0.158735 0.569274,-0.566774 l -1.447869,-1.447869 z m -7.577407,4.775404 h 9.193371 l 0.08936,1.982774 v 0.384306 l -6.2139,3.58499 C 14.82986,24.313531 14.436756,24.121496 14.001484,24.120033 Z m -0.665508,0.529281 1.857171,5.144089 c -0.335864,0.205699 -0.584742,0.541046 -0.676754,0.93421 l -1.116678,0.02062 C 11.291768,23.994616 10.602057,22.858907 9.6010144,22.123508 Z m -4.4417126,2.857618 c 0.5617197,0 1.0932533,0.123854 1.5703471,0.344939 l -1.4797379,2.453316 c -0.02988,-0.0029 -0.060002,-0.0044 -0.090608,-0.0044 -0.5134845,0 -0.935459,0.421974 -0.935459,0.935459 0,0.513472 0.4219745,0.934834 0.935459,0.934834 0.376101,0 0.7024698,-0.226425 0.8504741,-0.549278 l 2.8632423,-0.05374 c -0.167397,1.907647 -1.7615619,3.397523 -3.7137164,3.397523 -2.0641949,0 -3.7293399,-1.665147 -3.7293399,-3.729339 0,-2.064192 1.665145,-3.72934 3.7293399,-3.72934 z m 18.1242886,0 c 2.064212,0 3.72934,1.665136 3.72934,3.72934 0,2.064205 -1.665128,3.729339 -3.72934,3.729339 -2.064203,0 -3.729339,-1.665134 -3.729339,-3.729339 0,-1.06787 0.446332,-2.028072 1.162295,-2.70702 l 1.910911,2.624535 c -0.0034,0.027 -0.0057,0.05463 -0.0057,0.08248 0,0.363433 0.298326,0.661133 0.661757,0.661133 0.363434,0 0.661133,-0.2977 0.661133,-0.661133 0,-0.363433 -0.297699,-0.663633 -0.661133,-0.663633 -0.02701,0 -0.05381,0.0018 -0.07998,0.005 L 23.123548,22.584675 C 23.685394,22.245984 24.34432,22.05102 25.050081,22.05102 Z M 9.1860885,22.811516 c 0.7751908,0.590527 1.3105005,1.478481 1.4384945,2.495807 l -2.8644928,0.05311 c -0.016313,-0.03213 -0.034584,-0.06321 -0.054367,-0.09311 z"
       sodipodi:nodetypes="cccccccccccccccsssccccccccccsscccssssccccccccccccccccccccccsccsssccsssssssccssssccsccccc" /><g
       id="path7-6" /><path
       id="path18"
       style="fill:#0092db;fill-opacity:1;stroke:none;stroke-width:0.065;stroke-linejoin:round;stroke-dasharray:none;stroke-dashoffset:6.03213;stroke-opacity:1;paint-order:markers fill stroke"
       d="m 9.0456531,2.6887248 c -2.3683795,1.937e-4 -4.288202,1.9202476 -4.2881104,4.2886271 -9.16e-5,2.3683795 1.9197309,4.2884331 4.2881104,4.2886271 1.3906989,-4.53e-4 2.6948309,-0.67525 3.4984939,-1.8102254 l 2.39727,-0.023254 1.650545,-1.4505575 1.650029,0.8934855 1.650545,-0.8934855 1.650028,0.8934855 1.650546,-0.8934855 1.682068,1.2583212 2.363679,-1.4786362 0.0036,-1.4786362 -2.367279,-1.4786362 H 12.742068 C 11.971931,3.4939008 10.565653,2.6890229 9.0456531,2.6887248 Z M 7.2395618,5.5402303 C 8.0333017,5.5401347 8.676779,6.183612 8.6766833,6.9773519 8.676779,7.7710918 8.0333017,8.4145691 7.2395618,8.4144735 6.4458218,8.4145692 5.8023445,7.7710919 5.8024402,6.9773519 5.8023445,6.1836119 6.4458218,5.5401346 7.2395618,5.5402303 Z"
       sodipodi:nodetypes="ccccccccccccccccccccc" /></g></svg>
