<?xml version="1.0" encoding="UTF-8" standalone="no"?>
<!-- Created with Inkscape (http://www.inkscape.org/) -->

<svg
   width="32mm"
   height="32mm"
   viewBox="0 0 32 32"
   version="1.1"
   id="svg1"
   xml:space="preserve"
   inkscape:version="1.3.1 (9b9bdc1480, 2023-11-25, custom)"
   sodipodi:docname="amenity_fuel.svg"
   xmlns:inkscape="http://www.inkscape.org/namespaces/inkscape"
   xmlns:sodipodi="http://sodipodi.sourceforge.net/DTD/sodipodi-0.dtd"
   xmlns="http://www.w3.org/2000/svg"
   xmlns:svg="http://www.w3.org/2000/svg"><sodipodi:namedview
     id="namedview1"
     pagecolor="#ffffff"
     bordercolor="#666666"
     borderopacity="1.0"
     inkscape:showpageshadow="2"
     inkscape:pageopacity="0.0"
     inkscape:pagecheckerboard="0"
     inkscape:deskcolor="#d1d1d1"
     inkscape:document-units="mm"
     showguides="true"
     inkscape:zoom="0.70710678"
     inkscape:cx="75.660426"
     inkscape:cy="92.630988"
     inkscape:window-width="1318"
     inkscape:window-height="719"
     inkscape:window-x="48"
     inkscape:window-y="27"
     inkscape:window-maximized="1"
     inkscape:current-layer="layer1"><sodipodi:guide
       position="17.775336,8.4293454"
       orientation="1,0"
       id="guide4"
       inkscape:locked="false" /></sodipodi:namedview><defs
     id="defs1" /><g
     inkscape:label="Livello 1"
     inkscape:groupmode="layer"
     id="layer1"><g
       id="path19" /><g
       id="rect22-0"
       transform="matrix(-1,0,0,1,30.661761,0.23016813)" /><g
       id="rect22-7"
       transform="matrix(-1,0,0,1,30.845845,-1.8811487e-4)" /><g
       id="path26" /><g
       id="path52-1"
       transform="matrix(-1,0,0,1,21.996584,0)" /><path
       id="rect73"
       style="fill:#0092db;fill-opacity:1;stroke:none;stroke-width:0.298;stroke-linecap:round;stroke-linejoin:round;stroke-dasharray:none;stroke-dashoffset:6.03213;stroke-opacity:1;paint-order:stroke markers fill"
       d="m 15.895631,4.256386 c -0.521329,0 -0.953431,0.4582678 -1.053193,1.0703282 l -0.360449,0.096079 -2.768532,1.3689675 v 2.7758768 c -0.903825,4.0283505 -1.484253,6.7006745 -4.4502156,11.3960275 -1.7289968,2.73714 -0.5671885,5.818293 1.5127794,6.623917 1.0399834,0.402813 2.3525662,0.03593 3.1614142,-1.121733 0.808851,-1.157659 1.272277,-2.994683 1.272277,-5.805107 V 10.472123 l 1.610695,0.03427 c 0.151752,1.991735 -0.651724,14.81498 1.247186,16.58366 h 8.260926 C 26.53484,24.17455 25.575705,7.8079416 25.575705,5.596591 c 0,-0.7423826 -0.478998,-1.340205 -1.074611,-1.340205 z m 0.154826,1.9007658 h 8.29581 v 6.4697022 h -8.29581 z m -4.337,9.1764272 v 5.327163 c 0,2.636608 -0.484803,4.204572 -1.003624,4.94713 -0.518822,0.74256 -0.9141946,0.767983 -1.3928345,0.582592 -0.9572801,-0.370779 -2.0766257,-2.384393 -0.786376,-4.42696 1.5818025,-2.50412 2.5124155,-4.515176 3.1828345,-6.429925 z"
       sodipodi:nodetypes="sccccssssccsssssccccccssssc" /></g></svg>
