<?xml version="1.0" encoding="UTF-8" standalone="no"?>
<!-- Created with Inkscape (http://www.inkscape.org/) -->

<svg
   width="32mm"
   height="32mm"
   viewBox="0 0 32 32"
   version="1.1"
   id="svg1"
   xml:space="preserve"
   inkscape:version="1.3.1 (9b9bdc1480, 2023-11-25, custom)"
   sodipodi:docname="amenity_courthouse.16.svg"
   xmlns:inkscape="http://www.inkscape.org/namespaces/inkscape"
   xmlns:sodipodi="http://sodipodi.sourceforge.net/DTD/sodipodi-0.dtd"
   xmlns="http://www.w3.org/2000/svg"
   xmlns:svg="http://www.w3.org/2000/svg"><sodipodi:namedview
     id="namedview1"
     pagecolor="#ffffff"
     bordercolor="#666666"
     borderopacity="1.0"
     inkscape:showpageshadow="2"
     inkscape:pageopacity="0.0"
     inkscape:pagecheckerboard="0"
     inkscape:deskcolor="#d1d1d1"
     inkscape:document-units="mm"
     showguides="true"
     inkscape:zoom="2.5045944"
     inkscape:cx="1.3974318"
     inkscape:cy="42.122588"
     inkscape:window-width="1318"
     inkscape:window-height="719"
     inkscape:window-x="48"
     inkscape:window-y="27"
     inkscape:window-maximized="1"
     inkscape:current-layer="layer1"><sodipodi:guide
       position="16.225336,-14.837615"
       orientation="1,0"
       id="guide4"
       inkscape:locked="false" /><sodipodi:guide
       position="-6.671601,15.944125"
       orientation="0,-1"
       id="guide30"
       inkscape:locked="false" /></sodipodi:namedview><defs
     id="defs1" /><g
     inkscape:label="Livello 1"
     inkscape:groupmode="layer"
     id="layer1"><g
       id="path19" /><g
       id="rect22"
       transform="translate(0.58782547,0.23022868)"><path
         id="path30"
         style="color:#000000;fill:#734a08;fill-opacity:1;stroke-linecap:round;stroke-linejoin:round;stroke-dashoffset:6.03213;-inkscape-stroke:none;paint-order:markers fill stroke"
         d="m 14.859493,2.4103769 c -0.465324,0.2858707 -0.77773,0.7984202 -0.77773,1.3828613 V 4.146705 C 12.721084,5.0433193 9.607906,5.7567505 6.5819621,6.4494069 v 0.00207 C 6.4317865,6.4860627 6.3250587,6.6193136 6.3240967,6.7734181 v 2.8649414 c -0.024322,0.020282 -0.045408,0.044156 -0.062528,0.070797 L 1.7538331,17.402743 c -0.047799,0.08592 -0.052205,0.189376 -0.011886,0.279053 -0.021371,0.045 -0.033578,0.09495 -0.031006,0.148312 0.046114,0.932342 0.6637301,1.736115 1.5621786,2.287198 0.8984485,0.551086 2.0928242,0.870634 3.3946248,0.857312 1.3018004,-0.01332 2.4807199,-0.356879 3.3537995,-0.927592 0.873082,-0.570711 1.455209,-1.392864 1.455209,-2.325956 -5e-5,-0.02767 -0.0051,-0.05405 -0.01189,-0.07958 0.02194,-0.08059 0.01058,-0.166612 -0.03152,-0.238746 L 6.9881389,9.8161264 V 7.1056976 H 14.081763 V 27.064686 l -8.9979006,1.267623 c -0.1490052,0.02185 -0.254742,0.156536 -0.2402955,0.306441 l 0.021704,0.234611 c 0.013821,0.145796 0.1367415,0.256801 0.2831869,0.255798 l 9.2164922,-0.08216 h 0.494543 1.105359 0.494543 l 9.216492,0.08216 c 0.146445,10e-4 0.269366,-0.110002 0.283187,-0.255798 l 0.0217,-0.234611 c 0.01445,-0.149905 -0.09129,-0.284591 -0.240295,-0.306441 L 16.742582,27.064686 V 7.1056976 h 7.093624 v 2.7104288 l -4.445207,7.5866166 c -0.0421,0.07213 -0.05346,0.158156 -0.03152,0.238746 -0.0068,0.02553 -0.01184,0.05191 -0.01189,0.07958 1e-6,0.933092 0.582127,1.755245 1.455209,2.325956 0.87308,0.570713 2.052,0.914272 3.3538,0.927592 1.301801,0.01332 2.496176,-0.306226 3.394625,-0.857312 0.898448,-0.551083 1.516064,-1.354856 1.562178,-2.287198 0.0026,-0.05336 -0.0096,-0.103312 -0.03101,-0.148312 0.04032,-0.08968 0.03591,-0.193133 -0.01189,-0.279053 L 24.562777,9.7091562 c -0.01712,-0.026641 -0.03821,-0.050515 -0.06253,-0.070797 V 6.7734181 C 24.499286,6.6193136 24.392559,6.4860627 24.242383,6.4514739 v -0.00207 C 21.216439,5.7567505 18.103261,5.0433193 16.742582,4.146705 V 3.7932382 c 0,-0.5845989 -0.312198,-1.0970366 -0.77773,-1.3828613 z m -8.2656453,7.9638551 4.1242963,7.038847 -8.2992353,0.08475 z m 17.6366493,0 4.174939,7.123596 -8.299235,-0.08475 z"
         sodipodi:nodetypes="cscccccccccsssccccccccccccccccccccccccccssscccccccccscccccccccc" /></g><g
       id="rect22-7"
       transform="matrix(-1,0,0,1,30.845845,-1.8811487e-4)" /><g
       id="path26" /></g></svg>
