<?xml version="1.0" encoding="UTF-8" standalone="no"?>
<!-- Created with Inkscape (http://www.inkscape.org/) -->

<svg
   width="32mm"
   height="32mm"
   viewBox="0 0 32 32"
   version="1.1"
   id="svg1"
   xml:space="preserve"
   sodipodi:docname="amenity_prison.svg"
   inkscape:version="1.3.1 (9b9bdc1480, 2023-11-25, custom)"
   xmlns:inkscape="http://www.inkscape.org/namespaces/inkscape"
   xmlns:sodipodi="http://sodipodi.sourceforge.net/DTD/sodipodi-0.dtd"
   xmlns="http://www.w3.org/2000/svg"
   xmlns:svg="http://www.w3.org/2000/svg"><sodipodi:namedview
     id="namedview1"
     pagecolor="#ffffff"
     bordercolor="#666666"
     borderopacity="1.0"
     inkscape:showpageshadow="2"
     inkscape:pageopacity="0.0"
     inkscape:pagecheckerboard="0"
     inkscape:deskcolor="#d1d1d1"
     inkscape:document-units="mm"
     showguides="true"
     inkscape:zoom="9.6695754"
     inkscape:cx="48.192395"
     inkscape:cy="36.971634"
     inkscape:window-width="1318"
     inkscape:window-height="719"
     inkscape:window-x="48"
     inkscape:window-y="27"
     inkscape:window-maximized="1"
     inkscape:current-layer="layer1" /><defs
     id="defs1"><inkscape:perspective
       sodipodi:type="inkscape:persp3d"
       inkscape:vp_x="0 : 24.999991 : 1"
       inkscape:vp_y="0 : 999.99994 : 0"
       inkscape:vp_z="580 : 24.999991 : 1"
       inkscape:persp3d-origin="290 : -71.666673 : 1"
       id="perspective2441" /><inkscape:perspective
       id="perspective3452"
       inkscape:persp3d-origin="30 : -244.99999 : 1"
       inkscape:vp_z="60 : -234.99999 : 1"
       inkscape:vp_y="0 : 999.99994 : 0"
       inkscape:vp_x="0 : -234.99999 : 1"
       sodipodi:type="inkscape:persp3d" /><symbol
       viewBox="244.5 110 489 219.9"
       id="symbol-university"><path
         id="path4460"
         d="m 79,43 57,119 c 0,0 21,-96 104,-96 83,0 124,106 124,106 L 407,39 489,22 0,17 Z" /><path
         id="path4462"
         d="M 94,176 73,215"
         stroke-width="20"
         stroke="#000000"
         fill="none" /><path
         id="path4464"
         d="M 300,19 C 300,29.5 277.4,38 249.5,38 221.6,38 199,29.5 199,19 199,8.5 221.6,0 249.5,0 277.4,0 300,8.5 300,19 Z" /><path
         id="path4466"
         d="M 112,216 96,178 64,88 C 64,88 55,80 60,53 65,26 76,29 76,29"
         stroke-width="20"
         stroke="#000000"
         ill="none" /></symbol><inkscape:perspective
       id="perspective4471"
       inkscape:persp3d-origin="372.04724 : 85.787378 : 1"
       inkscape:vp_z="744.09448 : 261.18107 : 1"
       inkscape:vp_y="0 : 999.99994 : 0"
       inkscape:vp_x="0 : 261.18107 : 1"
       sodipodi:type="inkscape:persp3d" /><inkscape:perspective
       id="perspective4668"
       inkscape:persp3d-origin="6 : -260.99999 : 1"
       inkscape:vp_z="12 : -258.99999 : 1"
       inkscape:vp_y="0 : 999.99994 : 0"
       inkscape:vp_x="0 : -258.99999 : 1"
       sodipodi:type="inkscape:persp3d" /><inkscape:perspective
       id="perspective2893"
       inkscape:persp3d-origin="0.5 : -264.66666 : 1"
       inkscape:vp_z="1 : -264.49999 : 1"
       inkscape:vp_y="0 : 999.99994 : 0"
       inkscape:vp_x="0 : -264.49999 : 1"
       sodipodi:type="inkscape:persp3d" /><inkscape:perspective
       id="perspective3898"
       inkscape:persp3d-origin="0.5 : -264.66666 : 1"
       inkscape:vp_z="1 : -264.49999 : 1"
       inkscape:vp_y="0 : 999.99994 : 0"
       inkscape:vp_x="0 : -264.49999 : 1"
       sodipodi:type="inkscape:persp3d" /><inkscape:perspective
       id="perspective4011"
       inkscape:persp3d-origin="0.5 : -264.66666 : 1"
       inkscape:vp_z="1 : -264.49999 : 1"
       inkscape:vp_y="0 : 999.99994 : 0"
       inkscape:vp_x="0 : -264.49999 : 1"
       sodipodi:type="inkscape:persp3d" /></defs><g
     inkscape:label="Livello 1"
     inkscape:groupmode="layer"
     id="layer1"><g
       id="path19-9"
       transform="translate(-33.676671,-0.88572981)" /><g
       id="rect22-0-1"
       transform="matrix(-1,0,0,1,-3.01491,-0.65556168)" /><g
       id="rect22-7-2"
       transform="matrix(-1,0,0,1,-2.830826,-0.88591792)" /><g
       id="path26-7"
       transform="translate(-33.676671,-0.88572981)" /><g
       id="path52-1-0"
       transform="matrix(-1,0,0,1,-11.680087,-0.88572981)" /><path
       id="rect2"
       style="color:#000000;fill:#734a08;fill-opacity:1;stroke-dashoffset:6.03213;-inkscape-stroke:none;paint-order:markers fill stroke"
       d="M 3.0685465 3.0685465 L 3.0685465 28.931567 L 28.931567 28.931567 L 28.931567 3.0685465 L 3.0685465 3.0685465 z M 4.3594238 4.3594238 L 7.9829753 4.3594238 L 7.9829753 27.64069 L 4.3594238 27.64069 L 4.3594238 4.3594238 z M 9.2738525 4.3594238 L 12.897404 4.3594238 L 12.897404 12.530501 L 12.914974 12.490194 C 13.082309 12.1051 13.527235 11.929601 13.912329 12.096936 L 14.00483 12.137244 C 14.07281 12.166784 14.134104 12.205433 14.188281 12.250415 L 14.188281 4.3594238 L 17.811833 4.3594238 L 17.811833 4.9562866 C 17.861163 4.8880767 17.923168 4.827039 17.998385 4.7785197 L 18.2547 4.6136719 C 18.566829 4.4859912 18.948074 4.5937016 19.10271 4.7769694 L 19.10271 4.3594238 L 22.726261 4.3594238 L 22.726261 27.64069 L 19.10271 27.64069 L 19.10271 7.9318156 L 17.811833 5.9303874 L 17.811833 27.64069 L 14.188281 27.64069 L 14.188281 13.805876 L 13.099976 16.310632 C 13.052446 16.420015 12.970086 16.59523 12.885518 16.667716 L 12.896887 27.64069 L 9.2738525 27.64069 L 9.2738525 4.3594238 z M 24.017139 4.3594238 L 27.64069 4.3594238 L 27.64069 27.64069 L 24.017139 27.64069 L 24.017139 4.3594238 z " /><path
       id="path6"
       style="fill:#734a08;fill-opacity:1;stroke:none;stroke-width:0.264583px;stroke-linecap:butt;stroke-linejoin:miter;stroke-opacity:1"
       d="m 18.568376,4.7118571 c -0.133601,-0.00274 -0.269454,0.033427 -0.390674,0.1116211 l -0.05581,0.036173 C 17.798637,5.06817 17.70615,5.4960284 17.914669,5.819283 l 1.846915,2.8633912 c 0.208519,0.3232546 0.636894,0.415224 0.960149,0.2067057 l 0.05581,-0.035657 C 21.100798,8.6452048 21.193284,8.2168297 20.984766,7.893575 L 19.13785,5.0307007 C 19.007526,4.8286665 18.791044,4.7164216 18.568376,4.7118571 Z M 16.01866,6.7639282 c -0.915882,-7.34e-5 -1.65837,0.7424145 -1.658296,1.6582967 -7.4e-5,0.9158824 0.742414,1.6583701 1.658296,1.6582971 0.915883,7.4e-5 1.658371,-0.7424143 1.658297,-1.6582971 7.4e-5,-0.9158826 -0.742414,-1.6583706 -1.658297,-1.6582967 z m 3.409095,1.594218 -0.179834,0.5560796 v 2.9987422 l 1.53789,-2.9760458 -0.111621,0.07183 c -0.323254,0.208518 -0.75163,0.1165488 -0.960148,-0.2067057 z m -4.755782,2.1151168 c -0.125595,-1.08e-4 -0.226453,0.0017 -0.336414,0.0026 v 1.88464 c 0.119908,0.141375 0.174118,0.387721 0.0801,0.68988 l -0.0801,0.184485 v 5.030701 l 0.02015,0.152962 h 0.0072 c -0.0012,0.02492 -0.0021,0.04998 -0.0021,0.07545 v 8.174694 c 0,0.499575 0.236187,0.901754 0.529683,0.901754 h 0.685229 c 0.293497,0 0.529684,-0.402179 0.529684,-0.901754 v -8.174694 c 0,-0.02721 -5.29e-4,-0.05404 -0.0021,-0.08062 l 0.131775,-5.16e-4 v 5.16e-4 l 0.170015,5.17e-4 c -0.0014,0.02658 -0.0021,0.05341 -0.0021,0.08062 v 8.174695 c 0,0.499578 0.236187,0.901754 0.529684,0.901754 h 0.685229 c 0.01419,0 0.02744,-0.0054 0.04134,-0.0072 V 10.473779 Z m -1.929598,0.353466 c -0.231793,0.204713 -0.427732,0.526679 -0.706934,1.035079 -0.152046,1.225727 -0.302377,2.452754 -0.453719,3.678845 l 1.067635,-2.456697 0.0863,-0.435116 z m 0.859896,1.348755 c -0.27062,-0.003 -0.528394,0.153459 -0.643372,0.418063 l -1.358057,3.124873 c -0.153304,0.352805 0.0074,0.760336 0.360185,0.91364 l 0.06098,0.02687 c 0.352805,0.153304 0.760336,-0.0074 0.91364,-0.360184 l 1.358056,-3.124874 c 0.153304,-0.352805 -0.0074,-0.760336 -0.360185,-0.913639 l -0.06098,-0.02636 c -0.0882,-0.03833 -0.180061,-0.05741 -0.270267,-0.05839 z"
       sodipodi:nodetypes="sccccccccsccccccccccccccccccccssssssccccsssscccccccccsccccccccs" /></g></svg>
