<?xml version="1.0" encoding="UTF-8" standalone="no"?>
<!-- Created with Inkscape (http://www.inkscape.org/) -->

<svg
   width="32mm"
   height="32mm"
   viewBox="0 0 32 32"
   version="1.1"
   id="svg1"
   xml:space="preserve"
   inkscape:version="1.3.1 (9b9bdc1480, 2023-11-25, custom)"
   sodipodi:docname="amenity_fuel.16.svg"
   xmlns:inkscape="http://www.inkscape.org/namespaces/inkscape"
   xmlns:sodipodi="http://sodipodi.sourceforge.net/DTD/sodipodi-0.dtd"
   xmlns="http://www.w3.org/2000/svg"
   xmlns:svg="http://www.w3.org/2000/svg"><sodipodi:namedview
     id="namedview1"
     pagecolor="#ffffff"
     bordercolor="#666666"
     borderopacity="1.0"
     inkscape:showpageshadow="2"
     inkscape:pageopacity="0.0"
     inkscape:pagecheckerboard="0"
     inkscape:deskcolor="#d1d1d1"
     inkscape:document-units="mm"
     showguides="true"
     inkscape:zoom="0.5"
     inkscape:cx="373"
     inkscape:cy="231"
     inkscape:window-width="1318"
     inkscape:window-height="719"
     inkscape:window-x="48"
     inkscape:window-y="27"
     inkscape:window-maximized="1"
     inkscape:current-layer="layer1"><sodipodi:guide
       position="17.775336,8.4293454"
       orientation="1,0"
       id="guide4"
       inkscape:locked="false" /></sodipodi:namedview><defs
     id="defs1" /><g
     inkscape:label="Livello 1"
     inkscape:groupmode="layer"
     id="layer1"><g
       id="path19" /><g
       id="rect22-0"
       transform="matrix(-1,0,0,1,30.661761,0.23016813)" /><g
       id="rect22-7"
       transform="matrix(-1,0,0,1,30.845845,-1.8811487e-4)" /><g
       id="path26" /><g
       id="path52-1"
       transform="matrix(-1,0,0,1,21.996584,0)" /><path
       id="rect70"
       style="fill:#0092db;fill-opacity:1;stroke:none;stroke-width:0.2;stroke-linecap:round;stroke-linejoin:round;stroke-dasharray:none;stroke-dashoffset:6.03213;stroke-opacity:1;paint-order:markers fill stroke"
       d="m 22.588632,2.5917765 c -0.103585,-7.156e-4 -0.205794,0.00221 -0.305407,0.00879 l 0.02274,0.8945191 c 0.779926,0.1289929 2.307345,0.080288 2.349211,1.1260294 v 2.7119792 c 0,1.4894245 0.880001,1.9908959 1.154968,2.111499 V 22.957975 c 0,0.558372 -0.106262,0.827626 -0.232027,0.958598 -0.125766,0.130973 -0.379696,0.250114 -0.976685,0.250114 -0.586165,0 -0.751116,-0.11694 -0.826306,-0.208773 -0.07519,-0.09183 -0.142627,-0.329532 -0.142627,-0.76016 v -9.398393 c 0,-1.287101 -0.445909,-2.340719 -1.242301,-3.007568 -0.625567,-0.52381 -1.426414,-0.7925032 -2.31252,-0.8578292 1.63e-4,-1.7059913 0.0016,-1.9320884 0.0016,-3.8633299 0,-1.4985665 -1.135153,-2.7052612 -2.545064,-2.7052612 H 6.1663792 c -1.4099112,0 -2.5450643,1.2066947 -2.5450643,2.7052612 0,4.1192621 0.053227,24.1969731 0.053227,24.1969731 H 20.025998 l 0.05168,-19.06757 c 0.63376,0.06035 1.138876,0.256437 1.502233,0.560689 0.485432,0.406471 0.787033,1.025243 0.787033,2.038635 v 9.398393 c 0,0.532406 0.04615,1.094582 0.429431,1.562695 0.383274,0.468116 1.022259,0.671794 1.805057,0.671794 0.771978,0 1.436141,-0.167344 1.888774,-0.638721 0.452635,-0.471374 0.583945,-1.120746 0.583944,-1.835547 V 9.4776611 h 0.507979 V 7.1424031 C 27.582126,5.91712 26.44005,5.8564315 26.298483,4.9187663 26.073436,3.428163 24.142424,2.6025114 22.588632,2.5917765 Z M 6.8433405,7.7966268 H 17.245806 c 0.502958,0 0.907955,0.5048206 0.907955,1.1317138 v 4.0002724 c 0,0.626894 -0.404997,1.131714 -0.907955,1.131714 H 6.8433405 c -0.5029571,0 -0.9074382,-0.50482 -0.9074382,-1.131714 V 8.9283406 c 0,-0.6268932 0.4044811,-1.1317138 0.9074382,-1.1317138 z"
       sodipodi:nodetypes="scccscssssssscsssscccssscsscccssssssssssss" /></g></svg>
