<?xml version="1.0" encoding="UTF-8" standalone="no"?>
<!-- Created with Inkscape (http://www.inkscape.org/) -->

<svg
   width="32mm"
   height="32mm"
   viewBox="0 0 32 32"
   version="1.1"
   id="svg1"
   xml:space="preserve"
   inkscape:version="1.3.1 (9b9bdc1480, 2023-11-25, custom)"
   sodipodi:docname="amenity_taxi.svg"
   xmlns:inkscape="http://www.inkscape.org/namespaces/inkscape"
   xmlns:sodipodi="http://sodipodi.sourceforge.net/DTD/sodipodi-0.dtd"
   xmlns="http://www.w3.org/2000/svg"
   xmlns:svg="http://www.w3.org/2000/svg"><sodipodi:namedview
     id="namedview1"
     pagecolor="#ffffff"
     bordercolor="#666666"
     borderopacity="1.0"
     inkscape:showpageshadow="2"
     inkscape:pageopacity="0.0"
     inkscape:pagecheckerboard="0"
     inkscape:deskcolor="#d1d1d1"
     inkscape:document-units="mm"
     showguides="true"
     inkscape:zoom="2.7299519"
     inkscape:cx="61.905852"
     inkscape:cy="36.813835"
     inkscape:window-width="1318"
     inkscape:window-height="719"
     inkscape:window-x="48"
     inkscape:window-y="27"
     inkscape:window-maximized="1"
     inkscape:current-layer="layer1"
     showgrid="false"><sodipodi:guide
       position="21.324843,29.746031"
       orientation="0,-1"
       id="guide8"
       inkscape:locked="false" /><sodipodi:guide
       position="18.475006,31.999999"
       orientation="0,-1"
       id="guide9"
       inkscape:locked="false" /></sodipodi:namedview><defs
     id="defs1"><inkscape:perspective
       sodipodi:type="inkscape:persp3d"
       inkscape:vp_x="-183.11487 : 148.50001 : 1"
       inkscape:vp_y="0 : 1000 : 0"
       inkscape:vp_z="-195.51426 : 148.50001 : 1"
       inkscape:persp3d-origin="-189.31457 : 99.000003 : 1"
       id="perspective10172" /><symbol
       id="Recycling"><title
         id="title7498">Recycling</title><g
         style="stroke:none"
         id="g7512"><path
           style="stroke-width:0.26458332"
           inkscape:connector-curvature="0"
           d="m 14.684375,3.9026042 -1.389063,0.79375 -0.926041,-1.5875 C 12.236979,2.8773437 11.972396,2.7119792 11.608594,2.7119792 H 8.8304687 C 9.0289062,2.9104167 9.0619792,2.9765625 9.1611979,3.1419271 L 10.88099,6.1184896 9.4919271,6.9122396 H 12.93151 Z"
           id="path7500" /><path
           style="stroke-width:0.26458332"
           inkscape:connector-curvature="0"
           d="m 14.254427,12.038542 h 1.389063 c 0.826822,0 1.322916,-0.892969 0.926041,-1.5875 l -1.752864,-3.069167 -2.38125,1.3890625 z"
           id="path7502" /><path
           style="stroke-width:0.26458332"
           inkscape:connector-curvature="0"
           d="m 12.170833,17.065625 v -1.5875 h 1.852084 c 0.264583,0 0.529166,-0.132292 0.727604,-0.463021 l 1.389062,-2.38125 C 15.875,12.7 15.775781,12.7 15.610417,12.7 h -3.439584 v -1.5875 l -1.719791,2.976562 z"
           id="path7504" /><path
           style="stroke-width:0.26458332"
           inkscape:connector-curvature="0"
           d="m 5.3578125,12.7 -0.6945313,1.190625 c -0.396875,0.727604 0.099219,1.5875 0.8929688,1.5875 H 9.0619792 V 12.7 Z"
           id="path7506" /><path
           style="stroke-width:0.26458332"
           inkscape:connector-curvature="0"
           d="m 2.0505208,8.4005208 1.3890625,0.79375 -0.9260416,1.5875002 C 2.38125,11.013281 2.38125,11.310937 2.5466146,11.641667 l 1.3559896,2.38125 c 0.066146,-0.264584 0.099219,-0.33073 0.1984375,-0.496094 L 5.8208333,10.55026 7.2098958,11.34401 5.4901042,8.3674479 Z"
           id="path7508" /><path
           style="stroke-width:0.26458332"
           inkscape:connector-curvature="0"
           d="M 9.2604167,4.6302083 8.5989583,3.4395833 c -0.4299479,-0.6945312 -1.4221354,-0.6945312 -1.8190104,0 l -1.7528646,3.0427084 2.38125,1.3890625 z"
           id="path7510" /></g></symbol><inkscape:perspective
       id="perspective8310"
       inkscape:persp3d-origin="372.04724 : 350.7874 : 1"
       inkscape:vp_z="744.09447 : 526.18111 : 1"
       inkscape:vp_y="0 : 1000 : 0"
       inkscape:vp_x="0 : 526.18111 : 1"
       sodipodi:type="inkscape:persp3d" /><inkscape:perspective
       id="perspective5302"
       inkscape:persp3d-origin="372.04724 : 350.7874 : 1"
       inkscape:vp_z="744.09447 : 526.18111 : 1"
       inkscape:vp_y="0 : 1000 : 0"
       inkscape:vp_x="0 : 526.18111 : 1"
       sodipodi:type="inkscape:persp3d" /><symbol
       id="ToiletsMen"><title
         id="title4892">Toilets - Men</title><g
         style="stroke:none"
         id="g4898"><circle
           cx="36"
           cy="9"
           r="5"
           id="circle4894" /><path
           d="m 24,22 v 15.5 a 2.25,2.25 0 0 0 4.5,0 V 23 h 1 v 39.5 a 3,3 0 0 0 6,0 V 40 h 1 v 22.5 a 3,3 0 0 0 6,0 V 23 h 1 v 14.5 a 2.25,2.25 0 0 0 4.5,0 V 22 A 7,7 0 0 0 41,15 H 31 a 7,7 0 0 0 -7,7 z"
           id="path4896"
           inkscape:connector-curvature="0" /></g></symbol></defs><g
     inkscape:label="Livello 1"
     inkscape:groupmode="layer"
     id="layer1"><g
       id="path19" /><g
       id="rect22-0"
       transform="matrix(-1,0,0,1,30.661761,0.23016813)" /><g
       id="rect22-7"
       transform="matrix(-1,0,0,1,30.845845,-1.8811487e-4)" /><g
       id="path26" /><g
       id="path52"
       transform="translate(-38.081357,-6.611757)" /><g
       id="path52-1"
       transform="matrix(-1,0,0,1,21.996584,0)" /><g
       id="g17"
       transform="translate(0,-0.00737192)"><g
         inkscape:label="Livello 1"
         id="layer1-7"
         transform="translate(0.27634355)"><g
           id="path7-6"
           transform="translate(0.01198945,-0.5007424)" /><path
           id="rect1"
           style="fill:#0093db;fill-opacity:1;stroke:none;stroke-width:0.79757;stroke-linecap:round;stroke-linejoin:round;stroke-dasharray:none;stroke-dashoffset:6.03213;stroke-opacity:1;paint-order:markers fill stroke"
           d="m 14.108933,2.3472863 c -0.139767,-2.115e-4 -0.269047,0.074097 -0.339214,0.1949744 L 13.07536,3.7464888 H 11.273629 C 10.493873,3.8370738 9.8277938,4.0804586 9.4769306,4.749034 l -2.9849932,5.283593 -1.8696565,1.3644 v 4.135552 c 0,0.588174 0.1249355,1.444902 0.441103,1.710741 0.3161676,0.265841 0.4325636,0.326635 0.9731942,0.326635 h 0.091407 v 2.092305 c 0,0.365706 0.2946852,0.660397 0.6603967,0.660397 h 1.8126318 c 0.3657117,0 0.6595582,-0.294691 0.6595582,-0.660397 V 17.569955 H 22.186737 v 2.092305 c 0,0.365706 0.293847,0.660397 0.659559,0.660397 h 1.812632 c 0.365711,0 0.660396,-0.294691 0.660396,-0.660397 v -2.092305 h 0.09141 c 0.514163,0 0.654433,-0.09742 0.90443,-0.355147 0.249995,-0.25773 0.509868,-1.067588 0.509868,-1.682229 V 11.397027 L 24.955372,10.032208 21.970379,4.749034 C 21.619514,4.0804586 20.95344,3.8370734 20.173681,3.7464888 h -1.713258 c -0.002,-0.00423 -0.0041,-0.00842 -0.0063,-0.012579 L 17.76774,2.5422607 C 17.697649,2.421513 17.568562,2.3472246 17.428946,2.3472863 Z m 0.226421,0.7828322 h 2.866751 l 0.356405,0.6163703 h -3.57956 z m -3.653776,2.5623393 h 10.084154 l 2.150587,4.5275962 H 8.530991 Z m 8.682435,0.5224473 c -0.580865,2.08e-4 -1.051644,0.538001 -1.051603,1.201293 8.66e-4,0.269207 0.0809,0.530277 0.22726,0.741321 0.23983,-0.08484 0.497365,-0.13166 0.765642,-0.13166 0.303681,0 0.593866,0.05987 0.859982,0.167301 0.161582,-0.216865 0.250447,-0.492223 0.250742,-0.776962 4.2e-5,-0.663479 -0.470993,-1.201349 -1.052023,-1.201293 z m -0.0826,2.219352 c -0.830314,2.12e-4 -1.549764,0.58112 -1.72416,1.392913 a 0.18337547,0.18337547 0 0 0 0.140885,0.2171979 0.18337547,0.18337547 0 0 0 0.218875,-0.1396279 c 0.138543,-0.644901 0.704785,-1.104265 1.3644,-1.104434 0.659615,-1.69e-4 1.228885,0.457927 1.367755,1.102757 A 0.18337547,0.18337547 0 0 0 20.865946,10.044368 0.18337547,0.18337547 0 0 0 21.00725,9.8254931 C 20.832437,9.0137891 20.111725,8.4340461 19.281411,8.4342571 Z M 7.8139888,12.278395 c 0.5026131,4.45e-4 0.9098988,0.385342 0.9098799,0.860402 1.89e-5,0.475062 -0.4072668,0.860378 -0.9098799,0.860823 -0.5031449,2.64e-4 -0.9111563,-0.38526 -0.9111379,-0.860823 -1.84e-5,-0.475562 0.4079931,-0.860666 0.9111379,-0.860402 z m 15.8948062,0 c 0.502613,4.46e-4 0.909897,0.38534 0.90988,0.860402 1.7e-5,0.475061 -0.407267,0.860377 -0.90988,0.860823 -0.503145,2.62e-4 -0.911157,-0.385261 -0.911138,-0.860823 -1.9e-5,-0.475562 0.407993,-0.860665 0.911138,-0.860402 z" /></g><path
         style="font-weight:bold;font-size:10.5833px;line-height:1.25;font-family:Ubuntu;-inkscape-font-specification:'Ubuntu Bold';fill:#0093db;stroke-width:0.264583"
         d="M 10.533755,22.333231 V 23.74081 H 8.3218452 v 5.926648 H 6.6708505 V 23.74081 H 4.4589409 v -1.407579 z m 5.101126,7.334227 q -0.116416,-0.380999 -0.264583,-0.783165 -0.137583,-0.402165 -0.275165,-0.80433 h -2.857491 q -0.137583,0.402165 -0.285749,0.80433 -0.137583,0.402166 -0.254,0.783165 H 9.9833989 q 0.4127491,-1.18533 0.7831641,-2.190743 0.370416,-1.005414 0.719664,-1.894411 0.359833,-0.888997 0.698498,-1.682745 0.349249,-0.80433 0.719665,-1.566328 h 1.576911 q 0.359832,0.761998 0.709081,1.566328 0.349249,0.793748 0.698498,1.682745 0.359832,0.888997 0.730248,1.894411 0.370415,1.005413 0.783164,2.190743 z m -1.979077,-5.672649 q -0.05292,0.158749 -0.15875,0.433915 -0.105833,0.275166 -0.243416,0.634998 -0.137582,0.359832 -0.306915,0.793748 -0.15875,0.433915 -0.328083,0.910163 h 2.08491 Q 14.534218,26.291385 14.375468,25.85747 14.216719,25.423554 14.068553,25.063722 13.93097,24.70389 13.825137,24.428724 13.719304,24.153558 13.655804,23.994809 Z m 9.302694,5.672649 q -0.306916,-0.613832 -0.677331,-1.238246 -0.359833,-0.634998 -0.836081,-1.291163 -0.148166,0.190499 -0.380999,0.529165 -0.222249,0.338666 -0.455082,0.719664 -0.222249,0.380999 -0.423332,0.730248 -0.201082,0.349249 -0.296332,0.550332 h -1.883827 q 0.465665,-0.857248 1.079496,-1.799161 0.624415,-0.941914 1.386412,-2.000244 l -2.360075,-3.534822 h 2.000243 l 1.428746,2.285993 1.396995,-2.285993 h 1.883828 l -2.328326,3.555989 q 0.888997,1.153579 1.492245,2.137826 0.603248,0.973664 0.952497,1.640412 z m 2.931566,-7.334227 h 1.650995 v 7.334227 h -1.650995 z"
         id="text17"
         aria-label="TAXI" /></g></g></svg>
