<?xml version="1.0" encoding="UTF-8" standalone="no"?>
<!-- Created with Inkscape (http://www.inkscape.org/) -->

<svg
   width="32mm"
   height="32mm"
   viewBox="0 0 32 32"
   version="1.1"
   id="svg1"
   xml:space="preserve"
   inkscape:version="1.3.1 (9b9bdc1480, 2023-11-25, custom)"
   sodipodi:docname="amenity_bus_station.svg"
   xmlns:inkscape="http://www.inkscape.org/namespaces/inkscape"
   xmlns:sodipodi="http://sodipodi.sourceforge.net/DTD/sodipodi-0.dtd"
   xmlns="http://www.w3.org/2000/svg"
   xmlns:svg="http://www.w3.org/2000/svg"><sodipodi:namedview
     id="namedview1"
     pagecolor="#ffffff"
     bordercolor="#666666"
     borderopacity="1.0"
     inkscape:showpageshadow="2"
     inkscape:pageopacity="0.0"
     inkscape:pagecheckerboard="0"
     inkscape:deskcolor="#d1d1d1"
     inkscape:document-units="mm"
     inkscape:zoom="3.4388184"
     inkscape:cx="10.323313"
     inkscape:cy="47.254604"
     inkscape:window-width="1318"
     inkscape:window-height="719"
     inkscape:window-x="48"
     inkscape:window-y="27"
     inkscape:window-maximized="1"
     inkscape:current-layer="layer1"
     showguides="true"
     showgrid="false"><sodipodi:guide
       position="31.338526,6.3755642"
       orientation="1,0"
       id="guide1"
       inkscape:locked="false" /></sodipodi:namedview><defs
     id="defs1" /><g
     inkscape:label="Livello 1"
     inkscape:groupmode="layer"
     id="layer1"><circle
       style="fill:#d7eaf4;fill-opacity:1;stroke:#0093db;stroke-width:0.833;stroke-linecap:round;stroke-linejoin:miter;stroke-dasharray:none;stroke-dashoffset:6.03213;stroke-opacity:1;paint-order:markers fill stroke"
       id="path6"
       cx="16"
       cy="16"
       r="15.277828" /><rect
       style="fill:#0093db;fill-opacity:1;stroke:#0093db;stroke-width:0.833001;stroke-linecap:round;stroke-linejoin:miter;stroke-dasharray:none;stroke-dashoffset:6.03213;stroke-opacity:1;paint-order:markers fill stroke"
       id="rect6"
       width="15.063953"
       height="8.0237503"
       x="8.4290314"
       y="8.7825403"
       ry="2.2765462" /><path
       id="rect1"
       style="fill:#0093db;fill-opacity:1;stroke:#d7eaf4;stroke-width:0.677166;stroke-linecap:round;stroke-linejoin:miter;stroke-dasharray:none;stroke-dashoffset:6.03213;stroke-opacity:1;paint-order:markers fill stroke"
       d="m 11.733088,5.9416954 c -2.8319891,0 -4.3937471,0.2984857 -4.3349798,2.2915941 -0.037587,0.1422224 -0.059556,0.2910099 -0.059556,0.4453719 V 22.229585 c 0,0.958402 0.7716658,1.7297 1.7300702,1.7297 h 0.077681 v 1.776679 c 0,0.310502 0.2499098,0.560414 0.5604141,0.560414 h 1.5388265 c 0.310504,0 0.560414,-0.249912 0.560414,-0.560414 v -1.776679 h 8.388086 v 1.776679 c 0,0.310502 0.249908,0.560414 0.560414,0.560414 h 1.539196 c 0.310506,0 0.560414,-0.249912 0.560414,-0.560414 v -1.776679 h 0.05734 c 0.958401,0 1.7297,-0.771298 1.7297,-1.7297 v -4.008348 c 0.01227,-0.188641 0.02034,-0.37878 0.02034,-0.571511 V 9.0500513 c 0,-2.7257242 -1.321558,-3.1083559 -4.374559,-3.1083559 z m -0.37435,1.1981393 h 9.282528 c 0.27298,0 0.492721,0.2201108 0.492721,0.4930904 v 0.04032 c 0,0.2729794 -0.219741,0.4927204 -0.492721,0.4927204 h -9.282528 c -0.27298,0 -0.49272,-0.219741 -0.49272,-0.4927204 v -0.04032 c 0,-0.2729796 0.21974,-0.4930904 0.49272,-0.4930904 z m -0.770893,2.1458495 h 10.793981 c 1.103656,0 1.291357,2.4371108 1.291357,3.6280798 v 0.686554 c 0.01856,0.0523 0.02996,0.10791 0.02996,0.166829 v 1.035009 c 0,0.273259 -0.217433,0.493091 -0.487542,0.493091 h -0.979892 c -0.176183,0.05472 -0.362307,0.464237 -0.555235,0.464237 h -9.391652 c -0.192928,0 -0.378684,-0.409518 -0.554865,-0.464237 H 9.8043745 c -0.2701068,0 -0.4875417,-0.219832 -0.4875417,-0.493091 v -0.142785 c -0.011961,-0.09564 -0.020345,-0.192569 -0.020345,-0.291859 v -1.453748 c 0,-1.190969 0.187701,-3.6280798 1.2913572,-3.6280798 z M 10.205728,19.293236 a 0.34552339,0.32658286 0 0 1 0.345496,0.326631 0.34552339,0.32658286 0 0 1 -0.345496,0.326631 0.34552339,0.32658286 0 0 1 -0.3454971,-0.326631 0.34552339,0.32658286 0 0 1 0.3454971,-0.326631 z m 11.588548,0 a 0.34552339,0.32658286 0 0 1 0.345496,0.326631 0.34552339,0.32658286 0 0 1 -0.345496,0.326631 0.34552339,0.32658286 0 0 1 -0.345496,-0.326631 0.34552339,0.32658286 0 0 1 0.345496,-0.326631 z" /><path
       d="M 13.228355,7.1089969 H 18.773 c 1.136561,0 2.04996,0.079752 2.04996,0.1787314 v 0.6661139 c 0,0.098979 -0.913399,0.1787314 -2.04996,0.1787314 h -5.544645 c -1.136561,0 -2.051315,-0.079752 -2.051315,-0.1787314 V 7.2877283 c 0,-0.098979 0.914754,-0.1787314 2.051315,-0.1787314 z"
       style="fill:#d7eaf4;fill-opacity:1;stroke:none;stroke-width:1.05764;stroke-linecap:round;stroke-linejoin:round;stroke-dasharray:none;stroke-dashoffset:6.03213;stroke-opacity:1;paint-order:markers fill stroke"
       id="path1-1-5" /><path
       id="path1"
       style="fill:#d7eaf4;fill-opacity:1;stroke:none;stroke-width:0.677166;stroke-linecap:round;stroke-linejoin:round;stroke-dasharray:none;stroke-dashoffset:6.03213;stroke-opacity:1;paint-order:markers fill stroke"
       d="m 10.899566,9.2562396 c -1.1036554,0 -1.6028951,1.1452354 -1.6028951,2.3362054 v 1.453378 c 0,0.09929 0.00838,0.196219 0.020345,0.291859 v 1.279149 c 0,0.27326 0.2174354,0.493091 0.4875419,0.493091 h 0.9295842 c 0.176182,0.05472 0.361938,0.553015 0.554866,0.553015 h 6.878481 c 0.02393,-0.963073 0.81581,-1.741907 1.784447,-1.741907 0.774095,-10e-7 1.436049,0.497559 1.683092,1.188892 h 0.580759 c 0.270108,0 0.487542,-0.219831 0.487542,-0.493091 v -2.171373 c 0,-0.05892 -0.0114,-0.114531 -0.02996,-0.166829 v -0.686184 c 0,-1.19097 -0.888682,-2.3362054 -1.992337,-2.3362054 z m 9.101199,2.6535884 c 0.512591,-4.9e-5 0.928141,0.474463 0.928104,1.059793 -2.6e-4,0.251197 -0.07866,0.494122 -0.221206,0.685444 -0.234772,-0.09478 -0.490774,-0.147595 -0.758686,-0.147594 -0.236676,0 -0.463876,0.0413 -0.675456,0.116151 -0.129121,-0.186186 -0.199728,-0.416505 -0.200491,-0.654001 -3.8e-5,-0.585165 0.415288,-1.059609 0.927735,-1.059793 z m -0.04883,2.47396 c -0.718731,0 -1.298293,0.566347 -1.32169,1.279149 h 2.050412 c 0.164848,0 0.3246,-0.361981 0.477555,-0.501968 -0.207344,-0.459182 -0.667829,-0.777181 -1.206277,-0.777181 z"
       sodipodi:nodetypes="ssscsscscscssscssscccscccscscs" /></g></svg>
