<?xml version="1.0" encoding="UTF-8" standalone="no"?>
<!-- Created with Inkscape (http://www.inkscape.org/) -->

<svg
   width="32mm"
   height="32mm"
   viewBox="0 0 32 32"
   version="1.1"
   id="svg1"
   xml:space="preserve"
   inkscape:version="1.3.1 (9b9bdc1480, 2023-11-25, custom)"
   sodipodi:docname="amenity_fire_station.16.svg"
   xmlns:inkscape="http://www.inkscape.org/namespaces/inkscape"
   xmlns:sodipodi="http://sodipodi.sourceforge.net/DTD/sodipodi-0.dtd"
   xmlns="http://www.w3.org/2000/svg"
   xmlns:svg="http://www.w3.org/2000/svg"><sodipodi:namedview
     id="namedview1"
     pagecolor="#ffffff"
     bordercolor="#666666"
     borderopacity="1.0"
     inkscape:showpageshadow="2"
     inkscape:pageopacity="0.0"
     inkscape:pagecheckerboard="0"
     inkscape:deskcolor="#d1d1d1"
     inkscape:document-units="mm"
     showguides="true"
     inkscape:zoom="1.4142136"
     inkscape:cx="-16.617009"
     inkscape:cy="80.256618"
     inkscape:window-width="1318"
     inkscape:window-height="719"
     inkscape:window-x="48"
     inkscape:window-y="27"
     inkscape:window-maximized="1"
     inkscape:current-layer="layer1"><sodipodi:guide
       position="16.225336,-14.837615"
       orientation="1,0"
       id="guide4"
       inkscape:locked="false" /></sodipodi:namedview><defs
     id="defs1" /><g
     inkscape:label="Livello 1"
     inkscape:groupmode="layer"
     id="layer1"><g
       id="path19" /><g
       id="rect22-0"
       transform="matrix(-1,0,0,1,30.661761,0.23016813)" /><g
       id="rect22-7"
       transform="matrix(-1,0,0,1,30.845845,-1.8811487e-4)" /><g
       id="path26" /><g
       id="path52-1"
       transform="matrix(-1,0,0,1,21.996584,0)" /><path
       style="fill:#734a08;fill-opacity:1;stroke:none;stroke-width:0.264583px;stroke-linecap:butt;stroke-linejoin:miter;stroke-opacity:1"
       d="M 12.914761,30.010657 C 4.3635065,23.766042 6.4921684,14.822969 8.2759581,11.213019 10.059748,7.6030701 15.219067,1.9718739 15.219067,1.9718739 c 0,0 -1.828419,4.5238313 -0.906919,7.0216715 0.921501,2.4978406 1.844486,5.1751246 2.363776,3.3879556 0.51929,-1.787168 2.869669,-3.7421661 3.752793,-4.8165278 2.165849,-2.6348586 0.09632,1.793333 2.415454,5.5920848 2.319131,3.798752 3.30581,9.605592 1.722411,12.433806 -1.36547,2.438957 -5.038242,4.905253 -3.452147,2.838005 1.711864,-2.23117 1.579119,-4.485831 0.772429,-6.349234 -0.904791,-2.09001 -2.484932,-5.518145 -2.310598,-2.66667 0.350898,5.739416 -3.560326,3.954796 -3.560326,3.954796 2.01678,-4.086762 -1.589451,-1.775414 -0.457868,-8.323013 -3.226924,4.299246 -6.9040325,5.819075 -2.643311,14.965909 z"
       id="path62"
       sodipodi:nodetypes="czcssszssssccc" /></g></svg>
