<?xml version="1.0" encoding="UTF-8" standalone="no"?>
<!-- Created with Inkscape (http://www.inkscape.org/) -->

<svg
   width="32mm"
   height="32mm"
   viewBox="0 0 32 32"
   version="1.1"
   id="svg1"
   xml:space="preserve"
   inkscape:version="1.3.1 (9b9bdc1480, 2023-11-25, custom)"
   sodipodi:docname="amenity_library.svg"
   xmlns:inkscape="http://www.inkscape.org/namespaces/inkscape"
   xmlns:sodipodi="http://sodipodi.sourceforge.net/DTD/sodipodi-0.dtd"
   xmlns="http://www.w3.org/2000/svg"
   xmlns:svg="http://www.w3.org/2000/svg"><sodipodi:namedview
     id="namedview1"
     pagecolor="#ffffff"
     bordercolor="#666666"
     borderopacity="1.0"
     inkscape:showpageshadow="2"
     inkscape:pageopacity="0.0"
     inkscape:pagecheckerboard="0"
     inkscape:deskcolor="#d1d1d1"
     inkscape:document-units="mm"
     showguides="true"
     inkscape:zoom="2.8284271"
     inkscape:cx="110.48543"
     inkscape:cy="48.967144"
     inkscape:window-width="1318"
     inkscape:window-height="719"
     inkscape:window-x="48"
     inkscape:window-y="27"
     inkscape:window-maximized="1"
     inkscape:current-layer="layer1"><sodipodi:guide
       position="30.86609,17.025411"
       orientation="1,0"
       id="guide4"
       inkscape:locked="false" /><sodipodi:guide
       position="17.727083,5.1447916"
       orientation="0,-1"
       id="guide74"
       inkscape:locked="false" /><sodipodi:guide
       position="6.2894496,22.888968"
       orientation="1,0"
       id="guide75"
       inkscape:locked="false" /></sodipodi:namedview><defs
     id="defs1" /><g
     inkscape:label="Livello 1"
     inkscape:groupmode="layer"
     id="layer1"><g
       id="path19" /><g
       id="rect22-0"
       transform="matrix(-1,0,0,1,30.661761,0.23016813)" /><g
       id="rect22-7"
       transform="matrix(-1,0,0,1,30.845845,-1.8811487e-4)" /><g
       id="path26" /><g
       id="path52-1"
       transform="matrix(-1,0,0,1,21.996584,0)" /><path
       id="rect80"
       style="fill:#734a08;fill-opacity:1;stroke:none;stroke-width:0.696646;stroke-linecap:round;stroke-linejoin:round;stroke-dasharray:none;stroke-dashoffset:6.03213;stroke-opacity:1;paint-order:markers stroke fill"
       d="m 7.0529775,9.69714 -3.955054,2.023664 c -0.5943356,0.304166 -0.5818643,1.044501 0.027828,1.65994 L 14.522224,24.885113 c 0.532911,0.537934 1.340077,0.79675 1.931879,0.650307 L 7.3332143,11.236003 6.9709564,10.296183 Z m -4.7864897,3.568873 c -0.1892001,3.94e-4 -0.3100185,0.207117 -0.310018,0.595626 l -6e-7,2.522134 c 1.8e-6,0.621614 0.318251,1.458614 0.7132867,1.876222 L 14.06574,30.307261 c 0.395037,0.417609 0.713286,0.253499 0.713287,-0.368116 v -3.008399 c 0,-0.621614 -0.309742,-1.466342 -0.713287,-1.875733 L 2.6697559,13.493523 C 2.5184271,13.340001 2.3800078,13.265776 2.2664878,13.266013 Z m 24.3064212,10.2848 -1.013053,0.232392 -5.261525,2.797489 c -0.465988,0.238481 -4.300224,2.188681 -4.300224,2.188681 -0.462705,0.283953 -0.68928,0.333173 -0.934937,0.401315 l -0.01074,0.231904 c 0,0 1.019214,-0.368363 1.426085,-0.576585 z m -1.784926,0.345658 -1.341622,0.422797 -3.151936,1.675564 c -0.465987,0.238482 -4.300224,2.18917 -4.300224,2.18917 -0.462705,0.283952 -0.68928,0.332684 -0.934937,0.400827 l -0.01025,0.232391 c 0,0 1.019215,-0.368362 1.426085,-0.576585 z m 1.792737,0.103991 -1.013052,0.232392 -5.262014,2.797489 c -0.465987,0.238481 -4.300224,2.188681 -4.300224,2.188681 -0.462704,0.283952 -0.68928,0.333173 -0.934937,0.401315 l -0.01025,0.231904 c 0,0 1.019215,-0.368363 1.426085,-0.576586 z m 0.0034,0.585862 -1.013053,0.232391 -5.261525,2.797001 c -0.465988,0.238481 -4.300224,2.18917 -4.300224,2.18917 -0.462705,0.283952 -0.689279,0.333173 -0.934938,0.401315 l -0.01074,0.231904 c 0,0 1.019214,-0.368364 1.426085,-0.576586 z m -4.462801,0.150859 -1.229333,0.387645 -0.577562,0.307089 c -0.465987,0.238482 -4.300224,2.189169 -4.300224,2.189169 -0.462704,0.283953 -0.68928,0.333173 -0.934937,0.401315 l -0.01074,0.231904 c 0,0 1.019215,-0.368362 1.426085,-0.576585 z m -2.627101,0.785543 -0.918338,0.207004 c -1.200055,0.610622 -2.565586,1.305495 -2.565586,1.305495 -0.462704,0.283953 -0.688791,0.333172 -0.934449,0.401315 l -0.01074,0.231904 c 0,0 1.019215,-0.368363 1.426085,-0.576586 z m -4.608778,0.07128 c 0.104288,0.312738 0.169412,0.636213 0.169412,0.918338 v 0.52581 c 0.457253,-0.0066 0.936217,-0.362504 1.343088,-0.570726 l 0.830458,-0.434026 -0.119125,0.02685 -0.409126,-0.287072 -0.08104,0.04052 c -0.465987,0.238481 -1.160661,0.132361 -1.733662,-0.219698 z" /><rect
       style="fill:#734a08;fill-opacity:1;stroke:none;stroke-width:0.713603;stroke-linecap:round;stroke-linejoin:round;stroke-dasharray:none;stroke-dashoffset:6.03213;stroke-opacity:1;paint-order:markers stroke fill"
       id="rect80-2"
       width="12.419373"
       height="19.320709"
       x="4.2520165"
       y="7.6671338"
       ry="1.5637376"
       rx="1.2051409"
       transform="matrix(0.95824859,-0.28593643,0.56271543,0.82665068,0,0)" /><path
       id="rect80-5-2-2"
       style="fill:#734a08;fill-opacity:1;stroke:none;stroke-width:0.696646;stroke-linecap:round;stroke-linejoin:round;stroke-dasharray:none;stroke-dashoffset:6.03213;stroke-opacity:1;paint-order:markers stroke fill"
       d="m 30.823535,18.349053 -1.437369,0.109786 -9.112129,2.637356 c -0.501613,0.149678 -1.165365,-0.08112 -1.664712,-0.53159 0.04562,0.326496 0.05078,0.656422 -5.74e-4,0.933833 l -0.09571,0.517027 c 0.450819,0.07672 0.986559,-0.186037 1.424535,-0.316723 z" /><path
       id="rect80-5-2-9-2"
       style="fill:#734a08;fill-opacity:1;stroke:none;stroke-width:0.696646;stroke-linecap:round;stroke-linejoin:round;stroke-dasharray:none;stroke-dashoffset:6.03213;stroke-opacity:1;paint-order:markers stroke fill"
       d="m 30.801504,18.980003 -1.038443,0.04407 -5.682899,1.792788 c -0.501613,0.149679 -4.626953,1.369631 -4.626953,1.369631 -0.506661,0.194988 -0.738329,0.202044 -0.992286,0.224333 l -0.05256,0.226257 c 0,0 1.069209,-0.17671 1.507185,-0.307395 z"
       sodipodi:nodetypes="cccccccc" /><path
       id="rect80-5-2-9-5-0"
       style="fill:#734a08;fill-opacity:1;stroke:none;stroke-width:0.696646;stroke-linecap:round;stroke-linejoin:round;stroke-dasharray:none;stroke-dashoffset:6.03213;stroke-opacity:1;paint-order:markers stroke fill"
       d="m 30.698469,19.556527 -1.038443,0.04407 -5.682899,1.792789 c -0.501612,0.149678 -4.626953,1.369631 -4.626953,1.369631 -0.506661,0.194987 -0.738327,0.202043 -0.992285,0.224332 l -0.05256,0.226259 c 0,0 1.069209,-0.176708 1.507184,-0.307395 z"
       sodipodi:nodetypes="cccccccc" /><path
       id="rect80-5-2-9-4-5"
       style="fill:#734a08;fill-opacity:1;stroke:none;stroke-width:0.696646;stroke-linecap:round;stroke-linejoin:round;stroke-dasharray:none;stroke-dashoffset:6.03213;stroke-opacity:1;paint-order:markers stroke fill"
       d="m 30.576518,20.106312 -1.038444,0.04407 -5.682898,1.792787 c -0.501613,0.14968 -4.626953,1.369631 -4.626953,1.369631 -0.506661,0.194988 -0.738329,0.202044 -0.992287,0.224334 l -0.05256,0.226256 c 0,0 1.069209,-0.17671 1.507185,-0.307395 z"
       sodipodi:nodetypes="cccccccc" /><path
       id="rect80-5-2-9-5-8-5"
       style="fill:#734a08;fill-opacity:1;stroke:none;stroke-width:0.696646;stroke-linecap:round;stroke-linejoin:round;stroke-dasharray:none;stroke-dashoffset:6.03213;stroke-opacity:1;paint-order:markers stroke fill"
       d="m 30.473483,20.682835 -1.038443,0.04407 -5.682899,1.792788 c -0.501612,0.149679 -4.626953,1.369631 -4.626953,1.369631 -0.506661,0.194988 -0.738327,0.202043 -0.992285,0.224333 l -0.05256,0.226257 c 0,0 1.069209,-0.176709 1.507184,-0.307396 z"
       sodipodi:nodetypes="cccccccc" /><path
       id="rect80-5-2-9-4-9-2"
       style="fill:#734a08;fill-opacity:1;stroke:none;stroke-width:0.696646;stroke-linecap:round;stroke-linejoin:round;stroke-dasharray:none;stroke-dashoffset:6.03213;stroke-opacity:1;paint-order:markers stroke fill"
       d="m 30.39908,21.126463 -1.038442,0.04407 -5.682899,1.792789 c -0.501613,0.149678 -4.626953,1.369631 -4.626953,1.369631 -0.506662,0.194988 -0.738329,0.202043 -0.992286,0.224333 l -0.05256,0.226256 c 0,0 1.069209,-0.176709 1.507184,-0.307395 z"
       sodipodi:nodetypes="cccccccc" /><path
       id="rect80-5-2-9-5-8-6-9"
       style="fill:#734a08;fill-opacity:1;stroke:none;stroke-width:0.696646;stroke-linecap:round;stroke-linejoin:round;stroke-dasharray:none;stroke-dashoffset:6.03213;stroke-opacity:1;paint-order:markers stroke fill"
       d="m 30.296047,21.702986 -1.038444,0.04407 -5.682899,1.792788 c -0.501612,0.149679 -4.626953,1.369631 -4.626953,1.369631 -0.506661,0.194988 -0.738327,0.202043 -0.992285,0.224333 l -0.05256,0.226257 c 0,0 1.069209,-0.17671 1.507184,-0.307396 z"
       sodipodi:nodetypes="cccccccc" /><path
       id="rect81-0"
       style="fill:#734a08;stroke-width:0.532484;stroke-linecap:round;stroke-linejoin:round;stroke-dashoffset:6.03213;paint-order:markers stroke fill"
       d="M 8.8000026,6.4425221 17.901526,19.88515 c 0.322286,0.476008 0.472854,1.363081 0.359708,1.974312 l -0.547576,2.95807 c -0.113146,0.611232 -0.455755,0.714838 -0.768179,0.2323 L 7.93243,11.129253 C 7.6200056,10.646714 7.459577,9.7661701 7.5727233,9.1549393 L 8.0318244,6.6748213 C 8.1449707,6.0635897 8.4777159,5.966515 8.8000026,6.4425221 Z"
       sodipodi:nodetypes="sssssssss" /></g></svg>
