<?xml version="1.0" encoding="UTF-8" standalone="no"?>
<!-- Created with Inkscape (http://www.inkscape.org/) -->

<svg
   width="32mm"
   height="32mm"
   viewBox="0 0 32 32"
   version="1.1"
   id="svg1"
   xml:space="preserve"
   inkscape:version="1.3.1 (9b9bdc1480, 2023-11-25, custom)"
   sodipodi:docname="amenity_theatre.svg"
   xmlns:inkscape="http://www.inkscape.org/namespaces/inkscape"
   xmlns:sodipodi="http://sodipodi.sourceforge.net/DTD/sodipodi-0.dtd"
   xmlns="http://www.w3.org/2000/svg"
   xmlns:svg="http://www.w3.org/2000/svg"><sodipodi:namedview
     id="namedview1"
     pagecolor="#ffffff"
     bordercolor="#666666"
     borderopacity="1.0"
     inkscape:showpageshadow="2"
     inkscape:pageopacity="0.0"
     inkscape:pagecheckerboard="0"
     inkscape:deskcolor="#d1d1d1"
     inkscape:document-units="mm"
     showguides="true"
     inkscape:zoom="2"
     inkscape:cx="-15.5"
     inkscape:cy="35.75"
     inkscape:window-width="1318"
     inkscape:window-height="719"
     inkscape:window-x="48"
     inkscape:window-y="27"
     inkscape:window-maximized="1"
     inkscape:current-layer="layer1"
     showgrid="false"><sodipodi:guide
       position="21.324843,29.746031"
       orientation="0,-1"
       id="guide8"
       inkscape:locked="false" /><sodipodi:guide
       position="18.475006,31.999999"
       orientation="0,-1"
       id="guide9"
       inkscape:locked="false" /></sodipodi:namedview><defs
     id="defs1"><inkscape:perspective
       sodipodi:type="inkscape:persp3d"
       inkscape:vp_x="-183.11487 : 148.50001 : 1"
       inkscape:vp_y="0 : 1000 : 0"
       inkscape:vp_z="-195.51426 : 148.50001 : 1"
       inkscape:persp3d-origin="-189.31457 : 99.000003 : 1"
       id="perspective10172" /><symbol
       id="Recycling"><title
         id="title7498">Recycling</title><g
         style="stroke:none"
         id="g7512"><path
           style="stroke-width:0.26458332"
           inkscape:connector-curvature="0"
           d="m 14.684375,3.9026042 -1.389063,0.79375 -0.926041,-1.5875 C 12.236979,2.8773437 11.972396,2.7119792 11.608594,2.7119792 H 8.8304687 C 9.0289062,2.9104167 9.0619792,2.9765625 9.1611979,3.1419271 L 10.88099,6.1184896 9.4919271,6.9122396 H 12.93151 Z"
           id="path7500" /><path
           style="stroke-width:0.26458332"
           inkscape:connector-curvature="0"
           d="m 14.254427,12.038542 h 1.389063 c 0.826822,0 1.322916,-0.892969 0.926041,-1.5875 l -1.752864,-3.069167 -2.38125,1.3890625 z"
           id="path7502" /><path
           style="stroke-width:0.26458332"
           inkscape:connector-curvature="0"
           d="m 12.170833,17.065625 v -1.5875 h 1.852084 c 0.264583,0 0.529166,-0.132292 0.727604,-0.463021 l 1.389062,-2.38125 C 15.875,12.7 15.775781,12.7 15.610417,12.7 h -3.439584 v -1.5875 l -1.719791,2.976562 z"
           id="path7504" /><path
           style="stroke-width:0.26458332"
           inkscape:connector-curvature="0"
           d="m 5.3578125,12.7 -0.6945313,1.190625 c -0.396875,0.727604 0.099219,1.5875 0.8929688,1.5875 H 9.0619792 V 12.7 Z"
           id="path7506" /><path
           style="stroke-width:0.26458332"
           inkscape:connector-curvature="0"
           d="m 2.0505208,8.4005208 1.3890625,0.79375 -0.9260416,1.5875002 C 2.38125,11.013281 2.38125,11.310937 2.5466146,11.641667 l 1.3559896,2.38125 c 0.066146,-0.264584 0.099219,-0.33073 0.1984375,-0.496094 L 5.8208333,10.55026 7.2098958,11.34401 5.4901042,8.3674479 Z"
           id="path7508" /><path
           style="stroke-width:0.26458332"
           inkscape:connector-curvature="0"
           d="M 9.2604167,4.6302083 8.5989583,3.4395833 c -0.4299479,-0.6945312 -1.4221354,-0.6945312 -1.8190104,0 l -1.7528646,3.0427084 2.38125,1.3890625 z"
           id="path7510" /></g></symbol><inkscape:perspective
       id="perspective8310"
       inkscape:persp3d-origin="372.04724 : 350.7874 : 1"
       inkscape:vp_z="744.09447 : 526.18111 : 1"
       inkscape:vp_y="0 : 1000 : 0"
       inkscape:vp_x="0 : 526.18111 : 1"
       sodipodi:type="inkscape:persp3d" /><inkscape:perspective
       id="perspective5302"
       inkscape:persp3d-origin="372.04724 : 350.7874 : 1"
       inkscape:vp_z="744.09447 : 526.18111 : 1"
       inkscape:vp_y="0 : 1000 : 0"
       inkscape:vp_x="0 : 526.18111 : 1"
       sodipodi:type="inkscape:persp3d" /><symbol
       id="ToiletsMen"><title
         id="title4892">Toilets - Men</title><g
         style="stroke:none"
         id="g4898"><circle
           cx="36"
           cy="9"
           r="5"
           id="circle4894" /><path
           d="m 24,22 v 15.5 a 2.25,2.25 0 0 0 4.5,0 V 23 h 1 v 39.5 a 3,3 0 0 0 6,0 V 40 h 1 v 22.5 a 3,3 0 0 0 6,0 V 23 h 1 v 14.5 a 2.25,2.25 0 0 0 4.5,0 V 22 A 7,7 0 0 0 41,15 H 31 a 7,7 0 0 0 -7,7 z"
           id="path4896"
           inkscape:connector-curvature="0" /></g></symbol><inkscape:perspective
       sodipodi:type="inkscape:persp3d"
       inkscape:vp_x="0 : 100 : 1"
       inkscape:vp_y="0 : 1000 : 0"
       inkscape:vp_z="200 : 100 : 1"
       inkscape:persp3d-origin="100 : 66.666667 : 1"
       id="perspective2879" /></defs><g
     inkscape:label="Livello 1"
     inkscape:groupmode="layer"
     id="layer1"><g
       id="path19" /><g
       id="rect22-0"
       transform="matrix(-1,0,0,1,30.661761,0.23016813)" /><g
       id="rect22-7"
       transform="matrix(-1,0,0,1,30.845845,-1.8811487e-4)" /><g
       id="path26" /><g
       id="path52"
       transform="translate(-38.081357,-6.611757)" /><g
       id="path52-1"
       transform="matrix(-1,0,0,1,21.996584,0)" /><path
       id="path23"
       style="color:#000000;fill:#734a08;stroke-linecap:round;stroke-linejoin:round;-inkscape-stroke:none;paint-order:markers fill stroke"
       d="M 15.029574 8.8087646 C 13.668041 10.415571 11.55999 11.545897 9.2144246 11.891781 C 6.7725676 12.240653 4.3348032 11.702978 2.5512655 10.446908 A 0.36303631 0.36303631 0 0 0 2.3202718 10.381795 A 0.36303631 0.36303631 0 0 0 1.9833415 10.685653 C 1.6217606 12.866027 1.6147695 15.262924 1.9606038 17.651636 C 2.5116188 21.448051 3.8665543 24.76642 5.6389323 27.082585 C 7.4113098 29.398748 9.640679 30.743045 11.903149 30.414681 C 14.16561 30.086252 15.920509 28.163758 16.961239 25.439274 C 17.328056 24.478996 17.607864 23.412134 17.794779 22.269442 C 17.569709 22.042447 17.359619 21.802855 17.165361 21.550623 C 16.992691 22.881017 16.693925 24.107973 16.284277 25.180375 C 15.299622 27.758062 13.713355 29.417415 11.798763 29.695345 C 9.8841632 29.973221 7.8914872 28.833151 6.2146077 26.641785 C 4.5377281 24.450419 3.2152286 21.235314 2.6799398 17.547249 C 2.3679282 15.392155 2.3844129 13.247903 2.6628866 11.270113 C 4.5576164 12.419727 6.9146263 12.954608 9.318811 12.611117 C 11.49704 12.289911 13.430368 11.286966 14.882812 9.8800171 C 14.924175 9.5219879 14.972014 9.164652 15.029574 8.8087646 z M 12.358419 15.375289 A 1.9091293 0.88561696 28.347497 0 0 12.004435 15.392859 A 1.9091293 0.88561696 28.347497 0 0 11.56932 15.66106 A 1.9091293 0.88561696 28.347497 0 0 12.828674 17.346745 A 1.9091293 0.88561696 28.347497 0 0 14.929321 17.474386 A 1.9091293 0.88561696 28.347497 0 0 13.66945 15.788184 A 1.9091293 0.88561696 28.347497 0 0 12.358419 15.375289 z M 7.5370076 16.054317 A 0.88561696 1.9091293 45.134957 0 0 6.0523437 16.906978 A 0.88561696 1.9091293 45.134957 0 0 5.3247396 18.881535 A 0.88561696 1.9091293 45.134957 0 0 7.3023966 18.162716 A 0.88561696 1.9091293 45.134957 0 0 8.0305176 16.187642 A 0.88561696 1.9091293 45.134957 0 0 7.5370076 16.054317 z M 11.322823 22.193994 C 11.122164 22.194701 10.920216 22.209317 10.718209 22.238436 C 9.102155 22.471408 7.7502043 23.593114 7.2217814 25.138 A 0.76300001 0.76300001 0 0 0 7.6977214 26.106934 A 0.76300001 0.76300001 0 0 0 8.2801147 26.06921 A 0.76300001 0.76300001 0 0 0 8.6645874 25.630994 C 9.0085654 24.625353 9.8853482 23.899587 10.937317 23.747904 C 11.98929 23.596252 13.032177 24.045667 13.646195 24.913208 A 0.76300001 0.76300001 0 0 0 14.71073 25.094592 A 0.76300001 0.76300001 0 0 0 14.892631 24.032125 C 14.067277 22.865989 12.727438 22.189046 11.322823 22.193994 z " /><path
       id="path23-8"
       style="fill:#734a08;fill-opacity:1;stroke:none;stroke-width:0.525691;stroke-linecap:round;stroke-linejoin:round;stroke-dasharray:none;stroke-dashoffset:0;stroke-opacity:1;paint-order:markers fill stroke"
       d="M 30.925514,4.4556097 A 8.7767735,7.1249402 9.9879461 0 1 23.956987,5.753319 8.7767735,7.1249402 9.9879461 0 1 17.85179,2.1547694 7.642488,13.693827 9.9879461 0 0 15.685307,8.6585641 7.642488,13.693827 9.9879461 0 0 20.836853,23.470273 7.642488,13.693827 9.9879461 0 0 30.738508,11.309584 7.642488,13.693827 9.9879461 0 0 30.925514,4.4556097 Z M 19.130407,7.6019281 a 2.4120147,1.1188982 67.171088 0 1 1.668158,1.825952 2.4120147,1.1188982 67.171088 0 1 -0.0954,2.6571549 2.4120147,1.1188982 67.171088 0 1 -1.966959,-1.788847 2.4120147,1.1188982 67.171088 0 1 0.0954,-2.6571559 2.4120147,1.1188982 67.171088 0 1 0.298801,-0.0371 z m 8.804064,1.758797 a 1.1188982,2.4120147 46.729486 0 1 0.426914,0.185899 1.1188982,2.4120147 46.729486 0 1 -0.989219,2.4677379 1.1188982,2.4120147 46.729486 0 1 -2.523078,0.838592 1.1188982,2.4120147 46.729486 0 1 0.989218,-2.467737 1.1188982,2.4120147 46.729486 0 1 2.096165,-1.0244919 z M 25.062192,18.230527 A 3.5894005,3.5894005 0 0 1 21.577389,19.60497 3.5894005,3.5894005 0 0 1 18.76673,17.127605 Z" /></g></svg>
