<?xml version="1.0" encoding="UTF-8" standalone="no"?>
<!-- Created with Inkscape (http://www.inkscape.org/) -->

<svg
   width="32mm"
   height="32mm"
   viewBox="0 0 32 32"
   version="1.1"
   id="svg1"
   xml:space="preserve"
   inkscape:version="1.3.1 (9b9bdc1480, 2023-11-25, custom)"
   sodipodi:docname="amenity_ice_cream.2.svg"
   xmlns:inkscape="http://www.inkscape.org/namespaces/inkscape"
   xmlns:sodipodi="http://sodipodi.sourceforge.net/DTD/sodipodi-0.dtd"
   xmlns="http://www.w3.org/2000/svg"
   xmlns:svg="http://www.w3.org/2000/svg"><sodipodi:namedview
     id="namedview1"
     pagecolor="#ffffff"
     bordercolor="#666666"
     borderopacity="1.0"
     inkscape:showpageshadow="2"
     inkscape:pageopacity="0.0"
     inkscape:pagecheckerboard="0"
     inkscape:deskcolor="#d1d1d1"
     inkscape:document-units="mm"
     showguides="true"
     inkscape:zoom="2"
     inkscape:cx="6.25"
     inkscape:cy="68.25"
     inkscape:window-width="1318"
     inkscape:window-height="719"
     inkscape:window-x="48"
     inkscape:window-y="27"
     inkscape:window-maximized="1"
     inkscape:current-layer="layer1"><sodipodi:guide
       position="30.86609,17.025411"
       orientation="1,0"
       id="guide4"
       inkscape:locked="false" /><sodipodi:guide
       position="17.727083,5.1447916"
       orientation="0,-1"
       id="guide74"
       inkscape:locked="false" /><sodipodi:guide
       position="6.2894496,22.888968"
       orientation="1,0"
       id="guide75"
       inkscape:locked="false" /></sodipodi:namedview><defs
     id="defs1" /><g
     inkscape:label="Livello 1"
     inkscape:groupmode="layer"
     id="layer1"><g
       id="path19" /><g
       id="rect22-0"
       transform="matrix(-1,0,0,1,30.661761,0.23016813)" /><g
       id="rect22-7"
       transform="matrix(-1,0,0,1,30.845845,-1.8811487e-4)" /><g
       id="path26" /><g
       id="path52-1"
       transform="matrix(-1,0,0,1,21.996584,0)" /><g
       id="path77-4"
       transform="matrix(0.84196588,0.8409965,-0.83496841,0.85034103,16.872797,-9.2471726)"><path
         style="color:#000000;fill:#c7bdac;stroke-linecap:round;stroke-linejoin:round;stroke-dashoffset:6.03213;-inkscape-stroke:none;paint-order:markers stroke fill"
         d="m 15.346138,9.6070948 c 0,1.4141442 -0.236313,2.7105912 -1.226605,3.6692852 -0.107164,0.103745 2.054592,1.301939 1.359422,2.04999 -0.511182,0.550067 -1.860543,-1.216718 -2.667625,-1.469746 -0.550683,-0.172645 -0.739921,0.749693 -0.974587,0.748528 -1.731052,-0.0086 -4.4533671,-2.540517 -4.4533674,-4.6862913 -1e-7,-2.1457742 1.7638023,-4.5213887 3.9095764,-4.5213886 2.145774,-2e-7 4.053186,2.0638484 4.053186,4.2096227 z"
         id="path79"
         sodipodi:nodetypes="ssssssss" /><path
         id="path78"
         style="color:#000000;fill:#734a08;stroke-linecap:round;stroke-linejoin:round;stroke-dashoffset:6.03213;-inkscape-stroke:none;paint-order:markers stroke fill"
         d="M 8.5313787,6.0518809 C 7.5057353,6.8990646 6.8496531,8.1795834 6.8496531,9.6072613 c 0,1.5769337 0.8023923,2.9712307 2.017334,3.8033737 -0.00996,0.06165 -0.00647,0.124706 0.010267,0.184871 L 13.89037,30.284352 c 0.124408,0.411443 0.707885,0.409297 0.829142,-0.0031 L 19.035934,15.557031 C 18.72026,15.500211 18.468198,15.301027 18.268471,15.095944 L 14.298882,28.63364 9.8749263,13.904283 l 0.08902,-4.5e-5 1.2333097,1.070394 c 0.376618,0.327386 0.961558,0.286686 1.288923,-0.0899 0.181325,-0.208601 0.223941,-0.47279 0.184821,-0.730252 l 1.732016,1.505316 c 0.376342,0.327149 0.962884,0.284916 1.289975,-0.09135 l 0.05634,-0.06634 c 0.129279,-0.148729 0.237949,-0.326059 0.281306,-0.552111 0.04328,-0.225622 -0.01955,-0.542829 -0.241229,-0.736527 l -0.0011,-0.0013 -0.47959,-0.421101 1.023611,2.95e-4 0.365766,1.05e-4 0.487003,1.4e-4 1.143709,1.027916 -8.26e-4,0.0024 c 0.301413,0.263722 0.540341,0.535108 0.950936,0.525448 0.161934,-0.03579 0.32691,-0.128026 0.460387,-0.279721 l 0.0049,-0.0064 c 0.277409,-0.315267 0.309467,-0.740745 0.07145,-0.954666 l -0.298946,-0.268319 -0.660656,-0.533969 0.39148,0.02825 0.298926,0.260804 c 0.03163,-0.109226 0.09327,-0.3376 0.03903,-0.437568 1.308824,-0.71981 2.19678,-2.110611 2.196726,-3.7098231 7.9e-5,-2.3377461 -1.89535,-4.2327889 -4.233097,-4.2327095 -1.056891,0.00249 -2.073989,0.4001358 -2.852421,1.1150258 -0.833786,-0.8227149 -1.97793,-1.3320615 -3.235855,-1.3320615 -1.110417,0 -2.1317318,0.3967697 -2.9294544,1.0556902 z M 8.9647768,6.5816758 C 9.6411943,6.0241301 10.509634,5.6902451 11.460609,5.6902451 c 1.085769,0 2.064565,0.4350653 2.772072,1.1415151 -0.589818,0.7440619 -0.911989,1.6649106 -0.91536,2.614385 6.02e-4,1.0277478 0.374722,2.0202138 1.053276,2.7921158 -0.267586,0.295736 -0.480071,0.496786 -0.82708,0.699198 l 0.580999,0.504523 c 0.0011,0.002 0.002,0.0038 0.0032,0.0058 l 1.203546,1.03049 c 0.334548,0.250412 -0.147753,1.073869 -0.660225,0.626509 l -2.14156,-1.861171 c -0.0786,-0.06831 -0.179168,-0.106006 -0.283303,-0.106107 l -0.517338,-0.10675 c -0.39968,4.96e-4 -0.465086,0.335009 -0.163617,0.597423 l 0.345508,0.309857 c 0.08593,0.0564 0.243912,0.237728 0.04407,0.427929 -0.199838,0.190201 -0.386876,0.0292 -0.412998,0.0065 l -1.353696,-1.176246 c -0.07872,-0.0692 -0.179887,-0.107539 -0.2846983,-0.107757 l -0.3353356,-0.0502 C 8.3588122,12.374295 7.5429676,11.092852 7.5429677,9.6075707 c 0,-1.2226814 0.5521294,-2.3090504 1.4218091,-3.0258949 z M 20.074856,15.13968 c -0.0427,0.03229 -0.08303,0.06957 -0.120411,0.112063 -0.251846,0.286217 -0.263029,0.689014 -0.02502,0.902933 l 0.286067,0.257144 c 0.238017,0.213921 0.632823,0.155755 0.88467,-0.130463 0.251848,-0.286217 0.262417,-0.68906 0.02441,-0.902981 L 20.83845,15.121844 c -0.09669,-0.08691 -0.218891,-0.129581 -0.347155,-0.129621 -0.140597,-4.5e-5 -0.288339,0.05059 -0.416439,0.147457 z"
         sodipodi:nodetypes="ssccccccccccccccccccccccccccccccccccccssssccccccccsccccsccccssscccsccssc" /></g></g></svg>
