<?xml version="1.0" encoding="UTF-8" standalone="no"?>
<!-- Created with Inkscape (http://www.inkscape.org/) -->

<svg
   width="32mm"
   height="32mm"
   viewBox="0 0 32 32"
   version="1.1"
   id="svg1"
   xml:space="preserve"
   inkscape:version="1.3.1 (9b9bdc1480, 2023-11-25, custom)"
   sodipodi:docname="amenity_shelter.16.svg"
   xmlns:inkscape="http://www.inkscape.org/namespaces/inkscape"
   xmlns:sodipodi="http://sodipodi.sourceforge.net/DTD/sodipodi-0.dtd"
   xmlns="http://www.w3.org/2000/svg"
   xmlns:svg="http://www.w3.org/2000/svg"><sodipodi:namedview
     id="namedview1"
     pagecolor="#ffffff"
     bordercolor="#666666"
     borderopacity="1.0"
     inkscape:showpageshadow="2"
     inkscape:pageopacity="0.0"
     inkscape:pagecheckerboard="0"
     inkscape:deskcolor="#d1d1d1"
     inkscape:document-units="mm"
     showguides="true"
     inkscape:zoom="3.860735"
     inkscape:cx="61.387275"
     inkscape:cy="55.559369"
     inkscape:window-width="1318"
     inkscape:window-height="719"
     inkscape:window-x="48"
     inkscape:window-y="27"
     inkscape:window-maximized="1"
     inkscape:current-layer="layer1"
     showgrid="false"><sodipodi:guide
       position="21.324843,29.746031"
       orientation="0,-1"
       id="guide8"
       inkscape:locked="false" /><sodipodi:guide
       position="18.475006,31.999999"
       orientation="0,-1"
       id="guide9"
       inkscape:locked="false" /></sodipodi:namedview><defs
     id="defs1"><inkscape:perspective
       sodipodi:type="inkscape:persp3d"
       inkscape:vp_x="-183.11487 : 148.50001 : 1"
       inkscape:vp_y="0 : 1000 : 0"
       inkscape:vp_z="-195.51426 : 148.50001 : 1"
       inkscape:persp3d-origin="-189.31457 : 99.000003 : 1"
       id="perspective10172" /><symbol
       id="Recycling"><title
         id="title7498">Recycling</title><g
         style="stroke:none"
         id="g7512"><path
           style="stroke-width:0.26458332"
           inkscape:connector-curvature="0"
           d="m 14.684375,3.9026042 -1.389063,0.79375 -0.926041,-1.5875 C 12.236979,2.8773437 11.972396,2.7119792 11.608594,2.7119792 H 8.8304687 C 9.0289062,2.9104167 9.0619792,2.9765625 9.1611979,3.1419271 L 10.88099,6.1184896 9.4919271,6.9122396 H 12.93151 Z"
           id="path7500" /><path
           style="stroke-width:0.26458332"
           inkscape:connector-curvature="0"
           d="m 14.254427,12.038542 h 1.389063 c 0.826822,0 1.322916,-0.892969 0.926041,-1.5875 l -1.752864,-3.069167 -2.38125,1.3890625 z"
           id="path7502" /><path
           style="stroke-width:0.26458332"
           inkscape:connector-curvature="0"
           d="m 12.170833,17.065625 v -1.5875 h 1.852084 c 0.264583,0 0.529166,-0.132292 0.727604,-0.463021 l 1.389062,-2.38125 C 15.875,12.7 15.775781,12.7 15.610417,12.7 h -3.439584 v -1.5875 l -1.719791,2.976562 z"
           id="path7504" /><path
           style="stroke-width:0.26458332"
           inkscape:connector-curvature="0"
           d="m 5.3578125,12.7 -0.6945313,1.190625 c -0.396875,0.727604 0.099219,1.5875 0.8929688,1.5875 H 9.0619792 V 12.7 Z"
           id="path7506" /><path
           style="stroke-width:0.26458332"
           inkscape:connector-curvature="0"
           d="m 2.0505208,8.4005208 1.3890625,0.79375 -0.9260416,1.5875002 C 2.38125,11.013281 2.38125,11.310937 2.5466146,11.641667 l 1.3559896,2.38125 c 0.066146,-0.264584 0.099219,-0.33073 0.1984375,-0.496094 L 5.8208333,10.55026 7.2098958,11.34401 5.4901042,8.3674479 Z"
           id="path7508" /><path
           style="stroke-width:0.26458332"
           inkscape:connector-curvature="0"
           d="M 9.2604167,4.6302083 8.5989583,3.4395833 c -0.4299479,-0.6945312 -1.4221354,-0.6945312 -1.8190104,0 l -1.7528646,3.0427084 2.38125,1.3890625 z"
           id="path7510" /></g></symbol><inkscape:perspective
       id="perspective8310"
       inkscape:persp3d-origin="372.04724 : 350.7874 : 1"
       inkscape:vp_z="744.09447 : 526.18111 : 1"
       inkscape:vp_y="0 : 1000 : 0"
       inkscape:vp_x="0 : 526.18111 : 1"
       sodipodi:type="inkscape:persp3d" /><inkscape:perspective
       id="perspective5302"
       inkscape:persp3d-origin="372.04724 : 350.7874 : 1"
       inkscape:vp_z="744.09447 : 526.18111 : 1"
       inkscape:vp_y="0 : 1000 : 0"
       inkscape:vp_x="0 : 526.18111 : 1"
       sodipodi:type="inkscape:persp3d" /><symbol
       id="ToiletsMen"><title
         id="title4892">Toilets - Men</title><g
         style="stroke:none"
         id="g4898"><circle
           cx="36"
           cy="9"
           r="5"
           id="circle4894" /><path
           d="m 24,22 v 15.5 a 2.25,2.25 0 0 0 4.5,0 V 23 h 1 v 39.5 a 3,3 0 0 0 6,0 V 40 h 1 v 22.5 a 3,3 0 0 0 6,0 V 23 h 1 v 14.5 a 2.25,2.25 0 0 0 4.5,0 V 22 A 7,7 0 0 0 41,15 H 31 a 7,7 0 0 0 -7,7 z"
           id="path4896"
           inkscape:connector-curvature="0" /></g></symbol></defs><g
     inkscape:label="Livello 1"
     inkscape:groupmode="layer"
     id="layer1"><g
       id="path19" /><g
       id="rect22-0"
       transform="matrix(-1,0,0,1,30.661761,0.23016813)" /><g
       id="rect22-7"
       transform="matrix(-1,0,0,1,30.845845,-1.8811487e-4)" /><g
       id="path26" /><g
       id="path52"
       transform="translate(-38.081357,-6.611757)" /><g
       id="path52-1"
       transform="matrix(-1,0,0,1,21.996584,0)" /><path
       id="path13"
       style="color:#000000;fill:#0092db;fill-opacity:1;stroke:none;stroke-linecap:round;-inkscape-stroke:none"
       d="M 15.958199 10.897009 C 12.725152 13.534356 9.4540806 15.354196 5.773291 16.806209 L 5.8652751 17.252177 L 8.2537598 17.252177 L 8.2537598 28.445292 C 8.2535868 28.932928 8.6492759 29.328099 9.13691 29.327926 C 9.624544 29.328099 10.019716 28.932927 10.019543 28.445292 L 10.019543 17.247526 C 12.389999 15.883936 14.177819 15.222138 15.958199 15.241964 C 17.738579 15.222138 19.526399 15.883936 21.896855 17.247526 L 21.896855 28.445292 C 21.896682 28.932927 22.291854 29.328099 22.779488 29.327926 C 23.267122 29.328099 23.662811 28.932928 23.662638 28.445292 L 23.662638 17.252177 L 26.051123 17.252177 L 26.143107 16.806209 C 22.462318 15.354196 19.191246 13.534356 15.958199 10.897009 z " /><path
       style="fill:none;stroke:#0092db;stroke-width:0.751674;stroke-linecap:round;stroke-linejoin:miter;stroke-dasharray:1.50335, 1.50335;stroke-dashoffset:0;stroke-opacity:1"
       d="M 7.3475213,4.5516125 2.5086835,9.0162619"
       id="path15" /><path
       style="fill:none;stroke:#0092db;stroke-width:0.751674;stroke-linecap:round;stroke-linejoin:miter;stroke-dasharray:1.50335, 1.50335;stroke-dashoffset:0;stroke-opacity:1"
       d="M 12.397182,3.5953236 7.5583437,8.059973"
       id="path15-1" /><path
       style="fill:none;stroke:#0092db;stroke-width:0.751674;stroke-linecap:round;stroke-linejoin:miter;stroke-dasharray:1.50335, 1.50335;stroke-dashoffset:0;stroke-opacity:1"
       d="M 8.1927099,10.173122 3.3538721,14.637771"
       id="path15-7" /><path
       style="fill:none;stroke:#0092db;stroke-width:0.751674;stroke-linecap:round;stroke-linejoin:miter;stroke-dasharray:1.50335, 1.50335;stroke-dashoffset:0;stroke-opacity:1"
       d="M 15.535673,7.5649605 10.696835,12.02961"
       id="path15-6" /><path
       style="fill:none;stroke:#0092db;stroke-width:0.751674;stroke-linecap:round;stroke-linejoin:miter;stroke-dasharray:1.50335, 1.50335;stroke-dashoffset:0;stroke-opacity:1"
       d="M 24.264676,5.3652486 19.425838,9.829898"
       id="path15-9" /><path
       style="fill:none;stroke:#0092db;stroke-width:0.751674;stroke-linecap:round;stroke-linejoin:miter;stroke-dasharray:1.50335, 1.50335;stroke-dashoffset:0;stroke-opacity:1"
       d="M 30.423431,3.3239252 25.584593,7.7885746"
       id="path15-2" /><path
       style="fill:none;stroke:#0092db;stroke-width:0.751674;stroke-linecap:round;stroke-linejoin:miter;stroke-dasharray:1.50335, 1.50335;stroke-dashoffset:0;stroke-opacity:1"
       d="M 29.121128,8.6646844 24.28229,13.129334"
       id="path15-0" /><path
       style="fill:none;stroke:#0092db;stroke-width:0.751674;stroke-linecap:round;stroke-linejoin:miter;stroke-dasharray:1.50335, 1.50335;stroke-dashoffset:0;stroke-opacity:1"
       d="M 22.792335,3.3239251 17.953497,7.7885747"
       id="path15-0-0" /><path
       style="fill:none;stroke:#0092db;stroke-width:0.751674;stroke-linecap:round;stroke-linejoin:miter;stroke-dasharray:1.50335, 1.50335;stroke-dashoffset:0;stroke-opacity:1"
       d="M 17.233022,2.8997397 C 14.730175,5.3155504 14.589998,5.4518113 14.589998,5.4518113"
       id="path15-0-0-8"
       sodipodi:nodetypes="cc" /><path
       style="fill:none;stroke:#0092db;stroke-width:0.751674;stroke-linecap:round;stroke-linejoin:miter;stroke-dasharray:1.50335, 1.50335;stroke-dashoffset:0;stroke-opacity:1"
       d="M 4.5522654,2.7570869 C 2.0494184,5.1728976 1.9092414,5.3091585 1.9092414,5.3091585"
       id="path15-0-0-8-1"
       sodipodi:nodetypes="cc" /><path
       style="fill:none;stroke:#0092db;stroke-width:0.751674;stroke-linecap:round;stroke-linejoin:miter;stroke-dasharray:1.50335, 1.50335;stroke-dashoffset:0;stroke-opacity:1"
       d="m 23.391778,10.430004 c -2.502847,2.41581 -2.643024,2.552071 -2.643024,2.552071"
       id="path15-0-0-8-4"
       sodipodi:nodetypes="cc" /><path
       style="fill:none;stroke:#0092db;stroke-width:0.751674;stroke-linecap:round;stroke-linejoin:miter;stroke-dasharray:1.50335, 1.50335;stroke-dashoffset:0;stroke-opacity:1"
       d="M 29.325524,12.229135 C 26.822677,14.644946 26.6825,14.781207 26.6825,14.781207"
       id="path15-0-0-8-3"
       sodipodi:nodetypes="cc" /></g></svg>
