<?xml version="1.0" encoding="UTF-8" standalone="no"?>
<!-- Created with Inkscape (http://www.inkscape.org/) -->

<svg
   width="32mm"
   height="32mm"
   viewBox="0 0 32 32"
   version="1.1"
   id="svg1"
   xml:space="preserve"
   inkscape:version="1.3.1 (9b9bdc1480, 2023-11-25, custom)"
   sodipodi:docname="amenity_parking_disabled.svg"
   xmlns:inkscape="http://www.inkscape.org/namespaces/inkscape"
   xmlns:sodipodi="http://sodipodi.sourceforge.net/DTD/sodipodi-0.dtd"
   xmlns="http://www.w3.org/2000/svg"
   xmlns:svg="http://www.w3.org/2000/svg"><sodipodi:namedview
     id="namedview1"
     pagecolor="#ffffff"
     bordercolor="#666666"
     borderopacity="1.0"
     inkscape:showpageshadow="2"
     inkscape:pageopacity="0.0"
     inkscape:pagecheckerboard="0"
     inkscape:deskcolor="#d1d1d1"
     inkscape:document-units="mm"
     showguides="true"
     inkscape:zoom="1.4142136"
     inkscape:cx="105.00536"
     inkscape:cy="92.984541"
     inkscape:window-width="1318"
     inkscape:window-height="719"
     inkscape:window-x="48"
     inkscape:window-y="27"
     inkscape:window-maximized="1"
     inkscape:current-layer="layer1"><sodipodi:guide
       position="30.86609,17.025411"
       orientation="1,0"
       id="guide4"
       inkscape:locked="false" /><sodipodi:guide
       position="17.727083,5.1447916"
       orientation="0,-1"
       id="guide74"
       inkscape:locked="false" /></sodipodi:namedview><defs
     id="defs1" /><g
     inkscape:label="Livello 1"
     inkscape:groupmode="layer"
     id="layer1"><g
       id="path19" /><g
       id="rect22-0"
       transform="matrix(-1,0,0,1,30.661761,0.23016813)" /><g
       id="rect22-7"
       transform="matrix(-1,0,0,1,30.845845,-1.8811487e-4)" /><g
       id="path26" /><g
       id="path52-1"
       transform="matrix(-1,0,0,1,21.996584,0)" /><g
       id="path7-6"
       transform="translate(-31.080925,-0.54616641)" /><g
       id="g96"
       transform="translate(0.00530533,0.05075156)"><path
         d="m 6.3226574,15.77547 h 7.6463516 c 1.903241,0 3.405799,-0.567633 4.708016,-1.73629 1.469168,-1.335607 2.103581,-2.904945 2.103581,-5.1420876 0,-4.5744554 -2.704605,-7.1454995 -7.51279,-7.1454995 H 3.2173704 V 26.093036 h 3.105287 z m 0,-2.737995 V 4.4895879 h 6.4776946 c 2.971727,0 4.741407,1.6027288 4.741407,4.2739431 0,2.671215 -1.76968,4.273944 -4.741407,4.273944 z"
         id="text94"
         style="font-size:39.0941px;line-height:1.25;font-family:Helvetica;-inkscape-font-specification:Helvetica;fill:#0093db;fill-opacity:1;stroke:none;stroke-width:0.834755"
         aria-label="P" /><path
         id="path94"
         style="fill:#0093db;fill-opacity:1;stroke:none;stroke-width:0.115224;stroke-linecap:round;stroke-linejoin:round;stroke-dasharray:none;stroke-dashoffset:6.03213;stroke-opacity:1;paint-order:markers stroke fill"
         d="m 21.721688,14.329481 c -0.366445,0 -0.442574,0.01519 -0.680751,0.135871 -0.333743,0.169103 -0.637357,0.500586 -0.760908,0.830807 -0.187186,0.5003 -0.0892,1.156921 0.230463,1.544733 0.158526,0.192318 0.558261,0.465459 0.777875,0.531584 0.08706,0.02622 0.312974,0.04288 0.50208,0.03697 0.60875,-0.01905 1.111232,-0.35005 1.36986,-0.90235 0.170386,-0.363855 0.16943,-0.921203 -0.0023,-1.290464 -0.153073,-0.329151 -0.434511,-0.610847 -0.764852,-0.765722 -0.219957,-0.103122 -0.321007,-0.121437 -0.671508,-0.121437 z m 0.0485,3.744007 c -0.533875,-0.0171 -1.011167,0.27532 -1.271977,0.8051 l -0.150054,0.304667 0.0027,2.532685 0.0027,2.532811 0.147521,0.299728 c 0.175263,0.35601 0.43433,0.587378 0.802315,0.716714 0.237101,0.08334 0.385908,0.08979 2.079231,0.08979 h 1.823947 l 0.916407,1.817998 c 0.98515,1.954236 1.118313,2.157946 1.47053,2.251064 0.235691,0.06231 0.237857,0.06234 0.476501,0.0074 0.419865,-0.09674 0.691079,-0.441939 0.701645,-0.893235 0.0054,-0.230076 -0.03999,-0.334961 -0.766352,-1.771143 -0.424616,-0.839641 -0.926925,-1.82571 -1.116068,-2.191317 -0.581261,-1.123553 -0.46531,-1.070029 -2.325396,-1.074184 l -1.421145,-0.0032 -0.01368,-0.286558 -0.01368,-0.28656 1.159786,-0.0035 c 0.746228,-0.0023 1.22343,-0.02272 1.338203,-0.05736 0.401713,-0.121263 0.612801,-0.660558 0.387228,-0.989212 -0.240865,-0.350936 -0.220903,-0.346567 -1.620584,-0.361649 l -1.25463,-0.01355 -0.0143,-1.201319 -0.01419,-1.201319 -0.164236,-0.297955 c -0.191497,-0.34746 -0.446425,-0.562848 -0.78585,-0.663645 -0.127266,-0.0378 -0.253516,-0.05823 -0.376718,-0.06217 z m -2.31539,2.639305 -0.150181,0.02925 c -0.259488,0.05044 -0.960339,0.41656 -1.344154,0.702278 -0.911143,0.678268 -1.60256,1.740878 -1.836233,2.822156 -0.167971,0.777259 -0.127427,1.735812 0.105094,2.48672 0.134744,0.435133 0.494601,1.131574 0.768504,1.487372 0.77608,1.008119 1.890963,1.666816 3.145059,1.858264 1.091049,0.166557 2.360491,-0.107084 3.27599,-0.706331 0.391109,-0.256002 0.898971,-0.712517 1.165989,-1.048098 0.264904,-0.332923 0.598065,-0.885823 0.598065,-0.992511 0,-0.04015 -0.113608,-0.299598 -0.252496,-0.576536 l -0.252618,-0.503471 h -0.266172 -0.266298 l -0.106113,0.26364 c -0.404655,1.004648 -1.225547,1.764687 -2.248785,2.082269 -0.294448,0.09138 -0.436037,0.106235 -0.985672,0.10308 -0.570163,-0.0032 -0.682412,-0.01746 -1.005805,-0.127006 -0.58478,-0.19811 -0.921778,-0.411688 -1.378091,-0.873227 -0.696516,-0.704492 -0.996806,-1.423013 -0.998337,-2.388583 -4.37e-4,-0.277357 0.02361,-0.607357 0.05344,-0.733429 0.226246,-0.956295 0.791713,-1.733964 1.632614,-2.245112 l 0.320876,-0.195008 0.01267,-0.722919 z" /></g></g></svg>
