<?xml version="1.0" encoding="UTF-8" standalone="no"?>
<!-- Created with Inkscape (http://www.inkscape.org/) -->

<svg
   width="32mm"
   height="32mm"
   viewBox="0 0 32 32"
   version="1.1"
   id="svg1"
   xml:space="preserve"
   inkscape:version="1.3.1 (9b9bdc1480, 2023-11-25, custom)"
   sodipodi:docname="amenity_library.16.svg"
   xmlns:inkscape="http://www.inkscape.org/namespaces/inkscape"
   xmlns:sodipodi="http://sodipodi.sourceforge.net/DTD/sodipodi-0.dtd"
   xmlns="http://www.w3.org/2000/svg"
   xmlns:svg="http://www.w3.org/2000/svg"><sodipodi:namedview
     id="namedview1"
     pagecolor="#ffffff"
     bordercolor="#666666"
     borderopacity="1.0"
     inkscape:showpageshadow="2"
     inkscape:pageopacity="0.0"
     inkscape:pagecheckerboard="0"
     inkscape:deskcolor="#d1d1d1"
     inkscape:document-units="mm"
     showguides="true"
     inkscape:zoom="2.8284271"
     inkscape:cx="34.825009"
     inkscape:cy="48.967144"
     inkscape:window-width="1318"
     inkscape:window-height="719"
     inkscape:window-x="48"
     inkscape:window-y="27"
     inkscape:window-maximized="1"
     inkscape:current-layer="layer1"><sodipodi:guide
       position="30.86609,17.025411"
       orientation="1,0"
       id="guide4"
       inkscape:locked="false" /><sodipodi:guide
       position="17.727083,5.1447916"
       orientation="0,-1"
       id="guide74"
       inkscape:locked="false" /><sodipodi:guide
       position="6.2894496,22.888968"
       orientation="1,0"
       id="guide75"
       inkscape:locked="false" /></sodipodi:namedview><defs
     id="defs1" /><g
     inkscape:label="Livello 1"
     inkscape:groupmode="layer"
     id="layer1"><g
       id="path19" /><g
       id="rect22-0"
       transform="matrix(-1,0,0,1,30.661761,0.23016813)" /><g
       id="rect22-7"
       transform="matrix(-1,0,0,1,30.845845,-1.8811487e-4)" /><g
       id="path26" /><g
       id="path52-1"
       transform="matrix(-1,0,0,1,21.996584,0)" /><rect
       style="fill:#734a08;fill-opacity:1;stroke:none;stroke-width:0.755328;stroke-linecap:round;stroke-linejoin:round;stroke-dasharray:none;stroke-dashoffset:6.03213;stroke-opacity:1;paint-order:markers stroke fill"
       id="rect80"
       width="13.145539"
       height="20.450401"
       x="-3.9973049"
       y="10.328309"
       ry="1.6551701"
       rx="1.2756062"
       transform="matrix(0.89019463,-0.45558042,0.70378229,0.71041572,0,0)" /><path
       id="rect80-5-2"
       style="fill:#734a08;fill-opacity:1;stroke:none;stroke-width:0.737379;stroke-linecap:round;stroke-linejoin:round;stroke-dasharray:none;stroke-dashoffset:6.03213;stroke-opacity:1;paint-order:markers stroke fill"
       d="M 29.608529 18.602482 L 28.133683 18.993673 L 19.158004 23.494173 C 18.664769 23.746599 17.929479 23.634274 17.322974 23.261629 C 17.433359 23.592654 17.502291 23.935042 17.502291 24.233663 L 17.502291 24.790218 C 17.986281 24.783249 18.493249 24.406519 18.92391 24.186121 L 29.608529 18.602482 z " /><path
       id="rect80-5-2-9"
       style="fill:#734a08;fill-opacity:1;stroke:none;stroke-width:0.737379;stroke-linecap:round;stroke-linejoin:round;stroke-dasharray:none;stroke-dashoffset:6.03213;stroke-opacity:1;paint-order:markers stroke fill"
       d="m 29.707159,19.263412 -1.072308,0.245943 -5.569292,2.960798 c -0.493235,0.252426 -4.551802,2.316939 -4.551802,2.316939 -0.48976,0.300556 -0.729517,0.352533 -0.989539,0.42466 l -0.01111,0.245611 c 0,0 1.078775,-0.389914 1.509436,-0.610312 z"
       sodipodi:nodetypes="cccccccc" /><path
       id="rect80-5-2-9-5"
       style="fill:#734a08;fill-opacity:1;stroke:none;stroke-width:0.737379;stroke-linecap:round;stroke-linejoin:round;stroke-dasharray:none;stroke-dashoffset:6.03213;stroke-opacity:1;paint-order:markers stroke fill"
       d="m 29.710997,19.883302 -1.072308,0.245943 -5.569292,2.960798 c -0.493235,0.252426 -4.551802,2.316939 -4.551802,2.316939 -0.48976,0.300556 -0.729517,0.352533 -0.989539,0.42466 l -0.01111,0.245611 c 0,0 1.078775,-0.389914 1.509436,-0.610312 z"
       sodipodi:nodetypes="cccccccc" /><path
       id="rect80-5-2-9-4"
       style="fill:#734a08;fill-opacity:1;stroke:none;stroke-width:0.737379;stroke-linecap:round;stroke-linejoin:round;stroke-dasharray:none;stroke-dashoffset:6.03213;stroke-opacity:1;paint-order:markers stroke fill"
       d="m 29.689994,20.479007 -1.072308,0.245943 -5.569292,2.960798 c -0.493235,0.252426 -4.551802,2.316939 -4.551802,2.316939 -0.48976,0.300556 -0.729517,0.352533 -0.989539,0.42466 l -0.01111,0.245611 c 0,0 1.078775,-0.389914 1.509436,-0.610312 z"
       sodipodi:nodetypes="cccccccc" /><path
       id="rect80-5-2-9-5-8"
       style="fill:#734a08;fill-opacity:1;stroke:none;stroke-width:0.737379;stroke-linecap:round;stroke-linejoin:round;stroke-dasharray:none;stroke-dashoffset:6.03213;stroke-opacity:1;paint-order:markers stroke fill"
       d="m 29.693832,21.098897 -1.072308,0.245943 -5.569292,2.960798 c -0.493235,0.252426 -4.551802,2.316939 -4.551802,2.316939 -0.48976,0.300556 -0.729517,0.352533 -0.989539,0.42466 l -0.01111,0.245611 c 0,0 1.078775,-0.389914 1.509436,-0.610312 z"
       sodipodi:nodetypes="cccccccc" /><path
       id="rect80-5-2-9-4-9"
       style="fill:#734a08;fill-opacity:1;stroke:none;stroke-width:0.737379;stroke-linecap:round;stroke-linejoin:round;stroke-dasharray:none;stroke-dashoffset:6.03213;stroke-opacity:1;paint-order:markers stroke fill"
       d="m 29.701865,21.574954 -1.072308,0.245943 -5.569292,2.960798 c -0.493235,0.252426 -4.551802,2.316939 -4.551802,2.316939 -0.48976,0.300556 -0.729517,0.352533 -0.989539,0.42466 l -0.01111,0.245611 c 0,0 1.078775,-0.389914 1.509436,-0.610312 z"
       sodipodi:nodetypes="cccccccc" /><path
       id="rect80-5-2-9-5-8-6"
       style="fill:#734a08;fill-opacity:1;stroke:none;stroke-width:0.737379;stroke-linecap:round;stroke-linejoin:round;stroke-dasharray:none;stroke-dashoffset:6.03213;stroke-opacity:1;paint-order:markers stroke fill"
       d="m 29.705703,22.194844 -1.072308,0.245943 -5.569292,2.960798 c -0.493235,0.252426 -4.551802,2.316939 -4.551802,2.316939 -0.48976,0.300556 -0.729517,0.352533 -0.989539,0.42466 l -0.01111,0.245611 c 0,0 1.078775,-0.389914 1.509436,-0.610312 z"
       sodipodi:nodetypes="cccccccc" /><path
       id="rect81"
       style="fill:#734a08;stroke-width:0.679898;stroke-linecap:round;stroke-linejoin:round;stroke-dashoffset:6.03213;paint-order:markers stroke fill"
       transform="matrix(0.6872014,0.72646695,0,1,0,0)"
       d="M 6.392218,5.8096879 23.945526,5.2951941 c 0.621567,-0.018218 1.098305,0.5296949 1.098305,1.1876566 v 3.1842234 c 0,0.6579619 -0.489844,1.1876569 -1.098305,1.1876569 l -17.553308,0 c -0.608461,0 -1.0983051,-0.529695 -1.0983051,-1.1876569 V 6.9973445 c 0,-0.6579617 0.4767379,-1.1694382 1.0983051,-1.1876566 z"
       sodipodi:nodetypes="sssssssss" /></g></svg>
