<?xml version="1.0" encoding="UTF-8" standalone="no"?>
<!-- Created with Inkscape (http://www.inkscape.org/) -->

<svg
   width="32mm"
   height="32mm"
   viewBox="0 0 32 32"
   version="1.1"
   id="svg1"
   xml:space="preserve"
   inkscape:version="1.3.1 (9b9bdc1480, 2023-11-25, custom)"
   sodipodi:docname="amenity_fast_food.16.svg"
   xmlns:inkscape="http://www.inkscape.org/namespaces/inkscape"
   xmlns:sodipodi="http://sodipodi.sourceforge.net/DTD/sodipodi-0.dtd"
   xmlns="http://www.w3.org/2000/svg"
   xmlns:svg="http://www.w3.org/2000/svg"><sodipodi:namedview
     id="namedview1"
     pagecolor="#ffffff"
     bordercolor="#666666"
     borderopacity="1.0"
     inkscape:showpageshadow="2"
     inkscape:pageopacity="0.0"
     inkscape:pagecheckerboard="0"
     inkscape:deskcolor="#d1d1d1"
     inkscape:document-units="mm"
     showguides="true"
     inkscape:zoom="2.8284271"
     inkscape:cx="94.045202"
     inkscape:cy="47.906484"
     inkscape:window-width="1318"
     inkscape:window-height="719"
     inkscape:window-x="48"
     inkscape:window-y="27"
     inkscape:window-maximized="1"
     inkscape:current-layer="layer1"><sodipodi:guide
       position="16.225336,-14.837615"
       orientation="1,0"
       id="guide4"
       inkscape:locked="false" /></sodipodi:namedview><defs
     id="defs1" /><g
     inkscape:label="Livello 1"
     inkscape:groupmode="layer"
     id="layer1"><g
       id="path19" /><g
       id="rect22-0"
       transform="matrix(-1,0,0,1,30.661761,0.23016813)" /><g
       id="rect22-7"
       transform="matrix(-1,0,0,1,30.845845,-1.8811487e-4)" /><g
       id="path26" /><g
       id="path52-1"
       transform="matrix(-1,0,0,1,21.996584,0)" /><path
       style="fill:none;stroke:#734a08;stroke-width:0.965;stroke-linecap:butt;stroke-linejoin:miter;stroke-dasharray:none;stroke-opacity:1"
       d="M -33.180658,15.786262 -35.265197,0.85149247 h 11.682009 L -25.667727,15.786262 h -3.756466 z"
       id="path59-4"
       sodipodi:nodetypes="cccccc" /><path
       id="path56"
       style="color:#000000;fill:#734a08;fill-opacity:1;-inkscape-stroke:none"
       d="m -23.17595,-11.475527 c -0.266196,1.98e-4 -0.481943,0.215944 -0.482141,0.482141 -8.7e-5,0.266399 0.215743,0.48246 0.482141,0.482658 h 1.164787 v 2.6075929 a 2.1243045,2.1243045 0 0 0 -1.512569,1.243335 h -2.921785 -0.0155 -0.01395 c -0.961967,0.034582 -2.886497,0.8183566 -3.882967,3.9175906 h 1.664498 c 0.274183,-1.3462574 1.133102,-2.213254 2.27738,-2.2536095 h 2.89388 a 2.1243045,2.1243045 0 0 0 1.950269,1.2898437 2.1243045,2.1243045 0 0 0 1.950785,-1.2898437 h 4.312915 c 0.459379,-2.813e-4 0.83171,-0.3726122 0.831991,-0.8319906 -2.8e-4,-0.4593787 -0.372611,-0.8317091 -0.831991,-0.8319905 h -4.308264 a 2.1243045,2.1243045 0 0 0 -1.429887,-1.2288656 v -2.6220623 h 1.16427 c 0.266601,8.7e-5 0.482745,-0.216057 0.482658,-0.482658 -1.98e-4,-0.266398 -0.216259,-0.482228 -0.482658,-0.482141 z" /><path
       id="rect59"
       style="fill:#734a08;fill-opacity:1;stroke:none;stroke-width:0.964999;stroke-linecap:round;stroke-linejoin:round;stroke-dasharray:none;stroke-dashoffset:6.03213;stroke-opacity:1;paint-order:markers fill stroke"
       d="m 12.868982,7.2765584 c -5.1328208,0 -9.2650676,2.7917536 -9.2650676,6.2590496 v 1.513086 H 28.346073 v -1.513086 c 0,-3.467296 -4.132246,-6.2590496 -9.265067,-6.2590496 z M 3.6871134,22.537066 c 0.1611596,0.827508 0.5660061,2.161508 1.1544515,2.853115 H 27.108423 c 0.588538,-0.691627 0.993802,-2.025575 1.154968,-2.853115 z"
       sodipodi:nodetypes="ssccsssccccc" /><rect
       style="fill:#734a08;fill-opacity:1;stroke:none;stroke-width:0.964999;stroke-linecap:round;stroke-linejoin:round;stroke-dasharray:none;stroke-dashoffset:6.03213;stroke-opacity:1;paint-order:markers fill stroke"
       id="rect60"
       width="26.927525"
       height="2.5415065"
       x="2.3701191"
       y="17.605665"
       rx="0.47231451"
       ry="2.5415065" /></g></svg>
