<?xml version="1.0" encoding="UTF-8" standalone="no"?>
<!-- Created with Inkscape (http://www.inkscape.org/) -->

<svg
   width="32mm"
   height="32mm"
   viewBox="0 0 32 32"
   version="1.1"
   id="svg1"
   xml:space="preserve"
   sodipodi:docname="amenity_police.svg"
   inkscape:version="1.3.1 (9b9bdc1480, 2023-11-25, custom)"
   xmlns:inkscape="http://www.inkscape.org/namespaces/inkscape"
   xmlns:sodipodi="http://sodipodi.sourceforge.net/DTD/sodipodi-0.dtd"
   xmlns="http://www.w3.org/2000/svg"
   xmlns:svg="http://www.w3.org/2000/svg"><sodipodi:namedview
     id="namedview1"
     pagecolor="#ffffff"
     bordercolor="#666666"
     borderopacity="1.0"
     inkscape:showpageshadow="2"
     inkscape:pageopacity="0.0"
     inkscape:pagecheckerboard="0"
     inkscape:deskcolor="#d1d1d1"
     inkscape:document-units="mm"
     inkscape:zoom="2.0000001"
     inkscape:cx="25.249999"
     inkscape:cy="61.749998"
     inkscape:window-width="1318"
     inkscape:window-height="719"
     inkscape:window-x="48"
     inkscape:window-y="27"
     inkscape:window-maximized="1"
     inkscape:current-layer="layer1" /><defs
     id="defs1"><inkscape:perspective
       sodipodi:type="inkscape:persp3d"
       inkscape:vp_x="0 : 290 : 1"
       inkscape:vp_y="0 : 1000 : 0"
       inkscape:vp_z="580 : 290 : 1"
       inkscape:persp3d-origin="290 : 193.33333 : 1"
       id="perspective2441" /><inkscape:perspective
       id="perspective3452"
       inkscape:persp3d-origin="30 : 20 : 1"
       inkscape:vp_z="60 : 30 : 1"
       inkscape:vp_y="0 : 1000 : 0"
       inkscape:vp_x="0 : 30 : 1"
       sodipodi:type="inkscape:persp3d" /><symbol
       viewBox="244.5 110 489 219.9"
       id="symbol-university"><path
         id="path4460"
         d="M79,43l57,119c0,0,21-96,104-96s124,106,124,106l43-133l82-17L0,17L79,43z" /><path
         id="path4462"
         d="M94,176l-21,39"
         stroke-width="20"
         stroke="#000000"
         fill="none" /><path
         id="path4464"
         d="M300,19c0,10.5-22.6,19-50.5,19S199,29.5,199,19s22.6-19,50.5-19S300,8.5,300,19z" /><path
         id="path4466"
         d="M112,216l-16-38L64,88c0,0-9-8-4-35s16-24,16-24"
         stroke-width="20"
         stroke="#000000"
         ill="none" /></symbol><inkscape:perspective
       id="perspective4471"
       inkscape:persp3d-origin="372.04724 : 350.78739 : 1"
       inkscape:vp_z="744.09448 : 526.18109 : 1"
       inkscape:vp_y="0 : 1000 : 0"
       inkscape:vp_x="0 : 526.18109 : 1"
       sodipodi:type="inkscape:persp3d" /><inkscape:perspective
       id="perspective4668"
       inkscape:persp3d-origin="6 : 4 : 1"
       inkscape:vp_z="12 : 6 : 1"
       inkscape:vp_y="0 : 1000 : 0"
       inkscape:vp_x="0 : 6 : 1"
       sodipodi:type="inkscape:persp3d" /><inkscape:perspective
       id="perspective2893"
       inkscape:persp3d-origin="0.5 : 0.33333333 : 1"
       inkscape:vp_z="1 : 0.5 : 1"
       inkscape:vp_y="0 : 1000 : 0"
       inkscape:vp_x="0 : 0.5 : 1"
       sodipodi:type="inkscape:persp3d" /><inkscape:perspective
       id="perspective3898"
       inkscape:persp3d-origin="0.5 : 0.33333333 : 1"
       inkscape:vp_z="1 : 0.5 : 1"
       inkscape:vp_y="0 : 1000 : 0"
       inkscape:vp_x="0 : 0.5 : 1"
       sodipodi:type="inkscape:persp3d" /><inkscape:perspective
       id="perspective4011"
       inkscape:persp3d-origin="0.5 : 0.33333333 : 1"
       inkscape:vp_z="1 : 0.5 : 1"
       inkscape:vp_y="0 : 1000 : 0"
       inkscape:vp_x="0 : 0.5 : 1"
       sodipodi:type="inkscape:persp3d" /></defs><g
     inkscape:label="Livello 1"
     inkscape:groupmode="layer"
     id="layer1"><g
       id="path19"
       transform="translate(-33.676671,-0.88572981)" /><g
       id="rect22-0"
       transform="matrix(-1,0,0,1,-3.01491,-0.65556168)" /><g
       id="rect22-7"
       transform="matrix(-1,0,0,1,-2.830826,-0.88591792)" /><g
       id="path26"
       transform="translate(-33.676671,-0.88572981)" /><g
       id="path52-1"
       transform="matrix(-1,0,0,1,-11.680087,-0.88572981)" /><g
       inkscape:label="Livello 1"
       id="layer1-2-6"
       transform="matrix(0.45560341,0,0,0.45560341,-2.1257745,18.571721)"><g
         id="path19-9-6"
         transform="translate(-33.676671,-0.88572981)" /><g
         id="rect22-0-1-9"
         transform="matrix(-1,0,0,1,-3.01491,-0.65556168)" /><g
         id="rect22-7-2-3"
         transform="matrix(-1,0,0,1,-2.830826,-0.88591792)" /><g
         id="path26-7-7"
         transform="translate(-33.676671,-0.88572981)" /><g
         id="path52-1-0-4"
         transform="matrix(-1,0,0,1,-11.680087,-0.88572981)" /></g><g
       id="g11"
       transform="translate(0.03006232,-0.87741232)"><path
         id="path6-0"
         style="color:#000000;fill:#734a08;fill-opacity:1;stroke-linecap:round;stroke-dashoffset:6.03213;-inkscape-stroke:none;paint-order:markers fill stroke"
         d="m 12.119674,16.407784 c 0.173861,0.341299 0.346522,0.690559 0.533817,1.044381 1.62833,1.305776 2.659584,3.287274 2.632914,5.484936 -0.03596,2.963377 -2.4505,5.557461 -4.102592,6.454387 2.683507,-1.052182 4.595586,-3.669138 4.595586,-6.71587 0,-2.678855 -1.478855,-5.024668 -3.659725,-6.267834 z m -7.4067834,0.183451 c -2.012972,1.282225 -3.3553507,3.532004 -3.3553507,6.084383 0,3.038311 1.9015424,5.649184 4.5733642,6.707085 C 5.8132835,29.156733 5.7474429,28.91001 5.7474528,28.650964 5.7474305,28.053118 6.092826,27.518963 6.6357707,27.162683 4.8969543,26.418321 3.6876302,24.696502 3.6876302,22.675618 c 0,-1.705135 0.8611019,-3.196147 2.1745443,-4.067451 C 5.6667736,18.524881 5.4896823,18.412605 5.3319743,18.258834 4.9784059,17.914091 4.7738911,17.181454 4.7128906,16.591235 Z" /><path
         id="path6-0-4"
         style="color:#000000;fill:#734a08;fill-opacity:1;stroke-linecap:round;stroke-dashoffset:6.03213;-inkscape-stroke:none;paint-order:markers fill stroke"
         d="m 20.680252,5.1495173 c 0.371029,0.095131 0.747239,0.1964251 1.136545,0.2897531 2.056158,-0.3587832 4.224712,0.1771219 5.856195,1.649769 2.199931,1.9857491 2.550528,5.5122706 2.131558,7.3448506 0.984223,-2.70917 0.284341,-5.8737664 -2.001908,-7.8876282 -2.010197,-1.7706982 -4.747991,-2.211535 -7.12239,-1.3967445 z m -4.509154,5.6096557 c -0.368382,2.358061 0.183538,4.922067 2.098828,6.609166 2.27993,2.008295 5.496015,2.307152 8.055908,1.001496 -0.247313,-0.0611 -0.475972,-0.174778 -0.670352,-0.346012 -0.448636,-0.395154 -0.621159,-1.007408 -0.529628,-1.650329 -1.707906,0.812782 -3.799301,0.582145 -5.31576,-0.753641 -1.279523,-1.127079 -1.580188,-2.828399 -1.365836,-4.389922 -0.191656,0.09158 -0.392963,0.150251 -0.612595,0.166953 -0.492398,0.03744 -1.177347,-0.293356 -1.660565,-0.637711 z"
         sodipodi:nodetypes="ccscsccscccsccc" /><path
         id="path6"
         style="color:#000000;fill:#734a08;stroke-linecap:round;stroke-dashoffset:6.03213;-inkscape-stroke:none;paint-order:markers fill stroke"
         d="m 9.803536,9.7942342 0.384473,0.9766848 a 0.71100003,0.71100003 0 0 1 -0.3482995,0.898653 v 1.342037 c 0,0.09009 -0.028427,0.170485 -0.077515,0.233061 H 9.7616781 C 9.5633385,13.1841 9.3505484,13.134763 9.1208903,13.098425 c -0.00306,-1.92e-4 -0.00623,-3.35e-4 -0.0093,-5.16e-4 -0.00605,-0.02759 -0.00982,-0.05624 -0.00982,-0.0863 V 11.598258 A 0.71100003,0.71100003 0 0 1 8.8656087,11.292334 L 8.470284,10.287227 c -0.1267182,0.190529 -0.2005045,0.418545 -0.2005045,0.661975 v 2.062407 c 0,0.05234 0.0037,0.103852 0.010335,0.154512 -1.4488715,0.290251 -3.0548109,1.426595 -3.1424438,2.598291 -0.044797,0.598957 0.1615262,1.780467 0.6325195,2.253093 0.6354275,0.637628 1.5885671,0.582796 2.7646892,0.67076 0.9796243,0.07327 1.9341156,0.217136 2.6453166,-0.03462 1.353802,0.87924 2.23486,2.410298 2.214335,4.151168 -0.02028,1.720406 -0.914939,3.215605 -2.261877,4.067968 -0.956987,0.12663 -1.3635929,-0.0068 -2.4649662,-0.159163 -1.3708057,1e-6 -2.4820592,0.894926 -2.4820191,1.998844 -4.07e-5,1.103919 1.111213,1.998844 2.4820191,1.998845 0.9736482,-7e-5 1.2357983,-0.309242 2.8887132,-1.19786 1.652911,-0.888618 4.131789,-3.591681 4.168221,-6.681246 0.02667,-2.261732 -1.004071,-4.30129 -2.632398,-5.645133 -0.740349,-1.439383 -1.246416,-2.857075 -2.562634,-3.609599 0.0917,-0.16911 0.144177,-0.361844 0.144177,-0.565857 v -2.062407 c 0,-0.543313 -0.370734,-1.008592 -0.8702312,-1.1549678 z m -1.1022583,5.3531618 0.4826578,0.02997 c 0.034119,0.0021 0.060015,0.03151 0.057878,0.06563 l -0.082166,1.308964 c -0.00214,0.03412 -0.030993,0.06001 -0.065112,0.05788 L 8.6113607,16.57935 c -0.034119,-0.0021 -0.060015,-0.03151 -0.057878,-0.06563 l 0.082166,-1.308448 c 0.00214,-0.03412 0.03151,-0.06001 0.065629,-0.05788 z" /><path
         id="path6-6"
         style="color:#000000;fill:#734a08;stroke-linecap:round;stroke-dashoffset:6.03213;-inkscape-stroke:none;paint-order:markers fill stroke"
         d="m 14.419792,3.0437419 c -0.294292,0.00564 -0.584993,0.1183572 -0.807186,0.3291788 l 0.288354,-0.057878 a 0.71100003,0.71100003 0 0 1 0.836642,0.5565552 0.71100003,0.71100003 0 0 1 0.01292,0.1462443 l 1.533756,1.2195638 c 0.05029,0.039987 0.08765,0.088159 0.111621,0.1405599 -0.132581,0.1545334 -0.255122,0.3294137 -0.365869,0.5198649 -0.07118,-0.00553 -0.142128,-0.032571 -0.205155,-0.082682 L 14.356746,4.6477783 a 0.71100003,0.71100003 0 0 1 -0.177767,0.060461 l -0.767395,0.153479 c 0.0716,0.1205314 0.164643,0.2306741 0.280087,0.322461 l 1.614371,1.2836426 c 0.113079,0.089906 0.237867,0.1557497 0.368453,0.1984375 -0.430028,1.1916732 -0.450508,2.6087376 0.212391,3.2943725 0.417485,0.4318111 1.437039,1.0636831 2.10323,1.0262941 0.898773,-0.05044 1.491485,-0.798718 2.339392,-1.618506 0.706249,-0.6828235 1.448742,-1.2997837 1.733745,-1.9983276 1.55698,-0.4262098 3.285955,-0.06624 4.57233,1.1069092 1.27126,1.1593575 1.793065,2.8223344 1.533757,4.3950814 -0.541912,0.798867 -0.912265,1.01364 -1.758549,1.734777 -0.911699,1.023677 -0.982011,2.448586 -0.157613,3.182752 0.824345,0.734228 2.231259,0.499677 3.142961,-0.523999 0.647504,-0.727136 0.591079,-1.128475 1.02681,-2.953825 C 30.85868,12.48644 30.488994,8.8376833 28.20603,6.75566 26.534776,5.2315043 24.325984,4.6449213 22.239469,4.9671387 20.387421,4.4892153 18.775624,3.7860606 17.050639,4.8555176 16.983828,4.7554062 16.900775,4.6642405 16.802075,4.5857666 L 15.187703,3.302124 C 14.962172,3.1228078 14.689637,3.0385698 14.419792,3.0437419 Z m 3.477824,3.6240682 c 0.01187,2.262e-4 0.02413,0.004 0.03462,0.011369 l 1.072803,0.7539591 c 0.02797,0.019652 0.03464,0.05781 0.01499,0.085783 l -0.27802,0.3958415 c -0.01965,0.027972 -0.05781,0.034638 -0.08578,0.014986 l -1.07332,-0.7539591 c -0.02797,-0.019652 -0.03464,-0.05781 -0.01499,-0.085783 l 0.27802,-0.3958416 c 0.01228,-0.017483 0.03189,-0.026732 0.05168,-0.026355 z" /><path
         id="rect8-9"
         style="color:#000000;fill:#734a08;stroke-linecap:round;stroke-dashoffset:6.03213;-inkscape-stroke:none;paint-order:markers fill stroke"
         d="M 8.9064889,-4.5491458 C 8.7345034,-4.3411438 8.630895,-4.0750966 8.630895,-3.7869647 l 2.846e-4,2.0623381 c 0,0.6585873 0.5423893,1.20335751 1.2009768,1.20335752 0.2794666,0 0.5376516,-0.0993815 0.7431496,-0.26259268 L 9.6621508,-1.0929154 a 0.71100003,0.71100003 0 0 1 -0.4460494,-0.9007484 0.71100003,0.71100003 0 0 1 0.246772,-0.3347341 l -3.69e-5,-0.7649484 A 0.71100003,0.71100003 0 0 1 9.4343905,-3.1045133 0.71100003,0.71100003 0 0 1 9.1541704,-4.0694999 L 9.65274,-4.9748186 c -0.2978965,0.045457 -0.5614292,0.2021459 -0.7462511,0.4256728 z m 2.0051781,0.2348331 -0.511956,0.9291846 a 0.71100003,0.71100003 0 0 1 -0.198464,0.2206437 l -1.57e-4,0.7539636 0.834259,0.2823438 2.9e-5,-1.6589865 c 0,-0.1884208 -0.04462,-0.3676908 -0.123711,-0.5271492 z"
         transform="rotate(49.825503)" /><g
         id="path8-1"><path
           style="color:#000000;fill:#4d4d4d;stroke-linecap:round;-inkscape-stroke:none"
           d="m 7.7295232,6.418053 1.8343446,4.662816"
           id="path9" /></g><g
         id="path8-1-6"
         transform="translate(-0.03666288,-0.04951532)"><path
           style="color:#000000;fill:#4d4d4d;stroke-linecap:round;-inkscape-stroke:none"
           d="m 7.7295232,6.418053 1.8343446,4.662816"
           id="path9-3" /></g><path
         style="color:#000000;fill:#734a08;fill-opacity:1;stroke-linecap:round;-inkscape-stroke:none"
         d="M 7.5546875,6.0175781 A 0.41100001,0.41100001 0 0 0 7.3242187,6.5507812 L 9.1582031,11.212891 A 0.41100001,0.41100001 0 0 0 9.6914063,11.445313 0.41100001,0.41100001 0 0 0 9.921875,10.912109 L 8.0878906,6.25 A 0.41100001,0.41100001 0 0 0 7.5546875,6.0175781 Z"
         id="path8" /><g
         id="path8-1-7"
         transform="rotate(100.146,11.876531,7.9026031)"
         inkscape:transform-center-x="-2.4885693"
         inkscape:transform-center-y="-0.42991848"><path
           style="color:#000000;fill:#4d4d4d;stroke-linecap:round;-inkscape-stroke:none"
           d="m 7.7295232,6.418053 1.8343446,4.662816"
           id="path9-7" /></g><g
         id="path8-1-7-2"
         transform="rotate(100.146,11.8917,7.8555416)"
         inkscape:transform-center-x="-2.4885693"
         inkscape:transform-center-y="-0.42991848"><path
           style="color:#000000;fill:#4d4d4d;stroke-linecap:round;-inkscape-stroke:none"
           d="m 7.7295232,6.418053 1.8343446,4.662816"
           id="path9-7-9" /></g><path
         style="color:#000000;fill:#734a08;fill-opacity:1;stroke-linecap:round;-inkscape-stroke:none"
         d="M 14.493401,3.9804053 A 0.41100001,0.41100001 0 0 0 14.009135,3.659613 L 9.0968613,4.643654 A 0.41100001,0.41100001 0 0 0 8.7741463,5.1275762 0.41100001,0.41100001 0 0 0 9.2584134,5.4483686 L 14.170686,4.4643274 a 0.41100001,0.41100001 0 0 0 0.322715,-0.4839221 z"
         id="path8-7"
         inkscape:transform-center-x="-2.5100709"
         inkscape:transform-center-y="-0.44989215" /></g></g></svg>
