<?xml version="1.0" encoding="UTF-8" standalone="no"?>
<!-- Created with Inkscape (http://www.inkscape.org/) -->

<svg
   width="32mm"
   height="32mm"
   viewBox="0 0 32 32"
   version="1.1"
   id="svg1"
   xml:space="preserve"
   inkscape:version="1.3.1 (9b9bdc1480, 2023-11-25, custom)"
   sodipodi:docname="amenity_nursery.svg"
   xmlns:inkscape="http://www.inkscape.org/namespaces/inkscape"
   xmlns:sodipodi="http://sodipodi.sourceforge.net/DTD/sodipodi-0.dtd"
   xmlns="http://www.w3.org/2000/svg"
   xmlns:svg="http://www.w3.org/2000/svg"><sodipodi:namedview
     id="namedview1"
     pagecolor="#ffffff"
     bordercolor="#666666"
     borderopacity="1.0"
     inkscape:showpageshadow="2"
     inkscape:pageopacity="0.0"
     inkscape:pagecheckerboard="0"
     inkscape:deskcolor="#d1d1d1"
     inkscape:document-units="mm"
     showguides="true"
     inkscape:zoom="2.8284271"
     inkscape:cx="6.5407377"
     inkscape:cy="66.644814"
     inkscape:window-width="1318"
     inkscape:window-height="719"
     inkscape:window-x="48"
     inkscape:window-y="27"
     inkscape:window-maximized="1"
     inkscape:current-layer="layer1"><sodipodi:guide
       position="30.86609,17.025411"
       orientation="1,0"
       id="guide4"
       inkscape:locked="false" /><sodipodi:guide
       position="17.727083,5.1447916"
       orientation="0,-1"
       id="guide74"
       inkscape:locked="false" /></sodipodi:namedview><defs
     id="defs1" /><g
     inkscape:label="Livello 1"
     inkscape:groupmode="layer"
     id="layer1"><g
       id="path19" /><g
       id="rect22-0"
       transform="matrix(-1,0,0,1,30.661761,0.23016813)" /><g
       id="rect22-7"
       transform="matrix(-1,0,0,1,30.845845,-1.8811487e-4)" /><g
       id="path26" /><g
       id="path52-1"
       transform="matrix(-1,0,0,1,21.996584,0)" /><g
       id="g94"
       transform="translate(0.46012394,-0.13753152)"
       style="fill:#39ac39;fill-opacity:1"><circle
         style="fill:#39ac39;fill-opacity:1;stroke:none;stroke-width:0.749097;stroke-linecap:round;stroke-linejoin:round;stroke-dasharray:none;stroke-dashoffset:6.03213;stroke-opacity:1;paint-order:markers stroke fill"
         id="path92"
         cx="15.717648"
         cy="5.7984371"
         r="4.017622" /><path
         id="rect92"
         style="fill:#39ac39;fill-opacity:1;stroke:none;stroke-width:0.665001;stroke-linecap:round;stroke-linejoin:round;stroke-dasharray:none;stroke-dashoffset:6.03213;stroke-opacity:1;paint-order:markers stroke fill"
         d="m 4.2431731,21.51423 c -0.044293,-0.05348 -0.093112,-0.100491 -0.145803,-0.140983 -0.00831,-0.01 -0.015668,-0.02039 -0.024253,-0.03027 L 0.03992713,16.702183 C -0.06606511,16.580222 -0.18424941,16.478909 -0.3076054,16.397617 -0.52263367,16.092978 -0.95316716,15.88561 -1.4516017,15.88561 l -7.4564652,2.9e-5 c -0.7147486,0 -1.2899611,0.425908 -1.2899611,0.954702 l 1.02e-4,0.66265 c 0,0.528794 0.5755428,0.954492 1.2902914,0.954492 l 4.9615784,-6.8e-5 -1.8402475,1.59931 c -0.3991278,0.346871 -0.3431752,1.060174 0.1256762,1.599657 l 4.0331896,4.640794 c 0.4688512,0.539484 1.16738645,0.694334 1.56651428,0.347463 L 1.5445148,25.249396 0.92394889,29.658338 c -0.0996459,0.707768 0.24131781,1.336649 0.76494731,1.41037 l 0.6565537,0.09214 c 0.5236296,0.07372 1.0255712,-0.436497 1.125217,-1.144265 l 1.039565,-7.383643 c 0.062279,-0.44235 -0.047978,-0.854187 -0.2670588,-1.11871 z"
         transform="rotate(-49.006968)" /><path
         id="rect92-3"
         style="fill:#39ac39;fill-opacity:1;stroke:none;stroke-width:0.665001;stroke-linecap:round;stroke-linejoin:round;stroke-dasharray:none;stroke-dashoffset:6.03213;stroke-opacity:1;paint-order:markers stroke fill"
         d="M -0.43384615,28.536008 C -0.6680917,28.284815 -1.0622797,28.122601 -1.5089692,28.12764 l -1.8753793,0.02123 c -0.7147031,0.0081 -1.2850191,0.440332 -1.2790544,0.969093 l 0.028026,2.50903 -3.6025843,-3.93e-4 c -0.7147486,0 -1.2903211,0.425999 -1.2903211,0.954793 l -1.469e-4,0.805 c 0,0.528794 0.5754617,0.954844 1.2902103,0.954844 l 4.5077077,2.36e-4 c 0.1309464,0.03126 0.2704715,0.048 0.4163705,0.04636 l 1.8753793,-0.02123 c 0.71470315,-0.0081 1.28538297,-0.439965 1.27941829,-0.968725 l -0.0487547,-4.330327 c -0.002237,-0.198285 -0.0852006,-0.380824 -0.2257479,-0.53154 z"
         transform="rotate(-45.244524)" /><path
         id="rect92-3-4"
         style="fill:#39ac39;fill-opacity:1;stroke:none;stroke-width:0.665001;stroke-linecap:round;stroke-linejoin:round;stroke-dasharray:none;stroke-dashoffset:6.03213;stroke-opacity:1;paint-order:markers stroke fill"
         d="m 11.459094,20.399789 c 0.343305,-0.01052 0.736037,0.155189 1.046965,0.475939 l 1.305346,1.346689 c 0.497458,0.513226 0.592072,1.222545 0.212389,1.590601 l -1.80144,1.746663 2.536796,2.557983 c 0.503242,0.507556 0.605983,1.216219 0.230477,1.588534 l -0.571542,0.56689 c -0.375506,0.372315 -1.083224,0.263644 -1.586466,-0.243912 L 9.6576527,26.828337 c -0.114396,-0.07098 -0.22452,-0.158271 -0.326081,-0.263031 L 8.0262257,25.218618 C 7.5287677,24.705391 7.4336367,23.996072 7.8133187,23.628017 L 10.92269,20.613731 c 0.142381,-0.13802 0.330418,-0.207629 0.536401,-0.21394 z" /></g></g></svg>
