<?xml version="1.0" encoding="UTF-8" standalone="no"?>
<!-- Created with Inkscape (http://www.inkscape.org/) -->

<svg
   width="32mm"
   height="32mm"
   viewBox="0 0 32 32"
   version="1.1"
   id="svg1"
   xml:space="preserve"
   inkscape:version="1.3.1 (9b9bdc1480, 2023-11-25, custom)"
   sodipodi:docname="amenity_biergarten.16.svg"
   xmlns:inkscape="http://www.inkscape.org/namespaces/inkscape"
   xmlns:sodipodi="http://sodipodi.sourceforge.net/DTD/sodipodi-0.dtd"
   xmlns="http://www.w3.org/2000/svg"
   xmlns:svg="http://www.w3.org/2000/svg"><sodipodi:namedview
     id="namedview1"
     pagecolor="#ffffff"
     bordercolor="#666666"
     borderopacity="1.0"
     inkscape:showpageshadow="2"
     inkscape:pageopacity="0.0"
     inkscape:pagecheckerboard="0"
     inkscape:deskcolor="#d1d1d1"
     inkscape:document-units="mm"
     inkscape:zoom="1.9523241"
     inkscape:cx="76.06319"
     inkscape:cy="71.96551"
     inkscape:window-width="1314"
     inkscape:window-height="605"
     inkscape:window-x="48"
     inkscape:window-y="140"
     inkscape:window-maximized="0"
     inkscape:current-layer="layer1"
     showguides="true" /><defs
     id="defs1" /><g
     inkscape:label="Livello 1"
     inkscape:groupmode="layer"
     id="layer1"><g
       id="path7-6" /><path
       id="rect19"
       style="color:#000000;fill:#734a08;stroke-linejoin:round;stroke-dashoffset:6.03213;-inkscape-stroke:none;paint-order:markers fill stroke"
       d="m 7.4811399,2.3827425 c -1.822269,0 -3.2948893,1.5136518 -3.2948893,3.3594848 V 26.253637 c 0,0.990839 0.4267672,1.883454 1.1017415,2.500106 H 3.31912 c -0.2390897,-5.89e-4 -0.4332978,0.192925 -0.4335652,0.432015 5.527e-4,0.238888 0.1946771,0.432087 0.4335652,0.431498 h 19.705257 c 0.238888,5.89e-4 0.433012,-0.19261 0.433565,-0.431498 -2.67e-4,-0.23909 -0.194475,-0.432604 -0.433565,-0.432015 h -2.02675 c 0.674424,-0.616652 1.100709,-1.509267 1.100708,-2.500106 v -0.79065 h 4.365626 c 0.663761,0 1.278072,-0.177672 1.769401,-0.517798 0.491325,-0.340122 0.881083,-0.894786 0.881083,-1.554427 v -5.16e-4 -5.17e-4 -5.17e-4 -5.17e-4 -5.16e-4 -5.17e-4 -5.17e-4 -5.17e-4 l -0.02532,-7.525122 C 29.075278,13.353795 28.615032,11.496329 27.770341,10.202937 26.92565,8.9095448 25.634093,8.2325146 24.289933,8.2325146 H 22.098335 V 5.7422273 c 0,-1.845833 -1.470554,-3.3594848 -3.292822,-3.3594848 z m 0,1.0526489 H 18.805513 c 1.242996,0 2.240173,1.0132248 2.240173,2.3068359 v 1.0841716 c -0.344987,0.7667383 -1.065294,0.876949 -1.722892,0.876949 h -1.298629 c -0.196597,4.165e-4 -0.35521,0.1604937 -0.353466,0.3570842 l 0.01188,2.4670329 c 0.0017,0.370615 -0.0742,0.53323 -0.12299,0.589628 -0.287747,0.332628 -1.20214,0.424105 -1.562695,-0.0077 -0.05534,-0.06627 -0.132808,-0.247078 -0.132808,-0.630969 V 8.058365 C 15.864752,7.8617718 15.705667,7.7026867 15.509074,7.7033479 h -4.0535 c -0.19583,4.22e-4 -0.354124,0.1591884 -0.353467,0.3550171 v 5.41414 c 0,0.357825 -0.06512,0.717995 -0.269234,0.8847 -0.32772,0.267656 -0.693536,0.267455 -1.0841713,0 C 9.5312466,14.208321 9.4794675,13.83033 9.4794675,13.472505 V 10.704198 C 9.4801248,10.508369 9.3218302,10.349603 9.1260007,10.349181 H 9.0221311 c -0.1958295,4.22e-4 -0.3541241,0.159188 -0.3534668,0.355017 v 6.864181 c 0,0.628446 -0.6407273,1.195276 -1.5234212,1.195276 -0.8826938,0 -1.9042766,-0.56698 -1.9042766,-1.195276 4.599e-4,-3.942051 -5.993e-4,-7.8841012 0,-11.8261517 0,-1.2936111 0.9971774,-2.3068359 2.2401734,-2.3068359 z M 22.098335,9.7771232 h 2.191598 c 0.870949,0 1.57843,0.3395098 2.185913,1.2696898 0.607487,0.930179 1.053282,2.503967 1.066085,4.822445 l 0.02739,7.523055 c -2.47e-4,0.06046 -0.02993,0.152465 -0.216525,0.281636 -0.187408,0.129735 -0.512204,0.241846 -0.888834,0.241846 H 22.098335 Z M 5.2409665,24.902298 c 0.027882,0.02433 0.055002,0.04945 0.084233,0.07235 0.4267277,0.334307 0.9964761,0.529167 1.6190227,0.529167 H 19.154846 c 0.16488,0 0.325815,-0.0145 0.481624,-0.04082 h 1.409216 v 0.79065 c 0,1.293609 -0.997177,2.306836 -2.240173,2.306836 H 7.4811399 c -1.242996,0 -2.2401734,-1.013227 -2.2401734,-2.306836 z"
       sodipodi:nodetypes="sssccccccccscssscccccccccsscsssssscscccscsccccssssccccssssscssccsscccsssccssssc" /><g
       id="rect21" /></g></svg>
