<?xml version="1.0" encoding="UTF-8" standalone="no"?>
<!-- Created with Inkscape (http://www.inkscape.org/) -->

<svg
   width="32mm"
   height="32mm"
   viewBox="0 0 32 32"
   version="1.1"
   id="svg1"
   xml:space="preserve"
   inkscape:version="1.3.1 (9b9bdc1480, 2023-11-25, custom)"
   sodipodi:docname="amenity_stroller_parking.svg"
   xmlns:inkscape="http://www.inkscape.org/namespaces/inkscape"
   xmlns:sodipodi="http://sodipodi.sourceforge.net/DTD/sodipodi-0.dtd"
   xmlns="http://www.w3.org/2000/svg"
   xmlns:svg="http://www.w3.org/2000/svg"><sodipodi:namedview
     id="namedview1"
     pagecolor="#ffffff"
     bordercolor="#666666"
     borderopacity="1.0"
     inkscape:showpageshadow="2"
     inkscape:pageopacity="0.0"
     inkscape:pagecheckerboard="0"
     inkscape:deskcolor="#d1d1d1"
     inkscape:document-units="mm"
     showguides="true"
     inkscape:zoom="1.245659"
     inkscape:cx="56.596547"
     inkscape:cy="101.15127"
     inkscape:window-width="1277"
     inkscape:window-height="578"
     inkscape:window-x="310"
     inkscape:window-y="98"
     inkscape:window-maximized="0"
     inkscape:current-layer="layer1"><sodipodi:guide
       position="30.86609,17.025411"
       orientation="1,0"
       id="guide4"
       inkscape:locked="false" /><sodipodi:guide
       position="17.727083,5.1447916"
       orientation="0,-1"
       id="guide74"
       inkscape:locked="false" /></sodipodi:namedview><defs
     id="defs1" /><g
     inkscape:label="Livello 1"
     inkscape:groupmode="layer"
     id="layer1"><g
       id="path19" /><g
       id="rect22-0"
       transform="matrix(-1,0,0,1,30.661761,0.23016813)" /><g
       id="rect22-7"
       transform="matrix(-1,0,0,1,30.845845,-1.8811487e-4)" /><g
       id="path26" /><g
       id="path52-1"
       transform="matrix(-1,0,0,1,21.996584,0)" /><path
       d="m 6.3226574,15.77547 h 7.6463516 c 1.903241,0 3.405799,-0.567633 4.708016,-1.73629 1.469168,-1.335607 2.103581,-2.904945 2.103581,-5.1420876 0,-4.5744554 -2.704605,-7.1454995 -7.51279,-7.1454995 H 3.2173704 V 26.093036 h 3.105287 z m 0,-2.737995 V 4.4895879 h 6.4776946 c 2.971727,0 4.741407,1.6027288 4.741407,4.2739431 0,2.671215 -1.76968,4.273944 -4.741407,4.273944 z"
       id="text94"
       style="font-size:39.0941px;line-height:1.25;font-family:Helvetica;-inkscape-font-specification:Helvetica;fill:#0093db;fill-opacity:1;stroke:none;stroke-width:0.834755"
       aria-label="P" /><g
       id="path7-6"
       transform="translate(-31.080925,-0.54616641)" /><circle
       style="fill:none;fill-opacity:1;stroke:#0093db;stroke-width:0.63534;stroke-linecap:round;stroke-linejoin:bevel;stroke-dasharray:none;stroke-opacity:1;paint-order:markers stroke fill"
       id="path1"
       cx="19.6077"
       cy="27.732304"
       r="2.0337729" /><circle
       style="fill:none;fill-opacity:1;stroke:#0093db;stroke-width:0.63534;stroke-linecap:round;stroke-linejoin:bevel;stroke-dasharray:none;stroke-opacity:1;paint-order:markers stroke fill"
       id="path1-6"
       cx="25.937952"
       cy="27.675539"
       r="2.0337729" /><path
       id="rect2"
       style="fill:#0093db;fill-opacity:1;stroke:#0093db;stroke-width:0;stroke-linecap:round;stroke-linejoin:bevel;stroke-dasharray:none;stroke-opacity:1;paint-order:markers stroke fill"
       d="m 15.343734,17.016839 a 0.32683827,0.39648644 0 0 0 -0.196938,0.05035 0.32683827,0.39648644 0 0 0 -0.120547,0.542624 l 1.864284,3.915677 a 0.32683827,0.39648644 0 0 0 0.08391,0.111412 v 0.509413 c 0,1.701021 1.54736,3.070405 3.469813,3.070405 H 25.0352 c 1.922453,0 3.470255,-1.369384 3.470255,-3.070405 v -0.620294 c 0,-0.07628 -0.0045,-0.151201 -0.01065,-0.226049 h -10.9954 a 0.32683827,0.39648644 0 0 0 -0.04327,-0.171413 l -1.863843,-3.915677 a 0.32683827,0.39648644 0 0 0 -0.2486,-0.196052 z" /><path
       style="fill:#0093db;fill-opacity:1;stroke:#0093db;stroke-width:0;stroke-linecap:round;stroke-linejoin:bevel;stroke-dasharray:none;stroke-opacity:1;paint-order:markers stroke fill"
       id="path3"
       sodipodi:type="arc"
       sodipodi:cx="-23.744894"
       sodipodi:cy="21.065779"
       sodipodi:rx="4.7657089"
       sodipodi:ry="4.177001"
       sodipodi:start="3.1403699"
       sodipodi:end="4.746024"
       sodipodi:arc-type="slice"
       d="m -28.510599,21.070886 a 4.7657089,4.177001 0 0 1 1.450892,-3.006169 4.7657089,4.177001 0 0 1 3.475077,-1.173577 l -0.160264,4.174639 z"
       transform="scale(-1,1)" /></g></svg>
