<?xml version="1.0" encoding="UTF-8" standalone="no"?>
<!-- Created with Inkscape (http://www.inkscape.org/) -->

<svg
   width="32mm"
   height="32mm"
   viewBox="0 0 32 32"
   version="1.1"
   id="svg1"
   xml:space="preserve"
   inkscape:version="1.3.1 (9b9bdc1480, 2023-11-25, custom)"
   sodipodi:docname="amenity_dentist.16.2.svg"
   xmlns:inkscape="http://www.inkscape.org/namespaces/inkscape"
   xmlns:sodipodi="http://sodipodi.sourceforge.net/DTD/sodipodi-0.dtd"
   xmlns="http://www.w3.org/2000/svg"
   xmlns:svg="http://www.w3.org/2000/svg"><sodipodi:namedview
     id="namedview1"
     pagecolor="#ffffff"
     bordercolor="#666666"
     borderopacity="1.0"
     inkscape:showpageshadow="2"
     inkscape:pageopacity="0.0"
     inkscape:pagecheckerboard="0"
     inkscape:deskcolor="#d1d1d1"
     inkscape:document-units="mm"
     showguides="true"
     inkscape:zoom="2.8284271"
     inkscape:cx="11.313708"
     inkscape:cy="36.239222"
     inkscape:window-width="1318"
     inkscape:window-height="719"
     inkscape:window-x="48"
     inkscape:window-y="27"
     inkscape:window-maximized="1"
     inkscape:current-layer="layer1"><sodipodi:guide
       position="16.225336,-14.837615"
       orientation="1,0"
       id="guide4"
       inkscape:locked="false" /></sodipodi:namedview><defs
     id="defs1" /><g
     inkscape:label="Livello 1"
     inkscape:groupmode="layer"
     id="layer1"><g
       id="path19" /><g
       id="rect22-0"
       transform="matrix(-1,0,0,1,30.661761,0.23016813)" /><g
       id="rect22-7"
       transform="matrix(-1,0,0,1,30.845845,-1.8811487e-4)" /><g
       id="path26" /><path
       id="path31"
       style="fill:#da0092;fill-opacity:1;stroke:none;stroke-width:0.264583px;stroke-linecap:butt;stroke-linejoin:miter;stroke-opacity:1"
       d="M 8.8640584 1.9719727 C 7.3462779 2.0144656 6.2828596 3.4293967 6.4549032 4.8317464 C 6.068211 8.2524114 8.4276246 10.348642 8.433077 16.585551 C 8.5548244 19.593543 8.3530004 25.020376 8.7519206 26.394255 C 9.1508412 27.768133 10.255453 28.953764 11.098547 29.536182 C 11.941642 30.118599 12.932676 30.406904 12.860197 29.142407 C 12.582499 27.593063 12.22589 26.044562 12.128459 24.46414 C 11.785989 20.963371 10.882886 17.847486 16.000057 17.846973 C 21.117228 17.84646 20.079751 21.576132 19.872172 24.46414 C 19.774742 26.044562 19.417615 27.593063 19.139917 29.142407 C 19.067437 30.406904 20.058471 30.118599 20.901567 29.536182 C 21.744662 28.953764 22.614692 27.873816 23.248193 26.394255 C 23.881695 24.914693 23.44529 19.593543 23.567037 16.585551 C 23.572537 10.348642 25.931903 8.2524114 25.545211 4.8317464 C 25.717255 3.4293967 24.653835 2.0144655 23.136056 1.9719727 C 20.004609 1.8843024 19.088564 3.0948985 17.297135 3.4948771 C 15.890229 4.367032 14.177729 4.9477014 13.122196 5.2136353 C 12.055494 5.4823835 11.657914 5.6279301 10.588501 5.4523804 C 9.5190876 5.2768306 9.6146404 4.4094117 10.171472 4.0379964 C 10.728304 3.6665811 11.094437 4.0250998 11.993583 4.3258341 C 12.892729 4.6265681 14.69504 4.5666579 15.563908 4.2369507 C 16.086161 4.0387726 16.38194 3.8224688 16.648079 3.5946126 C 16.44402 3.6135888 16.23209 3.6259101 16.000057 3.6214844 C 13.198178 3.5680421 12.664998 1.8655588 8.8640584 1.9719727 z " /></g></svg>
