<?xml version="1.0" encoding="UTF-8" standalone="no"?>
<!-- Created with Inkscape (http://www.inkscape.org/) -->

<svg
   width="32mm"
   height="32mm"
   viewBox="0 0 32 32"
   version="1.1"
   id="svg1"
   xml:space="preserve"
   inkscape:version="1.3.1 (9b9bdc1480, 2023-11-25, custom)"
   sodipodi:docname="amenity_toilets_men.svg"
   xmlns:inkscape="http://www.inkscape.org/namespaces/inkscape"
   xmlns:sodipodi="http://sodipodi.sourceforge.net/DTD/sodipodi-0.dtd"
   xmlns="http://www.w3.org/2000/svg"
   xmlns:svg="http://www.w3.org/2000/svg"><sodipodi:namedview
     id="namedview1"
     pagecolor="#ffffff"
     bordercolor="#666666"
     borderopacity="1.0"
     inkscape:showpageshadow="2"
     inkscape:pageopacity="0.0"
     inkscape:pagecheckerboard="0"
     inkscape:deskcolor="#d1d1d1"
     inkscape:document-units="mm"
     showguides="true"
     inkscape:zoom="2.8284271"
     inkscape:cx="74.246212"
     inkscape:cy="83.615377"
     inkscape:window-width="1318"
     inkscape:window-height="719"
     inkscape:window-x="48"
     inkscape:window-y="27"
     inkscape:window-maximized="1"
     inkscape:current-layer="layer1"
     showgrid="false"><sodipodi:guide
       position="21.324843,29.746031"
       orientation="0,-1"
       id="guide8"
       inkscape:locked="false" /><sodipodi:guide
       position="18.475006,31.999999"
       orientation="0,-1"
       id="guide9"
       inkscape:locked="false" /><sodipodi:guide
       position="1.8285867,-6.7146667"
       orientation="1,0"
       id="guide36"
       inkscape:locked="false" /><sodipodi:guide
       position="30.218447,18.979044"
       orientation="1,0"
       id="guide37"
       inkscape:locked="false" /></sodipodi:namedview><defs
     id="defs1"><inkscape:perspective
       sodipodi:type="inkscape:persp3d"
       inkscape:vp_x="-183.11487 : 148.50001 : 1"
       inkscape:vp_y="0 : 1000 : 0"
       inkscape:vp_z="-195.51426 : 148.50001 : 1"
       inkscape:persp3d-origin="-189.31457 : 99.000003 : 1"
       id="perspective10172" /><symbol
       id="Recycling"><title
         id="title7498">Recycling</title><g
         style="stroke:none"
         id="g7512"><path
           style="stroke-width:0.26458332"
           inkscape:connector-curvature="0"
           d="m 14.684375,3.9026042 -1.389063,0.79375 -0.926041,-1.5875 C 12.236979,2.8773437 11.972396,2.7119792 11.608594,2.7119792 H 8.8304687 C 9.0289062,2.9104167 9.0619792,2.9765625 9.1611979,3.1419271 L 10.88099,6.1184896 9.4919271,6.9122396 H 12.93151 Z"
           id="path7500" /><path
           style="stroke-width:0.26458332"
           inkscape:connector-curvature="0"
           d="m 14.254427,12.038542 h 1.389063 c 0.826822,0 1.322916,-0.892969 0.926041,-1.5875 l -1.752864,-3.069167 -2.38125,1.3890625 z"
           id="path7502" /><path
           style="stroke-width:0.26458332"
           inkscape:connector-curvature="0"
           d="m 12.170833,17.065625 v -1.5875 h 1.852084 c 0.264583,0 0.529166,-0.132292 0.727604,-0.463021 l 1.389062,-2.38125 C 15.875,12.7 15.775781,12.7 15.610417,12.7 h -3.439584 v -1.5875 l -1.719791,2.976562 z"
           id="path7504" /><path
           style="stroke-width:0.26458332"
           inkscape:connector-curvature="0"
           d="m 5.3578125,12.7 -0.6945313,1.190625 c -0.396875,0.727604 0.099219,1.5875 0.8929688,1.5875 H 9.0619792 V 12.7 Z"
           id="path7506" /><path
           style="stroke-width:0.26458332"
           inkscape:connector-curvature="0"
           d="m 2.0505208,8.4005208 1.3890625,0.79375 -0.9260416,1.5875002 C 2.38125,11.013281 2.38125,11.310937 2.5466146,11.641667 l 1.3559896,2.38125 c 0.066146,-0.264584 0.099219,-0.33073 0.1984375,-0.496094 L 5.8208333,10.55026 7.2098958,11.34401 5.4901042,8.3674479 Z"
           id="path7508" /><path
           style="stroke-width:0.26458332"
           inkscape:connector-curvature="0"
           d="M 9.2604167,4.6302083 8.5989583,3.4395833 c -0.4299479,-0.6945312 -1.4221354,-0.6945312 -1.8190104,0 l -1.7528646,3.0427084 2.38125,1.3890625 z"
           id="path7510" /></g></symbol><inkscape:perspective
       id="perspective8310"
       inkscape:persp3d-origin="372.04724 : 350.7874 : 1"
       inkscape:vp_z="744.09447 : 526.18111 : 1"
       inkscape:vp_y="0 : 1000 : 0"
       inkscape:vp_x="0 : 526.18111 : 1"
       sodipodi:type="inkscape:persp3d" /><inkscape:perspective
       id="perspective5302"
       inkscape:persp3d-origin="372.04724 : 350.7874 : 1"
       inkscape:vp_z="744.09447 : 526.18111 : 1"
       inkscape:vp_y="0 : 1000 : 0"
       inkscape:vp_x="0 : 526.18111 : 1"
       sodipodi:type="inkscape:persp3d" /><symbol
       id="ToiletsMen"><title
         id="title4892">Toilets - Men</title><g
         style="stroke:none"
         id="g4898"><circle
           cx="36"
           cy="9"
           r="5"
           id="circle4894" /><path
           d="m 24,22 v 15.5 a 2.25,2.25 0 0 0 4.5,0 V 23 h 1 v 39.5 a 3,3 0 0 0 6,0 V 40 h 1 v 22.5 a 3,3 0 0 0 6,0 V 23 h 1 v 14.5 a 2.25,2.25 0 0 0 4.5,0 V 22 A 7,7 0 0 0 41,15 H 31 a 7,7 0 0 0 -7,7 z"
           id="path4896"
           inkscape:connector-curvature="0" /></g></symbol><inkscape:perspective
       sodipodi:type="inkscape:persp3d"
       inkscape:vp_x="0 : 100 : 1"
       inkscape:vp_y="0 : 1000 : 0"
       inkscape:vp_z="200 : 100 : 1"
       inkscape:persp3d-origin="100 : 66.666667 : 1"
       id="perspective2879" /></defs><g
     inkscape:label="Livello 1"
     inkscape:groupmode="layer"
     id="layer1"><path
       style="font-weight:bold;font-size:10.5833px;line-height:1.25;font-family:Ubuntu;-inkscape-font-specification:'Ubuntu Bold';fill:#734a08;stroke-width:0.264583"
       d="m 19.401216,23.583129 q 0.127,0.433915 0.275166,0.984247 0.15875,0.539748 0.328082,1.12183 0.179916,0.582081 0.359833,1.164163 0.179916,0.582081 0.349248,1.079496 0.137583,-0.539748 0.275166,-1.174746 0.148166,-0.634998 0.275166,-1.312329 0.127,-0.677331 0.243416,-1.344079 0.126999,-0.677331 0.232832,-1.301746 h 1.714495 q -0.370415,1.841494 -0.857247,3.735905 -0.476249,1.89441 -1.037164,3.598322 h -1.513411 q -0.370416,-1.015997 -0.719665,-2.127244 -0.349249,-1.121829 -0.687914,-2.243659 -0.338666,1.12183 -0.677332,2.243659 -0.338665,1.111247 -0.709081,2.127244 H 15.739395 Q 15.17848,28.43028 14.691648,26.53587 14.215399,24.641459 13.844984,22.799965 h 1.788578 q 0.105833,0.624415 0.232832,1.301746 0.127,0.666748 0.264583,1.344079 0.137583,0.677331 0.275165,1.312329 0.148167,0.634998 0.296333,1.174746 0.190499,-0.518581 0.370415,-1.100663 0.179916,-0.582081 0.349249,-1.164163 0.169333,-0.582081 0.306916,-1.12183 0.148166,-0.539748 0.264582,-0.96308 z m 8.350221,6.699229 q -1.788577,0 -2.730491,-0.99483 -0.93133,-0.994831 -0.93133,-2.825741 0,-0.910164 0.285749,-1.619245 0.285749,-0.719665 0.783164,-1.206496 0.497415,-0.497416 1.185329,-0.751415 0.687915,-0.253999 1.492246,-0.253999 0.465665,0 0.846664,0.07408 0.380998,0.0635 0.666747,0.15875 0.28575,0.08467 0.476249,0.179916 0.190499,0.09525 0.275166,0.148166 l -0.476249,1.333496 q -0.338665,-0.179916 -0.793747,-0.306916 -0.444499,-0.127 -1.015997,-0.127 -0.380999,0 -0.751414,0.127 -0.359832,0.127 -0.645582,0.412749 -0.275165,0.275165 -0.444498,0.719664 -0.169333,0.444499 -0.169333,1.079497 0,0.507998 0.105833,0.952497 0.116416,0.433915 0.359832,0.751414 0.253999,0.317499 0.656165,0.507998 0.402165,0.179916 0.973663,0.179916 0.359833,0 0.645582,-0.04233 0.285749,-0.04233 0.507998,-0.09525 0.222249,-0.0635 0.391582,-0.137582 0.169333,-0.07408 0.306916,-0.137583 l 0.455082,1.322912 q -0.349249,0.211666 -0.984247,0.380999 -0.634998,0.169333 -1.471079,0.169333 z"
       id="text36"
       aria-label="WC" /><g
       id="path19" /><g
       id="rect22-0"
       transform="matrix(-1,0,0,1,30.661761,0.23016813)" /><g
       id="rect22-7"
       transform="matrix(-1,0,0,1,30.845845,-1.8811487e-4)" /><g
       id="path26" /><g
       id="path52"
       transform="translate(-38.081357,-6.611757)" /><g
       id="path52-1"
       transform="matrix(-1,0,0,1,21.996584,0)" /><g
       id="g35"
       transform="translate(-17.742974,0.32692166)"><path
         style="fill:#734a08;fill-opacity:1;stroke:none;stroke-width:1.82362;stroke-linecap:round;stroke-linejoin:round;stroke-dasharray:none;stroke-dashoffset:0;stroke-opacity:1;paint-order:markers fill stroke"
         d="M 88.25,112.64609 C 85.980511,111.34454 86.032607,112.16118 86.015901,77.625 L 86,44.75 H 84.75 83.5 V 57.214285 C 83.5,71.064077 83.456949,71.25 80.25,71.25 78.404995,71.25 77.155326,70.29296 76.716309,68.543776 76.559453,67.918813 76.502866,60.790797 76.590558,52.70374 76.765685,36.553537 76.818744,36.253577 79.969339,33.602526 82.732388,31.277574 84.442146,31 96,31 c 9.18739,0 11.09184,0.131907 13.1017,0.907456 2.77393,1.070382 5.13617,3.567736 5.86824,6.203877 0.7881,2.837948 0.69025,30.041094 -0.11381,31.638667 -0.80791,1.605221 -3.95688,2.016301 -5.40518,0.705613 C 108.56482,69.653676 108.5,68.745847 108.5,57.13773 V 44.680449 L 107.375,44.840224 106.25,45 105.99107,78.25 c -0.14241,18.2875 -0.31116,33.30047 -0.375,33.36216 -0.0638,0.0617 -0.7799,0.45544 -1.59124,0.875 -2.24027,1.15848 -3.91665,0.94795 -5.563292,-0.6987 L 97,110.32692 V 90.7518 C 97,72.37807 96.946298,71.187 96.125,71.344906 95.314461,71.500743 95.231582,72.961653 95,91.1753 l -0.25,19.66216 -1.402882,1.20627 c -1.504929,1.29401 -3.483407,1.52782 -5.097118,0.60236 z"
         id="path32"
         transform="scale(0.26458333)" /><path
         style="fill:#734a08;fill-opacity:1;stroke:none;stroke-width:1.82362;stroke-linecap:round;stroke-linejoin:round;stroke-dasharray:none;stroke-dashoffset:0;stroke-opacity:1;paint-order:markers fill stroke"
         d="M 94.131817,28.762061 C 89.938945,27.769739 87.239508,23.897967 87.611662,19.410279 88.211356,12.17875 96.421154,8.8824375 102.04545,13.614974 104.00264,15.261836 105,17.541019 105,20.366741 c 0,5.420409 -5.49685,9.666548 -10.868183,8.39532 z"
         id="path33"
         transform="scale(0.26458333)" /></g></g></svg>
