<?xml version="1.0" encoding="UTF-8" standalone="no"?>
<!-- Created with Inkscape (http://www.inkscape.org/) -->

<svg
   width="19.177818mm"
   height="26.684212mm"
   viewBox="0 0 19.177818 26.684212"
   version="1.1"
   id="svg1"
   xml:space="preserve"
   sodipodi:docname="arrow_up_2.svg"
   inkscape:version="1.3.1 (9b9bdc1480, 2023-11-25, custom)"
   xmlns:inkscape="http://www.inkscape.org/namespaces/inkscape"
   xmlns:sodipodi="http://sodipodi.sourceforge.net/DTD/sodipodi-0.dtd"
   xmlns="http://www.w3.org/2000/svg"
   xmlns:svg="http://www.w3.org/2000/svg"><sodipodi:namedview
     id="namedview1"
     pagecolor="#ffffff"
     bordercolor="#666666"
     borderopacity="1.0"
     inkscape:showpageshadow="2"
     inkscape:pageopacity="0.0"
     inkscape:pagecheckerboard="0"
     inkscape:deskcolor="#d1d1d1"
     inkscape:document-units="mm"
     inkscape:zoom="2.5045944"
     inkscape:cx="97.021696"
     inkscape:cy="54.899108"
     inkscape:window-width="1318"
     inkscape:window-height="719"
     inkscape:window-x="48"
     inkscape:window-y="27"
     inkscape:window-maximized="1"
     inkscape:current-layer="layer1" /><defs
     id="defs1"><inkscape:perspective
       sodipodi:type="inkscape:persp3d"
       inkscape:vp_x="-183.11487 : 143.18423 : 1"
       inkscape:vp_y="0 : 1000 : 0"
       inkscape:vp_z="-195.51426 : 143.18423 : 1"
       inkscape:persp3d-origin="-189.31457 : 93.684218 : 1"
       id="perspective10172" /><symbol
       id="Recycling"><title
         id="title7498">Recycling</title><g
         style="stroke:none"
         id="g7512"><path
           style="stroke-width:0.264583"
           inkscape:connector-curvature="0"
           d="m 14.684375,3.9026042 -1.389063,0.79375 -0.926041,-1.5875 C 12.236979,2.8773437 11.972396,2.7119792 11.608594,2.7119792 H 8.8304687 C 9.0289062,2.9104167 9.0619792,2.9765625 9.1611979,3.1419271 L 10.88099,6.1184896 9.4919271,6.9122396 H 12.93151 Z"
           id="path7500" /><path
           style="stroke-width:0.264583"
           inkscape:connector-curvature="0"
           d="m 14.254427,12.038542 h 1.389063 c 0.826822,0 1.322916,-0.892969 0.926041,-1.5875 l -1.752864,-3.069167 -2.38125,1.3890625 z"
           id="path7502" /><path
           style="stroke-width:0.264583"
           inkscape:connector-curvature="0"
           d="m 12.170833,17.065625 v -1.5875 h 1.852084 c 0.264583,0 0.529166,-0.132292 0.727604,-0.463021 l 1.389062,-2.38125 C 15.875,12.7 15.775781,12.7 15.610417,12.7 h -3.439584 v -1.5875 l -1.719791,2.976562 z"
           id="path7504" /><path
           style="stroke-width:0.264583"
           inkscape:connector-curvature="0"
           d="m 5.3578125,12.7 -0.6945313,1.190625 c -0.396875,0.727604 0.099219,1.5875 0.8929688,1.5875 H 9.0619792 V 12.7 Z"
           id="path7506" /><path
           style="stroke-width:0.264583"
           inkscape:connector-curvature="0"
           d="m 2.0505208,8.4005208 1.3890625,0.79375 -0.9260416,1.5875002 C 2.38125,11.013281 2.38125,11.310937 2.5466146,11.641667 l 1.3559896,2.38125 c 0.066146,-0.264584 0.099219,-0.33073 0.1984375,-0.496094 L 5.8208333,10.55026 7.2098958,11.34401 5.4901042,8.3674479 Z"
           id="path7508" /><path
           style="stroke-width:0.264583"
           inkscape:connector-curvature="0"
           d="M 9.2604167,4.6302083 8.5989583,3.4395833 c -0.4299479,-0.6945312 -1.4221354,-0.6945312 -1.8190104,0 l -1.7528646,3.0427084 2.38125,1.3890625 z"
           id="path7510" /></g></symbol><inkscape:perspective
       id="perspective8310"
       inkscape:persp3d-origin="372.04724 : 345.47162 : 1"
       inkscape:vp_z="744.09447 : 520.86534 : 1"
       inkscape:vp_y="0 : 1000 : 0"
       inkscape:vp_x="0 : 520.86534 : 1"
       sodipodi:type="inkscape:persp3d" /><inkscape:perspective
       id="perspective5302"
       inkscape:persp3d-origin="372.04724 : 345.47162 : 1"
       inkscape:vp_z="744.09447 : 520.86534 : 1"
       inkscape:vp_y="0 : 1000 : 0"
       inkscape:vp_x="0 : 520.86534 : 1"
       sodipodi:type="inkscape:persp3d" /><symbol
       id="ToiletsMen"><title
         id="title4892">Toilets - Men</title><g
         style="stroke:none"
         id="g4898"><circle
           cx="36"
           cy="9"
           r="5"
           id="circle4894" /><path
           d="m 24,22 v 15.5 a 2.25,2.25 0 0 0 4.5,0 V 23 h 1 v 39.5 a 3,3 0 0 0 6,0 V 40 h 1 v 22.5 a 3,3 0 0 0 6,0 V 23 h 1 v 14.5 a 2.25,2.25 0 0 0 4.5,0 V 22 A 7,7 0 0 0 41,15 H 31 a 7,7 0 0 0 -7,7 z"
           id="path4896"
           inkscape:connector-curvature="0" /></g></symbol><inkscape:perspective
       sodipodi:type="inkscape:persp3d"
       inkscape:vp_x="0 : 94.684215 : 1"
       inkscape:vp_y="0 : 1000 : 0"
       inkscape:vp_z="200 : 94.684215 : 1"
       inkscape:persp3d-origin="100 : 61.350881 : 1"
       id="perspective2879" /></defs><g
     inkscape:label="Livello 1"
     inkscape:groupmode="layer"
     id="layer1"
     transform="translate(-0.41109069,-0.39866982)"><g
       id="path19"
       transform="translate(17.486065,2.827328)" /><g
       id="rect22-0"
       transform="matrix(-1,0,0,1,48.147826,3.0574961)" /><g
       id="rect22-7"
       transform="matrix(-1,0,0,1,48.33191,2.8271399)" /><g
       id="path26"
       transform="translate(17.486065,2.827328)" /><g
       id="path52"
       transform="translate(-20.595292,-3.784429)" /><g
       id="path52-1"
       transform="matrix(-1,0,0,1,39.482649,2.827328)" /><g
       id="path19-0"
       transform="translate(21.130375,8.9505631)" /><g
       id="rect22-0-8"
       transform="matrix(-1,0,0,1,51.792136,9.1807312)" /><g
       id="rect22-7-5"
       transform="matrix(-1,0,0,1,51.97622,8.950375)" /><g
       id="path26-0"
       transform="translate(21.130375,8.9505631)" /><g
       id="path52-1-6"
       transform="matrix(-1,0,0,1,43.126959,8.9505631)" /><g
       id="path7-6"
       transform="translate(-9.95055,8.4043967)" /><g
       id="g40-6-7"
       transform="translate(17.601682,2.687844)" /><path
       style="color:#000000;fill:#000000;stroke-linecap:round;stroke-linejoin:round;-inkscape-stroke:none;paint-order:markers fill stroke"
       d="m 8.2246094,27.082493 c -1.1851362,0 -2.15625,-0.970932 -2.15625,-2.15625 V 24.609837 23.787571 16.820775 H 0.9296875 A 0.51869185,0.51869185 0 0 1 0.48242188,16.039525 L 9.5527344,0.6528055 a 0.51869185,0.51869185 0 0 1 0.8925786,0 l 9.072265,15.3867195 a 0.51869185,0.51869185 0 0 1 -0.447266,0.78125 h -5.140624 v 6.966796 0.822266 0.316406 c 0,1.185318 -0.971114,2.15625 -2.15625,2.15625 z m 0,-1.037109 h 3.5488286 c 0.628557,0 1.11914,-0.490766 1.11914,-1.119141 v -0.316406 -0.822266 -7.486328 a 0.51869185,0.51869185 0 0 1 0.517578,-0.517578 h 4.751953 L 10,1.9379615 1.8378906,15.783665 h 4.75 a 0.51869185,0.51869185 0 0 1 0.5175781,0.517578 v 7.486328 0.822266 0.316406 c 0,0.628375 0.4905836,1.119141 1.1191407,1.119141 z"
       id="rect65" /></g></svg>
