<?xml version="1.0" encoding="UTF-8" standalone="no"?>
<!-- Created with Inkscape (http://www.inkscape.org/) -->
<svg
   xmlns:dc="http://purl.org/dc/elements/1.1/"
   xmlns:cc="http://creativecommons.org/ns#"
   xmlns:rdf="http://www.w3.org/1999/02/22-rdf-syntax-ns#"
   xmlns:svg="http://www.w3.org/2000/svg"
   xmlns="http://www.w3.org/2000/svg"
   xmlns:sodipodi="http://sodipodi.sourceforge.net/DTD/sodipodi-0.dtd"
   xmlns:inkscape="http://www.inkscape.org/namespaces/inkscape"
   id="svg2312"
   sodipodi:version="0.32"
   inkscape:version="0.46"
   width="2200"
   height="640"
   version="1.0"
   sodipodi:docbase="D:\Wikipédia\Atelier graphique"
   sodipodi:docname="Helicopter_silhouette_AS-355.svg"
   inkscape:output_extension="org.inkscape.output.svg.inkscape">
  <metadata
     id="metadata2317">
    <rdf:RDF>
      <cc:Work
         rdf:about="">
        <dc:format>image/svg+xml</dc:format>
        <dc:type
           rdf:resource="http://purl.org/dc/dcmitype/StillImage" />
        <dc:title>Silhouette of an Aerospatiale (Eurocoter) AS 355 helicopter</dc:title>
        <dc:date>10/2007</dc:date>
        <dc:creator>
          <cc:Agent>
            <dc:title>Eric Gaba (user:Sting) for Wikipedia</dc:title>
          </cc:Agent>
        </dc:creator>
        <cc:license
           rdf:resource="http://web.resource.org/cc/PublicDomain" />
      </cc:Work>
      <cc:License
         rdf:about="http://web.resource.org/cc/PublicDomain">
        <cc:permits
           rdf:resource="http://web.resource.org/cc/Reproduction" />
        <cc:permits
           rdf:resource="http://web.resource.org/cc/Distribution" />
        <cc:permits
           rdf:resource="http://web.resource.org/cc/DerivativeWorks" />
      </cc:License>
    </rdf:RDF>
  </metadata>
  <defs
     id="defs2315" />
  <sodipodi:namedview
     inkscape:window-height="1004"
     inkscape:window-width="1280"
     inkscape:pageshadow="2"
     inkscape:pageopacity="0.0"
     guidetolerance="10.0"
     gridtolerance="10.0"
     objecttolerance="10.0"
     borderopacity="1.0"
     bordercolor="#666666"
     pagecolor="#ffffff"
     id="base"
     inkscape:zoom="0.5"
     inkscape:cx="1105.8526"
     inkscape:cy="325.46237"
     inkscape:window-x="-8"
     inkscape:window-y="-8"
     inkscape:current-layer="layer2"
     width="2200px"
     height="640px"
     showgrid="false" />
  <g
     inkscape:groupmode="layer"
     id="layer2"
     inkscape:label="Silhouette"
     style="display:inline"
     transform="translate(-153.33117,-147.99257)">
    <path
       sodipodi:nodetypes="ccccccccccccccsssssssscccccsccccscccscccccscccscccscccccccccccccccccscccccscccccccccccsscccccccccccccccccccccccccsccsccccssccscccsccsccsccsccsccccssccscccsccsssssccsccsccccccccccc"
       id="path5852"
       d="M 955.08118,173.0973 C 929.11244,173.06605 902.95618,183.7223 902.95618,183.7223 L 927.20618,183.7223 L 927.20618,187.9723 L 874.33118,187.9723 L 874.33118,213.8473 L 945.95618,213.8473 L 945.95618,254.9723 L 918.08118,254.9723 L 918.08118,265.8473 L 935.14368,265.8473 L 932.64368,275.9098 C 901.49251,276.75999 870.45266,279.38997 839.45618,282.4723 C 811.2352,285.64994 764.05377,307.30947 706.73743,355.31605 C 700.13564,355.31605 697.41015,355.5348 692.01868,355.5348 C 687.06732,355.5348 680.42183,356.28928 675.48743,357.06605 C 651.73306,360.80545 621.89054,365.87058 598.48743,370.7223 C 590.28611,372.42252 582.28206,376.20422 577.58118,379.75355 C 515.01127,426.99606 458.28885,471.94262 417.58118,505.4098 C 382.09541,534.58385 369.60605,553.04336 369.61243,569.6598 C 369.61881,586.27591 375.20712,606.71712 416.70618,623.3473 C 476.25717,647.21153 534.56943,656.801 598.04993,660.31605 C 672.32392,664.42874 702.01082,665.49513 795.20618,664.2848 L 818.70618,663.9723 L 818.70618,731.19105 L 813.29993,748.2223 L 706.08118,748.2223 C 706.08117,748.22228 701.53588,748.21257 697.98743,747.2223 C 694.40157,746.22162 689.48743,743.06605 689.48743,743.06605 L 677.73743,735.81605 L 701.89368,696.19105 L 725.01868,687.94105 C 725.01871,687.94106 725.95618,687.30049 725.95618,686.0348 C 725.95616,684.79662 725.01868,684.75355 725.01868,684.75355 L 700.48743,684.75355 L 675.95618,684.75355 C 675.95619,684.75355 674.83118,684.51814 674.83118,686.00355 C 674.83117,687.49305 675.95618,688.0348 675.95618,688.0348 L 686.04993,695.75355 L 666.14368,728.6598 L 645.58118,715.87855 L 658.76868,709.9098 C 658.76869,709.90977 660.20618,709.18013 660.20618,707.75355 C 660.20619,706.27199 658.76868,706.5348 658.76868,706.5348 L 631.83118,706.5348 L 604.86243,706.5348 C 604.86244,706.53478 603.86243,706.30102 603.86243,707.7848 C 603.86244,709.24106 604.86243,710.12855 604.86243,710.12855 L 617.61243,715.7848 L 684.45618,757.1598 C 684.45619,757.15983 689.91905,760.89106 694.04993,761.9723 C 698.14854,763.04511 702.98743,762.87855 702.98743,762.87855 L 1116.7062,762.87855 L 1116.7062,748.2223 L 1096.2687,748.2223 L 1091.0187,731.12855 L 1091.0187,631.7848 C 1149.4514,617.01381 1206.5288,597.56688 1263.4874,578.00355 C 2237.6924,456.53048 1096.9432,598.92375 2064.4249,477.87855 L 2064.4249,587.4723 L 2097.7062,587.4723 L 2097.7062,502.0973 L 2130.1124,578.44105 L 2165.2999,592.9723 L 2198.7687,580.6598 L 2191.3937,462.37855 L 2239.7999,455.87855 C 2247.9527,454.85834 2247.7334,450.93656 2248.3937,449.06605 C 2251.0947,448.35222 2252.7687,448.57333 2252.7687,446.5348 C 2252.7687,444.60612 2251.1844,444.38997 2248.2687,443.7848 C 2247.4435,441.74925 2248.2154,437.23528 2239.1437,436.9723 C 2204.0029,435.95523 2235.3982,436.83757 2200.5187,435.8473 C 2308.128,196.86227 2202.8227,430.67944 2311.8624,188.50355 C 2290.7365,188.50355 2290.554,188.50355 2277.4562,188.50355 C 2277.4562,182.99861 2275.6625,181.3473 2274.0812,181.3473 C 2272.7741,181.3473 2270.7062,182.31338 2270.7062,188.50355 C 2257.6121,188.50355 2247.9448,188.72257 2242.1124,197.5348 C 2106.9232,401.75113 2241.1204,199.17926 2105.8937,403.2848 L 2076.2062,402.8473 L 2076.2062,258.9723 L 2042.8312,258.9723 L 2042.8312,374.5973 L 2058.0812,402.6598 L 2035.4874,402.4098 C 2025.4664,402.28912 2022.1561,401.21731 2007.0812,414.06605 C 1819.3699,411.97548 1809.2596,411.63922 1376.1749,404.5973 C 1374.4076,397.11526 1371.5131,390.63677 1368.4562,388.75355 C 1333.0473,366.93977 1294.9657,344.00037 1247.3624,323.75355 C 1187.8718,298.45074 1131.0074,281.42607 1100.4249,278.94105 C 1059.4422,276.03733 1018.3467,275.04568 977.26868,275.0348 L 974.64368,265.9723 L 992.01868,265.9723 L 992.01868,255.0973 L 963.95618,255.0973 L 963.95618,213.9723 L 1076.5812,213.9723 L 1076.5812,188.0973 L 982.70618,188.0973 L 982.70618,183.8473 L 1006.8312,183.8473 C 1006.8312,183.8473 981.04993,173.12855 955.08118,173.0973 z M 887.45618,192.3473 L 908.95618,192.3473 L 908.95618,209.4723 L 887.45618,209.4723 L 887.45618,192.3473 z M 1000.9562,192.3473 L 1063.4562,192.3473 L 1063.4562,209.4723 L 1000.9562,209.4723 L 1000.9562,192.3473 z M 664.14368,362.75355 L 671.42493,377.50355 C 671.42494,377.50355 672.28812,379.28723 671.83118,381.0348 C 671.36335,382.82401 669.29993,383.1598 669.29993,383.1598 L 633.58118,387.75355 C 633.58118,387.75355 620.59579,388.96991 612.45618,388.06605 C 602.01196,386.90628 600.92493,381.06605 600.92493,381.06605 L 599.79993,374.06605 L 664.14368,362.75355 z M 576.89368,385.9098 C 576.89369,385.9098 581.21767,386.76416 588.20618,393.9723 C 599.91209,406.04607 600.32538,409.83961 600.95618,411.9723 C 601.61244,414.19105 600.14368,417.00355 600.14368,417.00355 L 546.70618,518.9723 C 546.70619,518.97231 543.95618,524.5348 536.64368,526.3473 C 529.33119,528.15981 517.45618,526.2223 517.45618,526.2223 C 517.45619,526.22231 516.93106,526.10671 442.45618,510.9723 C 431.86664,508.81591 420.42493,509.0348 420.42493,509.0348 C 420.42494,509.03481 457.37805,478.73792 496.92493,447.62855 C 536.47181,416.51918 576.89368,385.9098 576.89368,385.9098 z M 665.33118,410.1598 C 668.3207,410.14764 674.82888,410.78963 679.26868,416.2848 C 686.89369,425.7223 683.70618,437.7223 683.70618,437.7223 L 667.45618,497.2223 C 667.45619,497.22231 664.84823,507.39169 653.45618,516.0973 C 643.55218,523.66578 632.83118,522.9723 632.83118,522.9723 L 586.33118,523.2223 C 586.33119,523.22231 576.48871,523.70911 571.95618,515.0973 C 567.58119,506.78481 574.89368,493.9098 574.89368,493.9098 L 612.20618,422.4723 C 612.20619,422.4723 613.95618,419.2848 616.89368,417.4723 C 619.83119,415.6598 623.95618,415.2223 623.95618,415.2223 L 663.70618,410.2223 C 663.70618,410.2223 664.33467,410.16385 665.33118,410.1598 z M 724.95618,413.2223 C 724.95618,413.2223 795.81706,413.2223 827.95618,413.2223 C 843.65722,413.2223 842.84667,435.69109 842.20618,455.2223 C 841.51342,476.34785 830.29317,509.83131 815.20618,510.8473 C 774.34617,513.59051 701.70619,518.22231 701.70618,518.2223 C 701.70618,518.2223 696.26869,518.09731 693.83118,515.5973 C 691.39368,513.0973 691.89369,508.28481 691.89368,508.2848 L 703.95618,463.5973 L 716.08118,419.1598 C 716.08118,419.1598 717.20619,416.1598 719.45618,414.7223 C 721.70618,413.2848 724.95619,413.2223 724.95618,413.2223 z M 567.45618,534.7223 C 632.23743,534.7223 569.67494,534.72231 632.95618,534.7223 C 641.02039,534.7223 655.62592,539.66105 649.20618,563.7223 C 641.34496,593.18629 629.49432,592.22231 625.20618,592.2223 C 560.29993,592.2223 623.14369,592.22231 558.45618,592.2223 C 552.81703,592.2223 522.45619,593.84731 536.70618,566.4723 C 551.05867,538.90041 560.78842,534.72231 567.45618,534.7223 z M 512.98743,548.12855 C 515.32794,548.04606 520.34583,548.30833 523.20618,551.7223 C 527.08118,556.3473 523.45619,563.47231 523.45618,563.4723 L 489.70618,627.9723 C 489.70618,627.9723 409.70017,616.89158 415.20618,586.7223 C 420.62391,557.03678 459.20619,551.22231 459.20618,551.2223 L 511.70618,548.2223 C 511.70618,548.2223 512.20726,548.15605 512.98743,548.12855 z M 1076.3312,635.44105 L 1076.3312,731.2223 L 1071.0187,748.2223 L 838.58118,748.25355 L 833.29993,731.19105 L 833.29993,663.81605 C 868.15785,663.46374 944.46422,658.85048 970.83118,655.4723 C 1006.4378,651.21068 1041.4552,643.59762 1076.3312,635.44105 z "
       style="fill:#000000;fill-opacity:1;fill-rule:evenodd;stroke:#000000;stroke-width:1px;stroke-linecap:butt;stroke-linejoin:miter;stroke-opacity:1;display:inline" />
    <path
       style="fill:none;fill-rule:evenodd;stroke:#000000;stroke-width:2.5;stroke-linecap:butt;stroke-linejoin:miter;stroke-miterlimit:4;stroke-dasharray:none;stroke-opacity:1;display:inline"
       d="M 1088.1061,762.11376 L 1175.3218,762.11399 C 1175.3218,762.11399 1177.4275,762.28967 1180.5384,760.9888"
       id="path5856" />
    <path
       style="fill:none;fill-rule:evenodd;stroke:#000000;stroke-width:2.5;stroke-linecap:butt;stroke-linejoin:miter;stroke-miterlimit:4;stroke-dasharray:none;stroke-opacity:1;display:inline"
       d="M 2131.3628,578.16007 L 2224.9433,616.72557 C 2224.9433,616.72557 2234.7359,619.80641 2243.0982,618.70611 C 2251.4469,617.60759 2252.2307,615.95536 2252.2307,615.95536"
       id="path5854" />
    <path
       style="fill:none;fill-rule:evenodd;stroke:#000000;stroke-width:6;stroke-linecap:butt;stroke-linejoin:miter;stroke-miterlimit:4;stroke-dasharray:none;stroke-opacity:1;display:inline"
       d="M 997.74489,200.75773 L 1089.6687,200.75773 C 1089.6687,200.75773 1287.2167,204.64682 1489.0073,232.57753 C 1689.3837,260.50825 1885.5174,301.16689 1885.5174,301.16689"
       id="path5858"
       sodipodi:nodetypes="cczc" />
    <path
       sodipodi:nodetypes="cczc"
       id="path5860"
       d="M 913.24564,200.75773 L 865.8695,200.75773 C 865.81228,200.75773 707.53408,204.1253 522.54173,238.56148 C 337.67534,272.97422 197.17281,307.08911 197.30002,306.82374"
       style="fill:none;fill-rule:evenodd;stroke:#000000;stroke-width:6;stroke-linecap:butt;stroke-linejoin:miter;stroke-miterlimit:4;stroke-dasharray:none;stroke-opacity:1;display:inline" />
    <path
       sodipodi:nodetypes="cc"
       id="path5868"
       d="M 990.81251,255.85473 L 997.68751,212.22973"
       style="fill:none;fill-rule:evenodd;stroke:#000000;stroke-width:3;stroke-linecap:butt;stroke-linejoin:miter;stroke-miterlimit:4;stroke-dasharray:none;stroke-opacity:1;display:inline" />
    <path
       style="fill:none;fill-rule:evenodd;stroke:#000000;stroke-width:3;stroke-linecap:butt;stroke-linejoin:miter;stroke-miterlimit:4;stroke-dasharray:none;stroke-opacity:1;display:inline"
       d="M 919.34376,255.85473 L 912.46876,212.22973"
       id="path5866"
       sodipodi:nodetypes="cc" />
  </g>
</svg>
