<?xml version="1.0" encoding="UTF-8" standalone="no"?>
<!-- Created with Inkscape (http://www.inkscape.org/) -->

<svg
   width="32mm"
   height="32mm"
   viewBox="0 0 32 32"
   version="1.1"
   id="svg1"
   xml:space="preserve"
   inkscape:version="1.3.1 (9b9bdc1480, 2023-11-25, custom)"
   sodipodi:docname="barrier_kissing_gate.svg"
   xmlns:inkscape="http://www.inkscape.org/namespaces/inkscape"
   xmlns:sodipodi="http://sodipodi.sourceforge.net/DTD/sodipodi-0.dtd"
   xmlns="http://www.w3.org/2000/svg"
   xmlns:svg="http://www.w3.org/2000/svg"><sodipodi:namedview
     id="namedview1"
     pagecolor="#ffffff"
     bordercolor="#666666"
     borderopacity="1.0"
     inkscape:showpageshadow="2"
     inkscape:pageopacity="0.0"
     inkscape:pagecheckerboard="0"
     inkscape:deskcolor="#d1d1d1"
     inkscape:document-units="mm"
     showguides="true"
     inkscape:zoom="1.502907"
     inkscape:cx="86.499032"
     inkscape:cy="33.601547"
     inkscape:window-width="1318"
     inkscape:window-height="719"
     inkscape:window-x="48"
     inkscape:window-y="27"
     inkscape:window-maximized="1"
     inkscape:current-layer="layer1"
     showgrid="false"><sodipodi:guide
       position="-5.5726478,-6.0962787"
       orientation="0,-1"
       id="guide8"
       inkscape:locked="false" /><sodipodi:guide
       position="18.475006,31.999999"
       orientation="0,-1"
       id="guide9"
       inkscape:locked="false" /><sodipodi:guide
       position="-6.4794523,31.368144"
       orientation="1,0"
       id="guide36"
       inkscape:locked="false" /><sodipodi:guide
       position="29.485911,9.5526053"
       orientation="1,0"
       id="guide37"
       inkscape:locked="false" /><sodipodi:guide
       position="8.9802559,1.7851799"
       orientation="0,-1"
       id="guide38"
       inkscape:locked="false" /><sodipodi:guide
       position="12.464872,5.3716509"
       orientation="0,-1"
       id="guide45"
       inkscape:locked="false" /><sodipodi:guide
       position="13.141317,16.005627"
       orientation="0,-1"
       id="guide46"
       inkscape:locked="false" /><sodipodi:guide
       position="67.954814,46.095464"
       orientation="1,0"
       id="guide47"
       inkscape:locked="false" /><sodipodi:guide
       position="27.174628,16.05069"
       orientation="1,0"
       id="guide48"
       inkscape:locked="false" /><sodipodi:guide
       position="31.660613,6.541286"
       orientation="1,0"
       id="guide1"
       inkscape:locked="false" /></sodipodi:namedview><defs
     id="defs1"><inkscape:perspective
       sodipodi:type="inkscape:persp3d"
       inkscape:vp_x="-183.11487 : 148.50001 : 1"
       inkscape:vp_y="0 : 1000 : 0"
       inkscape:vp_z="-195.51426 : 148.50001 : 1"
       inkscape:persp3d-origin="-189.31457 : 99.000003 : 1"
       id="perspective10172" /><symbol
       id="Recycling"><title
         id="title7498">Recycling</title><g
         style="stroke:none"
         id="g7512"><path
           style="stroke-width:0.26458332"
           inkscape:connector-curvature="0"
           d="m 14.684375,3.9026042 -1.389063,0.79375 -0.926041,-1.5875 C 12.236979,2.8773437 11.972396,2.7119792 11.608594,2.7119792 H 8.8304687 C 9.0289062,2.9104167 9.0619792,2.9765625 9.1611979,3.1419271 L 10.88099,6.1184896 9.4919271,6.9122396 H 12.93151 Z"
           id="path7500" /><path
           style="stroke-width:0.26458332"
           inkscape:connector-curvature="0"
           d="m 14.254427,12.038542 h 1.389063 c 0.826822,0 1.322916,-0.892969 0.926041,-1.5875 l -1.752864,-3.069167 -2.38125,1.3890625 z"
           id="path7502" /><path
           style="stroke-width:0.26458332"
           inkscape:connector-curvature="0"
           d="m 12.170833,17.065625 v -1.5875 h 1.852084 c 0.264583,0 0.529166,-0.132292 0.727604,-0.463021 l 1.389062,-2.38125 C 15.875,12.7 15.775781,12.7 15.610417,12.7 h -3.439584 v -1.5875 l -1.719791,2.976562 z"
           id="path7504" /><path
           style="stroke-width:0.26458332"
           inkscape:connector-curvature="0"
           d="m 5.3578125,12.7 -0.6945313,1.190625 c -0.396875,0.727604 0.099219,1.5875 0.8929688,1.5875 H 9.0619792 V 12.7 Z"
           id="path7506" /><path
           style="stroke-width:0.26458332"
           inkscape:connector-curvature="0"
           d="m 2.0505208,8.4005208 1.3890625,0.79375 -0.9260416,1.5875002 C 2.38125,11.013281 2.38125,11.310937 2.5466146,11.641667 l 1.3559896,2.38125 c 0.066146,-0.264584 0.099219,-0.33073 0.1984375,-0.496094 L 5.8208333,10.55026 7.2098958,11.34401 5.4901042,8.3674479 Z"
           id="path7508" /><path
           style="stroke-width:0.26458332"
           inkscape:connector-curvature="0"
           d="M 9.2604167,4.6302083 8.5989583,3.4395833 c -0.4299479,-0.6945312 -1.4221354,-0.6945312 -1.8190104,0 l -1.7528646,3.0427084 2.38125,1.3890625 z"
           id="path7510" /></g></symbol><inkscape:perspective
       id="perspective8310"
       inkscape:persp3d-origin="372.04724 : 350.7874 : 1"
       inkscape:vp_z="744.09447 : 526.18111 : 1"
       inkscape:vp_y="0 : 1000 : 0"
       inkscape:vp_x="0 : 526.18111 : 1"
       sodipodi:type="inkscape:persp3d" /><inkscape:perspective
       id="perspective5302"
       inkscape:persp3d-origin="372.04724 : 350.7874 : 1"
       inkscape:vp_z="744.09447 : 526.18111 : 1"
       inkscape:vp_y="0 : 1000 : 0"
       inkscape:vp_x="0 : 526.18111 : 1"
       sodipodi:type="inkscape:persp3d" /><symbol
       id="ToiletsMen"><title
         id="title4892">Toilets - Men</title><g
         style="stroke:none"
         id="g4898"><circle
           cx="36"
           cy="9"
           r="5"
           id="circle4894" /><path
           d="m 24,22 v 15.5 a 2.25,2.25 0 0 0 4.5,0 V 23 h 1 v 39.5 a 3,3 0 0 0 6,0 V 40 h 1 v 22.5 a 3,3 0 0 0 6,0 V 23 h 1 v 14.5 a 2.25,2.25 0 0 0 4.5,0 V 22 A 7,7 0 0 0 41,15 H 31 a 7,7 0 0 0 -7,7 z"
           id="path4896"
           inkscape:connector-curvature="0" /></g></symbol><inkscape:perspective
       sodipodi:type="inkscape:persp3d"
       inkscape:vp_x="0 : 100 : 1"
       inkscape:vp_y="0 : 1000 : 0"
       inkscape:vp_z="200 : 100 : 1"
       inkscape:persp3d-origin="100 : 66.666667 : 1"
       id="perspective2879" /></defs><g
     inkscape:label="Livello 1"
     inkscape:groupmode="layer"
     id="layer1"><g
       id="path19" /><g
       id="rect22-0"
       transform="matrix(-1,0,0,1,30.661761,0.23016813)" /><g
       id="rect22-7"
       transform="matrix(-1,0,0,1,30.845845,-1.8811487e-4)" /><g
       id="path26" /><g
       id="path52"
       transform="translate(-38.081357,-6.611757)" /><g
       id="path52-1"
       transform="matrix(-1,0,0,1,21.996584,0)" /><g
       id="path19-0"
       transform="translate(3.6443103,6.1232351)" /><g
       id="rect22-0-8"
       transform="matrix(-1,0,0,1,34.306071,6.3534032)" /><g
       id="rect22-7-5"
       transform="matrix(-1,0,0,1,34.490155,6.123047)" /><g
       id="path26-0"
       transform="translate(3.6443103,6.1232351)" /><g
       id="path52-1-6"
       transform="matrix(-1,0,0,1,25.640894,6.1232351)" /><g
       id="path7-6"
       transform="translate(-27.436615,5.5770687)" /><g
       id="g40-6-7"
       transform="translate(0.115617,-0.13948398)" /><g
       id="g1"
       transform="translate(0.26267688,-0.57911909)"><path
         id="path24"
         style="color:#000000;fill:#666666;stroke-linecap:round;stroke-linejoin:round;stroke-dashoffset:6.03213;-inkscape-stroke:none;paint-order:markers fill stroke"
         d="M 14.470951,2.8907796 C 11.300177,2.9256623 8.4545878,3.337378 6.3319132,4.0116414 5.270576,4.3487732 4.3882602,4.7467785 3.7150187,5.2441243 3.0417771,5.7414702 2.5214512,6.3983186 2.5037231,7.2109294 c -0.00359,0.1646464 0.015188,0.3235264 0.05116,0.4769734 v 5.3738322 c -0.033544,0.08815 -0.050876,0.181637 -0.05116,0.275952 0.00212,0.140763 0.020576,0.277094 0.05116,0.408761 v 5.371765 c -0.033606,0.08831 -0.050939,0.18198 -0.05116,0.276469 0.00212,0.140762 0.020576,0.276576 0.05116,0.408244 v 5.85804 c -0.033606,0.08831 -0.050939,0.18198 -0.05116,0.276469 0.00212,0.140726 0.020591,0.276608 0.05116,0.408244 v 0.283187 h 0.08785 c 0.1963367,0.498621 0.5831326,0.923637 1.0448975,1.26969 0.6624383,0.49644 1.5318087,0.89284 2.5781372,1.230415 2.092657,0.675153 4.9019202,1.090771 8.0449862,1.138432 0.431894,0.0068 0.663601,-0.337573 0.670744,-0.769462 -1.45e-4,-0.0038 2e-4,-0.0076 0,-0.01137 v 0 -25.8206446 c -0.004,-0.4324851 -0.07808,-0.77967 -0.51056,-0.7751465 z m -0.660424,1.140146 -0.104904,5.2925363 C 12.298424,9.3668142 10.964936,9.4857652 9.7435913,9.6691772 8.5895136,9.4877915 7.5591072,9.2498987 6.70295,8.9705119 5.763507,8.6639467 5.0328429,8.3026088 4.5955851,7.9669556 4.1583274,7.6313023 4.0652813,7.39294 4.0684855,7.2460693 4.0716896,7.0991988 4.1865177,6.4002674 4.6446777,6.0618094 5.1028379,5.7233514 5.8501432,5.3671674 6.8047526,5.0639375 8.5710241,4.5028848 11.040682,4.112736 13.810527,4.0309256 Z m 14.698327,2.5330148 c -0.09076,-0.014499 -0.188042,-0.00835 -0.286287,0.018087 L 17.489889,9.4728068 c -0.412884,0.1109573 -0.747954,0.5473112 -0.748792,0.9751342 v 18.245915 c 6.87e-4,0.427522 0.335802,0.683541 0.748792,0.572058 l 10.732678,-2.89078 C 28.635451,26.264176 28.97052,25.827822 28.971358,25.4 V 7.1540853 C 28.970756,6.8411241 28.788277,6.6082857 28.508854,6.5639404 Z M 27.07535,8.4403117 24.451737,13.606405 18.23868,15.271419 V 10.820011 Z M 4.0193929,9.4691895 c 0.6006197,0.3852986 1.3362909,0.7070895 2.1972819,0.9880535 0.010644,0.0035 0.021875,0.0069 0.032556,0.01033 -0.8915142,0.293421 -1.6434238,0.633438 -2.2298381,1.032495 z M 27.474292,10.006108 v 2.790527 l -1.64021,0.439766 z M 8.3379924,11.00863 c 1.5348881,0.31459 3.2990206,0.517878 5.2027836,0.584461 v 3.792533 C 12.193817,15.432984 10.916387,15.54985 9.7425578,15.726172 8.6082158,15.547818 7.5934496,15.314405 6.7458415,15.040942 5.8067506,14.737964 5.0741125,14.381679 4.6271077,14.046688 4.1801031,13.711696 4.0706755,13.459805 4.0684855,13.314433 4.066412,13.227371 4.0498198,13.141266 4.0193929,13.059668 v -0.142627 c 0.1170335,-0.152993 0.2882119,-0.31786 0.5296834,-0.489376 0.5071721,-0.36024 1.2813413,-0.717259 2.2515422,-1.019576 0.4689713,-0.146132 0.9842755,-0.279762 1.5373739,-0.399459 z m 19.1362996,3.408578 v 4.467427 l -5.218286,1.397848 2.625679,-5.170744 z m -3.974951,1.065051 -2.626196,5.170744 -2.634465,0.7059 v -4.466911 z m -19.4799481,0.04392 c 0.6081553,0.389557 1.3563965,0.71451 2.2298381,0.997355 -0.8915025,0.293407 -1.6434129,0.633977 -2.2298381,1.033012 z m 4.3201497,1.538924 c 1.5349743,0.314564 3.2985854,0.5184 5.2012334,0.584977 v 4.278809 c -0.595739,0.02095 -1.177872,0.05501 -1.743563,0.102319 C 9.8208106,21.858381 8.0778025,21.52715 6.7458415,21.09742 5.8067506,20.794443 5.0741125,20.438673 4.6271077,20.103682 4.1801031,19.768691 4.0706755,19.516282 4.0684855,19.370911 4.066412,19.283849 4.0498198,19.197744 4.0193929,19.116146 v -0.142627 c 0.1170335,-0.152993 0.2882119,-0.31786 0.5296834,-0.489376 0.5071721,-0.360241 1.2813413,-0.716742 2.2515422,-1.019059 0.4693984,-0.146266 0.9852514,-0.280197 1.5389241,-0.399976 z m 19.1347494,3.439584 v 4.523238 l -8.83667,2.379699 2.665987,-5.249808 z M 4.0193929,21.583179 c 0.612068,0.392052 1.3657191,0.718398 2.2463745,1.002522 0.2559031,0.08256 0.5228011,0.161503 0.7994344,0.236162 -0.1985886,0.05427 -0.3935178,0.110094 -0.5808431,0.168465 -0.9958579,0.310312 -1.8272271,0.675509 -2.4649658,1.109493 z M 19.921265,22.528341 18.23868,25.841317 V 22.978959 Z M 9.6733114,23.357747 c 1.1944596,0.18099 2.4945826,0.300777 3.8674646,0.348816 v 4.97489 C 10.847186,28.581996 8.4575348,28.192932 6.7458415,27.64069 5.8067506,27.337712 5.0741125,26.97936 4.6271077,26.644368 4.1801031,26.309378 4.0706755,26.059552 4.0684855,25.914181 c -0.00202,-0.08724 -0.018609,-0.17352 -0.049093,-0.255282 V 25.515755 C 4.1364272,25.362282 4.307574,25.196883 4.5490763,25.025346 5.0562484,24.665105 5.8304176,24.308088 6.8006185,24.00577 7.6285022,23.7478 8.5992015,23.528057 9.6733114,23.357747 Z"
         sodipodi:nodetypes="csssccccccccccccsscccccccccssssscccccccccccccccccccccccccccccsscccsscccccccccccccccccccsscccsscccscccscscccccccccsscccsscsc" /></g></g></svg>
