<?xml version="1.0" encoding="UTF-8" standalone="no"?>
<!-- Created with Inkscape (http://www.inkscape.org/) -->

<svg
   width="32mm"
   height="32mm"
   viewBox="0 0 32 32"
   version="1.1"
   id="svg1"
   xml:space="preserve"
   inkscape:version="1.3.1 (9b9bdc1480, 2023-11-25, custom)"
   sodipodi:docname="diplomatic_embassy.16.svg"
   xmlns:inkscape="http://www.inkscape.org/namespaces/inkscape"
   xmlns:sodipodi="http://sodipodi.sourceforge.net/DTD/sodipodi-0.dtd"
   xmlns="http://www.w3.org/2000/svg"
   xmlns:svg="http://www.w3.org/2000/svg"><sodipodi:namedview
     id="namedview1"
     pagecolor="#ffffff"
     bordercolor="#666666"
     borderopacity="1.0"
     inkscape:showpageshadow="2"
     inkscape:pageopacity="0.0"
     inkscape:pagecheckerboard="0"
     inkscape:deskcolor="#d1d1d1"
     inkscape:document-units="mm"
     showguides="true"
     inkscape:zoom="3.2209181"
     inkscape:cx="44.862985"
     inkscape:cy="66.595918"
     inkscape:window-width="1318"
     inkscape:window-height="719"
     inkscape:window-x="48"
     inkscape:window-y="27"
     inkscape:window-maximized="1"
     inkscape:current-layer="layer1"
     showgrid="false"><sodipodi:guide
       position="16.225336,-14.837615"
       orientation="1,0"
       id="guide4"
       inkscape:locked="false" /></sodipodi:namedview><defs
     id="defs1" /><g
     inkscape:label="Livello 1"
     inkscape:groupmode="layer"
     id="layer1"><g
       id="path19" /><g
       id="rect22-0"
       transform="matrix(-1,0,0,1,30.661761,0.23016813)" /><g
       id="rect22-7"
       transform="matrix(-1,0,0,1,30.845845,-1.8811487e-4)" /><g
       id="path26" /><g
       id="path52"
       transform="translate(-38.081357,-6.611757)" /><g
       id="path52-1"
       transform="matrix(-1,0,0,1,21.996584,0)" /><path
       id="path1"
       style="color:#000000;fill:#0092db;stroke-linecap:round;-inkscape-stroke:none;stroke:none;fill-opacity:1"
       d="M 4.0565999,3.0096354 C 3.7070626,3.0096245 3.423784,3.2931346 3.4240804,3.6426717 V 29.451432 c 0,0.01242 0.0098,0.02274 0.022221,0.02274 h 1.2205973 c 0.01242,0 0.022738,-0.01032 0.022738,-0.02274 V 3.6426717 C 4.6899329,3.2929326 4.406339,3.0093387 4.0565999,3.0096354 Z"
       sodipodi:nodetypes="ccsssscc" /><path
       style="fill:#0092db;fill-opacity:1;stroke:none;stroke-width:0.255662px;stroke-linecap:butt;stroke-linejoin:miter;stroke-opacity:1"
       d="M 5.6290433,5.0822836 V 19.759277 c 4.9225047,8.5063 17.9557697,-8.471154 22.6470307,0 V 5.0822836 c -4.126228,-7.5141076 -19.0253427,8.1875064 -22.6470307,0 z"
       id="path2"
       sodipodi:nodetypes="ccccc" /></g></svg>
