<?xml version="1.0" encoding="UTF-8" standalone="no"?>
<!-- Created with Inkscape (http://www.inkscape.org/) -->

<svg
   xmlns:dc="http://purl.org/dc/elements/1.1/"
   xmlns:cc="http://creativecommons.org/ns#"
   xmlns:rdf="http://www.w3.org/1999/02/22-rdf-syntax-ns#"
   xmlns:svg="http://www.w3.org/2000/svg"
   xmlns="http://www.w3.org/2000/svg"
   xmlns:sodipodi="http://sodipodi.sourceforge.net/DTD/sodipodi-0.dtd"
   xmlns:inkscape="http://www.inkscape.org/namespaces/inkscape"
   width="32"
   height="32"
   viewBox="0 0 32 32.000001"
   id="svg4174"
   version="1.1"
   inkscape:version="0.91 r13725"
   sodipodi:docname="display_electronic.svg">
  <defs
     id="defs4176" />
  <sodipodi:namedview
     id="base"
     pagecolor="#ffffff"
     bordercolor="#666666"
     borderopacity="1.0"
     inkscape:pageopacity="0.0"
     inkscape:pageshadow="2"
     inkscape:zoom="11.2"
     inkscape:cx="7.3360518"
     inkscape:cy="18.621212"
     inkscape:document-units="px"
     inkscape:current-layer="layer1"
     showgrid="false"
     units="px"
     inkscape:window-width="1600"
     inkscape:window-height="843"
     inkscape:window-x="1680"
     inkscape:window-y="547"
     inkscape:window-maximized="1" />
  <metadata
     id="metadata4179">
    <rdf:RDF>
      <cc:Work
         rdf:about="">
        <dc:format>image/svg+xml</dc:format>
        <dc:type
           rdf:resource="http://purl.org/dc/dcmitype/StillImage" />
        <dc:title></dc:title>
      </cc:Work>
    </rdf:RDF>
  </metadata>
  <g
     inkscape:label="Calque 1"
     inkscape:groupmode="layer"
     id="layer1"
     transform="translate(0,-1020.3622)">
    <path
       inkscape:connector-curvature="0"
       style="opacity:1;fill:#ffffff;fill-opacity:1;fill-rule:nonzero;stroke:none;stroke-width:1;stroke-linecap:round;stroke-miterlimit:4;stroke-dasharray:none;stroke-dashoffset:0;stroke-opacity:1"
       d="M 3.0253906,1024.3622 C 1.3491777,1024.3622 0,1025.7114 0,1027.3876 l 0,17.9492 c 0,1.6762 1.3491777,3.0254 3.0253906,3.0254 l 25.9492184,0 c 1.676213,0 3.025391,-1.3492 3.025391,-3.0254 l 0,-17.9492 c 0,-1.6762 -1.349178,-3.0254 -3.025391,-3.0254 l -25.9492184,0 z m 5.5585938,3 5.9394536,0 0.814453,0.9453 -1.083985,0.9453 -5.941406,0 -0.8125,-0.9453 1.0839844,-0.9453 z m 18.6035156,0 0.8125,0.9453 -0.970703,6.9531 -1.083985,0.9219 -0.8125,-0.9219 0.992188,-6.9531 1.0625,-0.9453 z m -8.310547,0.9902 0.8125,0.9453 -0.835937,5.9629 -1.083985,0.9219 -0.8125,-0.9219 0.857422,-5.9629 1.0625,-0.9453 z m -11.5566405,0.1114 0.7890625,0.9453 -0.1347656,1.0136 -1.0839844,0.9454 -0.7910156,-0.9454 0.1367187,-1.0136 1.0839844,-0.9453 z m 8.1523435,0 0.8125,0.9453 -0.8125,5.8515 -1.083984,0.9219 -0.8125,-0.9219 0.833984,-5.8515 1.0625,-0.9453 z m -8.0390622,6.9531 5.9843752,0 0.8125,0.9453 -1.083985,0.9453 -5.9628902,0 -0.8125,-0.9453 1.0625,-0.9453 z m 11.5332032,0 5.984375,0 0.8125,0.9453 -1.083984,0.9453 -5.960938,0 -0.814453,-0.9453 1.0625,-0.9453 z m -12.7988282,1.0586 0.8125,0.9433 -0.8125,5.8965 L 4,1045.1825 l 1.1074219,-7.7637 1.0605469,-0.9433 z m 19.7324222,0.066 0.8125,0.9219 -0.970703,6.9531 -1.083985,0.9453 -0.814453,-0.9453 0.972656,-6.9531 1.083985,-0.9219 z m -19.5976566,6.9297 5.9863276,0 1.603516,1.8906 -9.7343749,0 2.1445313,-1.8906 z"
       id="rect4153" />
  </g>
</svg>
