<?xml version="1.0" encoding="UTF-8" standalone="no"?>
<svg
   xmlns:dc="http://purl.org/dc/elements/1.1/"
   xmlns:cc="http://creativecommons.org/ns#"
   xmlns:rdf="http://www.w3.org/1999/02/22-rdf-syntax-ns#"
   xmlns:svg="http://www.w3.org/2000/svg"
   xmlns="http://www.w3.org/2000/svg"
   xmlns:sodipodi="http://sodipodi.sourceforge.net/DTD/sodipodi-0.dtd"
   xmlns:inkscape="http://www.inkscape.org/namespaces/inkscape"
   version="1.1"
   x="0px"
   y="0px"
   viewBox="0 0 32 32"
   enable-background="new 0 0 100 100"
   xml:space="preserve"
   id="svg4186"
   inkscape:version="0.91 r13725"
   sodipodi:docname="emergency_fire_hose.svg"
   width="32"
   height="32"
   inkscape:export-filename="/home/adrien/Documents/Programmation/Web/panieravide.github.io/openlevelup/img/emergency_fire_hose.png"
   inkscape:export-xdpi="67"
   inkscape:export-ydpi="67"><metadata
     id="metadata4196"><rdf:RDF><cc:Work
         rdf:about=""><dc:format>image/svg+xml</dc:format><dc:type
           rdf:resource="http://purl.org/dc/dcmitype/StillImage" /><dc:title></dc:title></cc:Work></rdf:RDF></metadata><defs
     id="defs4194" /><sodipodi:namedview
     pagecolor="#ffffff"
     bordercolor="#666666"
     borderopacity="1"
     objecttolerance="10"
     gridtolerance="10"
     guidetolerance="10"
     inkscape:pageopacity="0"
     inkscape:pageshadow="2"
     inkscape:window-width="1600"
     inkscape:window-height="843"
     id="namedview4192"
     showgrid="false"
     inkscape:zoom="17.847375"
     inkscape:cx="12.970764"
     inkscape:cy="15.192597"
     inkscape:window-x="0"
     inkscape:window-y="595"
     inkscape:window-maximized="1"
     inkscape:current-layer="svg4186" /><g
     id="g4188"
     style="fill:#fa0032;fill-opacity:1"
     transform="matrix(0.38181344,0,0,0.38181344,-2.9359299,-2.8777797)"><path
       d="M 87.8,50.9 C 86.2,38.2 82.5,26.5 67.5,18.6 57.7,13.4 46.5,12.4 36,15.6 25.4,18.9 16.8,26 11.6,35.8 2.9,52.4 9.2,72.9 25.7,81.6 c 4.2,2.2 8.9,3.2 13.6,3.2 11,0 22.2,-5.6 27.1,-14.9 C 72.3,58.7 70,42.5 55.8,34.7 50.6,31.8 44.6,31.2 38.8,33 c -5.4,1.6 -9.8,5.2 -12.2,9.8 -6,11.6 -1,22.2 6.7,26.3 6.6,3.5 15.8,0.7 19.6,-6 2.2,-3.9 2.2,-8.2 0.1,-11.9 -2.1,-3.5 -5.7,-5.8 -9.4,-5.8 l 0,8 c 0.6,0 1.7,0.6 2.4,1.8 0.7,1.3 0.7,2.6 -0.1,4 -1.4,2.8 -5.9,4.3 -8.7,2.8 -4.5,-2.4 -7,-8.5 -3.4,-15.6 1.4,-2.7 4.1,-4.8 7.4,-5.8 3.7,-1.1 7.5,-0.7 10.8,1.1 10.2,5.7 11.4,16.8 7.4,24.5 -5,9.5 -19.8,13.6 -29.9,8.3 C 16.9,67.8 12,52.1 18.7,39.5 22.9,31.6 29.8,25.8 38.4,23.2 46.9,20.6 55.9,21.4 63.8,25.6 74.4,31.3 78,38.9 79.7,50.9 l -4,0 0,5.2 2.2,0 1.9,16.8 8.5,0 1.2,-16.8 2,0 0,-5.2 -3.7,0 z"
       id="path4190"
       style="fill:#fa0032;fill-opacity:1"
       inkscape:connector-curvature="0" /></g></svg>