<?xml version="1.0" encoding="UTF-8" standalone="no"?>
<!-- Generator: Adobe Illustrator 17.0.0, SVG Export Plug-In . SVG Version: 6.00 Build 0)  -->

<svg
   xmlns:dc="http://purl.org/dc/elements/1.1/"
   xmlns:cc="http://creativecommons.org/ns#"
   xmlns:rdf="http://www.w3.org/1999/02/22-rdf-syntax-ns#"
   xmlns:svg="http://www.w3.org/2000/svg"
   xmlns="http://www.w3.org/2000/svg"
   xmlns:sodipodi="http://sodipodi.sourceforge.net/DTD/sodipodi-0.dtd"
   xmlns:inkscape="http://www.inkscape.org/namespaces/inkscape"
   version="1.1"
   id="图层_1"
   x="0px"
   y="0px"
   width="66.584px"
   height="66.028px"
   viewBox="0 0 66.584 66.028"
   enable-background="new 0 0 66.584 66.028"
   xml:space="preserve"
   inkscape:version="0.91 r13725"
   sodipodi:docname="Emergency_stairs.svg"><metadata
     id="metadata19"><rdf:RDF><cc:Work
         rdf:about=""><dc:format>image/svg+xml</dc:format><dc:type
           rdf:resource="http://purl.org/dc/dcmitype/StillImage" /></cc:Work></rdf:RDF></metadata><defs
     id="defs17" /><sodipodi:namedview
     pagecolor="#ffffff"
     bordercolor="#666666"
     borderopacity="1"
     objecttolerance="10"
     gridtolerance="10"
     guidetolerance="10"
     inkscape:pageopacity="0"
     inkscape:pageshadow="2"
     inkscape:window-width="1600"
     inkscape:window-height="843"
     id="namedview15"
     showgrid="false"
     inkscape:zoom="7.1484825"
     inkscape:cx="36.900989"
     inkscape:cy="37.482712"
     inkscape:window-x="1920"
     inkscape:window-y="568"
     inkscape:window-maximized="1"
     inkscape:current-layer="图层_1" /><path
     d="m 51.82166,36.298536 0,3.346628 c 0,0 -8.042789,6.512788 -8.042789,6.512788 -0.924901,0.74974 -1.068214,2.107235 -0.318474,3.033462 l 0,0 c 0.749741,0.924901 2.107235,1.068214 3.033463,0.318474 0,0 5.3278,-4.313992 5.3278,-4.313992 l 0,8.647889 c 0,1.252663 1.016462,2.269125 2.269125,2.269125 l 0,0 c 1.252664,0 2.269126,-1.016462 2.269126,-2.269125 l 0,-25.036017 4.661659,5.724566 c 0.655525,0.805473 1.839186,0.926227 2.644659,0.270702 l 0,0 c 0.805473,-0.655525 0.926228,-1.839186 0.270703,-2.644659 0,0 -7.577021,-9.310049 -7.577021,-9.308722 l 0,-2.210738 c 0,-2.506654 -2.031597,-4.538251 -4.538251,-4.538251 l 0,0 c -2.506654,0 -4.538251,2.031597 -4.538251,4.538251 l 0,11.121368 c 0,2.506654 2.031597,4.539578 4.538251,4.538251 0,0.0013 0,0.0013 0,0 z"
     id="path9"
     style="fill:#019501;fill-opacity:1"
     inkscape:connector-curvature="0" /><circle
     cx="52.002129"
     cy="9.9421778"
     r="3.4355354"
     id="circle11"
     style="fill:#019501;fill-opacity:1" /><path
     d="m 62.072966,56.352316 -12.19489,0 0,-5.995268 -13.715603,0 0,-6.005884 -13.715602,0 0,-6.005884 -19.0234982,0 0,6.776856 13.7156022,0 0,6.005884 13.715603,0 0,6.005884 13.715602,0 0,6.005884 17.502786,0 z"
     id="path13"
     style="fill:#019501;fill-opacity:1"
     inkscape:connector-curvature="0"
     sodipodi:nodetypes="ccccccccccccccccc" /><g
     id="g4189"
     transform="matrix(0.27621042,0,0,0.27621042,-2.8550477,2.3330024)"
     style="fill:#019501;fill-opacity:1"><path
       id="path4191"
       d="m 98.59,51.16 c -4.23,0.92 -7.88,3.28 -9.59,7.35 -1.03,2.47 -2.47,8.85 -6.42,7.2 -1.89,-0.78 -1.86,-3.49 -1.64,-5.18 0.47,-3.47 2.03,-6.64 3.1,-9.94 1.1,-3.42 2.05,-6.86 2.73,-10.4 C 89.05,28.47 88.42,14.97 80.13,5.6 78.73,4 75.2,0.3 72.87,0.22 c -1.44,-0.04 -0.02,1.66 0.38,2.23 0.81,1.17 1.49,2.44 2.01,3.77 6.13,15.64 -8.98,27.55 -18.91,36.82 -4.76,4.45 -8.56,9.17 -11.98,14.68 -0.34,0.53 -1.09,2.31 -2.06,1.94 -1.15,-0.44 -1.27,-3.07 -1.63,-4.05 -0.68,-1.88 -1.73,-3.93 -3.08,-5.4 -2.61,-2.86 -6.26,-4.79 -10.21,-4.53 -0.15,0.01 -0.58,0.08 -1.11,0.2 -0.83,0.18 -3.05,0.47 -2.45,1.81 0.31,0.69 1.22,0.63 1.87,0.82 8.34,2.56 8.15,11.3 6.8,18.32 -2.44,12.78 -9.2,24.86 -4.4,38 5.66,15.49 23.38,25.16 39.46,22.5 4.39,-0.72 9.45,-2.14 13.39,-4.26 4.19,-2.26 8.78,-5.35 12.05,-8.83 4.21,-4.47 6.89,-10.2 7.68,-16.27 0.93,-7.02 -1.31,-13.64 -3.35,-20.27 -2.46,-8 -5.29,-21.06 4.93,-24.97 0.5,-0.2 1.5,-0.35 1.85,-0.88 1.3,-1.94 -4.94,-0.81 -5.52,-0.69 z"
       inkscape:connector-curvature="0"
       style="fill:#019501;fill-opacity:1" /><path
       id="path4193"
       d="m 68.13,106.07 c 2.12,1.78 5.09,0.91 7.09,-0.61 1.07,-0.81 1.99,-1.85 2.59,-3.06 0.25,-0.52 0.54,-1.18 0.54,-1.77 0,-0.79 -0.47,-1.57 -0.27,-2.38 1.68,-0.33 3.76,4.5 3.97,5.62 1.68,8.83 -6.64,16.11 -14.67,17.52 -13.55,2.37 -21.34,-9.5 -19.78,-20.04 0.97,-6.56 5.37,-11.07 9.85,-15.57 3.71,-3.73 7.15,-6.93 8.35,-11.78 0.21,-0.86 0.16,-2.18 -0.09,-3.03 -0.21,-0.73 -0.61,-1.4 -0.63,-2.19 -0.06,-1.66 1.55,0.51 1.92,0.93 4.46,5.03 5.73,12.46 4.54,18.96 -0.77,4.2 -3.77,7.2 -4.82,11.22 -0.61,2.29 -0.55,4.52 1.41,6.18 z"
       inkscape:connector-curvature="0"
       style="fill:#ffffff;fill-opacity:1" /></g></svg>