<?xml version="1.0" encoding="UTF-8" standalone="no"?>
<!-- Created with Inkscape (http://www.inkscape.org/) -->

<svg
   xmlns:dc="http://purl.org/dc/elements/1.1/"
   xmlns:cc="http://creativecommons.org/ns#"
   xmlns:rdf="http://www.w3.org/1999/02/22-rdf-syntax-ns#"
   xmlns:svg="http://www.w3.org/2000/svg"
   xmlns="http://www.w3.org/2000/svg"
   xmlns:sodipodi="http://sodipodi.sourceforge.net/DTD/sodipodi-0.dtd"
   xmlns:inkscape="http://www.inkscape.org/namespaces/inkscape"
   width="32"
   height="32"
   viewBox="0 0 32 32.000001"
   id="svg4135"
   version="1.1"
   inkscape:version="0.91 r13725"
   sodipodi:docname="emergency_phone.svg">
  <defs
     id="defs4137" />
  <sodipodi:namedview
     id="base"
     pagecolor="#ffffff"
     bordercolor="#666666"
     borderopacity="1.0"
     inkscape:pageopacity="0.0"
     inkscape:pageshadow="2"
     inkscape:zoom="15.839192"
     inkscape:cx="12.139391"
     inkscape:cy="16.799175"
     inkscape:document-units="px"
     inkscape:current-layer="layer1"
     showgrid="false"
     units="px"
     inkscape:window-width="1600"
     inkscape:window-height="843"
     inkscape:window-x="1920"
     inkscape:window-y="611"
     inkscape:window-maximized="1" />
  <metadata
     id="metadata4140">
    <rdf:RDF>
      <cc:Work
         rdf:about="">
        <dc:format>image/svg+xml</dc:format>
        <dc:type
           rdf:resource="http://purl.org/dc/dcmitype/StillImage" />
        <dc:title></dc:title>
      </cc:Work>
    </rdf:RDF>
  </metadata>
  <g
     inkscape:label="Calque 1"
     inkscape:groupmode="layer"
     id="layer1"
     transform="translate(0,-1020.3622)">
    <path
       inkscape:connector-curvature="0"
       id="path3733"
       d="m 20.675645,1047.2155 -2.557045,-4.499 -0.548523,-0.2986 c -3.006078,-1.6367 -5.200124,-4.6971 -5.780358,-8.0629 -0.128995,-0.7482 -0.206993,-1.9434 -0.163466,-2.5047 l 0.03101,-0.3996 -2.6150085,-4.5189 -2.6150614,-4.519 -0.5366966,0.2849 -0.5366961,0.2851 -0.058469,0.994 c -0.2540645,4.3203 0.5638006,8.9149 2.3511935,13.2085 0.5320922,1.2782 2.4896276,4.7411 3.2936916,5.8266 1.801711,2.4324 3.923829,4.5976 6.140625,6.2653 1.445176,1.0872 3.543841,2.3757 4.747831,2.9149 l 0.379788,0.1701 0.511798,-0.3244 0.511796,-0.3244 z m 6.041713,2.2972 c -0.04717,-0.2935 -0.523115,-1.6473 -0.878971,-2.5 -0.389851,-0.9343 -1.774051,-3.3514 -2.36728,-4.1339 -0.250422,-0.3303 -0.776139,-0.9674 -1.16821,-1.4157 l -0.712869,-0.8151 -1.187389,0.6901 -1.187388,0.6901 2.52869,4.4499 c 1.390823,2.4474 2.565343,4.4799 2.610129,4.5164 0.06052,0.05 0.37536,-0.1039 1.238657,-0.606 L 26.75,1049.7159 Z M 15.036819,1029.04 c -0.164956,-0.6728 -0.76486,-2.1824 -1.33143,-3.3507 -0.827163,-1.7054 -2.21669,-3.7211 -3.470927,-5.0348 l -0.2790235,-0.2923 -1.1873886,0.6901 -1.1873882,0.6901 2.5287423,4.4499 c 1.390771,2.4474 2.565985,4.4803 2.611589,4.5177 0.06381,0.052 0.351411,-0.094 1.241015,-0.6308 l 1.158486,-0.6977 z"
       style="fill:#fa0032"
       sodipodi:nodetypes="ccssscccccsssssccccsssscccscscsssscccscscs" />
  </g>
</svg>
