<?xml version="1.0" encoding="UTF-8" standalone="no"?>
<!-- Created with Inkscape (http://www.inkscape.org/) -->

<svg
   width="32mm"
   height="32mm"
   viewBox="0 0 32 32"
   version="1.1"
   id="svg1"
   xml:space="preserve"
   inkscape:version="1.3.1 (9b9bdc1480, 2023-11-25, custom)"
   sodipodi:docname="food_pub.svg"
   xmlns:inkscape="http://www.inkscape.org/namespaces/inkscape"
   xmlns:sodipodi="http://sodipodi.sourceforge.net/DTD/sodipodi-0.dtd"
   xmlns="http://www.w3.org/2000/svg"
   xmlns:svg="http://www.w3.org/2000/svg"><sodipodi:namedview
     id="namedview1"
     pagecolor="#ffffff"
     bordercolor="#666666"
     borderopacity="1.0"
     inkscape:showpageshadow="2"
     inkscape:pageopacity="0.0"
     inkscape:pagecheckerboard="0"
     inkscape:deskcolor="#d1d1d1"
     inkscape:document-units="mm"
     showguides="true"
     inkscape:zoom="2.277533"
     inkscape:cx="5.9274662"
     inkscape:cy="21.734043"
     inkscape:window-width="1318"
     inkscape:window-height="719"
     inkscape:window-x="48"
     inkscape:window-y="27"
     inkscape:window-maximized="1"
     inkscape:current-layer="layer1"
     showgrid="false"><sodipodi:guide
       position="16.225336,-14.837615"
       orientation="1,0"
       id="guide4"
       inkscape:locked="false" /></sodipodi:namedview><defs
     id="defs1" /><g
     inkscape:label="Livello 1"
     inkscape:groupmode="layer"
     id="layer1"><g
       id="path19" /><g
       id="rect22-0"
       transform="matrix(-1,0,0,1,30.661761,0.23016813)" /><g
       id="rect22-7"
       transform="matrix(-1,0,0,1,30.845845,-1.8811487e-4)" /><g
       id="path26" /><g
       id="path52"
       transform="translate(-38.081357,-6.611757)" /><g
       id="path52-1"
       transform="matrix(-1,0,0,1,21.996584,0)" /><g
       inkscape:label="Livello 1"
       id="layer1-9"
       transform="translate(-0.0268177,-0.5027378)"><g
         id="path19-6" /><g
         id="rect22-0-3"
         transform="matrix(-1,0,0,1,30.661761,0.23016813)" /><g
         id="rect22-7-8"
         transform="matrix(-1,0,0,1,30.845845,-1.8811487e-4)" /><g
         id="path26-5" /><g
         id="path52-6"
         transform="translate(-38.081357,-6.611757)" /><g
         id="path52-5"
         transform="translate(5.0017045,-6.410269)"><path
           id="path55-3"
           style="color:#000000;fill:#734a08;stroke-linecap:round;-inkscape-stroke:none"
           d="m 13.666353,10.490566 c -4.3057642,-0.0053 -9.2253095,0.02056 -9.2325118,0.01809 -0.404558,9.9e-4 -0.7314669,0.329987 -0.7270874,0.587044 0.00159,0.0121 2.8597738,23.235274 2.8597738,23.235274 l 4.4317704,-0.03101 4.431771,0.03101 c 0,0 1.582556,-12.858903 2.304252,-18.722371 h 0.01137 c 0.53309,0 0.962215,-0.486353 0.962215,-1.090373 v -2.914034 c 0,-0.604018 -0.429125,-1.090372 -0.962215,-1.090372 h -0.131775 c -0.01719,-0.0012 -0.03365,-0.0051 -0.05116,-0.0052 -1.094254,-0.01086 -2.46115,-0.01631 -3.896403,-0.01809 z m 2.943489,2.174544 v 1.853117 c 0,0.407081 0.195457,0.759927 0.485759,0.947229 L 14.882816,33.722223 7.0925937,33.721706 4.7681877,14.154425 c 0.6560865,0.204509 1.2777131,0.32956 1.8717204,0.393775 -0.0052,0.04607 -0.00827,0.09283 -0.00827,0.14056 v 3.066996 c 0,0.60402 0.4294764,1.090373 0.9627319,1.090373 h 0.00982 c 0.5332556,0 0.962732,-0.486353 0.962732,-1.090373 V 14.68876 c 0,-0.04666 -0.00329,-0.09237 -0.00827,-0.13746 0.013751,-0.0014 0.040824,-0.019 0.040824,-0.0052 v 1.439706 c 0,0.389068 0.2575788,0.702282 0.5772258,0.702282 H 9.440254 c 0.319647,0 0.576709,-0.313214 0.576709,-0.702282 V 14.304804 C 11.774905,13.89458 13.34745,13.16692 14.989269,12.83771 v 0.500744 c 0,0.389069 0.257579,0.702283 0.577226,0.702283 h 0.221175 c 0.319647,0 0.576709,-0.313214 0.576709,-0.702283 v -0.669209 c 0.08159,-0.0025 0.163331,-0.0041 0.245463,-0.0041 z"
           sodipodi:nodetypes="cccccccssssccscscccccssssssccssssccsssscccs" /></g><g
         id="path52-1-1"
         transform="matrix(-1,0,0,1,21.996584,0)" /></g></g></svg>
