<?xml version="1.0" encoding="UTF-8" standalone="no"?>
<!-- Created with Inkscape (http://www.inkscape.org/) -->

<svg
   width="32mm"
   height="32mm"
   viewBox="0 0 32 32"
   version="1.1"
   id="svg1"
   xml:space="preserve"
   inkscape:version="1.3.1 (9b9bdc1480, 2023-11-25, custom)"
   sodipodi:docname="food_pizza.svg"
   xmlns:inkscape="http://www.inkscape.org/namespaces/inkscape"
   xmlns:sodipodi="http://sodipodi.sourceforge.net/DTD/sodipodi-0.dtd"
   xmlns="http://www.w3.org/2000/svg"
   xmlns:svg="http://www.w3.org/2000/svg"><sodipodi:namedview
     id="namedview1"
     pagecolor="#ffffff"
     bordercolor="#666666"
     borderopacity="1.0"
     inkscape:showpageshadow="2"
     inkscape:pageopacity="0.0"
     inkscape:pagecheckerboard="0"
     inkscape:deskcolor="#d1d1d1"
     inkscape:document-units="mm"
     showguides="true"
     inkscape:zoom="1.6104591"
     inkscape:cx="12.108349"
     inkscape:cy="30.736578"
     inkscape:window-width="1318"
     inkscape:window-height="719"
     inkscape:window-x="48"
     inkscape:window-y="27"
     inkscape:window-maximized="1"
     inkscape:current-layer="layer1"
     showgrid="false"><sodipodi:guide
       position="16.225336,-14.837615"
       orientation="1,0"
       id="guide4"
       inkscape:locked="false" /></sodipodi:namedview><defs
     id="defs1" /><g
     inkscape:label="Livello 1"
     inkscape:groupmode="layer"
     id="layer1"><g
       id="path19" /><g
       id="rect22-0"
       transform="matrix(-1,0,0,1,30.661761,0.23016813)" /><g
       id="rect22-7"
       transform="matrix(-1,0,0,1,30.845845,-1.8811487e-4)" /><g
       id="path26" /><g
       id="path52"
       transform="translate(-38.081357,-6.611757)" /><g
       id="path52-1"
       transform="matrix(-1,0,0,1,21.996584,0)" /><g
       id="g10"
       transform="rotate(178.96688,16.104999,15.810955)"><path
         id="path6"
         style="fill:#734a08;fill-opacity:1;stroke:#734a08;stroke-width:0.404523;stroke-linecap:round;stroke-linejoin:round;stroke-dasharray:none;stroke-dashoffset:6.03213;stroke-opacity:1;paint-order:stroke fill markers"
         d="m 21.990179,3.0214098 c 0.08276,0.1486621 0.06592,0.3770113 -0.07919,0.7083541 L 20.50526,6.8463224 v 0.2781513 l 1.123252,-2.4378162 0.06355,0.1510535 0.155047,-0.3673194 c 3.71379,2.0441915 6.025933,5.9426254 6.03881,10.1818014 v 0.0017 C 27.8859,21.094842 22.664517,26.316373 16.223532,26.316579 9.7825449,26.31674 4.5608648,21.095508 4.5604752,14.654521 4.5602482,10.417969 6.9744062,6.818297 10.354407,4.7734966 L 9.836366,3.701483 C 9.7737578,3.5751156 9.7435448,3.46518 9.7435381,3.3707624 5.7057717,5.671459 3.2076148,9.9567336 3.1950054,14.603948 3.1949699,21.766704 9.0015522,27.573286 16.164308,27.57325 23.327063,27.573286 29.133645,21.766704 29.13361,14.603948 29.13191,9.7036046 26.368295,5.2226536 21.990179,3.0214098 Z m -2.052862,5.0839131 -2.599184,5.7623231 v 0.131091 l 2.599184,-5.6415474 z m -3.474895,7.7037261 -0.327393,0.725988 -0.05423,-0.0053 0.04558,0.09882 0.336044,-0.729315 z" /><path
         id="path6-0"
         style="fill:none;fill-opacity:1;stroke:#734a08;stroke-width:0.363773;stroke-linecap:round;stroke-linejoin:round;stroke-dasharray:none;stroke-dashoffset:6.03213;stroke-opacity:1;paint-order:stroke fill markers"
         d="M 21.78822,4.420484 21.633174,4.7878034 21.569625,4.63675 20.446374,7.0745662 V 5.9892439 c -1.1e-5,-0.1500933 -0.120718,-0.270827 -0.270832,-0.2708315 h -0.02628 c -0.150116,7e-7 -0.270831,0.1207144 -0.270831,0.2708315 v 2.3180377 l -2.599189,5.6415474 v -0.673752 c -1e-6,-0.236343 -0.195277,-0.426543 -0.437856,-0.426543 -0.242577,0 -0.437854,0.190199 -0.437854,0.426543 v 2.574231 l -0.336044,0.729315 -0.601552,-1.305581 -0.08185,-4.30835 c -0.0045,-0.236303 -0.203307,-0.422861 -0.445841,-0.418225 -0.242537,0.0046 -0.434709,0.198557 -0.430203,0.434861 l 0.04392,2.308056 -1.253011,-2.719627 -0.01863,-1.3950824 c -0.0028,-0.150066 -0.125732,-0.268693 -0.275823,-0.26584 l -0.371312,0.0073 -0.03061,-1.6150071 c -0.0029,-0.1500462 -0.125734,-0.268674 -0.275824,-0.2658219 l -0.176007,0.00333 c -0.150088,0.00285 -0.269027,0.1260635 -0.266174,0.2761535 l 0.0043,0.2172641 -1.416376,-2.6800341 -0.02495,0.059889 -0.114787,-0.2122733 C 6.9329035,6.7403896 4.5013565,10.352216 4.5015844,14.604614 c 3.893e-4,6.440992 5.2220632,11.662219 11.6630566,11.662058 6.440992,-2.06e-4 11.662368,-5.221731 11.66239,-11.662724 v -0.0017 C 27.814153,10.363094 25.502015,6.4646776 21.78822,4.420484 Z"
         sodipodi:nodetypes="cccccssscccsscccccccccccccccccccccscc" /><ellipse
         style="fill:#734a08;fill-opacity:1;stroke:none;stroke-width:0.492866;stroke-linecap:round;stroke-linejoin:round;stroke-dasharray:none;stroke-dashoffset:6.03213;stroke-opacity:1;paint-order:stroke fill markers"
         id="path7-4"
         cx="20.241409"
         cy="14.676608"
         rx="1.5054567"
         ry="1.5416584" /><ellipse
         style="fill:#734a08;fill-opacity:1;stroke:none;stroke-width:0.492866;stroke-linecap:round;stroke-linejoin:round;stroke-dasharray:none;stroke-dashoffset:6.03213;stroke-opacity:1;paint-order:stroke fill markers"
         id="path7-4-1"
         cx="17.036989"
         cy="20.229712"
         rx="1.5054567"
         ry="1.5416584" /><ellipse
         style="fill:#734a08;fill-opacity:1;stroke:none;stroke-width:0.492866;stroke-linecap:round;stroke-linejoin:round;stroke-dasharray:none;stroke-dashoffset:6.03213;stroke-opacity:1;paint-order:stroke fill markers"
         id="path7-4-7"
         cx="13.039512"
         cy="16.000946"
         rx="1.5054567"
         ry="1.5416584" /><ellipse
         style="fill:#734a08;fill-opacity:1;stroke:none;stroke-width:0.492866;stroke-linecap:round;stroke-linejoin:round;stroke-dasharray:none;stroke-dashoffset:6.03213;stroke-opacity:1;paint-order:stroke fill markers"
         id="path7-4-6"
         cx="11.162985"
         cy="20.045343"
         rx="1.5054567"
         ry="1.5416584" /><ellipse
         style="fill:#734a08;fill-opacity:1;stroke:none;stroke-width:0.492866;stroke-linecap:round;stroke-linejoin:round;stroke-dasharray:none;stroke-dashoffset:6.03213;stroke-opacity:1;paint-order:stroke fill markers"
         id="path7-4-9"
         cx="13.72549"
         cy="23.803274"
         rx="1.5054567"
         ry="1.5416584" /><ellipse
         style="fill:#734a08;fill-opacity:1;stroke:none;stroke-width:0.492866;stroke-linecap:round;stroke-linejoin:round;stroke-dasharray:none;stroke-dashoffset:6.03213;stroke-opacity:1;paint-order:stroke fill markers"
         id="path7-4-2"
         cx="8.9858932"
         cy="15.292377"
         rx="1.5054567"
         ry="1.5416584" /><ellipse
         style="fill:#734a08;fill-opacity:1;stroke:none;stroke-width:0.492866;stroke-linecap:round;stroke-linejoin:round;stroke-dasharray:none;stroke-dashoffset:6.03213;stroke-opacity:1;paint-order:stroke fill markers"
         id="path7-4-0"
         cx="9.2670727"
         cy="10.407319"
         rx="1.5054567"
         ry="1.5416584" /><ellipse
         style="fill:#734a08;fill-opacity:1;stroke:none;stroke-width:0.492866;stroke-linecap:round;stroke-linejoin:round;stroke-dasharray:none;stroke-dashoffset:6.03213;stroke-opacity:1;paint-order:stroke fill markers"
         id="path7-5-4"
         cx="23.075649"
         cy="9.9484301"
         rx="1.5054567"
         ry="1.5416584" /><ellipse
         style="fill:#734a08;fill-opacity:1;stroke:none;stroke-width:0.492866;stroke-linecap:round;stroke-linejoin:round;stroke-dasharray:none;stroke-dashoffset:6.03213;stroke-opacity:1;paint-order:stroke fill markers"
         id="path7-8-3"
         cx="25.379887"
         cy="16.411716"
         rx="1.5054567"
         ry="1.5416584" /><ellipse
         style="fill:#734a08;fill-opacity:1;stroke:none;stroke-width:0.492866;stroke-linecap:round;stroke-linejoin:round;stroke-dasharray:none;stroke-dashoffset:6.03213;stroke-opacity:1;paint-order:stroke fill markers"
         id="path7-6-0"
         cx="21.393145"
         cy="20.043758"
         rx="1.5054567"
         ry="1.5416584" /></g><ellipse
       style="fill:#734a08;fill-opacity:1;stroke:none;stroke-width:0.511;stroke-linecap:round;stroke-linejoin:round;stroke-dasharray:none;stroke-dashoffset:6.03213;stroke-opacity:1;paint-order:stroke fill markers"
       id="path7"
       cx="61.822933"
       cy="9.9364071"
       rx="1.5608478"
       ry="1.5983814" /><ellipse
       style="fill:#734a08;fill-opacity:1;stroke:none;stroke-width:0.511;stroke-linecap:round;stroke-linejoin:round;stroke-dasharray:none;stroke-dashoffset:6.03213;stroke-opacity:1;paint-order:stroke fill markers"
       id="path7-5"
       cx="66.873657"
       cy="7.322691"
       rx="1.5608478"
       ry="1.5983814" /><ellipse
       style="fill:#734a08;fill-opacity:1;stroke:none;stroke-width:0.511;stroke-linecap:round;stroke-linejoin:round;stroke-dasharray:none;stroke-dashoffset:6.03213;stroke-opacity:1;paint-order:stroke fill markers"
       id="path7-8"
       cx="68.005974"
       cy="13.007985"
       rx="1.5608478"
       ry="1.5983814" /><ellipse
       style="fill:#734a08;fill-opacity:1;stroke:none;stroke-width:0.511;stroke-linecap:round;stroke-linejoin:round;stroke-dasharray:none;stroke-dashoffset:6.03213;stroke-opacity:1;paint-order:stroke fill markers"
       id="path7-6"
       cx="64.429146"
       cy="17.97369"
       rx="1.5608478"
       ry="1.5983814" /></g></svg>
