<?xml version="1.0" encoding="UTF-8" standalone="no"?>
<!-- Created with Inkscape (http://www.inkscape.org/) -->

<svg
   width="32mm"
   height="32mm"
   viewBox="0 0 32 32"
   version="1.1"
   id="svg1"
   xml:space="preserve"
   inkscape:version="1.3.1 (9b9bdc1480, 2023-11-25, custom)"
   sodipodi:docname="food_fastfood_pizza.svg"
   xmlns:inkscape="http://www.inkscape.org/namespaces/inkscape"
   xmlns:sodipodi="http://sodipodi.sourceforge.net/DTD/sodipodi-0.dtd"
   xmlns="http://www.w3.org/2000/svg"
   xmlns:svg="http://www.w3.org/2000/svg"><sodipodi:namedview
     id="namedview1"
     pagecolor="#ffffff"
     bordercolor="#666666"
     borderopacity="1.0"
     inkscape:showpageshadow="2"
     inkscape:pageopacity="0.0"
     inkscape:pagecheckerboard="0"
     inkscape:deskcolor="#d1d1d1"
     inkscape:document-units="mm"
     showguides="true"
     inkscape:zoom="4.5550661"
     inkscape:cx="71.678433"
     inkscape:cy="56.530464"
     inkscape:window-width="1318"
     inkscape:window-height="719"
     inkscape:window-x="48"
     inkscape:window-y="27"
     inkscape:window-maximized="1"
     inkscape:current-layer="layer1"
     showgrid="false"><sodipodi:guide
       position="16.225336,-14.837615"
       orientation="1,0"
       id="guide4"
       inkscape:locked="false" /></sodipodi:namedview><defs
     id="defs1" /><g
     inkscape:label="Livello 1"
     inkscape:groupmode="layer"
     id="layer1"><g
       id="path19" /><g
       id="rect22-0"
       transform="matrix(-1,0,0,1,30.661761,0.23016813)" /><g
       id="rect22-7"
       transform="matrix(-1,0,0,1,30.845845,-1.8811487e-4)" /><g
       id="path26" /><g
       id="path52"
       transform="translate(-38.081357,-6.611757)" /><g
       id="path52-1"
       transform="matrix(-1,0,0,1,21.996584,0)" /><path
       id="path6"
       style="fill:#734a08;stroke:#734a08;stroke-width:0.753484;stroke-linecap:round;stroke-linejoin:round;stroke-dashoffset:6.03213;paint-order:stroke fill markers;fill-opacity:1"
       transform="rotate(-114.73764)"
       d="m -8.7807836,3.5258449 c -0.2225727,6.2353296 -2.8506474,12.1456781 -7.3334484,16.4879581 -0.338041,0.373737 -0.778016,0.338071 -1.377024,-0.33632 L -18.359646,18.72 c 1.857221,-1.560033 3.663551,-3.438176 5.217082,-6.896555 1.151907,-2.7249668 1.918554,-5.6842699 1.835496,-9.1604082 h 1.7037979 c 0.6631107,-0.018735 0.9286592,0.2756518 0.8224865,0.8628081 z"
       sodipodi:nodetypes="cccccccc" /><path
       id="path6-0"
       style="fill:none;stroke:#734a08;stroke-width:0.67758;stroke-linecap:round;stroke-linejoin:round;stroke-dashoffset:6.03213;paint-order:stroke fill markers"
       d="m -13.279383,11.940368 c 1.355646,-2.8704244 2.080501,-6.0341547 2.080501,-9.2773238 l -2.548989,-6.41e-5 -5.073125,-2.33741571 c -0.333397,-0.15361123 -0.728616,-0.001764 -0.886278,0.34042605 -0.157662,0.34218986 -0.01628,0.74127256 0.317116,0.89488376 l 2.392239,1.1022119 -9.647497,-1.823e-4 -3.26991,-1.506594 c -0.211761,-0.097568 -0.460502,-0.00574 -0.55807,0.2060197 l -0.01708,0.037078 c -0.09756,0.2117604 -0.0057,0.4605026 0.20602,0.5580701 l 1.530996,0.7053983 -4.168924,5.77e-5 3.301139,3.6159575 -0.30695,-0.1414257 c -0.211761,-0.097568 -0.460721,-0.00527 -0.558286,0.2064891 l -0.114395,0.2482823 c -0.09757,0.2117606 -0.0057,0.4605024 0.20602,0.5580701 l 2.278658,1.04988 -0.241332,0.5237864 c -0.09757,0.2117606 -0.0057,0.4605026 0.20602,0.5580701 l 2.185677,0.9920716 3.223858,3.540697 -3.604082,-1.660563 c -0.333398,-0.15361 -0.728833,-0.0013 -0.886495,0.340896 -0.157662,0.34219 -0.01628,0.741272 0.317116,0.894884 l 6.534189,3.010593 2.105082,2.305864 c 2.113427,-1.929324 3.800629,-4.233395 4.996786,-6.766118 z"
       transform="rotate(-114.73764)"
       sodipodi:nodetypes="scccssccsssscccsssscsccccscccss" /><ellipse
       style="fill:#734a08;fill-opacity:1;stroke:none;stroke-width:0.511;stroke-linecap:round;stroke-linejoin:round;stroke-dasharray:none;stroke-dashoffset:6.03213;stroke-opacity:1;paint-order:stroke fill markers"
       id="path7"
       cx="12.70388"
       cy="12.602015"
       rx="1.5608478"
       ry="1.5983814" /><ellipse
       style="fill:#734a08;fill-opacity:1;stroke:none;stroke-width:0.511;stroke-linecap:round;stroke-linejoin:round;stroke-dasharray:none;stroke-dashoffset:6.03213;stroke-opacity:1;paint-order:stroke fill markers"
       id="path7-5"
       cx="17.754608"
       cy="9.9882984"
       rx="1.5608478"
       ry="1.5983814" /><ellipse
       style="fill:#734a08;fill-opacity:1;stroke:none;stroke-width:0.511;stroke-linecap:round;stroke-linejoin:round;stroke-dasharray:none;stroke-dashoffset:6.03213;stroke-opacity:1;paint-order:stroke fill markers"
       id="path7-8"
       cx="18.886925"
       cy="15.673593"
       rx="1.5608478"
       ry="1.5983814" /><ellipse
       style="fill:#734a08;fill-opacity:1;stroke:none;stroke-width:0.511;stroke-linecap:round;stroke-linejoin:round;stroke-dasharray:none;stroke-dashoffset:6.03213;stroke-opacity:1;paint-order:stroke fill markers"
       id="path7-6"
       cx="15.310098"
       cy="20.639297"
       rx="1.5608478"
       ry="1.5983814" /></g></svg>
