<?xml version="1.0" encoding="UTF-8" standalone="no"?>
<!-- Created with Inkscape (http://www.inkscape.org/) -->

<svg
   width="32mm"
   height="32mm"
   viewBox="0 0 32 32"
   version="1.1"
   id="svg1"
   xml:space="preserve"
   inkscape:version="1.3.1 (9b9bdc1480, 2023-11-25, custom)"
   sodipodi:docname="ford_yes.svg"
   xmlns:inkscape="http://www.inkscape.org/namespaces/inkscape"
   xmlns:sodipodi="http://sodipodi.sourceforge.net/DTD/sodipodi-0.dtd"
   xmlns="http://www.w3.org/2000/svg"
   xmlns:svg="http://www.w3.org/2000/svg"><sodipodi:namedview
     id="namedview1"
     pagecolor="#ffffff"
     bordercolor="#666666"
     borderopacity="1.0"
     inkscape:showpageshadow="2"
     inkscape:pageopacity="0.0"
     inkscape:pagecheckerboard="0"
     inkscape:deskcolor="#d1d1d1"
     inkscape:document-units="mm"
     showguides="true"
     inkscape:zoom="2.277533"
     inkscape:cx="5.9274662"
     inkscape:cy="21.734043"
     inkscape:window-width="1318"
     inkscape:window-height="719"
     inkscape:window-x="48"
     inkscape:window-y="27"
     inkscape:window-maximized="1"
     inkscape:current-layer="layer1"
     showgrid="false"><sodipodi:guide
       position="16.225336,-14.837615"
       orientation="1,0"
       id="guide4"
       inkscape:locked="false" /></sodipodi:namedview><defs
     id="defs1" /><g
     inkscape:label="Livello 1"
     inkscape:groupmode="layer"
     id="layer1"><g
       id="path19" /><g
       id="rect22-0"
       transform="matrix(-1,0,0,1,30.661761,0.23016813)" /><g
       id="rect22-7"
       transform="matrix(-1,0,0,1,30.845845,-1.8811487e-4)" /><g
       id="path26" /><g
       id="path52"
       transform="translate(-38.081357,-6.611757)" /><g
       id="path52-1"
       transform="matrix(-1,0,0,1,21.996584,0)" /><g
       inkscape:label="Livello 1"
       id="layer1-9"
       transform="translate(-0.0268177,-0.5027378)"><g
         id="path19-6" /><g
         id="rect22-0-3"
         transform="matrix(-1,0,0,1,30.661761,0.23016813)" /><g
         id="rect22-7-8"
         transform="matrix(-1,0,0,1,30.845845,-1.8811487e-4)" /><g
         id="path26-5" /><g
         id="path52-6"
         transform="translate(-38.081357,-6.611757)" /><g
         id="path52-5"
         transform="translate(5.0017045,-6.410269)" /><g
         id="path52-1-1"
         transform="matrix(-1,0,0,1,21.996584,0)" /></g><g
       id="path7-6"
       transform="matrix(1,0,0,-1,4e-7,31.350227)" /><path
       id="rect1"
       style="fill:#0093db;fill-opacity:1;stroke:none;stroke-width:0.677166;stroke-linecap:round;stroke-linejoin:round;stroke-dasharray:none;stroke-dashoffset:6.03213;stroke-opacity:1;paint-order:markers fill stroke"
       d="m 12.209663,3.338502 c -0.662045,0.07691 -1.227591,0.283464 -1.525488,0.851111 L 8.1499629,8.675358 6.5624628,9.833943 v 3.511414 c 0,0.499384 0.1062316,1.226667 0.3746705,1.452376 0.2684389,0.225709 0.3672729,0.277234 0.8262898,0.277234 h 0.077515 v 1.776636 c 0,0.3105 0.2501856,0.560689 0.5606893,0.560689 h 1.5389228 c 0.3105038,0 0.5601728,-0.250189 0.5601728,-0.560689 v -1.776636 h 10.97458 v 1.776636 c 0,0.3105 0.249669,0.560689 0.560173,0.560689 H 23.5744 c 0.310504,0 0.560689,-0.250189 0.560689,-0.560689 v -1.776636 h 0.07751 c 0.436545,0 0.555889,-0.08283 0.768146,-0.301651 0.212257,-0.218824 0.432814,-0.906104 0.432814,-1.427959 V 9.833939 L 23.826059,8.675354 21.291847,4.189609 C 20.993949,3.621962 20.428404,3.415408 19.766358,3.338498 Z m -0.502639,1.652092 h 8.561978 l 1.825729,3.843922 H 9.8812961 Z m -2.4346243,5.591509 c 0.4267385,3.77e-4 0.7724613,0.32747 0.7724453,0.730816 1.6e-5,0.403345 -0.3457068,0.730439 -0.7724453,0.730817 -0.4271901,2.24e-4 -0.7736181,-0.327046 -0.7736024,-0.730817 -1.57e-5,-0.403772 0.3464124,-0.731041 0.7736024,-0.730816 z m 13.4953263,-2e-6 c 0.426739,3.79e-4 0.772461,0.32747 0.772446,0.730817 1.5e-5,0.403345 -0.345707,0.730439 -0.772446,0.730818 -0.427189,2.23e-4 -0.773618,-0.327048 -0.773602,-0.730818 -1.6e-5,-0.403772 0.346413,-0.73104 0.773602,-0.730817 z"
       sodipodi:nodetypes="ccccszscssssccsssscszscccccccccccccccccccc" /><path
       style="color:#000000;fill:#0093db;stroke-linecap:round;-inkscape-stroke:none"
       d="M 10.730469,20.935547 C 8.7617087,20.556266 6.5557032,21.228056 4.3320312,23.53125 a 0.88249999,0.88249999 0 0 0 0.021484,1.248047 0.88249999,0.88249999 0 0 0 1.2480469,-0.02148 c 1.9637306,-2.033956 3.3856108,-2.361346 4.7949215,-2.089843 1.409311,0.271503 2.90197,1.323239 4.503907,2.457031 1.601936,1.133792 3.328229,2.351123 5.417968,2.626953 2.089739,0.27583 4.416452,-0.521665 6.867188,-2.986328 a 0.88249999,0.88249999 0 0 0 -0.0039,-1.248047 0.88249999,0.88249999 0 0 0 -1.248047,0.0039 c -2.207591,2.220136 -3.860972,2.681599 -5.384766,2.480469 -1.523794,-0.201129 -3.044061,-1.196664 -4.628906,-2.318359 -1.584845,-1.121696 -3.220693,-2.368766 -5.189453,-2.748047 z"
       id="path12" /></g></svg>
