<?xml version="1.0" encoding="UTF-8" standalone="no"?>
<!-- Created with Inkscape (http://www.inkscape.org/) -->

<svg
   width="32mm"
   height="32mm"
   viewBox="0 0 32 32"
   version="1.1"
   id="svg1"
   xml:space="preserve"
   inkscape:version="1.3.1 (9b9bdc1480, 2023-11-25, custom)"
   sodipodi:docname="fuel_lpg.svg"
   xmlns:inkscape="http://www.inkscape.org/namespaces/inkscape"
   xmlns:sodipodi="http://sodipodi.sourceforge.net/DTD/sodipodi-0.dtd"
   xmlns="http://www.w3.org/2000/svg"
   xmlns:svg="http://www.w3.org/2000/svg"><sodipodi:namedview
     id="namedview1"
     pagecolor="#ffffff"
     bordercolor="#666666"
     borderopacity="1.0"
     inkscape:showpageshadow="2"
     inkscape:pageopacity="0.0"
     inkscape:pagecheckerboard="0"
     inkscape:deskcolor="#d1d1d1"
     inkscape:document-units="mm"
     showguides="true"
     inkscape:zoom="2.277533"
     inkscape:cx="5.9274662"
     inkscape:cy="21.734043"
     inkscape:window-width="1318"
     inkscape:window-height="719"
     inkscape:window-x="48"
     inkscape:window-y="27"
     inkscape:window-maximized="1"
     inkscape:current-layer="layer1"
     showgrid="false"><sodipodi:guide
       position="16.225336,-14.837615"
       orientation="1,0"
       id="guide4"
       inkscape:locked="false" /></sodipodi:namedview><defs
     id="defs1"><inkscape:perspective
       sodipodi:type="inkscape:persp3d"
       inkscape:vp_x="-183.11487 : 148.50001 : 1"
       inkscape:vp_y="0 : 1000 : 0"
       inkscape:vp_z="-195.51426 : 148.50001 : 1"
       inkscape:persp3d-origin="-189.31457 : 99.000003 : 1"
       id="perspective10172" /><symbol
       id="Recycling"><title
         id="title7498">Recycling</title><g
         style="stroke:none"
         id="g7512"><path
           style="stroke-width:0.26458332"
           inkscape:connector-curvature="0"
           d="m 14.684375,3.9026042 -1.389063,0.79375 -0.926041,-1.5875 C 12.236979,2.8773437 11.972396,2.7119792 11.608594,2.7119792 H 8.8304687 C 9.0289062,2.9104167 9.0619792,2.9765625 9.1611979,3.1419271 L 10.88099,6.1184896 9.4919271,6.9122396 H 12.93151 Z"
           id="path7500" /><path
           style="stroke-width:0.26458332"
           inkscape:connector-curvature="0"
           d="m 14.254427,12.038542 h 1.389063 c 0.826822,0 1.322916,-0.892969 0.926041,-1.5875 l -1.752864,-3.069167 -2.38125,1.3890625 z"
           id="path7502" /><path
           style="stroke-width:0.26458332"
           inkscape:connector-curvature="0"
           d="m 12.170833,17.065625 v -1.5875 h 1.852084 c 0.264583,0 0.529166,-0.132292 0.727604,-0.463021 l 1.389062,-2.38125 C 15.875,12.7 15.775781,12.7 15.610417,12.7 h -3.439584 v -1.5875 l -1.719791,2.976562 z"
           id="path7504" /><path
           style="stroke-width:0.26458332"
           inkscape:connector-curvature="0"
           d="m 5.3578125,12.7 -0.6945313,1.190625 c -0.396875,0.727604 0.099219,1.5875 0.8929688,1.5875 H 9.0619792 V 12.7 Z"
           id="path7506" /><path
           style="stroke-width:0.26458332"
           inkscape:connector-curvature="0"
           d="m 2.0505208,8.4005208 1.3890625,0.79375 -0.9260416,1.5875002 C 2.38125,11.013281 2.38125,11.310937 2.5466146,11.641667 l 1.3559896,2.38125 c 0.066146,-0.264584 0.099219,-0.33073 0.1984375,-0.496094 L 5.8208333,10.55026 7.2098958,11.34401 5.4901042,8.3674479 Z"
           id="path7508" /><path
           style="stroke-width:0.26458332"
           inkscape:connector-curvature="0"
           d="M 9.2604167,4.6302083 8.5989583,3.4395833 c -0.4299479,-0.6945312 -1.4221354,-0.6945312 -1.8190104,0 l -1.7528646,3.0427084 2.38125,1.3890625 z"
           id="path7510" /></g></symbol><inkscape:perspective
       id="perspective8310"
       inkscape:persp3d-origin="372.04724 : 350.7874 : 1"
       inkscape:vp_z="744.09447 : 526.18111 : 1"
       inkscape:vp_y="0 : 1000 : 0"
       inkscape:vp_x="0 : 526.18111 : 1"
       sodipodi:type="inkscape:persp3d" /><inkscape:perspective
       id="perspective5302"
       inkscape:persp3d-origin="372.04724 : 350.7874 : 1"
       inkscape:vp_z="744.09447 : 526.18111 : 1"
       inkscape:vp_y="0 : 1000 : 0"
       inkscape:vp_x="0 : 526.18111 : 1"
       sodipodi:type="inkscape:persp3d" /><symbol
       id="ToiletsMen"><title
         id="title4892">Toilets - Men</title><g
         style="stroke:none"
         id="g4898"><circle
           cx="36"
           cy="9"
           r="5"
           id="circle4894" /><path
           d="m 24,22 v 15.5 a 2.25,2.25 0 0 0 4.5,0 V 23 h 1 v 39.5 a 3,3 0 0 0 6,0 V 40 h 1 v 22.5 a 3,3 0 0 0 6,0 V 23 h 1 v 14.5 a 2.25,2.25 0 0 0 4.5,0 V 22 A 7,7 0 0 0 41,15 H 31 a 7,7 0 0 0 -7,7 z"
           id="path4896"
           inkscape:connector-curvature="0" /></g></symbol></defs><g
     inkscape:label="Livello 1"
     inkscape:groupmode="layer"
     id="layer1"><g
       id="path19" /><g
       id="rect22-0"
       transform="matrix(-1,0,0,1,30.661761,0.23016813)" /><g
       id="rect22-7"
       transform="matrix(-1,0,0,1,30.845845,-1.8811487e-4)" /><g
       id="path26" /><g
       id="path52"
       transform="translate(-38.081357,-6.611757)" /><g
       id="path52-1"
       transform="matrix(-1,0,0,1,21.996584,0)" /><g
       inkscape:label="Livello 1"
       id="layer1-9"
       transform="translate(-0.0268177,-0.5027378)"><g
         id="path19-6" /><g
         id="rect22-0-3"
         transform="matrix(-1,0,0,1,30.661761,0.23016813)" /><g
         id="rect22-7-8"
         transform="matrix(-1,0,0,1,30.845845,-1.8811487e-4)" /><g
         id="path26-5" /><g
         id="path52-6"
         transform="translate(-38.081357,-6.611757)" /><g
         id="path52-5"
         transform="translate(5.0017045,-6.410269)" /><g
         id="path52-1-1"
         transform="matrix(-1,0,0,1,21.996584,0)" /></g><g
       id="path7-6"
       transform="matrix(1,0,0,-1,4e-7,31.350227)" /><g
       inkscape:label="Livello 1"
       id="layer1-7"
       transform="matrix(0.79956347,0,0,0.79956347,3.1239083,-0.71347016)"><g
         id="path19-8" /><g
         id="rect22-0-5"
         transform="matrix(-1,0,0,1,30.661761,0.23016813)" /><g
         id="rect22-7-7"
         transform="matrix(-1,0,0,1,30.845845,-1.8811487e-4)" /><g
         id="path26-4" /><g
         id="path52-1-18"
         transform="matrix(-1,0,0,1,21.996584,0)" /><path
         id="rect73"
         style="fill:#0092db;fill-opacity:1;stroke:none;stroke-width:0.298;stroke-linecap:round;stroke-linejoin:round;stroke-dasharray:none;stroke-dashoffset:6.03213;stroke-opacity:1;paint-order:stroke markers fill"
         d="m 15.895631,4.256386 c -0.521329,0 -0.953431,0.4582678 -1.053193,1.0703282 l -0.360449,0.096079 -2.768532,1.3689675 v 2.7758768 c -0.903825,4.0283505 -1.484253,6.7006745 -4.4502156,11.3960275 -1.7289968,2.73714 -0.5671885,5.818293 1.5127794,6.623917 1.0399834,0.402813 2.3525662,0.03593 3.1614142,-1.121733 0.808851,-1.157659 1.272277,-2.994683 1.272277,-5.805107 V 10.472123 l 1.610695,0.03427 c 0.151752,1.991735 -0.651724,14.81498 1.247186,16.58366 h 8.260926 C 26.53484,24.17455 25.575705,7.8079416 25.575705,5.596591 c 0,-0.7423826 -0.478998,-1.340205 -1.074611,-1.340205 z m 0.154826,1.9007658 h 8.29581 v 6.4697022 h -8.29581 z m -4.337,9.1764272 v 5.327163 c 0,2.636608 -0.484803,4.204572 -1.003624,4.94713 -0.518822,0.74256 -0.9141946,0.767983 -1.3928345,0.582592 -0.9572801,-0.370779 -2.0766257,-2.384393 -0.786376,-4.42696 1.5818025,-2.50412 2.5124155,-4.515176 3.1828345,-6.429925 z"
         sodipodi:nodetypes="sccccssssccsssssccccccssssc" /></g><text
       xml:space="preserve"
       style="font-size:10.5833px;line-height:1.25;font-family:Helvetica;-inkscape-font-specification:Helvetica;stroke-width:0.264583;fill:#0092db;fill-opacity:1"
       x="5.818872"
       y="29.637335"
       id="text13"><tspan
         sodipodi:role="line"
         id="tspan13"
         style="font-style:normal;font-variant:normal;font-weight:bold;font-stretch:normal;font-family:Ubuntu;-inkscape-font-specification:'Ubuntu Bold';stroke-width:0.264583;fill:#0092db;fill-opacity:1"
         x="5.818872"
         y="29.637335">LPG</tspan></text></g></svg>
