<?xml version="1.0" encoding="UTF-8" standalone="no"?>
<!-- Created with Inkscape (http://www.inkscape.org/) -->

<svg
   width="32mm"
   height="32mm"
   viewBox="0 0 32 32"
   version="1.1"
   id="svg1"
   xml:space="preserve"
   inkscape:version="1.3.1 (9b9bdc1480, 2023-11-25, custom)"
   sodipodi:docname="fuel_lpg.16.svg"
   xmlns:inkscape="http://www.inkscape.org/namespaces/inkscape"
   xmlns:sodipodi="http://sodipodi.sourceforge.net/DTD/sodipodi-0.dtd"
   xmlns="http://www.w3.org/2000/svg"
   xmlns:svg="http://www.w3.org/2000/svg"><sodipodi:namedview
     id="namedview1"
     pagecolor="#ffffff"
     bordercolor="#666666"
     borderopacity="1.0"
     inkscape:showpageshadow="2"
     inkscape:pageopacity="0.0"
     inkscape:pagecheckerboard="0"
     inkscape:deskcolor="#d1d1d1"
     inkscape:document-units="mm"
     showguides="true"
     inkscape:zoom="3.2209181"
     inkscape:cx="15.057818"
     inkscape:cy="41.137339"
     inkscape:window-width="1318"
     inkscape:window-height="719"
     inkscape:window-x="48"
     inkscape:window-y="27"
     inkscape:window-maximized="1"
     inkscape:current-layer="layer1"
     showgrid="false"><sodipodi:guide
       position="16.225336,-14.837615"
       orientation="1,0"
       id="guide4"
       inkscape:locked="false" /><sodipodi:guide
       position="12.081786,29.095724"
       orientation="0,-1"
       id="guide13"
       inkscape:locked="false" /></sodipodi:namedview><defs
     id="defs1"><inkscape:perspective
       sodipodi:type="inkscape:persp3d"
       inkscape:vp_x="-183.11487 : 148.50001 : 1"
       inkscape:vp_y="0 : 1000 : 0"
       inkscape:vp_z="-195.51426 : 148.50001 : 1"
       inkscape:persp3d-origin="-189.31457 : 99.000003 : 1"
       id="perspective10172" /><symbol
       id="Recycling"><title
         id="title7498">Recycling</title><g
         style="stroke:none"
         id="g7512"><path
           style="stroke-width:0.26458332"
           inkscape:connector-curvature="0"
           d="m 14.684375,3.9026042 -1.389063,0.79375 -0.926041,-1.5875 C 12.236979,2.8773437 11.972396,2.7119792 11.608594,2.7119792 H 8.8304687 C 9.0289062,2.9104167 9.0619792,2.9765625 9.1611979,3.1419271 L 10.88099,6.1184896 9.4919271,6.9122396 H 12.93151 Z"
           id="path7500" /><path
           style="stroke-width:0.26458332"
           inkscape:connector-curvature="0"
           d="m 14.254427,12.038542 h 1.389063 c 0.826822,0 1.322916,-0.892969 0.926041,-1.5875 l -1.752864,-3.069167 -2.38125,1.3890625 z"
           id="path7502" /><path
           style="stroke-width:0.26458332"
           inkscape:connector-curvature="0"
           d="m 12.170833,17.065625 v -1.5875 h 1.852084 c 0.264583,0 0.529166,-0.132292 0.727604,-0.463021 l 1.389062,-2.38125 C 15.875,12.7 15.775781,12.7 15.610417,12.7 h -3.439584 v -1.5875 l -1.719791,2.976562 z"
           id="path7504" /><path
           style="stroke-width:0.26458332"
           inkscape:connector-curvature="0"
           d="m 5.3578125,12.7 -0.6945313,1.190625 c -0.396875,0.727604 0.099219,1.5875 0.8929688,1.5875 H 9.0619792 V 12.7 Z"
           id="path7506" /><path
           style="stroke-width:0.26458332"
           inkscape:connector-curvature="0"
           d="m 2.0505208,8.4005208 1.3890625,0.79375 -0.9260416,1.5875002 C 2.38125,11.013281 2.38125,11.310937 2.5466146,11.641667 l 1.3559896,2.38125 c 0.066146,-0.264584 0.099219,-0.33073 0.1984375,-0.496094 L 5.8208333,10.55026 7.2098958,11.34401 5.4901042,8.3674479 Z"
           id="path7508" /><path
           style="stroke-width:0.26458332"
           inkscape:connector-curvature="0"
           d="M 9.2604167,4.6302083 8.5989583,3.4395833 c -0.4299479,-0.6945312 -1.4221354,-0.6945312 -1.8190104,0 l -1.7528646,3.0427084 2.38125,1.3890625 z"
           id="path7510" /></g></symbol><inkscape:perspective
       id="perspective8310"
       inkscape:persp3d-origin="372.04724 : 350.7874 : 1"
       inkscape:vp_z="744.09447 : 526.18111 : 1"
       inkscape:vp_y="0 : 1000 : 0"
       inkscape:vp_x="0 : 526.18111 : 1"
       sodipodi:type="inkscape:persp3d" /><inkscape:perspective
       id="perspective5302"
       inkscape:persp3d-origin="372.04724 : 350.7874 : 1"
       inkscape:vp_z="744.09447 : 526.18111 : 1"
       inkscape:vp_y="0 : 1000 : 0"
       inkscape:vp_x="0 : 526.18111 : 1"
       sodipodi:type="inkscape:persp3d" /><symbol
       id="ToiletsMen"><title
         id="title4892">Toilets - Men</title><g
         style="stroke:none"
         id="g4898"><circle
           cx="36"
           cy="9"
           r="5"
           id="circle4894" /><path
           d="m 24,22 v 15.5 a 2.25,2.25 0 0 0 4.5,0 V 23 h 1 v 39.5 a 3,3 0 0 0 6,0 V 40 h 1 v 22.5 a 3,3 0 0 0 6,0 V 23 h 1 v 14.5 a 2.25,2.25 0 0 0 4.5,0 V 22 A 7,7 0 0 0 41,15 H 31 a 7,7 0 0 0 -7,7 z"
           id="path4896"
           inkscape:connector-curvature="0" /></g></symbol></defs><g
     inkscape:label="Livello 1"
     inkscape:groupmode="layer"
     id="layer1"><g
       id="path19" /><g
       id="rect22-0"
       transform="matrix(-1,0,0,1,30.661761,0.23016813)" /><g
       id="rect22-7"
       transform="matrix(-1,0,0,1,30.845845,-1.8811487e-4)" /><g
       id="path26" /><g
       id="path52"
       transform="translate(-38.081357,-6.611757)" /><g
       id="path52-1"
       transform="matrix(-1,0,0,1,21.996584,0)" /><g
       inkscape:label="Livello 1"
       id="layer1-9"
       transform="translate(-0.0268177,-0.5027378)"><g
         id="path19-6" /><g
         id="rect22-0-3"
         transform="matrix(-1,0,0,1,30.661761,0.23016813)" /><g
         id="rect22-7-8"
         transform="matrix(-1,0,0,1,30.845845,-1.8811487e-4)" /><g
         id="path26-5" /><g
         id="path52-6"
         transform="translate(-38.081357,-6.611757)" /><g
         id="path52-5"
         transform="translate(5.0017045,-6.410269)" /><g
         id="path52-1-1"
         transform="matrix(-1,0,0,1,21.996584,0)" /></g><g
       id="path7-6"
       transform="matrix(1,0,0,-1,4e-7,31.350227)" /><text
       xml:space="preserve"
       style="font-size:10.5833px;line-height:1.25;font-family:Helvetica;-inkscape-font-specification:Helvetica;stroke-width:0.264583;fill:#0092db;fill-opacity:1"
       x="5.818872"
       y="29.637335"
       id="text13"><tspan
         sodipodi:role="line"
         id="tspan13"
         style="font-style:normal;font-variant:normal;font-weight:bold;font-stretch:normal;font-family:Ubuntu;-inkscape-font-specification:'Ubuntu Bold';stroke-width:0.264583;fill:#0092db;fill-opacity:1"
         x="5.818872"
         y="29.637335">LPG</tspan></text><g
       inkscape:label="Livello 1"
       id="layer1-0"
       transform="matrix(0.81212427,0,0,0.81212427,3.3294629,0.22093162)"><g
         id="path19-9" /><g
         id="rect22-0-2"
         transform="matrix(-1,0,0,1,30.661761,0.23016813)" /><g
         id="rect22-7-5"
         transform="matrix(-1,0,0,1,30.845845,-1.8811487e-4)" /><g
         id="path26-40" /><g
         id="path52-1-5"
         transform="matrix(-1,0,0,1,21.996584,0)" /><path
         id="rect70"
         style="fill:#0092db;fill-opacity:1;stroke:none;stroke-width:0.2;stroke-linecap:round;stroke-linejoin:round;stroke-dasharray:none;stroke-dashoffset:6.03213;stroke-opacity:1;paint-order:markers fill stroke"
         d="m 22.588632,3.2998174 c -0.103585,-7.156e-4 -0.205794,0.00221 -0.305407,0.00879 l 0.02274,0.8945191 c 0.779926,0.1289929 2.307345,0.080288 2.349211,1.1260294 v 2.7119792 c 0,1.4894245 0.880001,1.9908959 1.154968,2.1114989 v 12.805341 c 0,0.558372 -0.106262,0.827626 -0.232027,0.958598 -0.125766,0.130973 -0.379696,0.250114 -0.976685,0.250114 -0.586165,0 -0.751116,-0.11694 -0.826306,-0.208773 -0.07519,-0.09183 -0.142627,-0.329532 -0.142627,-0.76016 v -9.398393 c 0,-1.287101 -0.445909,-2.340719 -1.242301,-3.007568 -0.625567,-0.52381 -1.426414,-0.7925032 -2.31252,-0.8578292 1.63e-4,-1.7059913 0.0016,-1.9320884 0.0016,-3.8633299 0,-1.4985665 -1.135153,-2.7558356 -2.545064,-2.7558356 H 6.1663793 c -1.4099112,0 -2.5450643,1.2572691 -2.5450643,2.7558356 0,4.1192621 0.053227,19.3497981 0.053227,19.3497981 h 16.351456 l 0.05168,-14.220395 c 0.63376,0.06035 1.138876,0.256437 1.502233,0.560689 0.485432,0.406471 0.787033,1.025243 0.787033,2.038635 v 9.398393 c 0,0.532406 0.04615,1.094582 0.429431,1.562695 0.383274,0.468116 1.022259,0.671794 1.805057,0.671794 0.771978,0 1.436141,-0.167344 1.888774,-0.638721 0.452635,-0.471374 0.583945,-1.120746 0.583944,-1.835547 V 10.185702 h 0.507979 V 7.850444 c 0,-1.2252831 -1.142079,-1.2859716 -1.283646,-2.2236368 C 26.073436,4.1362039 24.142424,3.3105523 22.588632,3.2998174 Z M 6.8433406,7.7966268 H 17.245806 c 0.502958,0 0.907955,0.5048206 0.907955,1.1317138 v 4.0002724 c 0,0.626894 -0.404997,1.131714 -0.907955,1.131714 H 6.8433406 c -0.5029571,0 -0.9074382,-0.50482 -0.9074382,-1.131714 V 8.9283406 c 0,-0.6268932 0.4044811,-1.1317138 0.9074382,-1.1317138 z"
         sodipodi:nodetypes="scccscssssssscsssscccssscsscccssssssssssss" /></g></g></svg>
