<?xml version="1.0" encoding="UTF-8" standalone="no"?>
<!-- Created with Inkscape (http://www.inkscape.org/) -->

<svg
   width="32mm"
   height="32mm"
   viewBox="0 0 32 32"
   version="1.1"
   id="svg1"
   xml:space="preserve"
   inkscape:version="1.3.1 (9b9bdc1480, 2023-11-25, custom)"
   sodipodi:docname="highway_bus_stop.16.svg"
   xmlns:inkscape="http://www.inkscape.org/namespaces/inkscape"
   xmlns:sodipodi="http://sodipodi.sourceforge.net/DTD/sodipodi-0.dtd"
   xmlns="http://www.w3.org/2000/svg"
   xmlns:svg="http://www.w3.org/2000/svg"><sodipodi:namedview
     id="namedview1"
     pagecolor="#ffffff"
     bordercolor="#666666"
     borderopacity="1.0"
     inkscape:showpageshadow="2"
     inkscape:pageopacity="0.0"
     inkscape:pagecheckerboard="0"
     inkscape:deskcolor="#d1d1d1"
     inkscape:document-units="mm"
     inkscape:zoom="2.7690381"
     inkscape:cx="87.214401"
     inkscape:cy="80.352812"
     inkscape:window-width="1318"
     inkscape:window-height="719"
     inkscape:window-x="48"
     inkscape:window-y="27"
     inkscape:window-maximized="1"
     inkscape:current-layer="layer1"
     showguides="true"
     showgrid="false"><sodipodi:guide
       position="31.338526,6.3755642"
       orientation="1,0"
       id="guide1"
       inkscape:locked="false" /></sodipodi:namedview><defs
     id="defs1" /><g
     inkscape:label="Livello 1"
     inkscape:groupmode="layer"
     id="layer1"><rect
       style="fill:#0093db;fill-opacity:1;stroke:#0093db;stroke-width:1.03115;stroke-linecap:round;stroke-linejoin:miter;stroke-dasharray:none;stroke-dashoffset:6.03213;stroke-opacity:1;paint-order:markers fill stroke"
       id="rect6"
       width="18.647295"
       height="9.9324017"
       x="6.6280856"
       y="7.0373697"
       ry="2.8180802" /><g
       id="rect1"><path
         id="path2"
         style="color:#000000;fill:#0093db;stroke-linecap:round;stroke-dashoffset:6.03213;-inkscape-stroke:none;paint-order:markers fill stroke"
         d="M 26.653153 3.5005615 C 26.653153 3.5005615 23.50069 3.5207153 21.30671 3.5207153 L 10.718209 3.5207153 C 8.4670422 3.5207153 5.2203532 3.5155477 5.2203532 3.5155477 C 5.2203532 3.5155477 5.2782308 5.7036083 5.2782308 6.9086222 L 5.2782308 23.683309 C 5.2782308 24.277613 5.2374064 25.842867 5.2374064 25.842867 C 5.2374064 25.842867 6.8276254 25.824264 7.4197021 25.824264 L 7.5158203 25.824264 L 7.5158203 25.846484 L 7.5158203 28.023612 L 7.5158203 28.793075 C 7.5158203 28.805495 7.526138 28.815812 7.5385579 28.815812 L 10.786938 28.815812 C 10.799358 28.815812 10.809159 28.805495 10.809159 28.793075 L 10.809159 25.846484 C 10.809159 25.844384 10.808644 25.8428 10.808126 25.8408 L 10.808126 25.824264 L 21.191471 25.824264 L 21.191471 25.846484 L 21.191471 28.023612 L 21.191471 28.793075 C 21.191471 28.805495 21.201789 28.815812 21.214209 28.815812 L 24.46259 28.815812 C 24.47501 28.815812 24.48481 28.805495 24.48481 28.793075 L 24.48481 25.846484 C 24.48481 25.845342 24.484507 25.844375 24.484294 25.843384 L 24.484294 25.824264 L 24.555607 25.824264 C 25.144456 25.824264 26.735319 25.875423 26.735319 25.875423 C 26.735319 25.875423 26.696562 24.280839 26.696562 23.683309 L 26.696562 18.721338 C 26.711752 18.487824 26.721883 18.252463 26.721883 18.013888 L 26.721883 7.3685425 C 26.721883 5.9532311 26.653153 3.5005615 26.653153 3.5005615 z " /></g><rect
       style="fill:#ffffff;stroke-width:0.964999;stroke-linecap:round;stroke-linejoin:round;stroke-dasharray:4.82499, 2.89499;stroke-dashoffset:1.2545;paint-order:stroke fill markers"
       id="rect3"
       width="18.309124"
       height="8.4579134"
       x="6.845438"
       y="7.8662872"
       ry="0.022418382" /><rect
       style="fill:#ffffff;stroke-width:0.964999;stroke-linecap:round;stroke-linejoin:round;stroke-dasharray:4.82499, 2.89499;stroke-dashoffset:1.2545;paint-order:stroke fill markers"
       id="rect4"
       width="11.492188"
       height="2.109375"
       x="10.253906"
       y="4.5600877"
       ry="0.022418382" /><rect
       style="fill:#ffffff;stroke-width:0.979977;stroke-linecap:round;stroke-linejoin:round;stroke-dasharray:4.89988, 2.93992;stroke-dashoffset:1.27397;paint-order:stroke fill markers"
       id="rect5"
       width="2.6616344"
       height="2.6616344"
       x="7.4367132"
       y="19.287132"
       ry="0.022766352" /><rect
       style="fill:#ffffff;stroke-width:0.979977;stroke-linecap:round;stroke-linejoin:round;stroke-dasharray:4.89988, 2.93992;stroke-dashoffset:1.27397;paint-order:stroke fill markers"
       id="rect5-7"
       width="2.6616344"
       height="2.6616344"
       x="21.671717"
       y="19.287132"
       ry="0.022766352" /></g></svg>
