<?xml version="1.0" encoding="UTF-8" standalone="no"?>
<!-- Created with Inkscape (http://www.inkscape.org/) -->

<svg
   width="32mm"
   height="32mm"
   viewBox="0 0 32 32"
   version="1.1"
   id="svg1"
   xml:space="preserve"
   inkscape:version="1.3.1 (9b9bdc1480, 2023-11-25, custom)"
   sodipodi:docname="highway_crossing_zebra.svg"
   xmlns:inkscape="http://www.inkscape.org/namespaces/inkscape"
   xmlns:sodipodi="http://sodipodi.sourceforge.net/DTD/sodipodi-0.dtd"
   xmlns="http://www.w3.org/2000/svg"
   xmlns:svg="http://www.w3.org/2000/svg"><sodipodi:namedview
     id="namedview1"
     pagecolor="#ffffff"
     bordercolor="#666666"
     borderopacity="1.0"
     inkscape:showpageshadow="2"
     inkscape:pageopacity="0.0"
     inkscape:pagecheckerboard="0"
     inkscape:deskcolor="#d1d1d1"
     inkscape:document-units="mm"
     inkscape:zoom="1.9580056"
     inkscape:cx="4.0857901"
     inkscape:cy="51.838462"
     inkscape:window-width="1318"
     inkscape:window-height="719"
     inkscape:window-x="48"
     inkscape:window-y="27"
     inkscape:window-maximized="1"
     inkscape:current-layer="layer1"
     showguides="true"
     showgrid="false"><sodipodi:guide
       position="31.338526,6.3755642"
       orientation="1,0"
       id="guide1"
       inkscape:locked="false" /></sodipodi:namedview><defs
     id="defs1"><inkscape:perspective
       sodipodi:type="inkscape:persp3d"
       inkscape:vp_x="0 : 526.18109 : 1"
       inkscape:vp_y="0 : 1000 : 0"
       inkscape:vp_z="744.09448 : 526.18109 : 1"
       inkscape:persp3d-origin="372.04724 : 350.78739 : 1"
       id="perspective5302" /></defs><g
     inkscape:label="Livello 1"
     inkscape:groupmode="layer"
     id="layer1"><g
       id="g22"
       transform="translate(-6.8955021e-5,-1.3031454)"><path
         id="rect18"
         style="fill:#94c7e0;fill-opacity:1;stroke:none;stroke-width:0.429001;stroke-linecap:butt;stroke-linejoin:round;stroke-dasharray:none;stroke-dashoffset:4.74142;stroke-opacity:1;paint-order:stroke fill markers"
         d="m 8.1705607,16.207796 c -0.00718,0 -0.010199,0.0063 -0.012919,0.01292 L 2.4298258,30.208492 c -0.00471,0.01149 0.010318,0.02274 0.022738,0.02274 h 4.6312418 c 0.01242,0 0.019002,-0.01074 0.022221,-0.02274 L 10.356474,18.09812 C 9.9023505,17.882387 9.6028498,17.396172 9.6386882,16.869255 c 0.00343,-0.06637 0.00932,-0.122549 0.013953,-0.150379 v -0.01447 l 0.1111043,-0.496611 z m 2.4148393,0 -0.148311,0.661459 c -0.0018,0.01171 -0.0072,0.03818 -0.0072,0.02842 v 0.01447 0.01395 c -0.01186,0.153352 0.04265,0.285746 0.14056,0.374137 l 0.289905,-1.079521 c 0.0019,-0.0069 -0.0058,-0.01292 -0.01292,-0.01292 z m 1.912545,0 c -0.0072,0 -0.01111,0.0059 -0.0124,0.01292 l -1.053683,5.740735 1.244369,-5.285465 0.01137,-0.468189 z m 0.990121,0 -0.01344,0.568441 -2.053622,8.738485 -0.02119,0.04289 c -0.0589,0.115105 -0.12017,0.283187 -0.128158,0.393258 v 0.0072 c -0.04025,0.481517 0.309674,0.893099 0.798401,0.928626 h 0.0072 c 0.324402,0.0289 0.596653,-0.137633 0.783931,-0.414445 0.667115,-2.644089 1.43539,-5.200857 1.982308,-7.831047 l 0.241329,-0.0088 0.10232,-2.411739 c 3.05e-4,-0.0072 -0.0053,-0.01292 -0.0124,-0.01292 z m 3.825089,0 -0.0026,0.353984 3.065963,9.181868 -0.0067,0.07855 c -0.0042,0.06264 0.01048,0.118717 0,0.257349 -0.06672,0.922626 -0.880677,1.609857 -1.790072,1.543058 h -0.0067 c -0.584182,-0.05187 -1.051232,-0.404167 -1.313615,-0.873331 l 0.146761,3.45922 c 5.27e-4,0.01241 0.0098,0.02274 0.02222,0.02274 h 4.631241 c 0.01242,0 0.02498,-0.01052 0.02274,-0.02274 l -2.39727,-13.060701 c -0.07861,-0.03156 -0.155477,-0.07167 -0.228409,-0.12144 -0.185295,-0.121383 -0.29854,-0.27402 -0.377755,-0.378788 l -0.01395,-0.0217 -0.244429,-0.418063 z m 4.050916,0 c -0.02266,0.12604 -0.06525,0.249548 -0.129191,0.366903 l 3.659208,13.633793 c 0.0032,0.012 0.01032,0.02274 0.02274,0.02274 h 4.631242 c 0.01242,0 0.02693,-0.01125 0.02222,-0.02274 L 23.842472,16.220715 c -0.0027,-0.0066 -0.0058,-0.01292 -0.01292,-0.01292 z m -4.484998,1.582333 0.250114,5.887496 0.72347,2.430342 v 0.0072 c 0.09661,0.376799 0.388227,0.66961 0.784448,0.70745 0.485168,0.03563 0.898356,-0.310906 0.933793,-0.800468 0.0015,-0.018 9.93e-4,-0.100945 0,-0.164331 z m -1.914095,3.670577 c -0.440087,1.776851 -0.910082,3.539715 -1.354956,5.31182 l -0.01395,0.06408 -0.03566,0.05013 c -0.323004,0.504027 -0.898169,0.855386 -1.547193,0.800468 -0.664772,-0.04832 -1.210998,-0.48883 -1.435054,-1.074353 l -0.6599084,3.595646 c -0.0022,0.01222 0.0098,0.02274 0.022221,0.02274 H 14.57172 c 0.01242,0 0.02169,-0.01033 0.02222,-0.02274 z" /><g
         id="g18"
         transform="translate(3.5807776,-0.86374643)"
         style="fill:#0092db;fill-opacity:1;stroke:#ffffff;stroke-width:0.8;paint-order:markers stroke fill"><g
           id="g7750"
           transform="matrix(3.6506947,0,0,-3.6584211,11.763479,8.9871282)"
           style="fill:#0092db;fill-opacity:1;stroke-width:0.218905"><g
             id="path7752"
             style="fill:#0092db;fill-opacity:1"><path
               style="color:#000000;fill:#0092db;fill-opacity:1;stroke:none;-inkscape-stroke:none"
               d="M 0,0 C 0.283,-0.023 0.529,0.188 0.553,0.471 0.574,0.754 0.363,1 0.08,1.023 -0.201,1.045 -0.449,0.834 -0.471,0.551 -0.494,0.27 -0.283,0.021 0,0"
               id="path20" /></g></g><g
           id="g7754"
           transform="matrix(3.6506947,0,0,-3.6584211,11.598036,9.8657304)"
           style="fill:#0092db;fill-opacity:1;stroke-width:0.218905"><g
             id="path7756"
             style="fill:#0092db;fill-opacity:1"><path
               style="color:#000000;fill:#0092db;fill-opacity:1;stroke:none;-inkscape-stroke:none"
               d="m -0.22441664,0.00975725 c 0.102,0.07 0.22500000485,0.117 0.361,0.105 0.176,-0.013 0.321,-0.123 0.409,-0.255 L 1.5717938,-1.8170887 c 0.030642,-0.070564 0.027197,-0.1531924 -0.019518,-0.2211232 -0.070259,-0.1063626 -0.2139289,-0.1368787 -0.3193025,-0.065128 -0.033175,0.020559 -0.05305,0.04864 -0.076818,0.080009 L 0.48258336,-0.87561239 0.475,-2.084 1.3129819,-4.5895145 c -0.002,-0.03 0.002,-0.047 0,-0.071 -0.014,-0.193 -0.182,-0.334 -0.37299997,-0.32 -0.158,0.014 -0.276,0.131 -0.313,0.275 L 0.016,-2.658 c -0.15305843,-0.7345199 -0.36848081,-1.4427325 -0.55195295,-2.172029 -0.07,-0.109 -0.189,-0.18 -0.324,-0.168 -0.19300005,0.014 -0.33600005,0.182 -0.32000005,0.373 0.004,0.055 0.027,0.111 0.047,0.15 l 0.5567138,2.3638133 0.0298226,1.23197295 -0.21364132,-0.46663045 -0.191,-0.869 c -0.025,-0.111 -0.12700008,-0.203 -0.24600008,-0.193 -0.129,0.01 -0.223,0.121 -0.213,0.25 0,0.01 0.002,0.019 0.004,0.031 l 0.226,1.014 c 0.014,0.043 0.35023184,0.63816297 0.38323184,0.66716297 z"
               id="path22" /></g></g></g></g></g></svg>
