<?xml version="1.0" encoding="UTF-8" standalone="no"?>
<!-- Created with Inkscape (http://www.inkscape.org/) -->

<svg
   width="32mm"
   height="32mm"
   viewBox="0 0 32 32"
   version="1.1"
   id="svg1"
   xml:space="preserve"
   inkscape:version="1.3.1 (9b9bdc1480, 2023-11-25, custom)"
   sodipodi:docname="highway_turning_circle.svg"
   xmlns:inkscape="http://www.inkscape.org/namespaces/inkscape"
   xmlns:sodipodi="http://sodipodi.sourceforge.net/DTD/sodipodi-0.dtd"
   xmlns="http://www.w3.org/2000/svg"
   xmlns:svg="http://www.w3.org/2000/svg"><sodipodi:namedview
     id="namedview1"
     pagecolor="#ffffff"
     bordercolor="#666666"
     borderopacity="1.0"
     inkscape:showpageshadow="2"
     inkscape:pageopacity="0.0"
     inkscape:pagecheckerboard="0"
     inkscape:deskcolor="#d1d1d1"
     inkscape:document-units="mm"
     inkscape:zoom="2.7690381"
     inkscape:cx="35.391351"
     inkscape:cy="64.462818"
     inkscape:window-width="1318"
     inkscape:window-height="719"
     inkscape:window-x="48"
     inkscape:window-y="27"
     inkscape:window-maximized="1"
     inkscape:current-layer="layer1"
     showguides="true"
     showgrid="false"><sodipodi:guide
       position="31.338526,6.3755642"
       orientation="1,0"
       id="guide1"
       inkscape:locked="false" /></sodipodi:namedview><defs
     id="defs1"><inkscape:perspective
       sodipodi:type="inkscape:persp3d"
       inkscape:vp_x="0 : 526.18109 : 1"
       inkscape:vp_y="0 : 1000 : 0"
       inkscape:vp_z="744.09448 : 526.18109 : 1"
       inkscape:persp3d-origin="372.04724 : 350.78739 : 1"
       id="perspective5302" /></defs><g
     inkscape:label="Livello 1"
     inkscape:groupmode="layer"
     id="layer1"><g
       id="path29"><path
         style="color:#000000;fill:#28a0dd;stroke-linecap:round;stroke-linejoin:round;stroke-dashoffset:4.74142;-inkscape-stroke:none;paint-order:stroke markers fill"
         d="M 15.828125,5.6914062 C 12.588017,5.7052751 9.5749145,6.105134 7.15625,6.7949219 4.7375855,7.4847097 2.8758125,8.4005201 1.9882812,9.8222656 1.5445159,10.533138 1.4386915,11.389403 1.7070312,12.132813 c 0.2683398,0.743409 0.8343196,1.356531 1.5820313,1.888671 1.3051116,0.928838 3.3189602,1.555551 5.7441406,2.048828 L 4.1980092,26.706184 c -0.1834927,0.402865 -0.00493,0.878158 0.3984375,1.060546 0.4023518,0.18218 0.8762165,0.0038 1.0585938,-0.398437 L 10.888672,15.830078 C 11.105374,15.351281 10.80945,14.824492 10.291016,14.738281 7.4961792,14.275425 5.3709403,13.538192 4.2167969,12.716797 3.6397252,12.306099 3.3233024,11.90114 3.2109375,11.589844 3.0985726,11.278548 3.1119447,11.044382 3.3457031,10.669922 c 0.4675174,-0.7489212 2.0131103,-1.6979908 4.25,-2.3359376 2.2368898,-0.6379469 5.1288639,-1.029651 8.2402349,-1.0429688 3.11137,-0.013318 6.029298,0.3528795 8.314453,0.9726563 2.285154,0.6197767 3.910486,1.5543111 4.449218,2.3261721 0.269366,0.38593 0.29604,0.631534 0.208985,0.93164 -0.08705,0.300106 -0.361621,0.695598 -0.902344,1.105469 -1.081445,0.819743 -3.146953,1.625098 -5.90625,2.111328 -0.503868,0.08742 -0.797503,0.618622 -0.603516,1.091797 l 4.758861,11.538452 c 0.166536,0.409479 0.633608,0.606279 1.042969,0.439453 0.408713,-0.167303 0.604544,-0.634149 0.4375,-1.042969 L 23.224609,16.070312 c 2.409278,-0.5143 4.387619,-1.21374 5.646485,-2.167968 0.717704,-0.544024 1.252907,-1.176052 1.472656,-1.933594 0.219749,-0.757542 0.05029,-1.601643 -0.433594,-2.2949219 C 28.942387,8.2872709 27.032205,7.3884146 24.570312,6.7207031 22.10842,6.0529916 19.068233,5.6775372 15.828125,5.6914062 Z"
         id="path37"
         sodipodi:nodetypes="sssssccccccsssssssssccccccsssss" /><path
         style="color:#000000;fill:#b4d1e0;stroke-linecap:round;stroke-linejoin:round;stroke-dashoffset:4.74142;-inkscape-stroke:none;paint-order:stroke markers fill"
         d="M 4.5981524,27.825503 10.159453,15.578013 C 4.4184644,14.627242 1.3122954,12.416605 2.6673444,10.245937 c 1.35505,-2.1706687 6.8129,-3.727213 13.1643856,-3.7543997 6.351485,-0.027187 11.916595,1.4821755 13.423098,3.6405957 1.506503,2.15842 -1.444082,4.394982 -7.116837,5.394608 l 5.04383,12.353456"
         id="path38" /></g><path
       d="m 16.000231,24.080688 c -0.312743,-1.4e-4 -0.56659,0.132674 -0.567223,0.296774 l -0.184218,3.086612 c -4.68e-4,0.215207 0.336238,0.389744 0.751516,0.389561 0.415039,7e-6 0.751371,-0.174479 0.750903,-0.389561 l -0.184218,-3.086612 c -6.33e-4,-0.164005 -0.254197,-0.29678 -0.56676,-0.296774 z"
       style="fill:#28a0dd;fill-opacity:1;stroke-linecap:round;stroke-dasharray:5.06, 5.06"
       id="path36"
       sodipodi:nodetypes="ccccccc" /><path
       d="m 16.000157,18.628321 c -0.213417,-9.6e-5 -0.386643,0.09054 -0.387075,0.20252 L 15.48737,20.93716 c -3.19e-4,0.146858 0.229451,0.265963 0.512839,0.265838 0.283224,5e-6 0.512739,-0.119065 0.51242,-0.265838 l -0.125712,-2.106319 c -4.32e-4,-0.111918 -0.173465,-0.202524 -0.38676,-0.20252 z"
       style="fill:#28a0dd;fill-opacity:1;stroke-width:1;stroke-linecap:round;stroke-dasharray:5.06, 5.06"
       id="path36-9"
       sodipodi:nodetypes="ccccccc" /><path
       d="m 16.00012,14.958223 c -0.15594,-7e-5 -0.282513,0.06616 -0.282829,0.147978 l -0.09186,1.539046 c -2.33e-4,0.107306 0.167655,0.194334 0.374722,0.194243 0.206946,3e-6 0.374648,-0.087 0.374415,-0.194243 l -0.09185,-1.539046 C 16.282402,15.024421 16.15597,14.95822 16.00012,14.958223 Z"
       style="fill:#28a0dd;fill-opacity:1;stroke-width:1;stroke-linecap:round;stroke-dasharray:5.06, 5.06"
       id="path36-9-7"
       sodipodi:nodetypes="ccccccc" /></g></svg>
