<?xml version="1.0" encoding="UTF-8" standalone="no"?>
<!-- Created with Inkscape (http://www.inkscape.org/) -->

<svg
   width="32mm"
   height="32mm"
   viewBox="0 0 32 32"
   version="1.1"
   id="svg1"
   xml:space="preserve"
   inkscape:version="1.3.1 (9b9bdc1480, 2023-11-25, custom)"
   sodipodi:docname="highway_bus_stop.svg"
   xmlns:inkscape="http://www.inkscape.org/namespaces/inkscape"
   xmlns:sodipodi="http://sodipodi.sourceforge.net/DTD/sodipodi-0.dtd"
   xmlns="http://www.w3.org/2000/svg"
   xmlns:svg="http://www.w3.org/2000/svg"><sodipodi:namedview
     id="namedview1"
     pagecolor="#ffffff"
     bordercolor="#666666"
     borderopacity="1.0"
     inkscape:showpageshadow="2"
     inkscape:pageopacity="0.0"
     inkscape:pagecheckerboard="0"
     inkscape:deskcolor="#d1d1d1"
     inkscape:document-units="mm"
     inkscape:zoom="2.7690381"
     inkscape:cx="-24.01556"
     inkscape:cy="42.072371"
     inkscape:window-width="1318"
     inkscape:window-height="719"
     inkscape:window-x="48"
     inkscape:window-y="27"
     inkscape:window-maximized="1"
     inkscape:current-layer="layer1"
     showguides="true"
     showgrid="false"><sodipodi:guide
       position="31.338526,6.3755642"
       orientation="1,0"
       id="guide1"
       inkscape:locked="false" /></sodipodi:namedview><defs
     id="defs1" /><g
     inkscape:label="Livello 1"
     inkscape:groupmode="layer"
     id="layer1"><rect
       style="fill:#0093db;fill-opacity:1;stroke:#0093db;stroke-width:1.03115;stroke-linecap:round;stroke-linejoin:miter;stroke-dasharray:none;stroke-dashoffset:6.03213;stroke-opacity:1;paint-order:markers fill stroke"
       id="rect6"
       width="18.647295"
       height="9.9324017"
       x="6.6280856"
       y="7.0373697"
       ry="2.8180802" /><g
       id="rect1"><path
         style="color:#000000;fill:#0093db;stroke-linecap:round;stroke-dashoffset:6.03213;-inkscape-stroke:none;paint-order:markers fill stroke"
         d="m 10.718095,3.5207584 c -3.5056486,0 -5.43891,0.3694881 -5.3661634,2.8367075 -0.046528,0.1760536 -0.073723,0.3602339 -0.073723,0.5513148 V 23.683133 c 0,1.186382 0.9552259,2.141153 2.1416109,2.141153 h 0.096159 v 2.199306 c 0,0.384363 0.3093572,0.693723 0.6937227,0.693723 h 1.9048758 c 0.384365,0 0.693721,-0.30936 0.693721,-0.693723 v -2.199306 h 10.383404 v 2.199306 c 0,0.384363 0.309355,0.693723 0.693723,0.693723 h 1.905332 c 0.384368,0 0.693723,-0.30936 0.693723,-0.693723 v -2.199306 h 0.07098 c 1.186381,0 2.141153,-0.954771 2.141153,-2.141153 v -4.961835 c 0.01519,-0.233514 0.02518,-0.468882 0.02518,-0.707459 V 7.3685151 c 0,-3.3741064 -1.635924,-3.8477567 -5.415158,-3.8477567 z m -0.463398,1.4831469 h 11.490611 c 0.337915,0 0.609927,0.2724697 0.609927,0.6103844 v 0.049911 c 0,0.3379145 -0.272012,0.6099264 -0.609927,0.6099264 H 10.254697 c -0.3379153,0 -0.609926,-0.2720119 -0.609926,-0.6099264 v -0.049911 c 0,-0.3379147 0.2720107,-0.6103844 0.609926,-0.6103844 z M 9.3004276,7.6601992 H 22.662029 c 1.366188,0 1.598539,3.0168388 1.598539,4.4911098 v 0.849868 c 0.02298,0.06474 0.03709,0.133579 0.03709,0.206514 v 1.281212 c 0,0.33826 -0.269155,0.610385 -0.603516,0.610385 h -1.212984 c -0.218092,0.06774 -0.448491,0.574667 -0.687311,0.574667 H 10.16815 c -0.2388212,0 -0.4687639,-0.506932 -0.686854,-0.574667 H 8.3305889 c -0.3343585,0 -0.6035158,-0.272125 -0.6035158,-0.610385 v -0.17675 c -0.014806,-0.118391 -0.025184,-0.238377 -0.025184,-0.361285 v -1.799559 c 0,-1.474271 0.2323504,-4.4911098 1.5985385,-4.4911098 z M 8.8274144,20.048299 a 0.42771483,0.40426882 0 0 1 0.427681,0.404329 0.42771483,0.40426882 0 0 1 -0.427681,0.404328 0.42771483,0.40426882 0 0 1 -0.4276822,-0.404328 0.42771483,0.40426882 0 0 1 0.4276822,-0.404329 z m 14.3451756,0 a 0.42771483,0.40426882 0 0 1 0.427681,0.404329 0.42771483,0.40426882 0 0 1 -0.427681,0.404328 0.42771483,0.40426882 0 0 1 -0.42768,-0.404328 0.42771483,0.40426882 0 0 1 0.42768,-0.404329 z"
         id="path2" /><path
         style="color:#000000;fill:#d7eaf4;stroke-linecap:round;stroke-dashoffset:6.03213;-inkscape-stroke:none;paint-order:markers fill stroke"
         d="m 10.71875,3.1015625 c -1.7675474,0 -3.1622702,0.076402 -4.1933594,0.5292969 C 6.0098461,3.8573069 5.5821976,4.1944542 5.3066406,4.6601562 5.0310836,5.1258583 4.9137862,5.6973636 4.9335937,6.3691406 L 4.9472656,6.25 C 4.8925955,6.4568621 4.859375,6.6773555 4.859375,6.9082031 V 23.683594 c 0,1.285621 1.0016584,2.245719 2.2382812,2.425781 v 1.914062 c 0,0.609253 0.5020731,1.113282 1.1113282,1.113282 h 1.9062496 c 0.609255,0 1.111329,-0.50403 1.111329,-1.113282 v -1.779296 h 9.546874 v 1.779296 c 0,0.609251 0.502073,1.113282 1.111329,1.113282 h 1.90625 c 0.609256,0 1.113281,-0.504031 1.113281,-1.113282 v -1.923828 c 1.22191,-0.192871 2.210937,-1.140929 2.210937,-2.416015 v -4.935547 -0.02734 c 0.01465,-0.231259 0.02539,-0.466062 0.02539,-0.707031 V 7.3691406 c 0,-0.8773941 -0.10378,-1.592633 -0.345703,-2.1835937 C 26.552999,4.5945861 26.160963,4.135181 25.650391,3.8222656 24.629245,3.1964349 23.213765,3.1015625 21.306641,3.1015625 Z m 0,0.8378906 h 10.587891 c 1.872105,0 3.164626,0.1431363 3.90625,0.5976563 0.370811,0.2272599 0.623727,0.5180287 0.80664,0.9648437 0.182914,0.4468151 0.283203,1.0575302 0.283203,1.8671875 V 18.013672 c 0,0.226877 -0.0087,0.4525 -0.02344,0.679687 l -0.002,0.01367 v 4.976563 c 0,0.961514 -0.761143,1.720703 -1.722657,1.720703 h -0.490234 v 2.61914 c 0,0.159475 -0.113958,0.275391 -0.273437,0.275391 h -1.90625 c -0.159479,0 -0.273438,-0.115916 -0.273438,-0.275391 v -2.61914 H 10.388672 v 2.61914 c 0,0.159475 -0.113963,0.275391 -0.273438,0.275391 H 8.2089844 c -0.1594752,0 -0.2734375,-0.115917 -0.2734375,-0.275391 v -2.61914 h -0.515625 c -0.9615178,0 -1.7226563,-0.759296 -1.7226563,-1.720703 V 6.9082031 c 0,-0.1513138 0.022161,-0.2981146 0.060547,-0.4433594 L 5.7734375,6.40625 5.7714844,6.3457031 C 5.7549186,5.7838717 5.8513231,5.3834192 6.0273437,5.0859375 6.2033644,4.7884558 6.4644455,4.572764 6.8613281,4.3984375 7.6550934,4.0497845 8.9806524,3.9394531 10.71875,3.9394531 Z m -0.464844,0.6445313 c -0.5632144,0 -1.0273435,0.468415 -1.0273435,1.03125 v 0.048828 c 0,0.5628349 0.4645076,1.0292969 1.0273435,1.0292969 h 11.492188 c 0.562836,0 1.027343,-0.4664609 1.027343,-1.0292969 v -0.048828 c 0,-0.5628361 -0.464129,-1.03125 -1.027343,-1.03125 z m 0,0.8398437 h 11.492188 c 0.112614,0 0.189453,0.078414 0.189453,0.1914063 v 0.048828 c 0,0.1129924 -0.07646,0.1914063 -0.189453,0.1914062 H 10.253906 c -0.112994,0 -0.189453,-0.078413 -0.189453,-0.1914062 v -0.048828 c 0,-0.1129938 0.07684,-0.1914063 0.189453,-0.1914063 z M 9.3007813,7.2402344 c -0.4957991,0 -0.9072116,0.2981735 -1.1699219,0.6738281 C 7.8681491,8.2897171 7.7036425,8.7552134 7.5820312,9.2539063 7.3388087,10.251292 7.2832031,11.391237 7.2832031,12.150391 v 1.800781 c 0,0.136086 0.010947,0.261781 0.025391,0.382812 v 0.154297 c 0,0.560594 0.4597179,1.029297 1.0214844,1.029297 h 1.0410157 c -0.073931,-0.01677 0.016524,0.03574 0.1269531,0.166016 0.061098,0.07208 0.1282174,0.152437 0.2246094,0.232422 0.096392,0.07998 0.2373325,0.177734 0.4453127,0.177734 h 11.625 c 0.207979,0 0.348898,-0.09779 0.445312,-0.177734 0.09641,-0.07995 0.165406,-0.160344 0.226563,-0.232422 0.110535,-0.130275 0.20079,-0.182745 0.126953,-0.166016 h 1.101562 c 0.561768,0 1.023438,-0.468705 1.023438,-1.029297 v -1.28125 c 0,-0.0775 -0.02162,-0.141813 -0.03711,-0.210937 v -0.845703 c 0,-0.759154 -0.0556,-1.899099 -0.298828,-2.8964847 C 24.259248,8.7552134 24.094742,8.2897171 23.832031,7.9140625 23.569321,7.5384079 23.157908,7.2402344 22.662109,7.2402344 Z m 0,0.8398437 H 22.662109 c 0.187295,0 0.317327,0.07838 0.482422,0.3144532 0.165096,0.236073 0.314626,0.6187939 0.421875,1.0585937 0.2145,0.8796 0.275391,1.982149 0.275391,2.697266 v 0.923828 l 0.02344,0.06641 c 0.0097,0.02744 0.01367,0.04753 0.01367,0.06641 v 1.28125 c 0,0.115928 -0.07859,0.191407 -0.185547,0.191407 h -1.27539 l -0.06055,0.01953 c -0.351951,0.109317 -0.424136,0.315164 -0.53125,0.441406 -0.04655,0.05486 -0.08358,0.09118 -0.107422,0.113281 H 10.242188 c -0.0238,-0.0221 -0.05902,-0.05849 -0.105469,-0.113281 -0.107004,-0.126238 -0.1792099,-0.332069 -0.5312502,-0.441406 l -0.060547,-0.01953 H 8.3300781 c -0.1069498,0 -0.1835937,-0.07548 -0.1835937,-0.191407 v -0.203125 l -0.00391,-0.02539 c -0.013472,-0.107721 -0.021484,-0.209279 -0.021484,-0.308594 v -1.800781 c 0,-0.715117 0.060891,-1.817666 0.2753906,-2.697266 C 8.503734,9.0133252 8.653264,8.6306043 8.8183594,8.3945313 8.9834547,8.1584582 9.113487,8.0800781 9.3007813,8.0800781 Z M 8.828125,19.628906 c -0.4503367,3.3e-5 -0.8477292,0.361277 -0.8476563,0.824219 -7.17e-5,0.462941 0.3973203,0.822233 0.8476563,0.822266 0.4503351,-3.4e-5 0.8457748,-0.359326 0.8457031,-0.822266 C 9.673901,19.990184 9.2784609,19.62894 8.828125,19.628906 Z m 14.34375,0 c -0.450335,3.5e-5 -0.845776,0.361279 -0.845703,0.824219 -7.2e-5,0.462939 0.395369,0.822231 0.845703,0.822266 0.450335,-3.4e-5 0.847728,-0.359326 0.847656,-0.822266 7.3e-5,-0.462941 -0.39732,-0.824185 -0.847656,-0.824219 z"
         id="path3" /></g><path
       d="m 12.569049,4.965732 h 6.863579 c 1.406921,0 2.537594,0.098723 2.537594,0.2212472 V 6.011545 c 0,0.1225237 -1.130673,0.2212472 -2.537594,0.2212472 h -6.863579 c -1.40692,0 -2.539272,-0.098723 -2.539272,-0.2212472 V 5.1869792 c 0,-0.1225237 1.132352,-0.2212472 2.539272,-0.2212472 z"
       style="fill:#d7eaf4;fill-opacity:1;stroke:none;stroke-width:1.30923;stroke-linecap:round;stroke-linejoin:round;stroke-dasharray:none;stroke-dashoffset:6.03213;stroke-opacity:1;paint-order:markers fill stroke"
       id="path1-1-5" /><path
       id="path1"
       style="fill:#d7eaf4;fill-opacity:1;stroke:none;stroke-width:0.838247;stroke-linecap:round;stroke-linejoin:round;stroke-dasharray:none;stroke-dashoffset:6.03213;stroke-opacity:1;paint-order:markers fill stroke"
       d="m 9.6862993,7.6237505 c -1.3661877,0 -1.9841841,1.4176584 -1.9841841,2.8919305 v 1.799101 c 0,0.122908 0.010373,0.242894 0.025185,0.361285 v 1.583427 c 0,0.338261 0.2691579,0.610385 0.603516,0.610385 H 9.481525 c 0.2180913,0.06774 0.4480341,0.684563 0.686855,0.684563 h 8.514701 c 0.02962,-1.192164 1.009871,-2.156263 2.208922,-2.156263 0.958233,-1e-6 1.77765,0.615916 2.083458,1.4717 h 0.718907 c 0.33436,0 0.603517,-0.272124 0.603517,-0.610385 v -2.687889 c 0,-0.07294 -0.01411,-0.141775 -0.03709,-0.206514 v -0.84941 c 0,-1.4742721 -1.100078,-2.8919305 -2.466265,-2.8919305 z M 20.952448,10.908562 c 0.634523,-6.1e-5 1.148922,0.587326 1.148877,1.311891 -3.22e-4,0.310951 -0.09737,0.611662 -0.273826,0.848494 -0.290618,-0.117326 -0.607517,-0.182704 -0.939158,-0.182703 -0.292976,0 -0.574221,0.05113 -0.836131,0.143781 -0.159835,-0.230475 -0.247238,-0.515581 -0.248182,-0.809572 -4.7e-5,-0.724361 0.514074,-1.311664 1.14842,-1.311891 z m -0.06045,3.062453 c -0.889699,0 -1.607124,0.701067 -1.636087,1.583427 h 2.538154 c 0.204061,0 0.401814,-0.448087 0.591154,-0.621374 -0.256666,-0.56841 -0.826689,-0.962053 -1.493221,-0.962053 z"
       sodipodi:nodetypes="ssscsscscscssscssscccscccscscs" /></g></svg>
