<?xml version="1.0" encoding="UTF-8" standalone="no"?>
<!-- Created with Inkscape (http://www.inkscape.org/) -->

<svg
   width="20mm"
   height="3mm"
   viewBox="0 0 20 3"
   version="1.1"
   id="svg1"
   xml:space="preserve"
   inkscape:version="1.3.1 (9b9bdc1480, 2023-11-25, custom)"
   sodipodi:docname="highway_track.20.svg"
   xmlns:inkscape="http://www.inkscape.org/namespaces/inkscape"
   xmlns:sodipodi="http://sodipodi.sourceforge.net/DTD/sodipodi-0.dtd"
   xmlns="http://www.w3.org/2000/svg"
   xmlns:svg="http://www.w3.org/2000/svg"><sodipodi:namedview
     id="namedview1"
     pagecolor="#ffffff"
     bordercolor="#666666"
     borderopacity="1.0"
     inkscape:showpageshadow="2"
     inkscape:pageopacity="0.0"
     inkscape:pagecheckerboard="0"
     inkscape:deskcolor="#d1d1d1"
     inkscape:document-units="mm"
     inkscape:zoom="3.5420314"
     inkscape:cx="31.337949"
     inkscape:cy="25.55031"
     inkscape:window-width="1318"
     inkscape:window-height="719"
     inkscape:window-x="48"
     inkscape:window-y="27"
     inkscape:window-maximized="1"
     inkscape:current-layer="layer1" /><defs
     id="defs1" /><g
     inkscape:label="Livello 1"
     inkscape:groupmode="layer"
     id="layer1"><g
       id="path2"
       style="fill:#bf914e;fill-opacity:1"><path
         style="color:#000000;fill:#bf914e;stroke-linecap:round;stroke-dasharray:4.26, 2.13, 1.065, 2.13;-inkscape-stroke:none;fill-opacity:1"
         d="M 1.3735673,1.5 H 19.158933"
         id="path3" /><path
         style="color:#000000;fill:#bf914e;stroke-linecap:round;stroke-dasharray:4.26, 2.13, 1.065, 2.13;-inkscape-stroke:none;fill-opacity:1"
         d="M 1.3730469,0.96679688 A 0.53250003,0.53250003 0 0 0 0.84179688,1.5 0.53250003,0.53250003 0 0 0 1.3730469,2.0332031 H 5.6328125 A 0.53250003,0.53250003 0 0 0 6.1660156,1.5 0.53250003,0.53250003 0 0 0 5.6328125,0.96679688 Z m 6.390625,0 A 0.53250003,0.53250003 0 0 0 7.2304687,1.5 0.53250003,0.53250003 0 0 0 7.7636719,2.0332031 H 8.828125 A 0.53250003,0.53250003 0 0 0 9.3613281,1.5 0.53250003,0.53250003 0 0 0 8.828125,0.96679688 Z m 3.1953121,0 A 0.53250003,0.53250003 0 0 0 10.425781,1.5 0.53250003,0.53250003 0 0 0 10.958984,2.0332031 H 15.21875 A 0.53250003,0.53250003 0 0 0 15.751953,1.5 0.53250003,0.53250003 0 0 0 15.21875,0.96679688 Z m 6.388672,0 A 0.53250003,0.53250003 0 0 0 16.816406,1.5 a 0.53250003,0.53250003 0 0 0 0.53125,0.5332031 h 1.066406 A 0.53250003,0.53250003 0 0 0 18.945312,1.5 0.53250003,0.53250003 0 0 0 18.414062,0.96679688 Z"
         id="path4" /></g></g></svg>
