<?xml version="1.0" encoding="UTF-8" standalone="no"?>
<!-- Created with Inkscape (http://www.inkscape.org/) -->

<svg
   width="32mm"
   height="32mm"
   viewBox="0 0 32 32"
   version="1.1"
   id="svg1"
   xml:space="preserve"
   inkscape:version="1.3.1 (9b9bdc1480, 2023-11-25, custom)"
   sodipodi:docname="highway_mini_roundabout_clockwise.svg"
   xmlns:inkscape="http://www.inkscape.org/namespaces/inkscape"
   xmlns:sodipodi="http://sodipodi.sourceforge.net/DTD/sodipodi-0.dtd"
   xmlns="http://www.w3.org/2000/svg"
   xmlns:svg="http://www.w3.org/2000/svg"><sodipodi:namedview
     id="namedview1"
     pagecolor="#ffffff"
     bordercolor="#666666"
     borderopacity="1.0"
     inkscape:showpageshadow="2"
     inkscape:pageopacity="0.0"
     inkscape:pagecheckerboard="0"
     inkscape:deskcolor="#d1d1d1"
     inkscape:document-units="mm"
     inkscape:zoom="1.3845191"
     inkscape:cx="-28.168626"
     inkscape:cy="39.36385"
     inkscape:window-width="1318"
     inkscape:window-height="719"
     inkscape:window-x="48"
     inkscape:window-y="27"
     inkscape:window-maximized="1"
     inkscape:current-layer="layer1"
     showguides="true"
     showgrid="false"><sodipodi:guide
       position="31.338526,6.3755642"
       orientation="1,0"
       id="guide1"
       inkscape:locked="false" /></sodipodi:namedview><defs
     id="defs1" /><g
     inkscape:label="Livello 1"
     inkscape:groupmode="layer"
     id="layer1"><g
       id="g5"
       transform="matrix(-1,0,0,1,32.27499,-0.18341454)"><g
         id="path4"
         inkscape:transform-center-x="2.8349748"
         inkscape:transform-center-y="-6.5288389"
         transform="matrix(0.56242714,-0.82684685,-0.82684685,-0.56242714,0,0)"><path
           style="color:#000000;fill:#0f97db;stroke-linejoin:round;stroke-dashoffset:4.74142;-inkscape-stroke:none;paint-order:stroke fill markers"
           d="m -0.29296875,-33.28125 -0.57421875,1.841797 c 4.7167148,1.471913 7.4356222,6.366612 6.1914062,11.148437 l 1.8652344,0.486329 C 8.6879484,-25.56377 5.387697,-31.508523 -0.29296875,-33.28125 Z"
           id="path8" /><g
           id="g7"><path
             style="color:#000000;fill:#0f97db;fill-rule:evenodd;-inkscape-stroke:none"
             d="m 5.9652682,-18.928379 -2.4859697,-4.234655 0.5828952,-2.240208 2.4859696,4.234655 4.2346547,-2.48597 -0.582895,2.240208 z"
             id="path7" /></g></g><g
         id="path4-7"
         inkscape:transform-center-x="4.5588409"
         inkscape:transform-center-y="5.6092276"
         transform="matrix(-0.98975565,-0.14277169,-0.14277169,0.98975565,0,0)"><path
           style="color:#000000;fill:#0f97db;stroke-linejoin:round;stroke-dashoffset:4.74142;-inkscape-stroke:none;paint-order:stroke fill markers"
           d="m -13.736328,3.6054688 -0.75586,1.7734374 c 4.6947214,1.9999105 6.8772162,7.3945058 4.8925786,12.0957028 l 1.7773438,0.75 C -5.4330381,12.565022 -8.0845374,6.0130826 -13.736328,3.6054688 Z"
           id="path10" /><g
           id="g9"><path
             style="color:#000000;fill:#0f97db;fill-rule:evenodd;-inkscape-stroke:none"
             d="m -9.1616626,18.915624 -1.8484304,-4.549247 0.900272,-2.13256 1.8484306,4.549248 4.5492473,-1.848431 -0.9002722,2.132559 z"
             id="path9" /></g></g><g
         id="path4-7-6"
         inkscape:transform-center-x="-7.1675891"
         inkscape:transform-center-y="0.20300398"
         transform="matrix(0.5989081,0.80081776,0.80081776,-0.5989081,0,0)"><path
           style="color:#000000;fill:#0f97db;stroke-linejoin:round;stroke-dashoffset:4.74142;-inkscape-stroke:none;paint-order:stroke fill markers"
           d="m 25.960937,-7.71875 -0.574218,1.8417969 c 4.716715,1.4719133 7.433669,6.36465891 6.189453,11.1464843 l 1.867187,0.4863282 C 34.941855,-0.00322358 31.641603,-5.946023 25.960937,-7.71875 Z"
           id="path12" /><g
           id="g11"><path
             style="color:#000000;fill:#0f97db;fill-rule:evenodd;-inkscape-stroke:none"
             d="m 32.219092,6.6329056 -2.48597,-4.2346551 0.582895,-2.24020816 2.48597,4.23465506 4.234655,-2.4859697 -0.582895,2.2402082 z"
             id="path11" /></g></g></g></g></svg>
