<?xml version="1.0" encoding="UTF-8" standalone="no"?>
<!-- Created with Inkscape (http://www.inkscape.org/) -->

<svg
   width="32mm"
   height="32mm"
   viewBox="0 0 32 32"
   version="1.1"
   id="svg1"
   xml:space="preserve"
   inkscape:version="1.3.1 (9b9bdc1480, 2023-11-25, custom)"
   sodipodi:docname="historic_archaeological_site.16.svg"
   xmlns:inkscape="http://www.inkscape.org/namespaces/inkscape"
   xmlns:sodipodi="http://sodipodi.sourceforge.net/DTD/sodipodi-0.dtd"
   xmlns="http://www.w3.org/2000/svg"
   xmlns:svg="http://www.w3.org/2000/svg"><sodipodi:namedview
     id="namedview1"
     pagecolor="#ffffff"
     bordercolor="#666666"
     borderopacity="1.0"
     inkscape:showpageshadow="2"
     inkscape:pageopacity="0.0"
     inkscape:pagecheckerboard="0"
     inkscape:deskcolor="#d1d1d1"
     inkscape:document-units="mm"
     inkscape:zoom="2.7690382"
     inkscape:cx="59.587477"
     inkscape:cy="81.436219"
     inkscape:window-width="1318"
     inkscape:window-height="719"
     inkscape:window-x="48"
     inkscape:window-y="27"
     inkscape:window-maximized="1"
     inkscape:current-layer="layer1"
     showguides="true"
     showgrid="false"><sodipodi:guide
       position="31.338526,6.3755642"
       orientation="1,0"
       id="guide1"
       inkscape:locked="false" /><sodipodi:guide
       position="14.308706,-3.2104056"
       orientation="0,-1"
       id="guide14"
       inkscape:locked="false" /></sodipodi:namedview><defs
     id="defs1"><inkscape:perspective
       sodipodi:type="inkscape:persp3d"
       inkscape:vp_x="0 : 526.18109 : 1"
       inkscape:vp_y="0 : 1000 : 0"
       inkscape:vp_z="744.09448 : 526.18109 : 1"
       inkscape:persp3d-origin="372.04724 : 350.78739 : 1"
       id="perspective5302" /></defs><g
     inkscape:label="Livello 1"
     inkscape:groupmode="layer"
     id="layer1"><path
       id="rect2"
       style="fill:#734a08;fill-opacity:1;stroke:none;stroke-width:1.265;stroke-linecap:round;stroke-linejoin:round;stroke-dasharray:none;stroke-dashoffset:4.74142;stroke-opacity:1;paint-order:stroke fill markers"
       d="M 8.5627848 2.1740275 C 8.0351627 2.1740275 7.6103882 2.5988019 7.6103882 3.1264242 L 7.6103882 3.1434774 C 7.6103882 3.6710995 8.0351627 4.095874 8.5627848 4.095874 L 10.577132 4.095874 C 15.25739 4.07842 9.0476405 9.3580791 8.0031291 13.926282 C 7.7807127 14.899026 7.7681509 15.842944 7.8930583 16.741614 C 7.4882271 16.29395 7.0798905 15.841426 6.6874471 15.374772 C 5.5199977 13.986561 4.539711 12.519067 4.3201497 10.984342 C 4.0913128 9.3847809 4.4460144 8.5775911 4.9123617 8.0956299 C 5.3787088 7.6136688 6.0510151 7.428572 6.5665243 7.3690592 C 7.3439143 7.2793139 8.3534953 8.1855469 8.3534953 8.1855469 A 0.58249998 0.58249998 0 0 0 9.1777344 8.1989827 A 0.58249998 0.58249998 0 0 0 9.1911702 7.3747437 C 9.1911702 7.3747437 8.0167027 6.0280049 6.4316488 6.2109904 C 5.765936 6.2878432 4.8150267 6.5233681 4.076237 7.2868937 C 3.3374472 8.0504193 2.9049567 9.3132012 3.1677653 11.150224 C 3.4398495 13.052082 4.5775995 14.677511 5.7949951 16.125114 C 6.8372417 17.364447 7.9511036 18.490549 8.7033447 19.486666 C 9.6023672 21.518061 10.930203 23.110307 11.453564 23.950476 C 12.395559 25.46269 12.418982 26.94178 12.359452 27.406596 C 12.30287 27.848394 11.741941 28.594489 11.005013 28.685071 L 9.4345662 28.685071 C 9.311576 28.685071 9.2128743 28.783772 9.2128743 28.906763 L 9.2128743 29.04939 C 9.2128743 29.17238 9.311576 29.271598 9.4345662 29.271598 L 15.864148 29.271598 L 16.543176 29.271598 L 20.770308 29.271598 C 20.893299 29.271598 20.992517 29.17238 20.992517 29.04939 L 20.992517 28.906763 C 20.992517 28.783772 20.893299 28.685071 20.770308 28.685071 L 19.199862 28.685071 C 18.462932 28.594488 17.902005 27.848394 17.845422 27.406596 C 17.785895 26.94178 17.809319 25.46269 18.75131 23.950476 C 19.268511 23.120197 20.570175 21.554136 21.468457 19.556946 C 22.220585 18.543895 23.365084 17.393286 24.431584 16.125114 C 25.648979 14.677511 26.786729 13.052082 27.058813 11.150224 C 27.321624 9.3132012 26.889131 8.0504194 26.150342 7.2868937 C 25.411552 6.5233681 24.458575 6.2878432 23.792863 6.2109904 C 22.20781 6.0280048 21.035409 7.3747437 21.035409 7.3747437 A 0.58249998 0.58249998 0 0 0 21.048844 8.1989827 A 0.58249998 0.58249998 0 0 0 21.871016 8.1855469 C 21.871016 8.1855469 22.882665 7.279314 23.660055 7.3690592 C 24.175564 7.4285722 24.846319 7.6136687 25.312667 8.0956299 C 25.779014 8.5775911 26.135266 9.3847808 25.906429 10.984342 C 25.686868 12.519067 24.706582 13.986561 23.539132 15.374772 C 23.138397 15.851285 22.721302 16.313226 22.308199 16.770036 C 22.437357 15.862904 22.426497 14.909239 22.201746 13.926282 C 21.157234 9.358079 14.948001 4.078424 19.628259 4.095874 L 21.633822 4.095874 C 22.166122 4.095874 22.594486 3.6675103 22.594486 3.1352091 C 22.594486 2.6029081 22.166122 2.1740275 21.633822 2.1740275 L 16.452743 2.1740275 L 15.868799 2.1740275 L 8.5627848 2.1740275 z " /><g
       id="path10" /></g></svg>
