<?xml version="1.0" encoding="UTF-8" standalone="no"?>
<!-- Created with Inkscape (http://www.inkscape.org/) -->

<svg
   width="32mm"
   height="32mm"
   viewBox="0 0 32 32"
   version="1.1"
   id="svg1"
   xml:space="preserve"
   inkscape:version="1.3.1 (9b9bdc1480, 2023-11-25, custom)"
   sodipodi:docname="historic_archaeological_site.svg"
   xmlns:inkscape="http://www.inkscape.org/namespaces/inkscape"
   xmlns:sodipodi="http://sodipodi.sourceforge.net/DTD/sodipodi-0.dtd"
   xmlns="http://www.w3.org/2000/svg"
   xmlns:svg="http://www.w3.org/2000/svg"><sodipodi:namedview
     id="namedview1"
     pagecolor="#ffffff"
     bordercolor="#666666"
     borderopacity="1.0"
     inkscape:showpageshadow="2"
     inkscape:pageopacity="0.0"
     inkscape:pagecheckerboard="0"
     inkscape:deskcolor="#d1d1d1"
     inkscape:document-units="mm"
     inkscape:zoom="3.9160114"
     inkscape:cx="44.432966"
     inkscape:cy="69.075387"
     inkscape:window-width="1318"
     inkscape:window-height="719"
     inkscape:window-x="48"
     inkscape:window-y="27"
     inkscape:window-maximized="1"
     inkscape:current-layer="layer1"
     showguides="true"
     showgrid="false"><sodipodi:guide
       position="31.338526,6.3755642"
       orientation="1,0"
       id="guide1"
       inkscape:locked="false" /><sodipodi:guide
       position="14.308706,-3.2104056"
       orientation="0,-1"
       id="guide14"
       inkscape:locked="false" /></sodipodi:namedview><defs
     id="defs1"><inkscape:perspective
       sodipodi:type="inkscape:persp3d"
       inkscape:vp_x="0 : 526.18109 : 1"
       inkscape:vp_y="0 : 1000 : 0"
       inkscape:vp_z="744.09448 : 526.18109 : 1"
       inkscape:persp3d-origin="372.04724 : 350.78739 : 1"
       id="perspective5302" /><inkscape:perspective
       sodipodi:type="inkscape:persp3d"
       inkscape:vp_x="-183.11487 : 148.50001 : 1"
       inkscape:vp_y="0 : 1000 : 0"
       inkscape:vp_z="-195.51426 : 148.50001 : 1"
       inkscape:persp3d-origin="-189.31457 : 99.000003 : 1"
       id="perspective10172" /><symbol
       id="Recycling"><title
         id="title7498">Recycling</title><g
         style="stroke:none"
         id="g7512"><path
           style="stroke-width:0.26458332"
           inkscape:connector-curvature="0"
           d="m 14.684375,3.9026042 -1.389063,0.79375 -0.926041,-1.5875 C 12.236979,2.8773437 11.972396,2.7119792 11.608594,2.7119792 H 8.8304687 C 9.0289062,2.9104167 9.0619792,2.9765625 9.1611979,3.1419271 L 10.88099,6.1184896 9.4919271,6.9122396 H 12.93151 Z"
           id="path7500" /><path
           style="stroke-width:0.26458332"
           inkscape:connector-curvature="0"
           d="m 14.254427,12.038542 h 1.389063 c 0.826822,0 1.322916,-0.892969 0.926041,-1.5875 l -1.752864,-3.069167 -2.38125,1.3890625 z"
           id="path7502" /><path
           style="stroke-width:0.26458332"
           inkscape:connector-curvature="0"
           d="m 12.170833,17.065625 v -1.5875 h 1.852084 c 0.264583,0 0.529166,-0.132292 0.727604,-0.463021 l 1.389062,-2.38125 C 15.875,12.7 15.775781,12.7 15.610417,12.7 h -3.439584 v -1.5875 l -1.719791,2.976562 z"
           id="path7504" /><path
           style="stroke-width:0.26458332"
           inkscape:connector-curvature="0"
           d="m 5.3578125,12.7 -0.6945313,1.190625 c -0.396875,0.727604 0.099219,1.5875 0.8929688,1.5875 H 9.0619792 V 12.7 Z"
           id="path7506" /><path
           style="stroke-width:0.26458332"
           inkscape:connector-curvature="0"
           d="m 2.0505208,8.4005208 1.3890625,0.79375 -0.9260416,1.5875002 C 2.38125,11.013281 2.38125,11.310937 2.5466146,11.641667 l 1.3559896,2.38125 c 0.066146,-0.264584 0.099219,-0.33073 0.1984375,-0.496094 L 5.8208333,10.55026 7.2098958,11.34401 5.4901042,8.3674479 Z"
           id="path7508" /><path
           style="stroke-width:0.26458332"
           inkscape:connector-curvature="0"
           d="M 9.2604167,4.6302083 8.5989583,3.4395833 c -0.4299479,-0.6945312 -1.4221354,-0.6945312 -1.8190104,0 l -1.7528646,3.0427084 2.38125,1.3890625 z"
           id="path7510" /></g></symbol><inkscape:perspective
       id="perspective8310"
       inkscape:persp3d-origin="372.04724 : 350.7874 : 1"
       inkscape:vp_z="744.09447 : 526.18111 : 1"
       inkscape:vp_y="0 : 1000 : 0"
       inkscape:vp_x="0 : 526.18111 : 1"
       sodipodi:type="inkscape:persp3d" /><inkscape:perspective
       id="perspective5302-3"
       inkscape:persp3d-origin="372.04724 : 350.7874 : 1"
       inkscape:vp_z="744.09447 : 526.18111 : 1"
       inkscape:vp_y="0 : 1000 : 0"
       inkscape:vp_x="0 : 526.18111 : 1"
       sodipodi:type="inkscape:persp3d" /><symbol
       id="ToiletsMen"><title
         id="title4892">Toilets - Men</title><g
         style="stroke:none"
         id="g4898"><circle
           cx="36"
           cy="9"
           r="5"
           id="circle4894" /><path
           d="m 24,22 v 15.5 a 2.25,2.25 0 0 0 4.5,0 V 23 h 1 v 39.5 a 3,3 0 0 0 6,0 V 40 h 1 v 22.5 a 3,3 0 0 0 6,0 V 23 h 1 v 14.5 a 2.25,2.25 0 0 0 4.5,0 V 22 A 7,7 0 0 0 41,15 H 31 a 7,7 0 0 0 -7,7 z"
           id="path4896"
           inkscape:connector-curvature="0" /></g></symbol><inkscape:perspective
       sodipodi:type="inkscape:persp3d"
       inkscape:vp_x="0 : 100 : 1"
       inkscape:vp_y="0 : 1000 : 0"
       inkscape:vp_z="200 : 100 : 1"
       inkscape:persp3d-origin="100 : 66.666667 : 1"
       id="perspective2879" /></defs><g
     inkscape:label="Livello 1"
     inkscape:groupmode="layer"
     id="layer1"><path
       id="rect2"
       style="fill:#734a08;fill-opacity:1;stroke:none;stroke-width:1.265;stroke-linecap:round;stroke-linejoin:round;stroke-dasharray:none;stroke-dashoffset:4.74142;stroke-opacity:1;paint-order:stroke fill markers"
       d="m 8.5627848,2.1740275 c -0.5276197,0 -0.9523966,0.4247764 -0.9523966,0.9523967 v 0.017053 c 0,0.5276197 0.4247769,0.9523966 0.9523966,0.9523966 H 10.577132 C 15.25737,4.07842 9.0476361,9.3580963 8.0031291,13.926282 7.7807135,14.899022 7.7681513,15.842948 7.8930583,16.741614 7.4882287,16.29395 7.0798889,15.841426 6.6874471,15.374772 5.5200025,13.986569 4.5397102,12.519063 4.3201497,10.984342 4.091314,9.3847889 4.446016,8.5775891 4.9123617,8.0956299 5.3787068,7.6136708 6.0510171,7.428572 6.5665243,7.3690592 c 0.7773868,-0.089745 1.786971,0.8164877 1.786971,0.8164877 0.2238013,0.2315386 0.5930102,0.237557 0.8242391,0.013436 0.2315385,-0.2238013 0.2375569,-0.5930101 0.013436,-0.824239 0,0 -1.1744739,-1.346738 -2.7595214,-1.1637533 C 5.7659384,6.2878428 4.8150235,6.5233713 4.076237,7.2868937 3.33745,8.0504165 2.9049579,9.3132076 3.1677653,11.150224 c 0.272083,1.90185 1.409839,3.527291 2.6272298,4.97489 1.0422426,1.239329 2.1561117,2.365439 2.9083496,3.361552 0.8990189,2.031387 2.2268623,3.623645 2.7502193,4.46381 0.941995,1.51221 0.965418,2.991304 0.905888,3.45612 -0.05658,0.441794 -0.617515,1.187893 -1.354439,1.278475 H 9.4345662 c -0.1229894,0 -0.2216919,0.0987 -0.2216919,0.221692 v 0.142627 c 0,0.12299 0.098702,0.222208 0.2216919,0.222208 h 6.4295818 0.679028 4.227132 c 0.122991,0 0.222209,-0.09922 0.222209,-0.222208 v -0.142627 c 0,-0.122991 -0.09922,-0.221692 -0.222209,-0.221692 h -1.570446 c -0.73693,-0.09058 -1.297857,-0.836681 -1.35444,-1.278475 -0.05953,-0.464816 -0.0361,-1.94391 0.905888,-3.45612 0.517201,-0.830275 1.818869,-2.396348 2.717147,-4.39353 0.752124,-1.013047 1.896631,-2.163664 2.963127,-3.431832 1.217387,-1.447599 2.355149,-3.07304 2.627229,-4.97489 C 27.321624,9.3132076 26.889127,8.0504166 26.150342,7.2868937 25.411556,6.5233713 24.458571,6.2878428 23.792863,6.2109904 22.207818,6.0280056 21.035409,7.3747437 21.035409,7.3747437 c -0.224121,0.2312287 -0.218103,0.6004375 0.01343,0.824239 0.230978,0.2227394 0.598595,0.2167319 0.822172,-0.013436 0,0 1.011649,-0.9062325 1.789039,-0.8164877 0.515505,0.059513 1.186264,0.2446115 1.652612,0.7265707 0.466343,0.4819592 0.822599,1.2891589 0.593762,2.8887123 -0.219561,1.534721 -1.199851,3.002227 -2.367297,4.39043 -0.400735,0.476513 -0.81783,0.938454 -1.230933,1.395264 0.129158,-0.907128 0.118294,-1.860801 -0.106453,-2.843754 -1.044503,-4.5681858 -7.25372,-9.847858 -2.573482,-9.830408 h 2.005563 c 0.532296,0 0.960664,-0.4283657 0.960664,-0.9606649 0,-0.5322986 -0.428368,-0.9611816 -0.960664,-0.9611816 H 16.452743 15.868799 Z M 14.093422,12.216278 c -0.0059,0.03234 0.06569,0.0027 0.09821,0.0075 0.377204,0.05506 0.63825,0.405619 0.582898,0.78278 -0.05534,0.37697 -0.405815,0.637691 -0.782782,0.58232 -0.37697,-0.05534 -0.63769,-0.405815 -0.582319,-0.782781 0.04972,-0.339283 0.34109,-0.590544 0.683995,-0.58983 z m 4.339089,0.21606 c 0.05086,-0.0046 0.103807,0.0053 0.151935,0.03177 0.03053,0.01686 0.05741,0.03973 0.07915,0.06701 0.06687,0.08375 0.07698,0.199522 0.02542,0.293472 l -0.990174,1.149619 1.118424,1.785086 1.354701,-1.42518 1.49855,1.100515 c 0.12611,0.07491 0.167964,0.237867 0.09301,0.363949 -0.07501,0.126045 -0.237929,0.166934 -0.36395,0.09185 l -1.19642,-0.819167 -1.239162,1.303865 c -0.06193,0.06286 -0.150696,0.09062 -0.237434,0.07452 l -1.582894,0.138647 -0.03697,0.612938 0.647022,0.392257 1.316574,0.08492 c 0.146518,-0.0064 0.270924,0.107669 0.277296,0.254187 0.0063,0.146484 -0.107702,0.269879 -0.254187,0.276139 l -1.409584,-0.08434 -0.981509,-0.540149 c -0.08897,-0.04951 -0.14215,-0.145591 -0.136337,-0.247254 l 0.05719,-0.949159 -1.606001,-2.525118 c -0.07908,-0.123703 -0.04296,-0.287969 0.08088,-0.366838 0.0294,-0.01865 0.06218,-0.0314 0.09647,-0.03755 0.03418,-0.006 0.06949,-0.0051 0.103409,0.0023 0.06907,0.015 0.12889,0.05715 0.166955,0.116696 l 1.389941,2.184275 1.261693,-0.12767 -1.074518,-1.748693 1.18197,-1.316574 c 0.06114,-0.0681 0.195604,-0.22047 0.208548,-0.136336 z m -5.472533,0.792024 c 0.01031,3.81e-4 0.02103,0.002 0.0312,0.0046 0.04113,0.01001 0.07548,0.03769 0.09417,0.07568 0.02381,0.04945 0.129218,0.206734 0.433851,0.794335 0.01337,0.02593 0.02222,0.05431 0.02657,0.08319 l 0.08146,0.548235 1.132866,-0.328132 c 0.140462,-0.04061 0.287527,0.03995 0.328711,0.180242 0.0412,0.141228 -0.04055,0.289319 -0.181976,0.329866 l -1.423447,0.413053 c -0.154354,0.04493 -0.312898,-0.05651 -0.336799,-0.215481 l -0.101097,-0.674174 -0.981509,0.477179 -0.03928,0.06759 0.490466,0.708258 c 0.03846,0.056 0.05395,0.124132 0.04333,0.191218 l -0.351241,2.164057 c -0.02345,0.14441 -0.159381,0.242499 -0.303869,0.219526 -0.144785,-0.02351 -0.24308,-0.159671 -0.219525,-0.304448 l 0.332754,-2.060072 -0.551702,-0.707679 -0.358751,0.0491 -0.216059,1.09936 c -0.01247,0.07912 -0.06009,0.148196 -0.129405,0.188329 l -1.9381765,1.11669 c -0.1271419,0.07296 -0.2891957,0.0289 -0.3622168,-0.09821 -0.073498,-0.126937 -0.029911,-0.289348 0.097053,-0.362795 l 1.8289923,-1.053721 0.195262,-1.224142 c 0.01203,-0.07462 0.05536,-0.140631 0.119006,-0.181397 l 1.119001,-0.722123 1.053145,-0.752163 c 0.02577,-0.01818 0.05631,-0.02714 0.08723,-0.026 z m 2.18312,2.297505 c 0.380346,-0.02434 0.708365,0.264354 0.732523,0.644711 0.02434,0.380345 -0.264355,0.708364 -0.644712,0.732521 -0.380345,0.02434 -0.708365,-0.264354 -0.732522,-0.644711 -0.02434,-0.380345 0.264355,-0.708364 0.644711,-0.732521 z"
       sodipodi:nodetypes="sssscsccssscccssssccscssssccsssscsscscsscccsssscccsssccsscccccscccccccccccccccccccccccccccccccsscccccccccccccccccccccccccccccccscccccccc" /><g
       id="path10" /></g></svg>
