<?xml version="1.0" encoding="UTF-8" standalone="no"?>
<!-- Created with Inkscape (http://www.inkscape.org/) -->

<svg
   width="32mm"
   height="32mm"
   viewBox="0 0 32 32"
   version="1.1"
   id="svg1"
   xml:space="preserve"
   inkscape:version="1.3.1 (9b9bdc1480, 2023-11-25, custom)"
   sodipodi:docname="historic_battlefield.svg"
   xmlns:inkscape="http://www.inkscape.org/namespaces/inkscape"
   xmlns:sodipodi="http://sodipodi.sourceforge.net/DTD/sodipodi-0.dtd"
   xmlns="http://www.w3.org/2000/svg"
   xmlns:svg="http://www.w3.org/2000/svg"><sodipodi:namedview
     id="namedview1"
     pagecolor="#ffffff"
     bordercolor="#666666"
     borderopacity="1.0"
     inkscape:showpageshadow="2"
     inkscape:pageopacity="0.0"
     inkscape:pagecheckerboard="0"
     inkscape:deskcolor="#d1d1d1"
     inkscape:document-units="mm"
     inkscape:zoom="1.9580057"
     inkscape:cx="76.097838"
     inkscape:cy="75.842476"
     inkscape:window-width="1318"
     inkscape:window-height="719"
     inkscape:window-x="48"
     inkscape:window-y="27"
     inkscape:window-maximized="1"
     inkscape:current-layer="layer1"
     showguides="true"
     showgrid="false"><sodipodi:guide
       position="31.338526,6.3755642"
       orientation="1,0"
       id="guide1"
       inkscape:locked="false" /><sodipodi:guide
       position="14.308706,-3.2104056"
       orientation="0,-1"
       id="guide14"
       inkscape:locked="false" /></sodipodi:namedview><defs
     id="defs1"><inkscape:perspective
       sodipodi:type="inkscape:persp3d"
       inkscape:vp_x="0 : 526.18109 : 1"
       inkscape:vp_y="0 : 1000 : 0"
       inkscape:vp_z="744.09448 : 526.18109 : 1"
       inkscape:persp3d-origin="372.04724 : 350.78739 : 1"
       id="perspective5302" /><inkscape:perspective
       sodipodi:type="inkscape:persp3d"
       inkscape:vp_x="-183.11487 : 148.50001 : 1"
       inkscape:vp_y="0 : 1000 : 0"
       inkscape:vp_z="-195.51426 : 148.50001 : 1"
       inkscape:persp3d-origin="-189.31457 : 99.000003 : 1"
       id="perspective10172" /><symbol
       id="Recycling"><title
         id="title7498">Recycling</title><g
         style="stroke:none"
         id="g7512"><path
           style="stroke-width:0.26458332"
           inkscape:connector-curvature="0"
           d="m 14.684375,3.9026042 -1.389063,0.79375 -0.926041,-1.5875 C 12.236979,2.8773437 11.972396,2.7119792 11.608594,2.7119792 H 8.8304687 C 9.0289062,2.9104167 9.0619792,2.9765625 9.1611979,3.1419271 L 10.88099,6.1184896 9.4919271,6.9122396 H 12.93151 Z"
           id="path7500" /><path
           style="stroke-width:0.26458332"
           inkscape:connector-curvature="0"
           d="m 14.254427,12.038542 h 1.389063 c 0.826822,0 1.322916,-0.892969 0.926041,-1.5875 l -1.752864,-3.069167 -2.38125,1.3890625 z"
           id="path7502" /><path
           style="stroke-width:0.26458332"
           inkscape:connector-curvature="0"
           d="m 12.170833,17.065625 v -1.5875 h 1.852084 c 0.264583,0 0.529166,-0.132292 0.727604,-0.463021 l 1.389062,-2.38125 C 15.875,12.7 15.775781,12.7 15.610417,12.7 h -3.439584 v -1.5875 l -1.719791,2.976562 z"
           id="path7504" /><path
           style="stroke-width:0.26458332"
           inkscape:connector-curvature="0"
           d="m 5.3578125,12.7 -0.6945313,1.190625 c -0.396875,0.727604 0.099219,1.5875 0.8929688,1.5875 H 9.0619792 V 12.7 Z"
           id="path7506" /><path
           style="stroke-width:0.26458332"
           inkscape:connector-curvature="0"
           d="m 2.0505208,8.4005208 1.3890625,0.79375 -0.9260416,1.5875002 C 2.38125,11.013281 2.38125,11.310937 2.5466146,11.641667 l 1.3559896,2.38125 c 0.066146,-0.264584 0.099219,-0.33073 0.1984375,-0.496094 L 5.8208333,10.55026 7.2098958,11.34401 5.4901042,8.3674479 Z"
           id="path7508" /><path
           style="stroke-width:0.26458332"
           inkscape:connector-curvature="0"
           d="M 9.2604167,4.6302083 8.5989583,3.4395833 c -0.4299479,-0.6945312 -1.4221354,-0.6945312 -1.8190104,0 l -1.7528646,3.0427084 2.38125,1.3890625 z"
           id="path7510" /></g></symbol><inkscape:perspective
       id="perspective8310"
       inkscape:persp3d-origin="372.04724 : 350.7874 : 1"
       inkscape:vp_z="744.09447 : 526.18111 : 1"
       inkscape:vp_y="0 : 1000 : 0"
       inkscape:vp_x="0 : 526.18111 : 1"
       sodipodi:type="inkscape:persp3d" /><inkscape:perspective
       id="perspective5302-3"
       inkscape:persp3d-origin="372.04724 : 350.7874 : 1"
       inkscape:vp_z="744.09447 : 526.18111 : 1"
       inkscape:vp_y="0 : 1000 : 0"
       inkscape:vp_x="0 : 526.18111 : 1"
       sodipodi:type="inkscape:persp3d" /><symbol
       id="ToiletsMen"><title
         id="title4892">Toilets - Men</title><g
         style="stroke:none"
         id="g4898"><circle
           cx="36"
           cy="9"
           r="5"
           id="circle4894" /><path
           d="m 24,22 v 15.5 a 2.25,2.25 0 0 0 4.5,0 V 23 h 1 v 39.5 a 3,3 0 0 0 6,0 V 40 h 1 v 22.5 a 3,3 0 0 0 6,0 V 23 h 1 v 14.5 a 2.25,2.25 0 0 0 4.5,0 V 22 A 7,7 0 0 0 41,15 H 31 a 7,7 0 0 0 -7,7 z"
           id="path4896"
           inkscape:connector-curvature="0" /></g></symbol><inkscape:perspective
       sodipodi:type="inkscape:persp3d"
       inkscape:vp_x="0 : 100 : 1"
       inkscape:vp_y="0 : 1000 : 0"
       inkscape:vp_z="200 : 100 : 1"
       inkscape:persp3d-origin="100 : 66.666667 : 1"
       id="perspective2879" /></defs><g
     inkscape:label="Livello 1"
     inkscape:groupmode="layer"
     id="layer1"><g
       id="path10" /><path
       id="rect15-8"
       style="fill:#734a08;fill-opacity:1;stroke:none;stroke-width:0.665001;stroke-linecap:round;stroke-linejoin:round;stroke-dasharray:none;stroke-dashoffset:4.74142;stroke-opacity:1;paint-order:stroke fill markers"
       inkscape:transform-center-x="3.0596252"
       inkscape:transform-center-y="-3.1705429"
       d="M 3.6214844,4.3563232 C 3.0614429,4.3151453 2.738742,4.6503401 3.0902507,4.8570679 7.8368209,7.6486073 10.603061,9.3728251 13.772286,12.044226 14.512687,11.317462 15.267848,10.626304 16.071887,9.9725179 13.262158,7.7272828 9.7856757,5.916277 3.8752157,4.3986979 3.7867977,4.3759979 3.7014943,4.3622232 3.6214844,4.3563232 Z M 18.858797,12.505697 c -0.729417,0.61879 -1.485294,1.291861 -2.288749,2.037601 1.57923,1.482106 3.363815,3.254939 5.565035,5.50199 -0.662972,0.945131 -0.817412,1.867431 -0.386023,2.305286 0.385801,0.388149 1.167424,0.320485 2.023649,-0.175183 l 4.875155,4.946984 c 0.39828,0.404163 1.044332,0.408615 1.44849,0.01034 l 0.410311,-0.40411 c 0.404163,-0.398281 0.408616,-1.044332 0.01033,-1.44849 l -1.402498,-1.423169 c 0.226049,-0.334481 0.540243,-0.852454 0.780831,-1.469678 0.209314,-0.536991 0.369184,-1.158134 0.339514,-1.820561 -0.02967,-0.662428 -0.275524,-1.371795 -0.827856,-1.947168 -0.698495,-0.727627 -1.671903,-0.898294 -2.507858,-0.711067 -0.381849,0.08552 -0.747415,0.231039 -1.09709,0.410827 -0.299153,-0.280377 -0.823263,-0.307577 -1.44384,-0.07493 -2.148724,-2.150876 -3.813988,-4.047751 -5.499406,-5.738667 z m 8.774142,6.679695 c 0.291266,0.0024 0.529609,0.108481 0.789616,0.379305 0.31928,0.3326 0.431378,0.66944 0.449068,1.064535 0.01769,0.395094 -0.0847,0.842885 -0.248047,1.261938 -0.145395,0.373009 -0.330078,0.707172 -0.49196,0.968417 l -2.495455,-2.532146 c 0.09056,-0.154096 0.16796,-0.307686 0.230994,-0.45837 0.463069,-0.306645 0.931324,-0.539405 1.328601,-0.628385 0.161389,-0.03614 0.304789,-0.05639 0.437183,-0.05529 z"
       sodipodi:nodetypes="ccccccccccccccccsssscccccssccccc" /><g
       id="rect15"
       inkscape:transform-center-x="-3.0596252"
       inkscape:transform-center-y="-3.1705429"
       transform="rotate(-45.419705)"><path
         style="color:#000000;fill:#734a08;stroke-linecap:round;stroke-linejoin:round;stroke-dashoffset:4.74142;-inkscape-stroke:none;paint-order:stroke fill markers;fill-opacity:1"
         d="M 17.118893,23.719305 C 17.058546,23.666449 16.988847,23.615366 16.910615,23.568323 6.4021662,17.24936 1.9469966,18.760645 -7.3283785,18.697343 A 1.4569284,2.860178 0 0 0 -8.395192,17.721538 c -0.1173828,-0.375258 -0.2703288,-0.737777 -0.4774377,-1.069785 -0.4534089,-0.726841 -1.2582093,-1.300376 -2.2667563,-1.287161 -0.797506,0.01045 -1.475333,0.333245 -1.967983,0.777078 -0.49265,0.443831 -0.822856,0.993685 -1.058419,1.519691 -0.270759,0.604599 -0.419158,1.191956 -0.498732,1.587739 l -1.998102,-2e-5 c -0.567426,0 -1.024458,0.456643 -1.024458,1.024069 l 1.66e-4,0.575899 c 0,0.567425 0.456643,1.024458 1.024069,1.024458 l 6.9454873,8.5e-5 a 1.4569284,2.860178 0 0 0 1.2956385,1.564342 1.4569284,2.860178 0 0 0 1.3710274,-1.89305 c 12.2690712,-0.03653 15.0366321,0.459751 24.1857978,2.904279 0.393973,0.105264 0.406215,-0.359863 -0.01621,-0.729857 z m -27.416099,-6.693934 c 0.09372,0.09352 0.179944,0.209879 0.267479,0.350202 0.2154762,0.345422 0.3783579,0.842321 0.4849769,1.387388 a 1.4569284,2.860178 0 0 0 -0.1643457,0.486263 l -3.5551452,-9.8e-5 c 0.07245,-0.298673 0.180833,-0.664767 0.344461,-1.030146 0.183827,-0.410481 0.430898,-0.797724 0.724732,-1.062441 0.293834,-0.264717 0.612432,-0.421308 1.073438,-0.427349 0.375401,-0.0049 0.618227,0.09043 0.824404,0.296181 z"
         id="path19" /></g></g></svg>
