<?xml version="1.0" encoding="UTF-8" standalone="no"?>
<!-- Created with Inkscape (http://www.inkscape.org/) -->

<svg
   width="32mm"
   height="32mm"
   viewBox="0 0 32 32"
   version="1.1"
   id="svg1"
   xml:space="preserve"
   inkscape:version="1.3.1 (9b9bdc1480, 2023-11-25, custom)"
   sodipodi:docname="historic_castle.svg"
   xmlns:inkscape="http://www.inkscape.org/namespaces/inkscape"
   xmlns:sodipodi="http://sodipodi.sourceforge.net/DTD/sodipodi-0.dtd"
   xmlns="http://www.w3.org/2000/svg"
   xmlns:svg="http://www.w3.org/2000/svg"><sodipodi:namedview
     id="namedview1"
     pagecolor="#ffffff"
     bordercolor="#666666"
     borderopacity="1.0"
     inkscape:showpageshadow="2"
     inkscape:pageopacity="0.0"
     inkscape:pagecheckerboard="0"
     inkscape:deskcolor="#d1d1d1"
     inkscape:document-units="mm"
     inkscape:zoom="1.3845191"
     inkscape:cx="-10.111814"
     inkscape:cy="79.088833"
     inkscape:window-width="1318"
     inkscape:window-height="719"
     inkscape:window-x="48"
     inkscape:window-y="27"
     inkscape:window-maximized="1"
     inkscape:current-layer="layer1"
     showguides="true"
     showgrid="false"><sodipodi:guide
       position="31.338526,6.3755642"
       orientation="1,0"
       id="guide1"
       inkscape:locked="false" /><sodipodi:guide
       position="14.308706,-3.2104056"
       orientation="0,-1"
       id="guide14"
       inkscape:locked="false" /></sodipodi:namedview><defs
     id="defs1"><inkscape:perspective
       sodipodi:type="inkscape:persp3d"
       inkscape:vp_x="0 : 526.18109 : 1"
       inkscape:vp_y="0 : 1000 : 0"
       inkscape:vp_z="744.09448 : 526.18109 : 1"
       inkscape:persp3d-origin="372.04724 : 350.78739 : 1"
       id="perspective5302" /><inkscape:perspective
       sodipodi:type="inkscape:persp3d"
       inkscape:vp_x="-183.11487 : 148.50001 : 1"
       inkscape:vp_y="0 : 1000 : 0"
       inkscape:vp_z="-195.51426 : 148.50001 : 1"
       inkscape:persp3d-origin="-189.31457 : 99.000003 : 1"
       id="perspective10172" /><symbol
       id="Recycling"><title
         id="title7498">Recycling</title><g
         style="stroke:none"
         id="g7512"><path
           style="stroke-width:0.26458332"
           inkscape:connector-curvature="0"
           d="m 14.684375,3.9026042 -1.389063,0.79375 -0.926041,-1.5875 C 12.236979,2.8773437 11.972396,2.7119792 11.608594,2.7119792 H 8.8304687 C 9.0289062,2.9104167 9.0619792,2.9765625 9.1611979,3.1419271 L 10.88099,6.1184896 9.4919271,6.9122396 H 12.93151 Z"
           id="path7500" /><path
           style="stroke-width:0.26458332"
           inkscape:connector-curvature="0"
           d="m 14.254427,12.038542 h 1.389063 c 0.826822,0 1.322916,-0.892969 0.926041,-1.5875 l -1.752864,-3.069167 -2.38125,1.3890625 z"
           id="path7502" /><path
           style="stroke-width:0.26458332"
           inkscape:connector-curvature="0"
           d="m 12.170833,17.065625 v -1.5875 h 1.852084 c 0.264583,0 0.529166,-0.132292 0.727604,-0.463021 l 1.389062,-2.38125 C 15.875,12.7 15.775781,12.7 15.610417,12.7 h -3.439584 v -1.5875 l -1.719791,2.976562 z"
           id="path7504" /><path
           style="stroke-width:0.26458332"
           inkscape:connector-curvature="0"
           d="m 5.3578125,12.7 -0.6945313,1.190625 c -0.396875,0.727604 0.099219,1.5875 0.8929688,1.5875 H 9.0619792 V 12.7 Z"
           id="path7506" /><path
           style="stroke-width:0.26458332"
           inkscape:connector-curvature="0"
           d="m 2.0505208,8.4005208 1.3890625,0.79375 -0.9260416,1.5875002 C 2.38125,11.013281 2.38125,11.310937 2.5466146,11.641667 l 1.3559896,2.38125 c 0.066146,-0.264584 0.099219,-0.33073 0.1984375,-0.496094 L 5.8208333,10.55026 7.2098958,11.34401 5.4901042,8.3674479 Z"
           id="path7508" /><path
           style="stroke-width:0.26458332"
           inkscape:connector-curvature="0"
           d="M 9.2604167,4.6302083 8.5989583,3.4395833 c -0.4299479,-0.6945312 -1.4221354,-0.6945312 -1.8190104,0 l -1.7528646,3.0427084 2.38125,1.3890625 z"
           id="path7510" /></g></symbol><inkscape:perspective
       id="perspective8310"
       inkscape:persp3d-origin="372.04724 : 350.7874 : 1"
       inkscape:vp_z="744.09447 : 526.18111 : 1"
       inkscape:vp_y="0 : 1000 : 0"
       inkscape:vp_x="0 : 526.18111 : 1"
       sodipodi:type="inkscape:persp3d" /><inkscape:perspective
       id="perspective5302-3"
       inkscape:persp3d-origin="372.04724 : 350.7874 : 1"
       inkscape:vp_z="744.09447 : 526.18111 : 1"
       inkscape:vp_y="0 : 1000 : 0"
       inkscape:vp_x="0 : 526.18111 : 1"
       sodipodi:type="inkscape:persp3d" /><symbol
       id="ToiletsMen"><title
         id="title4892">Toilets - Men</title><g
         style="stroke:none"
         id="g4898"><circle
           cx="36"
           cy="9"
           r="5"
           id="circle4894" /><path
           d="m 24,22 v 15.5 a 2.25,2.25 0 0 0 4.5,0 V 23 h 1 v 39.5 a 3,3 0 0 0 6,0 V 40 h 1 v 22.5 a 3,3 0 0 0 6,0 V 23 h 1 v 14.5 a 2.25,2.25 0 0 0 4.5,0 V 22 A 7,7 0 0 0 41,15 H 31 a 7,7 0 0 0 -7,7 z"
           id="path4896"
           inkscape:connector-curvature="0" /></g></symbol><inkscape:perspective
       sodipodi:type="inkscape:persp3d"
       inkscape:vp_x="0 : 100 : 1"
       inkscape:vp_y="0 : 1000 : 0"
       inkscape:vp_z="200 : 100 : 1"
       inkscape:persp3d-origin="100 : 66.666667 : 1"
       id="perspective2879" /></defs><g
     inkscape:label="Livello 1"
     inkscape:groupmode="layer"
     id="layer1"><g
       id="path10" /><g
       id="path20"
       style="fill:#734a08;fill-opacity:1"
       transform="matrix(0.96075167,0,0,0.96075167,0.04363981,15.124878)"><path
         id="path45"
         style="color:#000000;fill:#734a08;fill-opacity:1;stroke-linecap:round;-inkscape-stroke:none"
         d="m 7.7976315,-14.270888 a 0.78250003,0.78250003 0 0 0 -0.782898,0.783415 v 2.652551 H 4.2645138 a 0.78250003,0.78250003 0 0 0 -0.7813477,0.782898 0.78250003,0.78250003 0 0 0 0.7813477,0.7813476 H 7.0147335 V -2.024607 H 4.2645138 a 0.78250003,0.78250003 0 0 0 -0.7813477,0.783415 0.78250003,0.78250003 0 0 0 0.7813477,0.78083104 H 7.0147335 V 6.785708 H 4.2645138 A 0.78250003,0.78250003 0 0 0 3.4831661,7.569123 0.78250003,0.78250003 0 0 0 4.2645138,8.35047 h 2.7502197 v 3.576009 H 5.3895097 L 7.7976315,16.092633 10.20627,11.926479 H 8.5810462 V 8.35047 h 7.2440018 v 3.576009 h -1.624707 l 2.408122,4.166154 2.408122,-4.166154 H 17.391361 V 8.35047 h 7.244519 v 3.576009 h -1.625224 l 2.408122,4.166154 2.408122,-4.166154 H 26.202193 V 8.35047 h 2.750219 A 0.78250003,0.78250003 0 0 0 29.733243,7.569123 0.78250003,0.78250003 0 0 0 28.952412,6.785708 h -2.750219 v -7.24606896 h 2.750219 A 0.78250003,0.78250003 0 0 0 29.733243,-1.241192 0.78250003,0.78250003 0 0 0 28.952412,-2.024607 h -2.750219 v -7.2460694 h 2.750219 a 0.78250003,0.78250003 0 0 0 0.780831,-0.7813476 0.78250003,0.78250003 0 0 0 -0.780831,-0.782898 h -2.750219 v -2.652551 a 0.78250003,0.78250003 0 0 0 -0.783415,-0.783415 0.78250003,0.78250003 0 0 0 -0.782898,0.783415 v 2.652551 h -7.244519 v -2.652551 a 0.78250003,0.78250003 0 0 0 -0.782898,-0.783415 0.78250003,0.78250003 0 0 0 -0.783415,0.783415 v 2.652551 H 8.5810462 v -2.652551 a 0.78250003,0.78250003 0 0 0 -0.7834147,-0.783415 z m 0.7834147,5.0002116 H 15.825048 V -2.024607 H 8.5810462 Z m 8.8103148,0 H 24.63588 V -2.024607 H 17.391361 Z M 8.5810462,-0.46036096 H 15.825048 V 6.785708 H 8.5810462 Z m 8.8103148,0 H 24.63588 V 6.785708 h -7.244519 z" /><g
         id="g42"
         style="fill:#734a08;fill-opacity:1"><g
           id="path42"
           style="fill:#734a08;fill-opacity:1" /></g></g></g></svg>
