<?xml version="1.0" encoding="UTF-8" standalone="no"?>
<!-- Created with Inkscape (http://www.inkscape.org/) -->

<svg
   width="20mm"
   height="32mm"
   viewBox="0 0 20 32"
   version="1.1"
   id="svg1"
   xml:space="preserve"
   inkscape:version="1.3.1 (9b9bdc1480, 2023-11-25, custom)"
   sodipodi:docname="icon_marker_end.svg"
   xmlns:inkscape="http://www.inkscape.org/namespaces/inkscape"
   xmlns:sodipodi="http://sodipodi.sourceforge.net/DTD/sodipodi-0.dtd"
   xmlns:xlink="http://www.w3.org/1999/xlink"
   xmlns="http://www.w3.org/2000/svg"
   xmlns:svg="http://www.w3.org/2000/svg"><sodipodi:namedview
     id="namedview1"
     pagecolor="#ffffff"
     bordercolor="#666666"
     borderopacity="1.0"
     inkscape:showpageshadow="2"
     inkscape:pageopacity="0.0"
     inkscape:pagecheckerboard="0"
     inkscape:deskcolor="#d1d1d1"
     inkscape:document-units="mm"
     inkscape:zoom="3.5420314"
     inkscape:cx="59.852659"
     inkscape:cy="56.605935"
     inkscape:window-width="1318"
     inkscape:window-height="719"
     inkscape:window-x="48"
     inkscape:window-y="27"
     inkscape:window-maximized="1"
     inkscape:current-layer="layer1" /><defs
     id="defs1"><linearGradient
       id="linearGradient13"
       inkscape:collect="always"><stop
         style="stop-color:#a33636;stop-opacity:1;"
         offset="0"
         id="stop12" /><stop
         style="stop-color:#943131;stop-opacity:1;"
         offset="1"
         id="stop13" /></linearGradient><linearGradient
       id="linearGradient9"
       inkscape:collect="always"><stop
         style="stop-color:#c85b5b;stop-opacity:1;"
         offset="0"
         id="stop9" /><stop
         style="stop-color:#c24a4a;stop-opacity:1;"
         offset="1"
         id="stop10" /></linearGradient><linearGradient
       id="linearGradient7"
       inkscape:collect="always"><stop
         style="stop-color:#c55252;stop-opacity:1;"
         offset="0"
         id="stop7" /><stop
         style="stop-color:#963232;stop-opacity:1;"
         offset="1"
         id="stop8" /></linearGradient><linearGradient
       id="linearGradient6"
       inkscape:collect="always"><stop
         style="stop-color:#cb6363;stop-opacity:1;"
         offset="0"
         id="stop5" /><stop
         style="stop-color:#af3a3a;stop-opacity:1;"
         offset="1"
         id="stop6" /></linearGradient><linearGradient
       id="linearGradient3"
       inkscape:collect="always"><stop
         style="stop-color:#ae3a3a;stop-opacity:1;"
         offset="0"
         id="stop3" /><stop
         style="stop-color:#913030;stop-opacity:1;"
         offset="1"
         id="stop4" /></linearGradient><linearGradient
       inkscape:collect="always"
       xlink:href="#linearGradient3"
       id="linearGradient4"
       x1="174.57315"
       y1="51.427364"
       x2="174.4111"
       y2="217.40543"
       gradientUnits="userSpaceOnUse"
       gradientTransform="matrix(0.17465999,0,0,0.17465999,-20.609939,-8.0835061)" /><linearGradient
       inkscape:collect="always"
       xlink:href="#linearGradient6"
       id="linearGradient5"
       gradientUnits="userSpaceOnUse"
       x1="174.57315"
       y1="51.427364"
       x2="174.4111"
       y2="217.40543"
       gradientTransform="matrix(0.16082125,0,0,0.16041336,-18.185813,-6.5723631)" /><linearGradient
       inkscape:collect="always"
       xlink:href="#linearGradient7"
       id="linearGradient8"
       x1="175.66167"
       y1="58.531834"
       x2="175.18942"
       y2="210.75717"
       gradientUnits="userSpaceOnUse"
       gradientTransform="matrix(0.17465999,0,0,0.17465999,-20.700763,-8.0835061)" /><linearGradient
       inkscape:collect="always"
       xlink:href="#linearGradient13"
       id="linearGradient11"
       gradientUnits="userSpaceOnUse"
       x1="59.877449"
       y1="75.120865"
       x2="60.795429"
       y2="126.47459"
       gradientTransform="matrix(0.17465999,0,0,0.17465999,-0.59402832,-8.162819)" /><linearGradient
       inkscape:collect="always"
       xlink:href="#linearGradient9"
       id="linearGradient12"
       gradientUnits="userSpaceOnUse"
       x1="59.877449"
       y1="75.120865"
       x2="60.795429"
       y2="126.47459"
       gradientTransform="matrix(0.17465999,0,0,0.17465999,-0.59402832,-8.162819)" /></defs><g
     inkscape:label="Livello 1"
     inkscape:groupmode="layer"
     id="layer1"><path
       id="path2-0-2"
       style="fill:url(#linearGradient8);stroke:none;stroke-width:0.838089;stroke-linecap:round;stroke-linejoin:miter;stroke-dasharray:none;stroke-opacity:1;paint-order:markers stroke fill"
       d="m 10.48565,1.3698513 c -0.167439,1.922e-4 -0.334996,0.00537 -0.5023752,0.015344 C 6.9722901,1.2075735 4.0817337,2.9093732 2.432828,5.3761355 1.055407,7.1474428 0.99731678,9.4802989 1.158294,11.61739 c 0.3182811,2.037026 1.2125962,3.942163 2.1174537,5.778229 2.1625422,4.05589 6.6997651,12.565276 6.6997651,12.565276 0,0 2.3897752,-4.32262 3.3802532,-6.23954 1.543261,-3.038362 3.227079,-6.011535 4.588628,-9.137454 0.659956,-1.417896 0.991893,-2.968504 0.915037,-4.534294 C 19.086605,6.7006912 16.831175,3.5536946 13.858233,2.1800979 12.822582,1.6124523 11.657725,1.368504 10.48565,1.3698513 Z M 9.8811037,5.3709907 A 4.0721298,4.0721298 0 0 1 13.953184,9.4430737 4.0721298,4.0721298 0 0 1 9.8811037,13.515245 4.0721298,4.0721298 0 0 1 5.8089306,9.4430737 4.0721298,4.0721298 0 0 1 9.8811037,5.3709907 Z" /><path
       style="fill:none;stroke:url(#linearGradient4);stroke-width:0.890148;stroke-linecap:round;stroke-linejoin:miter;stroke-dasharray:none;stroke-opacity:1;paint-order:markers stroke fill"
       d="M 2.8594403,17.497901 C 1.2302931,14.368585 0.77755295,12.574286 0.56414447,11.015154 0.35073599,9.4560224 0.3877809,6.8169345 1.9959531,4.5648499 3.6041253,2.3127654 6.6878188,0.53710514 9.9835738,0.49298724 13.279329,0.44886934 16.187393,2.3954374 17.422976,3.829958 c 1.235583,1.4345206 1.962543,3.287145 1.988123,5.8657039 0.02558,2.5785591 -1.183725,5.6179691 -2.410739,8.0019061 -1.227014,2.383937 -7.0250414,13.146193 -7.0250414,13.146193 0,0 -5.4867311,-10.216544 -7.1158783,-13.34586 z"
       id="path2"
       sodipodi:nodetypes="zzzzzzzcz" /><path
       style="fill:none;stroke:url(#linearGradient5);stroke-width:0.818581;stroke-linecap:round;stroke-linejoin:miter;stroke-dasharray:none;stroke-opacity:1;paint-order:markers stroke fill"
       d="M 3.4240289,16.922424 C 2.5391106,15.131374 1.6644728,13.272972 1.3532059,11.285889 1.1957762,9.2011914 1.2526123,6.9255562 2.5996827,5.1976765 4.212252,2.7913904 7.0390663,1.1312979 9.9836992,1.304565 11.293228,1.226716 12.615753,1.4471181 13.773274,2.079951 c 2.907429,1.3399206 5.113153,4.4098371 4.890986,7.6766495 0.07516,1.5273995 -0.249425,3.0399375 -0.894837,4.4230725 -1.331546,3.049282 -2.97825,5.949604 -4.487501,8.913478 -0.968653,1.869922 -3.3058218,6.086545 -3.3058218,6.086545 0,0 -4.4371833,-8.300818 -6.5520713,-12.257272 z"
       id="path2-0"
       sodipodi:nodetypes="cccccccccc" /><circle
       style="fill:none;stroke:url(#linearGradient11);stroke-width:0.697941;stroke-linecap:round;stroke-linejoin:round;stroke-dasharray:none;stroke-opacity:1;paint-order:markers stroke fill"
       id="path3"
       cx="9.985281"
       cy="9.4512939"
       r="3.6223648" /><circle
       style="fill:none;stroke:url(#linearGradient12);stroke-width:0.838466;stroke-linecap:round;stroke-linejoin:round;stroke-dasharray:none;stroke-opacity:1;paint-order:markers stroke fill"
       id="path3-6"
       cx="9.985281"
       cy="9.4512939"
       r="4.3516979" /></g></svg>
