<?xml version="1.0" encoding="UTF-8" standalone="no"?>
<!-- Created with Inkscape (http://www.inkscape.org/) -->
<svg
   xmlns:dc="http://purl.org/dc/elements/1.1/"
   xmlns:cc="http://creativecommons.org/ns#"
   xmlns:rdf="http://www.w3.org/1999/02/22-rdf-syntax-ns#"
   xmlns:svg="http://www.w3.org/2000/svg"
   xmlns="http://www.w3.org/2000/svg"
   xmlns:sodipodi="http://sodipodi.sourceforge.net/DTD/sodipodi-0.dtd"
   xmlns:inkscape="http://www.inkscape.org/namespaces/inkscape"
   version="1.1"
   width="200"
   height="200"
   id="svg2"
   inkscape:version="0.46"
   sodipodi:docname="Italian_traffic_signs_-_icona_telefono.svg"
   sodipodi:version="0.32"
   inkscape:output_extension="org.inkscape.output.svg.inkscape">
  <metadata
     id="metadata2877">
    <rdf:RDF>
      <cc:Work
         rdf:about="">
        <dc:format>image/svg+xml</dc:format>
        <dc:type
           rdf:resource="http://purl.org/dc/dcmitype/StillImage" />
      </cc:Work>
    </rdf:RDF>
  </metadata>
  <sodipodi:namedview
     pagecolor="#ffffff"
     bordercolor="#666666"
     borderopacity="1"
     objecttolerance="10"
     gridtolerance="10"
     guidetolerance="10"
     inkscape:pageopacity="0"
     inkscape:pageshadow="2"
     inkscape:window-width="1024"
     inkscape:window-height="708"
     id="namedview2875"
     showgrid="false"
     inkscape:zoom="1.9914447"
     inkscape:cx="115.51255"
     inkscape:cy="118.43692"
     inkscape:window-x="-4"
     inkscape:window-y="-4"
     inkscape:window-maximized="1"
     inkscape:current-layer="svg2" />
  <defs
     id="defs4">
    <inkscape:perspective
       sodipodi:type="inkscape:persp3d"
       inkscape:vp_x="0 : 100 : 1"
       inkscape:vp_y="0 : 1000 : 0"
       inkscape:vp_z="200 : 100 : 1"
       inkscape:persp3d-origin="100 : 66.666667 : 1"
       id="perspective2879" />
  </defs>
  <rect
     style="fill:#ffffff;fill-opacity:1;stroke:none"
     id="rect2881"
     width="200.9709"
     height="200.61583"
     x="0"
     y="-0.61582947"
     rx="0"
     ry="0" />
  <rect
     width="194.80612"
     height="194.80614"
     ry="18.580454"
     x="3.2339785"
     y="2.8621521"
     id="rect4614"
     style="fill:none;stroke:#000000;stroke-width:3;stroke-miterlimit:4;stroke-opacity:1;stroke-dasharray:none" />
  <path
     style="fill:#000000"
     id="path4722"
     d="M 102.94769,162.58727 L 83.883544,142.54379 L 70.204364,119.90023 L 56.525184,97.256679 L 46.719394,73.253319 C 41.326214,60.051469 36.882873,48.860819 36.845303,48.385209 C 36.744403,47.107994 47.775674,22.093993 48.236564,22.554891 C 48.366444,22.684771 54.317874,34.942836 61.461964,49.795039 C 69.806354,67.142589 74.451454,77.439399 74.451874,78.589779 C 74.452374,79.951419 78.578724,86.834289 91.671844,107.31314 L 108.89117,134.24576 L 126.09108,154.009 C 142.99912,173.43689 148.38681,179.69821 149.91754,181.69902 C 150.64793,182.65372 149.91954,182.70581 136.3506,182.66932 L 122.01183,182.63072 L 102.94769,162.58723 L 102.94769,162.58727 L 102.94769,162.58727 z M 136.60695,159.21897 C 126.24415,147.25811 117.85397,137.3835 117.96208,137.27539 C 118.17065,137.06682 133.81771,135.48171 135.95474,135.45265 C 136.91217,135.43965 140.38007,139.278 150.39291,151.43318 C 157.64086,160.23189 163.75585,167.73344 163.98177,168.1033 C 164.20769,168.47316 163.24314,171.13734 161.83832,174.02369 C 160.4335,176.91005 159.19933,179.52006 159.09571,179.82371 C 158.99211,180.12736 158.12907,180.50859 157.17786,180.6709 C 155.5189,180.95395 154.68014,180.07927 136.60695,159.21897 L 136.60695,159.21897 z M 63.409384,43.455153 C 48.780014,12.735054 49.137244,15.525157 59.833384,15.525157 L 66.289214,15.525157 L 75.846894,34.318398 C 81.103614,44.654682 85.404574,53.395769 85.404574,53.743039 C 85.404574,54.492339 76.599364,69.711569 76.180694,69.685909 C 76.022154,69.676209 70.275064,57.872349 63.409384,43.455153 L 63.409384,43.455153 z" />
</svg>
