<?xml version="1.0" encoding="UTF-8" standalone="no"?>
<!-- Created with Inkscape (http://www.inkscape.org/) -->

<svg
   width="32mm"
   height="32mm"
   viewBox="0 0 32 32"
   version="1.1"
   id="svg1"
   xml:space="preserve"
   inkscape:version="1.3.1 (9b9bdc1480, 2023-11-25, custom)"
   sodipodi:docname="man_made_lighthouse.svg"
   xmlns:inkscape="http://www.inkscape.org/namespaces/inkscape"
   xmlns:sodipodi="http://sodipodi.sourceforge.net/DTD/sodipodi-0.dtd"
   xmlns="http://www.w3.org/2000/svg"
   xmlns:svg="http://www.w3.org/2000/svg"><sodipodi:namedview
     id="namedview1"
     pagecolor="#ffffff"
     bordercolor="#666666"
     borderopacity="1.0"
     inkscape:showpageshadow="2"
     inkscape:pageopacity="0.0"
     inkscape:pagecheckerboard="0"
     inkscape:deskcolor="#d1d1d1"
     inkscape:document-units="mm"
     inkscape:zoom="3.5420314"
     inkscape:cx="57.876392"
     inkscape:cy="60.276145"
     inkscape:window-width="1318"
     inkscape:window-height="719"
     inkscape:window-x="48"
     inkscape:window-y="27"
     inkscape:window-maximized="1"
     inkscape:current-layer="layer1" /><defs
     id="defs1"><inkscape:path-effect
       effect="fillet_chamfer"
       id="path-effect7"
       is_visible="true"
       lpeversion="1"
       nodesatellites_param="F,0,0,1,0,0.23282763,0,1 @ F,0,0,1,0,0.12027518,0,1 @ F,0,0,1,0,0,0,1 @ F,0,0,1,0,0,0,1 @ F,0,0,1,0,0,0,1 @ F,0,0,1,0,0.18452639,0,1 @ F,0,0,1,0,0.16735283,0,1 @ F,0,0,1,0,0.1476085,0,1 @ F,0,0,1,0,0.50664538,0,1 @ F,0,0,1,0,0,0,1 @ F,0,0,1,0,0,0,1 @ F,0,0,1,0,0,0,1 @ F,0,0,1,0,0,0,1"
       radius="0"
       unit="px"
       method="auto"
       mode="F"
       chamfer_steps="1"
       flexible="false"
       use_knot_distance="true"
       apply_no_radius="true"
       apply_with_radius="true"
       only_selected="false"
       hide_knots="false" /><inkscape:path-effect
       effect="fillet_chamfer"
       id="path-effect3"
       is_visible="true"
       lpeversion="1"
       nodesatellites_param="F,0,0,1,0,0,0,1 @ F,0,0,1,0,0,0,1 @ F,0,0,1,0,0,0,1 @ F,0,0,1,0,0.31829965,0,1 @ F,0,0,1,0,0.41325569,0,1"
       radius="0"
       unit="px"
       method="auto"
       mode="F"
       chamfer_steps="1"
       flexible="false"
       use_knot_distance="true"
       apply_no_radius="true"
       apply_with_radius="true"
       only_selected="false"
       hide_knots="false" /><filter
       inkscape:collect="always"
       style="color-interpolation-filters:sRGB"
       id="filter10"
       x="-0.044510055"
       y="-0.098866666"
       width="1.0890201"
       height="1.1977333"><feGaussianBlur
         inkscape:collect="always"
         stdDeviation="0.19842376"
         id="feGaussianBlur10" /></filter><inkscape:path-effect
       effect="fillet_chamfer"
       id="path-effect3-9"
       is_visible="true"
       lpeversion="1"
       nodesatellites_param="F,0,0,1,0,0,0,1 @ F,0,0,1,0,0,0,1 @ F,0,0,1,0,0,0,1 @ F,0,0,1,0,0.31829965,0,1 @ F,0,0,1,0,0.41325569,0,1"
       radius="0"
       unit="px"
       method="auto"
       mode="F"
       chamfer_steps="1"
       flexible="false"
       use_knot_distance="true"
       apply_no_radius="true"
       apply_with_radius="true"
       only_selected="false"
       hide_knots="false" /><inkscape:path-effect
       effect="fillet_chamfer"
       id="path-effect7-3"
       is_visible="true"
       lpeversion="1"
       nodesatellites_param="F,0,0,1,0,0.23282763,0,1 @ F,0,0,1,0,0.12027518,0,1 @ F,0,0,1,0,0,0,1 @ F,0,0,1,0,0,0,1 @ F,0,0,1,0,0,0,1 @ F,0,0,1,0,0.18452639,0,1 @ F,0,0,1,0,0.16735283,0,1 @ F,0,0,1,0,0.1476085,0,1 @ F,0,0,1,0,0.50664538,0,1 @ F,0,0,1,0,0,0,1 @ F,0,0,1,0,0,0,1 @ F,0,0,1,0,0,0,1 @ F,0,0,1,0,0,0,1"
       radius="0"
       unit="px"
       method="auto"
       mode="F"
       chamfer_steps="1"
       flexible="false"
       use_knot_distance="true"
       apply_no_radius="true"
       apply_with_radius="true"
       only_selected="false"
       hide_knots="false" /><filter
       inkscape:collect="always"
       style="color-interpolation-filters:sRGB"
       id="filter10-6"
       x="-0.044510055"
       y="-0.098866666"
       width="1.0890201"
       height="1.1977333"><feGaussianBlur
         inkscape:collect="always"
         stdDeviation="0.19842376"
         id="feGaussianBlur10-0" /></filter></defs><g
     inkscape:label="Livello 1"
     inkscape:groupmode="layer"
     id="layer1"><path
       id="path1"
       style="fill:#0092da;fill-opacity:1;stroke:none;stroke-width:0.264583px;stroke-linecap:butt;stroke-linejoin:miter;stroke-opacity:1"
       d="m -13.438709,3.8109118 v 7.9685062 h 0.765845 V 4.5762398 h 3.0292717 2.714563 v 7.2031782 h 0.765845 V 3.8109118 h -3.480408 z m -2.895431,7.9690232 3.165182,3.464388 -0.748275,11.262878 -1.81901,1.819011 h 5.9117837 0.04806 5.911784 l -1.819012,-1.819011 -0.748274,-11.262878 3.165181,-3.464388 h -6.50968 -0.04806 z" /><path
       id="path3"
       style="fill:#0092da;fill-opacity:1;stroke:#360000;stroke-width:0;stroke-linecap:butt;stroke-linejoin:miter;stroke-dasharray:none;stroke-opacity:1"
       d="M 11.370882 9.4149292 A 0.084097065 0.084097065 0 0 0 11.336776 9.5761597 L 12.107271 9.9099894 C 12.268573 9.9798797 12.395495 10.178874 12.387874 10.354407 C 12.212212 14.400838 10.9068 17.006541 9.8572795 29.790946 L 12.383223 29.790946 L 12.383223 27.661877 C 12.383223 27.145413 12.799002 26.729635 13.315466 26.729635 C 13.83193 26.729635 14.247709 27.145413 14.247709 27.661877 L 14.247709 29.790946 L 15.811438 29.790946 L 16.000057 29.790946 L 21.954215 29.790946 C 20.904696 17.006541 19.599283 14.400838 19.423621 10.354407 C 19.416 10.178874 19.542922 9.9798797 19.704224 9.9099894 L 20.474719 9.5761597 A 0.084097065 0.084097065 0 0 0 20.440613 9.4149292 L 15.906006 9.4485189 L 11.370882 9.4149292 z " /><path
       id="rect5"
       style="fill:#0092da;fill-opacity:1;stroke:none;stroke-width:0.1;stroke-linecap:round;stroke-linejoin:round;stroke-dasharray:none;stroke-opacity:1;paint-order:markers stroke fill"
       d="M 14.16296 2.3058024 A 0.23282763 0.23282763 0 0 0 13.929899 2.5388631 L 13.929899 3.183785 A 0.12027518 0.12027518 0 0 1 13.809493 3.3041911 L 13.012126 3.3041911 C 12.846721 3.3103011 12.809878 3.379656 12.809037 3.4576701 C 12.808364 3.52009 12.751237 3.5461663 12.702067 3.5450033 L 12.387874 3.5450033 A 0.18452639 0.18452639 0 0 0 12.203389 3.7294881 L 12.203389 4.5025675 A 0.16735283 0.16735283 0 0 0 12.370821 4.6699992 L 12.985771 4.6699992 A 0.1476085 0.1476085 0 0 0 13.133565 4.5222046 A 0.4886302 0.4886302 0 0 1 13.639994 4.0524658 L 15.831592 4.0524658 L 15.979903 4.0524658 L 18.171501 4.0524658 A 0.4886302 0.4886302 0 0 1 18.67793 4.5222046 A 0.1476085 0.1476085 0 0 0 18.825724 4.6699992 L 19.440674 4.6699992 A 0.16735283 0.16735283 0 0 0 19.608105 4.5025675 L 19.608105 3.7294881 A 0.18452639 0.18452639 0 0 0 19.423621 3.5450033 L 19.109428 3.5450033 C 19.060258 3.5461663 19.003131 3.52009 19.002458 3.4576701 C 19.001617 3.379656 18.964774 3.3103011 18.799369 3.3041911 L 18.002002 3.3041911 A 0.12027518 0.12027518 0 0 1 17.881596 3.183785 L 17.881596 2.5383464 A 0.23282763 0.23282763 0 0 0 17.649052 2.3058024 L 15.983521 2.3058024 L 15.827974 2.3058024 L 14.16296 2.3058024 z " /><path
       id="path8"
       style="fill:#0091d9;fill-opacity:0.501961;stroke:none;stroke-width:0.265;stroke-linecap:butt;stroke-linejoin:miter;stroke-dasharray:none;stroke-opacity:1;filter:url(#filter10)"
       d="M 2.1145996,4.4746623 2.0489705,9.2914225 12.722221,7.8723877 c -0.09868,-0.3129052 -0.151929,-0.6445366 -0.151929,-0.9875366 0,-0.370695 0.06326,-0.7280595 0.177767,-1.0629842 z"
       sodipodi:nodetypes="cccscc" /><g
       id="path4"><path
         style="color:#000000;fill:#0092da;stroke-linecap:round;stroke-linejoin:round;-inkscape-stroke:none;paint-order:markers stroke fill"
         d="m 17.751318,6.8839335 a 1.8406249,1.8406249 0 0 1 -1.840625,1.840625 1.8406249,1.8406249 0 0 1 -1.840625,-1.840625 1.8406249,1.8406249 0 0 1 1.840625,-1.8406249 1.8406249,1.8406249 0 0 1 1.840625,1.8406249 z"
         id="path10" /></g><path
       id="path8-8"
       style="fill:#0091d9;fill-opacity:0.501961;stroke:none;stroke-width:0.265;stroke-linecap:butt;stroke-linejoin:miter;stroke-dasharray:none;stroke-opacity:1;filter:url(#filter10-6)"
       d="M 2.1145996,4.4746623 2.0489705,9.2914225 12.722221,7.8723877 c -0.09868,-0.3129052 -0.151929,-0.6445366 -0.151929,-0.9875366 0,-0.370695 0.06326,-0.7280595 0.177767,-1.0629842 z"
       sodipodi:nodetypes="cccscc"
       transform="matrix(-1,0,0,1,31.811595,-1.3995457e-4)" /><g
       id="path4-7"
       transform="matrix(-1,0,0,1,31.811595,-1.3995457e-4)" /></g></svg>
