<?xml version="1.0" encoding="UTF-8" standalone="no"?>
<!-- Created with Inkscape (http://www.inkscape.org/) -->

<svg
   width="32mm"
   height="32mm"
   viewBox="0 0 32 32"
   version="1.1"
   id="svg1"
   xml:space="preserve"
   inkscape:version="1.3.1 (9b9bdc1480, 2023-11-25, custom)"
   sodipodi:docname="man_made_survey_point.svg"
   xmlns:inkscape="http://www.inkscape.org/namespaces/inkscape"
   xmlns:sodipodi="http://sodipodi.sourceforge.net/DTD/sodipodi-0.dtd"
   xmlns="http://www.w3.org/2000/svg"
   xmlns:svg="http://www.w3.org/2000/svg"><sodipodi:namedview
     id="namedview1"
     pagecolor="#ffffff"
     bordercolor="#666666"
     borderopacity="1.0"
     inkscape:showpageshadow="2"
     inkscape:pageopacity="0.0"
     inkscape:pagecheckerboard="0"
     inkscape:deskcolor="#d1d1d1"
     inkscape:document-units="mm"
     inkscape:zoom="0.72643022"
     inkscape:cx="134.90628"
     inkscape:cy="114.94566"
     inkscape:window-width="1318"
     inkscape:window-height="719"
     inkscape:window-x="48"
     inkscape:window-y="27"
     inkscape:window-maximized="1"
     inkscape:current-layer="layer1" /><defs
     id="defs1"><inkscape:path-effect
       effect="fillet_chamfer"
       id="path-effect7"
       is_visible="true"
       lpeversion="1"
       nodesatellites_param="F,0,0,1,0,0.23282763,0,1 @ F,0,0,1,0,0.12027518,0,1 @ F,0,0,1,0,0,0,1 @ F,0,0,1,0,0,0,1 @ F,0,0,1,0,0,0,1 @ F,0,0,1,0,0.18452639,0,1 @ F,0,0,1,0,0.16735283,0,1 @ F,0,0,1,0,0.1476085,0,1 @ F,0,0,1,0,0.50664538,0,1 @ F,0,0,1,0,0,0,1 @ F,0,0,1,0,0,0,1 @ F,0,0,1,0,0,0,1 @ F,0,0,1,0,0,0,1"
       radius="0"
       unit="px"
       method="auto"
       mode="F"
       chamfer_steps="1"
       flexible="false"
       use_knot_distance="true"
       apply_no_radius="true"
       apply_with_radius="true"
       only_selected="false"
       hide_knots="false" /><inkscape:path-effect
       effect="fillet_chamfer"
       id="path-effect3"
       is_visible="true"
       lpeversion="1"
       nodesatellites_param="F,0,0,1,0,0,0,1 @ F,0,0,1,0,0,0,1 @ F,0,0,1,0,0,0,1 @ F,0,0,1,0,0.31829965,0,1 @ F,0,0,1,0,0.41325569,0,1"
       radius="0"
       unit="px"
       method="auto"
       mode="F"
       chamfer_steps="1"
       flexible="false"
       use_knot_distance="true"
       apply_no_radius="true"
       apply_with_radius="true"
       only_selected="false"
       hide_knots="false" /><inkscape:path-effect
       effect="fillet_chamfer"
       id="path-effect3-9"
       is_visible="true"
       lpeversion="1"
       nodesatellites_param="F,0,0,1,0,0,0,1 @ F,0,0,1,0,0,0,1 @ F,0,0,1,0,0,0,1 @ F,0,0,1,0,0.31829965,0,1 @ F,0,0,1,0,0.41325569,0,1"
       radius="0"
       unit="px"
       method="auto"
       mode="F"
       chamfer_steps="1"
       flexible="false"
       use_knot_distance="true"
       apply_no_radius="true"
       apply_with_radius="true"
       only_selected="false"
       hide_knots="false" /><inkscape:path-effect
       effect="fillet_chamfer"
       id="path-effect7-3"
       is_visible="true"
       lpeversion="1"
       nodesatellites_param="F,0,0,1,0,0.23282763,0,1 @ F,0,0,1,0,0.12027518,0,1 @ F,0,0,1,0,0,0,1 @ F,0,0,1,0,0,0,1 @ F,0,0,1,0,0,0,1 @ F,0,0,1,0,0.18452639,0,1 @ F,0,0,1,0,0.16735283,0,1 @ F,0,0,1,0,0.1476085,0,1 @ F,0,0,1,0,0.50664538,0,1 @ F,0,0,1,0,0,0,1 @ F,0,0,1,0,0,0,1 @ F,0,0,1,0,0,0,1 @ F,0,0,1,0,0,0,1"
       radius="0"
       unit="px"
       method="auto"
       mode="F"
       chamfer_steps="1"
       flexible="false"
       use_knot_distance="true"
       apply_no_radius="true"
       apply_with_radius="true"
       only_selected="false"
       hide_knots="false" /></defs><g
     inkscape:label="Livello 1"
     inkscape:groupmode="layer"
     id="layer1"><g
       id="path4-7"
       transform="matrix(-1,0,0,1,31.811595,-1.3995457e-4)" /><g
       id="path11-2"
       transform="matrix(-1,0,0,1,-12.965089,-0.07376435)" /><g
       id="g14"
       transform="translate(-0.2851157)"><path
         id="path13"
         style="color:#000000;fill:#8e7409;stroke-linecap:round;-inkscape-stroke:none"
         d="M 12.55 5.5469482 C 12.285647 5.5469482 12.073027 5.7595686 12.073027 6.0239217 C 12.073027 6.2882748 12.285647 6.5008952 12.55 6.5008952 L 14.78759 6.5008952 C 14.738974 6.6044825 14.711625 6.7172704 14.711625 6.8357585 L 14.711625 9.0728312 L 7.2381797 23.669873 A 0.69999999 0.69999999 0 0 0 7.5430706 24.611418 A 0.69999999 0.69999999 0 0 0 8.4846152 24.306527 L 15.33691 10.923364 C 15.415334 10.953825 15.498611 10.977118 15.585991 10.99106 L 15.585991 27.984338 A 0.69999999 0.69999999 0 0 0 16.285173 28.683521 A 0.69999999 0.69999999 0 0 0 16.984355 27.984338 L 16.984355 10.99106 C 17.071501 10.977155 17.154677 10.954219 17.232918 10.923881 L 24.08573 24.306527 A 0.69999999 0.69999999 0 0 0 25.027275 24.611418 A 0.69999999 0.69999999 0 0 0 25.332166 23.669873 L 17.85872 9.0728312 L 17.85872 6.8357585 C 17.85872 6.7172704 17.831372 6.6044825 17.782756 6.5008952 L 20.019828 6.5008952 C 20.284181 6.5008952 20.497319 6.2882748 20.497319 6.0239217 C 20.497319 5.7595686 20.284181 5.5469482 20.019828 5.5469482 L 12.55 5.5469482 z " /></g></g></svg>
