<?xml version="1.0" encoding="UTF-8" standalone="no"?>
<!-- Created with Inkscape (http://www.inkscape.org/) -->

<svg
   width="32"
   height="32"
   viewBox="0 0 32 32.000001"
   id="svg2"
   version="1.1"
   inkscape:version="1.3.1 (9b9bdc1480, 2023-11-25, custom)"
   sodipodi:docname="railway_train_station.svg"
   xml:space="preserve"
   xmlns:inkscape="http://www.inkscape.org/namespaces/inkscape"
   xmlns:sodipodi="http://sodipodi.sourceforge.net/DTD/sodipodi-0.dtd"
   xmlns="http://www.w3.org/2000/svg"
   xmlns:svg="http://www.w3.org/2000/svg"
   xmlns:rdf="http://www.w3.org/1999/02/22-rdf-syntax-ns#"
   xmlns:cc="http://creativecommons.org/ns#"
   xmlns:dc="http://purl.org/dc/elements/1.1/"><defs
     id="defs4"><inkscape:path-effect
       effect="fillet_chamfer"
       id="path-effect13"
       is_visible="true"
       lpeversion="1"
       nodesatellites_param="F,0,0,1,0,0,0,1 @ F,0,0,1,0,0,0,1 @ F,0,0,1,0,0,0,1 @ F,0,0,1,0,0,0,1 @ F,0,0,1,0,0,0,1 @ F,0,0,1,0,0,0,1 @ F,0,0,1,0,0,0,1 @ F,0,0,1,0,0,0,1 @ F,0,0,1,0,0,0,1 @ F,0,0,1,0,0,0,1 @ F,0,0,1,0,0,0,1 @ F,0,0,1,0,0,0,1 @ F,0,0,1,0,0,0,1 @ F,0,0,1,0,0,0,1 @ F,0,0,1,0,0,0,1 @ F,0,0,1,0,0,0,1 @ F,0,0,1,0,0,0,1 @ F,0,0,1,0,0,0,1 @ F,0,0,1,0,0,0,1 @ F,0,0,1,0,0,0,1 @ F,0,0,1,0,0,0,1 @ F,0,0,1,0,0,0,1 @ F,0,0,1,0,0,0,1 @ F,0,0,1,0,0,0,1 @ F,0,0,1,0,0,0,1 @ F,0,0,1,0,0,0,1 @ F,0,0,1,0,0,0,1 @ F,0,0,1,0,0,0,1 @ F,0,0,1,0,0,0,1 @ F,0,0,1,0,0,0,1 @ F,0,0,1,0,0,0,1 @ F,0,0,1,0,0,0,1 @ F,0,0,1,0,0,0,1 @ F,0,0,1,0,0,0,1 @ F,0,0,1,0,0,0,1 @ F,0,0,1,0,0,0,1 @ F,0,0,1,0,0,0,1 @ F,0,0,1,0,0,0,1 @ F,0,0,1,0,0,0,1 @ F,0,0,1,0,0,0,1 @ F,0,0,1,0,0,0,1"
       radius="0"
       unit="px"
       method="auto"
       mode="F"
       chamfer_steps="1"
       flexible="false"
       use_knot_distance="true"
       apply_no_radius="true"
       apply_with_radius="true"
       only_selected="false"
       hide_knots="false" /><inkscape:path-effect
       effect="fillet_chamfer"
       id="path-effect12"
       is_visible="true"
       lpeversion="1"
       nodesatellites_param="F,0,0,1,0,0,0,1 @ F,0,0,1,0,0,0,1 @ F,0,0,1,0,0,0,1 @ F,0,0,1,0,0,0,1 @ F,0,0,1,0,0,0,1 @ F,0,0,1,0,0,0,1 @ F,0,0,1,0,0,0,1 @ F,0,0,1,0,0,0,1 @ F,0,0,1,0,0,0,1 @ F,0,0,1,0,0,0,1 @ F,0,0,1,0,0,0,1 | F,0,0,1,0,0,0,1 @ F,0,0,1,0,0,0,1 @ F,0,0,1,0,0,0,1 @ F,0,0,1,0,0,0,1 @ F,0,0,1,0,0,0,1 @ F,0,0,1,0,0,0,1 @ F,0,0,1,0,0,0,1 @ F,0,0,1,0,0,0,1 @ F,0,0,1,0,0,0,1 | F,0,0,1,0,1.0714599,0,1 @ F,0,0,1,0,0.32501445,0,1 @ F,0,0,1,0,0.52505136,0,1 @ F,0,0,1,0,0.34488101,0,1 | F,0,0,1,0,0.37035257,0,1 @ F,0,0,1,0,0.3961333,0,1 @ F,0,0,1,0,0.41541052,0,1 @ F,0,0,1,0,0.34638595,0,1 | F,0,0,1,0,0,0,1 @ F,0,0,1,0,0,0,1 @ F,0,0,1,0,0,0,1 @ F,0,0,1,0,0,0,1 | F,0,0,1,0,0,0,1 @ F,0,0,1,0,0,0,1 @ F,0,0,1,0,0,0,1 @ F,0,0,1,0,0,0,1 | F,0,0,1,0,0.38002097,0,1 @ F,0,0,1,0,0.19335585,0,1 @ F,0,0,1,0,0.36547336,0,1 @ F,0,0,1,0,0.31023223,0,1 | F,0,0,1,0,0.31490615,0,1 @ F,0,0,1,0,0.17982706,0,1 @ F,0,0,1,0,0.25333788,0,1 @ F,0,0,1,0,0.29452287,0,1 | F,0,0,1,0,0.19809338,0,1 @ F,0,0,1,0,0.13171657,0,1 @ F,0,0,1,0,0.19913686,0,1 @ F,0,0,1,0,0.20182932,0,1 | F,0,0,1,0,0.18220144,0,1 @ F,0,0,1,0,0.18866345,0,1 @ F,0,0,1,0,0.18291735,0,1 @ F,0,0,1,0,0.18793134,0,1"
       radius="0"
       unit="px"
       method="auto"
       mode="F"
       chamfer_steps="1"
       flexible="false"
       use_knot_distance="true"
       apply_no_radius="true"
       apply_with_radius="true"
       only_selected="false"
       hide_knots="false" /><inkscape:path-effect
       effect="fillet_chamfer"
       id="path-effect4"
       is_visible="true"
       lpeversion="1"
       nodesatellites_param="F,0,0,1,0,1.2157455,0,1 @ F,0,0,1,0,0.87364157,0,1 @ F,0,0,1,0,0.76994398,0,1 @ F,0,0,1,0,1.2564157,0,1"
       radius="0"
       unit="px"
       method="auto"
       mode="F"
       chamfer_steps="1"
       flexible="false"
       use_knot_distance="true"
       apply_no_radius="true"
       apply_with_radius="true"
       only_selected="false"
       hide_knots="false" /><inkscape:path-effect
       effect="fillet_chamfer"
       id="path-effect3"
       is_visible="true"
       lpeversion="1"
       nodesatellites_param="F,0,0,1,0,0,0,1 @ F,0,0,1,0,0.81522384,0,1 @ F,0,0,1,0,0,0,1 @ F,0,0,1,0,0,0,1 @ F,0,0,1,0,0,0,1 @ F,0,0,1,0,0,0,1 @ F,0,0,1,0,0,0,1 @ F,0,0,1,0,3.2404649,0,1 @ F,0,0,1,0,0,0,1"
       radius="0"
       unit="px"
       method="auto"
       mode="F"
       chamfer_steps="1"
       flexible="false"
       use_knot_distance="true"
       apply_no_radius="true"
       apply_with_radius="true"
       only_selected="false"
       hide_knots="false" /></defs><sodipodi:namedview
     id="base"
     pagecolor="#ffffff"
     bordercolor="#666666"
     borderopacity="1.0"
     inkscape:pageopacity="0.0"
     inkscape:pageshadow="2"
     inkscape:zoom="7.4660509"
     inkscape:cx="18.483667"
     inkscape:cy="21.09549"
     inkscape:document-units="px"
     inkscape:current-layer="layer1"
     showgrid="false"
     inkscape:window-width="1318"
     inkscape:window-height="719"
     inkscape:window-x="48"
     inkscape:window-y="27"
     inkscape:window-maximized="1"
     units="px"
     inkscape:showpageshadow="2"
     inkscape:pagecheckerboard="0"
     inkscape:deskcolor="#d1d1d1" /><metadata
     id="metadata7"><rdf:RDF><cc:Work
         rdf:about=""><dc:format>image/svg+xml</dc:format><dc:type
           rdf:resource="http://purl.org/dc/dcmitype/StillImage" /></cc:Work></rdf:RDF></metadata><g
     inkscape:label="Calque 1"
     inkscape:groupmode="layer"
     id="layer1"
     transform="translate(0,-1020.3622)"><circle
       id="path2"
       style="fill:#333333;stroke:#333333"
       cx="4.6894412"
       cy="1024.6318"
       r="0" /><g
       id="g13"
       transform="translate(0.04896201,0.61960052)"
       style="fill:#0092da;fill-opacity:1;stroke:none"><path
         id="path3"
         style="fill:#0092da;fill-opacity:1;stroke:none;stroke-width:0.2;stroke-linecap:butt;stroke-linejoin:miter;stroke-dasharray:none;stroke-opacity:1"
         d="m 5.1074219,1024.7645 c -0.5153365,0.061 -0.9391539,0.3049 -1.1386719,1 l -1.0898438,3.459 c -0.6450892,2.0484 -0.9679516,4.1846 -0.9570312,6.3321 l 0.027344,5.3398 c -0.066381,1.13 1.8067491,2.8731 2.9296874,2.8731 19.8489666,0 16.5101636,-0.055 25.1015626,-0.055 v -5.1875 c -8.762019,-1.7585 -11.511805,-7.1154 -14.052735,-12.5977 l -0.550781,-0.5762 c -0.360854,-0.3761 -0.85966,-0.5884 -1.380859,-0.5879 z m 0.2441406,1.5098 8.2773435,0.062 c 0.425216,0 0.915318,0.3194 1.066406,0.7168 0.373696,0.9828 0.634184,2.0512 0.826172,3.1719 0.117153,0.6838 -0.378373,1.2441 -1.072265,1.2441 H 4.1328125 c -0.6714328,0 -1.081381,-0.5279 -0.9199219,-1.1797 0.2622735,-1.0586 0.5322132,-2.1203 0.9394532,-3.2129 0.1684538,-0.4519 0.7167371,-0.8063 1.1992187,-0.8027 z m 12.2972775,5.2998 c 0.572593,0.8492 1.162194,1.6427 1.800605,2.2817 0.126807,0.1269 0.234149,0.3707 0.234149,0.5502 v 3.7182 c 0,0.29 -0.203977,0.4082 -0.452758,0.2592 -0.621365,-0.3721 -1.251045,-0.7872 -1.914535,-1.3657 -0.14311,-0.1247 -0.255754,-0.3841 -0.255754,-0.5746 v -4.693 c 0,-0.5918 0.257487,-0.6667 0.588293,-0.176 z m 2.922558,3.2861 1.379568,1.0373 a 0.79349496,0.79349496 63.470438 0 1 0.316612,0.6342 v 2.837 a 0.27740267,0.27740267 146.26581 0 1 -0.383701,0.2562 l -1.292447,-0.5362 a 0.51820524,0.51820524 56.291728 0 1 -0.319633,-0.4791 l 0.0033,-3.6016 a 0.18509896,0.18509896 153.49636 0 1 0.296342,-0.1478 z m -16.0772574,1.0333 c 0.7643105,-7e-4 1.3843882,0.6185 1.3847656,1.3828 6.729e-4,0.7651 -0.6197128,1.3854 -1.3847656,1.3847 -0.76429,-4e-4 -1.3834845,-0.6204 -1.3828125,-1.3847 3.773e-4,-0.7635 0.6192646,-1.3824 1.3828125,-1.3828 z m 8.7480474,0.053 c 0.763548,4e-4 1.382435,0.6193 1.382812,1.3828 7.27e-4,0.7643 -0.618483,1.3844 -1.382812,1.3848 -0.765092,7e-4 -1.385494,-0.6197 -1.384766,-1.3848 3.77e-4,-0.7643 0.620455,-1.3835 1.384766,-1.3828 z m 9.952711,0.727 c 0.500698,0.2755 0.823854,0.4591 1.405859,0.6945 0.09831,0.04 0.178039,0.1573 0.177422,0.2641 l -0.01435,2.484 c -0.0012,0.2019 -0.162417,0.3327 -0.359549,0.2893 -0.468358,-0.103 -0.784134,-0.188 -1.235267,-0.3282 -0.163698,-0.051 -0.296433,-0.2325 -0.297008,-0.4038 l -0.0094,-2.802 c -7.04e-4,-0.2099 0.148427,-0.2991 0.332296,-0.1979 z m 2.223548,1.0169 1.233177,0.4555 a 0.25812228,0.25812228 55.13608 0 1 0.168688,0.2421 v 2.2095 a 0.21335118,0.21335118 139.89724 0 1 -0.249645,0.2102 l -1.15739,-0.1998 a 0.34972292,0.34972292 49.897237 0 1 -0.29023,-0.3446 v -2.3671 a 0.2193869,0.2193869 145.13608 0 1 0.2954,-0.2058 z m 1.884833,0.6312 0.951899,0.2428 a 0.16951562,0.16951562 52.152175 0 1 0.127633,0.1642 v 2.1047 a 0.17805165,0.17805165 138.19956 0 1 -0.197896,0.1769 l -0.873016,-0.098 a 0.22573032,0.22573032 48.19956 0 1 -0.200572,-0.2243 l 0,-2.2172 a 0.15392199,0.15392199 142.15217 0 1 0.191952,-0.1492 z m 1.442064,0.3635 0.725691,0.1775 a 0.24036794,0.24036794 51.87183 0 1 0.183262,0.2335 v 1.853 a 0.16962587,0.16962587 137.15913 0 1 -0.182398,0.1691 l -0.716142,-0.054 a 0.2026572,0.2026572 47.159126 0 1 -0.187398,-0.2021 l 0,-2.0381 a 0.14300889,0.14300889 141.87183 0 1 0.176985,-0.1389 z"
         inkscape:path-effect="#path-effect12"
         inkscape:original-d="m 5.1074219,1024.7645 c -0.5153365,0.061 -0.9391539,0.3049 -1.1386719,1 l -1.0898438,3.459 a 20.72921,20.72921 0 0 0 -0.9570312,6.3321 l 0.027344,5.3398 c -0.066381,1.13 1.8067491,2.8731 2.9296874,2.8731 19.8489666,0 16.5101636,-0.055 25.1015626,-0.055 v -5.1875 c -8.762019,-1.7585 -11.511805,-7.1154 -14.052735,-12.5977 l -0.550781,-0.5762 a 1.9109647,1.9109647 0 0 0 -1.380859,-0.5879 z m 0.2441406,1.5098 8.2773435,0.062 c 0.425216,0 0.915318,0.3194 1.066406,0.7168 0.373696,0.9828 0.634184,2.0512 0.826172,3.1719 0.117153,0.6838 -0.378373,1.2441 -1.072265,1.2441 H 4.1328125 c -0.6714328,0 -1.081381,-0.5279 -0.9199219,-1.1797 0.2622735,-1.0586 0.5322132,-2.1203 0.9394532,-3.2129 0.1684538,-0.4519 0.7167371,-0.8063 1.1992187,-0.8027 z m 11.7089845,4.4043 c 0.827965,1.2845 1.66889,2.5224 2.623047,3.4024 v 4.5683 c -0.848483,-0.4912 -1.700924,-1.0083 -2.623047,-1.8613 z m 3.214844,3.959 1.992187,1.498 v 3.6485 l -1.996094,-0.8281 z m -15.7812504,1.2559 a 1.3834838,1.3834838 0 0 1 1.3847656,1.3828 1.3834838,1.3834838 0 0 1 -1.3847656,1.3847 1.3834838,1.3834838 0 0 1 -1.3828125,-1.3847 1.3834838,1.3834838 0 0 1 1.3828125,-1.3828 z m 8.7480474,0.053 a 1.3834838,1.3834838 0 0 1 1.382812,1.3828 1.3834838,1.3834838 0 0 1 -1.382812,1.3848 1.3834838,1.3834838 0 0 1 -1.384766,-1.3848 1.3834838,1.3834838 0 0 1 1.384766,-1.3828 z m 9.61914,0.5449 c 0.770654,0.4159 1.088555,0.6256 1.917969,0.9473 l -0.01758,3.0429 c -0.798971,-0.1661 -1.142962,-0.2593 -1.888672,-0.498 z m 2.261719,1.0899 1.697265,0.6269 v 2.6426 l -1.697265,-0.293 z m 1.988281,0.6914 1.271484,0.3242 v 2.4355 l -1.271484,-0.1426 z m 1.457031,0.3691 1.085938,0.2656 v 2.2246 l -1.085938,-0.082 z" /><path
         id="rect11"
         style="fill:#0092da;fill-opacity:1;stroke:none;stroke-width:0.2;stroke-linecap:round;stroke-linejoin:round;stroke-dasharray:none;stroke-opacity:0.94902;paint-order:markers stroke fill"
         d="m 20.220703,1044.2587 c -0.02552,0 -0.04981,0.01 -0.07227,0.014 h -0.310547 -1.232422 -0.185547 -1.582031 -1.81836 c -0.05364,0 -0.103718,0.013 -0.148437,0.035 -0.03394,-0.01 -0.06851,-0.016 -0.105469,-0.016 h -2.253906 c -0.225698,0 -0.408203,0.1805 -0.408203,0.4062 v 0.918 H 7.2539062 v -0.918 c 0,-0.2257 -0.1825052,-0.4062 -0.4082031,-0.4062 H 4.5917969 c -0.2256979,0 -0.40625,0.1805 -0.40625,0.4062 v 0.918 H 2.2285156 c -0.2256977,0 -0.40625,0.1825 -0.40625,0.4082 v 0.3906 c 0,0.2257 0.1805523,0.4063 0.40625,0.4063 H 17.59375 c 0.225698,0 0.40625,-0.1806 0.40625,-0.4063 v -0.1074 l 1.119141,0.01 c 0.162017,0 0.294901,-0.1159 0.322265,-0.2696 h 0.960938 c 0.123817,0 0.229868,-0.078 0.269531,-0.1875 h 0.947266 c 0.142071,0 0.253906,-0.1139 0.253906,-0.2559 v -0.1055 h 0.855469 c 0.111377,0 0.199218,-0.088 0.199218,-0.1992 v -0.1601 l 6.861713,-0.5176 c 0.135584,-0.01 0.197341,-0.074 0.197341,-0.1652 v -0.037 c 0,-0.091 -0.08795,-0.1645 -0.197341,-0.1643 l -8.38515,0.01 c -0.02238,-0.01 -0.04674,-0.014 -0.07227,-0.014 z"
         sodipodi:nodetypes="scccccscsssccsssscssssssccccccsccscsssscss"
         inkscape:path-effect="#path-effect13"
         inkscape:original-d="m 20.220703,1044.2587 c -0.02552,0 -0.04981,0.01 -0.07227,0.014 h -0.310547 -1.232422 -0.185547 -1.582031 -1.81836 c -0.05364,0 -0.103718,0.013 -0.148437,0.035 -0.03394,-0.01 -0.06851,-0.016 -0.105469,-0.016 h -2.253906 c -0.225698,0 -0.408203,0.1805 -0.408203,0.4062 v 0.918 H 7.2539062 v -0.918 c 0,-0.2257 -0.1825052,-0.4062 -0.4082031,-0.4062 H 4.5917969 c -0.2256979,0 -0.40625,0.1805 -0.40625,0.4062 v 0.918 H 2.2285156 c -0.2256977,0 -0.40625,0.1825 -0.40625,0.4082 v 0.3906 c 0,0.2257 0.1805523,0.4063 0.40625,0.4063 H 17.59375 c 0.225698,0 0.40625,-0.1806 0.40625,-0.4063 v -0.1074 l 1.119141,0.01 c 0.162017,0 0.294901,-0.1159 0.322265,-0.2696 h 0.960938 c 0.123817,0 0.229868,-0.078 0.269531,-0.1875 h 0.947266 c 0.142071,0 0.253906,-0.1139 0.253906,-0.2559 v -0.1055 h 0.855469 c 0.111377,0 0.199218,-0.088 0.199218,-0.1992 v -0.1601 l 6.861713,-0.5176 c 0.135584,-0.01 0.197341,-0.074 0.197341,-0.1652 v -0.037 c 0,-0.091 -0.08795,-0.1645 -0.197341,-0.1643 l -8.38515,0.01 c -0.02238,-0.01 -0.04674,-0.014 -0.07227,-0.014 z" /></g></g></svg>
