<?xml version="1.0" encoding="UTF-8" standalone="no"?>
<!-- Created with Inkscape (http://www.inkscape.org/) -->

<svg
   width="32"
   height="32"
   viewBox="0 0 32 32.000001"
   id="svg2"
   version="1.1"
   inkscape:version="1.3.1 (9b9bdc1480, 2023-11-25, custom)"
   sodipodi:docname="railway_subway_entrance.32.svg"
   xml:space="preserve"
   xmlns:inkscape="http://www.inkscape.org/namespaces/inkscape"
   xmlns:sodipodi="http://sodipodi.sourceforge.net/DTD/sodipodi-0.dtd"
   xmlns="http://www.w3.org/2000/svg"
   xmlns:svg="http://www.w3.org/2000/svg"
   xmlns:rdf="http://www.w3.org/1999/02/22-rdf-syntax-ns#"
   xmlns:cc="http://creativecommons.org/ns#"
   xmlns:dc="http://purl.org/dc/elements/1.1/"><defs
     id="defs4" /><sodipodi:namedview
     id="base"
     pagecolor="#ffffff"
     bordercolor="#666666"
     borderopacity="1.0"
     inkscape:pageopacity="0.0"
     inkscape:pageshadow="2"
     inkscape:zoom="3.959798"
     inkscape:cx="1.767767"
     inkscape:cy="-13.005714"
     inkscape:document-units="px"
     inkscape:current-layer="layer1"
     showgrid="false"
     inkscape:window-width="1318"
     inkscape:window-height="719"
     inkscape:window-x="48"
     inkscape:window-y="27"
     inkscape:window-maximized="1"
     units="px"
     inkscape:showpageshadow="2"
     inkscape:pagecheckerboard="0"
     inkscape:deskcolor="#d1d1d1"
     showguides="false" /><metadata
     id="metadata7"><rdf:RDF><cc:Work
         rdf:about=""><dc:format>image/svg+xml</dc:format><dc:type
           rdf:resource="http://purl.org/dc/dcmitype/StillImage" /></cc:Work></rdf:RDF></metadata><g
     inkscape:label="Calque 1"
     inkscape:groupmode="layer"
     id="layer1"
     transform="translate(0,-1020.3622)"><g
       id="g3"
       transform="translate(29.851542,-0.28283764)"><g
         id="g2"
         transform="translate(-29.991716,0.1890019)"><path
           id="rect1"
           style="fill:#0092da;fill-opacity:1;stroke:none;stroke-width:0;stroke-linecap:round;stroke-linejoin:round;stroke-opacity:1;paint-order:markers stroke fill"
           d="m 12.566688,1030.702 c -2.7690957,0 -4.6823746,1.9961 -4.6823746,5.0757 v 3.5415 c 0,2.3975 1.3509212,4.4297 3.2558596,5.2129 -0.0045,0.087 -0.0078,0.1773 -0.0078,0.2715 0,0.6142 0.102149,1.1093 0.228515,1.1093 h 0.652344 c 0.124444,0 0.225473,-0.4808 0.228516,-1.082 0.209852,0.03 0.423302,0.047 0.640625,0.047 h 6.515625 c 0.21798,0 0.432115,-0.017 0.642578,-0.047 0.003,0.6012 0.102118,1.082 0.226562,1.082 h 0.654297 c 0.126366,0 0.226563,-0.4951 0.226563,-1.1093 0,-0.094 -0.0034,-0.1843 -0.0078,-0.2715 1.904938,-0.7832 3.25586,-2.8154 3.25586,-5.2129 v -3.5415 c 0,-3.0796 -1.91328,-5.0757 -4.682374,-5.0757 z m -2.00464,1.4258 h 11.158203 c 0.476854,0 0.861328,1.5435 0.861329,3.4629 v 1.1367 c 0,1.9194 -0.384475,3.4648 -0.861329,3.4648 H 10.562048 c -0.476854,0 -0.8613284,-1.5454 -0.8613284,-3.4648 v -1.1367 c 0,-1.9194 0.3844744,-3.4629 0.8613284,-3.4629 z m 0.958985,8.5351 c 0.720283,10e-5 1.304264,0.585 1.304687,1.3067 6.25e-4,0.7225 -0.583663,1.3085 -1.304687,1.3086 -0.721024,-10e-5 -1.305313,-0.5861 -1.304688,-1.3086 4.23e-4,-0.7217 0.584405,-1.3066 1.304688,-1.3067 z m 9.240234,0 c 0.720283,10e-5 1.304264,0.585 1.304687,1.3067 6.25e-4,0.7225 -0.583663,1.3085 -1.304687,1.3086 -0.721787,10e-4 -1.307267,-0.5854 -1.306641,-1.3086 4.22e-4,-0.7225 0.585595,-1.3077 1.306641,-1.3067 z"
           sodipodi:nodetypes="ssscssscsscssscssssssssssssscccccccccc" /><circle
           style="fill:none;fill-opacity:1;stroke:#0091da;stroke-width:1.72576;stroke-linecap:round;stroke-linejoin:round;stroke-dasharray:none;stroke-opacity:0.380392;paint-order:markers stroke fill"
           id="path2"
           cx="16.140173"
           cy="1038.3075"
           r="11.338598" /></g><path
         style="fill:none;stroke:#0091d9;stroke-width:2.3;stroke-linecap:butt;stroke-linejoin:miter;stroke-dasharray:none;stroke-opacity:0.690196"
         d="M -26.298837,1023.7421 H -1.4042479"
         id="path3" /></g></g></svg>
