<?xml version="1.0" encoding="UTF-8" standalone="no"?>
<!-- Created with Inkscape (http://www.inkscape.org/) -->

<svg
   width="32"
   height="32"
   viewBox="0 0 32 32.000001"
   id="svg2"
   version="1.1"
   inkscape:version="1.3.1 (9b9bdc1480, 2023-11-25, custom)"
   sodipodi:docname="railway_tram_stop.svg"
   xml:space="preserve"
   xmlns:inkscape="http://www.inkscape.org/namespaces/inkscape"
   xmlns:sodipodi="http://sodipodi.sourceforge.net/DTD/sodipodi-0.dtd"
   xmlns="http://www.w3.org/2000/svg"
   xmlns:svg="http://www.w3.org/2000/svg"
   xmlns:rdf="http://www.w3.org/1999/02/22-rdf-syntax-ns#"
   xmlns:cc="http://creativecommons.org/ns#"
   xmlns:dc="http://purl.org/dc/elements/1.1/"><defs
     id="defs4"><inkscape:path-effect
       effect="fillet_chamfer"
       id="path-effect14"
       is_visible="true"
       lpeversion="1"
       nodesatellites_param="F,0,0,1,0,0.69167553,0,1 @ F,0,0,1,0,0.77102447,0,1 @ F,0,0,1,0,0.77395666,0,1 @ F,0,0,1,0,0.80542345,0,1 @ F,0,0,1,0,0.61263567,0,1"
       radius="0"
       unit="px"
       method="auto"
       mode="F"
       chamfer_steps="1"
       flexible="false"
       use_knot_distance="true"
       apply_no_radius="true"
       apply_with_radius="true"
       only_selected="false"
       hide_knots="false" /><inkscape:path-effect
       effect="fillet_chamfer"
       id="path-effect13"
       is_visible="true"
       lpeversion="1"
       nodesatellites_param="F,0,0,1,0,0,0,1 @ F,0,0,1,0,0,0,1 @ F,0,0,1,0,0,0,1 @ F,0,0,1,0,0,0,1 @ F,0,0,1,0,0,0,1 @ F,0,0,1,0,0,0,1 @ F,0,0,1,0,0,0,1 @ F,0,0,1,0,0,0,1 @ F,0,0,1,0,0,0,1 @ F,0,0,1,0,0,0,1 @ F,0,0,1,0,0,0,1 @ F,0,0,1,0,0,0,1 @ F,0,0,1,0,0,0,1 @ F,0,0,1,0,0,0,1 @ F,0,0,1,0,0,0,1 @ F,0,0,1,0,0,0,1 @ F,0,0,1,0,0,0,1 @ F,0,0,1,0,0,0,1 @ F,0,0,1,0,0,0,1 @ F,0,0,1,0,0,0,1 @ F,0,0,1,0,0,0,1 @ F,0,0,1,0,0,0,1 @ F,0,0,1,0,0,0,1 @ F,0,0,1,0,0,0,1 @ F,0,0,1,0,0,0,1 @ F,0,0,1,0,0,0,1 @ F,0,0,1,0,0,0,1 @ F,0,0,1,0,0,0,1 @ F,0,0,1,0,0,0,1 @ F,0,0,1,0,0,0,1 @ F,0,0,1,0,0,0,1 @ F,0,0,1,0,0,0,1 @ F,0,0,1,0,0,0,1 @ F,0,0,1,0,0,0,1 @ F,0,0,1,0,0,0,1 @ F,0,0,1,0,0,0,1 @ F,0,0,1,0,0,0,1 @ F,0,0,1,0,0,0,1 @ F,0,0,1,0,0,0,1 @ F,0,0,1,0,0,0,1 @ F,0,0,1,0,0,0,1"
       radius="0"
       unit="px"
       method="auto"
       mode="F"
       chamfer_steps="1"
       flexible="false"
       use_knot_distance="true"
       apply_no_radius="true"
       apply_with_radius="true"
       only_selected="false"
       hide_knots="false" /><inkscape:path-effect
       effect="fillet_chamfer"
       id="path-effect12"
       is_visible="true"
       lpeversion="1"
       nodesatellites_param="F,0,0,1,0,0,0,1 @ F,0,0,1,0,0,0,1 @ F,0,0,1,0,0,0,1 @ F,0,0,1,0,0,0,1 @ F,0,0,1,0,0,0,1 @ F,0,0,1,0,0,0,1 @ F,0,0,1,0,0,0,1 @ F,0,0,1,0,0,0,1 @ F,0,0,1,0,0,0,1 @ F,0,0,1,0,0,0,1 @ F,0,0,1,0,0,0,1 | F,0,0,1,0,0,0,1 @ F,0,0,1,0,0,0,1 @ F,0,0,1,0,0,0,1 @ F,0,0,1,0,0,0,1 @ F,0,0,1,0,0,0,1 @ F,0,0,1,0,0,0,1 @ F,0,0,1,0,0,0,1 @ F,0,0,1,0,0,0,1 @ F,0,0,1,0,0,0,1 | F,0,0,1,0,1.0714599,0,1 @ F,0,0,1,0,0.32501445,0,1 @ F,0,0,1,0,0.52505136,0,1 @ F,0,0,1,0,0.34488101,0,1 | F,0,0,1,0,0.37035257,0,1 @ F,0,0,1,0,0.3961333,0,1 @ F,0,0,1,0,0.41541052,0,1 @ F,0,0,1,0,0.34638595,0,1 | F,0,0,1,0,0,0,1 @ F,0,0,1,0,0,0,1 @ F,0,0,1,0,0,0,1 @ F,0,0,1,0,0,0,1 | F,0,0,1,0,0,0,1 @ F,0,0,1,0,0,0,1 @ F,0,0,1,0,0,0,1 @ F,0,0,1,0,0,0,1 | F,0,0,1,0,0.38002097,0,1 @ F,0,0,1,0,0.19335585,0,1 @ F,0,0,1,0,0.36547336,0,1 @ F,0,0,1,0,0.31023223,0,1 | F,0,0,1,0,0.31490615,0,1 @ F,0,0,1,0,0.17982706,0,1 @ F,0,0,1,0,0.25333788,0,1 @ F,0,0,1,0,0.29452287,0,1 | F,0,0,1,0,0.19809338,0,1 @ F,0,0,1,0,0.13171657,0,1 @ F,0,0,1,0,0.19913686,0,1 @ F,0,0,1,0,0.20182932,0,1 | F,0,0,1,0,0.18220144,0,1 @ F,0,0,1,0,0.18866345,0,1 @ F,0,0,1,0,0.18291735,0,1 @ F,0,0,1,0,0.18793134,0,1"
       radius="0"
       unit="px"
       method="auto"
       mode="F"
       chamfer_steps="1"
       flexible="false"
       use_knot_distance="true"
       apply_no_radius="true"
       apply_with_radius="true"
       only_selected="false"
       hide_knots="false" /><inkscape:path-effect
       effect="fillet_chamfer"
       id="path-effect4"
       is_visible="true"
       lpeversion="1"
       nodesatellites_param="F,0,0,1,0,1.2157455,0,1 @ F,0,0,1,0,0.87364157,0,1 @ F,0,0,1,0,0.76994398,0,1 @ F,0,0,1,0,1.2564157,0,1"
       radius="0"
       unit="px"
       method="auto"
       mode="F"
       chamfer_steps="1"
       flexible="false"
       use_knot_distance="true"
       apply_no_radius="true"
       apply_with_radius="true"
       only_selected="false"
       hide_knots="false" /><inkscape:path-effect
       effect="fillet_chamfer"
       id="path-effect3"
       is_visible="true"
       lpeversion="1"
       nodesatellites_param="F,0,0,1,0,0,0,1 @ F,0,0,1,0,0.81522384,0,1 @ F,0,0,1,0,0,0,1 @ F,0,0,1,0,0,0,1 @ F,0,0,1,0,0,0,1 @ F,0,0,1,0,0,0,1 @ F,0,0,1,0,0,0,1 @ F,0,0,1,0,3.2404649,0,1 @ F,0,0,1,0,0,0,1"
       radius="0"
       unit="px"
       method="auto"
       mode="F"
       chamfer_steps="1"
       flexible="false"
       use_knot_distance="true"
       apply_no_radius="true"
       apply_with_radius="true"
       only_selected="false"
       hide_knots="false" /></defs><sodipodi:namedview
     id="base"
     pagecolor="#ffffff"
     bordercolor="#666666"
     borderopacity="1.0"
     inkscape:pageopacity="0.0"
     inkscape:pageshadow="2"
     inkscape:zoom="5.2792952"
     inkscape:cx="17.615988"
     inkscape:cy="16.195344"
     inkscape:document-units="px"
     inkscape:current-layer="layer1"
     showgrid="false"
     inkscape:window-width="1318"
     inkscape:window-height="719"
     inkscape:window-x="48"
     inkscape:window-y="27"
     inkscape:window-maximized="1"
     units="px"
     inkscape:showpageshadow="2"
     inkscape:pagecheckerboard="0"
     inkscape:deskcolor="#d1d1d1" /><metadata
     id="metadata7"><rdf:RDF><cc:Work
         rdf:about=""><dc:format>image/svg+xml</dc:format><dc:type
           rdf:resource="http://purl.org/dc/dcmitype/StillImage" /></cc:Work></rdf:RDF></metadata><g
     inkscape:label="Calque 1"
     inkscape:groupmode="layer"
     id="layer1"
     transform="translate(0,-1020.3622)"><circle
       id="path2"
       style="fill:#333333;stroke:#333333"
       cx="4.6894412"
       cy="1024.6318"
       r="0" /><path
       id="path13"
       style="fill:#0092da;fill-opacity:1;stroke:none;stroke-width:0.4;stroke-linecap:butt;stroke-linejoin:miter;stroke-dasharray:none;stroke-opacity:1"
       d="m 18.259901,1022.391 a 0.24426593,0.24426593 0 0 0 -0.128906,0.037 l -6.798829,4.1953 a 0.24426593,0.24426593 0 0 0 0,0.4141 l 6.529297,4.0293 H 7.2696661 v 1.9414 l -3.8144532,7.2969 c 0.1522705,2.1919 -0.3785415,5.8135 1.640625,6.3614 l 23.1718751,0.01 v -15.6055 h -9.609375 l 6.529297,-4.0293 a 0.24426593,0.24426593 0 0 0 0,-0.4141 l -6.798828,-4.1994 a 0.24426593,0.24426593 0 0 0 -0.128906,-0.037 z m 0,0.5332 6.335937,3.9063 -6.335937,3.9062 -6.335938,-3.9062 z m -6.230469,10.3613 h 3.091797 c 0.476851,0 0.861328,0.2757 0.861328,0.6192 v 10.9355 c 0,0.3436 -0.384477,0.6211 -0.861328,0.6211 h -3.091797 c -0.476854,0 -0.861328,-0.2775 -0.861328,-0.6211 v -10.9355 c 0,-0.3435 0.384474,-0.6192 0.861328,-0.6192 z m 5.824219,0.094 h 8.392578 c 0.476852,0 0.861328,0.2756 0.861328,0.6191 v 6.2618 c 0,0.3435 -0.384476,0.621 -0.861328,0.621 h -8.392578 c -0.476855,0 -0.859375,-0.2775 -0.859375,-0.621 v -6.2618 c 0,-0.3435 0.38252,-0.6191 0.859375,-0.6191 z m -9.0136724,0.037 v 0 l 0.5214843,0.016 c 0.3842432,0.011 0.6905111,0.3246 0.6914061,0.709 v 5.4199 c 2.63e-4,0.4262 -0.3452943,0.7718 -0.7714842,0.7715 H 6.9278692 c -0.4358194,-7e-4 -0.79676,-0.3387 -0.8261719,-0.7735 l -0.074219,-1.0488 c -0.036348,-0.5256 0.07386,-1.0509 0.3183593,-1.5176 l 1.5976563,-3.0508 c 0.1735072,-0.3326 0.521444,-0.5373 0.8964844,-0.5273 z" /><path
       id="rect14"
       style="fill:#0092da;fill-opacity:1;stroke:none;stroke-width:1.8;stroke-linecap:round;stroke-linejoin:round;stroke-dasharray:none;stroke-opacity:0.94902;paint-order:markers stroke fill"
       d="m 15.123182,1047.2602 c -0.191826,0 -0.366965,0.045 -0.509766,0.121 0.252252,0.7864 0.199143,1.628 -0.121093,2.3633 0.157001,0.1221 0.380539,0.1992 0.630859,0.1992 h 3.644531 c 0.216575,0 0.413355,-0.058 0.564453,-0.1523 -0.336698,-0.7572 -0.38748,-1.6289 -0.111328,-2.4394 -0.131585,-0.059 -0.286537,-0.092 -0.453125,-0.092 z" /><g
       id="path14"
       transform="translate(-0.2361933,0.08351348)"><path
         style="color:#000000;fill:#0092da;stroke-linecap:round;stroke-linejoin:round;-inkscape-stroke:none;paint-order:markers stroke fill"
         d="m 14.067771,1047.2099 a 2.6441302,2.6441302 0 0 1 -0.760333,3.18 2.6441302,2.6441302 0 0 1 -3.26963,0.01 2.6441302,2.6441302 0 0 1 -0.7793412,-3.1754"
         id="path16" /></g><g
       id="path14-7"
       transform="translate(-0.2361933,0.08351348)"><path
         style="color:#000000;fill:#0092da;stroke-linecap:round;stroke-linejoin:round;-inkscape-stroke:none;paint-order:markers stroke fill"
         d="m 25.023212,1047.2355 a 2.6441302,2.6441302 0 0 1 -0.760332,3.1801 2.6441302,2.6441302 0 0 1 -3.26963,0.01 2.6441302,2.6441302 0 0 1 -0.779342,-3.1754"
         id="path18" /></g></g></svg>
