<?xml version="1.0" encoding="UTF-8" standalone="no"?>
<!-- Created with Inkscape (http://www.inkscape.org/) -->

<svg
   width="32"
   height="32"
   viewBox="0 0 32 32.000001"
   id="svg2"
   version="1.1"
   inkscape:version="1.3.1 (9b9bdc1480, 2023-11-25, custom)"
   sodipodi:docname="shop_anime.svg"
   xml:space="preserve"
   xmlns:inkscape="http://www.inkscape.org/namespaces/inkscape"
   xmlns:sodipodi="http://sodipodi.sourceforge.net/DTD/sodipodi-0.dtd"
   xmlns="http://www.w3.org/2000/svg"
   xmlns:svg="http://www.w3.org/2000/svg"
   xmlns:rdf="http://www.w3.org/1999/02/22-rdf-syntax-ns#"
   xmlns:cc="http://creativecommons.org/ns#"
   xmlns:dc="http://purl.org/dc/elements/1.1/"><defs
     id="defs4"><inkscape:path-effect
       effect="fillet_chamfer"
       id="path-effect23"
       is_visible="true"
       lpeversion="1"
       nodesatellites_param="F,0,0,1,0,0,0,1 @ F,0,0,1,0,0.43057958,0,1 @ F,0,0,1,0,0.44218541,0,1 @ F,0,0,1,0,0,0,1 @ F,0,0,1,0,0,0,1 @ F,0,0,1,0,0,0,1 @ F,0,0,1,0,0,0,1 @ F,0,0,1,0,0,0,1 @ F,0,0,1,0,0,0,1 @ F,0,0,1,0,0,0,1"
       radius="0"
       unit="px"
       method="auto"
       mode="F"
       chamfer_steps="1"
       flexible="false"
       use_knot_distance="true"
       apply_no_radius="true"
       apply_with_radius="true"
       only_selected="false"
       hide_knots="false" /><inkscape:path-effect
       effect="fillet_chamfer"
       id="path-effect22"
       is_visible="true"
       lpeversion="1"
       nodesatellites_param="F,0,0,1,0,0,0,1 @ F,0,0,1,0,0,0,1 @ F,0,0,1,0,0,0,1 @ F,0,0,1,0,0.94651484,0,1 @ F,0,0,1,0,0.8500894,0,1 @ F,0,0,1,0,0.68193774,0,1 @ F,0,0,1,0,0.68193774,0,1 @ F,0,1,1,0,0.33620128,0,1 @ F,0,1,1,0,0.33620128,0,1 @ F,0,0,1,0,0.86386139,0,1 @ F,0,0,1,0,0.94385482,0,1 @ F,0,0,1,0,0,0,1 @ F,0,0,1,0,0,0,1"
       radius="0"
       unit="px"
       method="auto"
       mode="F"
       chamfer_steps="1"
       flexible="false"
       use_knot_distance="true"
       apply_no_radius="true"
       apply_with_radius="true"
       only_selected="false"
       hide_knots="false" /><inkscape:path-effect
       effect="fillet_chamfer"
       id="path-effect14"
       is_visible="true"
       lpeversion="1"
       nodesatellites_param="F,0,0,1,0,0.69167553,0,1 @ F,0,0,1,0,0.77102447,0,1 @ F,0,0,1,0,0.77395666,0,1 @ F,0,0,1,0,0.80542345,0,1 @ F,0,0,1,0,0.61263567,0,1"
       radius="0"
       unit="px"
       method="auto"
       mode="F"
       chamfer_steps="1"
       flexible="false"
       use_knot_distance="true"
       apply_no_radius="true"
       apply_with_radius="true"
       only_selected="false"
       hide_knots="false" /><inkscape:path-effect
       effect="fillet_chamfer"
       id="path-effect13"
       is_visible="true"
       lpeversion="1"
       nodesatellites_param="F,0,0,1,0,0,0,1 @ F,0,0,1,0,0,0,1 @ F,0,0,1,0,0,0,1 @ F,0,0,1,0,0,0,1 @ F,0,0,1,0,0,0,1 @ F,0,0,1,0,0,0,1 @ F,0,0,1,0,0,0,1 @ F,0,0,1,0,0,0,1 @ F,0,0,1,0,0,0,1 @ F,0,0,1,0,0,0,1 @ F,0,0,1,0,0,0,1 @ F,0,0,1,0,0,0,1 @ F,0,0,1,0,0,0,1 @ F,0,0,1,0,0,0,1 @ F,0,0,1,0,0,0,1 @ F,0,0,1,0,0,0,1 @ F,0,0,1,0,0,0,1 @ F,0,0,1,0,0,0,1 @ F,0,0,1,0,0,0,1 @ F,0,0,1,0,0,0,1 @ F,0,0,1,0,0,0,1 @ F,0,0,1,0,0,0,1 @ F,0,0,1,0,0,0,1 @ F,0,0,1,0,0,0,1 @ F,0,0,1,0,0,0,1 @ F,0,0,1,0,0,0,1 @ F,0,0,1,0,0,0,1 @ F,0,0,1,0,0,0,1 @ F,0,0,1,0,0,0,1 @ F,0,0,1,0,0,0,1 @ F,0,0,1,0,0,0,1 @ F,0,0,1,0,0,0,1 @ F,0,0,1,0,0,0,1 @ F,0,0,1,0,0,0,1 @ F,0,0,1,0,0,0,1 @ F,0,0,1,0,0,0,1 @ F,0,0,1,0,0,0,1 @ F,0,0,1,0,0,0,1 @ F,0,0,1,0,0,0,1 @ F,0,0,1,0,0,0,1 @ F,0,0,1,0,0,0,1"
       radius="0"
       unit="px"
       method="auto"
       mode="F"
       chamfer_steps="1"
       flexible="false"
       use_knot_distance="true"
       apply_no_radius="true"
       apply_with_radius="true"
       only_selected="false"
       hide_knots="false" /><inkscape:path-effect
       effect="fillet_chamfer"
       id="path-effect12"
       is_visible="true"
       lpeversion="1"
       nodesatellites_param="F,0,0,1,0,0,0,1 @ F,0,0,1,0,0,0,1 @ F,0,0,1,0,0,0,1 @ F,0,0,1,0,0,0,1 @ F,0,0,1,0,0,0,1 @ F,0,0,1,0,0,0,1 @ F,0,0,1,0,0,0,1 @ F,0,0,1,0,0,0,1 @ F,0,0,1,0,0,0,1 @ F,0,0,1,0,0,0,1 @ F,0,0,1,0,0,0,1 | F,0,0,1,0,0,0,1 @ F,0,0,1,0,0,0,1 @ F,0,0,1,0,0,0,1 @ F,0,0,1,0,0,0,1 @ F,0,0,1,0,0,0,1 @ F,0,0,1,0,0,0,1 @ F,0,0,1,0,0,0,1 @ F,0,0,1,0,0,0,1 @ F,0,0,1,0,0,0,1 | F,0,0,1,0,1.0714599,0,1 @ F,0,0,1,0,0.32501445,0,1 @ F,0,0,1,0,0.52505136,0,1 @ F,0,0,1,0,0.34488101,0,1 | F,0,0,1,0,0.37035257,0,1 @ F,0,0,1,0,0.3961333,0,1 @ F,0,0,1,0,0.41541052,0,1 @ F,0,0,1,0,0.34638595,0,1 | F,0,0,1,0,0,0,1 @ F,0,0,1,0,0,0,1 @ F,0,0,1,0,0,0,1 @ F,0,0,1,0,0,0,1 | F,0,0,1,0,0,0,1 @ F,0,0,1,0,0,0,1 @ F,0,0,1,0,0,0,1 @ F,0,0,1,0,0,0,1 | F,0,0,1,0,0.38002097,0,1 @ F,0,0,1,0,0.19335585,0,1 @ F,0,0,1,0,0.36547336,0,1 @ F,0,0,1,0,0.31023223,0,1 | F,0,0,1,0,0.31490615,0,1 @ F,0,0,1,0,0.17982706,0,1 @ F,0,0,1,0,0.25333788,0,1 @ F,0,0,1,0,0.29452287,0,1 | F,0,0,1,0,0.19809338,0,1 @ F,0,0,1,0,0.13171657,0,1 @ F,0,0,1,0,0.19913686,0,1 @ F,0,0,1,0,0.20182932,0,1 | F,0,0,1,0,0.18220144,0,1 @ F,0,0,1,0,0.18866345,0,1 @ F,0,0,1,0,0.18291735,0,1 @ F,0,0,1,0,0.18793134,0,1"
       radius="0"
       unit="px"
       method="auto"
       mode="F"
       chamfer_steps="1"
       flexible="false"
       use_knot_distance="true"
       apply_no_radius="true"
       apply_with_radius="true"
       only_selected="false"
       hide_knots="false" /><inkscape:path-effect
       effect="fillet_chamfer"
       id="path-effect4"
       is_visible="true"
       lpeversion="1"
       nodesatellites_param="F,0,0,1,0,1.2157455,0,1 @ F,0,0,1,0,0.87364157,0,1 @ F,0,0,1,0,0.76994398,0,1 @ F,0,0,1,0,1.2564157,0,1"
       radius="0"
       unit="px"
       method="auto"
       mode="F"
       chamfer_steps="1"
       flexible="false"
       use_knot_distance="true"
       apply_no_radius="true"
       apply_with_radius="true"
       only_selected="false"
       hide_knots="false" /><inkscape:path-effect
       effect="fillet_chamfer"
       id="path-effect3"
       is_visible="true"
       lpeversion="1"
       nodesatellites_param="F,0,0,1,0,0,0,1 @ F,0,0,1,0,0.81522384,0,1 @ F,0,0,1,0,0,0,1 @ F,0,0,1,0,0,0,1 @ F,0,0,1,0,0,0,1 @ F,0,0,1,0,0,0,1 @ F,0,0,1,0,0,0,1 @ F,0,0,1,0,3.2404649,0,1 @ F,0,0,1,0,0,0,1"
       radius="0"
       unit="px"
       method="auto"
       mode="F"
       chamfer_steps="1"
       flexible="false"
       use_knot_distance="true"
       apply_no_radius="true"
       apply_with_radius="true"
       only_selected="false"
       hide_knots="false" /></defs><sodipodi:namedview
     id="base"
     pagecolor="#ffffff"
     bordercolor="#666666"
     borderopacity="1.0"
     inkscape:pageopacity="0.0"
     inkscape:pageshadow="2"
     inkscape:zoom="7.4660509"
     inkscape:cx="10.58123"
     inkscape:cy="13.86275"
     inkscape:document-units="px"
     inkscape:current-layer="layer1"
     showgrid="false"
     inkscape:window-width="1318"
     inkscape:window-height="719"
     inkscape:window-x="48"
     inkscape:window-y="27"
     inkscape:window-maximized="1"
     units="px"
     inkscape:showpageshadow="2"
     inkscape:pagecheckerboard="0"
     inkscape:deskcolor="#d1d1d1"
     showguides="false" /><metadata
     id="metadata7"><rdf:RDF><cc:Work
         rdf:about=""><dc:format>image/svg+xml</dc:format><dc:type
           rdf:resource="http://purl.org/dc/dcmitype/StillImage" /></cc:Work></rdf:RDF></metadata><g
     inkscape:label="Calque 1"
     inkscape:groupmode="layer"
     id="layer1"
     transform="translate(0,-1020.3622)"><circle
       id="path2"
       style="fill:#333333;stroke:#333333"
       cx="4.6894412"
       cy="1024.6318"
       r="0" /><path
       style="fill:none;stroke:#000000;stroke-width:1.5;stroke-linecap:butt;stroke-linejoin:miter;stroke-dasharray:none;stroke-opacity:0"
       d="m 3.9629118,1036.7901 c 10.8708272,-10.7363 17.9263552,-6.5758 24.2518992,0.1858 -6.445518,7.0061 -15.155894,10.3904 -24.2518992,-0.1858 z"
       id="path23-5"
       sodipodi:nodetypes="ccc" /><path
       id="rect23"
       style="fill:#ac39ac;fill-opacity:1;stroke:#000000;stroke-width:1.5;stroke-linecap:round;stroke-linejoin:round;stroke-dasharray:none;stroke-opacity:0;paint-order:markers stroke fill"
       d="m 16.040039,1026.503 c -0.440678,0 -0.796875,0.3542 -0.796875,0.7949 v 2.1602 c -0.142791,0.011 -0.285859,0.017 -0.427735,0.033 -0.587349,0.067 -1.163164,0.1852 -1.730468,0.3398 l -1.050782,-1.8613 c -0.216632,-0.3838 -0.70023,-0.5174 -1.083984,-0.3008 h -0.0078 c -0.383755,0.2167 -0.517414,0.7003 -0.300782,1.084 l 0.904297,1.6016 c -2.8350994,1.1698 -5.4593486,3.3316 -8.0644529,5.9004 l -0.4824219,0.4746 0.4257813,0.5293 c 1.1191858,1.3911 2.3108542,2.6005 3.5585937,3.6113 l -1.1347656,1.1289 c -0.3125962,0.3106 -0.314519,0.8124 -0.00391,1.125 l 0.00586,0.01 c 0.3106129,0.3126 0.8124039,0.3145 1.125,0 l 1.3066406,-1.2969 c 2.1931118,1.4852 4.5377748,2.3559 6.9609378,2.5059 v 1.0839 c 0,0.4407 0.356197,0.795 0.796875,0.795 h 0.03516 c 0.440678,0 0.794922,-0.3543 0.794922,-0.795 v -1.0957 c 2.305391,-0.1704 4.630144,-1.0023 6.90039,-2.5488 l 1.398438,1.3887 c 0.312596,0.3106 0.814387,0.3087 1.125,0 l 0.0059,-0.01 c 0.310613,-0.3126 0.308691,-0.8144 -0.0039,-1.125 l -1.232422,-1.2246 c 1.193308,-0.9659 2.368169,-2.1259 3.511719,-3.5019 l 0.425781,-0.5118 -0.458984,-0.4824 c -1.247046,-1.3163 -2.456598,-2.4181 -3.634766,-3.3359 l 1.332031,-1.3223 c 0.312597,-0.3106 0.31452,-0.8124 0.0039,-1.125 l -0.0078,-0.01 c -0.310613,-0.3125 -0.812403,-0.3145 -1.125,0 l -1.511718,1.502 c -1.034613,-0.6962 -2.045569,-1.2413 -3.033204,-1.6504 l 0.917969,-1.6269 c 0.216633,-0.3838 0.08102,-0.8674 -0.302734,-1.084 h -0.0078 c -0.383754,-0.2167 -0.867352,-0.083 -1.083984,0.3007 l -1.0625,1.8809 c -0.739041,-0.2046 -1.46547,-0.33 -2.181641,-0.3848 v -2.1621 c 0,-0.4407 -0.356197,-0.7949 -0.796875,-0.7949 z m -2.513672,4.7676 a 5.7375894,5.5165467 0 0 0 -3.128906,4.9004 5.7375894,5.5165467 0 0 0 5.736328,5.5176 5.7375894,5.5165467 0 0 0 5.738281,-5.5176 5.7375894,5.5165467 0 0 0 -2.869141,-4.7617 c 2.3848,0.7643 4.988651,2.4764 7.921875,5.455 -3.788327,4.3236 -7.678844,6.1597 -11.384765,6.002 -3.676333,-0.1564 -7.2689438,-2.287 -10.4433595,-6.0059 2.8173393,-2.7014 5.5730425,-4.7981 8.4296875,-5.5898 z m 4.896484,0.7344 a 0.58883637,0.58883637 0 0 1 0.587891,0.5898 0.58883637,0.58883637 0 0 1 -0.587891,0.5879 0.58883637,0.58883637 0 0 1 -0.589844,-0.5879 0.58883637,0.58883637 0 0 1 0.589844,-0.5898 z m -4.052734,0.7187 a 2.0173614,2.0173614 0 0 1 2.017578,2.0176 2.0173614,2.0173614 0 0 1 -2.017578,2.0176 2.0173614,2.0173614 0 0 1 -2.017578,-2.0176 2.0173614,2.0173614 0 0 1 2.017578,-2.0176 z m 4.964844,5.3008 a 0.58883637,0.58883637 0 0 1 0.589843,0.5898 0.58883637,0.58883637 0 0 1 -0.589843,0.5879 0.58883637,0.58883637 0 0 1 -0.587891,-0.5879 0.58883637,0.58883637 0 0 1 0.587891,-0.5898 z" /><path
       id="rect23-9-0-1"
       style="fill:#ac39ac;fill-opacity:1;stroke:#000000;stroke-width:1.5;stroke-linecap:round;stroke-linejoin:round;stroke-dasharray:none;stroke-opacity:0;paint-order:markers stroke fill"
       inkscape:transform-center-x="-1.0263649"
       inkscape:transform-center-y="0.87062311"
       d="M 726.34513 730.76498 C 726.48891 730.6212 726.68615 730.53256 726.90649 730.53256 L 726.91478 730.53253 C 727.35545 730.53253 727.71142 730.8862 727.71142 731.32687 L 727.7115 733.5214 C 727.7115 733.96208 727.35645 734.31667 726.91577 734.31667 L 726.90748 734.3167 C 726.46681 734.3167 726.11222 733.96164 726.11222 733.52097 L 726.11076 731.32782 C 726.11076 731.10749 726.20136 730.90876 726.34513 730.76498 z "
       transform="matrix(-0.70485285,0.70935355,0.70935355,0.70485285,0,0)" /></g></svg>
