<?xml version="1.0" encoding="UTF-8" standalone="no"?>
<!-- Created with Inkscape (http://www.inkscape.org/) -->

<svg
   width="32mm"
   height="32mm"
   viewBox="0 0 32 32"
   version="1.1"
   id="svg1"
   xml:space="preserve"
   inkscape:version="1.3.1 (9b9bdc1480, 2023-11-25, custom)"
   sodipodi:docname="shop_kiosk.svg"
   xmlns:inkscape="http://www.inkscape.org/namespaces/inkscape"
   xmlns:sodipodi="http://sodipodi.sourceforge.net/DTD/sodipodi-0.dtd"
   xmlns="http://www.w3.org/2000/svg"
   xmlns:svg="http://www.w3.org/2000/svg"><sodipodi:namedview
     id="namedview1"
     pagecolor="#ffffff"
     bordercolor="#666666"
     borderopacity="1.0"
     inkscape:showpageshadow="2"
     inkscape:pageopacity="0.0"
     inkscape:pagecheckerboard="0"
     inkscape:deskcolor="#d1d1d1"
     inkscape:document-units="mm"
     inkscape:zoom="1.3394531"
     inkscape:cx="28.369787"
     inkscape:cy="65.325168"
     inkscape:window-width="1318"
     inkscape:window-height="719"
     inkscape:window-x="48"
     inkscape:window-y="27"
     inkscape:window-maximized="1"
     inkscape:current-layer="layer1" /><defs
     id="defs1" /><g
     inkscape:label="Livello 1"
     inkscape:groupmode="layer"
     id="layer1"><g
       id="g6"
       transform="translate(0,1.5179138)"><path
         id="rect1"
         style="fill:#ac39ac;fill-opacity:1;stroke-width:0.512498;stroke-linecap:round;stroke-linejoin:bevel;paint-order:markers stroke fill"
         d="M 7.3183595,-0.57648559 V 28.248111 c 6.6100735,1.913435 12.2298055,1.522296 17.3632805,0 V -0.57648559 Z M 8.8867385,1.0311682 H 23.112744 V 14.064481 c -0.628056,0.186245 -1.266382,0.348696 -1.913579,0.490409 v 1.919263 c 0,1.082543 -0.92777,1.935282 -2.006079,1.935282 -1.078309,0 -2.007629,-0.852739 -2.007629,-1.935282 v -1.380278 c -0.773499,0.03739 -1.563681,0.03662 -2.37143,-0.0057 v 1.598869 c -10e-7,1.082543 -0.92932,1.935282 -2.00763,1.935282 -1.07831,0 -2.006079,-0.852739 -2.006079,-1.935282 V 14.547139 C 10.173421,14.411779 9.5362665,14.252501 8.8867385,14.064481 Z"
         sodipodi:nodetypes="cccccccccsssccsssccc" /><ellipse
         style="fill:#ac39ac;fill-opacity:1;stroke:none;stroke-width:0.512498;stroke-linecap:round;stroke-linejoin:bevel;paint-order:markers stroke fill"
         id="path3"
         cx="16"
         cy="4.5242109"
         rx="2.185389"
         ry="2.1530852" /><g
         id="rect2"
         transform="translate(-0.8651205,-1.688848)"
         style="fill:#ac39ac;fill-opacity:1"><path
           style="color:#000000;fill:#ac39ac;fill-opacity:1;stroke-linecap:round;stroke-linejoin:bevel;-inkscape-stroke:none;paint-order:markers stroke fill"
           d="m 15.089001,8.8356364 c -1.499353,0 -2.706811,0.5430573 -2.706811,1.2180136 v 4.968172 3.424597 c 0,0.674956 0.575533,1.218531 1.29036,1.218531 0.714828,0 1.290361,-0.543575 1.290361,-1.218531 v -3.266983 c 0.04209,8.66e-4 0.08351,0.0026 0.12609,0.0026 h 3.539836 c 0.04677,0 0.09232,-0.0021 0.138493,-0.0031 v 3.05511 c 0,0.674956 0.575533,1.21853 1.29036,1.21853 0.714828,0 1.290361,-0.543574 1.290361,-1.21853 v -6.102987 c 0,-0.05439 -0.0052,-0.107213 -0.0124,-0.15968 V 10.05365 c 0,-0.6749563 -1.207459,-1.2180136 -2.706812,-1.2180136 z"
           id="path6" /></g></g></g></svg>
