<?xml version="1.0" encoding="UTF-8" standalone="no"?>
<!-- Created with Inkscape (http://www.inkscape.org/) -->

<svg
   width="32mm"
   height="32mm"
   viewBox="0 0 32 32"
   version="1.1"
   id="svg1"
   xml:space="preserve"
   inkscape:version="1.3.1 (9b9bdc1480, 2023-11-25, custom)"
   sodipodi:docname="shop_supermarket.svg"
   xmlns:inkscape="http://www.inkscape.org/namespaces/inkscape"
   xmlns:sodipodi="http://sodipodi.sourceforge.net/DTD/sodipodi-0.dtd"
   xmlns="http://www.w3.org/2000/svg"
   xmlns:svg="http://www.w3.org/2000/svg"><sodipodi:namedview
     id="namedview1"
     pagecolor="#ffffff"
     bordercolor="#666666"
     borderopacity="1.0"
     inkscape:showpageshadow="2"
     inkscape:pageopacity="0.0"
     inkscape:pagecheckerboard="0"
     inkscape:deskcolor="#d1d1d1"
     inkscape:document-units="mm"
     showguides="true"
     inkscape:zoom="1.4142136"
     inkscape:cx="7.7781746"
     inkscape:cy="76.721086"
     inkscape:window-width="1318"
     inkscape:window-height="719"
     inkscape:window-x="48"
     inkscape:window-y="27"
     inkscape:window-maximized="1"
     inkscape:current-layer="layer1"
     showgrid="false"><sodipodi:guide
       position="21.324843,29.746031"
       orientation="0,-1"
       id="guide8"
       inkscape:locked="false" /><sodipodi:guide
       position="0.45003611,24.90516"
       orientation="1,0"
       id="guide36"
       inkscape:locked="false" /><sodipodi:guide
       position="29.485911,9.5526053"
       orientation="1,0"
       id="guide37"
       inkscape:locked="false" /><sodipodi:guide
       position="8.9802559,1.7851799"
       orientation="0,-1"
       id="guide38"
       inkscape:locked="false" /><sodipodi:guide
       position="12.464872,5.3716509"
       orientation="0,-1"
       id="guide45"
       inkscape:locked="false" /><sodipodi:guide
       position="32.171697,15.989473"
       orientation="0,-1"
       id="guide46"
       inkscape:locked="false" /><sodipodi:guide
       position="4.9261733,27.506351"
       orientation="1,0"
       id="guide47"
       inkscape:locked="false" /><sodipodi:guide
       position="55.115328,-17.201583"
       orientation="1,0"
       id="guide48"
       inkscape:locked="false" /></sodipodi:namedview><defs
     id="defs1"><inkscape:perspective
       sodipodi:type="inkscape:persp3d"
       inkscape:vp_x="-183.11487 : 148.50001 : 1"
       inkscape:vp_y="0 : 1000 : 0"
       inkscape:vp_z="-195.51426 : 148.50001 : 1"
       inkscape:persp3d-origin="-189.31457 : 99.000003 : 1"
       id="perspective10172" /><symbol
       id="Recycling"><title
         id="title7498">Recycling</title><g
         style="stroke:none"
         id="g7512"><path
           style="stroke-width:0.26458332"
           inkscape:connector-curvature="0"
           d="m 14.684375,3.9026042 -1.389063,0.79375 -0.926041,-1.5875 C 12.236979,2.8773437 11.972396,2.7119792 11.608594,2.7119792 H 8.8304687 C 9.0289062,2.9104167 9.0619792,2.9765625 9.1611979,3.1419271 L 10.88099,6.1184896 9.4919271,6.9122396 H 12.93151 Z"
           id="path7500" /><path
           style="stroke-width:0.26458332"
           inkscape:connector-curvature="0"
           d="m 14.254427,12.038542 h 1.389063 c 0.826822,0 1.322916,-0.892969 0.926041,-1.5875 l -1.752864,-3.069167 -2.38125,1.3890625 z"
           id="path7502" /><path
           style="stroke-width:0.26458332"
           inkscape:connector-curvature="0"
           d="m 12.170833,17.065625 v -1.5875 h 1.852084 c 0.264583,0 0.529166,-0.132292 0.727604,-0.463021 l 1.389062,-2.38125 C 15.875,12.7 15.775781,12.7 15.610417,12.7 h -3.439584 v -1.5875 l -1.719791,2.976562 z"
           id="path7504" /><path
           style="stroke-width:0.26458332"
           inkscape:connector-curvature="0"
           d="m 5.3578125,12.7 -0.6945313,1.190625 c -0.396875,0.727604 0.099219,1.5875 0.8929688,1.5875 H 9.0619792 V 12.7 Z"
           id="path7506" /><path
           style="stroke-width:0.26458332"
           inkscape:connector-curvature="0"
           d="m 2.0505208,8.4005208 1.3890625,0.79375 -0.9260416,1.5875002 C 2.38125,11.013281 2.38125,11.310937 2.5466146,11.641667 l 1.3559896,2.38125 c 0.066146,-0.264584 0.099219,-0.33073 0.1984375,-0.496094 L 5.8208333,10.55026 7.2098958,11.34401 5.4901042,8.3674479 Z"
           id="path7508" /><path
           style="stroke-width:0.26458332"
           inkscape:connector-curvature="0"
           d="M 9.2604167,4.6302083 8.5989583,3.4395833 c -0.4299479,-0.6945312 -1.4221354,-0.6945312 -1.8190104,0 l -1.7528646,3.0427084 2.38125,1.3890625 z"
           id="path7510" /></g></symbol><inkscape:perspective
       id="perspective8310"
       inkscape:persp3d-origin="372.04724 : 350.7874 : 1"
       inkscape:vp_z="744.09447 : 526.18111 : 1"
       inkscape:vp_y="0 : 1000 : 0"
       inkscape:vp_x="0 : 526.18111 : 1"
       sodipodi:type="inkscape:persp3d" /><inkscape:perspective
       id="perspective5302"
       inkscape:persp3d-origin="372.04724 : 350.7874 : 1"
       inkscape:vp_z="744.09447 : 526.18111 : 1"
       inkscape:vp_y="0 : 1000 : 0"
       inkscape:vp_x="0 : 526.18111 : 1"
       sodipodi:type="inkscape:persp3d" /><symbol
       id="ToiletsMen"><title
         id="title4892">Toilets - Men</title><g
         style="stroke:none"
         id="g4898"><circle
           cx="36"
           cy="9"
           r="5"
           id="circle4894" /><path
           d="m 24,22 v 15.5 a 2.25,2.25 0 0 0 4.5,0 V 23 h 1 v 39.5 a 3,3 0 0 0 6,0 V 40 h 1 v 22.5 a 3,3 0 0 0 6,0 V 23 h 1 v 14.5 a 2.25,2.25 0 0 0 4.5,0 V 22 A 7,7 0 0 0 41,15 H 31 a 7,7 0 0 0 -7,7 z"
           id="path4896"
           inkscape:connector-curvature="0" /></g></symbol><inkscape:perspective
       sodipodi:type="inkscape:persp3d"
       inkscape:vp_x="0 : 100 : 1"
       inkscape:vp_y="0 : 1000 : 0"
       inkscape:vp_z="200 : 100 : 1"
       inkscape:persp3d-origin="100 : 66.666667 : 1"
       id="perspective2879" /></defs><g
     inkscape:label="Livello 1"
     inkscape:groupmode="layer"
     id="layer1"><g
       id="path19" /><g
       id="rect22-0"
       transform="matrix(-1,0,0,1,30.661761,0.23016813)" /><g
       id="rect22-7"
       transform="matrix(-1,0,0,1,30.845845,-1.8811487e-4)" /><g
       id="path26" /><g
       id="path52"
       transform="translate(-38.081357,-6.611757)" /><g
       id="path52-1"
       transform="matrix(-1,0,0,1,21.996584,0)" /><g
       id="path19-0"
       transform="translate(3.6443103,6.1232351)" /><g
       id="rect22-0-8"
       transform="matrix(-1,0,0,1,34.306071,6.3534032)" /><g
       id="rect22-7-5"
       transform="matrix(-1,0,0,1,34.490155,6.123047)" /><g
       id="path26-0"
       transform="translate(3.6443103,6.1232351)" /><g
       id="path52-1-6"
       transform="matrix(-1,0,0,1,25.640894,6.1232351)" /><g
       id="path7-6"
       transform="translate(-27.436615,5.5770687)" /><g
       id="g40-6-7"
       transform="translate(0.115617,-0.13948398)" /><path
       id="path15"
       style="color:#000000;fill:#ac39ac;stroke-linecap:round;stroke-linejoin:bevel;-inkscape-stroke:none;paint-order:markers stroke fill"
       d="m 29.058277,3.8645145 c -0.07533,0.012354 -0.147491,0.039393 -0.21239,0.07958 l -3.240629,2.0081457 c -0.137176,0.085543 -0.232637,0.2242422 -0.26355,0.382922 L 25.041985,7.8585862 3.1425457,7.5986532 2.2655966,9.7018839 4.7207439,19.455811 22.427674,21.840161 v 1.018026 H 7.0529013 c -0.3216229,5.9e-5 -0.5823349,0.260771 -0.5823934,0.582394 0.00703,0.168534 0.086763,0.325747 0.2185913,0.430981 C 5.809047,24.1552 5.167745,24.981786 5.167745,25.953605 c 0,1.204833 0.9846981,2.189531 2.1895305,2.189531 1.2048324,0 2.1874634,-0.984698 2.1874634,-2.189531 0,-0.834733 -0.47175,-1.562604 -1.162203,-1.931148 H 19.725513 c -0.691583,0.368947 -1.164787,1.098067 -1.164787,1.933216 0,1.204829 0.984698,2.187463 2.189531,2.187463 1.204833,0 2.189014,-0.982634 2.189014,-2.187463 0,-0.835149 -0.473204,-1.564269 -1.164787,-1.933216 h 1.235067 c 0.321407,-9.1e-5 0.582017,-0.260469 0.582393,-0.581876 v -2.179712 l 2.843754,-14.4533818 3.023071,-1.872754 c 0.273863,-0.1697362 0.357914,-0.529556 0.187586,-0.8030517 -0.08136,-0.130841 -0.211243,-0.224119 -0.361219,-0.259416 -0.07438,-0.017451 -0.15146,-0.020102 -0.226859,-0.0078 z M 3.7166708,8.4699182 6.5666261,8.5040282 V 12.575098 H 3.8810019 L 3.1756186,9.7706179 Z m 3.416329,0.04082 4.1465172,0.04909 V 12.575087 H 7.1329998 Z m 4.7108242,0.05581 4.146517,0.04909 v 3.9594488 h -4.146517 z m 4.710823,0.05581 4.146517,0.04961 v 3.9031208 h -4.146517 z m 4.710824,0.05633 3.607015,0.04289 -0.758093,3.8535118 H 21.265471 Z M 3.9977906,13.040182 h 2.5688355 v 3.673677 H 4.9217652 Z m 3.1352092,0 h 4.1465172 v 3.673677 H 7.1329998 Z m 4.7108242,0 h 4.146517 v 3.673677 h -4.146517 z m 4.710823,0 h 4.146517 v 3.673677 h -4.146517 z m 4.710824,0 h 2.757454 l -0.722436,3.673677 H 21.265471 Z M 5.0390707,17.178947 H 6.5666261 V 18.83156 L 5.4157919,18.67653 Z m 2.0939291,0 h 4.1465172 v 2.287199 L 7.1329998,18.907524 Z m 4.7108242,0 h 4.146517 v 2.853056 h 0.564306 v -2.853056 h 4.146517 v 3.555856 l -8.85734,-1.192692 z m 9.421647,0 h 1.943551 l -0.746208,3.79305 -1.197343,-0.16123 z M 7.3571746,24.645572 c 0.7258132,0 1.306685,0.582221 1.306685,1.308033 0,0.725817 -0.5808718,1.308035 -1.306685,1.308034 -0.7258136,0 -1.3080335,-0.582217 -1.3080335,-1.308034 0,-0.725812 0.5822199,-1.308033 1.3080335,-1.308033 z m 13.3930384,0.05978 c 0.693457,0 1.249721,0.556691 1.249721,1.250151 0,0.693455 -0.556264,1.248003 -1.249721,1.248003 -0.693456,0 -1.25015,-0.554548 -1.25015,-1.248003 0,-0.69346 0.556694,-1.250151 1.25015,-1.250151 z"
       sodipodi:nodetypes="cccccccccccccsssccssscccccccccccccccccccccccccccccccccccccccccccccccccccccccccccccccccccccccccccccccccccccssssssssss" /></g></svg>
