<?xml version="1.0" encoding="UTF-8" standalone="no"?>
<!-- Created with Inkscape (http://www.inkscape.org/) -->

<svg
   width="32mm"
   height="32mm"
   viewBox="0 0 32 32"
   version="1.1"
   id="svg1"
   xml:space="preserve"
   inkscape:version="1.3.1 (9b9bdc1480, 2023-11-25, custom)"
   sodipodi:docname="shop_laundry.svg"
   xmlns:inkscape="http://www.inkscape.org/namespaces/inkscape"
   xmlns:sodipodi="http://sodipodi.sourceforge.net/DTD/sodipodi-0.dtd"
   xmlns="http://www.w3.org/2000/svg"
   xmlns:svg="http://www.w3.org/2000/svg"><sodipodi:namedview
     id="namedview1"
     pagecolor="#ffffff"
     bordercolor="#666666"
     borderopacity="1.0"
     inkscape:showpageshadow="2"
     inkscape:pageopacity="0.0"
     inkscape:pagecheckerboard="0"
     inkscape:deskcolor="#d1d1d1"
     inkscape:document-units="mm"
     inkscape:zoom="0.94713639"
     inkscape:cx="-25.33954"
     inkscape:cy="98.718623"
     inkscape:window-width="1318"
     inkscape:window-height="719"
     inkscape:window-x="48"
     inkscape:window-y="27"
     inkscape:window-maximized="1"
     inkscape:current-layer="layer1" /><defs
     id="defs1" /><g
     inkscape:label="Livello 1"
     inkscape:groupmode="layer"
     id="layer1"><g
       id="g13"><g
         id="rect6"><path
           style="color:#000000;fill:#ac39ac;fill-opacity:1;stroke-linecap:round;stroke-linejoin:bevel;-inkscape-stroke:none;paint-order:markers stroke fill"
           d="M 3.578125,2.8613281 2.8613281,3.578125 v 24.84375 l 0.7167969,0.716797 h 24.84375 l 0.716797,-0.716797 V 3.578125 L 28.421875,2.8613281 Z M 4.2949219,4.2949219 H 27.705078 V 27.705078 H 4.2949219 Z"
           id="path12" /><path
           style="color:#000000;fill:#e6b3e6;fill-opacity:1;stroke-linecap:round;stroke-linejoin:bevel;-inkscape-stroke:none;paint-order:markers stroke fill"
           d="M 3.5773802,3.5773802 H 28.42262 V 28.42262 H 3.5773802 Z"
           id="path13" /></g><g
         id="path8"><path
           style="color:#000000;fill:#ac39ac;fill-opacity:1;stroke-linecap:round;stroke-linejoin:bevel;-inkscape-stroke:none;paint-order:markers stroke fill"
           d="m 16,8.984375 c -3.865876,0 -7.015625,3.149749 -7.015625,7.015625 0,3.865876 3.149749,7.015625 7.015625,7.015625 3.865876,0 7.015625,-3.149749 7.015625,-7.015625 0,-3.865876 -3.149749,-7.015625 -7.015625,-7.015625 z m 0,1.433594 c 2.462723,0 4.173953,0.930386 5.111292,3.136636 0.232241,0.546635 -1.380682,1.868031 -1.380682,2.496193 0,0.64973 1.344747,2.000352 1.14216,2.579511 -0.761156,2.176009 -2.431615,2.951722 -4.87277,2.951722 -3.090885,0 -5.582031,-2.491146 -5.582031,-5.582031 0,-3.090885 2.491146,-5.582031 5.582031,-5.582031 z"
           id="path9"
           sodipodi:nodetypes="ssssssssssss" /><path
           style="color:#000000;fill:#db8cdb;fill-opacity:1;stroke-linecap:round;stroke-linejoin:bevel;-inkscape-stroke:none;paint-order:markers stroke fill"
           d="M 22.298171,16 A 6.298171,6.298171 0 0 1 16,22.298171 6.298171,6.298171 0 0 1 9.701829,16 6.298171,6.298171 0 0 1 16,9.701829 6.298171,6.298171 0 0 1 22.298171,16 Z"
           id="path10" /></g><circle
         style="fill:#ac39ac;fill-opacity:1;stroke:none;stroke-width:4.21711;stroke-linecap:round;stroke-linejoin:bevel;stroke-dasharray:none;stroke-opacity:0.913725;paint-order:markers stroke fill"
         id="path11"
         cx="17.910198"
         cy="6.4871073"
         r="1.2095796" /><circle
         style="fill:#ac39ac;fill-opacity:1;stroke:none;stroke-width:4.21711;stroke-linecap:round;stroke-linejoin:bevel;stroke-dasharray:none;stroke-opacity:0.913725;paint-order:markers stroke fill"
         id="path11-6"
         cx="21.234619"
         cy="6.4871073"
         r="1.2095796" /><circle
         style="fill:#ac39ac;fill-opacity:1;stroke:none;stroke-width:4.21711;stroke-linecap:round;stroke-linejoin:bevel;stroke-dasharray:none;stroke-opacity:0.913725;paint-order:markers stroke fill"
         id="path11-8"
         cx="24.295382"
         cy="6.4871073"
         r="1.2095796" /></g></g></svg>
