<?xml version="1.0" encoding="UTF-8" standalone="no"?>
<!-- Created with Inkscape (http://www.inkscape.org/) -->

<svg
   width="32mm"
   height="32mm"
   viewBox="0 0 32 32"
   version="1.1"
   id="svg1"
   xml:space="preserve"
   inkscape:version="1.3.1 (9b9bdc1480, 2023-11-25, custom)"
   sodipodi:docname="shop_shoes.16.svg"
   xmlns:inkscape="http://www.inkscape.org/namespaces/inkscape"
   xmlns:sodipodi="http://sodipodi.sourceforge.net/DTD/sodipodi-0.dtd"
   xmlns="http://www.w3.org/2000/svg"
   xmlns:svg="http://www.w3.org/2000/svg"><sodipodi:namedview
     id="namedview1"
     pagecolor="#ffffff"
     bordercolor="#666666"
     borderopacity="1.0"
     inkscape:showpageshadow="2"
     inkscape:pageopacity="0.0"
     inkscape:pagecheckerboard="0"
     inkscape:deskcolor="#d1d1d1"
     inkscape:document-units="mm"
     showguides="true"
     inkscape:zoom="1.4142136"
     inkscape:cx="52.325902"
     inkscape:cy="90.156115"
     inkscape:window-width="1318"
     inkscape:window-height="719"
     inkscape:window-x="48"
     inkscape:window-y="27"
     inkscape:window-maximized="1"
     inkscape:current-layer="layer1"
     showgrid="false"><sodipodi:guide
       position="21.324843,29.746031"
       orientation="0,-1"
       id="guide8"
       inkscape:locked="false" /><sodipodi:guide
       position="0.45003611,24.90516"
       orientation="1,0"
       id="guide36"
       inkscape:locked="false" /><sodipodi:guide
       position="29.485911,9.5526053"
       orientation="1,0"
       id="guide37"
       inkscape:locked="false" /><sodipodi:guide
       position="8.9802559,1.7851799"
       orientation="0,-1"
       id="guide38"
       inkscape:locked="false" /><sodipodi:guide
       position="12.464872,5.3716509"
       orientation="0,-1"
       id="guide45"
       inkscape:locked="false" /><sodipodi:guide
       position="32.171697,15.989473"
       orientation="0,-1"
       id="guide46"
       inkscape:locked="false" /><sodipodi:guide
       position="4.9261733,27.506351"
       orientation="1,0"
       id="guide47"
       inkscape:locked="false" /><sodipodi:guide
       position="55.115328,-17.201583"
       orientation="1,0"
       id="guide48"
       inkscape:locked="false" /></sodipodi:namedview><defs
     id="defs1"><inkscape:perspective
       sodipodi:type="inkscape:persp3d"
       inkscape:vp_x="-183.11487 : 148.50001 : 1"
       inkscape:vp_y="0 : 1000 : 0"
       inkscape:vp_z="-195.51426 : 148.50001 : 1"
       inkscape:persp3d-origin="-189.31457 : 99.000003 : 1"
       id="perspective10172" /><symbol
       id="Recycling"><title
         id="title7498">Recycling</title><g
         style="stroke:none"
         id="g7512"><path
           style="stroke-width:0.26458332"
           inkscape:connector-curvature="0"
           d="m 14.684375,3.9026042 -1.389063,0.79375 -0.926041,-1.5875 C 12.236979,2.8773437 11.972396,2.7119792 11.608594,2.7119792 H 8.8304687 C 9.0289062,2.9104167 9.0619792,2.9765625 9.1611979,3.1419271 L 10.88099,6.1184896 9.4919271,6.9122396 H 12.93151 Z"
           id="path7500" /><path
           style="stroke-width:0.26458332"
           inkscape:connector-curvature="0"
           d="m 14.254427,12.038542 h 1.389063 c 0.826822,0 1.322916,-0.892969 0.926041,-1.5875 l -1.752864,-3.069167 -2.38125,1.3890625 z"
           id="path7502" /><path
           style="stroke-width:0.26458332"
           inkscape:connector-curvature="0"
           d="m 12.170833,17.065625 v -1.5875 h 1.852084 c 0.264583,0 0.529166,-0.132292 0.727604,-0.463021 l 1.389062,-2.38125 C 15.875,12.7 15.775781,12.7 15.610417,12.7 h -3.439584 v -1.5875 l -1.719791,2.976562 z"
           id="path7504" /><path
           style="stroke-width:0.26458332"
           inkscape:connector-curvature="0"
           d="m 5.3578125,12.7 -0.6945313,1.190625 c -0.396875,0.727604 0.099219,1.5875 0.8929688,1.5875 H 9.0619792 V 12.7 Z"
           id="path7506" /><path
           style="stroke-width:0.26458332"
           inkscape:connector-curvature="0"
           d="m 2.0505208,8.4005208 1.3890625,0.79375 -0.9260416,1.5875002 C 2.38125,11.013281 2.38125,11.310937 2.5466146,11.641667 l 1.3559896,2.38125 c 0.066146,-0.264584 0.099219,-0.33073 0.1984375,-0.496094 L 5.8208333,10.55026 7.2098958,11.34401 5.4901042,8.3674479 Z"
           id="path7508" /><path
           style="stroke-width:0.26458332"
           inkscape:connector-curvature="0"
           d="M 9.2604167,4.6302083 8.5989583,3.4395833 c -0.4299479,-0.6945312 -1.4221354,-0.6945312 -1.8190104,0 l -1.7528646,3.0427084 2.38125,1.3890625 z"
           id="path7510" /></g></symbol><inkscape:perspective
       id="perspective8310"
       inkscape:persp3d-origin="372.04724 : 350.7874 : 1"
       inkscape:vp_z="744.09447 : 526.18111 : 1"
       inkscape:vp_y="0 : 1000 : 0"
       inkscape:vp_x="0 : 526.18111 : 1"
       sodipodi:type="inkscape:persp3d" /><inkscape:perspective
       id="perspective5302"
       inkscape:persp3d-origin="372.04724 : 350.7874 : 1"
       inkscape:vp_z="744.09447 : 526.18111 : 1"
       inkscape:vp_y="0 : 1000 : 0"
       inkscape:vp_x="0 : 526.18111 : 1"
       sodipodi:type="inkscape:persp3d" /><symbol
       id="ToiletsMen"><title
         id="title4892">Toilets - Men</title><g
         style="stroke:none"
         id="g4898"><circle
           cx="36"
           cy="9"
           r="5"
           id="circle4894" /><path
           d="m 24,22 v 15.5 a 2.25,2.25 0 0 0 4.5,0 V 23 h 1 v 39.5 a 3,3 0 0 0 6,0 V 40 h 1 v 22.5 a 3,3 0 0 0 6,0 V 23 h 1 v 14.5 a 2.25,2.25 0 0 0 4.5,0 V 22 A 7,7 0 0 0 41,15 H 31 a 7,7 0 0 0 -7,7 z"
           id="path4896"
           inkscape:connector-curvature="0" /></g></symbol><inkscape:perspective
       sodipodi:type="inkscape:persp3d"
       inkscape:vp_x="0 : 100 : 1"
       inkscape:vp_y="0 : 1000 : 0"
       inkscape:vp_z="200 : 100 : 1"
       inkscape:persp3d-origin="100 : 66.666667 : 1"
       id="perspective2879" /></defs><g
     inkscape:label="Livello 1"
     inkscape:groupmode="layer"
     id="layer1"><g
       id="path19" /><g
       id="rect22-0"
       transform="matrix(-1,0,0,1,30.661761,0.23016813)" /><g
       id="rect22-7"
       transform="matrix(-1,0,0,1,30.845845,-1.8811487e-4)" /><g
       id="path26" /><g
       id="path52"
       transform="translate(-38.081357,-6.611757)" /><g
       id="path52-1"
       transform="matrix(-1,0,0,1,21.996584,0)" /><g
       id="path19-0"
       transform="translate(3.6443103,6.1232351)" /><g
       id="rect22-0-8"
       transform="matrix(-1,0,0,1,34.306071,6.3534032)" /><g
       id="rect22-7-5"
       transform="matrix(-1,0,0,1,34.490155,6.123047)" /><g
       id="path26-0"
       transform="translate(3.6443103,6.1232351)" /><g
       id="path52-1-6"
       transform="matrix(-1,0,0,1,25.640894,6.1232351)" /><g
       id="path7-6"
       transform="translate(-27.436615,5.5770687)" /><g
       id="g40-6-7"
       transform="translate(0.115617,-0.13948398)" /><path
       id="path12"
       style="fill:#ac39ac;fill-opacity:1;stroke:none;stroke-width:0.540938;stroke-linecap:round;stroke-linejoin:bevel;stroke-opacity:0.913725;paint-order:markers stroke fill"
       d="m -35.179683,-21.993867 c -0.306845,-0.01021 -0.607032,0.129618 -0.896069,0.540536 -2.473669,3.525601 -5.677104,0.242035 -12.100553,7.152535 -1.076606,0.76883 0.489061,0.802246 1.053682,1.034562 1.925803,0.686344 -1.605161,0.989113 -0.804602,1.634525 1.742017,0.42537 3.978901,0.637485 5.839954,0.496094 1.120808,-0.08515 3.732893,1.7424542 4.854483,2.0634402 1.575551,0.08732 -0.75163,-1.8657542 0.264067,-2.4587652 0.09063,-0.05554 8.714408,-3.431887 13.10721,-1.701705 1.269626,0.401953 2.021959,1.753029 3.386357,1.912028 1.621152,-0.571197 -1.769042,-2.91962 0.845426,-5.959326 1.242736,-2.081988 -0.760456,-0.682866 -3.522782,0.531234 -2.762326,1.214101 -3.884308,-0.135603 -7.587651,-2.196765 -1.286257,-0.164361 -1.433787,-1.53049 -2.348694,-2.086694 -0.706313,-0.190121 -1.415769,-0.939237 -2.090828,-0.961699 z m -10.445873,6.659025 a 0.54334641,0.54334641 0 0 1 0.543636,0.543636 0.54334641,0.54334641 0 0 1 -0.543636,0.54312 0.54334641,0.54334641 0 0 1 -0.54312,-0.54312 0.54334641,0.54334641 0 0 1 0.54312,-0.543636 z" /><g
       id="g15"
       transform="translate(0.27404371,1.1186175)"><path
         id="path13"
         style="fill:#ac39ac;fill-opacity:1;stroke:none;stroke-width:0.264583px;stroke-linecap:butt;stroke-linejoin:miter;stroke-opacity:1"
         d="m 3.1042033,6.828007 c 0,0 -0.7354087,0.5801276 -0.9772013,3.906738 -0.2417928,3.326612 -0.1105876,6.243547 -0.1105876,6.243547 l 11.1683106,0.01034 1.221114,2.296501 14.98289,0.0025 C 29.275199,12.851239 26.974236,12.513146 18.335424,13.97533 17.452872,14.124708 18.124071,11.229844 16.686837,11.185364 14.03111,11.103184 15.3604,9.8097687 14.602726,9.1059041 13.845053,8.4020392 13.658108,9.1016196 13.102559,8.3664144 12.352608,7.3739386 11.981196,7.054336 10.393681,7.1757894 L 10.578166,9.5544556 5.385201,9.5286174 Z M 13.454993,9.3177775 c 0.354431,0.019539 0.634941,0.1662073 0.779797,0.4077271 0.301453,0.5027194 -0.05526,1.2709614 -0.796851,1.7161744 -0.741863,0.445394 -1.587993,0.398888 -1.889807,-0.10387 -0.301888,-0.502743 0.0549,-1.271379 0.796851,-1.7166908 0.35633,-0.2138277 0.755622,-0.3229452 1.11001,-0.3033407 z m 2.47375,2.2660115 c 0.354431,0.01954 0.634941,0.166207 0.779798,0.407727 0.301453,0.50272 -0.05526,1.270962 -0.796851,1.716174 -0.741668,0.445084 -1.587403,0.398588 -1.88929,-0.103869 -0.301888,-0.502742 0.0549,-1.271379 0.79685,-1.716691 0.356155,-0.213712 0.755231,-0.322821 1.109493,-0.303341 z"
         sodipodi:nodetypes="csccccscsscccccccccccccccc" /><rect
         style="fill:#ac39ac;fill-opacity:1;stroke:none;stroke-width:0.765;stroke-linecap:round;stroke-linejoin:bevel;stroke-opacity:0.913725;paint-order:markers stroke fill"
         id="rect14"
         width="10.644261"
         height="3.7580345"
         x="2.0701518"
         y="19.176723"
         ry="1.3823203" /><rect
         style="fill:#ac39ac;fill-opacity:1;stroke:none;stroke-width:0.765;stroke-linecap:round;stroke-linejoin:bevel;stroke-opacity:0.913725;paint-order:markers stroke fill"
         id="rect15"
         width="11.371645"
         height="1.8225874"
         x="18.099392"
         y="21.050394"
         ry="0.79428697" /></g></g></svg>
