<?xml version="1.0" encoding="UTF-8" standalone="no"?>
<!-- Created with Inkscape (http://www.inkscape.org/) -->

<svg
   width="32"
   height="32"
   viewBox="0 0 32 32.000001"
   id="svg2"
   version="1.1"
   inkscape:version="1.3.1 (9b9bdc1480, 2023-11-25, custom)"
   sodipodi:docname="shop_bakery.svg"
   xml:space="preserve"
   xmlns:inkscape="http://www.inkscape.org/namespaces/inkscape"
   xmlns:sodipodi="http://sodipodi.sourceforge.net/DTD/sodipodi-0.dtd"
   xmlns="http://www.w3.org/2000/svg"
   xmlns:svg="http://www.w3.org/2000/svg"
   xmlns:rdf="http://www.w3.org/1999/02/22-rdf-syntax-ns#"
   xmlns:cc="http://creativecommons.org/ns#"
   xmlns:dc="http://purl.org/dc/elements/1.1/"><defs
     id="defs4"><inkscape:path-effect
       effect="fillet_chamfer"
       id="path-effect23"
       is_visible="true"
       lpeversion="1"
       nodesatellites_param="F,0,0,1,0,0,0,1 @ F,0,0,1,0,0.43057958,0,1 @ F,0,0,1,0,0.44218541,0,1 @ F,0,0,1,0,0,0,1 @ F,0,0,1,0,0,0,1 @ F,0,0,1,0,0,0,1 @ F,0,0,1,0,0,0,1 @ F,0,0,1,0,0,0,1 @ F,0,0,1,0,0,0,1 @ F,0,0,1,0,0,0,1"
       radius="0"
       unit="px"
       method="auto"
       mode="F"
       chamfer_steps="1"
       flexible="false"
       use_knot_distance="true"
       apply_no_radius="true"
       apply_with_radius="true"
       only_selected="false"
       hide_knots="false" /><inkscape:path-effect
       effect="fillet_chamfer"
       id="path-effect22"
       is_visible="true"
       lpeversion="1"
       nodesatellites_param="F,0,0,1,0,0,0,1 @ F,0,0,1,0,0,0,1 @ F,0,0,1,0,0,0,1 @ F,0,0,1,0,0.94651484,0,1 @ F,0,0,1,0,0.8500894,0,1 @ F,0,0,1,0,0.68193774,0,1 @ F,0,0,1,0,0.68193774,0,1 @ F,0,1,1,0,0.33620128,0,1 @ F,0,1,1,0,0.33620128,0,1 @ F,0,0,1,0,0.86386139,0,1 @ F,0,0,1,0,0.94385482,0,1 @ F,0,0,1,0,0,0,1 @ F,0,0,1,0,0,0,1"
       radius="0"
       unit="px"
       method="auto"
       mode="F"
       chamfer_steps="1"
       flexible="false"
       use_knot_distance="true"
       apply_no_radius="true"
       apply_with_radius="true"
       only_selected="false"
       hide_knots="false" /><inkscape:path-effect
       effect="fillet_chamfer"
       id="path-effect14"
       is_visible="true"
       lpeversion="1"
       nodesatellites_param="F,0,0,1,0,0.69167553,0,1 @ F,0,0,1,0,0.77102447,0,1 @ F,0,0,1,0,0.77395666,0,1 @ F,0,0,1,0,0.80542345,0,1 @ F,0,0,1,0,0.61263567,0,1"
       radius="0"
       unit="px"
       method="auto"
       mode="F"
       chamfer_steps="1"
       flexible="false"
       use_knot_distance="true"
       apply_no_radius="true"
       apply_with_radius="true"
       only_selected="false"
       hide_knots="false" /><inkscape:path-effect
       effect="fillet_chamfer"
       id="path-effect13"
       is_visible="true"
       lpeversion="1"
       nodesatellites_param="F,0,0,1,0,0,0,1 @ F,0,0,1,0,0,0,1 @ F,0,0,1,0,0,0,1 @ F,0,0,1,0,0,0,1 @ F,0,0,1,0,0,0,1 @ F,0,0,1,0,0,0,1 @ F,0,0,1,0,0,0,1 @ F,0,0,1,0,0,0,1 @ F,0,0,1,0,0,0,1 @ F,0,0,1,0,0,0,1 @ F,0,0,1,0,0,0,1 @ F,0,0,1,0,0,0,1 @ F,0,0,1,0,0,0,1 @ F,0,0,1,0,0,0,1 @ F,0,0,1,0,0,0,1 @ F,0,0,1,0,0,0,1 @ F,0,0,1,0,0,0,1 @ F,0,0,1,0,0,0,1 @ F,0,0,1,0,0,0,1 @ F,0,0,1,0,0,0,1 @ F,0,0,1,0,0,0,1 @ F,0,0,1,0,0,0,1 @ F,0,0,1,0,0,0,1 @ F,0,0,1,0,0,0,1 @ F,0,0,1,0,0,0,1 @ F,0,0,1,0,0,0,1 @ F,0,0,1,0,0,0,1 @ F,0,0,1,0,0,0,1 @ F,0,0,1,0,0,0,1 @ F,0,0,1,0,0,0,1 @ F,0,0,1,0,0,0,1 @ F,0,0,1,0,0,0,1 @ F,0,0,1,0,0,0,1 @ F,0,0,1,0,0,0,1 @ F,0,0,1,0,0,0,1 @ F,0,0,1,0,0,0,1 @ F,0,0,1,0,0,0,1 @ F,0,0,1,0,0,0,1 @ F,0,0,1,0,0,0,1 @ F,0,0,1,0,0,0,1 @ F,0,0,1,0,0,0,1"
       radius="0"
       unit="px"
       method="auto"
       mode="F"
       chamfer_steps="1"
       flexible="false"
       use_knot_distance="true"
       apply_no_radius="true"
       apply_with_radius="true"
       only_selected="false"
       hide_knots="false" /><inkscape:path-effect
       effect="fillet_chamfer"
       id="path-effect12"
       is_visible="true"
       lpeversion="1"
       nodesatellites_param="F,0,0,1,0,0,0,1 @ F,0,0,1,0,0,0,1 @ F,0,0,1,0,0,0,1 @ F,0,0,1,0,0,0,1 @ F,0,0,1,0,0,0,1 @ F,0,0,1,0,0,0,1 @ F,0,0,1,0,0,0,1 @ F,0,0,1,0,0,0,1 @ F,0,0,1,0,0,0,1 @ F,0,0,1,0,0,0,1 @ F,0,0,1,0,0,0,1 | F,0,0,1,0,0,0,1 @ F,0,0,1,0,0,0,1 @ F,0,0,1,0,0,0,1 @ F,0,0,1,0,0,0,1 @ F,0,0,1,0,0,0,1 @ F,0,0,1,0,0,0,1 @ F,0,0,1,0,0,0,1 @ F,0,0,1,0,0,0,1 @ F,0,0,1,0,0,0,1 | F,0,0,1,0,1.0714599,0,1 @ F,0,0,1,0,0.32501445,0,1 @ F,0,0,1,0,0.52505136,0,1 @ F,0,0,1,0,0.34488101,0,1 | F,0,0,1,0,0.37035257,0,1 @ F,0,0,1,0,0.3961333,0,1 @ F,0,0,1,0,0.41541052,0,1 @ F,0,0,1,0,0.34638595,0,1 | F,0,0,1,0,0,0,1 @ F,0,0,1,0,0,0,1 @ F,0,0,1,0,0,0,1 @ F,0,0,1,0,0,0,1 | F,0,0,1,0,0,0,1 @ F,0,0,1,0,0,0,1 @ F,0,0,1,0,0,0,1 @ F,0,0,1,0,0,0,1 | F,0,0,1,0,0.38002097,0,1 @ F,0,0,1,0,0.19335585,0,1 @ F,0,0,1,0,0.36547336,0,1 @ F,0,0,1,0,0.31023223,0,1 | F,0,0,1,0,0.31490615,0,1 @ F,0,0,1,0,0.17982706,0,1 @ F,0,0,1,0,0.25333788,0,1 @ F,0,0,1,0,0.29452287,0,1 | F,0,0,1,0,0.19809338,0,1 @ F,0,0,1,0,0.13171657,0,1 @ F,0,0,1,0,0.19913686,0,1 @ F,0,0,1,0,0.20182932,0,1 | F,0,0,1,0,0.18220144,0,1 @ F,0,0,1,0,0.18866345,0,1 @ F,0,0,1,0,0.18291735,0,1 @ F,0,0,1,0,0.18793134,0,1"
       radius="0"
       unit="px"
       method="auto"
       mode="F"
       chamfer_steps="1"
       flexible="false"
       use_knot_distance="true"
       apply_no_radius="true"
       apply_with_radius="true"
       only_selected="false"
       hide_knots="false" /><inkscape:path-effect
       effect="fillet_chamfer"
       id="path-effect4"
       is_visible="true"
       lpeversion="1"
       nodesatellites_param="F,0,0,1,0,1.2157455,0,1 @ F,0,0,1,0,0.87364157,0,1 @ F,0,0,1,0,0.76994398,0,1 @ F,0,0,1,0,1.2564157,0,1"
       radius="0"
       unit="px"
       method="auto"
       mode="F"
       chamfer_steps="1"
       flexible="false"
       use_knot_distance="true"
       apply_no_radius="true"
       apply_with_radius="true"
       only_selected="false"
       hide_knots="false" /><inkscape:path-effect
       effect="fillet_chamfer"
       id="path-effect3"
       is_visible="true"
       lpeversion="1"
       nodesatellites_param="F,0,0,1,0,0,0,1 @ F,0,0,1,0,0.81522384,0,1 @ F,0,0,1,0,0,0,1 @ F,0,0,1,0,0,0,1 @ F,0,0,1,0,0,0,1 @ F,0,0,1,0,0,0,1 @ F,0,0,1,0,0,0,1 @ F,0,0,1,0,3.2404649,0,1 @ F,0,0,1,0,0,0,1"
       radius="0"
       unit="px"
       method="auto"
       mode="F"
       chamfer_steps="1"
       flexible="false"
       use_knot_distance="true"
       apply_no_radius="true"
       apply_with_radius="true"
       only_selected="false"
       hide_knots="false" /></defs><sodipodi:namedview
     id="base"
     pagecolor="#ffffff"
     bordercolor="#666666"
     borderopacity="1.0"
     inkscape:pageopacity="0.0"
     inkscape:pageshadow="2"
     inkscape:zoom="10.55859"
     inkscape:cx="18.847213"
     inkscape:cy="2.9833528"
     inkscape:document-units="px"
     inkscape:current-layer="layer1"
     showgrid="false"
     inkscape:window-width="1318"
     inkscape:window-height="719"
     inkscape:window-x="48"
     inkscape:window-y="27"
     inkscape:window-maximized="1"
     units="px"
     inkscape:showpageshadow="2"
     inkscape:pagecheckerboard="0"
     inkscape:deskcolor="#d1d1d1"
     showguides="false" /><metadata
     id="metadata7"><rdf:RDF><cc:Work
         rdf:about=""><dc:format>image/svg+xml</dc:format><dc:type
           rdf:resource="http://purl.org/dc/dcmitype/StillImage" /></cc:Work></rdf:RDF></metadata><g
     inkscape:label="Calque 1"
     inkscape:groupmode="layer"
     id="layer1"
     transform="translate(0,-1020.3622)"><circle
       id="path2"
       style="fill:#333333;stroke:#333333"
       cx="4.6894412"
       cy="1024.6318"
       r="0" /><path
       style="fill:none;stroke:#000000;stroke-width:1.5;stroke-linecap:butt;stroke-linejoin:miter;stroke-dasharray:none;stroke-opacity:0"
       d="m 3.9629118,1036.7901 c 10.8708272,-10.7363 17.9263552,-6.5758 24.2518992,0.1858 -6.445518,7.0061 -15.155894,10.3904 -24.2518992,-0.1858 z"
       id="path23-5"
       sodipodi:nodetypes="ccc" /><path
       id="path25"
       style="color:#000000;fill:#ac39ac;fill-opacity:1;stroke-linecap:round;-inkscape-stroke:none"
       d="m 11.513895,1026.5731 c -0.769755,2e-4 -1.5672317,0.1004 -2.3808596,0.3184 -5.1628384,1.3834 -7.7552422,6.3728 -6.5957031,10.8984 1.1595388,4.5256 5.9365547,8.3614 13.8046877,8.3614 7.925798,0 12.36762,-4.3773 13.224609,-9.0137 0.428495,-2.3181 0.03747,-4.6647 -1.101562,-6.5645 -1.139028,-1.8999 -3.125957,-3.3452 -5.578125,-3.5605 -2.214867,-0.1944 -4.144368,0.5047 -5.833985,1.5801 -0.331086,-0.248 -0.601529,-0.5547 -0.964843,-0.7676 -0.957726,-0.561 -2.046666,-0.9681 -3.220703,-1.1484 -0.440265,-0.068 -0.891663,-0.1037 -1.353516,-0.1036 z m -1.441406,0.6621 0.833984,0.8165 -0.816406,0.8359 -0.8359379,-0.8164 z m 12.503906,0.6192 1.076172,0.4551 -0.455078,1.0761 -1.076172,-0.455 z m -9.541016,0.5898 1.125,0.3125 -0.3125,1.125 -1.125,-0.3125 z m 6.783203,0.08 0.642579,0.9746 -0.97461,0.6426 -0.644531,-0.9746 z m 6.066407,0.9024 1.167968,0.025 -0.02734,1.168 -1.167969,-0.025 z m -20.0019536,0.1484 1.0761719,0.4551 -0.4550782,1.0761 -1.0761718,-0.455 z m 5.5136716,0.3789 c 0.14459,-0.01 0.286459,-0.01 0.425782,0 0.185763,0.01 0.367308,0.027 0.544922,0.055 v 0 c 0.710453,0.1106 1.361763,0.3731 2.001953,0.7481 0.0012,7e-4 0.0027,0 0.0039,0 -0.05687,0.058 1.997747,1.6662 1.903707,1.7693 -0.09845,0.108 -2.140485,-1.4663 -2.198197,-1.404 -0.629868,0.6792 -1.252661,1.3817 -1.760198,2.08 -2.299013,3.1632 -3.5585935,6.375 -3.5585935,6.375 -0.08504,0.6269 0.1851015,1.2492 0.7011719,1.6152 -2.0412602,-1.1229 -3.2273077,-2.6749 -3.6308594,-4.25 -0.7301836,-2.8498 0.6370565,-5.8198 4.181641,-6.7695 0.492216,-0.1319 0.950998,-0.2032 1.384765,-0.2207 z m 10.810547,0.4297 c 0.12674,-10e-4 0.2547,0 0.382813,0.016 1.344186,0.118 2.290532,0.807 2.958984,1.9219 0.668453,1.115 0.959499,2.6624 0.675781,4.1973 -0.288335,1.5597 -1.109589,3.1338 -2.714843,4.3144 0.404484,-0.4382 0.549755,-1.0564 0.382812,-1.6289 0,0 -1.036586,-3.5735 -3.302734,-6.9219 -0.276328,-0.4083 -0.638514,-0.7885 -0.955078,-1.1875 0.07415,-0.036 -1.979181,-1.8991 -1.904662,-1.9336 0.06327,-0.029 2.254342,1.7692 2.317884,1.7415 0.700662,-0.306 1.418187,-0.513 2.159043,-0.5188 z m -5.435011,-0.4111 0.109375,1.1621 -1.162109,0.1094 -0.109375,-1.1621 z m 11.94673,1.9658 0.222656,1.1484 -1.146484,0.2207 -0.222656,-1.1465 z m -9.087891,0.3398 0.302735,1.1289 -1.126953,0.3047 -0.304688,-1.1289 z m -2.632812,0.9453 c 0.259245,0.3239 0.543351,0.6192 0.777344,0.9649 1.902355,2.8109 2.857421,5.9785 2.857421,5.9785 0.270049,0.8015 1.08823,1.2826 1.919922,1.1289 -1.511119,0.8412 -3.43391,1.4551 -6.210937,1.4551 -2.604967,0 -4.494716,-0.5152 -6.064453,-1.2071 0.639082,0.094 1.276305,-0.182 1.644531,-0.7128 0,0 1.145059,-2.8715 3.146484,-5.625 0.561935,-0.7732 1.27469,-1.3268 1.929688,-1.9825 z m -12.6191409,0.018 0.109375,1.1641 -1.1640624,0.1093 -0.1074219,-1.164 z m 7.7890629,1.2539 1.05664,0.5 -0.5,1.0547 -1.054687,-0.498 z m 7.623047,0.3086 1.167968,0.025 -0.02734,1.168 -1.166016,-0.025 z m -16.0449223,1.8965 1.1601562,0.1348 -0.1347656,1.1601 -1.1601563,-0.1348 z m 23.8789063,0.4824 0.775391,0.8731 -0.873047,0.7754 -0.775391,-0.8731 z m -16.375,0.2305 1.076172,0.4551 -0.453125,1.0761 -1.076172,-0.455 z m 10.644531,0.75 0.798828,0.8515 -0.853515,0.7989 -0.798828,-0.8516 z m -15.658203,2.2812 0.7246094,0.918 -0.9160156,0.7227 -0.7246094,-0.9161 z m 19.373047,0.4785 1.09375,0.4063 -0.40625,1.0957 -1.09375,-0.4082 z m -16.5878907,1.0997 1.0761717,0.455 -0.4531249,1.0762 -1.0761718,-0.4551 z m 13.4003907,0.5937 0.583984,1.0098 -1.011718,0.5859 -0.583985,-1.0117 z m -10.089844,0.9766 1.167969,0.027 -0.02734,1.168 -1.167968,-0.027 z m 4.341797,0.1386 1.019531,0.5723 -0.574218,1.0195 -1.017579,-0.5742 z"
       sodipodi:nodetypes="ccsscccccccccccccccccccccccccccccccccccccccssscsscccccccccccccscsscccccccccccccccccccccsccccccccccccccccccccccccccccccccccccccccccccccccccccccccccccccccccccc" /></g></svg>
