<?xml version="1.0" encoding="UTF-8" standalone="no"?>
<!-- Created with Inkscape (http://www.inkscape.org/) -->

<svg
   width="32mm"
   height="32mm"
   viewBox="0 0 32 32"
   version="1.1"
   id="svg1"
   xml:space="preserve"
   inkscape:version="1.3.1 (9b9bdc1480, 2023-11-25, custom)"
   sodipodi:docname="shop_music.2.svg"
   xmlns:inkscape="http://www.inkscape.org/namespaces/inkscape"
   xmlns:sodipodi="http://sodipodi.sourceforge.net/DTD/sodipodi-0.dtd"
   xmlns:xlink="http://www.w3.org/1999/xlink"
   xmlns="http://www.w3.org/2000/svg"
   xmlns:svg="http://www.w3.org/2000/svg"><sodipodi:namedview
     id="namedview1"
     pagecolor="#ffffff"
     bordercolor="#666666"
     borderopacity="1.0"
     inkscape:showpageshadow="2"
     inkscape:pageopacity="0.0"
     inkscape:pagecheckerboard="0"
     inkscape:deskcolor="#d1d1d1"
     inkscape:document-units="mm"
     showguides="true"
     inkscape:zoom="1"
     inkscape:cx="60"
     inkscape:cy="24.5"
     inkscape:window-width="1318"
     inkscape:window-height="719"
     inkscape:window-x="48"
     inkscape:window-y="27"
     inkscape:window-maximized="1"
     inkscape:current-layer="layer1"
     showgrid="false"><sodipodi:guide
       position="21.324843,29.746031"
       orientation="0,-1"
       id="guide8"
       inkscape:locked="false" /><sodipodi:guide
       position="18.475006,31.999999"
       orientation="0,-1"
       id="guide9"
       inkscape:locked="false" /><sodipodi:guide
       position="2.4878345,30.738227"
       orientation="1,0"
       id="guide36"
       inkscape:locked="false" /><sodipodi:guide
       position="29.485911,9.5526053"
       orientation="1,0"
       id="guide37"
       inkscape:locked="false" /><sodipodi:guide
       position="8.9802559,1.7851799"
       orientation="0,-1"
       id="guide38"
       inkscape:locked="false" /><sodipodi:guide
       position="12.464872,5.3716509"
       orientation="0,-1"
       id="guide45"
       inkscape:locked="false" /><sodipodi:guide
       position="32.171697,15.989473"
       orientation="0,-1"
       id="guide46"
       inkscape:locked="false" /><sodipodi:guide
       position="4.794147,15.442652"
       orientation="1,0"
       id="guide47"
       inkscape:locked="false" /><sodipodi:guide
       position="55.115328,-17.201583"
       orientation="1,0"
       id="guide48"
       inkscape:locked="false" /></sodipodi:namedview><defs
     id="defs1"><pattern
       inkscape:collect="always"
       xlink:href="#Strips1_1"
       preserveAspectRatio="xMidYMid"
       id="pattern4"
       patternTransform="matrix(1.418182,0,0,1.9084827,54.004375,10.089176)"
       x="0"
       y="0" /><pattern
       inkscape:collect="always"
       patternUnits="userSpaceOnUse"
       width="2"
       height="10"
       patternTransform="translate(0,0) scale(2,2)"
       preserveAspectRatio="xMidYMid"
       id="Strips1_1"
       style="fill:#ac39ac"
       inkscape:stockid="Stripes 01 (1:1)"
       inkscape:isstock="true"
       inkscape:label="Strisce 01 (1:1)">
      <rect
   style="stroke:none"
   x="0"
   y="-0.5"
   width="1"
   height="11"
   id="rect134" />
    </pattern><inkscape:perspective
       sodipodi:type="inkscape:persp3d"
       inkscape:vp_x="-183.11487 : 148.50001 : 1"
       inkscape:vp_y="0 : 1000 : 0"
       inkscape:vp_z="-195.51426 : 148.50001 : 1"
       inkscape:persp3d-origin="-189.31457 : 99.000003 : 1"
       id="perspective10172" /><symbol
       id="Recycling"><title
         id="title7498">Recycling</title><g
         style="stroke:none"
         id="g7512"><path
           style="stroke-width:0.26458332"
           inkscape:connector-curvature="0"
           d="m 14.684375,3.9026042 -1.389063,0.79375 -0.926041,-1.5875 C 12.236979,2.8773437 11.972396,2.7119792 11.608594,2.7119792 H 8.8304687 C 9.0289062,2.9104167 9.0619792,2.9765625 9.1611979,3.1419271 L 10.88099,6.1184896 9.4919271,6.9122396 H 12.93151 Z"
           id="path7500" /><path
           style="stroke-width:0.26458332"
           inkscape:connector-curvature="0"
           d="m 14.254427,12.038542 h 1.389063 c 0.826822,0 1.322916,-0.892969 0.926041,-1.5875 l -1.752864,-3.069167 -2.38125,1.3890625 z"
           id="path7502" /><path
           style="stroke-width:0.26458332"
           inkscape:connector-curvature="0"
           d="m 12.170833,17.065625 v -1.5875 h 1.852084 c 0.264583,0 0.529166,-0.132292 0.727604,-0.463021 l 1.389062,-2.38125 C 15.875,12.7 15.775781,12.7 15.610417,12.7 h -3.439584 v -1.5875 l -1.719791,2.976562 z"
           id="path7504" /><path
           style="stroke-width:0.26458332"
           inkscape:connector-curvature="0"
           d="m 5.3578125,12.7 -0.6945313,1.190625 c -0.396875,0.727604 0.099219,1.5875 0.8929688,1.5875 H 9.0619792 V 12.7 Z"
           id="path7506" /><path
           style="stroke-width:0.26458332"
           inkscape:connector-curvature="0"
           d="m 2.0505208,8.4005208 1.3890625,0.79375 -0.9260416,1.5875002 C 2.38125,11.013281 2.38125,11.310937 2.5466146,11.641667 l 1.3559896,2.38125 c 0.066146,-0.264584 0.099219,-0.33073 0.1984375,-0.496094 L 5.8208333,10.55026 7.2098958,11.34401 5.4901042,8.3674479 Z"
           id="path7508" /><path
           style="stroke-width:0.26458332"
           inkscape:connector-curvature="0"
           d="M 9.2604167,4.6302083 8.5989583,3.4395833 c -0.4299479,-0.6945312 -1.4221354,-0.6945312 -1.8190104,0 l -1.7528646,3.0427084 2.38125,1.3890625 z"
           id="path7510" /></g></symbol><inkscape:perspective
       id="perspective8310"
       inkscape:persp3d-origin="372.04724 : 350.7874 : 1"
       inkscape:vp_z="744.09447 : 526.18111 : 1"
       inkscape:vp_y="0 : 1000 : 0"
       inkscape:vp_x="0 : 526.18111 : 1"
       sodipodi:type="inkscape:persp3d" /><inkscape:perspective
       id="perspective5302"
       inkscape:persp3d-origin="372.04724 : 350.7874 : 1"
       inkscape:vp_z="744.09447 : 526.18111 : 1"
       inkscape:vp_y="0 : 1000 : 0"
       inkscape:vp_x="0 : 526.18111 : 1"
       sodipodi:type="inkscape:persp3d" /><symbol
       id="ToiletsMen"><title
         id="title4892">Toilets - Men</title><g
         style="stroke:none"
         id="g4898"><circle
           cx="36"
           cy="9"
           r="5"
           id="circle4894" /><path
           d="m 24,22 v 15.5 a 2.25,2.25 0 0 0 4.5,0 V 23 h 1 v 39.5 a 3,3 0 0 0 6,0 V 40 h 1 v 22.5 a 3,3 0 0 0 6,0 V 23 h 1 v 14.5 a 2.25,2.25 0 0 0 4.5,0 V 22 A 7,7 0 0 0 41,15 H 31 a 7,7 0 0 0 -7,7 z"
           id="path4896"
           inkscape:connector-curvature="0" /></g></symbol><inkscape:perspective
       sodipodi:type="inkscape:persp3d"
       inkscape:vp_x="0 : 100 : 1"
       inkscape:vp_y="0 : 1000 : 0"
       inkscape:vp_z="200 : 100 : 1"
       inkscape:persp3d-origin="100 : 66.666667 : 1"
       id="perspective2879" /></defs><g
     inkscape:label="Livello 1"
     inkscape:groupmode="layer"
     id="layer1"><g
       id="path19" /><g
       id="rect22-0"
       transform="matrix(-1,0,0,1,30.661761,0.23016813)" /><g
       id="rect22-7"
       transform="matrix(-1,0,0,1,30.845845,-1.8811487e-4)" /><g
       id="path26" /><g
       id="path52"
       transform="translate(-38.081357,-6.611757)" /><g
       id="path52-1"
       transform="matrix(-1,0,0,1,21.996584,0)" /><g
       id="path19-0"
       transform="translate(3.6443103,6.1232351)" /><g
       id="rect22-0-8"
       transform="matrix(-1,0,0,1,34.306071,6.3534032)" /><g
       id="rect22-7-5"
       transform="matrix(-1,0,0,1,34.490155,6.123047)" /><g
       id="path26-0"
       transform="translate(3.6443103,6.1232351)" /><g
       id="path52-1-6"
       transform="matrix(-1,0,0,1,25.640894,6.1232351)" /><g
       id="path7-6"
       transform="translate(-27.436615,5.5770687)" /><g
       id="g40-6-7"
       transform="translate(0.115617,-0.13948398)" /><path
       style="fill:#ac39ac;fill-opacity:1;stroke:none;stroke-width:0.214365px;stroke-linecap:butt;stroke-linejoin:miter;stroke-opacity:1"
       d="M 14.291213,19.249258 23.850509,7.7120838 C 24.728286,6.6619704 25.234553,6.915182 25.787684,7.0394908 25.542888,5.9249315 26.931843,5.0345627 28.35336,3.4901587 27.497006,3.25483 26.771256,2.6599159 26.533404,1.8397291 25.142034,3.3957947 24.248035,4.7482888 23.27085,4.8847814 23.545096,5.4076621 23.784271,5.858739 22.783827,6.9435262 L 13.716606,16.98803 c -1.31383,-0.591664 -1.102476,-1.37314 -0.74352,-2.172985 -1.759533,-1.32027 -2.641168,1.841264 -2.971815,3.034773 -0.9501105,2.218774 -2.2356935,0.943911 -5.034563,2.225491 -1.78622,1.69845 -2.3615487,3.854557 -1.1625589,6.106867 1.2034803,2.174487 3.1693096,3.548255 5.6705864,3.724592 2.7069505,0.12312 3.8636725,-2.179059 4.0742995,-4.515598 -0.238026,-1.146238 -0.0686,-2.436664 1.100884,-2.900158 2.018171,-0.410777 3.62946,-1.319803 2.60154,-2.161717 -2.043938,1.205772 -2.572829,0.167624 -2.960257,-1.080043 z"
       id="path1"
       sodipodi:nodetypes="cccccccccccccccccc" /><g
       id="g4"
       transform="matrix(0.75734275,0,0,0.75734275,28.232848,-29.734329)"><path
         id="path2"
         style="fill:#ac39ac;fill-opacity:1;stroke:none;stroke-width:0.264583px;stroke-linecap:butt;stroke-linejoin:miter;stroke-opacity:1"
         d="m 38.318692,42.068789 c 0,0 0.03762,2.328343 0.07152,3.567891 0.100474,3.673913 0.06278,28.941262 -0.09095,29.514994 l -1.053682,3.933093 13.022978,0.209807 c 0,0 -2.574602,-1.24288 -1.261422,-4.42402 1.313182,-3.181141 6.837218,-13.83615 8.788095,-17.655253 1.950877,-3.819103 2.040075,-5.693848 1.266072,-6.619751 -0.774003,-0.925906 -2.479414,0.772722 -5.229455,2.490045 -2.034292,1.270357 -6.498997,-7.248906 -8.45033,-9.582118 -1.944123,-2.32459 -4.304532,-1.870508 -7.06283,-1.434688 z m 3.331791,3.562206 c 0,0 1.047082,0.53747 3.045292,1.885673 1.998211,1.348205 4.286706,6.149873 6.510197,7.677568 2.223489,1.527694 4.987907,-2.408775 6.152596,-3.090768 1.164688,-0.681991 0.236678,1.100708 0.236678,1.100708 L 42.374469,76.665277 c 0,0 -0.692816,-1.627861 -0.989604,-5.944857 -0.296788,-4.316998 -0.395841,-15.196482 0.265618,-25.089425 z"
         sodipodi:nodetypes="cscccsssssccsssccsc" /><path
         style="fill:url(#pattern4);fill-opacity:1;stroke:none;stroke-width:2.04449;stroke-linecap:round;stroke-linejoin:bevel;stroke-opacity:0.913725;paint-order:markers stroke fill"
         d="m 159.452,288.32279 c -3.2e-4,-0.29168 -0.45871,-2.75772 -1.01864,-5.48008 -1.94833,-9.47265 -2.91431,-31.6547 -2.92016,-61.17085 -0.005,-26.23007 1.31485,-47.80964 2.17915,-48.67394 0.37142,-0.37142 6.50277,3.29828 11.15939,6.67906 2.17913,1.58208 6.2399,6.29922 11.37622,13.21503 4.39311,5.91511 9.46368,12.10708 11.26792,13.75995 5.79193,5.30597 10.12621,4.11639 20.81586,-5.71312 5.69283,-5.23474 6.92292,-5.75838 6.30832,-2.68541 -0.45214,2.26075 -57.5222,90.59969 -58.53057,90.59969 -0.3503,0 -0.63717,-0.23865 -0.63749,-0.53033 z"
         id="path3"
         sodipodi:nodetypes="sscssssssss"
         transform="scale(0.26458333)" /></g><path
       style="fill:#ac39ac;fill-opacity:1;stroke:none;stroke-width:0.182696;stroke-linecap:round;stroke-linejoin:bevel;stroke-opacity:0.913725;paint-order:markers stroke fill"
       d="m 55.52211,68.102912 c 0.310145,-0.07388 0.74176,-0.35224 0.931146,-0.600539 0.614061,-0.805075 0.784515,-2.008381 0.577655,-4.077905 -0.05037,-0.50392 -0.153173,-1.755032 -0.228452,-2.780249 -0.196068,-2.670238 -0.121593,-3.782952 0.315748,-4.717529 0.197487,-0.422021 0.242832,-0.455672 0.787745,-0.584619 0.608743,-0.144051 0.825876,-0.467414 0.573005,-0.853342 -0.329699,-0.503184 -2.369011,-1.544808 -3.833793,-1.958195 -0.541414,-0.152795 -0.634309,-0.163274 -0.789842,-0.08909 -0.258261,0.123177 -0.265888,0.398017 -0.02174,0.783011 0.241653,0.381046 0.241507,0.534578 -10e-4,0.994543 -0.282536,0.536009 -0.356452,0.782629 -0.437162,1.458608 -0.07214,0.604186 -0.0086,1.795681 0.122003,2.289146 0.02876,0.108659 0.03293,0.228891 0.0093,0.267187 -0.04918,0.07956 -1.078305,0.173895 -1.236175,0.113318 -0.09507,-0.03649 -0.09557,-0.05242 -0.0056,-0.180922 0.14463,-0.206491 0.122218,-0.410409 -0.05809,-0.528553 -0.138986,-0.09106 -0.28418,-0.41896 -0.285168,-0.643987 -2.53e-4,-0.04419 0.07074,-0.112722 0.157616,-0.152312 0.2006,-0.09141 0.205405,-0.241253 0.0078,-0.241253 -0.219901,0 -0.302197,-0.135646 -0.256326,-0.422504 0.02955,-0.184802 0.01409,-0.26815 -0.06132,-0.330736 -0.182478,-0.151443 -0.124003,-0.368876 0.136136,-0.506207 0.130324,-0.06881 0.194301,-0.129152 0.142171,-0.134112 -0.05213,-0.0051 -0.165867,-0.01333 -0.252751,-0.01859 -0.175328,-0.01061 -0.184356,-0.08082 -0.0527,-0.409669 0.08128,-0.203006 0.07691,-0.217139 -0.12228,-0.395113 l -0.206557,-0.184576 0.190547,-0.11588 c 0.21374,-0.129984 0.190873,-0.199676 -0.06552,-0.199676 -0.244271,0 -0.343525,-0.355822 -0.174675,-0.626195 0.06195,-0.09918 0.04681,-0.151649 -0.09095,-0.315379 -0.196655,-0.233714 -0.281796,-0.691094 -0.19157,-1.029127 0.0556,-0.208287 0.04641,-0.252115 -0.07708,-0.36814 -0.185595,-0.174357 -0.338332,-0.997192 -0.229459,-1.236145 0.110649,-0.242856 0.0874,-0.393114 -0.07754,-0.501194 -0.104691,-0.06859 -0.170443,-0.197877 -0.217669,-0.427972 -0.05979,-0.29134 -0.05337,-0.349601 0.05522,-0.500896 0.154521,-0.215183 0.155751,-0.302699 0.0042,-0.302699 -0.06525,0 -0.145933,-0.03555 -0.179296,-0.07899 -0.08258,-0.107515 -0.398116,-1.803728 -0.355969,-1.913552 0.01854,-0.04831 0.08951,-0.105549 0.157721,-0.127199 0.155607,-0.04939 0.119424,-0.180128 -0.05707,-0.206196 -0.07295,-0.01073 -0.15942,-0.05343 -0.19216,-0.09478 -0.03272,-0.04135 -0.149943,-0.558575 -0.260463,-1.149377 -0.110518,-0.590803 -0.256403,-1.336709 -0.324188,-1.657569 -0.06779,-0.32086 -0.123664,-0.733158 -0.124177,-0.916218 -0.0011,-0.406926 -0.146062,-1.045121 -0.309196,-1.361622 -0.157635,-0.305831 -0.483123,-0.614345 -0.777824,-0.737261 -0.291996,-0.121788 -0.98024,-0.126242 -1.419887,-0.0092 -0.395174,0.105212 -1.192933,0.465662 -1.290316,0.583002 -0.05438,0.06553 -0.03285,0.09849 0.09644,0.147646 0.306296,0.116454 0.279322,0.248832 -0.125902,0.617895 -0.513572,0.467741 -0.874346,0.694342 -1.329373,0.834972 -0.617595,0.190873 -1.814574,0.33838 -2.804629,0.345623 -0.718022,0.0052 -0.984563,0.03171 -1.232156,0.122312 -0.501712,0.183592 -1.222302,0.553482 -1.401158,0.719241 -0.152201,0.141055 -0.156583,0.159631 -0.06034,0.255871 0.08756,0.08755 0.264202,0.104063 1.130171,0.105631 1.129761,0.002 1.399943,-0.05373 2.068988,-0.427082 0.19115,-0.10667 0.489712,-0.215511 0.663476,-0.241873 1.239839,-0.188097 2.163066,-0.390555 2.472995,-0.542312 0.190173,-0.09312 0.567922,-0.362535 0.839441,-0.598703 0.833652,-0.725107 1.539454,-0.935423 2.029941,-0.604884 0.403348,0.271817 0.435922,0.379502 0.750156,2.479893 0.0728,0.486544 0.287414,1.922479 0.476941,3.190967 0.803411,5.377129 1.207554,8.06722 1.329013,8.846244 0.351886,2.256988 0.852976,5.719587 0.852976,5.894174 0,0.115355 -0.03531,0.245039 -0.07845,0.28819 -0.07742,0.07742 -0.0191,0.152263 0.170371,0.218647 0.03317,0.01168 0.06401,0.252302 0.06852,0.534839 0.0045,0.282538 0.03808,0.550726 0.07459,0.595973 0.03651,0.04525 0.142026,0.56565 0.234469,1.156452 0.289668,1.851295 0.332744,1.977229 0.854934,2.499419 0.559244,0.559244 1.273335,0.821472 2.209735,0.811455 0.332535,-0.0035 0.694691,-0.02792 0.804788,-0.05415 z m -1.606033,-2.27559 c -0.328353,-0.149047 -0.368951,-0.235218 -0.513525,-1.090007 l -0.114593,-0.677555 0.152183,-0.255201 c 0.183702,-0.308051 0.15148,-0.465876 -0.145889,-0.714613 -0.334725,-0.279982 -0.450028,-0.901032 -0.221276,-1.191842 0.199655,-0.253821 0.186599,-0.376805 -0.05739,-0.540553 -0.281499,-0.188926 -0.409511,-0.506803 -0.26818,-0.665941 0.05402,-0.06082 0.157774,-0.110911 0.230582,-0.111328 0.07281,-3.79e-4 0.278419,-0.03963 0.456913,-0.08716 0.178495,-0.04753 0.360345,-0.06428 0.404113,-0.03724 0.04971,0.03073 0.171043,0.685507 0.32331,1.744798 0.134054,0.93259 0.299441,2.038365 0.367529,2.457276 0.127018,0.781472 0.118514,0.990877 -0.04807,1.183428 -0.121419,0.140349 -0.231559,0.137611 -0.565712,-0.01406 z m -1.366106,-5.632206 c -0.04635,-0.131788 -0.02515,-0.211176 0.109267,-0.408977 0.09173,-0.134992 0.166784,-0.277716 0.166784,-0.31716 0,-0.03944 -0.112901,-0.14643 -0.250894,-0.23775 -0.141091,-0.09338 -0.237277,-0.201522 -0.219778,-0.247119 0.03964,-0.103309 1.166487,-0.4496 1.236196,-0.37989 0.07048,0.07048 0.266155,1.408466 0.213682,1.461139 -0.05806,0.05828 -0.990225,0.313571 -1.104276,0.302424 -0.0514,-0.0051 -0.119354,-0.08273 -0.150985,-0.172667 z"
       id="path4" /></g></svg>
