<?xml version="1.0" encoding="UTF-8" standalone="no"?>
<!-- Created with Inkscape (http://www.inkscape.org/) -->

<svg
   width="32mm"
   height="32mm"
   viewBox="0 0 32 32"
   version="1.1"
   id="svg1"
   xml:space="preserve"
   inkscape:version="1.3.1 (9b9bdc1480, 2023-11-25, custom)"
   sodipodi:docname="shop_mobile_phone.svg"
   xmlns:inkscape="http://www.inkscape.org/namespaces/inkscape"
   xmlns:sodipodi="http://sodipodi.sourceforge.net/DTD/sodipodi-0.dtd"
   xmlns="http://www.w3.org/2000/svg"
   xmlns:svg="http://www.w3.org/2000/svg"><sodipodi:namedview
     id="namedview1"
     pagecolor="#ffffff"
     bordercolor="#666666"
     borderopacity="1.0"
     inkscape:showpageshadow="2"
     inkscape:pageopacity="0.0"
     inkscape:pagecheckerboard="0"
     inkscape:deskcolor="#d1d1d1"
     inkscape:document-units="mm"
     inkscape:zoom="1.3394531"
     inkscape:cx="34.342374"
     inkscape:cy="41.434821"
     inkscape:window-width="1318"
     inkscape:window-height="719"
     inkscape:window-x="48"
     inkscape:window-y="27"
     inkscape:window-maximized="1"
     inkscape:current-layer="layer1" /><defs
     id="defs1"><inkscape:path-effect
       effect="fillet_chamfer"
       id="path-effect21"
       is_visible="true"
       lpeversion="1"
       nodesatellites_param="F,0,0,1,0,0.56672322,0,1 @ F,0,0,1,0,0.56672322,0,1 @ F,0,0,1,0,0.56672322,0,1 @ F,0,0,1,0,0.56672322,0,1 @ F,0,0,1,0,0.56672322,0,1 | F,0,0,1,0,0.55416526,0,1 @ F,0,0,1,0,0.55416526,0,1 @ F,0,0,1,0,0.55416526,0,1 @ F,0,0,1,0,0.55416526,0,1 | F,0,1,1,0,0.51017699,0,1 @ F,0,1,1,0,0.51017699,0,1 @ F,0,1,1,0,0.51017699,0,1 @ F,0,1,1,0,0.51017699,0,1 @ F,0,1,1,0,0.51017699,0,1 | F,0,0,1,0,0.5783343,0,1 @ F,0,0,1,0,0.5783343,0,1 @ F,0,0,1,0,0.46649307,0,1 @ F,0,0,1,0,0.42927363,0,1 | F,0,0,1,0,0.55416526,0,1 @ F,0,0,1,0,0.55416526,0,1 @ F,0,0,1,0,0.55416526,0,1 @ F,0,0,1,0,0.55416526,0,1 | F,0,1,1,0,0.51017699,0,1 @ F,0,1,1,0,0.51017699,0,1 @ F,0,1,1,0,0.51017699,0,1 @ F,0,1,1,0,0.51017699,0,1 | F,0,0,1,0,0.45322667,0,1 @ F,0,0,1,0,0.45322667,0,1 @ F,0,0,1,0,0.45322667,0,1 @ F,0,0,1,0,0.45322667,0,1 @ F,0,0,1,0,0.45322667,0,1 | F,0,0,1,0,0.55416526,0,1 @ F,0,0,1,0,0.55416526,0,1 @ F,0,0,1,0,0.55416526,0,1 @ F,0,0,1,0,0.55416526,0,1 | F,0,0,1,0,0.51017699,0,1 @ F,0,1,1,0,0.51017699,0,1 @ F,0,1,1,0,0.51017699,0,1 @ F,0,1,1,0,0.51017699,0,1 @ F,0,1,1,0,0.51017699,0,1"
       radius="0"
       unit="px"
       method="auto"
       mode="F"
       chamfer_steps="1"
       flexible="false"
       use_knot_distance="true"
       apply_no_radius="true"
       apply_with_radius="true"
       only_selected="false"
       hide_knots="false" /></defs><g
     inkscape:label="Livello 1"
     inkscape:groupmode="layer"
     id="layer1"><path
       id="rect15"
       style="fill:#ac39ac;fill-opacity:1;stroke:none;stroke-width:1.81;stroke-linecap:round;stroke-linejoin:bevel;stroke-dasharray:none;stroke-opacity:0.913725;paint-order:markers stroke fill"
       d="m 22.180061,0.64462434 c -0.53873,-0.099356 -1.052411,0.254355 -1.151767,0.79308346 L 20.581359,3.8610731 13.50049,2.5551694 C 12.803123,2.426556 12.138373,2.8848494 12.009761,3.5822158 L 7.5026831,28.020489 c -0.128614,0.697367 0.328919,1.362639 1.026287,1.491253 l 9.9699219,1.838723 c 0.697365,0.128613 1.362757,-0.329562 1.491371,-1.026929 L 24.49734,5.8852629 C 24.625953,5.1878964 24.167777,4.5225052 23.470412,4.3938924 l -0.18666,-0.034425 0.446935,-2.4233653 C 23.830048,1.3973739 23.476331,0.88369184 22.937602,0.78433574 Z M 13.53477,3.4661766 17.256411,4.1525479 c 0.556024,1.2184318 1.294701,1.1219562 2.121247,0.3912152 l 3.735754,0.688974 c 0.312567,0.057646 0.519807,0.3462632 0.464387,0.6467625 l -2.22769,12.0789814 c -0.05542,0.300501 -0.351864,0.495561 -0.664431,0.437914 L 11.107035,16.629836 C 10.794467,16.572196 10.587749,16.284333 10.64317,15.983833 L 12.870861,3.904851 c 0.05542,-0.3004993 0.35134,-0.4963204 0.663909,-0.4386744 z m 5.820525,16.2608554 c 0.31419,0.05628 0.679314,0.152187 0.771854,0.368428 0.05103,0.119209 0.06511,0.264067 0.05805,0.42477 -0.01443,0.328828 -0.129119,0.853314 -0.18886,1.177262 l -0.0847,0.459264 c -0.05956,0.324339 -0.371014,0.538796 -0.695262,0.478742 l -1.351651,-0.249279 c -0.324047,-0.05985 -0.538161,-0.371136 -0.47815,-0.695153 l 0.299685,-1.62495 c 0.06006,-0.326498 0.369505,-0.545556 0.697408,-0.493706 l 0.68643,0.108773 c 0.08134,0.01286 0.180467,0.0271 0.285204,0.04582 z m -7.382565,-1.32223 c 0.116455,0.01934 0.224945,0.04139 0.314889,0.05807 l 0.456294,0.08415 c 0.360013,0.0667 0.597887,0.412498 0.531451,0.77256 l -0.275799,1.49543 c -0.06629,0.360021 -0.411982,0.598059 -0.771964,0.531559 L 11.036365,21.12687 c -0.359725,-0.06658 -0.597416,-0.412102 -0.530963,-0.771849 l 0.06082,-0.329745 c 0.06637,-0.35985 0.145449,-0.956967 0.300128,-1.287594 0.04337,-0.09269 0.09445,-0.172943 0.15687,-0.237693 0.182049,-0.188833 0.600139,-0.153103 0.949511,-0.09519 z m 2.937769,0.542992 1.366505,0.25202 c 0.351973,0.0647 0.584823,0.402523 0.52004,0.754482 l -0.281058,1.523949 c -0.06474,0.352206 -0.402945,0.585085 -0.755076,0.519931 l -1.366504,-0.252021 c -0.351913,-0.06503 -0.584447,-0.403068 -0.519336,-0.754966 l 0.281058,-1.523949 c 0.06499,-0.351681 0.402645,-0.584186 0.754371,-0.519446 z m -4.022849,3.062074 1.335608,0.246322 c 0.272504,0.05015 0.452803,0.311657 0.402778,0.584184 l -0.298809,1.620198 c -0.05456,0.296357 -0.339124,0.492302 -0.635447,0.437556 l -1.292829,-0.238432 c -0.36715,-0.06776 -0.6098877,-0.420282 -0.5422202,-0.787449 l 0.2434742,-1.320159 c 0.06776,-0.367148 0.420279,-0.609886 0.787445,-0.54222 z m 3.344367,0.616791 1.366503,0.25202 c 0.351974,0.0647 0.584824,0.402523 0.520041,0.754482 l -0.253663,1.375416 c -0.06475,0.352206 -0.402947,0.585085 -0.755078,0.51993 L 13.743317,25.276486 C 13.391404,25.211456 13.15887,24.873418 13.223981,24.52152 l 0.253665,-1.375415 c 0.06499,-0.351681 0.402644,-0.584186 0.754371,-0.519446 z m 3.470325,0.640021 1.351651,0.249282 c 0.324106,0.05952 0.538534,0.370589 0.478852,0.694666 l -0.272291,1.476417 c -0.05956,0.32434 -0.371012,0.538799 -0.695261,0.478745 l -1.35165,-0.249282 c -0.324047,-0.05985 -0.538161,-0.371135 -0.47815,-0.695152 l 0.272291,-1.476417 c 0.05981,-0.323814 0.370712,-0.537899 0.694558,-0.478259 z m -7.609122,2.244624 1.452058,0.2678 c 0.28776,0.05309 0.478012,0.329384 0.424957,0.61715 l -0.29311,1.589303 c -0.05302,0.286316 -0.330107,0.473845 -0.615615,0.416639 L 10.454178,28.280915 C 10.167232,28.223479 9.6673943,28.15004 9.4701579,27.940322 9.3415534,27.803581 9.2785409,27.620711 9.2630801,27.407587 9.2419617,27.116492 9.344886,26.647608 9.3979571,26.359824 l 0.078129,-0.423616 c 0.053086,-0.287761 0.3293832,-0.478014 0.6171492,-0.424957 z m 3.488148,0.643309 1.366503,0.252021 c 0.351973,0.0647 0.584822,0.402523 0.520039,0.754482 l -0.250266,1.356996 c -0.06474,0.352206 -0.402945,0.585085 -0.755076,0.51993 l -1.366504,-0.252019 c -0.351913,-0.06503 -0.584447,-0.403068 -0.519335,-0.754966 l 0.250266,-1.356996 c 0.06499,-0.351683 0.402645,-0.584189 0.754373,-0.519448 z m 3.470325,0.640022 1.351649,0.249281 c 0.324108,0.05952 0.538537,0.37059 0.478853,0.694668 l -0.05391,0.292312 c -0.05974,0.323947 -0.137405,0.856487 -0.248864,1.166196 -0.05038,0.139969 -0.114257,0.2572 -0.201882,0.341815 -0.227213,0.219425 -0.820181,0.07762 -1.143844,0.01635 l -0.667743,-0.126837 c -0.324066,-0.06142 -0.537575,-0.373174 -0.477711,-0.69753 l 0.268894,-1.457998 c 0.05981,-0.323816 0.370713,-0.537901 0.694559,-0.478259 z"
       sodipodi:nodetypes="sscscccsccsccsssccsccccccscccscccccccccccccccccsscccccccccccccccccccccccccccccccccccccccccccccssccccccccccccccccssccccccc" /></g></svg>
