<?xml version="1.0" encoding="UTF-8" standalone="no"?>
<!-- Created with Inkscape (http://www.inkscape.org/) -->

<svg
   width="32"
   height="32"
   viewBox="0 0 32 32.000001"
   id="svg2"
   version="1.1"
   inkscape:version="1.3.1 (9b9bdc1480, 2023-11-25, custom)"
   sodipodi:docname="shop_butcher.svg"
   xml:space="preserve"
   xmlns:inkscape="http://www.inkscape.org/namespaces/inkscape"
   xmlns:sodipodi="http://sodipodi.sourceforge.net/DTD/sodipodi-0.dtd"
   xmlns="http://www.w3.org/2000/svg"
   xmlns:svg="http://www.w3.org/2000/svg"
   xmlns:rdf="http://www.w3.org/1999/02/22-rdf-syntax-ns#"
   xmlns:cc="http://creativecommons.org/ns#"
   xmlns:dc="http://purl.org/dc/elements/1.1/"><defs
     id="defs4"><inkscape:path-effect
       effect="fillet_chamfer"
       id="path-effect23"
       is_visible="true"
       lpeversion="1"
       nodesatellites_param="F,0,0,1,0,0,0,1 @ F,0,0,1,0,0.43057958,0,1 @ F,0,0,1,0,0.44218541,0,1 @ F,0,0,1,0,0,0,1 @ F,0,0,1,0,0,0,1 @ F,0,0,1,0,0,0,1 @ F,0,0,1,0,0,0,1 @ F,0,0,1,0,0,0,1 @ F,0,0,1,0,0,0,1 @ F,0,0,1,0,0,0,1"
       radius="0"
       unit="px"
       method="auto"
       mode="F"
       chamfer_steps="1"
       flexible="false"
       use_knot_distance="true"
       apply_no_radius="true"
       apply_with_radius="true"
       only_selected="false"
       hide_knots="false" /><inkscape:path-effect
       effect="fillet_chamfer"
       id="path-effect22"
       is_visible="true"
       lpeversion="1"
       nodesatellites_param="F,0,0,1,0,0,0,1 @ F,0,0,1,0,0,0,1 @ F,0,0,1,0,0,0,1 @ F,0,0,1,0,0.94651484,0,1 @ F,0,0,1,0,0.8500894,0,1 @ F,0,0,1,0,0.68193774,0,1 @ F,0,0,1,0,0.68193774,0,1 @ F,0,1,1,0,0.33620128,0,1 @ F,0,1,1,0,0.33620128,0,1 @ F,0,0,1,0,0.86386139,0,1 @ F,0,0,1,0,0.94385482,0,1 @ F,0,0,1,0,0,0,1 @ F,0,0,1,0,0,0,1"
       radius="0"
       unit="px"
       method="auto"
       mode="F"
       chamfer_steps="1"
       flexible="false"
       use_knot_distance="true"
       apply_no_radius="true"
       apply_with_radius="true"
       only_selected="false"
       hide_knots="false" /><inkscape:path-effect
       effect="fillet_chamfer"
       id="path-effect14"
       is_visible="true"
       lpeversion="1"
       nodesatellites_param="F,0,0,1,0,0.69167553,0,1 @ F,0,0,1,0,0.77102447,0,1 @ F,0,0,1,0,0.77395666,0,1 @ F,0,0,1,0,0.80542345,0,1 @ F,0,0,1,0,0.61263567,0,1"
       radius="0"
       unit="px"
       method="auto"
       mode="F"
       chamfer_steps="1"
       flexible="false"
       use_knot_distance="true"
       apply_no_radius="true"
       apply_with_radius="true"
       only_selected="false"
       hide_knots="false" /><inkscape:path-effect
       effect="fillet_chamfer"
       id="path-effect13"
       is_visible="true"
       lpeversion="1"
       nodesatellites_param="F,0,0,1,0,0,0,1 @ F,0,0,1,0,0,0,1 @ F,0,0,1,0,0,0,1 @ F,0,0,1,0,0,0,1 @ F,0,0,1,0,0,0,1 @ F,0,0,1,0,0,0,1 @ F,0,0,1,0,0,0,1 @ F,0,0,1,0,0,0,1 @ F,0,0,1,0,0,0,1 @ F,0,0,1,0,0,0,1 @ F,0,0,1,0,0,0,1 @ F,0,0,1,0,0,0,1 @ F,0,0,1,0,0,0,1 @ F,0,0,1,0,0,0,1 @ F,0,0,1,0,0,0,1 @ F,0,0,1,0,0,0,1 @ F,0,0,1,0,0,0,1 @ F,0,0,1,0,0,0,1 @ F,0,0,1,0,0,0,1 @ F,0,0,1,0,0,0,1 @ F,0,0,1,0,0,0,1 @ F,0,0,1,0,0,0,1 @ F,0,0,1,0,0,0,1 @ F,0,0,1,0,0,0,1 @ F,0,0,1,0,0,0,1 @ F,0,0,1,0,0,0,1 @ F,0,0,1,0,0,0,1 @ F,0,0,1,0,0,0,1 @ F,0,0,1,0,0,0,1 @ F,0,0,1,0,0,0,1 @ F,0,0,1,0,0,0,1 @ F,0,0,1,0,0,0,1 @ F,0,0,1,0,0,0,1 @ F,0,0,1,0,0,0,1 @ F,0,0,1,0,0,0,1 @ F,0,0,1,0,0,0,1 @ F,0,0,1,0,0,0,1 @ F,0,0,1,0,0,0,1 @ F,0,0,1,0,0,0,1 @ F,0,0,1,0,0,0,1 @ F,0,0,1,0,0,0,1"
       radius="0"
       unit="px"
       method="auto"
       mode="F"
       chamfer_steps="1"
       flexible="false"
       use_knot_distance="true"
       apply_no_radius="true"
       apply_with_radius="true"
       only_selected="false"
       hide_knots="false" /><inkscape:path-effect
       effect="fillet_chamfer"
       id="path-effect12"
       is_visible="true"
       lpeversion="1"
       nodesatellites_param="F,0,0,1,0,0,0,1 @ F,0,0,1,0,0,0,1 @ F,0,0,1,0,0,0,1 @ F,0,0,1,0,0,0,1 @ F,0,0,1,0,0,0,1 @ F,0,0,1,0,0,0,1 @ F,0,0,1,0,0,0,1 @ F,0,0,1,0,0,0,1 @ F,0,0,1,0,0,0,1 @ F,0,0,1,0,0,0,1 @ F,0,0,1,0,0,0,1 | F,0,0,1,0,0,0,1 @ F,0,0,1,0,0,0,1 @ F,0,0,1,0,0,0,1 @ F,0,0,1,0,0,0,1 @ F,0,0,1,0,0,0,1 @ F,0,0,1,0,0,0,1 @ F,0,0,1,0,0,0,1 @ F,0,0,1,0,0,0,1 @ F,0,0,1,0,0,0,1 | F,0,0,1,0,1.0714599,0,1 @ F,0,0,1,0,0.32501445,0,1 @ F,0,0,1,0,0.52505136,0,1 @ F,0,0,1,0,0.34488101,0,1 | F,0,0,1,0,0.37035257,0,1 @ F,0,0,1,0,0.3961333,0,1 @ F,0,0,1,0,0.41541052,0,1 @ F,0,0,1,0,0.34638595,0,1 | F,0,0,1,0,0,0,1 @ F,0,0,1,0,0,0,1 @ F,0,0,1,0,0,0,1 @ F,0,0,1,0,0,0,1 | F,0,0,1,0,0,0,1 @ F,0,0,1,0,0,0,1 @ F,0,0,1,0,0,0,1 @ F,0,0,1,0,0,0,1 | F,0,0,1,0,0.38002097,0,1 @ F,0,0,1,0,0.19335585,0,1 @ F,0,0,1,0,0.36547336,0,1 @ F,0,0,1,0,0.31023223,0,1 | F,0,0,1,0,0.31490615,0,1 @ F,0,0,1,0,0.17982706,0,1 @ F,0,0,1,0,0.25333788,0,1 @ F,0,0,1,0,0.29452287,0,1 | F,0,0,1,0,0.19809338,0,1 @ F,0,0,1,0,0.13171657,0,1 @ F,0,0,1,0,0.19913686,0,1 @ F,0,0,1,0,0.20182932,0,1 | F,0,0,1,0,0.18220144,0,1 @ F,0,0,1,0,0.18866345,0,1 @ F,0,0,1,0,0.18291735,0,1 @ F,0,0,1,0,0.18793134,0,1"
       radius="0"
       unit="px"
       method="auto"
       mode="F"
       chamfer_steps="1"
       flexible="false"
       use_knot_distance="true"
       apply_no_radius="true"
       apply_with_radius="true"
       only_selected="false"
       hide_knots="false" /><inkscape:path-effect
       effect="fillet_chamfer"
       id="path-effect4"
       is_visible="true"
       lpeversion="1"
       nodesatellites_param="F,0,0,1,0,1.2157455,0,1 @ F,0,0,1,0,0.87364157,0,1 @ F,0,0,1,0,0.76994398,0,1 @ F,0,0,1,0,1.2564157,0,1"
       radius="0"
       unit="px"
       method="auto"
       mode="F"
       chamfer_steps="1"
       flexible="false"
       use_knot_distance="true"
       apply_no_radius="true"
       apply_with_radius="true"
       only_selected="false"
       hide_knots="false" /><inkscape:path-effect
       effect="fillet_chamfer"
       id="path-effect3"
       is_visible="true"
       lpeversion="1"
       nodesatellites_param="F,0,0,1,0,0,0,1 @ F,0,0,1,0,0.81522384,0,1 @ F,0,0,1,0,0,0,1 @ F,0,0,1,0,0,0,1 @ F,0,0,1,0,0,0,1 @ F,0,0,1,0,0,0,1 @ F,0,0,1,0,0,0,1 @ F,0,0,1,0,3.2404649,0,1 @ F,0,0,1,0,0,0,1"
       radius="0"
       unit="px"
       method="auto"
       mode="F"
       chamfer_steps="1"
       flexible="false"
       use_knot_distance="true"
       apply_no_radius="true"
       apply_with_radius="true"
       only_selected="false"
       hide_knots="false" /></defs><sodipodi:namedview
     id="base"
     pagecolor="#ffffff"
     bordercolor="#666666"
     borderopacity="1.0"
     inkscape:pageopacity="0.0"
     inkscape:pageshadow="2"
     inkscape:zoom="2.6396476"
     inkscape:cx="5.6825767"
     inkscape:cy="1.704773"
     inkscape:document-units="px"
     inkscape:current-layer="layer1"
     showgrid="false"
     inkscape:window-width="1318"
     inkscape:window-height="719"
     inkscape:window-x="48"
     inkscape:window-y="27"
     inkscape:window-maximized="1"
     units="px"
     inkscape:showpageshadow="2"
     inkscape:pagecheckerboard="0"
     inkscape:deskcolor="#d1d1d1"
     showguides="false" /><metadata
     id="metadata7"><rdf:RDF><cc:Work
         rdf:about=""><dc:format>image/svg+xml</dc:format><dc:type
           rdf:resource="http://purl.org/dc/dcmitype/StillImage" /></cc:Work></rdf:RDF></metadata><g
     inkscape:label="Calque 1"
     inkscape:groupmode="layer"
     id="layer1"
     transform="translate(0,-1020.3622)"><circle
       id="path2"
       style="fill:#333333;stroke:#333333"
       cx="4.6894412"
       cy="1024.6318"
       r="0" /><g
       id="path7-6"
       transform="matrix(3.7795276,0,0,3.7795276,-41.579914,960.98054)" /><g
       id="path19-0"
       transform="matrix(3.7795276,0,0,3.7795276,-53.498159,962.02598)" /><g
       id="rect22-0-4"
       transform="matrix(-3.7795276,0,0,3.7795276,62.388813,962.89591)" /><g
       id="rect22-7-4"
       transform="matrix(-3.7795276,0,0,3.7795276,63.084564,962.02527)" /><g
       id="path26-4"
       transform="matrix(3.7795276,0,0,3.7795276,-53.498159,962.02598)" /><g
       id="path52-1-4"
       transform="matrix(-3.7795276,0,0,3.7795276,29.638537,962.02598)" /><g
       id="g91"
       style="fill:#ac39ac;fill-opacity:1"
       transform="matrix(2.704934,0,0,2.704934,-41.473236,993.89851)"><path
         style="fill:#ac39ac;fill-opacity:1;stroke:none;stroke-width:0.322374;stroke-linecap:round;stroke-linejoin:round;stroke-dasharray:none;stroke-dashoffset:6.03213;stroke-opacity:1;paint-order:markers stroke fill"
         d="M 75.793008,74.818256 C 70.962496,74.249582 65.603375,71.08266 62.777516,67.126873 60.559187,64.021537 60.004582,60.568538 61.223653,57.452426 l 0.345788,-0.883884 1.228259,-1.046473 c 0.675542,-0.57556 1.459528,-1.161246 1.742191,-1.301523 0.282663,-0.140279 0.891793,-0.534608 1.353622,-0.876287 1.39931,-1.035264 3.261205,-1.8685 4.930983,-2.206715 0.47215,-0.09563 1.574399,-0.236183 2.449444,-0.312331 3.520998,-0.306402 4.078786,-0.425869 7.999145,-1.713252 4.910866,-1.612649 6.665598,-2.038768 8.415212,-2.043547 0.511249,-0.0014 0.721955,-0.05849 1.530932,-0.414823 0.91353,-0.402386 0.960871,-0.437676 1.808231,-1.347922 1.093178,-1.174306 1.639172,-1.525706 2.381459,-1.532698 0.638934,-0.006 1.084509,0.246308 1.499139,0.848952 0.213551,0.310386 0.361804,0.420007 0.7316,0.540961 2.261222,0.739609 3.034642,2.365103 1.786077,3.753804 -0.6953,0.773342 -1.306689,1.000775 -3.232656,1.202532 -0.323024,0.03384 -0.60844,0.127862 -0.795495,0.262059 -0.160447,0.115107 -0.616545,0.379018 -1.013552,0.586469 -0.714242,0.373218 -0.722461,0.381409 -0.781979,0.77928 -0.10148,0.678383 -0.462359,1.70077 -0.79711,2.258252 -0.720198,1.199386 -2.391702,3.336362 -3.767902,4.817165 -1.075075,1.156791 -1.526013,1.750093 -1.855,2.440638 -0.30439,0.638915 -0.644761,1.972753 -0.786888,3.083634 -0.314162,2.455533 -0.655869,3.49562 -1.91656,5.833631 -0.845008,1.567109 -1.322575,2.243651 -1.805972,2.55842 -0.210688,0.137192 -0.626838,0.51373 -0.924775,0.836752 -0.684579,0.742215 -1.285146,1.049188 -2.371993,1.212415 -0.848464,0.127426 -2.629933,0.142503 -3.582845,0.03032 z m 3.241876,-1.064973 c 1.193421,-0.164291 1.903525,-0.621148 2.351379,-1.512799 0.395718,-0.787851 0.531285,-1.495561 0.530087,-2.767243 -0.0016,-1.725906 -0.406024,-3.189494 -1.400657,-5.06924 -1.377817,-2.603917 -3.247007,-4.927887 -4.798367,-5.965826 -1.481729,-0.991352 -4.072266,-2.058587 -6.475723,-2.667832 -1.573186,-0.398782 -3.250672,-0.477328 -4.494976,-0.210473 -0.34164,0.07327 -0.601378,0.243209 -1.357723,0.888324 -0.903466,0.7706 -0.944036,0.820768 -1.193245,1.475502 -1.202146,3.158336 -0.357552,6.595152 2.394076,9.741954 3.592856,4.108843 9.804249,6.726516 14.445149,6.087633 z M 91.923881,50.861925 c 0.739158,-0.220901 1.900786,-0.774327 2.592682,-1.235213 0.598905,-0.398942 1.212401,-0.581005 2.224483,-0.660143 0.891577,-0.06972 1.488261,-0.301027 1.855522,-0.719314 0.681534,-0.776225 0.332626,-1.40624 -1.095482,-1.978082 -0.365333,-0.146287 -0.776634,-0.288454 -0.914002,-0.315928 -0.193388,-0.03868 -0.308935,-0.163031 -0.511938,-0.550958 -0.241873,-0.462206 -0.288333,-0.50316 -0.599902,-0.528813 -0.402,-0.0331 -0.650942,0.134993 -1.431362,0.966486 -1.211785,1.291086 -1.264334,1.329855 -2.547498,1.879411 -0.690618,0.295779 -1.271262,0.600674 -1.34662,0.707107 -0.171295,0.241931 -0.517251,1.372353 -0.442786,1.446818 0.03139,0.03139 0.23535,0.0094 0.453246,-0.04889 0.690437,-0.184664 0.651528,-0.217794 0.835759,0.711632 0.05541,0.279528 0.14764,0.508809 0.204961,0.509513 0.05732,7.04e-4 0.382642,-0.08193 0.722937,-0.183626 z"
         id="path86"
         transform="scale(0.26458333)" /><path
         style="fill:#ac39ac;fill-opacity:1;stroke:none;stroke-width:0.141334;stroke-linecap:round;stroke-linejoin:round;stroke-dasharray:none;stroke-dashoffset:6.03213;stroke-opacity:1;paint-order:markers stroke fill"
         d="m 17.549512,16.29315 c 0,-0.05598 0.196255,-0.141321 0.389558,-0.16941 0.417337,-0.06064 0.789694,0.134269 0.97066,0.508094 0.08317,0.171811 0.08276,0.17812 0.01423,0.230041 -1.10304,0.835743 -1.374453,-0.368394 -1.374453,-0.568725 z"
         id="path87"
         sodipodi:nodetypes="sssss" /></g></g></svg>
