<?xml version="1.0" encoding="UTF-8" standalone="no"?>
<!-- Created with Inkscape (http://www.inkscape.org/) -->

<svg
   width="32"
   height="32"
   viewBox="0 0 32 32.000001"
   id="svg2"
   version="1.1"
   inkscape:version="1.3.1 (9b9bdc1480, 2023-11-25, custom)"
   sodipodi:docname="shop_copyshop.svg"
   xml:space="preserve"
   xmlns:inkscape="http://www.inkscape.org/namespaces/inkscape"
   xmlns:sodipodi="http://sodipodi.sourceforge.net/DTD/sodipodi-0.dtd"
   xmlns="http://www.w3.org/2000/svg"
   xmlns:svg="http://www.w3.org/2000/svg"
   xmlns:rdf="http://www.w3.org/1999/02/22-rdf-syntax-ns#"
   xmlns:cc="http://creativecommons.org/ns#"
   xmlns:dc="http://purl.org/dc/elements/1.1/"><defs
     id="defs4"><inkscape:path-effect
       effect="fillet_chamfer"
       id="path-effect5"
       is_visible="true"
       lpeversion="1"
       nodesatellites_param="F,0,0,1,0,1.3635198,0,1 @ F,0,0,1,0,0,0,1 @ F,0,0,1,0,1.2402675,0,1"
       radius="0"
       unit="px"
       method="auto"
       mode="F"
       chamfer_steps="1"
       flexible="false"
       use_knot_distance="true"
       apply_no_radius="true"
       apply_with_radius="true"
       only_selected="false"
       hide_knots="false" /><inkscape:path-effect
       effect="fillet_chamfer"
       id="path-effect23"
       is_visible="true"
       lpeversion="1"
       nodesatellites_param="F,0,0,1,0,0,0,1 @ F,0,0,1,0,0.43057958,0,1 @ F,0,0,1,0,0.44218541,0,1 @ F,0,0,1,0,0,0,1 @ F,0,0,1,0,0,0,1 @ F,0,0,1,0,0,0,1 @ F,0,0,1,0,0,0,1 @ F,0,0,1,0,0,0,1 @ F,0,0,1,0,0,0,1 @ F,0,0,1,0,0,0,1"
       radius="0"
       unit="px"
       method="auto"
       mode="F"
       chamfer_steps="1"
       flexible="false"
       use_knot_distance="true"
       apply_no_radius="true"
       apply_with_radius="true"
       only_selected="false"
       hide_knots="false" /><inkscape:path-effect
       effect="fillet_chamfer"
       id="path-effect22"
       is_visible="true"
       lpeversion="1"
       nodesatellites_param="F,0,0,1,0,0,0,1 @ F,0,0,1,0,0,0,1 @ F,0,0,1,0,0,0,1 @ F,0,0,1,0,0.94651484,0,1 @ F,0,0,1,0,0.8500894,0,1 @ F,0,0,1,0,0.68193774,0,1 @ F,0,0,1,0,0.68193774,0,1 @ F,0,1,1,0,0.33620128,0,1 @ F,0,1,1,0,0.33620128,0,1 @ F,0,0,1,0,0.86386139,0,1 @ F,0,0,1,0,0.94385482,0,1 @ F,0,0,1,0,0,0,1 @ F,0,0,1,0,0,0,1"
       radius="0"
       unit="px"
       method="auto"
       mode="F"
       chamfer_steps="1"
       flexible="false"
       use_knot_distance="true"
       apply_no_radius="true"
       apply_with_radius="true"
       only_selected="false"
       hide_knots="false" /><inkscape:path-effect
       effect="fillet_chamfer"
       id="path-effect14"
       is_visible="true"
       lpeversion="1"
       nodesatellites_param="F,0,0,1,0,0.69167553,0,1 @ F,0,0,1,0,0.77102447,0,1 @ F,0,0,1,0,0.77395666,0,1 @ F,0,0,1,0,0.80542345,0,1 @ F,0,0,1,0,0.61263567,0,1"
       radius="0"
       unit="px"
       method="auto"
       mode="F"
       chamfer_steps="1"
       flexible="false"
       use_knot_distance="true"
       apply_no_radius="true"
       apply_with_radius="true"
       only_selected="false"
       hide_knots="false" /><inkscape:path-effect
       effect="fillet_chamfer"
       id="path-effect13"
       is_visible="true"
       lpeversion="1"
       nodesatellites_param="F,0,0,1,0,0,0,1 @ F,0,0,1,0,0,0,1 @ F,0,0,1,0,0,0,1 @ F,0,0,1,0,0,0,1 @ F,0,0,1,0,0,0,1 @ F,0,0,1,0,0,0,1 @ F,0,0,1,0,0,0,1 @ F,0,0,1,0,0,0,1 @ F,0,0,1,0,0,0,1 @ F,0,0,1,0,0,0,1 @ F,0,0,1,0,0,0,1 @ F,0,0,1,0,0,0,1 @ F,0,0,1,0,0,0,1 @ F,0,0,1,0,0,0,1 @ F,0,0,1,0,0,0,1 @ F,0,0,1,0,0,0,1 @ F,0,0,1,0,0,0,1 @ F,0,0,1,0,0,0,1 @ F,0,0,1,0,0,0,1 @ F,0,0,1,0,0,0,1 @ F,0,0,1,0,0,0,1 @ F,0,0,1,0,0,0,1 @ F,0,0,1,0,0,0,1 @ F,0,0,1,0,0,0,1 @ F,0,0,1,0,0,0,1 @ F,0,0,1,0,0,0,1 @ F,0,0,1,0,0,0,1 @ F,0,0,1,0,0,0,1 @ F,0,0,1,0,0,0,1 @ F,0,0,1,0,0,0,1 @ F,0,0,1,0,0,0,1 @ F,0,0,1,0,0,0,1 @ F,0,0,1,0,0,0,1 @ F,0,0,1,0,0,0,1 @ F,0,0,1,0,0,0,1 @ F,0,0,1,0,0,0,1 @ F,0,0,1,0,0,0,1 @ F,0,0,1,0,0,0,1 @ F,0,0,1,0,0,0,1 @ F,0,0,1,0,0,0,1 @ F,0,0,1,0,0,0,1"
       radius="0"
       unit="px"
       method="auto"
       mode="F"
       chamfer_steps="1"
       flexible="false"
       use_knot_distance="true"
       apply_no_radius="true"
       apply_with_radius="true"
       only_selected="false"
       hide_knots="false" /><inkscape:path-effect
       effect="fillet_chamfer"
       id="path-effect12"
       is_visible="true"
       lpeversion="1"
       nodesatellites_param="F,0,0,1,0,0,0,1 @ F,0,0,1,0,0,0,1 @ F,0,0,1,0,0,0,1 @ F,0,0,1,0,0,0,1 @ F,0,0,1,0,0,0,1 @ F,0,0,1,0,0,0,1 @ F,0,0,1,0,0,0,1 @ F,0,0,1,0,0,0,1 @ F,0,0,1,0,0,0,1 @ F,0,0,1,0,0,0,1 @ F,0,0,1,0,0,0,1 | F,0,0,1,0,0,0,1 @ F,0,0,1,0,0,0,1 @ F,0,0,1,0,0,0,1 @ F,0,0,1,0,0,0,1 @ F,0,0,1,0,0,0,1 @ F,0,0,1,0,0,0,1 @ F,0,0,1,0,0,0,1 @ F,0,0,1,0,0,0,1 @ F,0,0,1,0,0,0,1 | F,0,0,1,0,1.0714599,0,1 @ F,0,0,1,0,0.32501445,0,1 @ F,0,0,1,0,0.52505136,0,1 @ F,0,0,1,0,0.34488101,0,1 | F,0,0,1,0,0.37035257,0,1 @ F,0,0,1,0,0.3961333,0,1 @ F,0,0,1,0,0.41541052,0,1 @ F,0,0,1,0,0.34638595,0,1 | F,0,0,1,0,0,0,1 @ F,0,0,1,0,0,0,1 @ F,0,0,1,0,0,0,1 @ F,0,0,1,0,0,0,1 | F,0,0,1,0,0,0,1 @ F,0,0,1,0,0,0,1 @ F,0,0,1,0,0,0,1 @ F,0,0,1,0,0,0,1 | F,0,0,1,0,0.38002097,0,1 @ F,0,0,1,0,0.19335585,0,1 @ F,0,0,1,0,0.36547336,0,1 @ F,0,0,1,0,0.31023223,0,1 | F,0,0,1,0,0.31490615,0,1 @ F,0,0,1,0,0.17982706,0,1 @ F,0,0,1,0,0.25333788,0,1 @ F,0,0,1,0,0.29452287,0,1 | F,0,0,1,0,0.19809338,0,1 @ F,0,0,1,0,0.13171657,0,1 @ F,0,0,1,0,0.19913686,0,1 @ F,0,0,1,0,0.20182932,0,1 | F,0,0,1,0,0.18220144,0,1 @ F,0,0,1,0,0.18866345,0,1 @ F,0,0,1,0,0.18291735,0,1 @ F,0,0,1,0,0.18793134,0,1"
       radius="0"
       unit="px"
       method="auto"
       mode="F"
       chamfer_steps="1"
       flexible="false"
       use_knot_distance="true"
       apply_no_radius="true"
       apply_with_radius="true"
       only_selected="false"
       hide_knots="false" /><inkscape:path-effect
       effect="fillet_chamfer"
       id="path-effect4"
       is_visible="true"
       lpeversion="1"
       nodesatellites_param="F,0,0,1,0,1.2157455,0,1 @ F,0,0,1,0,0.87364157,0,1 @ F,0,0,1,0,0.76994398,0,1 @ F,0,0,1,0,1.2564157,0,1"
       radius="0"
       unit="px"
       method="auto"
       mode="F"
       chamfer_steps="1"
       flexible="false"
       use_knot_distance="true"
       apply_no_radius="true"
       apply_with_radius="true"
       only_selected="false"
       hide_knots="false" /><inkscape:path-effect
       effect="fillet_chamfer"
       id="path-effect3"
       is_visible="true"
       lpeversion="1"
       nodesatellites_param="F,0,0,1,0,0,0,1 @ F,0,0,1,0,0.81522384,0,1 @ F,0,0,1,0,0,0,1 @ F,0,0,1,0,0,0,1 @ F,0,0,1,0,0,0,1 @ F,0,0,1,0,0,0,1 @ F,0,0,1,0,0,0,1 @ F,0,0,1,0,3.2404649,0,1 @ F,0,0,1,0,0,0,1"
       radius="0"
       unit="px"
       method="auto"
       mode="F"
       chamfer_steps="1"
       flexible="false"
       use_knot_distance="true"
       apply_no_radius="true"
       apply_with_radius="true"
       only_selected="false"
       hide_knots="false" /><filter
       inkscape:collect="always"
       style="color-interpolation-filters:sRGB"
       id="filter18"
       x="-0.096936208"
       y="-0.062752026"
       width="1.1938724"
       height="1.1255041"><feGaussianBlur
         inkscape:collect="always"
         stdDeviation="0.38197008"
         id="feGaussianBlur18" /></filter></defs><sodipodi:namedview
     id="base"
     pagecolor="#ffffff"
     bordercolor="#666666"
     borderopacity="1.0"
     inkscape:pageopacity="0.0"
     inkscape:pageshadow="2"
     inkscape:zoom="5.2792952"
     inkscape:cx="25.571595"
     inkscape:cy="3.1254172"
     inkscape:document-units="px"
     inkscape:current-layer="layer1"
     showgrid="false"
     inkscape:window-width="1318"
     inkscape:window-height="719"
     inkscape:window-x="48"
     inkscape:window-y="27"
     inkscape:window-maximized="1"
     units="px"
     inkscape:showpageshadow="2"
     inkscape:pagecheckerboard="0"
     inkscape:deskcolor="#d1d1d1"
     showguides="false" /><metadata
     id="metadata7"><rdf:RDF><cc:Work
         rdf:about=""><dc:format>image/svg+xml</dc:format><dc:type
           rdf:resource="http://purl.org/dc/dcmitype/StillImage" /></cc:Work></rdf:RDF></metadata><g
     inkscape:label="Calque 1"
     inkscape:groupmode="layer"
     id="layer1"
     transform="translate(0,-1020.3622)"><circle
       id="path2"
       style="fill:#333333;stroke:#333333"
       cx="4.6894412"
       cy="1024.6318"
       r="0" /><g
       id="path7-6"
       transform="matrix(3.7795276,0,0,3.7795276,-41.579914,960.98054)" /><g
       id="path19-0"
       transform="matrix(3.7795276,0,0,3.7795276,-53.498159,962.02598)" /><g
       id="rect22-0-4"
       transform="matrix(-3.7795276,0,0,3.7795276,62.388813,962.89591)" /><g
       id="rect22-7-4"
       transform="matrix(-3.7795276,0,0,3.7795276,63.084564,962.02527)" /><g
       id="path26-4"
       transform="matrix(3.7795276,0,0,3.7795276,-53.498159,962.02598)" /><g
       id="path52-1-4"
       transform="matrix(-3.7795276,0,0,3.7795276,29.638537,962.02598)" /><g
       id="path7-6-6"
       transform="matrix(1.3233876,0,0,1.3233876,-4.8370295,1013.8143)" /><g
       inkscape:label="Livello 1"
       id="layer1-1"
       transform="matrix(3.7795276,0,0,3.7795276,-41.731612,1053.986)"><g
         id="path19" /></g><g
       id="g20"
       transform="translate(-1.6822669,1.4010141)"><path
         id="rect18-1"
         style="mix-blend-mode:normal;fill:#ac39ac;fill-opacity:1;stroke:#ac39ac;stroke-width:1.1;stroke-linecap:round;stroke-linejoin:round;stroke-dasharray:none;stroke-opacity:1;paint-order:markers stroke fill;filter:url(#filter18)"
         d="m 14.570312,1022.1161 v 3.2344 h 4.757813 c 0.138348,2e-4 0.271546,0.053 0.373047,0.1465 0.782934,-0.1282 1.618629,-0.1953 2.513672,-0.1953 1.166668,0 2.145832,0.1562 2.9375,0.4687 0.812501,0.2916 1.458332,0.7188 1.9375,1.2813 0.5,0.5417 0.854166,1.1978 1.0625,1.9687 0.208334,0.75 0.3125,1.5833 0.3125,2.5 v 10.1563 c -0.250001,0.042 -0.604167,0.1042 -1.0625,0.1875 -0.437501,0.062 -0.9375,0.125 -1.5,0.1875 -0.562501,0.062 -1.177083,0.1145 -1.84375,0.1562 -0.645835,0.062 -1.291667,0.096 -1.9375,0.096 -0.8055,0 -1.551249,-0.078 -2.244141,-0.2226 v 3.4082 h 9.824219 v -23.3731 z m 7.394532,5.6856 c -0.771474,0 -1.464931,0.05 -2.087891,0.1445 v 4.459 c 0.05089,-0.012 0.0987,-0.027 0.150391,-0.039 0.833334,-0.1875 1.708332,-0.2812 2.625,-0.2812 0.291666,0 0.593749,0.019 0.90625,0.061 0.312499,0.021 0.604166,0.062 0.875,0.125 0.291666,0.042 0.541666,0.083 0.75,0.125 0.208334,0.042 0.354166,0.073 0.4375,0.094 v -0.8125 c 0,-0.4792 -0.05208,-0.948 -0.15625,-1.4063 -0.104167,-0.4792 -0.291667,-0.8959 -0.5625,-1.25 -0.270834,-0.375 -0.645834,-0.6667 -1.125,-0.875 -0.458335,-0.2292 -1.0625,-0.3437 -1.8125,-0.3437 z m 0.9375,6.625 c -0.437501,0 -0.90625,0.033 -1.40625,0.096 -0.479168,0.062 -0.927084,0.196 -1.34375,0.4043 -0.09549,0.045 -0.187171,0.095 -0.275391,0.1503 v 4.2657 c 0.652937,0.3474 1.514313,0.5215 2.587891,0.5215 0.6875,0 1.291665,-0.01 1.8125,-0.029 0.541667,-0.042 0.989582,-0.1042 1.34375,-0.1875 v -4.8438 c -0.208334,-0.1042 -0.552084,-0.1875 -1.03125,-0.25 -0.458335,-0.083 -1.020833,-0.125 -1.6875,-0.125 z"
         sodipodi:nodetypes="ccccscccsccccscccccscccsccscscccscccccscccccc" /><g
         id="rect18"><path
           style="color:#000000;fill:#ac39ac;stroke-linecap:round;stroke-linejoin:round;-inkscape-stroke:none;paint-order:markers stroke fill"
           d="m 4.1966331,1025.9 v 23.373 H 19.327492 V 1025.9 Z m 7.6445309,3.1855 c 1.166669,0 2.145831,0.1563 2.9375,0.4688 0.812502,0.2916 1.458332,0.7187 1.9375,1.2812 0.500001,0.5417 0.854166,1.1979 1.0625,1.9688 0.208334,0.75 0.3125,1.5833 0.3125,2.5 v 10.1562 c -0.250001,0.042 -0.604166,0.1042 -1.0625,0.1875 -0.437501,0.062 -0.937499,0.125 -1.5,0.1875 -0.562501,0.062 -1.177082,0.1146 -1.84375,0.1563 -0.645835,0.062 -1.291666,0.094 -1.937499,0.094 -0.916669,0 -1.7604156,-0.094 -2.5312506,-0.2812 -0.7708351,-0.1875 -1.4374988,-0.4792 -2,-0.875 -0.5625013,-0.4167 -0.9999994,-0.9584 -1.3125,-1.625 -0.3125007,-0.6667 -0.4687501,-1.4688 -0.46875,-2.4063 0,-0.8958 0.1770825,-1.6667 0.53125,-2.3125 0.3750008,-0.6458 0.8749986,-1.1667 1.5,-1.5625 0.6250013,-0.3958 1.3541648,-0.6875 2.1875,-0.875 0.8333346,-0.1875 1.7083316,-0.2812 2.6249996,-0.2812 0.291667,0 0.593749,0.021 0.90625,0.062 0.3125,0.021 0.604166,0.062 0.875,0.125 0.291667,0.042 0.541666,0.083 0.75,0.125 0.208334,0.042 0.354166,0.073 0.4375,0.094 v -0.8125 c 0,-0.4792 -0.05208,-0.9479 -0.15625,-1.4062 -0.104167,-0.4792 -0.291666,-0.8959 -0.5625,-1.25 -0.270834,-0.375 -0.645833,-0.6667 -1.125,-0.875 -0.458335,-0.2292 -1.062499,-0.3438 -1.812499,-0.3438 -0.958336,0 -1.8020824,0.073 -2.5312506,0.2188 -0.7083349,0.125 -1.2395826,0.2604 -1.59375,0.4062 l -0.34375,-2.4062 c 0.3750008,-0.1667 0.999998,-0.323 1.875,-0.4688 0.8750019,-0.1667 1.8229146,-0.25 2.8437496,-0.25 z m 0.6875,9.125 c -0.437501,0 -0.906248,0.031 -1.406249,0.094 -0.479168,0.062 -0.927083,0.1979 -1.3437506,0.4062 -0.3958342,0.1875 -0.7291661,0.4583 -1,0.8125 -0.270834,0.3333 -0.4062501,0.7813 -0.40625,1.3438 0,1.0416 0.3333318,1.7708 1,2.1875 0.6666676,0.3958 1.5729136,0.5937 2.7187496,0.5937 0.687501,0 1.291665,-0.01 1.8125,-0.031 0.541668,-0.042 0.989582,-0.1042 1.34375,-0.1875 v -4.8438 c -0.208334,-0.1042 -0.552083,-0.1875 -1.03125,-0.25 -0.458335,-0.083 -1.020832,-0.125 -1.6875,-0.125 z"
           id="path20" /></g></g></g></svg>
