<?xml version="1.0" encoding="UTF-8" standalone="no"?>
<!-- Created with Inkscape (http://www.inkscape.org/) -->

<svg
   width="32mm"
   height="32mm"
   viewBox="0 0 32 32"
   version="1.1"
   id="svg1"
   xml:space="preserve"
   inkscape:version="1.3.1 (9b9bdc1480, 2023-11-25, custom)"
   sodipodi:docname="shop_photo.svg"
   xmlns:inkscape="http://www.inkscape.org/namespaces/inkscape"
   xmlns:sodipodi="http://sodipodi.sourceforge.net/DTD/sodipodi-0.dtd"
   xmlns="http://www.w3.org/2000/svg"
   xmlns:svg="http://www.w3.org/2000/svg"><sodipodi:namedview
     id="namedview1"
     pagecolor="#ffffff"
     bordercolor="#666666"
     borderopacity="1.0"
     inkscape:showpageshadow="2"
     inkscape:pageopacity="0.0"
     inkscape:pagecheckerboard="0"
     inkscape:deskcolor="#d1d1d1"
     inkscape:document-units="mm"
     showguides="true"
     inkscape:zoom="1.4142136"
     inkscape:cx="19.79899"
     inkscape:cy="85.913474"
     inkscape:window-width="1318"
     inkscape:window-height="719"
     inkscape:window-x="48"
     inkscape:window-y="27"
     inkscape:window-maximized="1"
     inkscape:current-layer="layer1"
     showgrid="false"><sodipodi:guide
       position="21.324843,29.746031"
       orientation="0,-1"
       id="guide8"
       inkscape:locked="false" /><sodipodi:guide
       position="0.45003611,24.90516"
       orientation="1,0"
       id="guide36"
       inkscape:locked="false" /><sodipodi:guide
       position="29.485911,9.5526053"
       orientation="1,0"
       id="guide37"
       inkscape:locked="false" /><sodipodi:guide
       position="8.9802559,1.7851799"
       orientation="0,-1"
       id="guide38"
       inkscape:locked="false" /><sodipodi:guide
       position="12.464872,5.3716509"
       orientation="0,-1"
       id="guide45"
       inkscape:locked="false" /><sodipodi:guide
       position="32.171697,15.989473"
       orientation="0,-1"
       id="guide46"
       inkscape:locked="false" /><sodipodi:guide
       position="4.9261733,27.506351"
       orientation="1,0"
       id="guide47"
       inkscape:locked="false" /><sodipodi:guide
       position="55.115328,-17.201583"
       orientation="1,0"
       id="guide48"
       inkscape:locked="false" /></sodipodi:namedview><defs
     id="defs1"><inkscape:perspective
       sodipodi:type="inkscape:persp3d"
       inkscape:vp_x="-183.11487 : 148.50001 : 1"
       inkscape:vp_y="0 : 1000 : 0"
       inkscape:vp_z="-195.51426 : 148.50001 : 1"
       inkscape:persp3d-origin="-189.31457 : 99.000003 : 1"
       id="perspective10172" /><symbol
       id="Recycling"><title
         id="title7498">Recycling</title><g
         style="stroke:none"
         id="g7512"><path
           style="stroke-width:0.26458332"
           inkscape:connector-curvature="0"
           d="m 14.684375,3.9026042 -1.389063,0.79375 -0.926041,-1.5875 C 12.236979,2.8773437 11.972396,2.7119792 11.608594,2.7119792 H 8.8304687 C 9.0289062,2.9104167 9.0619792,2.9765625 9.1611979,3.1419271 L 10.88099,6.1184896 9.4919271,6.9122396 H 12.93151 Z"
           id="path7500" /><path
           style="stroke-width:0.26458332"
           inkscape:connector-curvature="0"
           d="m 14.254427,12.038542 h 1.389063 c 0.826822,0 1.322916,-0.892969 0.926041,-1.5875 l -1.752864,-3.069167 -2.38125,1.3890625 z"
           id="path7502" /><path
           style="stroke-width:0.26458332"
           inkscape:connector-curvature="0"
           d="m 12.170833,17.065625 v -1.5875 h 1.852084 c 0.264583,0 0.529166,-0.132292 0.727604,-0.463021 l 1.389062,-2.38125 C 15.875,12.7 15.775781,12.7 15.610417,12.7 h -3.439584 v -1.5875 l -1.719791,2.976562 z"
           id="path7504" /><path
           style="stroke-width:0.26458332"
           inkscape:connector-curvature="0"
           d="m 5.3578125,12.7 -0.6945313,1.190625 c -0.396875,0.727604 0.099219,1.5875 0.8929688,1.5875 H 9.0619792 V 12.7 Z"
           id="path7506" /><path
           style="stroke-width:0.26458332"
           inkscape:connector-curvature="0"
           d="m 2.0505208,8.4005208 1.3890625,0.79375 -0.9260416,1.5875002 C 2.38125,11.013281 2.38125,11.310937 2.5466146,11.641667 l 1.3559896,2.38125 c 0.066146,-0.264584 0.099219,-0.33073 0.1984375,-0.496094 L 5.8208333,10.55026 7.2098958,11.34401 5.4901042,8.3674479 Z"
           id="path7508" /><path
           style="stroke-width:0.26458332"
           inkscape:connector-curvature="0"
           d="M 9.2604167,4.6302083 8.5989583,3.4395833 c -0.4299479,-0.6945312 -1.4221354,-0.6945312 -1.8190104,0 l -1.7528646,3.0427084 2.38125,1.3890625 z"
           id="path7510" /></g></symbol><inkscape:perspective
       id="perspective8310"
       inkscape:persp3d-origin="372.04724 : 350.7874 : 1"
       inkscape:vp_z="744.09447 : 526.18111 : 1"
       inkscape:vp_y="0 : 1000 : 0"
       inkscape:vp_x="0 : 526.18111 : 1"
       sodipodi:type="inkscape:persp3d" /><inkscape:perspective
       id="perspective5302"
       inkscape:persp3d-origin="372.04724 : 350.7874 : 1"
       inkscape:vp_z="744.09447 : 526.18111 : 1"
       inkscape:vp_y="0 : 1000 : 0"
       inkscape:vp_x="0 : 526.18111 : 1"
       sodipodi:type="inkscape:persp3d" /><symbol
       id="ToiletsMen"><title
         id="title4892">Toilets - Men</title><g
         style="stroke:none"
         id="g4898"><circle
           cx="36"
           cy="9"
           r="5"
           id="circle4894" /><path
           d="m 24,22 v 15.5 a 2.25,2.25 0 0 0 4.5,0 V 23 h 1 v 39.5 a 3,3 0 0 0 6,0 V 40 h 1 v 22.5 a 3,3 0 0 0 6,0 V 23 h 1 v 14.5 a 2.25,2.25 0 0 0 4.5,0 V 22 A 7,7 0 0 0 41,15 H 31 a 7,7 0 0 0 -7,7 z"
           id="path4896"
           inkscape:connector-curvature="0" /></g></symbol><inkscape:perspective
       sodipodi:type="inkscape:persp3d"
       inkscape:vp_x="0 : 100 : 1"
       inkscape:vp_y="0 : 1000 : 0"
       inkscape:vp_z="200 : 100 : 1"
       inkscape:persp3d-origin="100 : 66.666667 : 1"
       id="perspective2879" /></defs><g
     inkscape:label="Livello 1"
     inkscape:groupmode="layer"
     id="layer1"><g
       id="path19" /><g
       id="rect22-0"
       transform="matrix(-1,0,0,1,30.661761,0.23016813)" /><g
       id="rect22-7"
       transform="matrix(-1,0,0,1,30.845845,-1.8811487e-4)" /><g
       id="path26" /><g
       id="path52"
       transform="translate(-38.081357,-6.611757)" /><g
       id="path52-1"
       transform="matrix(-1,0,0,1,21.996584,0)" /><g
       id="path19-0"
       transform="translate(3.6443103,6.1232351)" /><g
       id="rect22-0-8"
       transform="matrix(-1,0,0,1,34.306071,6.3534032)" /><g
       id="rect22-7-5"
       transform="matrix(-1,0,0,1,34.490155,6.123047)" /><g
       id="path26-0"
       transform="translate(3.6443103,6.1232351)" /><g
       id="path52-1-6"
       transform="matrix(-1,0,0,1,25.640894,6.1232351)" /><g
       id="path7-6"
       transform="translate(-27.436615,5.5770687)" /><g
       id="g40-6-7"
       transform="translate(0.115617,-0.13948398)" /><path
       id="path6"
       style="fill:#ac39ac;fill-opacity:1;stroke:none;stroke-width:0.718441;stroke-linecap:round;stroke-linejoin:bevel;stroke-opacity:0.913725;paint-order:markers stroke fill"
       d="m 24.897419,92.293903 c -0.435005,0.155739 -0.810448,-0.03258 -1.307747,0.07286 -0.497299,0.105436 -2.469714,-1.675325 -2.469714,-1.675325 -1.0489,0.275052 -0.274079,3.825661 -0.09165,4.235653 0.959441,2.156253 1.096742,4.079289 -2.491599,4.446927 -1.852875,0.189832 -4.679462,0.744254 -8.034364,5.219064 -1.7058978,2.27534 -1.4692538,4.50226 -2.2969878,6.67937 -1.2990412,2.45113 -3.3730808,3.28667 -5.6888441,4.46779 -2.20466033,1.23221 -1.83603803,4.0465 -1.0807929,4.24698 0.6843481,0.18166 0.7481422,0.176 0.9085066,-0.0835 0.1693872,-0.27408 -1.2944043,-0.78823 -0.1819925,-2.13198 1.2092753,-1.179 2.8110884,-1.60986 4.3260838,-2.19313 1.1664641,-0.60857 2.9946541,-1.34395 3.0652401,-0.2844 0.03804,0.57088 1.9095788,0.3868 5.3699928,0.3868 h 4.444499 l -0.02815,-0.595 c -0.06032,-1.26305 -2.697623,0.52753 -2.263016,-1.71073 0.141077,-0.72655 1.986695,-2.37587 2.844908,-2.81967 1.032126,-0.53373 2.207675,0.053 2.50907,1.70151 0.166706,0.91184 1.993883,3.45554 2.325136,3.45883 0.599333,0.006 0.616256,0.0519 0.916758,-0.0267 0.658697,-0.17225 0.851618,-0.80641 -0.167434,-2.11014 -0.759218,-0.97131 -0.768732,-1.0209 -0.768732,-3.87281 -0.23133,-5.70513 3.188384,-5.776 2.728785,-11.985693 -0.08029,-1.084794 1.467858,-2.659987 0.644144,-3.743796 -0.435246,-0.572617 -0.568788,-3.488676 -0.568788,-3.488676 -1.187055,-0.324875 -1.286835,1.320092 -2.643311,1.805734 z"
       sodipodi:nodetypes="sscsssccssccssccssscsscsccss" /><path
       id="rect7"
       style="fill:#ac39ac;fill-opacity:1;stroke:none;stroke-width:0.765;stroke-linecap:round;stroke-linejoin:bevel;stroke-opacity:0.913725;paint-order:markers stroke fill"
       d="M 12.227677 5.9572591 L 11.163143 7.801591 L 7.911145 7.801591 L 7.911145 6.3055583 L 5.8854289 6.3055583 L 5.8854289 7.8119263 C 3.7254495 7.9193582 2.0272664 9.2695737 2.0272664 10.934733 L 2.0272664 22.909196 C 2.0272664 24.645002 3.8711027 26.042338 6.161381 26.042338 L 25.838733 26.042338 C 28.12901 26.042338 29.972847 24.645002 29.972847 22.909196 L 29.972847 10.934733 C 29.972847 9.5123535 28.734055 8.3185805 27.026774 7.9333659 L 27.026774 6.3618856 L 23.921537 6.3618856 L 23.921537 7.801591 L 20.385319 7.801591 L 19.320785 5.9572591 L 12.227677 5.9572591 z M 14.787728 6.7887329 L 17.165877 6.7887329 L 17.165877 7.801591 L 14.787728 7.801591 L 14.787728 6.7887329 z M 18.606616 10.615889 A 6.3961821 6.3961821 0 0 1 25.002608 17.011882 A 6.3961821 6.3961821 0 0 1 18.606616 23.407874 A 6.3961821 6.3961821 0 0 1 12.210624 17.011882 A 6.3961821 6.3961821 0 0 1 18.606616 10.615889 z M 4.9779907 10.8474 L 9.7678792 10.8474 L 9.7678792 13.421403 L 4.9779907 13.421403 L 4.9779907 10.8474 z M 18.606616 13.115995 A 3.8958924 3.8958924 0 0 0 15.71687 14.433228 C 15.718864 14.450152 15.719225 14.466929 15.721521 14.48387 C 15.902974 15.822768 17.071976 16.927555 18.423165 16.866671 C 18.422937 16.862881 18.422343 16.85909 18.422131 16.855302 L 18.421098 16.848067 L 18.421615 16.848067 C 18.344584 15.3996 19.471878 14.151862 20.873661 13.88339 A 3.8958924 3.8958924 0 0 0 18.606616 13.115995 z M 21.165116 14.106632 C 21.133029 14.109906 21.101151 14.11106 21.068998 14.115417 C 19.740389 14.295476 18.642476 15.447563 18.685164 16.785539 L 18.693949 16.783988 C 18.695807 16.795229 18.696889 16.806354 18.6986 16.817578 C 20.177236 16.72939 21.451364 17.896152 21.69325 19.33422 A 3.8958924 3.8958924 0 0 0 22.502502 17.011882 A 3.8958924 3.8958924 0 0 0 21.165116 14.106632 z M 15.496729 14.720032 A 3.8958924 3.8958924 0 0 0 14.71073 17.011882 A 3.8958924 3.8958924 0 0 0 15.92771 19.825146 C 15.978172 19.820962 16.028485 19.818573 16.079122 19.811711 C 17.407736 19.631652 18.505133 18.479052 18.462439 17.141073 L 18.453654 17.142623 C 18.453025 17.13882 18.452715 17.135055 18.452104 17.131254 C 17.018492 17.206378 15.781187 16.102259 15.496729 14.720032 z M 18.746143 17.080611 L 18.749243 17.098698 C 18.741834 17.099923 18.734424 17.100638 18.727022 17.101799 C 18.79187 18.557595 17.642128 19.806186 16.224849 20.05304 A 3.8958924 3.8958924 0 0 0 18.606616 20.907768 A 3.8958924 3.8958924 0 0 0 21.463289 19.633944 C 21.458952 19.577145 21.456032 19.520439 21.448303 19.463411 C 21.266803 18.124171 20.09777 17.019113 18.746143 17.080611 z " /></g></svg>
