<?xml version="1.0" encoding="UTF-8" standalone="no"?>
<!-- Created with Inkscape (http://www.inkscape.org/) -->

<svg
   width="32"
   height="32"
   viewBox="0 0 32 32.000001"
   id="svg2"
   version="1.1"
   inkscape:version="1.3.1 (9b9bdc1480, 2023-11-25, custom)"
   sodipodi:docname="shop_bicycle.16.svg"
   xml:space="preserve"
   xmlns:inkscape="http://www.inkscape.org/namespaces/inkscape"
   xmlns:sodipodi="http://sodipodi.sourceforge.net/DTD/sodipodi-0.dtd"
   xmlns="http://www.w3.org/2000/svg"
   xmlns:svg="http://www.w3.org/2000/svg"
   xmlns:rdf="http://www.w3.org/1999/02/22-rdf-syntax-ns#"
   xmlns:cc="http://creativecommons.org/ns#"
   xmlns:dc="http://purl.org/dc/elements/1.1/"><defs
     id="defs4"><inkscape:path-effect
       effect="fillet_chamfer"
       id="path-effect23"
       is_visible="true"
       lpeversion="1"
       nodesatellites_param="F,0,0,1,0,0,0,1 @ F,0,0,1,0,0.43057958,0,1 @ F,0,0,1,0,0.44218541,0,1 @ F,0,0,1,0,0,0,1 @ F,0,0,1,0,0,0,1 @ F,0,0,1,0,0,0,1 @ F,0,0,1,0,0,0,1 @ F,0,0,1,0,0,0,1 @ F,0,0,1,0,0,0,1 @ F,0,0,1,0,0,0,1"
       radius="0"
       unit="px"
       method="auto"
       mode="F"
       chamfer_steps="1"
       flexible="false"
       use_knot_distance="true"
       apply_no_radius="true"
       apply_with_radius="true"
       only_selected="false"
       hide_knots="false" /><inkscape:path-effect
       effect="fillet_chamfer"
       id="path-effect22"
       is_visible="true"
       lpeversion="1"
       nodesatellites_param="F,0,0,1,0,0,0,1 @ F,0,0,1,0,0,0,1 @ F,0,0,1,0,0,0,1 @ F,0,0,1,0,0.94651484,0,1 @ F,0,0,1,0,0.8500894,0,1 @ F,0,0,1,0,0.68193774,0,1 @ F,0,0,1,0,0.68193774,0,1 @ F,0,1,1,0,0.33620128,0,1 @ F,0,1,1,0,0.33620128,0,1 @ F,0,0,1,0,0.86386139,0,1 @ F,0,0,1,0,0.94385482,0,1 @ F,0,0,1,0,0,0,1 @ F,0,0,1,0,0,0,1"
       radius="0"
       unit="px"
       method="auto"
       mode="F"
       chamfer_steps="1"
       flexible="false"
       use_knot_distance="true"
       apply_no_radius="true"
       apply_with_radius="true"
       only_selected="false"
       hide_knots="false" /><inkscape:path-effect
       effect="fillet_chamfer"
       id="path-effect14"
       is_visible="true"
       lpeversion="1"
       nodesatellites_param="F,0,0,1,0,0.69167553,0,1 @ F,0,0,1,0,0.77102447,0,1 @ F,0,0,1,0,0.77395666,0,1 @ F,0,0,1,0,0.80542345,0,1 @ F,0,0,1,0,0.61263567,0,1"
       radius="0"
       unit="px"
       method="auto"
       mode="F"
       chamfer_steps="1"
       flexible="false"
       use_knot_distance="true"
       apply_no_radius="true"
       apply_with_radius="true"
       only_selected="false"
       hide_knots="false" /><inkscape:path-effect
       effect="fillet_chamfer"
       id="path-effect13"
       is_visible="true"
       lpeversion="1"
       nodesatellites_param="F,0,0,1,0,0,0,1 @ F,0,0,1,0,0,0,1 @ F,0,0,1,0,0,0,1 @ F,0,0,1,0,0,0,1 @ F,0,0,1,0,0,0,1 @ F,0,0,1,0,0,0,1 @ F,0,0,1,0,0,0,1 @ F,0,0,1,0,0,0,1 @ F,0,0,1,0,0,0,1 @ F,0,0,1,0,0,0,1 @ F,0,0,1,0,0,0,1 @ F,0,0,1,0,0,0,1 @ F,0,0,1,0,0,0,1 @ F,0,0,1,0,0,0,1 @ F,0,0,1,0,0,0,1 @ F,0,0,1,0,0,0,1 @ F,0,0,1,0,0,0,1 @ F,0,0,1,0,0,0,1 @ F,0,0,1,0,0,0,1 @ F,0,0,1,0,0,0,1 @ F,0,0,1,0,0,0,1 @ F,0,0,1,0,0,0,1 @ F,0,0,1,0,0,0,1 @ F,0,0,1,0,0,0,1 @ F,0,0,1,0,0,0,1 @ F,0,0,1,0,0,0,1 @ F,0,0,1,0,0,0,1 @ F,0,0,1,0,0,0,1 @ F,0,0,1,0,0,0,1 @ F,0,0,1,0,0,0,1 @ F,0,0,1,0,0,0,1 @ F,0,0,1,0,0,0,1 @ F,0,0,1,0,0,0,1 @ F,0,0,1,0,0,0,1 @ F,0,0,1,0,0,0,1 @ F,0,0,1,0,0,0,1 @ F,0,0,1,0,0,0,1 @ F,0,0,1,0,0,0,1 @ F,0,0,1,0,0,0,1 @ F,0,0,1,0,0,0,1 @ F,0,0,1,0,0,0,1"
       radius="0"
       unit="px"
       method="auto"
       mode="F"
       chamfer_steps="1"
       flexible="false"
       use_knot_distance="true"
       apply_no_radius="true"
       apply_with_radius="true"
       only_selected="false"
       hide_knots="false" /><inkscape:path-effect
       effect="fillet_chamfer"
       id="path-effect12"
       is_visible="true"
       lpeversion="1"
       nodesatellites_param="F,0,0,1,0,0,0,1 @ F,0,0,1,0,0,0,1 @ F,0,0,1,0,0,0,1 @ F,0,0,1,0,0,0,1 @ F,0,0,1,0,0,0,1 @ F,0,0,1,0,0,0,1 @ F,0,0,1,0,0,0,1 @ F,0,0,1,0,0,0,1 @ F,0,0,1,0,0,0,1 @ F,0,0,1,0,0,0,1 @ F,0,0,1,0,0,0,1 | F,0,0,1,0,0,0,1 @ F,0,0,1,0,0,0,1 @ F,0,0,1,0,0,0,1 @ F,0,0,1,0,0,0,1 @ F,0,0,1,0,0,0,1 @ F,0,0,1,0,0,0,1 @ F,0,0,1,0,0,0,1 @ F,0,0,1,0,0,0,1 @ F,0,0,1,0,0,0,1 | F,0,0,1,0,1.0714599,0,1 @ F,0,0,1,0,0.32501445,0,1 @ F,0,0,1,0,0.52505136,0,1 @ F,0,0,1,0,0.34488101,0,1 | F,0,0,1,0,0.37035257,0,1 @ F,0,0,1,0,0.3961333,0,1 @ F,0,0,1,0,0.41541052,0,1 @ F,0,0,1,0,0.34638595,0,1 | F,0,0,1,0,0,0,1 @ F,0,0,1,0,0,0,1 @ F,0,0,1,0,0,0,1 @ F,0,0,1,0,0,0,1 | F,0,0,1,0,0,0,1 @ F,0,0,1,0,0,0,1 @ F,0,0,1,0,0,0,1 @ F,0,0,1,0,0,0,1 | F,0,0,1,0,0.38002097,0,1 @ F,0,0,1,0,0.19335585,0,1 @ F,0,0,1,0,0.36547336,0,1 @ F,0,0,1,0,0.31023223,0,1 | F,0,0,1,0,0.31490615,0,1 @ F,0,0,1,0,0.17982706,0,1 @ F,0,0,1,0,0.25333788,0,1 @ F,0,0,1,0,0.29452287,0,1 | F,0,0,1,0,0.19809338,0,1 @ F,0,0,1,0,0.13171657,0,1 @ F,0,0,1,0,0.19913686,0,1 @ F,0,0,1,0,0.20182932,0,1 | F,0,0,1,0,0.18220144,0,1 @ F,0,0,1,0,0.18866345,0,1 @ F,0,0,1,0,0.18291735,0,1 @ F,0,0,1,0,0.18793134,0,1"
       radius="0"
       unit="px"
       method="auto"
       mode="F"
       chamfer_steps="1"
       flexible="false"
       use_knot_distance="true"
       apply_no_radius="true"
       apply_with_radius="true"
       only_selected="false"
       hide_knots="false" /><inkscape:path-effect
       effect="fillet_chamfer"
       id="path-effect4"
       is_visible="true"
       lpeversion="1"
       nodesatellites_param="F,0,0,1,0,1.2157455,0,1 @ F,0,0,1,0,0.87364157,0,1 @ F,0,0,1,0,0.76994398,0,1 @ F,0,0,1,0,1.2564157,0,1"
       radius="0"
       unit="px"
       method="auto"
       mode="F"
       chamfer_steps="1"
       flexible="false"
       use_knot_distance="true"
       apply_no_radius="true"
       apply_with_radius="true"
       only_selected="false"
       hide_knots="false" /><inkscape:path-effect
       effect="fillet_chamfer"
       id="path-effect3"
       is_visible="true"
       lpeversion="1"
       nodesatellites_param="F,0,0,1,0,0,0,1 @ F,0,0,1,0,0.81522384,0,1 @ F,0,0,1,0,0,0,1 @ F,0,0,1,0,0,0,1 @ F,0,0,1,0,0,0,1 @ F,0,0,1,0,0,0,1 @ F,0,0,1,0,0,0,1 @ F,0,0,1,0,3.2404649,0,1 @ F,0,0,1,0,0,0,1"
       radius="0"
       unit="px"
       method="auto"
       mode="F"
       chamfer_steps="1"
       flexible="false"
       use_knot_distance="true"
       apply_no_radius="true"
       apply_with_radius="true"
       only_selected="false"
       hide_knots="false" /></defs><sodipodi:namedview
     id="base"
     pagecolor="#ffffff"
     bordercolor="#666666"
     borderopacity="1.0"
     inkscape:pageopacity="0.0"
     inkscape:pageshadow="2"
     inkscape:zoom="7.4660509"
     inkscape:cx="14.06366"
     inkscape:cy="20.559731"
     inkscape:document-units="px"
     inkscape:current-layer="layer1"
     showgrid="false"
     inkscape:window-width="1318"
     inkscape:window-height="719"
     inkscape:window-x="48"
     inkscape:window-y="27"
     inkscape:window-maximized="1"
     units="px"
     inkscape:showpageshadow="2"
     inkscape:pagecheckerboard="0"
     inkscape:deskcolor="#d1d1d1"
     showguides="false" /><metadata
     id="metadata7"><rdf:RDF><cc:Work
         rdf:about=""><dc:format>image/svg+xml</dc:format><dc:type
           rdf:resource="http://purl.org/dc/dcmitype/StillImage" /></cc:Work></rdf:RDF></metadata><g
     inkscape:label="Calque 1"
     inkscape:groupmode="layer"
     id="layer1"
     transform="translate(0,-1020.3622)"><circle
       id="path2"
       style="fill:#333333;stroke:#333333"
       cx="4.6894412"
       cy="1024.6318"
       r="0" /><path
       style="fill:none;stroke:#000000;stroke-width:1.5;stroke-linecap:butt;stroke-linejoin:miter;stroke-dasharray:none;stroke-opacity:0"
       d="m 3.9629118,1036.7901 c 10.8708272,-10.7363 17.9263552,-6.5758 24.2518992,0.1858 -6.445518,7.0061 -15.155894,10.3904 -24.2518992,-0.1858 z"
       id="path23-5"
       sodipodi:nodetypes="ccc" /><path
       id="path3"
       style="color:#000000;fill:#ac39ac;stroke-width:1.23419;stroke-linejoin:bevel;stroke-dashoffset:6.03213;-inkscape-stroke:none;paint-order:markers fill stroke;fill-opacity:1"
       d="m 19.697252,1027.9787 c -0.850333,0.025 -0.804942,0.832 0,0.8196 h 1.740522 v 3.2323 h -9.649086 v -1.6832 l 1.422267,-0.3271 c 0.475135,-0.1114 0.393619,-0.8109 -0.09439,-0.81 H 9.4384429 c -0.227167,10e-5 -0.410983,0.1848 -0.410098,0.412 v 0.8438 c -2e-4,0.2635 0.244374,0.4589 0.501301,0.4005 l 1.4369341,-0.3304 v 1.7916 l -2.1882472,3.629 c -0.612688,-0.3004 -1.300625,-0.4694 -2.0275265,-0.4694 -2.5503565,0 -4.6258721,2.078 -4.6258721,4.6284 0,2.5504 2.0755156,4.6259 4.6258721,4.6259 2.4414255,0 4.4462027,-1.9028 4.6131157,-4.3025 l 1.163326,-0.022 c 0.09413,0.2812 0.268412,0.527 0.495559,0.7092 v 1.5779 h -0.433694 v 0.8195 h 1.713733 v -0.8195 h -0.45793 v -1.2494 c 0.04056,0 0.0811,0.01 0.122457,0.01 0.833968,0 1.51921,-0.6871 1.51921,-1.5211 0,-0.094 -0.0095,-0.1861 -0.02615,-0.2755 l 6.068062,-3.9173 0.616588,0.9407 c -0.934049,0.8476 -1.521761,2.0711 -1.521761,3.4281 0,2.5504 2.075508,4.6259 4.625871,4.6259 2.550372,0 4.625873,-2.0755 4.625873,-4.6259 0,-2.5503 -2.075501,-4.6284 -4.625873,-4.6284 -0.898636,0 -1.737773,0.259 -2.448466,0.7047 l -0.516607,-0.7963 -0.02424,-5.9298 0.568906,0.5689 c 0.473632,0.462 0.986752,-0.162 0.581024,-0.5784 l -1.477754,-1.4778 z m -7.733809,4.874 h 9.456483 l -0.0066,1.4836 v 0.3922 l -6.317707,4.1991 c -0.277639,-0.3089 -0.678857,-0.5049 -1.123113,-0.5064 z m -0.679245,0.5402 1.895505,5.2503 c -0.342797,0.2099 -0.596812,0.5522 -0.690723,0.9534 l -1.139727,0.021 c -0.142427,-1.3245 -0.846374,-2.4837 -1.8680792,-3.2342 z m -4.5333917,2.9166 c 0.5733135,0 1.1158185,0.1264 1.6027595,0.352 l -1.5102801,2.504 c -0.030497,0 -0.06124,0 -0.092478,0 -0.5240828,0 -0.9547673,0.4307 -0.9547673,0.9548 0,0.5241 0.4306845,0.9541 0.9547673,0.9541 0.3838642,0 0.7169691,-0.2311 0.8680281,-0.5606 l 2.9223412,-0.055 c -0.170852,1.9471 -1.7979212,3.4677 -3.7903693,3.4677 -2.1068008,0 -3.8063155,-1.6995 -3.8063155,-3.8063 0,-2.1068 1.6995147,-3.8063 3.8063155,-3.8063 z m 18.4983847,0 c 2.106818,0 3.806315,1.6995 3.806315,3.8063 0,2.1068 -1.699497,3.8063 -3.806315,3.8063 -2.10681,0 -3.806315,-1.6995 -3.806315,-3.8063 0,-1.0899 0.455544,-2.0699 1.186285,-2.7629 l 1.950354,2.6787 c -0.0035,0.028 -0.0058,0.056 -0.0058,0.084 0,0.3709 0.304483,0.6748 0.675416,0.6748 0.370935,0 0.674779,-0.3039 0.674779,-0.6748 0,-0.3709 -0.303844,-0.6773 -0.674779,-0.6773 -0.02757,0 -0.05492,0 -0.08163,0.01 l -1.884662,-2.5894 c 0.573443,-0.3457 1.24597,-0.5447 1.966298,-0.5447 z m -16.1915072,0.7762 c 0.7911909,0.6027 1.3375502,1.509 1.4681862,2.5473 l -2.9236182,0.054 c -0.01665,-0.033 -0.0353,-0.064 -0.05549,-0.095 z"
       sodipodi:nodetypes="cccccccccccccccsssccccccccccsscccssssccccccccccccccccccccsccsssccsssscssccssssccsccccccc" /><g
       id="path7-6"
       transform="matrix(3.7795276,0,0,3.7795276,-41.579914,960.98054)" /></g></svg>
