<?xml version="1.0" encoding="UTF-8" standalone="no"?>
<!-- Created with Inkscape (http://www.inkscape.org/) -->

<svg
   width="32mm"
   height="32mm"
   viewBox="0 0 32 32"
   version="1.1"
   id="svg1"
   xml:space="preserve"
   inkscape:version="1.3.1 (9b9bdc1480, 2023-11-25, custom)"
   sodipodi:docname="shop_optician.svg"
   xmlns:inkscape="http://www.inkscape.org/namespaces/inkscape"
   xmlns:sodipodi="http://sodipodi.sourceforge.net/DTD/sodipodi-0.dtd"
   xmlns="http://www.w3.org/2000/svg"
   xmlns:svg="http://www.w3.org/2000/svg"><sodipodi:namedview
     id="namedview1"
     pagecolor="#ffffff"
     bordercolor="#666666"
     borderopacity="1.0"
     inkscape:showpageshadow="2"
     inkscape:pageopacity="0.0"
     inkscape:pagecheckerboard="0"
     inkscape:deskcolor="#d1d1d1"
     inkscape:document-units="mm"
     showguides="true"
     inkscape:zoom="2.8284271"
     inkscape:cx="25.809398"
     inkscape:cy="79.72629"
     inkscape:window-width="1318"
     inkscape:window-height="719"
     inkscape:window-x="48"
     inkscape:window-y="27"
     inkscape:window-maximized="1"
     inkscape:current-layer="layer1"
     showgrid="false"><sodipodi:guide
       position="21.324843,29.746031"
       orientation="0,-1"
       id="guide8"
       inkscape:locked="false" /><sodipodi:guide
       position="18.475006,31.999999"
       orientation="0,-1"
       id="guide9"
       inkscape:locked="false" /><sodipodi:guide
       position="0.45003611,24.90516"
       orientation="1,0"
       id="guide36"
       inkscape:locked="false" /><sodipodi:guide
       position="29.485911,9.5526053"
       orientation="1,0"
       id="guide37"
       inkscape:locked="false" /><sodipodi:guide
       position="8.9802559,1.7851799"
       orientation="0,-1"
       id="guide38"
       inkscape:locked="false" /><sodipodi:guide
       position="12.464872,5.3716509"
       orientation="0,-1"
       id="guide45"
       inkscape:locked="false" /><sodipodi:guide
       position="32.171697,15.989473"
       orientation="0,-1"
       id="guide46"
       inkscape:locked="false" /><sodipodi:guide
       position="4.9261733,27.506351"
       orientation="1,0"
       id="guide47"
       inkscape:locked="false" /><sodipodi:guide
       position="55.115328,-17.201583"
       orientation="1,0"
       id="guide48"
       inkscape:locked="false" /></sodipodi:namedview><defs
     id="defs1"><inkscape:perspective
       sodipodi:type="inkscape:persp3d"
       inkscape:vp_x="-183.11487 : 148.50001 : 1"
       inkscape:vp_y="0 : 1000 : 0"
       inkscape:vp_z="-195.51426 : 148.50001 : 1"
       inkscape:persp3d-origin="-189.31457 : 99.000003 : 1"
       id="perspective10172" /><symbol
       id="Recycling"><title
         id="title7498">Recycling</title><g
         style="stroke:none"
         id="g7512"><path
           style="stroke-width:0.26458332"
           inkscape:connector-curvature="0"
           d="m 14.684375,3.9026042 -1.389063,0.79375 -0.926041,-1.5875 C 12.236979,2.8773437 11.972396,2.7119792 11.608594,2.7119792 H 8.8304687 C 9.0289062,2.9104167 9.0619792,2.9765625 9.1611979,3.1419271 L 10.88099,6.1184896 9.4919271,6.9122396 H 12.93151 Z"
           id="path7500" /><path
           style="stroke-width:0.26458332"
           inkscape:connector-curvature="0"
           d="m 14.254427,12.038542 h 1.389063 c 0.826822,0 1.322916,-0.892969 0.926041,-1.5875 l -1.752864,-3.069167 -2.38125,1.3890625 z"
           id="path7502" /><path
           style="stroke-width:0.26458332"
           inkscape:connector-curvature="0"
           d="m 12.170833,17.065625 v -1.5875 h 1.852084 c 0.264583,0 0.529166,-0.132292 0.727604,-0.463021 l 1.389062,-2.38125 C 15.875,12.7 15.775781,12.7 15.610417,12.7 h -3.439584 v -1.5875 l -1.719791,2.976562 z"
           id="path7504" /><path
           style="stroke-width:0.26458332"
           inkscape:connector-curvature="0"
           d="m 5.3578125,12.7 -0.6945313,1.190625 c -0.396875,0.727604 0.099219,1.5875 0.8929688,1.5875 H 9.0619792 V 12.7 Z"
           id="path7506" /><path
           style="stroke-width:0.26458332"
           inkscape:connector-curvature="0"
           d="m 2.0505208,8.4005208 1.3890625,0.79375 -0.9260416,1.5875002 C 2.38125,11.013281 2.38125,11.310937 2.5466146,11.641667 l 1.3559896,2.38125 c 0.066146,-0.264584 0.099219,-0.33073 0.1984375,-0.496094 L 5.8208333,10.55026 7.2098958,11.34401 5.4901042,8.3674479 Z"
           id="path7508" /><path
           style="stroke-width:0.26458332"
           inkscape:connector-curvature="0"
           d="M 9.2604167,4.6302083 8.5989583,3.4395833 c -0.4299479,-0.6945312 -1.4221354,-0.6945312 -1.8190104,0 l -1.7528646,3.0427084 2.38125,1.3890625 z"
           id="path7510" /></g></symbol><inkscape:perspective
       id="perspective8310"
       inkscape:persp3d-origin="372.04724 : 350.7874 : 1"
       inkscape:vp_z="744.09447 : 526.18111 : 1"
       inkscape:vp_y="0 : 1000 : 0"
       inkscape:vp_x="0 : 526.18111 : 1"
       sodipodi:type="inkscape:persp3d" /><inkscape:perspective
       id="perspective5302"
       inkscape:persp3d-origin="372.04724 : 350.7874 : 1"
       inkscape:vp_z="744.09447 : 526.18111 : 1"
       inkscape:vp_y="0 : 1000 : 0"
       inkscape:vp_x="0 : 526.18111 : 1"
       sodipodi:type="inkscape:persp3d" /><symbol
       id="ToiletsMen"><title
         id="title4892">Toilets - Men</title><g
         style="stroke:none"
         id="g4898"><circle
           cx="36"
           cy="9"
           r="5"
           id="circle4894" /><path
           d="m 24,22 v 15.5 a 2.25,2.25 0 0 0 4.5,0 V 23 h 1 v 39.5 a 3,3 0 0 0 6,0 V 40 h 1 v 22.5 a 3,3 0 0 0 6,0 V 23 h 1 v 14.5 a 2.25,2.25 0 0 0 4.5,0 V 22 A 7,7 0 0 0 41,15 H 31 a 7,7 0 0 0 -7,7 z"
           id="path4896"
           inkscape:connector-curvature="0" /></g></symbol><inkscape:perspective
       sodipodi:type="inkscape:persp3d"
       inkscape:vp_x="0 : 100 : 1"
       inkscape:vp_y="0 : 1000 : 0"
       inkscape:vp_z="200 : 100 : 1"
       inkscape:persp3d-origin="100 : 66.666667 : 1"
       id="perspective2879" /></defs><g
     inkscape:label="Livello 1"
     inkscape:groupmode="layer"
     id="layer1"><g
       id="path19" /><g
       id="rect22-0"
       transform="matrix(-1,0,0,1,30.661761,0.23016813)" /><g
       id="rect22-7"
       transform="matrix(-1,0,0,1,30.845845,-1.8811487e-4)" /><g
       id="path26" /><g
       id="path52"
       transform="translate(-38.081357,-6.611757)" /><g
       id="path52-1"
       transform="matrix(-1,0,0,1,21.996584,0)" /><g
       id="path19-0"
       transform="translate(3.6443103,6.1232351)" /><g
       id="rect22-0-8"
       transform="matrix(-1,0,0,1,34.306071,6.3534032)" /><g
       id="rect22-7-5"
       transform="matrix(-1,0,0,1,34.490155,6.123047)" /><g
       id="path26-0"
       transform="translate(3.6443103,6.1232351)" /><g
       id="path52-1-6"
       transform="matrix(-1,0,0,1,25.640894,6.1232351)" /><g
       id="path7-6"
       transform="translate(-27.436615,5.5770687)" /><g
       id="g40-6-7"
       transform="translate(0.115617,-0.13948398)" /><g
       id="g5"
       transform="translate(-0.2131934,0.37382539)"><path
         style="fill:#ac39ac;fill-opacity:1;stroke:none;stroke-width:0.3825;stroke-linecap:round;stroke-linejoin:bevel;stroke-opacity:0.913725;paint-order:markers stroke fill"
         d="M 17.702012,29.04443 C 15.673453,28.846322 13.500828,26.299783 12.830051,24.85099 12.159274,23.402197 12.04677,21.488267 11.029493,22.751291 9.3956402,25.123169 8.2938436,26.846109 5.8377033,26.168428 3.3815631,25.490748 3.1872445,22.646521 2.1856441,20.390448 1.3199252,19.429657 1.752375,17.886501 3.0799828,17.697588 c 0.8742901,-0.786462 4.9665561,-1.785711 6.1079924,-2.494321 1.4175648,-0.360024 2.9888228,-0.446387 4.3836698,0.04579 0.835024,0.242858 2.239231,1.468432 1.201661,2.093347 -1.6017,-1.370657 -3.237179,-1.715188 -6.9091211,-0.477711 -0.4141574,0.227066 -2.3372677,0.934774 -1.9312939,0.929626 1.4171173,-0.01797 3.8896382,2.651789 5.610314,3.15026 1.720676,0.49847 4.351586,-1.157046 6.95025,-0.319196 2.598664,0.837851 5.081541,1.96934 7.24199,0.56909 1.52797,-0.400463 1.793,-1.361452 3.395826,-1.533818 1.602826,-0.172366 2.241498,2.598672 0.594352,3.563928 0.600615,-4.35442 -0.961387,-2.517828 -3.675961,-0.713592 -2.714574,1.804237 -2.743902,1.767733 -3.734974,4.074928 -0.991073,2.307196 -4.3019,2.646871 -4.612677,2.458513 -0.310777,-0.188358 2.02856,0.198106 1e-6,-2e-6 z m 3.812917,-3.88293 c 0.119075,-2.058745 -3.936168,-4.389823 -6.500803,-3.57088 -2.564635,0.818943 -1.330937,4.101274 1.341535,5.974283 2.672472,1.873009 5.040193,-0.344658 5.159268,-2.403403 z M 9.1954182,23.787228 C 10.71286,21.538506 7.581095,19.186015 5.5848393,18.59905 3.5885838,18.012085 3.1508607,19.607778 3.3733004,20.817807 c 0.2224397,1.210029 0.2900079,2.3044 1.4934337,3.725639 1.2034258,1.421238 2.8112425,1.492504 4.3286841,-0.756221 z"
         id="path5"
         sodipodi:nodetypes="zzczccccccszzczczzzzzzzzzzzzzz" /><g
         inkscape:label="Livello 1"
         id="layer1-3"
         transform="matrix(0.6660013,0,0,0.6660013,10.670588,0.67052747)"
         style="fill:#ac39ac;fill-opacity:1"><g
           id="path19-1"
           style="fill:#ac39ac;fill-opacity:1" /><g
           id="rect22-0-9"
           transform="matrix(-1,0,0,1,30.661761,0.23016813)"
           style="fill:#ac39ac;fill-opacity:1" /><g
           id="rect22-7-4"
           transform="matrix(-1,0,0,1,30.845845,-1.8811487e-4)"
           style="fill:#ac39ac;fill-opacity:1" /><g
           id="path26-7"
           style="fill:#ac39ac;fill-opacity:1" /><g
           id="g48"
           transform="matrix(0.49122413,0,0,0.49122413,22.725346,8.4168491)"
           style="fill:#ac39ac;fill-opacity:1"><path
             style="fill:#ac39ac;fill-opacity:1;stroke:none;stroke-width:1.77723;stroke-linecap:round;stroke-linejoin:round;stroke-dasharray:none;stroke-dashoffset:6.03213;stroke-opacity:1;paint-order:markers fill stroke"
             d="m -68.317052,90.189737 c -13.098686,-7.512842 -15.353651,-22.461685 -4.793672,-31.778694 6.132169,-5.410378 14.982342,-9.063398 38.816045,-16.021812 6.22254,-1.816713 12.496312,-3.90493 13.941716,-4.640483 3.162192,-1.609209 4.43031,-3.617352 3.445884,-5.456768 -1.505323,-2.812724 -2.969007,-3.293763 -11.306508,-3.715877 -5.880058,-0.297697 -8.953176,-0.785235 -10.854063,-1.721955 -3.162313,-1.558325 -3.289711,-2.108073 -0.707106,-3.051321 l 1.944543,-0.710208 -2.256365,-0.05582 c -2.657542,-0.06575 -3.38866,-0.924492 -2.384513,-2.800757 1.90697,-3.563207 13.24329,-6.154408 18.841736,-4.306754 3.633196,1.199062 14.8038846,8.830496 16.5828733,11.328852 2.082677,2.924854 2.5356566,7.804544 1.078649,11.619669 -2.9584287,7.746532 -12.9203593,12.776813 -34.3372533,17.338609 -23.068863,4.913666 -30.405592,8.799962 -30.405592,16.105967 0,5.775259 3.241443,10.133455 9.882673,13.28749 2.342704,1.11259 4.259463,2.206166 4.259463,2.430156 0,0.328565 -7.396191,4.254429 -7.970617,4.230776 -0.08861,-0.0037 -1.788663,-0.940134 -3.777893,-2.081065 z m 35.721607,-70.308169 c 0.630479,-0.759682 0.544463,-1.080644 -0.385213,-1.437394 -1.402558,-0.538212 -2.745733,0.535933 -2.059206,1.646757 0.641467,1.037915 1.468024,0.96712 2.444419,-0.209363 z"
             id="path32"
             transform="scale(0.26458333)" /><path
             style="fill:#ac39ac;fill-opacity:1;stroke:none;stroke-width:1.77723;stroke-linecap:round;stroke-linejoin:round;stroke-dasharray:none;stroke-dashoffset:6.03213;stroke-opacity:1;paint-order:markers fill stroke"
             d="M -77.781746,52.719933 C -91.491883,48.33189 -98.451021,42.161317 -98.451021,34.392771 c 0,-3.718497 1.256697,-6.70296 3.808304,-9.044143 2.532781,-2.323909 11.224512,-8.105196 13.809146,-9.185125 5.126866,-2.142142 15.057847,-0.377179 18.771076,3.336049 2.464374,2.464374 2.057501,3.462389 -1.44207,3.537242 l -2.609919,0.05582 1.979899,0.721993 c 5.073364,1.850061 -2.32491,4.746627 -12.240172,4.792262 -6.199977,0.02853 -6.875919,0.171131 -8.662058,1.827333 -5.074829,4.705647 -0.962112,7.464821 19.629438,13.169163 4.277996,1.185106 8.15956,3.073183 8.308059,3.212918 0.148498,0.139735 -2.432227,0.562956 -5.417307,1.923301 -2.985081,1.360345 -6.337681,3.121517 -7.450223,3.913717 -2.377886,1.693204 -2.723563,1.696151 -7.814898,0.06663 z m 9.106203,-32.499161 c 1.125231,-0.712709 0.467952,-2.189549 -0.974475,-2.189549 -1.213482,0 -1.997986,1.176756 -1.414213,2.12132 0.532084,0.860931 1.111055,0.877468 2.388688,0.06823 z"
             id="path33"
             transform="scale(0.26458333)"
             sodipodi:nodetypes="sssssscssssssssssssss" /><path
             style="fill:#ac39ac;fill-opacity:1;stroke:none;stroke-width:1.77723;stroke-linecap:round;stroke-linejoin:round;stroke-dasharray:none;stroke-dashoffset:6.03213;stroke-opacity:1;paint-order:markers fill stroke"
             d="m -63.157148,122.69256 c -3.813095,-2.4182 -7.233067,-7.33377 -7.916395,-11.37836 -1.579851,-9.35106 4.248717,-15.884039 19.454748,-21.80595 11.498353,-4.477975 15.423934,-7.070908 17.642077,-11.652979 0.797393,-1.647196 1.449806,-3.864834 1.449806,-4.928085 0,-4.184944 -3.884977,-8.598079 -9.894182,-11.239282 -1.753011,-0.770495 -2.869095,-1.512072 -2.480186,-1.647949 0.388908,-0.135877 3.504503,-0.861362 6.923545,-1.612188 l 6.216439,-1.365138 2.05594,1.72996 c 1.130767,0.951477 2.918746,3.493471 3.973286,5.648874 3.914478,8.000906 1.666119,17.249457 -5.587234,22.982903 -4.307406,3.404809 -7.829852,5.225346 -16.763957,8.664267 -8.257657,3.178544 -10.326924,4.275657 -13.250895,7.025537 -5.18057,4.87212 -3.710084,10.95376 4.070358,16.83421 l 2.463023,1.86155 -1.767767,1.47368 c -2.313504,1.92863 -2.665223,1.89708 -6.588606,-0.59105 z"
             id="path34"
             transform="scale(0.26458333)" /><path
             style="fill:#ac39ac;fill-opacity:1;stroke:none;stroke-width:1.77723;stroke-linecap:round;stroke-linejoin:round;stroke-dasharray:none;stroke-dashoffset:6.03213;stroke-opacity:1;paint-order:markers fill stroke"
             d="m -62.775496,150.78087 c -3.657239,-3.89295 -4.629148,-10.05778 -2.369765,-15.03145 1.494104,-3.28902 7.064603,-8.53944 12.340609,-11.63151 9.852837,-5.77439 13.386021,-9.55725 13.491979,-14.44541 0.07974,-3.67871 -1.516521,-6.2504 -5.512233,-8.88058 l -2.641186,-1.738559 3.757279,-1.678771 c 3.321807,-1.484199 3.959773,-1.56774 5.504394,-0.720791 0.960912,0.526889 2.647821,2.41484 3.748686,4.195451 1.607873,2.60067 2.005585,4.07643 2.021973,7.50275 0.03923,8.20253 -3.374337,12.2112 -15.941173,18.72025 -9.723955,5.03657 -14.20163,8.90428 -14.954483,12.91733 -0.693553,3.69696 0.01344,7.746 1.787549,10.2375 1.78892,2.51231 0.957103,2.88572 -1.233629,0.55379 z"
             id="path35"
             transform="scale(0.26458333)" /><path
             style="fill:#ac39ac;fill-opacity:1;stroke:none;stroke-width:1.77723;stroke-linecap:round;stroke-linejoin:round;stroke-dasharray:none;stroke-dashoffset:6.03213;stroke-opacity:1;paint-order:markers fill stroke"
             d="m -42.180888,150.67939 c 0.613401,-0.93617 1.47094,-3.1146 1.905642,-4.84096 1.220254,-4.84607 0.005,-8.21514 -4.387953,-12.16478 -3.440961,-3.09372 -3.557377,-3.31145 -2.285417,-4.27428 1.94767,-1.47433 2.586807,-1.31636 5.011442,1.23861 5.8151,6.12768 6.262791,14.59925 1.083672,20.50609 -1.616617,1.84378 -2.611696,1.49542 -1.327386,-0.46468 z"
             id="path36"
             transform="scale(0.26458333)" /><path
             style="fill:#ac39ac;fill-opacity:1;stroke:none;stroke-width:1.77723;stroke-linecap:round;stroke-linejoin:round;stroke-dasharray:none;stroke-dashoffset:6.03213;stroke-opacity:1;paint-order:markers fill stroke"
             d="m -52.961808,131.58998 2.840762,-1.49282 -1.473367,34.26576 c 0,0 -1.645242,-20.4778 -1.367395,-32.77294 z"
             id="path37"
             transform="scale(0.26458333)"
             sodipodi:nodetypes="cccc" /><path
             style="fill:#ac39ac;fill-opacity:1;stroke:none;stroke-width:1.77723;stroke-linecap:round;stroke-linejoin:round;stroke-dasharray:none;stroke-dashoffset:6.03213;stroke-opacity:1;paint-order:markers fill stroke"
             d="m -53.740115,111.09142 c 0,-9.27295 -0.0585,-10.99129 -0.0585,-10.99129 l 4.323913,-1.691508 c 0,0 -0.02277,3.446158 -0.02277,11.152828 0,9.75219 -0.278933,10.82509 -0.278933,10.82509 l -3.693694,1.83733 c 0,0 -0.270014,-5.14598 -0.270014,-11.13245 z"
             id="path38"
             transform="scale(0.26458333)"
             sodipodi:nodetypes="sccsccs" /><path
             style="fill:#ac39ac;fill-opacity:1;stroke:none;stroke-width:1.77723;stroke-linecap:round;stroke-linejoin:round;stroke-dasharray:none;stroke-dashoffset:6.03213;stroke-opacity:1;paint-order:markers fill stroke"
             d="m -54.600548,75.130095 c -0.171063,-7.097584 0.158956,-13.460701 0.158956,-13.460701 l 5.651224,-1.396804 v 12.466889 c 0,11.524079 -0.360889,13.786773 -0.360889,13.786773 l -4.803835,1.85561 c 0,0 -0.354562,-1.182262 -0.645456,-13.251767 z"
             id="path39"
             transform="scale(0.26458333)"
             sodipodi:nodetypes="sccsccs" /><path
             id="path40"
             style="fill:#ac39ac;fill-opacity:1;stroke:none;stroke-width:1.77723;stroke-linecap:round;stroke-linejoin:round;stroke-dasharray:none;stroke-dashoffset:6.03213;stroke-opacity:1;paint-order:markers fill stroke"
             d="m -51.707032,-47.671876 c -5.368946,-8.2e-5 -9.72166,4.351758 -9.722656,9.720704 0.0089,2.626989 1.080454,5.13858 2.970703,6.96289 -1.273694,0.499116 -2.11314,1.72576 -2.117188,3.09375 -3.22e-4,1.841443 1.492542,3.334307 3.333985,3.333985 0.393977,-2.55e-4 0.784789,-0.07035 1.154297,-0.207031 l 0.478515,34.7558594 c 0.264993,19.2999206 1.155833,36.6455666 1.155833,36.6455666 l 5.553173,-1.642159 c 0,0 0.09623,-2.828795 0.374979,-8.812001 0.220428,-4.73132 0.582137,-20.454571 0.802734,-34.9414067 l 0.396485,-26.0332033 c 0.367803,0.146023 0.758669,0.225386 1.154296,0.234375 1.841443,3.22e-4 3.334307,-1.492542 3.333985,-3.333985 -3.81e-4,-1.368188 -0.836766,-2.59721 -2.109375,-3.099609 1.885919,-1.824209 2.95447,-4.333225 2.96289,-6.957031 -9.96e-4,-5.368946 -4.35371,-9.720786 -9.722656,-9.720704 z"
             transform="scale(0.26458333)"
             sodipodi:nodetypes="cccccccccsccccccc" /><path
             id="path43"
             style="fill:#ac39ac;fill-opacity:1;stroke:none;stroke-width:0.264583px;stroke-linecap:butt;stroke-linejoin:miter;stroke-opacity:1"
             d="m -6.5505046,-9.8588298 c -0.7694442,0.003 -1.4234589,0.041111 -1.6634643,0.10542 -0.4800115,0.128618 -1.1250377,0.4806324 -1.5249715,0.8805664 -0.3999356,0.399934 -0.5699906,1.5387487 -0.5699906,2.1275187 0,0.588771 -0.02973,1.1206153 -0.399459,1.4903483 -0.369735,0.369735 -1.025777,0.2749186 -1.025777,0.2749186 0.03009,0.018051 -0.01034,5.56865236 -0.01034,5.56865236 0,0 2.5436725,1.33505744 4.5325401,1.27847494 1.517586,-0.043175 1.6016273,-0.3246361 1.8081584,-0.4656047 l -0.00517,0.00155 -1.8014404,-0.63148597 c 0,0 0.020918,-2.4332e-4 2.0799764,0.54983727 0.5683884,-0.021315 0.3360683,0.17649 1.2603882,0.5880778 0.9243197,0.4115875 1.4528304,0.027688 2.120284,-0.2563151 0.5329786,-0.2267837 0.90194821,-0.79224009 1.21129558,-1.03094486 l -0.0180868,0.009302 c 0,0 -0.79487908,-0.18297655 -1.38027748,-0.33124593 -0.5853985,-0.14826936 -2.7021606,-0.77721354 -2.7021606,-0.77721354 0,0 2.7412559,0.70158601 4.32583408,0.98701986 C 0.04400723,0.47527654 1.0129232,0.76545662 1.6737996,0.79271647 2.3346766,0.81997612 3.0040866,0.63139475 3.2509644,0.4402832 3.4326903,0.29960656 3.9313989,-0.05346153 4.2979289,-0.23151042 l -0.00775,0.002584 -6.8032023,-1.55184328 c 0,0 5.0053779,1.13607251 7.1344482,1.44177248 0.288379,-3.921e-4 0.9200262,0.23100497 1.3513387,0.17931722 0.431313,-0.0516878 0.2063291,-0.0252411 1.1983765,-0.31522623 0.992047,-0.28998505 0.9273118,-0.55646537 1.4970663,-0.97978517 0,0 -0.5869412,-0.1130661 -1.6324585,-0.1839681 -1.0455179,-0.070901 -7.26932377,-1.515153 -7.26932377,-1.515153 0,0 3.57779877,0.7986116 6.23631187,1.21698 2.5052646,0.3942518 3.229606,0.148767 3.3057413,0.1188558 l -0.00672,0.00362 c 0.1963336,-0.070469 0.3590461,-0.088677 0.5472534,-0.1312582 0.3524754,-0.079747 0.9425944,-0.3030941 1.3167154,-0.6433716 0.374116,-0.3402773 0.64123,-0.8432572 0.7953,-1.3797607 0.04279,-0.1490133 0.07563,-0.247706 0.110588,-0.3240112 l -0.0021,0.00207 c 0,0 -0.734973,0.073904 -2.3631633,0.2051555 -1.286329,0.1036934 -6.7541796,-0.8419849 -8.3240397,-1.2030274 4.4579794,0.6437983 7.3440061,1.1491921 9.307959,0.9978719 0.967211,-0.074523 1.64337,-0.2894529 1.646411,-0.2904215 2.36e-4,-1.668e-4 7.97e-4,-3.498e-4 10e-4,-5.168e-4 0.07302,-0.051591 0.165352,-0.1142815 0.287321,-0.2046387 0.491039,-0.363768 1.034928,-1.1092078 1.222148,-1.5001668 0.18722,-0.390959 -0.08313,-0.723673 -0.382406,-0.738973 -0.299275,-0.015302 -1.179102,0.1907118 -2.634464,0.2888713 -1.455367,0.098158 -4.3911376,0.1382071 -8.0160481,-1.1141439 -3.62491041,-1.2523505 -5.6067766,-1.7500862 -7.0093913,-1.9027262 -0.7013071,-0.07632 -1.5859671,-0.1084223 -2.3554118,-0.10542 z"
             sodipodi:nodetypes="sssssccsccccssccsccssccccsscscsccscsccscscccssssss" /><path
             id="path43-8"
             style="fill:#ac39ac;fill-opacity:1;stroke:none;stroke-width:0.264583px;stroke-linecap:butt;stroke-linejoin:miter;stroke-opacity:1"
             d="m -20.831563,-9.8588298 c 0.769444,0.003 1.423459,0.041111 1.663464,0.10542 0.480012,0.128618 1.125038,0.4806324 1.524972,0.8805664 0.399935,0.399934 0.56999,1.5387487 0.56999,2.1275187 0,0.588771 0.02973,1.1206153 0.399459,1.4903483 0.369735,0.369735 1.025777,0.2749186 1.025777,0.2749186 -0.03009,0.018051 0.01034,5.56865238 0.01034,5.56865238 0,0 -2.543672,1.33505742 -4.53254,1.27847492 -1.517586,-0.043175 -1.601627,-0.3246361 -1.808158,-0.4656047 l 0.0052,0.00155 1.80144,-0.63148602 c 0,0 -0.02092,-2.433e-4 -2.079976,0.54983732 -0.568388,-0.021315 -0.336068,0.17649 -1.260388,0.5880778 -0.92432,0.4115875 -1.452831,0.027688 -2.120284,-0.2563151 -0.532979,-0.2267837 -0.901948,-0.79224012 -1.211296,-1.03094492 l 0.01809,0.0093 c 0,0 0.794879,-0.1829765 1.380278,-0.3312459 0.585398,-0.1482674 2.70216,-0.7772115 2.70216,-0.7772115 0,0 -2.741256,0.701586 -4.325834,0.9870198 -0.357173,-0.03477 -1.326089,0.2554103 -1.986965,0.2826702 -0.660877,0.02726 -1.330287,-0.1613218 -1.577165,-0.3524333 -0.181726,-0.1406766 -0.680434,-0.4937447 -1.046964,-0.6717936 l 0.0078,0.00258 6.803202,-1.55184328 c 0,0 -5.005378,1.13607248 -7.134448,1.44177248 -0.288379,-3.921e-4 -0.920027,0.2310049 -1.351339,0.1793172 -0.431313,-0.051688 -0.206329,-0.025241 -1.198377,-0.3152262 -0.992047,-0.2899851 -0.927311,-0.55646538 -1.497066,-0.97978518 0,0 0.586941,-0.1130661 1.632459,-0.1839681 1.045518,-0.070901 7.269323,-1.515153 7.269323,-1.515153 0,0 -3.577798,0.7986116 -6.236311,1.21698 -2.505265,0.3942518 -3.229606,0.148767 -3.305741,0.1188558 l 0.0067,0.00362 c -0.196333,-0.070469 -0.359046,-0.088677 -0.547253,-0.1312582 -0.352475,-0.079747 -0.942594,-0.3030941 -1.316715,-0.6433716 -0.374116,-0.3402773 -0.64123,-0.8432572 -0.7953,-1.3797607 -0.04279,-0.1490133 -0.07563,-0.247706 -0.110588,-0.3240112 l 0.0021,0.00207 c 0,0 0.734973,0.073904 2.363163,0.2051555 1.286348,0.1036974 6.754198,-0.8419809 8.324058,-1.2030234 -4.457979,0.6437983 -7.344005,1.1491921 -9.307958,0.9978719 -0.967211,-0.074523 -1.64337,-0.2894529 -1.646411,-0.2904215 -2.36e-4,-1.668e-4 -7.97e-4,-3.498e-4 -10e-4,-5.168e-4 -0.07302,-0.051591 -0.165352,-0.1142815 -0.287321,-0.2046387 -0.491039,-0.363768 -1.034928,-1.1092078 -1.222148,-1.5001668 -0.187221,-0.390959 0.08313,-0.723673 0.382406,-0.738973 0.299275,-0.015302 1.179102,0.1907118 2.634464,0.2888713 1.455367,0.098158 4.391137,0.1382071 8.016048,-1.1141439 3.62491,-1.2523505 5.606776,-1.7500862 7.009391,-1.9027262 0.701307,-0.07632 1.585967,-0.1084223 2.355411,-0.10542 z"
             sodipodi:nodetypes="sssssccsccccssccsccssccccsscscsccscsccscscccssssss" /></g></g></g></g></svg>
