<?xml version="1.0" encoding="UTF-8" standalone="no"?>
<!-- Created with Inkscape (http://www.inkscape.org/) -->

<svg
   width="32"
   height="32"
   viewBox="0 0 32 32.000001"
   id="svg2"
   version="1.1"
   inkscape:version="1.3.1 (9b9bdc1480, 2023-11-25, custom)"
   sodipodi:docname="shop_anime-original.svg"
   xml:space="preserve"
   xmlns:inkscape="http://www.inkscape.org/namespaces/inkscape"
   xmlns:sodipodi="http://sodipodi.sourceforge.net/DTD/sodipodi-0.dtd"
   xmlns="http://www.w3.org/2000/svg"
   xmlns:svg="http://www.w3.org/2000/svg"
   xmlns:rdf="http://www.w3.org/1999/02/22-rdf-syntax-ns#"
   xmlns:cc="http://creativecommons.org/ns#"
   xmlns:dc="http://purl.org/dc/elements/1.1/"><defs
     id="defs4"><inkscape:path-effect
       effect="fillet_chamfer"
       id="path-effect23"
       is_visible="true"
       lpeversion="1"
       nodesatellites_param="F,0,0,1,0,0,0,1 @ F,0,0,1,0,0.43057958,0,1 @ F,0,0,1,0,0.44218541,0,1 @ F,0,0,1,0,0,0,1 @ F,0,0,1,0,0,0,1 @ F,0,0,1,0,0,0,1 @ F,0,0,1,0,0,0,1 @ F,0,0,1,0,0,0,1 @ F,0,0,1,0,0,0,1 @ F,0,0,1,0,0,0,1"
       radius="0"
       unit="px"
       method="auto"
       mode="F"
       chamfer_steps="1"
       flexible="false"
       use_knot_distance="true"
       apply_no_radius="true"
       apply_with_radius="true"
       only_selected="false"
       hide_knots="false" /><inkscape:path-effect
       effect="fillet_chamfer"
       id="path-effect22"
       is_visible="true"
       lpeversion="1"
       nodesatellites_param="F,0,0,1,0,0,0,1 @ F,0,0,1,0,0,0,1 @ F,0,0,1,0,0,0,1 @ F,0,0,1,0,0.94651484,0,1 @ F,0,0,1,0,0.8500894,0,1 @ F,0,0,1,0,0.68193774,0,1 @ F,0,0,1,0,0.68193774,0,1 @ F,0,1,1,0,0.33620128,0,1 @ F,0,1,1,0,0.33620128,0,1 @ F,0,0,1,0,0.86386139,0,1 @ F,0,0,1,0,0.94385482,0,1 @ F,0,0,1,0,0,0,1 @ F,0,0,1,0,0,0,1"
       radius="0"
       unit="px"
       method="auto"
       mode="F"
       chamfer_steps="1"
       flexible="false"
       use_knot_distance="true"
       apply_no_radius="true"
       apply_with_radius="true"
       only_selected="false"
       hide_knots="false" /><inkscape:path-effect
       effect="fillet_chamfer"
       id="path-effect14"
       is_visible="true"
       lpeversion="1"
       nodesatellites_param="F,0,0,1,0,0.69167553,0,1 @ F,0,0,1,0,0.77102447,0,1 @ F,0,0,1,0,0.77395666,0,1 @ F,0,0,1,0,0.80542345,0,1 @ F,0,0,1,0,0.61263567,0,1"
       radius="0"
       unit="px"
       method="auto"
       mode="F"
       chamfer_steps="1"
       flexible="false"
       use_knot_distance="true"
       apply_no_radius="true"
       apply_with_radius="true"
       only_selected="false"
       hide_knots="false" /><inkscape:path-effect
       effect="fillet_chamfer"
       id="path-effect13"
       is_visible="true"
       lpeversion="1"
       nodesatellites_param="F,0,0,1,0,0,0,1 @ F,0,0,1,0,0,0,1 @ F,0,0,1,0,0,0,1 @ F,0,0,1,0,0,0,1 @ F,0,0,1,0,0,0,1 @ F,0,0,1,0,0,0,1 @ F,0,0,1,0,0,0,1 @ F,0,0,1,0,0,0,1 @ F,0,0,1,0,0,0,1 @ F,0,0,1,0,0,0,1 @ F,0,0,1,0,0,0,1 @ F,0,0,1,0,0,0,1 @ F,0,0,1,0,0,0,1 @ F,0,0,1,0,0,0,1 @ F,0,0,1,0,0,0,1 @ F,0,0,1,0,0,0,1 @ F,0,0,1,0,0,0,1 @ F,0,0,1,0,0,0,1 @ F,0,0,1,0,0,0,1 @ F,0,0,1,0,0,0,1 @ F,0,0,1,0,0,0,1 @ F,0,0,1,0,0,0,1 @ F,0,0,1,0,0,0,1 @ F,0,0,1,0,0,0,1 @ F,0,0,1,0,0,0,1 @ F,0,0,1,0,0,0,1 @ F,0,0,1,0,0,0,1 @ F,0,0,1,0,0,0,1 @ F,0,0,1,0,0,0,1 @ F,0,0,1,0,0,0,1 @ F,0,0,1,0,0,0,1 @ F,0,0,1,0,0,0,1 @ F,0,0,1,0,0,0,1 @ F,0,0,1,0,0,0,1 @ F,0,0,1,0,0,0,1 @ F,0,0,1,0,0,0,1 @ F,0,0,1,0,0,0,1 @ F,0,0,1,0,0,0,1 @ F,0,0,1,0,0,0,1 @ F,0,0,1,0,0,0,1 @ F,0,0,1,0,0,0,1"
       radius="0"
       unit="px"
       method="auto"
       mode="F"
       chamfer_steps="1"
       flexible="false"
       use_knot_distance="true"
       apply_no_radius="true"
       apply_with_radius="true"
       only_selected="false"
       hide_knots="false" /><inkscape:path-effect
       effect="fillet_chamfer"
       id="path-effect12"
       is_visible="true"
       lpeversion="1"
       nodesatellites_param="F,0,0,1,0,0,0,1 @ F,0,0,1,0,0,0,1 @ F,0,0,1,0,0,0,1 @ F,0,0,1,0,0,0,1 @ F,0,0,1,0,0,0,1 @ F,0,0,1,0,0,0,1 @ F,0,0,1,0,0,0,1 @ F,0,0,1,0,0,0,1 @ F,0,0,1,0,0,0,1 @ F,0,0,1,0,0,0,1 @ F,0,0,1,0,0,0,1 | F,0,0,1,0,0,0,1 @ F,0,0,1,0,0,0,1 @ F,0,0,1,0,0,0,1 @ F,0,0,1,0,0,0,1 @ F,0,0,1,0,0,0,1 @ F,0,0,1,0,0,0,1 @ F,0,0,1,0,0,0,1 @ F,0,0,1,0,0,0,1 @ F,0,0,1,0,0,0,1 | F,0,0,1,0,1.0714599,0,1 @ F,0,0,1,0,0.32501445,0,1 @ F,0,0,1,0,0.52505136,0,1 @ F,0,0,1,0,0.34488101,0,1 | F,0,0,1,0,0.37035257,0,1 @ F,0,0,1,0,0.3961333,0,1 @ F,0,0,1,0,0.41541052,0,1 @ F,0,0,1,0,0.34638595,0,1 | F,0,0,1,0,0,0,1 @ F,0,0,1,0,0,0,1 @ F,0,0,1,0,0,0,1 @ F,0,0,1,0,0,0,1 | F,0,0,1,0,0,0,1 @ F,0,0,1,0,0,0,1 @ F,0,0,1,0,0,0,1 @ F,0,0,1,0,0,0,1 | F,0,0,1,0,0.38002097,0,1 @ F,0,0,1,0,0.19335585,0,1 @ F,0,0,1,0,0.36547336,0,1 @ F,0,0,1,0,0.31023223,0,1 | F,0,0,1,0,0.31490615,0,1 @ F,0,0,1,0,0.17982706,0,1 @ F,0,0,1,0,0.25333788,0,1 @ F,0,0,1,0,0.29452287,0,1 | F,0,0,1,0,0.19809338,0,1 @ F,0,0,1,0,0.13171657,0,1 @ F,0,0,1,0,0.19913686,0,1 @ F,0,0,1,0,0.20182932,0,1 | F,0,0,1,0,0.18220144,0,1 @ F,0,0,1,0,0.18866345,0,1 @ F,0,0,1,0,0.18291735,0,1 @ F,0,0,1,0,0.18793134,0,1"
       radius="0"
       unit="px"
       method="auto"
       mode="F"
       chamfer_steps="1"
       flexible="false"
       use_knot_distance="true"
       apply_no_radius="true"
       apply_with_radius="true"
       only_selected="false"
       hide_knots="false" /><inkscape:path-effect
       effect="fillet_chamfer"
       id="path-effect4"
       is_visible="true"
       lpeversion="1"
       nodesatellites_param="F,0,0,1,0,1.2157455,0,1 @ F,0,0,1,0,0.87364157,0,1 @ F,0,0,1,0,0.76994398,0,1 @ F,0,0,1,0,1.2564157,0,1"
       radius="0"
       unit="px"
       method="auto"
       mode="F"
       chamfer_steps="1"
       flexible="false"
       use_knot_distance="true"
       apply_no_radius="true"
       apply_with_radius="true"
       only_selected="false"
       hide_knots="false" /><inkscape:path-effect
       effect="fillet_chamfer"
       id="path-effect3"
       is_visible="true"
       lpeversion="1"
       nodesatellites_param="F,0,0,1,0,0,0,1 @ F,0,0,1,0,0.81522384,0,1 @ F,0,0,1,0,0,0,1 @ F,0,0,1,0,0,0,1 @ F,0,0,1,0,0,0,1 @ F,0,0,1,0,0,0,1 @ F,0,0,1,0,0,0,1 @ F,0,0,1,0,3.2404649,0,1 @ F,0,0,1,0,0,0,1"
       radius="0"
       unit="px"
       method="auto"
       mode="F"
       chamfer_steps="1"
       flexible="false"
       use_knot_distance="true"
       apply_no_radius="true"
       apply_with_radius="true"
       only_selected="false"
       hide_knots="false" /></defs><sodipodi:namedview
     id="base"
     pagecolor="#ffffff"
     bordercolor="#666666"
     borderopacity="1.0"
     inkscape:pageopacity="0.0"
     inkscape:pageshadow="2"
     inkscape:zoom="5.2792952"
     inkscape:cx="20.267857"
     inkscape:cy="13.732894"
     inkscape:document-units="px"
     inkscape:current-layer="layer1"
     showgrid="false"
     inkscape:window-width="1318"
     inkscape:window-height="719"
     inkscape:window-x="48"
     inkscape:window-y="27"
     inkscape:window-maximized="1"
     units="px"
     inkscape:showpageshadow="2"
     inkscape:pagecheckerboard="0"
     inkscape:deskcolor="#d1d1d1"
     showguides="false" /><metadata
     id="metadata7"><rdf:RDF><cc:Work
         rdf:about=""><dc:format>image/svg+xml</dc:format><dc:type
           rdf:resource="http://purl.org/dc/dcmitype/StillImage" /></cc:Work></rdf:RDF></metadata><g
     inkscape:label="Calque 1"
     inkscape:groupmode="layer"
     id="layer1"
     transform="translate(0,-1020.3622)"><circle
       id="path2"
       style="fill:#333333;stroke:#333333"
       cx="4.6894412"
       cy="1024.6318"
       r="0" /><path
       style="fill:none;stroke:#000000;stroke-width:1.5;stroke-linecap:butt;stroke-linejoin:miter;stroke-dasharray:none;stroke-opacity:0"
       d="m 3.9629118,1036.7901 c 10.8708272,-10.7363 17.9263552,-6.5758 24.2518992,0.1858 -6.445518,7.0061 -15.155894,10.3904 -24.2518992,-0.1858 z"
       id="path23-5"
       sodipodi:nodetypes="ccc" /><path
       id="rect23"
       style="fill:#202f35;fill-opacity:1;stroke:#000000;stroke-width:1.5;stroke-linecap:round;stroke-linejoin:round;stroke-dasharray:none;stroke-opacity:0;paint-order:markers stroke fill"
       d="M 16.039062 1026.5028 C 15.598385 1026.5028 15.242188 1026.857 15.242188 1027.2977 L 15.242188 1029.4579 C 15.099397 1029.4689 14.956329 1029.4751 14.814453 1029.4911 C 14.227105 1029.5581 13.653241 1029.6764 13.085938 1029.831 L 12.033203 1027.9696 C 11.816571 1027.5858 11.332972 1027.4522 10.949219 1027.6688 L 10.943359 1027.6688 C 10.559605 1027.8855 10.425946 1028.3691 10.642578 1028.7528 L 11.546875 1030.3544 C 10.494454 1030.7886 9.4709142 1031.3603 8.4667969 1032.038 L 6.96875 1030.5477 C 6.8124583 1030.3924 6.6076242 1030.3166 6.4042969 1030.3173 C 6.2009625 1030.3179 5.9990571 1030.3954 5.84375 1030.5517 L 5.8378906 1030.5575 C 5.5272834 1030.8701 5.5272532 1031.3719 5.8398438 1031.6825 L 7.1582031 1032.9931 C 5.9158949 1033.9545 4.6969799 1035.0571 3.4824219 1036.2548 L 3 1036.7294 L 3.4257812 1037.2587 C 4.5449659 1038.6498 5.7366367 1039.8592 6.984375 1040.87 L 5.8496094 1041.9989 C 5.5370135 1042.3095 5.5350944 1042.8113 5.8457031 1043.1239 L 5.8515625 1043.1337 C 6.1621751 1043.4463 6.6639667 1043.4482 6.9765625 1043.1337 L 8.2832031 1041.8368 C 10.476313 1043.322 12.82098 1044.1927 15.244141 1044.3427 L 15.244141 1045.4267 C 15.244141 1045.8674 15.600338 1046.2216 16.041016 1046.2216 L 16.076172 1046.2216 C 16.516849 1046.2216 16.871094 1045.8674 16.871094 1045.4267 L 16.871094 1044.331 C 19.176482 1044.1606 21.501241 1043.3286 23.771484 1041.7821 L 25.169922 1043.1708 C 25.482518 1043.4814 25.984309 1043.4795 26.294922 1043.1708 L 26.300781 1043.161 C 26.611394 1042.8484 26.609466 1042.3466 26.296875 1042.036 L 25.064453 1040.8114 C 26.25776 1039.8455 27.432623 1038.6855 28.576172 1037.3095 L 29.001953 1036.7977 L 28.542969 1036.3153 C 27.295924 1034.999 26.08637 1033.8972 24.908203 1032.9794 L 26.240234 1031.6571 C 26.552831 1031.3465 26.55476 1030.8447 26.244141 1030.5321 L 26.236328 1030.5224 C 25.925715 1030.2099 25.423925 1030.2079 25.111328 1030.5224 L 23.599609 1032.0243 C 22.564997 1031.3281 21.55404 1030.783 20.566406 1030.3739 L 21.484375 1028.747 C 21.701008 1028.3632 21.565394 1027.8796 21.181641 1027.663 L 21.173828 1027.663 C 20.790075 1027.4463 20.306476 1027.5801 20.089844 1027.9638 L 19.027344 1029.8446 C 18.288303 1029.64 17.561873 1029.5147 16.845703 1029.4599 L 16.845703 1027.2977 C 16.845703 1026.857 16.489506 1026.5028 16.048828 1026.5028 L 16.039062 1026.5028 z M 13.525391 1031.2704 A 5.7375894 5.5165467 0 0 0 10.398438 1036.1708 A 5.7375894 5.5165467 0 0 0 16.132812 1041.6884 A 5.7375894 5.5165467 0 0 0 21.871094 1036.1708 A 5.7375894 5.5165467 0 0 0 19.001953 1031.4091 C 21.386751 1032.1734 23.990607 1033.8856 26.923828 1036.8642 C 23.135505 1041.1877 19.24498 1043.0238 15.539062 1042.8661 C 11.862733 1042.7097 8.2701157 1040.5791 5.0957031 1036.8602 C 7.9130396 1034.1588 10.668748 1032.0621 13.525391 1031.2704 z M 18.421875 1032.0048 A 0.58883637 0.58883637 0 0 1 19.009766 1032.5946 A 0.58883637 0.58883637 0 0 1 18.421875 1033.1825 A 0.58883637 0.58883637 0 0 1 17.832031 1032.5946 A 0.58883637 0.58883637 0 0 1 18.421875 1032.0048 z M 14.369141 1032.7235 A 2.0173614 2.0173614 0 0 1 16.386719 1034.7411 A 2.0173614 2.0173614 0 0 1 14.369141 1036.7587 A 2.0173614 2.0173614 0 0 1 12.351562 1034.7411 A 2.0173614 2.0173614 0 0 1 14.369141 1032.7235 z M 19.335938 1038.0243 A 0.58883637 0.58883637 0 0 1 19.923828 1038.6142 A 0.58883637 0.58883637 0 0 1 19.335938 1039.202 A 0.58883637 0.58883637 0 0 1 18.746094 1038.6142 A 0.58883637 0.58883637 0 0 1 19.335938 1038.0243 z " /></g></svg>
