<?xml version="1.0" encoding="UTF-8" standalone="no"?>
<!-- Created with Inkscape (http://www.inkscape.org/) -->

<svg
   width="32"
   height="32"
   viewBox="0 0 32 32.000001"
   id="svg2"
   version="1.1"
   inkscape:version="1.3.1 (9b9bdc1480, 2023-11-25, custom)"
   sodipodi:docname="shop_motorcycle.2.svg"
   xml:space="preserve"
   xmlns:inkscape="http://www.inkscape.org/namespaces/inkscape"
   xmlns:sodipodi="http://sodipodi.sourceforge.net/DTD/sodipodi-0.dtd"
   xmlns="http://www.w3.org/2000/svg"
   xmlns:svg="http://www.w3.org/2000/svg"
   xmlns:rdf="http://www.w3.org/1999/02/22-rdf-syntax-ns#"
   xmlns:cc="http://creativecommons.org/ns#"
   xmlns:dc="http://purl.org/dc/elements/1.1/"><defs
     id="defs4"><inkscape:path-effect
       effect="fillet_chamfer"
       id="path-effect23"
       is_visible="true"
       lpeversion="1"
       nodesatellites_param="F,0,0,1,0,0,0,1 @ F,0,0,1,0,0.43057958,0,1 @ F,0,0,1,0,0.44218541,0,1 @ F,0,0,1,0,0,0,1 @ F,0,0,1,0,0,0,1 @ F,0,0,1,0,0,0,1 @ F,0,0,1,0,0,0,1 @ F,0,0,1,0,0,0,1 @ F,0,0,1,0,0,0,1 @ F,0,0,1,0,0,0,1"
       radius="0"
       unit="px"
       method="auto"
       mode="F"
       chamfer_steps="1"
       flexible="false"
       use_knot_distance="true"
       apply_no_radius="true"
       apply_with_radius="true"
       only_selected="false"
       hide_knots="false" /><inkscape:path-effect
       effect="fillet_chamfer"
       id="path-effect22"
       is_visible="true"
       lpeversion="1"
       nodesatellites_param="F,0,0,1,0,0,0,1 @ F,0,0,1,0,0,0,1 @ F,0,0,1,0,0,0,1 @ F,0,0,1,0,0.94651484,0,1 @ F,0,0,1,0,0.8500894,0,1 @ F,0,0,1,0,0.68193774,0,1 @ F,0,0,1,0,0.68193774,0,1 @ F,0,1,1,0,0.33620128,0,1 @ F,0,1,1,0,0.33620128,0,1 @ F,0,0,1,0,0.86386139,0,1 @ F,0,0,1,0,0.94385482,0,1 @ F,0,0,1,0,0,0,1 @ F,0,0,1,0,0,0,1"
       radius="0"
       unit="px"
       method="auto"
       mode="F"
       chamfer_steps="1"
       flexible="false"
       use_knot_distance="true"
       apply_no_radius="true"
       apply_with_radius="true"
       only_selected="false"
       hide_knots="false" /><inkscape:path-effect
       effect="fillet_chamfer"
       id="path-effect14"
       is_visible="true"
       lpeversion="1"
       nodesatellites_param="F,0,0,1,0,0.69167553,0,1 @ F,0,0,1,0,0.77102447,0,1 @ F,0,0,1,0,0.77395666,0,1 @ F,0,0,1,0,0.80542345,0,1 @ F,0,0,1,0,0.61263567,0,1"
       radius="0"
       unit="px"
       method="auto"
       mode="F"
       chamfer_steps="1"
       flexible="false"
       use_knot_distance="true"
       apply_no_radius="true"
       apply_with_radius="true"
       only_selected="false"
       hide_knots="false" /><inkscape:path-effect
       effect="fillet_chamfer"
       id="path-effect13"
       is_visible="true"
       lpeversion="1"
       nodesatellites_param="F,0,0,1,0,0,0,1 @ F,0,0,1,0,0,0,1 @ F,0,0,1,0,0,0,1 @ F,0,0,1,0,0,0,1 @ F,0,0,1,0,0,0,1 @ F,0,0,1,0,0,0,1 @ F,0,0,1,0,0,0,1 @ F,0,0,1,0,0,0,1 @ F,0,0,1,0,0,0,1 @ F,0,0,1,0,0,0,1 @ F,0,0,1,0,0,0,1 @ F,0,0,1,0,0,0,1 @ F,0,0,1,0,0,0,1 @ F,0,0,1,0,0,0,1 @ F,0,0,1,0,0,0,1 @ F,0,0,1,0,0,0,1 @ F,0,0,1,0,0,0,1 @ F,0,0,1,0,0,0,1 @ F,0,0,1,0,0,0,1 @ F,0,0,1,0,0,0,1 @ F,0,0,1,0,0,0,1 @ F,0,0,1,0,0,0,1 @ F,0,0,1,0,0,0,1 @ F,0,0,1,0,0,0,1 @ F,0,0,1,0,0,0,1 @ F,0,0,1,0,0,0,1 @ F,0,0,1,0,0,0,1 @ F,0,0,1,0,0,0,1 @ F,0,0,1,0,0,0,1 @ F,0,0,1,0,0,0,1 @ F,0,0,1,0,0,0,1 @ F,0,0,1,0,0,0,1 @ F,0,0,1,0,0,0,1 @ F,0,0,1,0,0,0,1 @ F,0,0,1,0,0,0,1 @ F,0,0,1,0,0,0,1 @ F,0,0,1,0,0,0,1 @ F,0,0,1,0,0,0,1 @ F,0,0,1,0,0,0,1 @ F,0,0,1,0,0,0,1 @ F,0,0,1,0,0,0,1"
       radius="0"
       unit="px"
       method="auto"
       mode="F"
       chamfer_steps="1"
       flexible="false"
       use_knot_distance="true"
       apply_no_radius="true"
       apply_with_radius="true"
       only_selected="false"
       hide_knots="false" /><inkscape:path-effect
       effect="fillet_chamfer"
       id="path-effect12"
       is_visible="true"
       lpeversion="1"
       nodesatellites_param="F,0,0,1,0,0,0,1 @ F,0,0,1,0,0,0,1 @ F,0,0,1,0,0,0,1 @ F,0,0,1,0,0,0,1 @ F,0,0,1,0,0,0,1 @ F,0,0,1,0,0,0,1 @ F,0,0,1,0,0,0,1 @ F,0,0,1,0,0,0,1 @ F,0,0,1,0,0,0,1 @ F,0,0,1,0,0,0,1 @ F,0,0,1,0,0,0,1 | F,0,0,1,0,0,0,1 @ F,0,0,1,0,0,0,1 @ F,0,0,1,0,0,0,1 @ F,0,0,1,0,0,0,1 @ F,0,0,1,0,0,0,1 @ F,0,0,1,0,0,0,1 @ F,0,0,1,0,0,0,1 @ F,0,0,1,0,0,0,1 @ F,0,0,1,0,0,0,1 | F,0,0,1,0,1.0714599,0,1 @ F,0,0,1,0,0.32501445,0,1 @ F,0,0,1,0,0.52505136,0,1 @ F,0,0,1,0,0.34488101,0,1 | F,0,0,1,0,0.37035257,0,1 @ F,0,0,1,0,0.3961333,0,1 @ F,0,0,1,0,0.41541052,0,1 @ F,0,0,1,0,0.34638595,0,1 | F,0,0,1,0,0,0,1 @ F,0,0,1,0,0,0,1 @ F,0,0,1,0,0,0,1 @ F,0,0,1,0,0,0,1 | F,0,0,1,0,0,0,1 @ F,0,0,1,0,0,0,1 @ F,0,0,1,0,0,0,1 @ F,0,0,1,0,0,0,1 | F,0,0,1,0,0.38002097,0,1 @ F,0,0,1,0,0.19335585,0,1 @ F,0,0,1,0,0.36547336,0,1 @ F,0,0,1,0,0.31023223,0,1 | F,0,0,1,0,0.31490615,0,1 @ F,0,0,1,0,0.17982706,0,1 @ F,0,0,1,0,0.25333788,0,1 @ F,0,0,1,0,0.29452287,0,1 | F,0,0,1,0,0.19809338,0,1 @ F,0,0,1,0,0.13171657,0,1 @ F,0,0,1,0,0.19913686,0,1 @ F,0,0,1,0,0.20182932,0,1 | F,0,0,1,0,0.18220144,0,1 @ F,0,0,1,0,0.18866345,0,1 @ F,0,0,1,0,0.18291735,0,1 @ F,0,0,1,0,0.18793134,0,1"
       radius="0"
       unit="px"
       method="auto"
       mode="F"
       chamfer_steps="1"
       flexible="false"
       use_knot_distance="true"
       apply_no_radius="true"
       apply_with_radius="true"
       only_selected="false"
       hide_knots="false" /><inkscape:path-effect
       effect="fillet_chamfer"
       id="path-effect4"
       is_visible="true"
       lpeversion="1"
       nodesatellites_param="F,0,0,1,0,1.2157455,0,1 @ F,0,0,1,0,0.87364157,0,1 @ F,0,0,1,0,0.76994398,0,1 @ F,0,0,1,0,1.2564157,0,1"
       radius="0"
       unit="px"
       method="auto"
       mode="F"
       chamfer_steps="1"
       flexible="false"
       use_knot_distance="true"
       apply_no_radius="true"
       apply_with_radius="true"
       only_selected="false"
       hide_knots="false" /><inkscape:path-effect
       effect="fillet_chamfer"
       id="path-effect3"
       is_visible="true"
       lpeversion="1"
       nodesatellites_param="F,0,0,1,0,0,0,1 @ F,0,0,1,0,0.81522384,0,1 @ F,0,0,1,0,0,0,1 @ F,0,0,1,0,0,0,1 @ F,0,0,1,0,0,0,1 @ F,0,0,1,0,0,0,1 @ F,0,0,1,0,0,0,1 @ F,0,0,1,0,3.2404649,0,1 @ F,0,0,1,0,0,0,1"
       radius="0"
       unit="px"
       method="auto"
       mode="F"
       chamfer_steps="1"
       flexible="false"
       use_knot_distance="true"
       apply_no_radius="true"
       apply_with_radius="true"
       only_selected="false"
       hide_knots="false" /></defs><sodipodi:namedview
     id="base"
     pagecolor="#ffffff"
     bordercolor="#666666"
     borderopacity="1.0"
     inkscape:pageopacity="0.0"
     inkscape:pageshadow="2"
     inkscape:zoom="7.4660509"
     inkscape:cx="12.992143"
     inkscape:cy="17.61306"
     inkscape:document-units="px"
     inkscape:current-layer="layer1"
     showgrid="false"
     inkscape:window-width="1318"
     inkscape:window-height="719"
     inkscape:window-x="48"
     inkscape:window-y="27"
     inkscape:window-maximized="1"
     units="px"
     inkscape:showpageshadow="2"
     inkscape:pagecheckerboard="0"
     inkscape:deskcolor="#d1d1d1"
     showguides="false" /><metadata
     id="metadata7"><rdf:RDF><cc:Work
         rdf:about=""><dc:format>image/svg+xml</dc:format><dc:type
           rdf:resource="http://purl.org/dc/dcmitype/StillImage" /></cc:Work></rdf:RDF></metadata><g
     inkscape:label="Calque 1"
     inkscape:groupmode="layer"
     id="layer1"
     transform="translate(0,-1020.3622)"><circle
       id="path2"
       style="fill:#333333;stroke:#333333"
       cx="4.6894412"
       cy="1024.6318"
       r="0" /><g
       id="path7-6"
       transform="matrix(3.7795276,0,0,3.7795276,-41.579914,960.98054)" /><g
       id="path19-0"
       transform="matrix(3.7795276,0,0,3.7795276,-53.498159,962.02598)" /><g
       id="rect22-0-4"
       transform="matrix(-3.7795276,0,0,3.7795276,62.388813,962.89591)" /><g
       id="rect22-7-4"
       transform="matrix(-3.7795276,0,0,3.7795276,63.084564,962.02527)" /><g
       id="path26-4"
       transform="matrix(3.7795276,0,0,3.7795276,-53.498159,962.02598)" /><g
       id="path52-1-4"
       transform="matrix(-3.7795276,0,0,3.7795276,29.638537,962.02598)" /><g
       id="path7-6-6"
       transform="matrix(1.3233876,0,0,1.3233876,-4.8370295,1013.8143)" /><g
       id="g17"
       style="stroke:none"><path
         id="path13"
         style="fill:#ac39ac;fill-opacity:1;stroke:none;stroke-width:0.150683;stroke-linecap:round;stroke-linejoin:bevel;stroke-dasharray:none;stroke-opacity:1;paint-order:markers stroke fill"
         d="M 21.398438 1027.5673 C 20.579558 1027.7055 20.089856 1028.0481 19.681641 1028.622 C 19.772721 1029.0067 19.947878 1029.1461 20.636719 1029.3856 C 22.163765 1029.9167 23.179448 1030.4829 23.423828 1030.9364 C 23.678049 1031.408 22.193894 1031.8441 22.119141 1031.8349 C 21.901162 1031.8089 21.810628 1031.6725 21.394531 1030.7372 C 20.86548 1029.548 20.963021 1029.6019 20.070312 1029.9794 C 19.805995 1030.3748 19.405382 1030.3778 19.261719 1030.4716 C 18.419258 1029.8781 17.040343 1029.827 16.589844 1029.827 C 12.90609 1029.827 13.203457 1031.9326 11.191406 1032.0263 C 9.8453048 1032.0883 8.686206 1031.6162 7.6953125 1030.6005 C 6.9775362 1029.8647 6.6444673 1029.7701 4.5136719 1029.7001 C 3.0811862 1029.6531 2.9171776 1029.6619 3.0234375 1029.7899 C 3.2842506 1030.1042 2.4884248 1030.1063 2.7753906 1030.3935 C 3.2709779 1030.8864 3.1365456 1029.9716 4.5605469 1031.3231 C 5.7075062 1032.4115 6.6191573 1032.9616 7.4316406 1033.0556 C 8.5421735 1033.3331 9.3857391 1033.5318 10.234375 1034.245 C 11.083012 1034.9582 11.477088 1035.8429 11.591797 1036.8192 L 6.0644531 1038.0321 L 6.125 1038.4227 C 6.2391736 1039.1589 6.1943863 1039.1785 7.5019531 1039.1239 L 7.5019531 1039.1083 C 8.9215844 1039.0543 10.504387 1038.9884 11.875 1038.9501 C 11.94176 1039.2456 11.845904 1039.5426 11.839844 1039.6669 C 11.747014 1040.1092 11.602799 1040.5345 11.414062 1040.9345 L 11.617188 1041.1044 C 14.454749 1041.2142 17.304009 1041.2333 20.134766 1041.0224 C 20.166606 1040.9904 20.128468 1040.5904 20.048828 1040.1337 C 19.929793 1039.4512 19.904297 1038.9449 19.904297 1038.3856 C 19.904297 1035.2944 22.420472 1032.7763 25.511719 1032.7763 C 25.704264 1032.7763 25.894417 1032.7866 26.082031 1032.8036 L 26.083984 1032.8036 C 26.250861 1032.6384 26.187344 1032.4237 25.904297 1032.0185 C 25.431066 1031.3409 24.809109 1030.5204 24.130859 1029.6825 C 23.335825 1028.998 23.518758 1028.9846 22.660156 1028.2372 C 22.24016 1028.0128 21.819273 1027.7901 21.398438 1027.5673 z M 6.171875 1033.7079 C 3.6566625 1033.7079 1.6054688 1035.7591 1.6054688 1038.2743 C 1.6054688 1040.7896 3.6566625 1042.8407 6.171875 1042.8407 C 8.1082968 1042.8407 9.7696778 1041.6242 10.431641 1039.9169 L 10.552734 1039.5243 L 9.3261719 1039.5477 C 8.8094995 1040.7311 7.5508185 1041.6278 6.171875 1041.6278 C 4.3127559 1041.6278 2.8183594 1040.1335 2.8183594 1038.2743 C 2.8183594 1036.4152 4.3127559 1034.9208 6.171875 1034.9208 C 7.5479059 1034.9208 8.7257725 1035.7377 9.2441406 1036.9169 L 10.439453 1036.6474 C 9.7819121 1034.931 8.1148314 1033.7079 6.171875 1033.7079 z M 25.746094 1033.7079 C 23.230881 1033.7079 21.179687 1035.7591 21.179688 1038.2743 C 21.179688 1040.7896 23.230881 1042.8407 25.746094 1042.8407 C 28.261306 1042.8407 30.3125 1040.7896 30.3125 1038.2743 C 30.3125 1035.7591 28.261306 1033.7079 25.746094 1033.7079 z M 25.746094 1034.9208 C 27.605213 1034.9208 29.099609 1036.4152 29.099609 1038.2743 C 29.099609 1040.1335 27.605213 1041.6278 25.746094 1041.6278 C 23.886975 1041.6278 22.392578 1040.1335 22.392578 1038.2743 C 22.392578 1036.4152 23.886975 1034.9208 25.746094 1034.9208 z " /><g
         id="path14"
         transform="translate(0.13184032,0.05015624)"
         style="stroke:none"><path
           style="color:#000000;fill:#ffffff;-inkscape-stroke:none;stroke:none"
           d="m 7.0607934,1037.2443 3.9919916,-0.862"
           id="path15" /></g><g
         id="path14-5"
         transform="matrix(0.96872589,-0.24813335,-0.24813335,-0.96872589,258.05574,2046.1667)"
         inkscape:transform-center-x="-2.0579023"
         inkscape:transform-center-y="0.4049549"
         style="stroke:none"><path
           style="color:#000000;fill:#ffffff;-inkscape-stroke:none;stroke:none"
           d="m 7.0607934,1037.2443 3.9919916,-0.862"
           id="path15-3" /></g></g></g></svg>
