<?xml version="1.0" encoding="UTF-8" standalone="no"?>
<!-- Created with Inkscape (http://www.inkscape.org/) -->

<svg
   width="32mm"
   height="32mm"
   viewBox="0 0 32 32"
   version="1.1"
   id="svg1"
   xml:space="preserve"
   inkscape:version="1.3.1 (9b9bdc1480, 2023-11-25, custom)"
   sodipodi:docname="shop_shoes.svg"
   xmlns:inkscape="http://www.inkscape.org/namespaces/inkscape"
   xmlns:sodipodi="http://sodipodi.sourceforge.net/DTD/sodipodi-0.dtd"
   xmlns="http://www.w3.org/2000/svg"
   xmlns:svg="http://www.w3.org/2000/svg"><sodipodi:namedview
     id="namedview1"
     pagecolor="#ffffff"
     bordercolor="#666666"
     borderopacity="1.0"
     inkscape:showpageshadow="2"
     inkscape:pageopacity="0.0"
     inkscape:pagecheckerboard="0"
     inkscape:deskcolor="#d1d1d1"
     inkscape:document-units="mm"
     showguides="true"
     inkscape:zoom="2"
     inkscape:cx="46"
     inkscape:cy="64.250001"
     inkscape:window-width="1318"
     inkscape:window-height="719"
     inkscape:window-x="48"
     inkscape:window-y="27"
     inkscape:window-maximized="1"
     inkscape:current-layer="layer1"
     showgrid="false"><sodipodi:guide
       position="16.26208,29.671599"
       orientation="0,-1"
       id="guide8"
       inkscape:locked="false" /><sodipodi:guide
       position="0.45003611,24.90516"
       orientation="1,0"
       id="guide36"
       inkscape:locked="false" /><sodipodi:guide
       position="29.485911,9.5526053"
       orientation="1,0"
       id="guide37"
       inkscape:locked="false" /><sodipodi:guide
       position="8.9802559,1.7851799"
       orientation="0,-1"
       id="guide38"
       inkscape:locked="false" /><sodipodi:guide
       position="12.464872,5.3716509"
       orientation="0,-1"
       id="guide45"
       inkscape:locked="false" /><sodipodi:guide
       position="32.171697,15.989473"
       orientation="0,-1"
       id="guide46"
       inkscape:locked="false" /><sodipodi:guide
       position="4.9261733,27.506351"
       orientation="1,0"
       id="guide47"
       inkscape:locked="false" /><sodipodi:guide
       position="55.115328,-17.201583"
       orientation="1,0"
       id="guide48"
       inkscape:locked="false" /></sodipodi:namedview><defs
     id="defs1"><inkscape:path-effect
       effect="fillet_chamfer"
       id="path-effect3"
       is_visible="true"
       lpeversion="1"
       nodesatellites_param="F,0,0,1,0,0,0,1 @ F,0,0,1,0,0,0,1 @ F,0,0,1,0,0,0,1 @ F,0,0,1,0,0,0,1 @ F,0,0,1,0,0,0,1 @ F,0,0,1,0,0,0,1 @ F,0,0,1,0,0,0,1 @ F,0,0,1,0,0,0,1 @ F,0,0,1,0,0,0,1 @ F,0,0,1,0,0,0,1 @ F,0,0,1,0,0.65069392,0,1 @ F,0,0,1,0,0,0,1 @ F,0,0,1,0,0,0,1 @ F,0,0,1,0,0,0,1 @ F,0,0,1,0,0,0,1 @ F,0,0,1,0,0,0,1 @ F,0,0,1,0,0,0,1 @ F,0,0,1,0,0,0,1 @ F,0,0,1,0,0,0,1 @ F,0,0,1,0,0,0,1 @ F,0,0,1,0,0,0,1 @ F,0,0,1,0,0,0,1 @ F,0,0,1,0,0,0,1 @ F,0,0,1,0,0,0,1 @ F,0,0,1,0,0,0,1 @ F,0,0,1,0,0,0,1 @ F,0,0,1,0,0,0,1 @ F,0,0,1,0,0,0,1 @ F,0,0,1,0,0,0,1 @ F,0,0,1,0,0,0,1 @ F,0,0,1,0,0,0,1 @ F,0,0,1,0,0,0,1 @ F,0,0,1,0,0,0,1 @ F,0,0,1,0,0,0,1 @ F,0,0,1,0,0,0,1 @ F,0,0,1,0,0,0,1 @ F,0,0,1,0,0,0,1 @ F,0,0,1,0,0,0,1 @ F,0,0,1,0,0,0,1 @ F,0,0,1,0,0,0,1 @ F,0,0,1,0,0,0,1 @ F,0,0,1,0,0,0,1 @ F,0,0,1,0,0,0,1 @ F,0,0,1,0,0,0,1 @ F,0,0,1,0,0,0,1 @ F,0,0,1,0,0,0,1 @ F,0,0,1,0,0,0,1 @ F,0,0,1,0,0,0,1 @ F,0,0,1,0,0,0,1 @ F,0,0,1,0,0,0,1 @ F,0,0,1,0,0,0,1 @ F,0,0,1,0,0,0,1 @ F,0,0,1,0,0,0,1 @ F,0,0,1,0,0,0,1 @ F,0,0,1,0,0,0,1 @ F,0,0,1,0,0,0,1 @ F,0,0,1,0,0,0,1 @ F,0,0,1,0,0,0,1 @ F,0,0,1,0,0,0,1 @ F,0,0,1,0,0,0,1 | F,0,0,1,0,0,0,1 @ F,0,0,1,0,0,0,1 @ F,0,0,1,0,0,0,1 @ F,0,0,1,0,0,0,1 @ F,0,0,1,0,0,0,1 @ F,0,0,1,0,0,0,1 @ F,0,0,1,0,0,0,1 @ F,0,0,1,0,0,0,1 @ F,0,0,1,0,0,0,1 @ F,0,0,1,0,0.46917741,0,1 @ F,0,0,1,0,0,0,1 @ F,0,0,1,0,0,0,1 @ F,0,0,1,0,0,0,1 @ F,0,0,1,0,0,0,1 @ F,0,0,1,0,0,0,1 @ F,0,0,1,0,0,0,1"
       radius="0"
       unit="px"
       method="auto"
       mode="F"
       chamfer_steps="1"
       flexible="false"
       use_knot_distance="true"
       apply_no_radius="true"
       apply_with_radius="true"
       only_selected="false"
       hide_knots="false" /><inkscape:perspective
       sodipodi:type="inkscape:persp3d"
       inkscape:vp_x="-183.11487 : 148.50001 : 1"
       inkscape:vp_y="0 : 1000 : 0"
       inkscape:vp_z="-195.51426 : 148.50001 : 1"
       inkscape:persp3d-origin="-189.31457 : 99.000003 : 1"
       id="perspective10172" /><symbol
       id="Recycling"><title
         id="title7498">Recycling</title><g
         style="stroke:none"
         id="g7512"><path
           style="stroke-width:0.26458332"
           inkscape:connector-curvature="0"
           d="m 14.684375,3.9026042 -1.389063,0.79375 -0.926041,-1.5875 C 12.236979,2.8773437 11.972396,2.7119792 11.608594,2.7119792 H 8.8304687 C 9.0289062,2.9104167 9.0619792,2.9765625 9.1611979,3.1419271 L 10.88099,6.1184896 9.4919271,6.9122396 H 12.93151 Z"
           id="path7500" /><path
           style="stroke-width:0.26458332"
           inkscape:connector-curvature="0"
           d="m 14.254427,12.038542 h 1.389063 c 0.826822,0 1.322916,-0.892969 0.926041,-1.5875 l -1.752864,-3.069167 -2.38125,1.3890625 z"
           id="path7502" /><path
           style="stroke-width:0.26458332"
           inkscape:connector-curvature="0"
           d="m 12.170833,17.065625 v -1.5875 h 1.852084 c 0.264583,0 0.529166,-0.132292 0.727604,-0.463021 l 1.389062,-2.38125 C 15.875,12.7 15.775781,12.7 15.610417,12.7 h -3.439584 v -1.5875 l -1.719791,2.976562 z"
           id="path7504" /><path
           style="stroke-width:0.26458332"
           inkscape:connector-curvature="0"
           d="m 5.3578125,12.7 -0.6945313,1.190625 c -0.396875,0.727604 0.099219,1.5875 0.8929688,1.5875 H 9.0619792 V 12.7 Z"
           id="path7506" /><path
           style="stroke-width:0.26458332"
           inkscape:connector-curvature="0"
           d="m 2.0505208,8.4005208 1.3890625,0.79375 -0.9260416,1.5875002 C 2.38125,11.013281 2.38125,11.310937 2.5466146,11.641667 l 1.3559896,2.38125 c 0.066146,-0.264584 0.099219,-0.33073 0.1984375,-0.496094 L 5.8208333,10.55026 7.2098958,11.34401 5.4901042,8.3674479 Z"
           id="path7508" /><path
           style="stroke-width:0.26458332"
           inkscape:connector-curvature="0"
           d="M 9.2604167,4.6302083 8.5989583,3.4395833 c -0.4299479,-0.6945312 -1.4221354,-0.6945312 -1.8190104,0 l -1.7528646,3.0427084 2.38125,1.3890625 z"
           id="path7510" /></g></symbol><inkscape:perspective
       id="perspective8310"
       inkscape:persp3d-origin="372.04724 : 350.7874 : 1"
       inkscape:vp_z="744.09447 : 526.18111 : 1"
       inkscape:vp_y="0 : 1000 : 0"
       inkscape:vp_x="0 : 526.18111 : 1"
       sodipodi:type="inkscape:persp3d" /><inkscape:perspective
       id="perspective5302"
       inkscape:persp3d-origin="372.04724 : 350.7874 : 1"
       inkscape:vp_z="744.09447 : 526.18111 : 1"
       inkscape:vp_y="0 : 1000 : 0"
       inkscape:vp_x="0 : 526.18111 : 1"
       sodipodi:type="inkscape:persp3d" /><symbol
       id="ToiletsMen"><title
         id="title4892">Toilets - Men</title><g
         style="stroke:none"
         id="g4898"><circle
           cx="36"
           cy="9"
           r="5"
           id="circle4894" /><path
           d="m 24,22 v 15.5 a 2.25,2.25 0 0 0 4.5,0 V 23 h 1 v 39.5 a 3,3 0 0 0 6,0 V 40 h 1 v 22.5 a 3,3 0 0 0 6,0 V 23 h 1 v 14.5 a 2.25,2.25 0 0 0 4.5,0 V 22 A 7,7 0 0 0 41,15 H 31 a 7,7 0 0 0 -7,7 z"
           id="path4896"
           inkscape:connector-curvature="0" /></g></symbol><inkscape:perspective
       sodipodi:type="inkscape:persp3d"
       inkscape:vp_x="0 : 100 : 1"
       inkscape:vp_y="0 : 1000 : 0"
       inkscape:vp_z="200 : 100 : 1"
       inkscape:persp3d-origin="100 : 66.666667 : 1"
       id="perspective2879" /></defs><g
     inkscape:label="Livello 1"
     inkscape:groupmode="layer"
     id="layer1"><g
       id="path19" /><g
       id="rect22-0"
       transform="matrix(-1,0,0,1,30.661761,0.23016813)" /><g
       id="rect22-7"
       transform="matrix(-1,0,0,1,30.845845,-1.8811487e-4)" /><g
       id="path26" /><g
       id="path52"
       transform="translate(-38.081357,-6.611757)" /><g
       id="path52-1"
       transform="matrix(-1,0,0,1,21.996584,0)" /><g
       id="path19-0"
       transform="translate(3.6443103,6.1232351)" /><g
       id="rect22-0-8"
       transform="matrix(-1,0,0,1,34.306071,6.3534032)" /><g
       id="rect22-7-5"
       transform="matrix(-1,0,0,1,34.490155,6.123047)" /><g
       id="path26-0"
       transform="translate(3.6443103,6.1232351)" /><g
       id="path52-1-6"
       transform="matrix(-1,0,0,1,25.640894,6.1232351)" /><g
       id="path7-6"
       transform="translate(-27.436615,5.5770687)" /><g
       id="g40-6-7"
       transform="translate(0.115617,-0.13948398)" /><path
       id="path1"
       style="fill:#ac39ac;fill-opacity:1;stroke:none;stroke-width:0.0023091"
       d="M 12.24008,2.7677897 C 12.23498,2.7674453 12.159624,2.8968044 12.070581,3.0509766 11.849,3.4439327 10.917019,4.8820845 10.576099,5.3572957 9.317431,7.1088256 7.8043661,8.8580674 6.4244141,10.151318 c -0.5270387,0.494949 -0.6524385,0.633601 -0.9865031,1.09399 -0.1957503,0.270513 -0.668279,1.022314 -0.9172567,1.446424 0.2373116,0.118845 1.0037568,0.559381 1.5575277,1.597318 0.279841,0.524513 1.1606162,1.59404 1.9569865,2.498039 0.7860971,0.892339 1.4778153,1.623552 1.4960327,1.642794 0,0 13.3649268,8.402178 14.2012008,8.880595 0.605907,0.346625 2.559589,0.35305 3.589961,0.330212 0.359096,-0.008 0.894146,-0.180593 1.195276,-0.376721 l 1.058333,-0.689364 C 29.396056,25.51021 28.716776,24.93993 28.319202,24.736991 27.84981,24.500077 26.749903,24.141348 25.869739,23.943758 25.33855,23.822746 25.391924,23.844927 25.070304,23.638867 23.929493,22.974716 23.528905,21.899096 22.817212,20.709847 22.5926,20.54759 22.958653,20.588003 22.851318,20.395138 l -0.299723,-0.378789 -0.150895,0.09508 -0.467672,-0.783415 c -0.01563,-0.01835 0.103688,-0.106973 0.113688,-0.122473 0.06152,-0.09496 -0.169884,-0.481136 -0.410827,-0.68678 -0.102355,-0.08833 -0.124928,-0.07864 -0.168465,0.06925 -0.03495,0.117679 -0.05167,0.134526 -0.09819,0.104386 -0.03682,-0.02386 -0.422423,-0.634586 -0.412378,-0.650089 0.005,-0.0077 -0.0028,-0.08957 -0.0155,-0.180351 -0.01398,-0.08884 -0.0199,-0.194261 -0.01395,-0.228927 0.01661,-0.102044 -0.03919,-0.223685 -0.218075,-0.482658 l -0.165364,-0.233577 -0.05581,0.0186 c -0.04849,0.01536 -0.07148,0.0088 -0.116272,-0.03669 -0.05904,-0.05751 -0.09793,-0.137858 -0.256315,-0.543119 l -0.102319,-0.258382 0.09095,-0.01292 c 0.102987,-0.01032 0.132509,-0.04345 0.142627,-0.152446 0.0109,-0.0975 -0.06064,-0.347485 -0.140043,-0.492476 -0.06367,-0.118302 -0.07721,-0.127333 -0.301274,-0.167949 -0.03148,-0.0066 -0.05549,-0.09356 -0.09457,-0.338997 -0.04465,-0.279308 -0.117956,-0.989756 -0.111622,-1.092957 -2.74e-4,-0.01668 0.05036,-0.03093 0.124024,-0.02997 0.08712,0.0014 0.131323,-0.01086 0.151412,-0.04186 0.07408,-0.114334 0.05989,-0.50904 -0.02791,-0.709001 -0.05478,-0.123529 -0.09237,-0.15054 -0.239262,-0.165881 -0.04103,-0.0046 -0.07461,-0.01221 -0.07597,-0.0186 4.04e-4,-0.0052 -0.01021,-0.205173 -0.0217,-0.446485 -0.01929,-0.348162 -0.01649,-0.445401 0.01705,-0.47594 0.124018,-0.114997 0.08772,-0.862143 -0.04599,-0.948779 -0.02909,-0.01885 -0.04303,-0.107412 -0.05168,-0.327629 -0.0066,-0.163867 -0.02104,-0.473119 -0.03152,-0.6862626 -0.02968,-0.5062318 0.0088,-0.5997794 0.192237,-0.4836914 0.08914,0.057756 0.129483,0.034627 0.158646,-0.086816 0.03772,-0.1516458 0.03271,-0.4633173 -0.01188,-0.6407877 -0.04129,-0.169829 -0.209706,0.047414 -0.300572,0.00505 -0.771633,-0.8958875 -0.374288,-1.7957444 -0.893671,-2.5645858 -0.0014,-0.1549759 -0.0187,-0.2265657 -0.05994,-0.2945557 -0.07645,-0.1155659 -0.12842,-0.1493493 -0.28112,-0.1684651 -0.347786,-0.049247 -0.90545,0.1397183 -1.099674,0.3715535 l -0.07131,0.088883 -0.47749,-0.2904216 C 15.437992,5.2468415 13.891061,4.1264581 12.642639,3.0892171 12.427679,2.9114008 12.246467,2.7664251 12.24008,2.7677897 Z m 4.687569,3.5351847 0.254248,0.07183 c -0.20911,0.7443149 0.05405,1.3556628 0.376721,1.7973063 0.248712,0.3404132 0.47768,0.5249485 0.592729,0.611849 l 0.97472,-0.1285269 0.08165,0.2501139 -1.092026,0.1683177 -0.0083,0.011886 c 0,0 -0.0081,-0.00606 -0.0083,-0.0062 l -1.351846,0.2376747 -0.0081,0.5793056 2.408095,-0.3704313 0.0078,0.2971526 -2.66875,0.472217 0.01721,-1.2209485 1.349115,-0.1908238 C 17.706267,8.7546245 17.518074,8.5669166 17.343644,8.3281738 16.991596,7.8463146 16.692423,7.1402531 16.927649,6.3029744 Z m -0.473188,4.8024696 2.721113,-0.30662 v 0.26355 l -2.455497,0.30662 v 0.736389 l 2.391418,-0.30662 V 12.06438 L 16.454461,12.371 Z m 0.170721,2.226375 2.581914,-0.60133 v 0.265617 l -2.27206,0.546128 0.129523,0.667087 2.095512,-0.53367 v 0.26355 l -2.304504,0.57917 z M 4.1010417,12.879834 c -0.066498,0.0119 -0.1471483,0.118307 -0.3669027,0.400492 -0.7034828,0.911638 -1.3044552,1.75817 -1.3549561,1.912545 -0.02035,0.06111 -0.01253,0.112848 0.040308,0.235128 0.282863,0.667515 1.1926327,1.433096 3.3791219,2.844271 5.1310282,2.95671 16.3863752,10.448017 17.4335612,10.594185 2.598336,0.363118 4.911228,0.468615 5.663737,0.258382 0.283351,-0.08058 0.349053,-0.16351 0.497644,-0.629935 0.164599,-0.525599 0.227138,-0.985887 0.224792,-1.392164 l -1.12913,0.735356 c -0.217152,0.141378 -0.603405,0.262525 -0.86248,0.267167 -1.037555,0.01859 -3.480027,0.02205 -4.044714,-0.339514 C 22.860041,27.303468 9.2325114,18.793168 9.2325114,18.793168 l -0.019637,-0.0217 c 0,0 -0.7247577,-0.764571 -1.5275553,-1.675867 -0.8027978,-0.9113 -1.6760817,-1.948137 -2.017448,-2.587959 -0.5860651,-1.098468 -1.4278198,-1.439189 -1.4278198,-1.439189 -0.080789,-0.0332 -0.1293482,-0.1076 -0.1390096,-0.188619 z m 15.4088783,2.315621 0.05271,0.257865 -2.089013,0.640525 0.240822,0.617096 2.062651,-0.685563 0.06098,0.257866 -2.264336,0.795293 -0.43581,-1.118717 z m 0.611332,1.704805 0.101286,0.24443 -1.775082,1.095312 0.271302,0.484208 1.751827,-0.984208 0.08992,0.250114 -1.964734,1.058622 -0.523483,-0.939477 z m 0.931727,1.765784 0.130741,0.230477 -1.461525,1.079898 0.335897,0.444934 1.446626,-0.966415 0.192547,0.179246 -1.715137,1.1272 -0.652673,-0.865064 z m 0.94233,1.601932 0.166169,0.2064 -1.266205,1.029394 0.381544,0.353491 1.171679,-0.984678 0.172903,0.199541 -1.338007,1.15154 -0.77542,-0.718346 z"
       sodipodi:nodetypes="ccccccsscsscccccccccccccsccccccccccccccccccccccsccccccccccccccccscccccccccccccccccccccccccccccccccccccccccccssccsccccccccccccccccccccccccccccccccccccccc" /></g></svg>
