<?xml version="1.0" encoding="UTF-8" standalone="no"?>
<!-- Created with Inkscape (http://www.inkscape.org/) -->

<svg
   width="32mm"
   height="32mm"
   viewBox="0 0 32 32"
   version="1.1"
   id="svg1"
   xml:space="preserve"
   inkscape:version="1.3.1 (9b9bdc1480, 2023-11-25, custom)"
   sodipodi:docname="shop_mobile_phone.16.svg"
   xmlns:inkscape="http://www.inkscape.org/namespaces/inkscape"
   xmlns:sodipodi="http://sodipodi.sourceforge.net/DTD/sodipodi-0.dtd"
   xmlns="http://www.w3.org/2000/svg"
   xmlns:svg="http://www.w3.org/2000/svg"><sodipodi:namedview
     id="namedview1"
     pagecolor="#ffffff"
     bordercolor="#666666"
     borderopacity="1.0"
     inkscape:showpageshadow="2"
     inkscape:pageopacity="0.0"
     inkscape:pagecheckerboard="0"
     inkscape:deskcolor="#d1d1d1"
     inkscape:document-units="mm"
     inkscape:zoom="1.3394531"
     inkscape:cx="-29.11636"
     inkscape:cy="84.736075"
     inkscape:window-width="1318"
     inkscape:window-height="719"
     inkscape:window-x="48"
     inkscape:window-y="27"
     inkscape:window-maximized="1"
     inkscape:current-layer="layer1" /><defs
     id="defs1" /><g
     inkscape:label="Livello 1"
     inkscape:groupmode="layer"
     id="layer1"><path
       id="rect13"
       style="fill:#ac39ac;fill-opacity:1;stroke:none;stroke-width:1.434;stroke-linecap:round;stroke-linejoin:bevel;stroke-dasharray:none;stroke-opacity:0.913725;paint-order:markers stroke fill"
       d="m 12.97202,2.1427065 c -0.561821,0 -1.01441,0.4520718 -1.01441,1.0138916 v 3.166215 c 0,0.024461 0.0024,0.04833 0.0041,0.072347 -1.9983935,0.295982 -3.5589555,3.2808973 -3.5589555,6.9453129 v 9.545671 c 0,3.861984 1.7330075,6.97115 3.8855505,6.97115 h 7.423836 c 2.152544,0 3.885034,-3.109166 3.885034,-6.97115 v -9.545671 c 0,-3.861984 -1.732491,-6.9711511 -3.885034,-6.9711511 h -4.246768 c 7e-4,-0.015539 0.0021,-0.03079 0.0021,-0.046509 v -3.166215 c 0,-0.5618198 -0.452073,-1.0138916 -1.013893,-1.0138916 z m -2.383317,7.1814738 h 10.823111 c 0.561819,0 1.013891,0.4520701 1.013891,1.0138917 v 12.581144 c 0,0.56182 -0.452072,1.014409 -1.013891,1.014409 H 10.588703 c -0.561821,0 -1.0144095,-0.452589 -1.0144095,-1.014409 V 10.338072 c 0,-0.5618216 0.4525885,-1.0138916 1.0144095,-1.0138917 z m 3.805968,15.7964527 h 3.211173 c 0.56182,0 1.013892,0.452071 1.013892,1.013891 v 0.649573 c 0,0.56182 -0.452072,1.013891 -1.013892,1.013891 h -3.211173 c -0.56182,0 -1.013891,-0.452071 -1.013891,-1.013891 v -0.649573 c 0,-0.56182 0.452071,-1.013891 1.013891,-1.013891 z" /></g></svg>
