<?xml version="1.0" encoding="UTF-8" standalone="no"?>
<!-- Created with Inkscape (http://www.inkscape.org/) -->

<svg
   width="32"
   height="32"
   viewBox="0 0 32 32.000001"
   id="svg2"
   version="1.1"
   inkscape:version="1.3.1 (9b9bdc1480, 2023-11-25, custom)"
   sodipodi:docname="shop_alcohol.svg"
   xml:space="preserve"
   xmlns:inkscape="http://www.inkscape.org/namespaces/inkscape"
   xmlns:sodipodi="http://sodipodi.sourceforge.net/DTD/sodipodi-0.dtd"
   xmlns="http://www.w3.org/2000/svg"
   xmlns:svg="http://www.w3.org/2000/svg"
   xmlns:rdf="http://www.w3.org/1999/02/22-rdf-syntax-ns#"
   xmlns:cc="http://creativecommons.org/ns#"
   xmlns:dc="http://purl.org/dc/elements/1.1/"><defs
     id="defs4"><inkscape:path-effect
       effect="fillet_chamfer"
       id="path-effect23"
       is_visible="true"
       lpeversion="1"
       nodesatellites_param="F,0,0,1,0,0,0,1 @ F,0,0,1,0,0.43057958,0,1 @ F,0,0,1,0,0.44218541,0,1 @ F,0,0,1,0,0,0,1 @ F,0,0,1,0,0,0,1 @ F,0,0,1,0,0,0,1 @ F,0,0,1,0,0,0,1 @ F,0,0,1,0,0,0,1 @ F,0,0,1,0,0,0,1 @ F,0,0,1,0,0,0,1"
       radius="0"
       unit="px"
       method="auto"
       mode="F"
       chamfer_steps="1"
       flexible="false"
       use_knot_distance="true"
       apply_no_radius="true"
       apply_with_radius="true"
       only_selected="false"
       hide_knots="false" /><inkscape:path-effect
       effect="fillet_chamfer"
       id="path-effect22"
       is_visible="true"
       lpeversion="1"
       nodesatellites_param="F,0,0,1,0,0,0,1 @ F,0,0,1,0,0,0,1 @ F,0,0,1,0,0,0,1 @ F,0,0,1,0,0.94651484,0,1 @ F,0,0,1,0,0.8500894,0,1 @ F,0,0,1,0,0.68193774,0,1 @ F,0,0,1,0,0.68193774,0,1 @ F,0,1,1,0,0.33620128,0,1 @ F,0,1,1,0,0.33620128,0,1 @ F,0,0,1,0,0.86386139,0,1 @ F,0,0,1,0,0.94385482,0,1 @ F,0,0,1,0,0,0,1 @ F,0,0,1,0,0,0,1"
       radius="0"
       unit="px"
       method="auto"
       mode="F"
       chamfer_steps="1"
       flexible="false"
       use_knot_distance="true"
       apply_no_radius="true"
       apply_with_radius="true"
       only_selected="false"
       hide_knots="false" /><inkscape:path-effect
       effect="fillet_chamfer"
       id="path-effect14"
       is_visible="true"
       lpeversion="1"
       nodesatellites_param="F,0,0,1,0,0.69167553,0,1 @ F,0,0,1,0,0.77102447,0,1 @ F,0,0,1,0,0.77395666,0,1 @ F,0,0,1,0,0.80542345,0,1 @ F,0,0,1,0,0.61263567,0,1"
       radius="0"
       unit="px"
       method="auto"
       mode="F"
       chamfer_steps="1"
       flexible="false"
       use_knot_distance="true"
       apply_no_radius="true"
       apply_with_radius="true"
       only_selected="false"
       hide_knots="false" /><inkscape:path-effect
       effect="fillet_chamfer"
       id="path-effect13"
       is_visible="true"
       lpeversion="1"
       nodesatellites_param="F,0,0,1,0,0,0,1 @ F,0,0,1,0,0,0,1 @ F,0,0,1,0,0,0,1 @ F,0,0,1,0,0,0,1 @ F,0,0,1,0,0,0,1 @ F,0,0,1,0,0,0,1 @ F,0,0,1,0,0,0,1 @ F,0,0,1,0,0,0,1 @ F,0,0,1,0,0,0,1 @ F,0,0,1,0,0,0,1 @ F,0,0,1,0,0,0,1 @ F,0,0,1,0,0,0,1 @ F,0,0,1,0,0,0,1 @ F,0,0,1,0,0,0,1 @ F,0,0,1,0,0,0,1 @ F,0,0,1,0,0,0,1 @ F,0,0,1,0,0,0,1 @ F,0,0,1,0,0,0,1 @ F,0,0,1,0,0,0,1 @ F,0,0,1,0,0,0,1 @ F,0,0,1,0,0,0,1 @ F,0,0,1,0,0,0,1 @ F,0,0,1,0,0,0,1 @ F,0,0,1,0,0,0,1 @ F,0,0,1,0,0,0,1 @ F,0,0,1,0,0,0,1 @ F,0,0,1,0,0,0,1 @ F,0,0,1,0,0,0,1 @ F,0,0,1,0,0,0,1 @ F,0,0,1,0,0,0,1 @ F,0,0,1,0,0,0,1 @ F,0,0,1,0,0,0,1 @ F,0,0,1,0,0,0,1 @ F,0,0,1,0,0,0,1 @ F,0,0,1,0,0,0,1 @ F,0,0,1,0,0,0,1 @ F,0,0,1,0,0,0,1 @ F,0,0,1,0,0,0,1 @ F,0,0,1,0,0,0,1 @ F,0,0,1,0,0,0,1 @ F,0,0,1,0,0,0,1"
       radius="0"
       unit="px"
       method="auto"
       mode="F"
       chamfer_steps="1"
       flexible="false"
       use_knot_distance="true"
       apply_no_radius="true"
       apply_with_radius="true"
       only_selected="false"
       hide_knots="false" /><inkscape:path-effect
       effect="fillet_chamfer"
       id="path-effect12"
       is_visible="true"
       lpeversion="1"
       nodesatellites_param="F,0,0,1,0,0,0,1 @ F,0,0,1,0,0,0,1 @ F,0,0,1,0,0,0,1 @ F,0,0,1,0,0,0,1 @ F,0,0,1,0,0,0,1 @ F,0,0,1,0,0,0,1 @ F,0,0,1,0,0,0,1 @ F,0,0,1,0,0,0,1 @ F,0,0,1,0,0,0,1 @ F,0,0,1,0,0,0,1 @ F,0,0,1,0,0,0,1 | F,0,0,1,0,0,0,1 @ F,0,0,1,0,0,0,1 @ F,0,0,1,0,0,0,1 @ F,0,0,1,0,0,0,1 @ F,0,0,1,0,0,0,1 @ F,0,0,1,0,0,0,1 @ F,0,0,1,0,0,0,1 @ F,0,0,1,0,0,0,1 @ F,0,0,1,0,0,0,1 | F,0,0,1,0,1.0714599,0,1 @ F,0,0,1,0,0.32501445,0,1 @ F,0,0,1,0,0.52505136,0,1 @ F,0,0,1,0,0.34488101,0,1 | F,0,0,1,0,0.37035257,0,1 @ F,0,0,1,0,0.3961333,0,1 @ F,0,0,1,0,0.41541052,0,1 @ F,0,0,1,0,0.34638595,0,1 | F,0,0,1,0,0,0,1 @ F,0,0,1,0,0,0,1 @ F,0,0,1,0,0,0,1 @ F,0,0,1,0,0,0,1 | F,0,0,1,0,0,0,1 @ F,0,0,1,0,0,0,1 @ F,0,0,1,0,0,0,1 @ F,0,0,1,0,0,0,1 | F,0,0,1,0,0.38002097,0,1 @ F,0,0,1,0,0.19335585,0,1 @ F,0,0,1,0,0.36547336,0,1 @ F,0,0,1,0,0.31023223,0,1 | F,0,0,1,0,0.31490615,0,1 @ F,0,0,1,0,0.17982706,0,1 @ F,0,0,1,0,0.25333788,0,1 @ F,0,0,1,0,0.29452287,0,1 | F,0,0,1,0,0.19809338,0,1 @ F,0,0,1,0,0.13171657,0,1 @ F,0,0,1,0,0.19913686,0,1 @ F,0,0,1,0,0.20182932,0,1 | F,0,0,1,0,0.18220144,0,1 @ F,0,0,1,0,0.18866345,0,1 @ F,0,0,1,0,0.18291735,0,1 @ F,0,0,1,0,0.18793134,0,1"
       radius="0"
       unit="px"
       method="auto"
       mode="F"
       chamfer_steps="1"
       flexible="false"
       use_knot_distance="true"
       apply_no_radius="true"
       apply_with_radius="true"
       only_selected="false"
       hide_knots="false" /><inkscape:path-effect
       effect="fillet_chamfer"
       id="path-effect4"
       is_visible="true"
       lpeversion="1"
       nodesatellites_param="F,0,0,1,0,1.2157455,0,1 @ F,0,0,1,0,0.87364157,0,1 @ F,0,0,1,0,0.76994398,0,1 @ F,0,0,1,0,1.2564157,0,1"
       radius="0"
       unit="px"
       method="auto"
       mode="F"
       chamfer_steps="1"
       flexible="false"
       use_knot_distance="true"
       apply_no_radius="true"
       apply_with_radius="true"
       only_selected="false"
       hide_knots="false" /><inkscape:path-effect
       effect="fillet_chamfer"
       id="path-effect3"
       is_visible="true"
       lpeversion="1"
       nodesatellites_param="F,0,0,1,0,0,0,1 @ F,0,0,1,0,0.81522384,0,1 @ F,0,0,1,0,0,0,1 @ F,0,0,1,0,0,0,1 @ F,0,0,1,0,0,0,1 @ F,0,0,1,0,0,0,1 @ F,0,0,1,0,0,0,1 @ F,0,0,1,0,3.2404649,0,1 @ F,0,0,1,0,0,0,1"
       radius="0"
       unit="px"
       method="auto"
       mode="F"
       chamfer_steps="1"
       flexible="false"
       use_knot_distance="true"
       apply_no_radius="true"
       apply_with_radius="true"
       only_selected="false"
       hide_knots="false" /></defs><sodipodi:namedview
     id="base"
     pagecolor="#ffffff"
     bordercolor="#666666"
     borderopacity="1.0"
     inkscape:pageopacity="0.0"
     inkscape:pageshadow="2"
     inkscape:zoom="5.2792952"
     inkscape:cx="18.941922"
     inkscape:cy="11.459863"
     inkscape:document-units="px"
     inkscape:current-layer="layer1"
     showgrid="false"
     inkscape:window-width="1318"
     inkscape:window-height="719"
     inkscape:window-x="48"
     inkscape:window-y="27"
     inkscape:window-maximized="1"
     units="px"
     inkscape:showpageshadow="2"
     inkscape:pagecheckerboard="0"
     inkscape:deskcolor="#d1d1d1"
     showguides="false" /><metadata
     id="metadata7"><rdf:RDF><cc:Work
         rdf:about=""><dc:format>image/svg+xml</dc:format><dc:type
           rdf:resource="http://purl.org/dc/dcmitype/StillImage" /></cc:Work></rdf:RDF></metadata><g
     inkscape:label="Calque 1"
     inkscape:groupmode="layer"
     id="layer1"
     transform="translate(0,-1020.3622)"><circle
       id="path2"
       style="fill:#333333;stroke:#333333"
       cx="4.6894412"
       cy="1024.6318"
       r="0" /><g
       id="g23"
       transform="translate(0.46110401,-0.15044405)"><path
         id="rect20"
         style="fill:#ac39ac;stroke-width:0.469312;stroke-linecap:round;stroke-linejoin:round;paint-order:markers stroke fill"
         d="m 6.2355,1026.3954 v -3.3716 a 0.43057958,0.43057958 135 0 1 0.4305796,-0.4306 h 2.6526825 a 0.44218541,0.44218541 45 0 1 0.4421854,0.4422 v 3.36 c 0.1653691,3.0985 4.0114595,1.346 4.0114595,5.0165 v 15.6502 c 0,1.5993 -1.093012,2.8868 -2.450701,2.8868 H 4.8582497 c -1.3576881,0 -2.4507006,-1.2875 -2.4507006,-2.8868 v -15.6502 c -0.034846,-3.655 3.8634574,-1.841 3.8279509,-5.0165 z"
         sodipodi:nodetypes="ccccssssscc"
         inkscape:path-effect="#path-effect23"
         inkscape:original-d="m 6.2355,1026.3954 v -3.8022 h 3.5254475 v 3.8022 c 0.1653691,3.0985 4.0114595,1.346 4.0114595,5.0165 v 15.6502 c 0,1.5993 -1.093012,2.8868 -2.450701,2.8868 H 4.8582497 c -1.3576881,0 -2.4507006,-1.2875 -2.4507006,-2.8868 v -15.6502 c -0.034846,-3.655 3.8634574,-1.841 3.8279509,-5.0165 z"
         transform="matrix(0.7250632,0,0,1.0246163,2.747454,-25.267565)" /><path
         id="path20"
         style="fill:#ac39ac;fill-opacity:1;stroke:none;stroke-width:0.5;stroke-linecap:round;stroke-linejoin:round;stroke-dasharray:none;stroke-opacity:1;paint-order:markers stroke fill"
         d="m 28.301741,1032.3708 c 0.01003,-0.7622 -7.699521,-1.8484 -10.689453,0.037 -1.12008,2.866 -0.404231,6.2492 1.732421,8.1875 0.603604,0.5459 1.29082,0.9477 2.021855,1.1862 0.496256,0.162 0.921505,0.6341 0.921505,1.1568 v 4.4599 a 1.0501403,1.0501403 128.9902 0 1 -0.831452,1.0271 l -1.950838,0.4154 a 0.8424176,0.8424176 128.9902 0 0 -0.666987,0.8239 c 0,0.03 0.252062,0.2345 0.600731,0.3744 1.997316,0.8018 6.099068,0.5962 7.380611,-0.1195 0.161464,-0.09 0.278589,-0.3499 0.290697,-0.5352 a 0.36824269,0.36824269 49.333632 0 0 -0.308283,-0.3588 l -2.324008,-0.5711 a 1.1018213,1.1018213 51.902475 0 1 -0.838908,-1.07 v -4.4506 c 0,-0.5213 0.424042,-0.992 0.919049,-1.153 0.74305,-0.2418 1.440838,-0.652 2.051654,-1.2108 2.127024,-1.9527 2.825935,-5.3408 1.691407,-8.1993 z"
         inkscape:path-effect="#path-effect22"
         inkscape:original-d="m 28.301741,1032.3708 c 0.01003,-0.7622 -7.699521,-1.8484 -10.689453,0.037 -1.12008,2.866 -0.404231,6.2492 1.732421,8.1875 0.851869,0.7705 1.870275,1.2537 2.94336,1.3965 v 6.2565 l -3.449277,0.7344 v 0.7371 c 1.738676,1.2531 7.348821,0.9642 8.250116,0 l 0.04013,-0.6141 -3.489406,-0.8574 v -6.2584 c 1.084684,-0.144 2.113365,-0.6356 2.970703,-1.4199 2.127024,-1.9527 2.825935,-5.3408 1.691407,-8.1993 z"
         transform="matrix(0.74969852,0,0,0.74969852,4.962859,262.92782)"
         sodipodi:nodetypes="cccccccccccccc" /><path
         style="font-size:14.3206px;line-height:1.25;font-family:Ubuntu;-inkscape-font-specification:Ubuntu;fill:#ac39ac;stroke-width:0.358015"
         d="m 15.729856,1025.1331 q 0,-0.6445 0.171847,-1.1314 0.171847,-0.4869 0.47258,-0.8162 0.315053,-0.3437 0.73035,-0.5156 0.415298,-0.1718 0.902198,-0.1718 0.4869,0 0.902198,0.1718 0.415297,0.1719 0.71603,0.5156 0.315053,0.3293 0.4869,0.8162 0.171847,0.4869 0.171847,1.1314 0,0.6444 -0.171847,1.1313 -0.171847,0.4869 -0.4869,0.8306 -0.300733,0.3294 -0.71603,0.5012 -0.415298,0.1719 -0.902198,0.1719 -0.4869,0 -0.902198,-0.1719 -0.415297,-0.1718 -0.73035,-0.5012 -0.300733,-0.3437 -0.47258,-0.8306 -0.171847,-0.4869 -0.171847,-1.1313 z m 3.436943,0 q 0,-0.7733 -0.300732,-1.203 -0.300733,-0.4439 -0.859236,-0.4439 -0.558503,0 -0.859236,0.4439 -0.300733,0.4297 -0.300733,1.203 0,0.7733 0.300733,1.2172 0.300733,0.4296 0.859236,0.4296 0.558503,0 0.859236,-0.4296 0.300732,-0.4439 0.300732,-1.2172 z m 2.86412,5.0838 q 0,-0.6444 0.171848,-1.1313 0.171847,-0.4869 0.472579,-0.8163 0.315054,-0.3437 0.730351,-0.5156 0.415297,-0.1718 0.902198,-0.1718 0.4869,0 0.902197,0.1718 0.415298,0.1719 0.71603,0.5156 0.315054,0.3294 0.486901,0.8163 0.171847,0.4869 0.171847,1.1313 0,0.6444 -0.171847,1.1313 -0.171847,0.4869 -0.486901,0.8306 -0.300732,0.3294 -0.71603,0.5012 -0.415297,0.1719 -0.902197,0.1719 -0.486901,0 -0.902198,-0.1719 -0.415297,-0.1718 -0.730351,-0.5012 -0.300732,-0.3437 -0.472579,-0.8306 -0.171848,-0.4869 -0.171848,-1.1313 z m 3.436944,0 q 0,-0.7733 -0.300732,-1.2029 -0.300733,-0.444 -0.859236,-0.444 -0.558504,0 -0.859236,0.444 -0.300733,0.4296 -0.300733,1.2029 0,0.7733 0.300733,1.2172 0.300732,0.4297 0.859236,0.4297 0.558503,0 0.859236,-0.4297 0.300732,-0.4439 0.300732,-1.2172 z m -0.859236,-7.504 -5.599354,9.9242 h -1.303175 l 5.599355,-9.9242 z"
         id="text23"
         aria-label="%" /></g></g></svg>
