<?xml version="1.0" encoding="UTF-8" standalone="no"?>
<!-- Created with Inkscape (http://www.inkscape.org/) -->

<svg
   width="32mm"
   height="32mm"
   viewBox="0 0 32 32"
   version="1.1"
   id="svg1"
   xml:space="preserve"
   inkscape:version="1.3.1 (9b9bdc1480, 2023-11-25, custom)"
   sodipodi:docname="tourism_chalet.svg"
   xmlns:inkscape="http://www.inkscape.org/namespaces/inkscape"
   xmlns:sodipodi="http://sodipodi.sourceforge.net/DTD/sodipodi-0.dtd"
   xmlns="http://www.w3.org/2000/svg"
   xmlns:svg="http://www.w3.org/2000/svg"><sodipodi:namedview
     id="namedview1"
     pagecolor="#ffffff"
     bordercolor="#666666"
     borderopacity="1.0"
     inkscape:showpageshadow="2"
     inkscape:pageopacity="0.0"
     inkscape:pagecheckerboard="0"
     inkscape:deskcolor="#d1d1d1"
     inkscape:document-units="mm"
     inkscape:zoom="1.5894538"
     inkscape:cx="77.385072"
     inkscape:cy="49.388034"
     inkscape:window-width="1318"
     inkscape:window-height="719"
     inkscape:window-x="48"
     inkscape:window-y="27"
     inkscape:window-maximized="1"
     inkscape:current-layer="layer1"
     showguides="true"
     showgrid="false" /><defs
     id="defs1" /><g
     inkscape:label="Livello 1"
     inkscape:groupmode="layer"
     id="layer1"><g
       id="path6"
       transform="translate(0.07715486,0.14655289)"><g
         id="path7" /></g><g
       id="g11"
       transform="translate(0.17592208,0.28650479)"
       style="paint-order:markers stroke fill"><path
         style="fill:#94c7e0;fill-opacity:1;stroke:#0092db;stroke-width:0.665;stroke-linecap:butt;stroke-linejoin:miter;stroke-dasharray:none;stroke-opacity:0.71764708;paint-order:markers stroke fill"
         d="m 9.1174863,27.28232 5.7200477,-9.907415 2.920765,2.920764 4.205564,-10.014982 7.505923,17.001633 z"
         id="path9"
         sodipodi:nodetypes="cccccc" /><path
         style="fill:#45a6d6;fill-opacity:1;stroke:none;stroke-width:0.264583px;stroke-linecap:butt;stroke-linejoin:miter;stroke-opacity:1;paint-order:markers stroke fill"
         d="m 18.689544,18.03218 1.586373,1.041705 1.806657,-1.07727 1.549144,1.042095 1.784651,-1.07704 -3.470718,-7.706535 z"
         id="path10"
         sodipodi:nodetypes="ccccccc" /><path
         id="path11"
         style="fill:#0092da;fill-opacity:1;stroke:none;stroke-width:0.264583px;stroke-linecap:butt;stroke-linejoin:miter;stroke-opacity:1;paint-order:markers stroke fill"
         d="m 10.056234,3.8121704 v 0.045475 L 1.6681152,11.038086 h 1.4572754 v 11.90625 h 4.7216756 v -5.960877 h 4.4715618 v 5.960877 h 4.721676 v -11.90625 h 1.457275 L 10.10946,3.8576457 v -0.045475 l -0.02636,0.022738 z"
         sodipodi:nodetypes="cccccccccccccccc" /></g><path
       style="fill:#000000;fill-opacity:0;stroke:none;stroke-width:3.16258;stroke-linecap:round;stroke-dasharray:none;stroke-opacity:1;paint-order:markers stroke fill"
       d="m 3.7748815,-29.546552 c -35.3787155,-5.676314 -49.3082635,-30.360101 -34.6456305,-61.393616 2.1311,-4.510493 9.625532,-16.329132 16.654291,-26.263652 14.36788737,-20.30772 21.1370742,-32.30714 21.1370742,-37.46868 0,-2.0177 -3.0130249,-8.49232 -7.12993967,-15.32136 C -9.4361394,-185.29908 -11.7024,-190.56705 -12.695737,-199.0188 c -2.119922,-18.03723 9.2366067,-33.25664 29.682704,-39.77914 42.195727,-13.46086 88.898553,-12.91192 125.508393,1.47521 23.63172,9.2869 45.69173,27.43295 57.11445,46.98098 7.2275,12.36865 9.51001,18.6578 11.19736,30.853 4.95324,35.79923 -18.50008,72.375154 -63.83394,99.5503 C 107.02162,-35.98967 45.283828,-22.886666 3.7748815,-29.546552 Z M 36.72318,-61.740214 c 7.475952,-2.83257 14.182452,-12.610646 14.182452,-20.678033 0,-5.623995 -4.152652,-13.711377 -8.704793,-16.952792 -11.555042,-8.227921 -26.494284,-4.773351 -32.7987415,7.584404 -8.88253413,17.411201 8.9394925,37.011015 27.3210825,30.046421 z m 68.67769,-18.204278 c 9.31378,-6.328878 12.35141,-18.863297 6.91538,-28.535408 -7.27896,-12.95118 -25.819445,-14.85516 -35.27141,-3.62214 -8.700113,10.3395 -6.359174,24.538541 5.360612,32.514954 6.05365,4.120082 16.648535,3.955409 22.995418,-0.357406 z m 48.25658,-33.747138 c 10.2262,-6.69677 13.04192,-19.54797 6.46281,-29.49685 -5.0408,-7.62267 -8.88078,-9.69422 -17.96991,-9.69422 -9.41623,0 -15.71642,3.68832 -19.48537,11.40734 -9.60704,19.67575 12.7577,39.725 30.99247,27.78373 z m -16.72512,-61.12693 c 14.32312,-5.44564 19.00853,-24.82248 8.64065,-35.73415 -6.82346,-7.18136 -15.10815,-8.75999 -24.60622,-4.68865 -11.7248,5.02584 -16.44596,19.83685 -9.76766,30.64259 5.37406,8.69541 16.98238,13.10729 25.73323,9.78021 z m -63.266326,-3.85388 c 10.231732,-2.84245 17.07753,-15.93756 13.891304,-26.57224 -3.078913,-10.27649 -14.560146,-17.58235 -24.433335,-15.54768 -6.524233,1.34451 -12.911607,6.29313 -15.785513,12.22983 -3.16944,6.54719 -3.34972,10.72039 -0.733599,16.98165 2.607113,6.2397 5.289925,9.04582 11.276656,11.79493 5.722824,2.62794 9.399492,2.8873 15.784487,1.11351 z"
       id="path13"
       transform="scale(0.26458333)" /><path
       style="fill:#000000;fill-opacity:0;stroke:none;stroke-width:3.16258;stroke-linecap:round;stroke-dasharray:none;stroke-opacity:1;paint-order:markers stroke fill"
       d="M 41.523697,-41.544887 C 6.8335295,-46.86864 -8.2422883,-72.527693 6.0074222,-101.99363 c 2.4910034,-5.15095 10.8619128,-18.42509 18.6020218,-29.49808 13.881177,-19.85838 20.023648,-30.56972 20.047695,-34.95948 0.01463,-2.66962 -5.24657,-13.35815 -10.044133,-20.40545 -9.714392,-14.26978 -12.590068,-30.18052 -7.565694,-41.85999 3.291694,-7.65176 11.581333,-15.78986 19.776457,-19.41495 16.555784,-7.32342 45.947686,-12.60572 70.197561,-12.61589 36.34965,-0.0152 67.15548,9.24717 91.94298,27.64456 29.65979,22.01364 44.13152,52.64758 38.93863,82.42581 -9.30105,53.336104 -76.51883,99.83585 -157.778349,109.147489 -12.410702,1.422161 -39.289439,1.413718 -48.600894,-0.01528 z m 34.515685,-33.278399 c 5.040366,-2.60648 9.860389,-8.753183 11.427446,-14.572792 4.181918,-15.530452 -11.748726,-30.371312 -27.53395,-25.650392 -12.96111,3.8763 -18.501591,16.305471 -13.188064,29.585278 3.092023,7.727724 10.303491,12.480149 18.937745,12.480149 3.736871,0 8.397442,-0.829015 10.356823,-1.842243 z M 139.76952,-90.46671 c 16.31992,-7.412143 16.96795,-29.80838 1.12218,-38.78312 -16.13146,-9.13657 -35.75107,6.3911 -30.88917,24.44682 0.75076,2.78809 2.59261,6.629905 4.093,8.53734 3.24657,4.127342 11.50133,8.129836 16.76703,8.129836 2.07619,0 6.08432,-1.048901 8.90696,-2.330876 z m 48.96715,-34.10079 c 6.92505,-3.35236 10.97701,-9.07798 11.69226,-16.52176 0.78424,-8.1617 -0.30326,-11.65591 -5.37469,-17.26938 -5.87161,-6.49916 -12.75417,-8.72054 -20.56568,-6.63764 -10.14655,2.70553 -16.57268,10.81799 -16.57268,20.92163 0,9.17649 4.77805,16.0815 13.85021,20.01571 6.01207,2.60716 10.83276,2.46271 16.97058,-0.50856 z m -13.04377,-63.43756 c 7.27049,-3.04582 13.70008,-12.40116 13.66803,-19.88758 -0.0246,-5.74383 -5.73861,-15.51566 -10.83887,-18.53606 -7.55542,-4.47437 -12.56722,-4.58782 -20.60618,-0.46647 -11.46771,5.87918 -15.62273,17.22435 -10.18881,27.8203 5.79054,11.29135 16.92058,15.69699 27.96583,11.06981 z m -61.9047,-3.83956 c 4.95374,-2.56168 9.81085,-8.67509 11.57769,-14.57228 4.28696,-14.30861 -11.35331,-30.13141 -25.909468,-26.21184 -6.962603,1.87484 -11.608565,5.45903 -14.550074,11.22486 -7.300735,14.31062 3.169922,31.35785 19.279952,31.38961 3.32166,0.007 7.64252,-0.81711 9.6019,-1.83035 z"
       id="path14"
       transform="scale(0.26458333)" /><path
       style="fill:#000000;fill-opacity:0;stroke:none;stroke-width:3.16258;stroke-linecap:round;stroke-dasharray:none;stroke-opacity:1;paint-order:markers stroke fill"
       d="M 41.523697,-41.544887 C 6.8335295,-46.86864 -8.2422883,-72.527693 6.0074222,-101.99363 c 2.4910034,-5.15095 10.8619128,-18.42509 18.6020218,-29.49808 13.881177,-19.85838 20.023648,-30.56972 20.047695,-34.95948 0.01463,-2.66962 -5.24657,-13.35815 -10.044133,-20.40545 -9.714392,-14.26978 -12.590068,-30.18052 -7.565694,-41.85999 3.291694,-7.65176 11.581333,-15.78986 19.776457,-19.41495 16.555784,-7.32342 45.947686,-12.60572 70.197561,-12.61589 36.34965,-0.0152 67.15548,9.24717 91.94298,27.64456 29.65979,22.01364 44.13152,52.64758 38.93863,82.42581 -9.30105,53.336104 -76.51883,99.83585 -157.778349,109.147489 -12.410702,1.422161 -39.289439,1.413718 -48.600894,-0.01528 z m 34.515685,-33.278399 c 5.040366,-2.60648 9.860389,-8.753183 11.427446,-14.572792 4.181918,-15.530452 -11.748726,-30.371312 -27.53395,-25.650392 -12.96111,3.8763 -18.501591,16.305471 -13.188064,29.585278 3.092023,7.727724 10.303491,12.480149 18.937745,12.480149 3.736871,0 8.397442,-0.829015 10.356823,-1.842243 z M 139.76952,-90.46671 c 16.31992,-7.412143 16.96795,-29.80838 1.12218,-38.78312 -16.13146,-9.13657 -35.75107,6.3911 -30.88917,24.44682 0.75076,2.78809 2.59261,6.629905 4.093,8.53734 3.24657,4.127342 11.50133,8.129836 16.76703,8.129836 2.07619,0 6.08432,-1.048901 8.90696,-2.330876 z m 48.96715,-34.10079 c 6.92505,-3.35236 10.97701,-9.07798 11.69226,-16.52176 0.78424,-8.1617 -0.30326,-11.65591 -5.37469,-17.26938 -5.87161,-6.49916 -12.75417,-8.72054 -20.56568,-6.63764 -10.14655,2.70553 -16.57268,10.81799 -16.57268,20.92163 0,9.17649 4.77805,16.0815 13.85021,20.01571 6.01207,2.60716 10.83276,2.46271 16.97058,-0.50856 z m -13.04377,-63.43756 c 7.27049,-3.04582 13.70008,-12.40116 13.66803,-19.88758 -0.0246,-5.74383 -5.73861,-15.51566 -10.83887,-18.53606 -7.55542,-4.47437 -12.56722,-4.58782 -20.60618,-0.46647 -11.46771,5.87918 -15.62273,17.22435 -10.18881,27.8203 5.79054,11.29135 16.92058,15.69699 27.96583,11.06981 z m -61.9047,-3.83956 c 4.95374,-2.56168 9.81085,-8.67509 11.57769,-14.57228 4.28696,-14.30861 -11.35331,-30.13141 -25.909468,-26.21184 -6.962603,1.87484 -11.608565,5.45903 -14.550074,11.22486 -7.300735,14.31062 3.169922,31.35785 19.279952,31.38961 3.32166,0.007 7.64252,-0.81711 9.6019,-1.83035 z"
       id="path15"
       transform="scale(0.26458333)" /><path
       style="fill:#000000;fill-opacity:0;stroke:none;stroke-width:3.16258;stroke-linecap:round;stroke-dasharray:none;stroke-opacity:1;paint-order:markers stroke fill"
       d="M 41.523697,-41.544887 C 6.8335295,-46.86864 -8.2422883,-72.527693 6.0074222,-101.99363 c 2.4910034,-5.15095 10.8619128,-18.42509 18.6020218,-29.49808 13.881177,-19.85838 20.023648,-30.56972 20.047695,-34.95948 0.01463,-2.66962 -5.24657,-13.35815 -10.044133,-20.40545 -9.714392,-14.26978 -12.590068,-30.18052 -7.565694,-41.85999 3.291694,-7.65176 11.581333,-15.78986 19.776457,-19.41495 16.555784,-7.32342 45.947686,-12.60572 70.197561,-12.61589 36.34965,-0.0152 67.15548,9.24717 91.94298,27.64456 29.65979,22.01364 44.13152,52.64758 38.93863,82.42581 -9.30105,53.336104 -76.51883,99.83585 -157.778349,109.147489 -12.410702,1.422161 -39.289439,1.413718 -48.600894,-0.01528 z m 34.515685,-33.278399 c 5.040366,-2.60648 9.860389,-8.753183 11.427446,-14.572792 4.181918,-15.530452 -11.748726,-30.371312 -27.53395,-25.650392 -12.96111,3.8763 -18.501591,16.305471 -13.188064,29.585278 3.092023,7.727724 10.303491,12.480149 18.937745,12.480149 3.736871,0 8.397442,-0.829015 10.356823,-1.842243 z M 139.76952,-90.46671 c 16.31992,-7.412143 16.96795,-29.80838 1.12218,-38.78312 -16.13146,-9.13657 -35.75107,6.3911 -30.88917,24.44682 0.75076,2.78809 2.59261,6.629905 4.093,8.53734 3.24657,4.127342 11.50133,8.129836 16.76703,8.129836 2.07619,0 6.08432,-1.048901 8.90696,-2.330876 z m 48.96715,-34.10079 c 6.92505,-3.35236 10.97701,-9.07798 11.69226,-16.52176 0.78424,-8.1617 -0.30326,-11.65591 -5.37469,-17.26938 -5.87161,-6.49916 -12.75417,-8.72054 -20.56568,-6.63764 -10.14655,2.70553 -16.57268,10.81799 -16.57268,20.92163 0,9.17649 4.77805,16.0815 13.85021,20.01571 6.01207,2.60716 10.83276,2.46271 16.97058,-0.50856 z m -13.04377,-63.43756 c 7.27049,-3.04582 13.70008,-12.40116 13.66803,-19.88758 -0.0246,-5.74383 -5.73861,-15.51566 -10.83887,-18.53606 -7.55542,-4.47437 -12.56722,-4.58782 -20.60618,-0.46647 -11.46771,5.87918 -15.62273,17.22435 -10.18881,27.8203 5.79054,11.29135 16.92058,15.69699 27.96583,11.06981 z m -61.9047,-3.83956 c 4.95374,-2.56168 9.81085,-8.67509 11.57769,-14.57228 4.28696,-14.30861 -11.35331,-30.13141 -25.909468,-26.21184 -6.962603,1.87484 -11.608565,5.45903 -14.550074,11.22486 -7.300735,14.31062 3.169922,31.35785 19.279952,31.38961 3.32166,0.007 7.64252,-0.81711 9.6019,-1.83035 z"
       id="path16"
       transform="scale(0.26458333)" /><path
       style="fill:#000000;fill-opacity:0;stroke:none;stroke-width:3.16258;stroke-linecap:round;stroke-dasharray:none;stroke-opacity:1;paint-order:markers stroke fill"
       d="M 41.523697,-41.544887 C 6.8335295,-46.86864 -8.2422883,-72.527693 6.0074222,-101.99363 c 2.4910034,-5.15095 10.8619128,-18.42509 18.6020218,-29.49808 13.881177,-19.85838 20.023648,-30.56972 20.047695,-34.95948 0.01463,-2.66962 -5.24657,-13.35815 -10.044133,-20.40545 -9.714392,-14.26978 -12.590068,-30.18052 -7.565694,-41.85999 3.291694,-7.65176 11.581333,-15.78986 19.776457,-19.41495 16.555784,-7.32342 45.947686,-12.60572 70.197561,-12.61589 36.34965,-0.0152 67.15548,9.24717 91.94298,27.64456 29.65979,22.01364 44.13152,52.64758 38.93863,82.42581 -9.30105,53.336104 -76.51883,99.83585 -157.778349,109.147489 -12.410702,1.422161 -39.289439,1.413718 -48.600894,-0.01528 z m 34.515685,-33.278399 c 5.040366,-2.60648 9.860389,-8.753183 11.427446,-14.572792 4.181918,-15.530452 -11.748726,-30.371312 -27.53395,-25.650392 -12.96111,3.8763 -18.501591,16.305471 -13.188064,29.585278 3.092023,7.727724 10.303491,12.480149 18.937745,12.480149 3.736871,0 8.397442,-0.829015 10.356823,-1.842243 z M 139.76952,-90.46671 c 16.31992,-7.412143 16.96795,-29.80838 1.12218,-38.78312 -16.13146,-9.13657 -35.75107,6.3911 -30.88917,24.44682 0.75076,2.78809 2.59261,6.629905 4.093,8.53734 3.24657,4.127342 11.50133,8.129836 16.76703,8.129836 2.07619,0 6.08432,-1.048901 8.90696,-2.330876 z m 48.96715,-34.10079 c 6.92505,-3.35236 10.97701,-9.07798 11.69226,-16.52176 0.78424,-8.1617 -0.30326,-11.65591 -5.37469,-17.26938 -5.87161,-6.49916 -12.75417,-8.72054 -20.56568,-6.63764 -10.14655,2.70553 -16.57268,10.81799 -16.57268,20.92163 0,9.17649 4.77805,16.0815 13.85021,20.01571 6.01207,2.60716 10.83276,2.46271 16.97058,-0.50856 z m -13.04377,-63.43756 c 7.27049,-3.04582 13.70008,-12.40116 13.66803,-19.88758 -0.0246,-5.74383 -5.73861,-15.51566 -10.83887,-18.53606 -7.55542,-4.47437 -12.56722,-4.58782 -20.60618,-0.46647 -11.46771,5.87918 -15.62273,17.22435 -10.18881,27.8203 5.79054,11.29135 16.92058,15.69699 27.96583,11.06981 z m -61.9047,-3.83956 c 4.95374,-2.56168 9.81085,-8.67509 11.57769,-14.57228 4.28696,-14.30861 -11.35331,-30.13141 -25.909468,-26.21184 -6.962603,1.87484 -11.608565,5.45903 -14.550074,11.22486 -7.300735,14.31062 3.169922,31.35785 19.279952,31.38961 3.32166,0.007 7.64252,-0.81711 9.6019,-1.83035 z"
       id="path17"
       transform="scale(0.26458333)" /><path
       style="fill:#000000;fill-opacity:0;stroke:none;stroke-width:3.16258;stroke-linecap:round;stroke-dasharray:none;stroke-opacity:1;paint-order:markers stroke fill"
       d="M 41.523697,-41.544887 C 6.8335295,-46.86864 -8.2422883,-72.527693 6.0074222,-101.99363 c 2.4910034,-5.15095 10.8619128,-18.42509 18.6020218,-29.49808 13.881177,-19.85838 20.023648,-30.56972 20.047695,-34.95948 0.01463,-2.66962 -5.24657,-13.35815 -10.044133,-20.40545 -9.714392,-14.26978 -12.590068,-30.18052 -7.565694,-41.85999 3.291694,-7.65176 11.581333,-15.78986 19.776457,-19.41495 16.555784,-7.32342 45.947686,-12.60572 70.197561,-12.61589 36.34965,-0.0152 67.15548,9.24717 91.94298,27.64456 29.65979,22.01364 44.13152,52.64758 38.93863,82.42581 -9.30105,53.336104 -76.51883,99.83585 -157.778349,109.147489 -12.410702,1.422161 -39.289439,1.413718 -48.600894,-0.01528 z m 34.515685,-33.278399 c 5.040366,-2.60648 9.860389,-8.753183 11.427446,-14.572792 4.181918,-15.530452 -11.748726,-30.371312 -27.53395,-25.650392 -12.96111,3.8763 -18.501591,16.305471 -13.188064,29.585278 3.092023,7.727724 10.303491,12.480149 18.937745,12.480149 3.736871,0 8.397442,-0.829015 10.356823,-1.842243 z M 139.76952,-90.46671 c 16.31992,-7.412143 16.96795,-29.80838 1.12218,-38.78312 -16.13146,-9.13657 -35.75107,6.3911 -30.88917,24.44682 0.75076,2.78809 2.59261,6.629905 4.093,8.53734 3.24657,4.127342 11.50133,8.129836 16.76703,8.129836 2.07619,0 6.08432,-1.048901 8.90696,-2.330876 z m 48.96715,-34.10079 c 6.92505,-3.35236 10.97701,-9.07798 11.69226,-16.52176 0.78424,-8.1617 -0.30326,-11.65591 -5.37469,-17.26938 -5.87161,-6.49916 -12.75417,-8.72054 -20.56568,-6.63764 -10.14655,2.70553 -16.57268,10.81799 -16.57268,20.92163 0,9.17649 4.77805,16.0815 13.85021,20.01571 6.01207,2.60716 10.83276,2.46271 16.97058,-0.50856 z m -13.04377,-63.43756 c 7.27049,-3.04582 13.70008,-12.40116 13.66803,-19.88758 -0.0246,-5.74383 -5.73861,-15.51566 -10.83887,-18.53606 -7.55542,-4.47437 -12.56722,-4.58782 -20.60618,-0.46647 -11.46771,5.87918 -15.62273,17.22435 -10.18881,27.8203 5.79054,11.29135 16.92058,15.69699 27.96583,11.06981 z m -61.9047,-3.83956 c 4.95374,-2.56168 9.81085,-8.67509 11.57769,-14.57228 4.28696,-14.30861 -11.35331,-30.13141 -25.909468,-26.21184 -6.962603,1.87484 -11.608565,5.45903 -14.550074,11.22486 -7.300735,14.31062 3.169922,31.35785 19.279952,31.38961 3.32166,0.007 7.64252,-0.81711 9.6019,-1.83035 z"
       id="path18"
       transform="scale(0.26458333)" /><path
       style="fill:#000000;fill-opacity:0;stroke:none;stroke-width:3.16258;stroke-linecap:round;stroke-dasharray:none;stroke-opacity:1;paint-order:markers stroke fill"
       d="M 41.523697,-41.544887 C 6.8335295,-46.86864 -8.2422883,-72.527693 6.0074222,-101.99363 c 2.4910034,-5.15095 10.8619128,-18.42509 18.6020218,-29.49808 13.881177,-19.85838 20.023648,-30.56972 20.047695,-34.95948 0.01463,-2.66962 -5.24657,-13.35815 -10.044133,-20.40545 -9.714392,-14.26978 -12.590068,-30.18052 -7.565694,-41.85999 3.291694,-7.65176 11.581333,-15.78986 19.776457,-19.41495 16.555784,-7.32342 45.947686,-12.60572 70.197561,-12.61589 36.34965,-0.0152 67.15548,9.24717 91.94298,27.64456 29.65979,22.01364 44.13152,52.64758 38.93863,82.42581 -9.30105,53.336104 -76.51883,99.83585 -157.778349,109.147489 -12.410702,1.422161 -39.289439,1.413718 -48.600894,-0.01528 z m 34.515685,-33.278399 c 5.040366,-2.60648 9.860389,-8.753183 11.427446,-14.572792 4.181918,-15.530452 -11.748726,-30.371312 -27.53395,-25.650392 -12.96111,3.8763 -18.501591,16.305471 -13.188064,29.585278 3.092023,7.727724 10.303491,12.480149 18.937745,12.480149 3.736871,0 8.397442,-0.829015 10.356823,-1.842243 z M 139.76952,-90.46671 c 16.31992,-7.412143 16.96795,-29.80838 1.12218,-38.78312 -16.13146,-9.13657 -35.75107,6.3911 -30.88917,24.44682 0.75076,2.78809 2.59261,6.629905 4.093,8.53734 3.24657,4.127342 11.50133,8.129836 16.76703,8.129836 2.07619,0 6.08432,-1.048901 8.90696,-2.330876 z m 48.96715,-34.10079 c 6.92505,-3.35236 10.97701,-9.07798 11.69226,-16.52176 0.78424,-8.1617 -0.30326,-11.65591 -5.37469,-17.26938 -5.87161,-6.49916 -12.75417,-8.72054 -20.56568,-6.63764 -10.14655,2.70553 -16.57268,10.81799 -16.57268,20.92163 0,9.17649 4.77805,16.0815 13.85021,20.01571 6.01207,2.60716 10.83276,2.46271 16.97058,-0.50856 z m -13.04377,-63.43756 c 7.27049,-3.04582 13.70008,-12.40116 13.66803,-19.88758 -0.0246,-5.74383 -5.73861,-15.51566 -10.83887,-18.53606 -7.55542,-4.47437 -12.56722,-4.58782 -20.60618,-0.46647 -11.46771,5.87918 -15.62273,17.22435 -10.18881,27.8203 5.79054,11.29135 16.92058,15.69699 27.96583,11.06981 z m -61.9047,-3.83956 c 4.95374,-2.56168 9.81085,-8.67509 11.57769,-14.57228 4.28696,-14.30861 -11.35331,-30.13141 -25.909468,-26.21184 -6.962603,1.87484 -11.608565,5.45903 -14.550074,11.22486 -7.300735,14.31062 3.169922,31.35785 19.279952,31.38961 3.32166,0.007 7.64252,-0.81711 9.6019,-1.83035 z"
       id="path19"
       transform="scale(0.26458333)" /><path
       style="fill:#000000;fill-opacity:0;stroke:none;stroke-width:3.16258;stroke-linecap:round;stroke-dasharray:none;stroke-opacity:1;paint-order:markers stroke fill"
       d="M 41.523697,-41.544887 C 6.8335295,-46.86864 -8.2422883,-72.527693 6.0074222,-101.99363 c 2.4910034,-5.15095 10.8619128,-18.42509 18.6020218,-29.49808 13.881177,-19.85838 20.023648,-30.56972 20.047695,-34.95948 0.01463,-2.66962 -5.24657,-13.35815 -10.044133,-20.40545 -9.714392,-14.26978 -12.590068,-30.18052 -7.565694,-41.85999 3.291694,-7.65176 11.581333,-15.78986 19.776457,-19.41495 16.555784,-7.32342 45.947686,-12.60572 70.197561,-12.61589 36.34965,-0.0152 67.15548,9.24717 91.94298,27.64456 29.65979,22.01364 44.13152,52.64758 38.93863,82.42581 -9.30105,53.336104 -76.51883,99.83585 -157.778349,109.147489 -12.410702,1.422161 -39.289439,1.413718 -48.600894,-0.01528 z m 34.515685,-33.278399 c 5.040366,-2.60648 9.860389,-8.753183 11.427446,-14.572792 4.181918,-15.530452 -11.748726,-30.371312 -27.53395,-25.650392 -12.96111,3.8763 -18.501591,16.305471 -13.188064,29.585278 3.092023,7.727724 10.303491,12.480149 18.937745,12.480149 3.736871,0 8.397442,-0.829015 10.356823,-1.842243 z M 139.76952,-90.46671 c 16.31992,-7.412143 16.96795,-29.80838 1.12218,-38.78312 -16.13146,-9.13657 -35.75107,6.3911 -30.88917,24.44682 0.75076,2.78809 2.59261,6.629905 4.093,8.53734 3.24657,4.127342 11.50133,8.129836 16.76703,8.129836 2.07619,0 6.08432,-1.048901 8.90696,-2.330876 z m 48.96715,-34.10079 c 6.92505,-3.35236 10.97701,-9.07798 11.69226,-16.52176 0.78424,-8.1617 -0.30326,-11.65591 -5.37469,-17.26938 -5.87161,-6.49916 -12.75417,-8.72054 -20.56568,-6.63764 -10.14655,2.70553 -16.57268,10.81799 -16.57268,20.92163 0,9.17649 4.77805,16.0815 13.85021,20.01571 6.01207,2.60716 10.83276,2.46271 16.97058,-0.50856 z m -13.04377,-63.43756 c 7.27049,-3.04582 13.70008,-12.40116 13.66803,-19.88758 -0.0246,-5.74383 -5.73861,-15.51566 -10.83887,-18.53606 -7.55542,-4.47437 -12.56722,-4.58782 -20.60618,-0.46647 -11.46771,5.87918 -15.62273,17.22435 -10.18881,27.8203 5.79054,11.29135 16.92058,15.69699 27.96583,11.06981 z m -61.9047,-3.83956 c 4.95374,-2.56168 9.81085,-8.67509 11.57769,-14.57228 4.28696,-14.30861 -11.35331,-30.13141 -25.909468,-26.21184 -6.962603,1.87484 -11.608565,5.45903 -14.550074,11.22486 -7.300735,14.31062 3.169922,31.35785 19.279952,31.38961 3.32166,0.007 7.64252,-0.81711 9.6019,-1.83035 z"
       id="path20"
       transform="scale(0.26458333)" /><path
       style="fill:#000000;fill-opacity:0;stroke:none;stroke-width:3.16258;stroke-linecap:round;stroke-dasharray:none;stroke-opacity:1;paint-order:markers stroke fill"
       d="M 41.523697,-41.544887 C 6.8335295,-46.86864 -8.2422883,-72.527693 6.0074222,-101.99363 c 2.4910034,-5.15095 10.8619128,-18.42509 18.6020218,-29.49808 13.881177,-19.85838 20.023648,-30.56972 20.047695,-34.95948 0.01463,-2.66962 -5.24657,-13.35815 -10.044133,-20.40545 -9.714392,-14.26978 -12.590068,-30.18052 -7.565694,-41.85999 3.291694,-7.65176 11.581333,-15.78986 19.776457,-19.41495 16.555784,-7.32342 45.947686,-12.60572 70.197561,-12.61589 36.34965,-0.0152 67.15548,9.24717 91.94298,27.64456 29.65979,22.01364 44.13152,52.64758 38.93863,82.42581 -9.30105,53.336104 -76.51883,99.83585 -157.778349,109.147489 -12.410702,1.422161 -39.289439,1.413718 -48.600894,-0.01528 z m 34.515685,-33.278399 c 5.040366,-2.60648 9.860389,-8.753183 11.427446,-14.572792 4.181918,-15.530452 -11.748726,-30.371312 -27.53395,-25.650392 -12.96111,3.8763 -18.501591,16.305471 -13.188064,29.585278 3.092023,7.727724 10.303491,12.480149 18.937745,12.480149 3.736871,0 8.397442,-0.829015 10.356823,-1.842243 z M 139.76952,-90.46671 c 16.31992,-7.412143 16.96795,-29.80838 1.12218,-38.78312 -16.13146,-9.13657 -35.75107,6.3911 -30.88917,24.44682 0.75076,2.78809 2.59261,6.629905 4.093,8.53734 3.24657,4.127342 11.50133,8.129836 16.76703,8.129836 2.07619,0 6.08432,-1.048901 8.90696,-2.330876 z m 48.96715,-34.10079 c 6.92505,-3.35236 10.97701,-9.07798 11.69226,-16.52176 0.78424,-8.1617 -0.30326,-11.65591 -5.37469,-17.26938 -5.87161,-6.49916 -12.75417,-8.72054 -20.56568,-6.63764 -10.14655,2.70553 -16.57268,10.81799 -16.57268,20.92163 0,9.17649 4.77805,16.0815 13.85021,20.01571 6.01207,2.60716 10.83276,2.46271 16.97058,-0.50856 z m -13.04377,-63.43756 c 7.27049,-3.04582 13.70008,-12.40116 13.66803,-19.88758 -0.0246,-5.74383 -5.73861,-15.51566 -10.83887,-18.53606 -7.55542,-4.47437 -12.56722,-4.58782 -20.60618,-0.46647 -11.46771,5.87918 -15.62273,17.22435 -10.18881,27.8203 5.79054,11.29135 16.92058,15.69699 27.96583,11.06981 z m -61.9047,-3.83956 c 4.95374,-2.56168 9.81085,-8.67509 11.57769,-14.57228 4.28696,-14.30861 -11.35331,-30.13141 -25.909468,-26.21184 -6.962603,1.87484 -11.608565,5.45903 -14.550074,11.22486 -7.300735,14.31062 3.169922,31.35785 19.279952,31.38961 3.32166,0.007 7.64252,-0.81711 9.6019,-1.83035 z"
       id="path21"
       transform="scale(0.26458333)" /><path
       style="fill:#000000;fill-opacity:0;stroke:none;stroke-width:3.16258;stroke-linecap:round;stroke-dasharray:none;stroke-opacity:1;paint-order:markers stroke fill"
       d="m 37.51876,-42.07824 c -11.371272,-2.586385 -18.402892,-6.080025 -25.388395,-12.614144 -16.4971928,-15.431187 -15.2103461,-37.470531 3.765559,-64.491346 18.225581,-25.95238 26.285656,-38.56995 27.485996,-43.02767 1.631859,-6.06026 0.370935,-9.65061 -8.242986,-23.47108 -7.866822,-12.6218 -10.604761,-20.32994 -10.589912,-29.81384 0.02252,-14.38432 8.629669,-26.59715 23.324893,-33.09607 7.689876,-3.40083 28.120758,-8.52762 42.723242,-10.72069 13.063933,-1.962 41.462653,-1.9649 53.477493,-0.005 55.90234,9.1168 96.43089,42.53015 103.86941,85.63406 2.23736,12.96481 1.30785,23.36128 -3.24742,36.32183 -14.81402,42.148521 -69.38557,79.829288 -134.59593,92.936293 -19.766053,3.972899 -59.751215,5.266476 -72.58195,2.348127 z m 40.07477,-34.006523 c 10.601621,-7.203984 13.409627,-20.168211 6.510696,-30.059107 -5.012332,-7.1861 -10.602179,-9.87086 -19.384381,-9.31015 -15.517975,0.99077 -23.949906,15.06014 -17.975031,29.992828 4.683541,11.705317 20.394102,16.480529 30.848716,9.376429 z m 64.78672,-15.889999 c 14.20766,-8.780818 13.00047,-29.935778 -2.1493,-37.664608 -11.89986,-6.07087 -26.57866,0.68677 -30.12859,13.87022 -5.03525,18.699468 15.7407,34.014942 32.27789,23.794388 z m 48.97952,-34.474048 c 6.4714,-4.93599 9.32784,-10.25314 9.33339,-17.37375 0.008,-10.13307 -6.17505,-18.11317 -16.40982,-21.17959 -12.41439,-3.71944 -26.36746,7.29018 -26.36746,20.80518 0,17.35799 20.02367,27.98426 33.44389,17.74816 z m -14.83393,-62.16137 c 5.76642,-2.94307 8.41449,-5.80148 10.91195,-11.77875 2.67546,-6.40328 2.44132,-9.49514 -1.28542,-16.97373 -2.62797,-5.27366 -4.4106,-7.05629 -9.68426,-9.68426 -7.97437,-3.9738 -9.93123,-3.98793 -18.21439,-0.13149 -13.58396,6.32435 -16.80859,21.82199 -6.97275,33.51123 6.25892,7.4383 16.54281,9.49835 25.24487,5.057 z m -63.4948,-3.10854 c 9.10721,-3.80523 15.03256,-15.64699 12.33485,-24.65112 -4.4889,-14.9826 -20.43404,-21.03962 -33.173374,-12.60144 -10.998793,7.2853 -13.015313,21.80634 -4.342703,31.27197 6.843491,7.46926 16.263697,9.70657 25.181227,5.98059 z"
       id="path22"
       transform="scale(0.26458333)" /><path
       style="fill:#000000;fill-opacity:0;stroke:none;stroke-width:3.16258;stroke-linecap:round;stroke-dasharray:none;stroke-opacity:1;paint-order:markers stroke fill"
       d="M 37.51876,-42.073483 C 26.139682,-44.668589 19.112661,-48.16126 12.130365,-54.692384 3.2663712,-62.983609 0.1702313,-70.798029 0.91766188,-82.992394 1.8017116,-97.415713 5.4399671,-104.57367 28.553647,-137.3639 c 15.026369,-21.31716 17.386875,-27.02786 14.26265,-34.50519 -1.04267,-2.49546 -4.497483,-8.71149 -7.677363,-13.81339 -7.866822,-12.6218 -10.604761,-20.32994 -10.589912,-29.81384 0.0224,-14.3046 8.63985,-26.60865 23.10881,-32.99488 24.343335,-10.74455 70.532808,-15.46406 99.887738,-10.20626 54.8037,9.81596 95.10672,44.61633 100.91181,87.1341 7.40803,54.25807 -52.48233,109.520439 -137.72752,127.084736 -19.172939,3.950476 -60.484143,5.307634 -73.2111,2.405141 z m 40.07477,-34.01128 c 10.573104,-7.184607 13.42375,-20.224457 6.542773,-29.928927 -5.15742,-7.27368 -10.778836,-10.00906 -19.416458,-9.44805 -15.522802,1.00819 -23.948643,15.07102 -17.975031,30.000548 4.683541,11.705317 20.394102,16.480529 30.848716,9.376429 z m 64.78672,-15.889999 c 14.20766,-8.780818 13.00047,-29.935778 -2.1493,-37.664608 -11.89986,-6.07087 -26.57866,0.68677 -30.12859,13.87022 -5.03525,18.699468 15.7407,34.014942 32.27789,23.794388 z m 48.97952,-34.474048 c 6.4714,-4.93599 9.32784,-10.25314 9.33339,-17.37375 0.008,-10.13307 -6.17505,-18.11317 -16.40982,-21.17959 -12.41439,-3.71944 -26.36746,7.29018 -26.36746,20.80518 0,17.35799 20.02367,27.98426 33.44389,17.74816 z m -14.6383,-62.26016 c 5.89569,-3.00776 9.64794,-7.55412 11.59316,-14.04671 2.77053,-9.24717 -3.2326,-20.54681 -13.35973,-25.14692 -6.64672,-3.01919 -8.84531,-2.93339 -16.53052,0.64511 -13.67769,6.36882 -16.94601,21.94058 -7.06879,33.67898 6.23882,7.41442 16.51182,9.38655 25.36588,4.86954 z m -63.69043,-3.00975 c 9.10721,-3.80523 15.03256,-15.64699 12.33485,-24.65112 -4.39385,-14.66536 -20.30319,-20.98011 -32.664191,-12.96509 -11.268604,7.3067 -13.544762,22.14787 -4.851886,31.63562 6.843491,7.46926 16.263697,9.70657 25.181227,5.98059 z"
       id="path23"
       transform="scale(0.26458333)" /><path
       style="fill:#000000;fill-opacity:0;stroke:none;stroke-width:3.16258;stroke-linecap:round;stroke-dasharray:none;stroke-opacity:1;paint-order:markers stroke fill"
       d="M 37.51876,-42.073483 C 26.139682,-44.668589 19.112661,-48.16126 12.130365,-54.692384 3.2663712,-62.983609 0.1702313,-70.798029 0.91766188,-82.992394 1.8017116,-97.415713 5.4399671,-104.57367 28.553647,-137.3639 c 15.026369,-21.31716 17.386875,-27.02786 14.26265,-34.50519 -1.04267,-2.49546 -4.497483,-8.71149 -7.677363,-13.81339 -7.866822,-12.6218 -10.604761,-20.32994 -10.589912,-29.81384 0.0224,-14.3046 8.63985,-26.60865 23.10881,-32.99488 24.343335,-10.74455 70.532808,-15.46406 99.887738,-10.20626 54.8037,9.81596 95.10672,44.61633 100.91181,87.1341 7.40803,54.25807 -52.48233,109.520439 -137.72752,127.084736 -19.172939,3.950476 -60.484143,5.307634 -73.2111,2.405141 z m 40.07477,-34.01128 c 10.573104,-7.184607 13.42375,-20.224457 6.542773,-29.928927 -5.15742,-7.27368 -10.778836,-10.00906 -19.416458,-9.44805 -15.522802,1.00819 -23.948643,15.07102 -17.975031,30.000548 4.683541,11.705317 20.394102,16.480529 30.848716,9.376429 z m 64.78672,-15.889999 c 14.20766,-8.780818 13.00047,-29.935778 -2.1493,-37.664608 -11.89986,-6.07087 -26.57866,0.68677 -30.12859,13.87022 -5.03525,18.699468 15.7407,34.014942 32.27789,23.794388 z m 48.97952,-34.474048 c 6.4714,-4.93599 9.32784,-10.25314 9.33339,-17.37375 0.008,-10.13307 -6.17505,-18.11317 -16.40982,-21.17959 -12.41439,-3.71944 -26.36746,7.29018 -26.36746,20.80518 0,17.35799 20.02367,27.98426 33.44389,17.74816 z m -14.6383,-62.26016 c 5.89569,-3.00776 9.64794,-7.55412 11.59316,-14.04671 2.77053,-9.24717 -3.2326,-20.54681 -13.35973,-25.14692 -6.64672,-3.01919 -8.84531,-2.93339 -16.53052,0.64511 -13.67769,6.36882 -16.94601,21.94058 -7.06879,33.67898 6.23882,7.41442 16.51182,9.38655 25.36588,4.86954 z m -63.69043,-3.00975 c 9.10721,-3.80523 15.03256,-15.64699 12.33485,-24.65112 -4.39385,-14.66536 -20.30319,-20.98011 -32.664191,-12.96509 -11.268604,7.3067 -13.544762,22.14787 -4.851886,31.63562 6.843491,7.46926 16.263697,9.70657 25.181227,5.98059 z"
       id="path24"
       transform="scale(0.26458333)" /></g></svg>
