<?xml version="1.0" encoding="UTF-8" standalone="no"?>
<!-- Created with Inkscape (http://www.inkscape.org/) -->

<svg
   width="32mm"
   height="32mm"
   viewBox="0 0 32 32"
   version="1.1"
   id="svg1"
   xml:space="preserve"
   inkscape:version="1.3.1 (9b9bdc1480, 2023-11-25, custom)"
   sodipodi:docname="tourism_caravan_site.16.svg"
   xmlns:inkscape="http://www.inkscape.org/namespaces/inkscape"
   xmlns:sodipodi="http://sodipodi.sourceforge.net/DTD/sodipodi-0.dtd"
   xmlns="http://www.w3.org/2000/svg"
   xmlns:svg="http://www.w3.org/2000/svg"><sodipodi:namedview
     id="namedview1"
     pagecolor="#ffffff"
     bordercolor="#666666"
     borderopacity="1.0"
     inkscape:showpageshadow="2"
     inkscape:pageopacity="0.0"
     inkscape:pagecheckerboard="0"
     inkscape:deskcolor="#d1d1d1"
     inkscape:document-units="mm"
     inkscape:zoom="1.2158059"
     inkscape:cx="4.1124985"
     inkscape:cy="136.9462"
     inkscape:window-width="1318"
     inkscape:window-height="719"
     inkscape:window-x="48"
     inkscape:window-y="27"
     inkscape:window-maximized="1"
     inkscape:current-layer="layer1"
     showguides="true"
     showgrid="false" /><defs
     id="defs1" /><g
     inkscape:label="Livello 1"
     inkscape:groupmode="layer"
     id="layer1"><path
       id="rect1"
       style="fill:#1498db;fill-opacity:1;stroke:none;stroke-width:0.185208;stroke-linecap:round;paint-order:markers stroke fill"
       d="m 6.9633993,6.0213379 c -2.8129404,0 -5.0777263,2.2647865 -5.0777263,5.0777261 v 5.951575 c 0,2.81294 2.2647859,5.077726 5.0777263,5.077726 0.5865768,-0.0453 1.252708,-0.07687 1.9631876,-0.09922 0.3935002,-1.987993 2.1561791,-3.499528 4.2550371,-3.499528 2.10738,0 3.874585,1.523883 4.258138,3.523816 1.852877,0.03742 3.333098,0.06943 3.345533,0.02015 h 8.234639 c 0.696845,0 1.257804,-0.560958 1.257804,-1.257804 0,-0.696847 -0.560959,-1.257805 -1.257804,-1.257805 h -4.526855 c 0.419324,-0.73935 0.661458,-1.593312 0.661458,-2.50734 v -5.95157 c 0,-2.8129396 -2.264268,-5.0777261 -5.07721,-5.0777261 z M 6.5432699,10.306348 h 7.3855961 c 0.39539,0 0.714168,0.318261 0.714168,0.713651 v 2.324923 c 0,0.39539 -0.318778,0.713651 -0.714168,0.713651 H 6.5432699 c -0.3953913,0 -0.7136516,-0.318261 -0.7136516,-0.713651 v -2.324923 c 0,-0.39539 0.3182603,-0.713651 0.7136516,-0.713651 z m 10.8313801,0 h 2.759005 c 0.403396,0 0.728637,0.324724 0.728637,0.728121 v 2.295983 c 0,0.403397 -0.325241,0.728121 -0.728637,0.728121 H 17.37465 c -0.403397,0 -0.728121,-0.324724 -0.728121,-0.728121 v -2.295983 c 0,-0.403397 0.324724,-0.728121 0.728121,-0.728121 z" /><g
       id="path2"
       transform="translate(-0.04301193,-0.18345036)"><path
         style="color:#000000;fill:#1498db;stroke-linecap:round;-inkscape-stroke:none;paint-order:markers stroke fill"
         d="m 16.718853,23.050655 a 3.4948769,3.4948769 0 0 1 -3.494877,3.494877 3.4948769,3.4948769 0 0 1 -3.4948767,-3.494877 3.4948769,3.4948769 0 0 1 3.4948767,-3.494876 3.4948769,3.4948769 0 0 1 3.494877,3.494876 z"
         id="path5" /></g></g></svg>
