<?xml version="1.0" encoding="UTF-8" standalone="no"?>
<!-- Created with Inkscape (http://www.inkscape.org/) -->

<svg
   width="32mm"
   height="32mm"
   viewBox="0 0 32 32"
   version="1.1"
   id="svg1"
   xml:space="preserve"
   inkscape:version="1.3.1 (9b9bdc1480, 2023-11-25, custom)"
   sodipodi:docname="tourism_hotel.16.svg"
   xmlns:inkscape="http://www.inkscape.org/namespaces/inkscape"
   xmlns:sodipodi="http://sodipodi.sourceforge.net/DTD/sodipodi-0.dtd"
   xmlns="http://www.w3.org/2000/svg"
   xmlns:svg="http://www.w3.org/2000/svg"><sodipodi:namedview
     id="namedview1"
     pagecolor="#ffffff"
     bordercolor="#666666"
     borderopacity="1.0"
     inkscape:showpageshadow="2"
     inkscape:pageopacity="0.0"
     inkscape:pagecheckerboard="0"
     inkscape:deskcolor="#d1d1d1"
     inkscape:document-units="mm"
     inkscape:zoom="0.28097839"
     inkscape:cx="71.179851"
     inkscape:cy="-225.99603"
     inkscape:window-width="1318"
     inkscape:window-height="719"
     inkscape:window-x="48"
     inkscape:window-y="27"
     inkscape:window-maximized="1"
     inkscape:current-layer="layer1"
     showguides="true"
     showgrid="false" /><defs
     id="defs1" /><g
     inkscape:label="Livello 1"
     inkscape:groupmode="layer"
     id="layer1"><g
       id="path6"
       transform="translate(0.07715486,0.14655289)"><g
         id="path7" /></g><g
       id="g34"
       transform="translate(-1.4463598e-7,-0.17743229)"><path
         id="path30"
         style="color:#000000;fill:#0091da;fill-opacity:1;stroke-width:1.0759;stroke-linecap:round;-inkscape-stroke:none"
         d="M 2.5259747,14.230408 A 0.94947928,0.94947928 0 0 0 1.5763513,15.18003 v 12.852157 a 0.94947928,0.94947928 0 0 0 0.9496234,0.947399 0.94947928,0.94947928 0 0 0 0.9501786,-0.947399 v -3.2931 H 28.526071 v 3.2931 a 0.94947928,0.94947928 0 0 0 0.95018,0.947399 0.94947928,0.94947928 0 0 0 0.947398,-0.947399 v -8.663919 a 0.94947928,0.94947928 0 0 0 -0.947398,-0.947955 0.94947928,0.94947928 0 0 0 -0.95018,0.947955 v 3.471573 H 3.4761533 V 15.18003 A 0.94947928,0.94947928 0 0 0 2.5259747,14.230408 Z" /><path
         id="rect33"
         style="fill:#0091da;stroke-width:1.89896;stroke-linecap:round;stroke-opacity:0.717647;paint-order:markers stroke fill"
         d="m 14.194246,16.862124 11.876805,1.665835 c 1.008961,0.141516 1.839057,0.820219 1.839057,1.839056 0,1.018838 -0.820219,1.839057 -1.839057,1.839057 H 14.194246 c -1.480273,0 -2.671973,-1.1917 -2.671973,-2.671974 0,-1.480274 1.206049,-2.877584 2.671973,-2.671974 z"
         sodipodi:nodetypes="sssssss" /><circle
         style="fill:#0091da;fill-opacity:1;stroke:none;stroke-width:2.14657;stroke-linecap:round;stroke-dasharray:none;stroke-opacity:0.717647;paint-order:markers stroke fill"
         id="path34"
         cx="7.5898662"
         cy="18.955421"
         r="3.1727304" /></g></g></svg>
