<?xml version="1.0" encoding="UTF-8" standalone="no"?>
<!-- Created with Inkscape (http://www.inkscape.org/) -->

<svg
   width="32mm"
   height="32mm"
   viewBox="0 0 32 32"
   version="1.1"
   id="svg1"
   xml:space="preserve"
   inkscape:version="1.3.1 (9b9bdc1480, 2023-11-25, custom)"
   sodipodi:docname="tourism_motel.svg"
   xmlns:inkscape="http://www.inkscape.org/namespaces/inkscape"
   xmlns:sodipodi="http://sodipodi.sourceforge.net/DTD/sodipodi-0.dtd"
   xmlns="http://www.w3.org/2000/svg"
   xmlns:svg="http://www.w3.org/2000/svg"><sodipodi:namedview
     id="namedview1"
     pagecolor="#ffffff"
     bordercolor="#666666"
     borderopacity="1.0"
     inkscape:showpageshadow="2"
     inkscape:pageopacity="0.0"
     inkscape:pagecheckerboard="0"
     inkscape:deskcolor="#d1d1d1"
     inkscape:document-units="mm"
     inkscape:zoom="1.1239136"
     inkscape:cx="-3.5589925"
     inkscape:cy="59.16825"
     inkscape:window-width="1318"
     inkscape:window-height="719"
     inkscape:window-x="48"
     inkscape:window-y="27"
     inkscape:window-maximized="1"
     inkscape:current-layer="layer1"
     showguides="true"
     showgrid="false"><sodipodi:guide
       position="19.442122,8.2804712"
       orientation="1,0"
       id="guide37"
       inkscape:locked="false" /></sodipodi:namedview><defs
     id="defs1" /><g
     inkscape:label="Livello 1"
     inkscape:groupmode="layer"
     id="layer1"><g
       id="path6"
       transform="translate(0.07715486,0.14655289)"><g
         id="path7" /></g><g
       id="path19-7"
       transform="translate(-18.093561,-22.063221)" /><g
       id="rect22-0"
       transform="matrix(-1,0,0,1,12.5682,-21.833053)" /><g
       id="rect22-7"
       transform="matrix(-1,0,0,1,12.752284,-22.063409)" /><g
       id="path26"
       transform="translate(-18.093561,-22.063221)" /><g
       id="path52"
       transform="translate(-56.174918,-28.674978)" /><g
       id="path52-1"
       transform="matrix(-1,0,0,1,3.903023,-22.063221)" /><g
       inkscape:label="Livello 1"
       id="layer1-9"
       transform="translate(-18.120379,-22.565959)"><g
         id="path19-6" /><g
         id="rect22-0-3"
         transform="matrix(-1,0,0,1,30.661761,0.23016813)" /><g
         id="rect22-7-8"
         transform="matrix(-1,0,0,1,30.845845,-1.8811487e-4)" /><g
         id="path26-5" /><g
         id="path52-6"
         transform="translate(-38.081357,-6.611757)" /><g
         id="path52-5"
         transform="translate(5.0017045,-6.410269)" /><g
         id="path52-1-1"
         transform="matrix(-1,0,0,1,21.996584,0)" /></g><g
       id="path7-6"
       transform="matrix(1,0,0,-1,-18.093561,9.287006)" /><g
       id="path6-8"
       transform="translate(0.19064383,-11.93587)"><g
         id="path7-0" /></g><g
       id="g40"><g
         id="g38"
         transform="translate(0,-0.52916667)"><path
           id="path30"
           style="color:#000000;fill:#0091da;fill-opacity:1;stroke-linecap:round;-inkscape-stroke:none"
           d="m 3.5899643,2.637086 a 0.88249999,0.88249999 0 0 0 -0.882634,0.882633 v 11.945525 a 0.88249999,0.88249999 0 0 0 0.882634,0.880566 0.88249999,0.88249999 0 0 0 0.88315,-0.880566 V 12.404449 H 27.755931 v 3.060795 a 0.88249999,0.88249999 0 0 0 0.883151,0.880566 0.88249999,0.88249999 0 0 0 0.880566,-0.880566 V 7.412505 A 0.88249999,0.88249999 0 0 0 28.639082,6.531422 0.88249999,0.88249999 0 0 0 27.755931,7.412505 v 3.226677 H 4.4731143 V 3.519719 a 0.88249999,0.88249999 0 0 0 -0.88315,-0.882633 z" /><g
           id="g34"
           transform="translate(-17.84159,15.512602)"><rect
             style="fill:#0091da;fill-opacity:1;stroke:none;stroke-width:1.765;stroke-linecap:round;stroke-dasharray:none;stroke-opacity:0.717647;paint-order:markers stroke fill"
             id="rect33"
             width="15.145666"
             height="4.0205679"
             x="29.797747"
             y="-9.4830494"
             ry="2.0102839" /><rect
             style="fill:#0091da;fill-opacity:1;stroke:none;stroke-width:1.765;stroke-linecap:round;stroke-dasharray:none;stroke-opacity:0.717647;paint-order:markers stroke fill"
             id="rect34"
             width="6.0641689"
             height="2.2314494"
             x="22.966745"
             y="-7.6254973"
             ry="1.1157247" /><circle
             style="fill:#0091da;fill-opacity:1;stroke:none;stroke-width:1.87495;stroke-linecap:round;stroke-dasharray:none;stroke-opacity:0.717647;paint-order:markers stroke fill"
             id="path34"
             cx="27.146187"
             cy="-10.924467"
             r="2.7712638" /></g></g><g
         id="g39"
         transform="translate(-0.18574882)"><path
           style="color:#000000;fill:#0091da;-inkscape-stroke:none"
           d="m 2.0488281,16.816406 v 1.265625 H 30.513672 v -1.265625 z"
           id="path37" /><path
           style="color:#000000;fill:#0091da;-inkscape-stroke:none"
           d="m 2.0488281,29.386719 v 1.265625 H 30.513672 v -1.265625 z"
           id="path37-0" /><path
           style="color:#000000;fill:#0091da;stroke-dasharray:2.53, 1.265;-inkscape-stroke:none"
           d="m 2.0488281,23.101562 v 1.265625 H 4.578125 v -1.265625 z m 3.7949219,0 v 1.265625 h 2.5292969 v -1.265625 z m 3.7949219,0 v 1.265625 h 2.5292971 v -1.265625 z m 3.7949221,0 v 1.265625 h 2.529297 v -1.265625 z m 3.794922,0 v 1.265625 h 2.53125 v -1.265625 z m 3.794921,0 v 1.265625 h 2.53125 v -1.265625 z m 3.794922,0 v 1.265625 h 2.53125 v -1.265625 z m 3.794922,0 v 1.265625 h 1.900391 v -1.265625 z"
           id="path37-6" /><rect
           style="fill:#0091dc;fill-opacity:0.2;stroke:#0091da;stroke-width:0;stroke-linecap:round;stroke-dasharray:2.53, 1.265;stroke-dashoffset:0;stroke-opacity:1;paint-order:markers stroke fill"
           id="rect37"
           width="28.56274"
           height="12.442976"
           x="2.0178678"
           y="17.741482"
           ry="1.1157247" /></g></g></g></svg>
