<?xml version="1.0" encoding="UTF-8" standalone="no"?>
<!-- Created with Inkscape (http://www.inkscape.org/) -->

<svg
   width="32mm"
   height="32mm"
   viewBox="0 0 32 32"
   version="1.1"
   id="svg1"
   xml:space="preserve"
   inkscape:version="1.3.1 (9b9bdc1480, 2023-11-25, custom)"
   sodipodi:docname="tourism_hotel.svg"
   xmlns:inkscape="http://www.inkscape.org/namespaces/inkscape"
   xmlns:sodipodi="http://sodipodi.sourceforge.net/DTD/sodipodi-0.dtd"
   xmlns="http://www.w3.org/2000/svg"
   xmlns:svg="http://www.w3.org/2000/svg"><sodipodi:namedview
     id="namedview1"
     pagecolor="#ffffff"
     bordercolor="#666666"
     borderopacity="1.0"
     inkscape:showpageshadow="2"
     inkscape:pageopacity="0.0"
     inkscape:pagecheckerboard="0"
     inkscape:deskcolor="#d1d1d1"
     inkscape:document-units="mm"
     inkscape:zoom="0.19868173"
     inkscape:cx="-80.530806"
     inkscape:cy="27.682464"
     inkscape:window-width="1318"
     inkscape:window-height="719"
     inkscape:window-x="48"
     inkscape:window-y="27"
     inkscape:window-maximized="1"
     inkscape:current-layer="layer1"
     showguides="true"
     showgrid="false" /><defs
     id="defs1" /><g
     inkscape:label="Livello 1"
     inkscape:groupmode="layer"
     id="layer1"><g
       id="path6"
       transform="translate(0.07715486,0.14655289)"><g
         id="path7" /></g><path
       id="path11"
       style="fill:#0092dd;fill-opacity:0.34902;stroke:none;stroke-width:0.358928px;stroke-linecap:butt;stroke-linejoin:miter;stroke-opacity:1;paint-order:markers stroke fill"
       d="m 15.963897,2.6169424 v 0.061684 L 4.5847278,12.419482 H 6.561641 v 16.151801 h 6.405339 v -8.086417 h 6.06604 v 8.086417 h 6.405339 V 12.419482 h 1.976913 L 16.036103,2.6786275 v -0.061684 l -0.03576,0.030849 z"
       sodipodi:nodetypes="cccccccccccccccc" /><path
       id="path30"
       style="color:#000000;fill:#0091da;fill-opacity:1;stroke-linecap:round;-inkscape-stroke:none"
       d="m 3.4764753,14.719509 a 0.88249999,0.88249999 0 0 0 -0.882634,0.882633 v 11.945525 a 0.88249999,0.88249999 0 0 0 0.882634,0.880566 0.88249999,0.88249999 0 0 0 0.88315,-0.880566 V 24.486872 H 27.642442 v 3.060795 a 0.88249999,0.88249999 0 0 0 0.883151,0.880566 0.88249999,0.88249999 0 0 0 0.880566,-0.880566 v -8.052739 a 0.88249999,0.88249999 0 0 0 -0.880566,-0.881083 0.88249999,0.88249999 0 0 0 -0.883151,0.881083 v 3.226677 H 4.3596253 v -7.119463 a 0.88249999,0.88249999 0 0 0 -0.88315,-0.882633 z" /><g
       id="g34"
       transform="translate(-17.955079,27.595025)"><rect
         style="fill:#0091da;fill-opacity:1;stroke:none;stroke-width:1.765;stroke-linecap:round;stroke-dasharray:none;stroke-opacity:0.717647;paint-order:markers stroke fill"
         id="rect33"
         width="15.145666"
         height="4.0205679"
         x="29.797747"
         y="-9.4830494"
         ry="2.0102839" /><rect
         style="fill:#0091da;fill-opacity:1;stroke:none;stroke-width:1.765;stroke-linecap:round;stroke-dasharray:none;stroke-opacity:0.717647;paint-order:markers stroke fill"
         id="rect34"
         width="6.0641689"
         height="2.2314494"
         x="22.966745"
         y="-7.6254973"
         ry="1.1157247" /><circle
         style="fill:#0091da;fill-opacity:1;stroke:none;stroke-width:1.87495;stroke-linecap:round;stroke-dasharray:none;stroke-opacity:0.717647;paint-order:markers stroke fill"
         id="path34"
         cx="27.146187"
         cy="-10.924467"
         r="2.7712638" /></g></g></svg>
