<?xml version="1.0" encoding="UTF-8" standalone="no"?>
<!-- Created with Inkscape (http://www.inkscape.org/) -->

<svg
   width="32mm"
   height="32mm"
   viewBox="0 0 32 32"
   version="1.1"
   id="svg1"
   xml:space="preserve"
   inkscape:version="1.3.1 (9b9bdc1480, 2023-11-25, custom)"
   sodipodi:docname="tourism_motel.16.svg"
   xmlns:inkscape="http://www.inkscape.org/namespaces/inkscape"
   xmlns:sodipodi="http://sodipodi.sourceforge.net/DTD/sodipodi-0.dtd"
   xmlns="http://www.w3.org/2000/svg"
   xmlns:svg="http://www.w3.org/2000/svg"><sodipodi:namedview
     id="namedview1"
     pagecolor="#ffffff"
     bordercolor="#666666"
     borderopacity="1.0"
     inkscape:showpageshadow="2"
     inkscape:pageopacity="0.0"
     inkscape:pagecheckerboard="0"
     inkscape:deskcolor="#d1d1d1"
     inkscape:document-units="mm"
     inkscape:zoom="1.1239136"
     inkscape:cx="40.928413"
     inkscape:cy="45.822028"
     inkscape:window-width="1318"
     inkscape:window-height="719"
     inkscape:window-x="48"
     inkscape:window-y="27"
     inkscape:window-maximized="1"
     inkscape:current-layer="layer1"
     showguides="true"
     showgrid="false"><sodipodi:guide
       position="17.714792,63.961353"
       orientation="1,0"
       id="guide37"
       inkscape:locked="false" /></sodipodi:namedview><defs
     id="defs1" /><g
     inkscape:label="Livello 1"
     inkscape:groupmode="layer"
     id="layer1"><g
       id="path6"
       transform="translate(0.07715486,0.14655289)"><g
         id="path7" /></g><g
       id="path19-7"
       transform="translate(-18.093561,-22.063221)" /><g
       id="rect22-0"
       transform="matrix(-1,0,0,1,12.5682,-21.833053)" /><g
       id="rect22-7"
       transform="matrix(-1,0,0,1,12.752284,-22.063409)" /><g
       id="path26"
       transform="translate(-18.093561,-22.063221)" /><g
       id="path52"
       transform="translate(-56.174918,-28.674978)" /><g
       id="path52-1"
       transform="matrix(-1,0,0,1,3.903023,-22.063221)" /><g
       inkscape:label="Livello 1"
       id="layer1-9"
       transform="translate(-18.120379,-22.565959)"><g
         id="path19-6" /><g
         id="rect22-0-3"
         transform="matrix(-1,0,0,1,30.661761,0.23016813)" /><g
         id="rect22-7-8"
         transform="matrix(-1,0,0,1,30.845845,-1.8811487e-4)" /><g
         id="path26-5" /><g
         id="path52-6"
         transform="translate(-38.081357,-6.611757)" /><g
         id="path52-5"
         transform="translate(5.0017045,-6.410269)" /><g
         id="path52-1-1"
         transform="matrix(-1,0,0,1,21.996584,0)" /></g><g
       id="path7-6"
       transform="matrix(1,0,0,-1,-18.093561,9.287006)" /><path
       id="rect1"
       style="fill:#0093db;fill-opacity:1;stroke:none;stroke-width:0.677166;stroke-linecap:round;stroke-linejoin:round;stroke-dasharray:none;stroke-dashoffset:6.03213;stroke-opacity:1;paint-order:markers fill stroke"
       d="m 12.22165,15.887944 c -0.662045,0.07691 -1.227591,0.283464 -1.525488,0.851111 L 8.1619492,21.2248 6.5744493,22.383385 v 3.511414 c 0,0.499384 0.106231,1.226667 0.37467,1.452376 0.268439,0.225709 0.367273,0.277234 0.82629,0.277234 h 0.07752 v 1.776636 c 0,0.3105 0.250186,0.560689 0.5606894,0.560689 h 1.538923 c 0.3105043,0 0.5601733,-0.250189 0.5601733,-0.560689 v -1.776636 h 10.97458 v 1.776636 c 0,0.3105 0.249669,0.560689 0.560173,0.560689 h 1.538924 c 0.310504,0 0.560689,-0.250189 0.560689,-0.560689 v -1.776636 h 0.07751 c 0.436545,0 0.555889,-0.08283 0.768146,-0.301651 0.212257,-0.218824 0.432814,-0.906104 0.432814,-1.427959 v -3.511418 l -1.5875,-1.158585 -2.534212,-4.485745 C 21.005941,16.171404 20.440396,15.96485 19.77835,15.88794 Z m -0.502639,1.652092 h 8.561978 l 1.825729,3.843922 H 9.8932827 Z m -2.434625,5.591509 c 0.4267387,3.77e-4 0.772462,0.32747 0.772446,0.730816 1.6e-5,0.403345 -0.3457073,0.730439 -0.772446,0.730817 C 8.8571959,24.593402 8.5107679,24.266132 8.5107836,23.862361 8.5107679,23.458589 8.857196,23.13132 9.284386,23.131545 Z m 13.495327,-2e-6 c 0.426739,3.79e-4 0.772461,0.32747 0.772446,0.730817 1.5e-5,0.403345 -0.345707,0.730439 -0.772446,0.730818 -0.427189,2.23e-4 -0.773618,-0.327048 -0.773602,-0.730818 -1.6e-5,-0.403772 0.346413,-0.73104 0.773602,-0.730817 z"
       sodipodi:nodetypes="ccccszscssssccsssscszscccccccccccccccccccc" /><g
       id="g37"
       transform="translate(-0.41556399)"><path
         id="path30-8"
         style="color:#000000;fill:#0091da;fill-opacity:1;stroke-width:1.0759;stroke-linecap:round;-inkscape-stroke:none"
         d="M 2.941539,2.0506556 A 0.94947928,0.94947928 0 0 0 1.991915,3.0002776 V 15.852435 a 0.94947928,0.94947928 0 0 0 0.949624,0.947399 0.94947928,0.94947928 0 0 0 0.950178,-0.947399 v -3.2931 h 25.049918 v 3.2931 a 0.94947928,0.94947928 0 0 0 0.95018,0.947399 0.94947928,0.94947928 0 0 0 0.947398,-0.947399 V 7.1885156 a 0.94947928,0.94947928 0 0 0 -0.947398,-0.947955 0.94947928,0.94947928 0 0 0 -0.95018,0.947955 V 10.660089 H 3.891717 V 3.0002776 A 0.94947928,0.94947928 0 0 0 2.941539,2.0506556 Z" /><path
         id="rect33-1"
         style="fill:#0091da;stroke-width:1.89896;stroke-linecap:round;stroke-opacity:0.717647;paint-order:markers stroke fill"
         d="m 14.60981,4.6823716 11.876805,1.665835 c 1.008961,0.141516 1.839057,0.820219 1.839057,1.839056 0,1.018838 -0.820219,1.8390574 -1.839057,1.8390574 H 14.60981 c -1.480273,0 -2.671973,-1.1917004 -2.671973,-2.6719744 0,-1.480274 1.206049,-2.877584 2.671973,-2.671974 z"
         sodipodi:nodetypes="sssssss" /><circle
         style="fill:#0091da;fill-opacity:1;stroke:none;stroke-width:2.14657;stroke-linecap:round;stroke-dasharray:none;stroke-opacity:0.717647;paint-order:markers stroke fill"
         id="path34-2"
         cx="8.0054312"
         cy="6.7756686"
         r="3.1727304" /></g></g></svg>
