<?xml version="1.0" encoding="UTF-8" standalone="no"?>
<!-- Created with Inkscape (http://www.inkscape.org/) -->

<svg
   width="32mm"
   height="32mm"
   viewBox="0 0 32 32"
   version="1.1"
   id="svg1"
   xml:space="preserve"
   inkscape:version="1.3.1 (9b9bdc1480, 2023-11-25, custom)"
   sodipodi:docname="tourism_caravan_site.svg"
   xmlns:inkscape="http://www.inkscape.org/namespaces/inkscape"
   xmlns:sodipodi="http://sodipodi.sourceforge.net/DTD/sodipodi-0.dtd"
   xmlns="http://www.w3.org/2000/svg"
   xmlns:svg="http://www.w3.org/2000/svg"><sodipodi:namedview
     id="namedview1"
     pagecolor="#ffffff"
     bordercolor="#666666"
     borderopacity="1.0"
     inkscape:showpageshadow="2"
     inkscape:pageopacity="0.0"
     inkscape:pagecheckerboard="0"
     inkscape:deskcolor="#d1d1d1"
     inkscape:document-units="mm"
     inkscape:zoom="1.5894538"
     inkscape:cx="32.71564"
     inkscape:cy="50.017181"
     inkscape:window-width="1318"
     inkscape:window-height="719"
     inkscape:window-x="48"
     inkscape:window-y="27"
     inkscape:window-maximized="1"
     inkscape:current-layer="layer1"
     showguides="true"
     showgrid="false" /><defs
     id="defs1" /><g
     inkscape:label="Livello 1"
     inkscape:groupmode="layer"
     id="layer1"><path
       id="rect5"
       style="fill:#1498db;fill-opacity:1;stroke:none;stroke-width:1.66136;stroke-linecap:round;stroke-dasharray:none;paint-order:markers stroke fill"
       d="m 6.8997802,7.657098 c -2.4448249,0 -4.4131672,1.53017 -4.4131672,3.430799 v 7.014559 c 0,1.900627 1.9683423,3.430798 4.4131672,3.430798 h 4.2260988 c 0.262998,-1.718852 1.763248,-3.055627 3.550687,-3.055627 1.787633,0 3.289697,1.336238 3.552755,3.055627 h 0.769979 3.240112 6.865731 c 0.226139,0 0.408244,-0.1535 0.408244,-0.344165 v -0.0093 c 0,-0.190664 -0.182105,-0.344165 -0.408244,-0.344165 h -2.476335 c 0,0 0.01578,-9.558781 0.02377,-9.747725 C 26.732878,9.188967 24.684237,7.6571 22.23941,7.6571 Z m 12.4447188,2.711463 h 3.710367 c 0.429629,0 0.775147,0.345518 0.775147,0.775146 v 2.738335 c 0,0.429628 -0.345518,0.775146 -0.775147,0.775146 h -3.710367 c -0.429629,0 -0.775664,-0.345518 -0.775664,-0.775146 v -2.738335 c 0,-0.429628 0.346035,-0.775146 0.775664,-0.775146 z m -12.5682255,5.17e-4 h 7.3468385 c 0.439226,0 0.792716,0.35349 0.792716,0.792716 v 2.702161 c 0,0.439225 -0.35349,0.792716 -0.792716,0.792716 H 6.7762735 c -0.4392269,0 -0.7932332,-0.353491 -0.7932332,-0.792716 v -2.702161 c 0,-0.439226 0.3540063,-0.792716 0.7932332,-0.792716 z m 7.9008095,9.428882 c -1.244217,0 -2.272212,1.028511 -2.272212,2.272729 0,1.244217 1.027995,2.272213 2.272212,2.272213 1.244218,0 2.27273,-1.027996 2.27273,-2.272213 0,-1.244218 -1.028512,-2.272729 -2.27273,-2.272729 z m 0,0.914156 a 1.3583387,1.3583387 0 0 1 1.358574,1.358056 1.3583387,1.3583387 0 0 1 -1.358574,1.358574 1.3583387,1.3583387 0 0 1 -1.358056,-1.358574 1.3583387,1.3583387 0 0 1 1.358056,-1.358056 z" /><g
       id="path6"
       transform="translate(0.07715486,0.14655289)"><g
         id="path7" /></g></g></svg>
