<?xml version="1.0" encoding="UTF-8" standalone="no"?>
<svg
   xmlns:dc="http://purl.org/dc/elements/1.1/"
   xmlns:cc="http://creativecommons.org/ns#"
   xmlns:rdf="http://www.w3.org/1999/02/22-rdf-syntax-ns#"
   xmlns:svg="http://www.w3.org/2000/svg"
   xmlns="http://www.w3.org/2000/svg"
   xmlns:sodipodi="http://sodipodi.sourceforge.net/DTD/sodipodi-0.dtd"
   xmlns:inkscape="http://www.inkscape.org/namespaces/inkscape"
   version="1.0"
   x="0px"
   y="0px"
   viewBox="0 0 32 32"
   enable-background="new 0 0 100 100"
   xml:space="preserve"
   id="svg4170"
   inkscape:version="0.91 r13725"
   sodipodi:docname="vending_discount.svg"
   width="32"
   height="32"
   inkscape:export-filename="/home/adrien/Documents/Programmation/Web/panieravide.github.io/openlevelup/img/vending_discount.png"
   inkscape:export-xdpi="67.5"
   inkscape:export-ydpi="67.5"><metadata
     id="metadata4178"><rdf:RDF><cc:Work
         rdf:about=""><dc:format>image/svg+xml</dc:format><dc:type
           rdf:resource="http://purl.org/dc/dcmitype/StillImage" /><dc:title></dc:title></cc:Work></rdf:RDF></metadata><defs
     id="defs4176" /><sodipodi:namedview
     pagecolor="#ffffff"
     bordercolor="#666666"
     borderopacity="1"
     objecttolerance="10"
     gridtolerance="10"
     guidetolerance="10"
     inkscape:pageopacity="0"
     inkscape:pageshadow="2"
     inkscape:window-width="1600"
     inkscape:window-height="843"
     id="namedview4174"
     showgrid="false"
     inkscape:zoom="12.62"
     inkscape:cx="15.168461"
     inkscape:cy="10.007209"
     inkscape:window-x="0"
     inkscape:window-y="595"
     inkscape:window-maximized="1"
     inkscape:current-layer="svg4170" /><path
     d="m 8.142009,12.140931 c 0,1.933112 1.5670173,3.500203 3.500039,3.500203 1.933021,0 3.500038,-1.567091 3.500038,-3.500203 0,-1.933112 -1.567017,-3.5002026 -3.500038,-3.5002026 -1.9330217,0 -3.500039,1.5670906 -3.500039,3.5002026 l 0,0 z m 8.717596,7.717947 c 0,1.933112 1.567017,3.500202 3.500038,3.500202 1.933022,0 3.500039,-1.56709 3.500039,-3.500202 0,-1.933112 -1.567017,-3.500203 -3.500039,-3.500203 -1.933021,0 -3.500038,1.567091 -3.500038,3.500203 l 0,0 z m 4.294547,-11.2181496 -1.80952,0 -8.497093,14.7183516 1.80902,0 8.497593,-14.7183516 0,0 z M 15.136586,31.500551 13.64507,28.917402 c -0.422005,-0.731042 -1.339515,-0.976557 -2.056523,-0.562533 -0.0455,0.026 -0.0885,0.054 -0.130001,0.084 l -2.4565275,1.418582 c -0.1575017,0.09101 -0.3305036,0.134008 -0.5005055,0.134008 -0.3695041,0 -0.6930076,-0.201512 -0.8655095,-0.500029 C 7.5505025,29.343927 7.501502,29.173917 7.501502,28.991406 l 0,-2.914168 c 0.0025,-0.910053 -0.6695074,-1.581592 -1.4975165,-1.581592 l -0.1175013,0.0045 -2.8765317,0 c -0.182002,0 -0.3535039,-0.0495 -0.5000055,-0.134508 -0.3205036,-0.18501 -0.4995055,-0.52053 -0.5000055,-0.86555 -5.001e-4,-0.170509 0.0425,-0.342519 0.1340014,-0.500529 L 3.5789587,20.514916 3.6454597,20.40991 C 4.0599643,19.692368 3.8139616,18.774815 3.0964537,18.360791 L 0.49992515,16.864705 c -0.15750173,-0.09101 -0.28100309,-0.219513 -0.36600403,-0.366022 -0.18500203,-0.320518 -0.17200189,-0.70054 0,-1.000058 0.0850009,-0.147508 0.20800229,-0.275015 0.36600403,-0.366021 L 2.9494521,13.719022 c 0.050001,-0.022 0.099001,-0.047 0.1475016,-0.0745 C 3.8144616,13.229994 4.0604643,12.312941 3.6464598,11.5949 L 3.5964588,11.515395 2.1439428,9.0002492 C 2.0524418,8.8432401 2.0094413,8.66973 2.0094413,8.4997202 c 0,-0.3695214 0.2015023,-0.6925401 0.5000055,-0.8650501 0.1475017,-0.085505 0.3180035,-0.1345077 0.5000055,-0.1345077 l 2.8390314,-5.001e-4 c 0.052001,0.0055 0.1040012,0.0085 0.1565017,0.0085 0.8280091,0 1.5000165,-0.6720389 1.5000165,-1.5000868 l -0.005,-0.1195069 -5e-4,-2.8771665 c 0,-0.1820106 0.049501,-0.3535205 0.1345015,-0.500529 0.185002,-0.3205186 0.5205057,-0.4990289 0.8655095,-0.4995289 0.1700018,-5.001e-4 0.3425037,0.042502 0.5000055,0.1340077 l 2.4825276,1.433083 0.109501,0.069504 c 0.717508,0.414024 1.635018,0.1685098 2.049023,-0.5490318 l 1.496016,-2.59915041 c 0.091,-0.15750912 0.219502,-0.28101626 0.366504,-0.36602118 0.320004,-0.18451068 0.700008,-0.17200996 0.999511,0 0.147502,0.0850049 0.275003,0.20801204 0.366004,0.36602118 L 18.26862,2.9243975 c 0.025,0.059503 0.053,0.1175068 0.0865,0.1755102 0.414505,0.7175415 1.331515,0.9635557 2.049523,0.5490318 l 0.100001,-0.063004 2.497027,-1.4420835 c 0.157002,-0.091005 0.330504,-0.1340077 0.500006,-0.1340077 0.370004,0 0.693008,0.2015117 0.865509,0.5000289 0.0855,0.1475086 0.134502,0.3180184 0.134502,0.500029 l 0,2.8216633 c -0.007,0.058003 -0.0105,0.1165067 -0.0105,0.1770102 0,0.828048 0.671507,1.5000868 1.500016,1.5000868 0.052,0 0.104001,-0.003 0.155002,-0.008 l 2.844531,-5e-4 c 0.181502,0 0.353004,0.050003 0.500006,0.1350078 0.320503,0.1845107 0.499505,0.5205301 0.500005,0.86505 0,0.1705099 -0.043,0.3430199 -0.134001,0.500529 l -1.428016,2.4741438 -0.0775,0.120007 c -0.414004,0.717541 -0.168002,1.635094 0.549506,2.049618 0.05,0.029 0.101001,0.054 0.153002,0.07651 l 2.446527,1.412581 c 0.157502,0.09101 0.281003,0.219513 0.366004,0.366021 0.184502,0.320519 0.172002,0.700541 0,1.000058 -0.085,0.147509 -0.208002,0.275016 -0.366004,0.366022 l -2.507528,1.448083 -0.0915,0.049 c -0.718008,0.414524 -0.96351,1.331577 -0.549006,2.049619 0.0275,0.0475 0.0565,0.093 0.0885,0.135508 l 1.416016,2.453142 c 0.091,0.157009 0.134001,0.330519 0.134001,0.500028 0,0.369522 -0.201502,0.693041 -0.500005,0.865551 -0.147002,0.0855 -0.317504,0.134507 -0.500006,0.134507 l -2.882031,0 -0.115502,-0.0045 c -0.828509,0 -1.500016,0.671539 -1.500016,1.500087 0,0.052 0.0025,0.102506 0.008,0.153509 l -0.001,2.842164 c 0,0.181511 -0.05,0.353021 -0.134502,0.500029 -0.185002,0.320519 -0.521005,0.499029 -0.866009,0.500029 -0.170002,0 -0.342004,-0.043 -0.500006,-0.134008 l -2.469527,-1.426082 -0.122501,-0.079 c -0.717508,-0.414024 -1.635018,-0.168509 -2.049023,0.549532 -0.0265,0.045 -0.05,0.091 -0.071,0.137008 l -1.419016,2.460142 c -0.091,0.15751 -0.219502,0.281017 -0.366004,0.366022 -0.320504,0.18501 -0.700508,0.17201 -1.000011,0 -0.147502,-0.08451 -0.274503,-0.207512 -0.366004,-0.365522 l 0,0 z m -4.994555,-19.35962 c 0,-0.828548 0.671507,-1.500087 1.500017,-1.500087 0.828009,0 1.500016,0.671539 1.500016,1.500087 0,0.828048 -0.672007,1.500087 -1.500016,1.500087 -0.82901,0 -1.500017,-0.672039 -1.500017,-1.500087 l 0,0 z m 8.717596,7.717947 c 0,-0.828548 0.671507,-1.500087 1.500016,-1.500087 0.82851,0 1.500017,0.671539 1.500017,1.500087 0,0.828048 -0.671507,1.500086 -1.500017,1.500086 -0.828509,0 -1.500016,-0.671538 -1.500016,-1.500086 l 0,0 z"
     id="path4172"
     inkscape:connector-curvature="0"
     style="fill:#d40000;fill-opacity:1" /></svg>