<?xml version="1.0" encoding="UTF-8" standalone="no"?>
<svg
   viewBox="0 0 20 20"
   version="1.1"
   id="svg1"
   xmlns="http://www.w3.org/2000/svg"
   xmlns:svg="http://www.w3.org/2000/svg">
  <defs
     id="defs1" />
  <path
     d="M 0,9.4117641 1.1764707,8.2352936 H 3.5294118 A 7.0588234,7.0588236 0 0 1 8.2352941,3.5294117 V 1.1764706 L 9.4117647,0 h 1.1764703 l 1.176471,1.1764706 v 2.3529411 a 7.0588234,7.0588236 0 0 1 4.705882,4.7058819 h 2.352941 L 20,9.4117641 v 1.1764709 l -1.176471,1.176471 h -2.352941 a 7.0588234,7.0588236 0 0 1 -4.705882,4.705883 v 2.35294 L 10.588235,20 H 9.4117647 L 8.2352941,18.823529 v -2.35294 A 7.0588234,7.0588236 0 0 1 3.5294118,11.764706 H 1.1764707 L 0,10.588235 Z M 10,5.2941176 A 4.7058823,4.7058824 0 0 1 14.705882,9.9999999 4.7058823,4.7058824 0 0 1 10,14.705882 4.7058823,4.7058824 0 0 1 5.2941177,9.9999999 4.7058823,4.7058824 0 0 1 10,5.2941176 Z m 0,2.941176 A 1.7647059,1.7647058 0 0 1 11.764706,9.9999999 1.7647059,1.7647058 0 0 1 10,11.764706 1.7647059,1.7647058 0 0 1 8.2352941,9.9999999 1.7647059,1.7647058 0 0 1 10,8.2352936"
     fill="#ffffff"
     fill-rule="evenodd"
     id="path1"
     style="stroke-width:1.17647" />
</svg>
