<?xml version="1.0" encoding="UTF-8" standalone="no"?>
<svg
   viewBox="0 0 20 20"
   version="1.1"
   id="svg1"
   sodipodi:docname="geolocate.svg"
   inkscape:version="1.3.2 (091e20ef0f, 2023-11-25)"
   xmlns:inkscape="http://www.inkscape.org/namespaces/inkscape"
   xmlns:sodipodi="http://sodipodi.sourceforge.net/DTD/sodipodi-0.dtd"
   xmlns="http://www.w3.org/2000/svg"
   xmlns:svg="http://www.w3.org/2000/svg">
  <sodipodi:namedview
     id="namedview1"
     pagecolor="#ffffff"
     bordercolor="#000000"
     borderopacity="0.25"
     inkscape:showpageshadow="2"
     inkscape:pageopacity="0.0"
     inkscape:pagecheckerboard="true"
     inkscape:deskcolor="#d1d1d1"
     inkscape:zoom="41.05"
     inkscape:cx="6.3702801"
     inkscape:cy="7.1254568"
     inkscape:window-width="1920"
     inkscape:window-height="1018"
     inkscape:window-x="1920"
     inkscape:window-y="0"
     inkscape:window-maximized="1"
     inkscape:current-layer="svg1" />
  <defs
     id="defs1" />
  <path
     d="M 0.91595629,9.4656439 1.9846674,8.396933 h 2.137422 A 6.4122661,6.4122663 0 0 1 8.3969335,4.1220893 v -2.137422 l 1.068711,-1.06871101 h 1.0687105 l 1.068711,1.06871101 v 2.137422 a 6.4122661,6.4122663 0 0 1 4.274845,4.2748437 h 2.137421 l 1.068711,1.0687109 v 1.0687111 l -1.068711,1.068711 h -2.137421 a 6.4122661,6.4122663 0 0 1 -4.274845,4.274846 v 2.13742 l -1.068711,1.068711 H 9.4656445 l -1.068711,-1.068711 v -2.13742 A 6.4122661,6.4122663 0 0 1 4.1220894,11.603066 H 1.9846674 L 0.91595629,10.534355 Z M 10,5.7251558 A 4.2748441,4.2748442 0 0 1 14.274844,9.9999999 4.2748441,4.2748442 0 0 1 10,14.274844 4.2748441,4.2748442 0 0 1 5.7251559,9.9999999 4.2748441,4.2748442 0 0 1 10,5.7251558 Z M 10,8.396933 A 1.6030665,1.6030664 0 0 1 11.603066,9.9999999 1.6030665,1.6030664 0 0 1 10,11.603066 1.6030665,1.6030664 0 0 1 8.3969335,9.9999999 1.6030665,1.6030664 0 0 1 10,8.396933"
     fill="#ffffff"
     fill-rule="evenodd"
     id="path1"
     style="stroke-width:1.06871" />
</svg>
