<?xml version="1.0" encoding="UTF-8" standalone="no"?>
<!-- Created with Inkscape (http://www.inkscape.org/) -->

<svg
   width="20"
   height="20"
   viewBox="0 0 5.2916668 5.2916668"
   version="1.1"
   id="svg1"
   inkscape:version="1.3.2 (091e20ef0f, 2023-11-25)"
   sodipodi:docname="export.svg"
   xmlns:inkscape="http://www.inkscape.org/namespaces/inkscape"
   xmlns:sodipodi="http://sodipodi.sourceforge.net/DTD/sodipodi-0.dtd"
   xmlns="http://www.w3.org/2000/svg"
   xmlns:svg="http://www.w3.org/2000/svg">
  <sodipodi:namedview
     id="namedview1"
     pagecolor="#ffffff"
     bordercolor="#000000"
     borderopacity="0.25"
     inkscape:showpageshadow="2"
     inkscape:pageopacity="0.0"
     inkscape:pagecheckerboard="true"
     inkscape:deskcolor="#d1d1d1"
     inkscape:document-units="mm"
     inkscape:zoom="5.8511223"
     inkscape:cx="-28.285172"
     inkscape:cy="12.04897"
     inkscape:window-width="1920"
     inkscape:window-height="1018"
     inkscape:window-x="1920"
     inkscape:window-y="0"
     inkscape:window-maximized="1"
     inkscape:current-layer="layer1" />
  <defs
     id="defs1" />
  <g
     inkscape:label="Layer 1"
     inkscape:groupmode="layer"
     id="layer1">
    <g
       id="export"
       transform="matrix(0.26458333,0,0,0.26458333,-37.041666,0.1322917)">
      <path
         d="m 155,2 -1,1 v 2 h -2 c -6,0 -6,7 -6,7 0,0 2,-4 6,-4 0.667,0 1.333,0 2,0 v 2 l 1,1 4,-4.5 z m -13,4 -1,1 v 9 l 1,1 h 10 l 1,-1 v -2 -3 -1 h -1 c -0.32,0 -0.66,0.073 -1,0.188 V 13 15 h -5.562 c -0.299,0.069 -0.609,0.069 -0.907,0 H 143 v -1.625 c -0.033,-0.207 -0.033,-0.418 0,-0.625 V 10 8 h 1.531 c 0.344,-0.669 0.792,-1.348 1.344,-2 H 145 Z"
         fill="#ffffff"
         id="path6920" />
    </g>
  </g>
</svg>
