<?xml version="1.0" encoding="UTF-8"?>
<svg xmlns="http://www.w3.org/2000/svg" xmlns:xlink="http://www.w3.org/1999/xlink" xmlns:ev="http://www.w3.org/2001/xml-events" version="1.1" baseProfile="full" width="700px" height="280px">

<title>Diagram Overpass API</title>

<circle cx="140" cy="140" r="4" fill="black" stroke="none"/>

<polyline fill="none" stroke="black" stroke-width="2px" points="198.92 140, 280 140"/>
<polyline fill="none" stroke="black" stroke-width="2px" points="120 105.36, 70 18.75"/>
<polyline fill="none" stroke="black" stroke-width="2px" points="120 174.64, 70 261.25"/>

<polyline fill="none" stroke="black" stroke-width="2px" points="197.2 120, 280 120"/>
<polyline fill="none" stroke="black" stroke-width="2px" points="197.2 160, 280 160"/>
<polyline fill="none" stroke="black" stroke-width="2px" points="52.68 28.75, 105.36 120, 101.36 129.65, 100 140, 101.36 150.35, 105.36 160, 52.68 251.25"/>

<polyline fill="none" stroke="black" stroke-width="2px" points="87.32 8.75, 100.65 22.89, 110.78 25.13, 120.67 28.25, 130.26 32.22, 139.46 37.01, 148.21 42.59, 156.44 48.90, 164.09 55.91, 171.10 63.56, 177.41 71.79, 182.99 80.54, 187.78 89.74, 191.75 99.33, 194.87 109.22, 197.11 119.35, 198.47 129.64, 198.92 140, 198.47 150.36, 197.11 160.65, 194.87 170.78, 191.75 180.67, 187.78 190.26, 182.99 199.46, 177.41 208.21, 171.10 216.44, 164.09 224.09, 156.44 231.10, 148.21 237.41, 139.46 242.99, 130.26 247.78, 120.67 251.75, 110.78 254.87, 100.65 257.11, 87.32 271.25"/>
<polyline fill="none" stroke="black" stroke-width="2px" points="176.5 120, 174.64 120, 168.28 111.72, 160 105.36, 150.35 101.36, 140 100, 108.921 45.402, 110.568 45.921, 112.205 46.469, 113.833 47.046, 121.805 50.348, 129.46 54.333, 136.738 58.969, 143.585 64.223, 149.947 70.053, 155.777 76.415, 161.031 83.262, 165.667 90.54, 169.652 98.195, 172.954 106.167, 175.549 114.398, 177.417 122.823, 178.544 131.379, 178.92 140, 178.544 148.621, 177.417 157.177, 175.549 165.602, 172.954 173.833, 169.652 181.805, 165.667 189.46, 161.031 196.738, 155.777 203.585, 149.947 209.947, 143.585 215.777, 136.738 221.031, 129.46 225.667, 121.805 229.652, 113.833 232.954, 112.205 233.531, 110.568 234.079, 108.921 234.598, 140 180, 150.35 178.64, 160 174.64, 168.28 168.28, 174.64 160, 176.5 160"/>

<polyline fill="red" stroke="none" points="156 145, 164 145, 164 137, 163 135, 157 135, 156 137"/>
<polyline fill="red" stroke="none" points="163.285 132.33, 170.213 128.33, 166.213 121.402, 164.347 120.17, 159.151 123.17, 159.285 125.402"/>
<polyline fill="red" stroke="none" points="152.33 128.644, 156.33 121.715, 149.402 117.715, 147.17 117.581, 144.17 122.778, 145.402 124.644"/>
<polyline fill="red" stroke="none" points="145 116, 145 108, 137 108, 135 109, 135 115, 137 116"/>
<polyline fill="red" stroke="none" points="136.33 123.644, 132.33 116.715, 125.402 120.715, 124.17 122.581, 127.17 127.778, 129.402 127.644"/>
<polyline fill="red" stroke="none" points="121.715 123.67, 114.787 119.67, 110.787 126.598, 110.653 128.83, 115.849 131.83, 117.715 130.598"/>
<polyline fill="red" stroke="none" points="124 135, 116 135, 116 143, 117 145, 123 145, 124 143"/>
<polyline fill="red" stroke="none" points="116.715 147.67, 109.787 151.67, 113.787 158.598, 115.653 159.83, 120.849 156.83, 120.715 154.598"/>
<polyline fill="red" stroke="none" points="127.67 151.356, 123.67 158.285, 130.598 162.285, 132.83 162.419, 135.83 157.222, 134.598 155.356"/>
<polyline fill="red" stroke="none" points="135 164, 135 172, 143 172, 145 171, 145 165, 143 164"/>
<polyline fill="red" stroke="none" points="143.67 156.356, 147.67 163.285, 154.598 159.285, 155.83 157.419, 152.83 152.222, 150.598 152.356"/>
<polyline fill="red" stroke="none" points="158.285 156.33, 165.213 160.33, 169.213 153.402, 169.347 151.17, 164.151 148.17, 162.285 149.402"/>

<polyline fill="red" stroke="none" points="214 132, 214 124, 206 124, 204 125, 204 131, 206 132"/>
<polyline fill="red" stroke="none" points="228 134, 228 126, 220 126, 218 127, 218 133, 220 134"/>
<polyline fill="red" stroke="none" points="242 134, 242 126, 234 126, 232 127, 232 133, 234 134"/>
<polyline fill="red" stroke="none" points="122.196 182.837, 129.124 186.837, 133.124 179.909, 133.258 177.677, 128.062 174.677, 126.196 175.909"/>
<polyline fill="red" stroke="none" points="113.464 193.962, 120.392 197.962, 124.392 191.033, 124.526 188.801, 119.33 185.801, 117.464 187.033"/>
<polyline fill="red" stroke="none" points="109.928 208.086, 116.856 212.086, 120.856 205.158, 120.99 202.926, 115.794 199.926, 113.928 201.158"/>
<polyline fill="red" stroke="none" points="101.196 219.21, 108.124 223.21, 112.124 216.282, 112.258 214.05, 107.062 211.05, 105.196 212.282"/>
<polyline fill="red" stroke="none" points="94.196 231.335, 101.124 235.335, 105.124 228.406, 105.258 226.174, 100.062 223.174, 98.196 224.406"/>
<polyline fill="red" stroke="none" points="111.804 103.163, 104.876 107.163, 108.876 114.091, 110.742 115.323, 115.938 112.323, 115.804 110.091"/>
<polyline fill="red" stroke="none" points="106.536 90.038, 99.608 94.038, 103.608 100.967, 105.474 102.199, 110.67 99.199, 110.536 96.967"/>
<polyline fill="red" stroke="none" points="96.072 79.914, 89.144 83.914, 93.144 90.842, 95.01 92.074, 100.206 89.074, 100.072 86.842"/>
<polyline fill="red" stroke="none" points="90.804 66.79, 83.876 70.79, 87.876 77.718, 89.742 78.95, 94.938 75.95, 94.804 73.718"/>
<polyline fill="red" stroke="none" points="83.804 54.665, 76.876 58.665, 80.876 65.594, 82.742 66.826, 87.938 63.826, 87.804 61.594"/>

<polyline fill="#eeffdd" stroke="none" points="167.567 196.33, 174.495 200.33, 178.495 193.402, 178.629 191.17, 173.433 188.17, 171.567 189.402"/>
<polyline fill="#ddffbb" stroke="none" points="172.143 188.484, 179.393 191.865, 182.774 184.614, 182.713 182.379, 177.275 179.843, 175.524 181.233"/>
<polyline fill="#bbff99" stroke="none" points="176.018 180.269, 183.535 183.005, 186.272 175.487, 186.016 173.266, 180.378 171.214, 178.754 172.751"/>
<polyline fill="#33bb11" stroke="none" points="179.162 171.747, 186.89 173.817, 188.96 166.09, 188.512 163.899, 182.716 162.346, 181.233 164.019"/>

<polyline fill="#55ff22" stroke="none" points="160.301 254.681, 169.99 247.246, 178.995 238.995, 187.246 229.99, 194.681 220.301, 201.244 210, 206.883 199.167, 211.557 187.883, 215.23 176.235, 217.873 164.311, 219.467 152.202, 220 140, 219.467 127.798, 217.873 115.689, 215.23 103.765, 211.557 92.1172, 206.883 80.8334, 201.244 70, 194.681 59.6993, 187.246 50.0097, 178.995 41.0051, 167.681 52.3188, 150.711 1.40707, 201.622 18.3776, 190.309 29.6913, 199.503 39.7251, 207.788 50.5221, 215.1 62, 221.384 74.0716, 226.592 86.6449, 230.684 99.6242, 233.63 112.911, 235.406 126.404, 236 140, 235.406 153.596, 233.63 167.089, 230.684 180.376, 226.592 193.355, 221.384 205.928, 215.1 218, 207.788 229.478, 199.503 240.275, 190.309 250.309, 180.275 259.503, 169.478 267.788"/>

<text x="320" y="140" font-family="Liberation Sans, sans-serif" font-size="80px" font-weight="bold">Overpass</text>
<text x="320" y="220" font-family="Liberation Sans, sans-serif" font-size="100px" fill="#55ff22" font-weight="bold">API</text>

<!--
<text x="30" y="30" font-family="Liberation Sans, sans-serif"><tspan font-size="32px" fill="none">SIR1</tspan>
 <tspan font-size="16px" dx="20">von</tspan>
  <tspan font-size="24px" dx="20">Capolinea Nord - Pontevigodarzere</tspan></text>
<text x="30" y="60" font-family="Liberation Sans, sans-serif"><tspan font-size="32px" fill="none">SIR1</tspan>
  <tspan font-size="16px" dx="20">nach</tspan>
  <tspan font-size="24px" dx="20">Capolinea Sud - Guizza</tspan></text>
<text x="30" y="45" font-family="Liberation Sans, sans-serif" font-size="32px" fill="blue">SIR1</text>

<polyline fill="none" stroke="gray" stroke-width="1px" points="157.279 310, 157.279 330"/>

<polyline fill="none" stroke="gray" stroke-width="1px" points="199.706 310, 199.706 330"/>

<polyline fill="none" stroke="gray" stroke-width="1px" points="242.132 310, 242.132 330"/>

<polyline fill="none" stroke="gray" stroke-width="1px" points="284.558 310, 284.558 330"/>

<polyline fill="none" stroke="gray" stroke-width="1px" points="326.985 310, 326.985 330"/>

<polyline fill="none" stroke="gray" stroke-width="1px" points="1034.09 310, 1034.09 330"/>

<polyline fill="none" stroke="gray" stroke-width="1px" points="1076.52 310, 1076.52 330"/>

<polyline fill="none" stroke="gray" stroke-width="1px" points="1260.37 310, 1260.37 330"/>

<polyline fill="none" stroke="gray" stroke-width="1px" points="1430.07 310, 1430.07 330"/>

<polyline fill="none" stroke="blue" stroke-width="7px" points="30 320, 1472.5 320"/>
<circle cx="30" cy="320" r="9" fill="white" stroke="blue" stroke-width="2px"/>

<text x="0" y="-10" transform="translate(30,320) rotate(-45,0,-10)" font-family="Liberation Sans, sans-serif" font-size="10px" font-weight="bold">Pontevigodarzere</text>

<text x="0" y="0" transform="translate(30,340)" font-family="Liberation Sans, sans-serif" font-size="10px" text-anchor="middle" fill="#777777">P+R</text>

<text x="0" y="0" transform="translate(30,350)" font-family="Liberation Sans, sans-serif" font-size="10px" text-anchor="middle" fill="#c52726">4</text>

<text x="0" y="0" transform="translate(30,360)" font-family="Liberation Sans, sans-serif" font-size="10px" text-anchor="middle" fill="#f01d14">19</text>


<text x="0" y="-10" transform="translate(72.4264,320) rotate(-45,0,-10)" font-family="Liberation Sans, sans-serif" font-size="10px">Fornace Morandi</text>

<circle cx="114.853" cy="320" r="7" fill="blue"/>

<text x="0" y="-10" transform="translate(114.853,320) rotate(-45,0,-10)" font-family="Liberation Sans, sans-serif" font-size="10px">San Gregorio</text>

<circle cx="157.279" cy="320" r="7" fill="white" stroke="blue" stroke-width="2px"/>

<text x="0" y="-10" transform="translate(157.279,320) rotate(-45,0,-10)" font-family="Liberation Sans, sans-serif" font-size="10px">San Carlo</text>

<text x="0" y="0" transform="translate(157.279,340)" font-family="Liberation Sans, sans-serif" font-size="10px" text-anchor="middle" fill="#869940">15</text>

<text x="0" y="0" transform="translate(157.279,350)" font-family="Liberation Sans, sans-serif" font-size="10px" text-anchor="middle" fill="#00ab4c">16</text>

<text x="0" y="0" transform="translate(157.279,360)" font-family="Liberation Sans, sans-serif" font-size="10px" text-anchor="middle" fill="#6f2f26">24</text>

<circle cx="199.706" cy="320" r="7" fill="white" stroke="blue" stroke-width="2px"/>

<text x="0" y="-10" transform="translate(199.706,320) rotate(-45,0,-10)" font-family="Liberation Sans, sans-serif" font-size="10px">Palasport</text>

<text x="0" y="0" transform="translate(199.706,340)" font-family="Liberation Sans, sans-serif" font-size="10px" text-anchor="middle" fill="#00ab4c">16</text>

<circle cx="242.132" cy="320" r="7" fill="white" stroke="blue" stroke-width="2px"/>

<text x="0" y="-10" transform="translate(242.132,320) rotate(-45,0,-10)" font-family="Liberation Sans, sans-serif" font-size="10px">Dazio</text>

<text x="0" y="0" transform="translate(242.132,340)" font-family="Liberation Sans, sans-serif" font-size="10px" text-anchor="middle" fill="#008a46">1</text>

<text x="0" y="0" transform="translate(242.132,350)" font-family="Liberation Sans, sans-serif" font-size="10px" text-anchor="middle" fill="#00ab4c">16</text>

<text x="0" y="0" transform="translate(242.132,360)" font-family="Liberation Sans, sans-serif" font-size="10px" text-anchor="middle" fill="#683d36">22</text>

<circle cx="284.558" cy="320" r="7" fill="white" stroke="blue" stroke-width="2px"/>

<text x="0" y="-10" transform="translate(284.558,320) rotate(-45,0,-10)" font-family="Liberation Sans, sans-serif" font-size="10px">Arcella</text>

<text x="0" y="0" transform="translate(284.558,340)" font-family="Liberation Sans, sans-serif" font-size="10px" text-anchor="middle" fill="#008a46">1</text>

<text x="0" y="0" transform="translate(284.558,350)" font-family="Liberation Sans, sans-serif" font-size="10px" text-anchor="middle" fill="#00ab4c">16</text>

<text x="0" y="0" transform="translate(284.558,360)" font-family="Liberation Sans, sans-serif" font-size="10px" text-anchor="middle" fill="#683d36">22</text>

<circle cx="326.985" cy="320" r="7" fill="white" stroke="blue" stroke-width="2px"/>

<text x="0" y="-10" transform="translate(326.985,320) rotate(-45,0,-10)" font-family="Liberation Sans, sans-serif" font-size="10px">Borgomagno</text>

<text x="0" y="0" transform="translate(326.985,340)" font-family="Liberation Sans, sans-serif" font-size="10px" text-anchor="middle" fill="#777777">P+R</text>

<text x="0" y="0" transform="translate(326.985,350)" font-family="Liberation Sans, sans-serif" font-size="10px" text-anchor="middle" fill="#1baa40">13</text>

<text x="0" y="0" transform="translate(326.985,360)" font-family="Liberation Sans, sans-serif" font-size="10px" text-anchor="middle" fill="#869940">15</text>

<text x="0" y="0" transform="translate(326.985,370)" font-family="Liberation Sans, sans-serif" font-size="10px" text-anchor="middle" fill="#00ab4c">16</text>

<text x="0" y="0" transform="translate(326.985,380)" font-family="Liberation Sans, sans-serif" font-size="10px" text-anchor="middle" fill="#683d36">22</text>

<text x="0" y="0" transform="translate(326.985,390)" font-family="Liberation Sans, sans-serif" font-size="10px" text-anchor="middle" fill="#6f2f26">24</text>

<circle cx="369.411" cy="320" r="7" fill="white" stroke="blue" stroke-width="2px"/>

<text x="0" y="-10" transform="translate(369.411,320) rotate(-45,0,-10)" font-family="Liberation Sans, sans-serif" font-size="10px">Stazione FS</text>

<text x="0" y="-10" transform="translate(383.553,320) rotate(-45,0,-10)" font-family="Liberation Sans, sans-serif" font-size="10px">
  <tspan dx="5" fill="#0000ff">A</tspan>
  <tspan dx="5" fill="#ffbf3f">AT</tspan>
  <tspan dx="5" fill="#09aae0">DP</tspan>
  <tspan dx="5" fill="#0000ff">M</tspan>
  <tspan dx="5" fill="#777777">P+R</tspan>
  <tspan dx="5" fill="#0000ff">T</tspan>
</text>

<text x="0" y="-10" transform="translate(397.696,320) rotate(-45,0,-10)" font-family="Liberation Sans, sans-serif" font-size="10px">
  <tspan dx="5" fill="#008a46">1</tspan>
  <tspan dx="5" fill="#d30d84">3</tspan>
  <tspan dx="5" fill="#2c7fc1">5</tspan>
  <tspan dx="5" fill="#312f9a">6</tspan>
  <tspan dx="5" fill="#f66c85">7</tspan>
  <tspan dx="5" fill="#f4911c">9</tspan>
</text>

<text x="0" y="-10" transform="translate(411.838,320) rotate(-45,0,-10)" font-family="Liberation Sans, sans-serif" font-size="10px">
  <tspan dx="5" fill="#cf1f5d">10</tspan>
  <tspan dx="5" fill="#b86a3a">12</tspan>
  <tspan dx="5" fill="#1baa40">13</tspan>
  <tspan dx="5" fill="#869940">15</tspan>
  <tspan dx="5" fill="#00ab4c">16</tspan>
  <tspan dx="5" fill="#c36528">18</tspan>
</text>

<text x="0" y="-10" transform="translate(425.98,320) rotate(-45,0,-10)" font-family="Liberation Sans, sans-serif" font-size="10px">
  <tspan dx="5" fill="#683d36">22</tspan>
  <tspan dx="5" fill="#6f2f26">24</tspan>
  <tspan dx="5" fill="#7fcb9c">41</tspan>
  <tspan dx="5" fill="#8186c0">42</tspan>
  <tspan dx="5" fill="#f3976e">43</tspan>
</text>

<circle cx="468.406" cy="320" r="7" fill="white" stroke="blue" stroke-width="2px"/>

<text x="0" y="-10" transform="translate(468.406,320) rotate(-45,0,-10)" font-family="Liberation Sans, sans-serif" font-size="10px">Trieste</text>

<text x="0" y="-10" transform="translate(482.548,320) rotate(-45,0,-10)" font-family="Liberation Sans, sans-serif" font-size="10px">
  <tspan dx="5" fill="#0000ff">A</tspan>
  <tspan dx="5" fill="#ffbf3f">AT</tspan>
  <tspan dx="5" fill="#09aae0">DP</tspan>
  <tspan dx="5" fill="#0000ff">M</tspan>
  <tspan dx="5" fill="#0000ff">T</tspan>
  <tspan dx="5" fill="#d30d84">3</tspan>
</text>

<text x="0" y="-10" transform="translate(496.69,320) rotate(-45,0,-10)" font-family="Liberation Sans, sans-serif" font-size="10px">
  <tspan dx="5" fill="#2c7fc1">5</tspan>
  <tspan dx="5" fill="#f4911c">9</tspan>
  <tspan dx="5" fill="#cf1f5d">10</tspan>
  <tspan dx="5" fill="#006332">11</tspan>
  <tspan dx="5" fill="#b86a3a">12</tspan>
  <tspan dx="5" fill="#1baa40">13</tspan>
</text>

<text x="0" y="-10" transform="translate(510.833,320) rotate(-45,0,-10)" font-family="Liberation Sans, sans-serif" font-size="10px">
  <tspan dx="5" fill="#869940">15</tspan>
  <tspan dx="5" fill="#00ab4c">16</tspan>
  <tspan dx="5" fill="#c36528">18</tspan>
  <tspan dx="5" fill="#683d36">22</tspan>
  <tspan dx="5" fill="#6f2f26">24</tspan>
  <tspan dx="5" fill="#8186c0">42</tspan>
</text>

<circle cx="553.259" cy="320" r="7" fill="white" stroke="blue" stroke-width="2px"/>

<text x="0" y="-10" transform="translate(553.259,320) rotate(-45,0,-10)" font-family="Liberation Sans, sans-serif" font-size="10px">Eremitani</text>

<text x="0" y="-10" transform="translate(567.401,320) rotate(-45,0,-10)" font-family="Liberation Sans, sans-serif" font-size="10px">
  <tspan dx="5" fill="#0000ff">A</tspan>
  <tspan dx="5" fill="#ffbf3f">AT</tspan>
  <tspan dx="5" fill="#0000ff">M</tspan>
  <tspan dx="5" fill="#0000ff">T</tspan>
  <tspan dx="5" fill="#d30d84">3</tspan>
  <tspan dx="5" fill="#2c7fc1">5</tspan>
</text>

<text x="0" y="-10" transform="translate(581.543,320) rotate(-45,0,-10)" font-family="Liberation Sans, sans-serif" font-size="10px">
  <tspan dx="5" fill="#f4911c">9</tspan>
  <tspan dx="5" fill="#cf1f5d">10</tspan>
  <tspan dx="5" fill="#006332">11</tspan>
  <tspan dx="5" fill="#b86a3a">12</tspan>
  <tspan dx="5" fill="#1baa40">13</tspan>
  <tspan dx="5" fill="#869940">15</tspan>
</text>

<text x="0" y="-10" transform="translate(595.685,320) rotate(-45,0,-10)" font-family="Liberation Sans, sans-serif" font-size="10px">
  <tspan dx="5" fill="#00ab4c">16</tspan>
  <tspan dx="5" fill="#c36528">18</tspan>
  <tspan dx="5" fill="#683d36">22</tspan>
  <tspan dx="5" fill="#6f2f26">24</tspan>
  <tspan dx="5" fill="#8186c0">42</tspan>
</text>

<circle cx="638.112" cy="320" r="7" fill="white" stroke="blue" stroke-width="2px"/>

<text x="0" y="-10" transform="translate(638.112,320) rotate(-45,0,-10)" font-family="Liberation Sans, sans-serif" font-size="10px">Ponti Romani</text>

<text x="0" y="-10" transform="translate(652.254,320) rotate(-45,0,-10)" font-family="Liberation Sans, sans-serif" font-size="10px">
  <tspan dx="5" fill="#0000ff">A</tspan>
  <tspan dx="5" fill="#ffbf3f">AT</tspan>
  <tspan dx="5" fill="#09aae0">DP</tspan>
  <tspan dx="5" fill="#0000ff">M</tspan>
  <tspan dx="5" fill="#0000ff">T</tspan>
  <tspan dx="5" fill="#d30d84">3</tspan>
</text>

<text x="0" y="-10" transform="translate(666.396,320) rotate(-45,0,-10)" font-family="Liberation Sans, sans-serif" font-size="10px">
  <tspan dx="5" fill="#2c7fc1">5</tspan>
  <tspan dx="5" fill="#f4911c">9</tspan>
  <tspan dx="5" fill="#cf1f5d">10</tspan>
  <tspan dx="5" fill="#006332">11</tspan>
  <tspan dx="5" fill="#b86a3a">12</tspan>
  <tspan dx="5" fill="#1baa40">13</tspan>
</text>

<text x="0" y="-10" transform="translate(680.538,320) rotate(-45,0,-10)" font-family="Liberation Sans, sans-serif" font-size="10px">
  <tspan dx="5" fill="#869940">15</tspan>
  <tspan dx="5" fill="#00ab4c">16</tspan>
  <tspan dx="5" fill="#c36528">18</tspan>
  <tspan dx="5" fill="#683d36">22</tspan>
  <tspan dx="5" fill="#8186c0">42</tspan>
</text>

<circle cx="722.965" cy="320" r="7" fill="white" stroke="blue" stroke-width="2px"/>

<text x="0" y="-10" transform="translate(722.965,320) rotate(-45,0,-10)" font-family="Liberation Sans, sans-serif" font-size="10px">Tito Livio</text>

<text x="0" y="-10" transform="translate(737.107,320) rotate(-45,0,-10)" font-family="Liberation Sans, sans-serif" font-size="10px">
  <tspan dx="5" fill="#0000ff">A</tspan>
  <tspan dx="5" fill="#ffbf3f">AT</tspan>
  <tspan dx="5" fill="#09aae0">DP</tspan>
  <tspan dx="5" fill="#0000ff">M</tspan>
  <tspan dx="5" fill="#0000ff">T</tspan>
  <tspan dx="5" fill="#d30d84">3</tspan>
</text>

<text x="0" y="-10" transform="translate(751.249,320) rotate(-45,0,-10)" font-family="Liberation Sans, sans-serif" font-size="10px">
  <tspan dx="5" fill="#006332">11</tspan>
  <tspan dx="5" fill="#b86a3a">12</tspan>
  <tspan dx="5" fill="#1baa40">13</tspan>
  <tspan dx="5" fill="#00ab4c">16</tspan>
  <tspan dx="5" fill="#c36528">18</tspan>
  <tspan dx="5" fill="#683d36">22</tspan>
</text>

<circle cx="793.675" cy="320" r="7" fill="white" stroke="blue" stroke-width="2px"/>

<text x="0" y="-10" transform="translate(793.675,320) rotate(-45,0,-10)" font-family="Liberation Sans, sans-serif" font-size="10px">Santo</text>

<text x="0" y="-10" transform="translate(807.817,320) rotate(-45,0,-10)" font-family="Liberation Sans, sans-serif" font-size="10px">
  <tspan dx="5" fill="#0000ff">A</tspan>
  <tspan dx="5" fill="#ffbf3f">AT</tspan>
  <tspan dx="5" fill="#09aae0">DP</tspan>
  <tspan dx="5" fill="#0000ff">M</tspan>
  <tspan dx="5" fill="#0000ff">T</tspan>
  <tspan dx="5" fill="#d30d84">3</tspan>
</text>

<text x="0" y="-10" transform="translate(821.96,320) rotate(-45,0,-10)" font-family="Liberation Sans, sans-serif" font-size="10px">
  <tspan dx="5" fill="#006332">11</tspan>
  <tspan dx="5" fill="#b86a3a">12</tspan>
  <tspan dx="5" fill="#1baa40">13</tspan>
  <tspan dx="5" fill="#00ab4c">16</tspan>
  <tspan dx="5" fill="#c36528">18</tspan>
  <tspan dx="5" fill="#683d36">22</tspan>
</text>

<circle cx="864.386" cy="320" r="7" fill="white" stroke="blue" stroke-width="2px"/>

<text x="0" y="-10" transform="translate(864.386,320) rotate(-45,0,-10)" font-family="Liberation Sans, sans-serif" font-size="10px">Prato Della Valle</text>

<text x="0" y="-10" transform="translate(878.528,320) rotate(-45,0,-10)" font-family="Liberation Sans, sans-serif" font-size="10px">
  <tspan dx="5" fill="#0000ff">A</tspan>
  <tspan dx="5" fill="#ffbf3f">AT</tspan>
  <tspan dx="5" fill="#09aae0">DP</tspan>
  <tspan dx="5" fill="#0000ff">M</tspan>
  <tspan dx="5" fill="#0000ff">T</tspan>
  <tspan dx="5" fill="#d30d84">3</tspan>
</text>

<text x="0" y="-10" transform="translate(892.67,320) rotate(-45,0,-10)" font-family="Liberation Sans, sans-serif" font-size="10px">
  <tspan dx="5" fill="#006332">11</tspan>
  <tspan dx="5" fill="#b86a3a">12</tspan>
  <tspan dx="5" fill="#1baa40">13</tspan>
  <tspan dx="5" fill="#00ab4c">16</tspan>
  <tspan dx="5" fill="#c36528">18</tspan>
  <tspan dx="5" fill="#683d36">22</tspan>
</text>

<text x="0" y="-10" transform="translate(906.812,320) rotate(-45,0,-10)" font-family="Liberation Sans, sans-serif" font-size="10px">
  <tspan dx="5" fill="#6f2f26">24</tspan>
  <tspan dx="5" fill="#f3976e">43</tspan>
</text>

<circle cx="949.239" cy="320" r="7" fill="white" stroke="blue" stroke-width="2px"/>

<text x="0" y="-10" transform="translate(949.239,320) rotate(-45,0,-10)" font-family="Liberation Sans, sans-serif" font-size="10px">Cavalletto</text>

<text x="0" y="-10" transform="translate(963.381,320) rotate(-45,0,-10)" font-family="Liberation Sans, sans-serif" font-size="10px">
  <tspan dx="5" fill="#0000ff">A</tspan>
  <tspan dx="5" fill="#ffbf3f">AT</tspan>
  <tspan dx="5" fill="#09aae0">DP</tspan>
  <tspan dx="5" fill="#0000ff">M</tspan>
  <tspan dx="5" fill="#0000ff">T</tspan>
  <tspan dx="5" fill="#d30d84">3</tspan>
</text>

<text x="0" y="-10" transform="translate(977.523,320) rotate(-45,0,-10)" font-family="Liberation Sans, sans-serif" font-size="10px">
  <tspan dx="5" fill="#006332">11</tspan>
  <tspan dx="5" fill="#b86a3a">12</tspan>
  <tspan dx="5" fill="#1baa40">13</tspan>
  <tspan dx="5" fill="#00ab4c">16</tspan>
  <tspan dx="5" fill="#c36528">18</tspan>
  <tspan dx="5" fill="#683d36">22</tspan>
</text>

<text x="0" y="-10" transform="translate(991.665,320) rotate(-45,0,-10)" font-family="Liberation Sans, sans-serif" font-size="10px">
  <tspan dx="5" fill="#6f2f26">24</tspan>
  <tspan dx="5" fill="#f3976e">43</tspan>
</text>

<circle cx="1034.09" cy="320" r="7" fill="white" stroke="blue" stroke-width="2px"/>

<text x="0" y="-10" transform="translate(1034.09,320) rotate(-45,0,-10)" font-family="Liberation Sans, sans-serif" font-size="10px">Diaz</text>

<text x="0" y="0" transform="translate(1034.09,340)" font-family="Liberation Sans, sans-serif" font-size="10px" text-anchor="middle" fill="#0000ff">A</text>

<text x="0" y="0" transform="translate(1034.09,350)" font-family="Liberation Sans, sans-serif" font-size="10px" text-anchor="middle" fill="#ffbf3f">AT</text>

<text x="0" y="0" transform="translate(1034.09,360)" font-family="Liberation Sans, sans-serif" font-size="10px" text-anchor="middle" fill="#683d36">22</text>

<text x="0" y="0" transform="translate(1034.09,370)" font-family="Liberation Sans, sans-serif" font-size="10px" text-anchor="middle" fill="#6f2f26">24</text>

<text x="0" y="0" transform="translate(1034.09,380)" font-family="Liberation Sans, sans-serif" font-size="10px" text-anchor="middle" fill="#f3976e">43</text>

<circle cx="1076.52" cy="320" r="7" fill="white" stroke="blue" stroke-width="2px"/>

<text x="0" y="-10" transform="translate(1076.52,320) rotate(-45,0,-10)" font-family="Liberation Sans, sans-serif" font-size="10px">Santa Croce</text>

<text x="0" y="0" transform="translate(1076.52,340)" font-family="Liberation Sans, sans-serif" font-size="10px" text-anchor="middle" fill="#0000ff">A</text>

<text x="0" y="0" transform="translate(1076.52,350)" font-family="Liberation Sans, sans-serif" font-size="10px" text-anchor="middle" fill="#ffbf3f">AT</text>

<text x="0" y="0" transform="translate(1076.52,360)" font-family="Liberation Sans, sans-serif" font-size="10px" text-anchor="middle" fill="#683d36">22</text>

<text x="0" y="0" transform="translate(1076.52,370)" font-family="Liberation Sans, sans-serif" font-size="10px" text-anchor="middle" fill="#6f2f26">24</text>

<text x="0" y="0" transform="translate(1076.52,380)" font-family="Liberation Sans, sans-serif" font-size="10px" text-anchor="middle" fill="#f3976e">43</text>

<circle cx="1118.94" cy="320" r="7" fill="white" stroke="blue" stroke-width="2px"/>

<text x="0" y="-10" transform="translate(1118.94,320) rotate(-45,0,-10)" font-family="Liberation Sans, sans-serif" font-size="10px">Cavallotti</text>

<text x="0" y="-10" transform="translate(1133.09,320) rotate(-45,0,-10)" font-family="Liberation Sans, sans-serif" font-size="10px">
  <tspan dx="5" fill="#0000ff">A</tspan>
  <tspan dx="5" fill="#ffbf3f">AT</tspan>
  <tspan dx="5" fill="#2c7fc1">5</tspan>
  <tspan dx="5" fill="#683d36">22</tspan>
  <tspan dx="5" fill="#6f2f26">24</tspan>
  <tspan dx="5" fill="#8186c0">42</tspan>
</text>

<text x="0" y="-10" transform="translate(1147.23,320) rotate(-45,0,-10)" font-family="Liberation Sans, sans-serif" font-size="10px">
  <tspan dx="5" fill="#f3976e">43</tspan>
</text>

<circle cx="1189.66" cy="320" r="7" fill="white" stroke="blue" stroke-width="2px"/>

<text x="0" y="-10" transform="translate(1189.66,320) rotate(-45,0,-10)" font-family="Liberation Sans, sans-serif" font-size="10px">Bassanello</text>

<text x="0" y="-10" transform="translate(1203.8,320) rotate(-45,0,-10)" font-family="Liberation Sans, sans-serif" font-size="10px">
  <tspan dx="5" fill="#0000ff">A</tspan>
  <tspan dx="5" fill="#ffbf3f">AT</tspan>
  <tspan dx="5" fill="#2c7fc1">5</tspan>
  <tspan dx="5" fill="#683d36">22</tspan>
  <tspan dx="5" fill="#6f2f26">24</tspan>
  <tspan dx="5" fill="#8186c0">42</tspan>
</text>

<text x="0" y="-10" transform="translate(1217.94,320) rotate(-45,0,-10)" font-family="Liberation Sans, sans-serif" font-size="10px">
  <tspan dx="5" fill="#f3976e">43</tspan>
</text>

<path d="M -7,0 a 7 7 0 0 0 14,0 Z" style="fill:white; stroke:blue; stroke-width:2px;" transform="translate(1260.37,320)"/>
<polyline fill="none" stroke="blue" stroke-width="2px" points="0 -8, 6 -8" transform="translate(1260.37,320)"/>
<path d="M 4,-4 l 0,-8 l 6,4 Z" style="fill:blue" transform="translate(1260.37,320)"/>

<text x="0" y="-10" transform="translate(1260.37,320) rotate(-45,0,-10)" font-family="Liberation Sans, sans-serif" font-size="10px">Assunta</text>

<text x="0" y="0" transform="translate(1260.37,340)" font-family="Liberation Sans, sans-serif" font-size="10px" text-anchor="middle" fill="#6f2f26">24</text>

<text x="0" y="0" transform="translate(1260.37,350)" font-family="Liberation Sans, sans-serif" font-size="10px" text-anchor="middle" fill="#f3976e">43</text>

<path d="M -7,0 a 7 7 0 0 1 14,0 Z" style="fill:blue" transform="translate(1302.79,320)"/>
<polyline fill="none" stroke="blue" stroke-width="2px" points="-6 8, 0 8" transform="translate(1302.79,320)"/>
<path d="M -4,4 l 0,8 l -6,-4 Z" style="fill:blue" transform="translate(1302.79,320)"/>

<text x="0" y="-10" transform="translate(1302.79,320) rotate(-45,0,-10)" font-family="Liberation Sans, sans-serif" font-size="10px">Sacchetti</text>

<circle cx="1345.22" cy="320" r="7" fill="blue"/>

<text x="0" y="-10" transform="translate(1345.22,320) rotate(-45,0,-10)" font-family="Liberation Sans, sans-serif" font-size="10px">Cuoco</text>

<circle cx="1387.65" cy="320" r="7" fill="blue"/>

<text x="0" y="-10" transform="translate(1387.65,320) rotate(-45,0,-10)" font-family="Liberation Sans, sans-serif" font-size="10px">Guizza</text>

<circle cx="1430.07" cy="320" r="7" fill="white" stroke="blue" stroke-width="2px"/>

<text x="0" y="-10" transform="translate(1430.07,320) rotate(-45,0,-10)" font-family="Liberation Sans, sans-serif" font-size="10px">Capolinea Sud</text>

<text x="0" y="0" transform="translate(1430.07,340)" font-family="Liberation Sans, sans-serif" font-size="10px" text-anchor="middle" fill="#777777">P+R</text>

<text x="0" y="0" transform="translate(1430.07,350)" font-family="Liberation Sans, sans-serif" font-size="10px" text-anchor="middle" fill="#0058a9">88</text>

<circle cx="1472.5" cy="320" r="9" fill="blue"/>

<text x="0" y="-10" transform="translate(1472.5,320) rotate(-45,0,-10)" font-family="Liberation Sans, sans-serif" font-size="10px" font-weight="bold">Saimp</text>
-->


</svg>