<?xml version="1.0" encoding="UTF-8"?>
<svg id="Layer_1" data-name="Layer 1" xmlns="http://www.w3.org/2000/svg" viewBox="0 0 404.99 394.66">
  <defs>
    <style>
      .cls-1 {
        fill: #fff;
        stroke-width: 0px;
      }
    </style>
  </defs>
  <path class="cls-1" d="m136,1.06c-34.1,7.1-62.6,35-71.3,69.6-3,12-3,32,0,44,8.8,35.1,37.1,62.4,72.1,69.6,5.7,1.2,11.3,1.5,22.7,1.2,12.8-.5,16.2-.9,23.5-3.3,20.2-6.5,35.2-16.9,47-32.7,7.5-9.9,12.1-19,15.7-30.5,2.5-8.1,2.7-10.1,2.7-26.3s-.2-18.2-2.7-26.3c-9.5-30.8-31.6-53.1-62.7-63.2-7.6-2.5-10.2-2.8-24.5-3.1-10.7-.2-18.1.1-22.5,1Z"/>
  <path class="cls-1" d="m318,115.06c-14.3,3-26.8,10-37.5,21.1-19.8,20.3-25.8,51.2-15,77.7,5.5,13.6,17.9,27.8,30.3,34.8l6.1,3.5.1,56v56l15.3,15.2,15.3,15.3,25.9-26,26-26-15.5-15.5-15.5-15.5,15.3-15.3c8.3-8.4,15.2-15.7,15.2-16.2s-5.5-6.5-12.2-13.2-12-12.4-11.8-12.6c.3-.2,4.1-2.3,8.5-4.8,16.6-9.2,29.9-26.4,34.5-44.5,2.4-9.4,2.7-26.9.5-35.9-5.9-25.2-26.3-46.1-51.7-53.1-7.7-2.1-25.9-2.6-33.8-1Zm26.3,33.2c4.9,3.4,9.7,11.9,9.7,17.3,0,5.1-4.2,13.4-8.3,16.5-4.6,3.5-12.9,5.2-18.2,3.8-8.6-2.4-15.4-11.2-15.5-20-.1-16.6,18.8-26.9,32.3-17.6Z"/>
  <path class="cls-1" d="m105.5,219.26c-46.2,7.1-85,40.1-99.6,84.7-5,15.4-5.9,23.2-5.9,52.8v26.9h270v-114l-8-7.6c-9-8.6-16.1-17.8-21.2-27.4l-3.4-6.5-11-3.7c-17.9-6-26.4-6.8-72-6.7-28.5.1-42.5.5-48.9,1.5Z"/>
</svg>